G04 EAGLE Gerber RS-274X export*
G75*
%MOMM*%
%FSLAX34Y34*%
%LPD*%
%INTop Copper*%
%IPPOS*%
%AMOC8*
5,1,8,0,0,1.08239X$1,22.5*%
G01*
%ADD10R,0.800000X0.800000*%
%ADD11C,1.308000*%
%ADD12C,2.800000*%
%ADD13C,1.930400*%
%ADD14R,0.850000X3.550000*%
%ADD15R,0.850000X2.650000*%
%ADD16R,1.000000X1.100000*%
%ADD17R,1.100000X1.000000*%
%ADD18R,1.000000X1.500000*%
%ADD19R,1.500000X1.000000*%
%ADD20C,1.524000*%
%ADD21C,0.756400*%
%ADD22C,0.508000*%
%ADD23C,0.609600*%

G36*
X342268Y10167D02*
X342268Y10167D01*
X342344Y10165D01*
X342513Y10187D01*
X342684Y10201D01*
X342758Y10219D01*
X342833Y10229D01*
X342997Y10278D01*
X343163Y10319D01*
X343232Y10349D01*
X343306Y10371D01*
X343459Y10447D01*
X343616Y10514D01*
X343680Y10555D01*
X343749Y10588D01*
X343888Y10687D01*
X344032Y10779D01*
X344089Y10830D01*
X344151Y10874D01*
X344272Y10994D01*
X344400Y11108D01*
X344448Y11167D01*
X344502Y11221D01*
X344603Y11359D01*
X344710Y11492D01*
X344747Y11558D01*
X344792Y11619D01*
X344869Y11772D01*
X344954Y11920D01*
X344980Y11992D01*
X345015Y12060D01*
X345066Y12223D01*
X345125Y12383D01*
X345140Y12458D01*
X345163Y12530D01*
X345175Y12635D01*
X345220Y12867D01*
X345227Y13103D01*
X345239Y13208D01*
X345239Y875792D01*
X345233Y875868D01*
X345235Y875944D01*
X345213Y876113D01*
X345199Y876284D01*
X345181Y876358D01*
X345171Y876433D01*
X345122Y876597D01*
X345081Y876763D01*
X345051Y876832D01*
X345029Y876906D01*
X344953Y877059D01*
X344886Y877216D01*
X344845Y877280D01*
X344812Y877349D01*
X344713Y877488D01*
X344621Y877632D01*
X344570Y877689D01*
X344526Y877751D01*
X344406Y877872D01*
X344292Y878000D01*
X344233Y878048D01*
X344179Y878102D01*
X344041Y878203D01*
X343908Y878310D01*
X343842Y878347D01*
X343781Y878392D01*
X343628Y878469D01*
X343480Y878554D01*
X343408Y878580D01*
X343340Y878615D01*
X343177Y878666D01*
X343017Y878725D01*
X342942Y878740D01*
X342870Y878763D01*
X342765Y878775D01*
X342533Y878820D01*
X342297Y878827D01*
X342192Y878839D01*
X82296Y878839D01*
X82220Y878833D01*
X82144Y878835D01*
X81975Y878813D01*
X81804Y878799D01*
X81730Y878781D01*
X81655Y878771D01*
X81491Y878722D01*
X81325Y878681D01*
X81256Y878651D01*
X81182Y878629D01*
X81029Y878553D01*
X80872Y878486D01*
X80808Y878445D01*
X80739Y878412D01*
X80600Y878313D01*
X80456Y878221D01*
X80399Y878170D01*
X80337Y878126D01*
X80216Y878006D01*
X80088Y877892D01*
X80040Y877833D01*
X79986Y877779D01*
X79885Y877641D01*
X79778Y877508D01*
X79741Y877442D01*
X79696Y877381D01*
X79619Y877228D01*
X79534Y877080D01*
X79508Y877008D01*
X79473Y876940D01*
X79422Y876777D01*
X79363Y876617D01*
X79348Y876542D01*
X79325Y876470D01*
X79313Y876365D01*
X79268Y876133D01*
X79261Y875897D01*
X79249Y875792D01*
X79249Y784254D01*
X78785Y783133D01*
X77927Y782275D01*
X76806Y781811D01*
X13208Y781811D01*
X13132Y781805D01*
X13056Y781807D01*
X12887Y781785D01*
X12716Y781771D01*
X12642Y781753D01*
X12567Y781743D01*
X12403Y781694D01*
X12237Y781653D01*
X12168Y781623D01*
X12094Y781601D01*
X11941Y781525D01*
X11784Y781458D01*
X11720Y781417D01*
X11651Y781384D01*
X11512Y781285D01*
X11368Y781193D01*
X11311Y781142D01*
X11249Y781098D01*
X11128Y780978D01*
X11000Y780864D01*
X10952Y780805D01*
X10898Y780751D01*
X10797Y780613D01*
X10690Y780480D01*
X10653Y780414D01*
X10608Y780353D01*
X10531Y780200D01*
X10446Y780052D01*
X10420Y779980D01*
X10385Y779912D01*
X10334Y779749D01*
X10275Y779589D01*
X10260Y779514D01*
X10237Y779442D01*
X10225Y779337D01*
X10180Y779105D01*
X10173Y778869D01*
X10161Y778764D01*
X10161Y13208D01*
X10167Y13132D01*
X10165Y13056D01*
X10187Y12887D01*
X10201Y12716D01*
X10219Y12642D01*
X10229Y12567D01*
X10278Y12403D01*
X10319Y12237D01*
X10349Y12168D01*
X10371Y12094D01*
X10447Y11941D01*
X10514Y11784D01*
X10555Y11720D01*
X10588Y11651D01*
X10687Y11512D01*
X10779Y11368D01*
X10830Y11311D01*
X10874Y11249D01*
X10994Y11128D01*
X11108Y11000D01*
X11167Y10952D01*
X11221Y10898D01*
X11359Y10797D01*
X11492Y10690D01*
X11558Y10653D01*
X11619Y10608D01*
X11772Y10531D01*
X11920Y10446D01*
X11992Y10420D01*
X12060Y10385D01*
X12223Y10334D01*
X12383Y10275D01*
X12458Y10260D01*
X12530Y10237D01*
X12635Y10225D01*
X12867Y10180D01*
X13103Y10173D01*
X13208Y10161D01*
X342192Y10161D01*
X342268Y10167D01*
G37*
%LPC*%
G36*
X84042Y77247D02*
X84042Y77247D01*
X79759Y79021D01*
X76481Y82299D01*
X74707Y86582D01*
X74707Y91218D01*
X76481Y95501D01*
X79759Y98779D01*
X84042Y100553D01*
X84296Y100553D01*
X84373Y100559D01*
X84449Y100557D01*
X84618Y100579D01*
X84788Y100593D01*
X84862Y100611D01*
X84938Y100621D01*
X85101Y100670D01*
X85267Y100711D01*
X85337Y100741D01*
X85410Y100763D01*
X85563Y100839D01*
X85720Y100906D01*
X85785Y100947D01*
X85853Y100980D01*
X85992Y101079D01*
X86136Y101171D01*
X86193Y101222D01*
X86255Y101266D01*
X86377Y101386D01*
X86504Y101500D01*
X86552Y101559D01*
X86606Y101613D01*
X86707Y101751D01*
X86814Y101884D01*
X86852Y101950D01*
X86897Y102011D01*
X86974Y102164D01*
X87058Y102312D01*
X87085Y102384D01*
X87119Y102452D01*
X87170Y102615D01*
X87230Y102775D01*
X87244Y102850D01*
X87267Y102922D01*
X87279Y103027D01*
X87325Y103259D01*
X87332Y103495D01*
X87344Y103600D01*
X87344Y187756D01*
X87335Y187869D01*
X87335Y187984D01*
X87315Y188115D01*
X87304Y188247D01*
X87276Y188358D01*
X87259Y188471D01*
X87217Y188597D01*
X87185Y188726D01*
X87140Y188831D01*
X87104Y188940D01*
X87043Y189058D01*
X86991Y189180D01*
X86929Y189276D01*
X86876Y189377D01*
X86818Y189451D01*
X86725Y189596D01*
X86509Y189838D01*
X86451Y189910D01*
X85953Y190409D01*
X85895Y190458D01*
X85842Y190514D01*
X85707Y190618D01*
X85577Y190728D01*
X85511Y190768D01*
X85451Y190814D01*
X85301Y190895D01*
X85154Y190983D01*
X85083Y191011D01*
X85016Y191047D01*
X84855Y191103D01*
X84696Y191166D01*
X84622Y191183D01*
X84550Y191207D01*
X84381Y191236D01*
X84215Y191273D01*
X84138Y191277D01*
X84063Y191290D01*
X83893Y191291D01*
X83722Y191300D01*
X83646Y191292D01*
X83570Y191293D01*
X83401Y191266D01*
X83231Y191248D01*
X83158Y191228D01*
X83082Y191216D01*
X82920Y191163D01*
X82762Y191119D01*
X65630Y191119D01*
X65508Y191193D01*
X65366Y191289D01*
X65297Y191320D01*
X65232Y191359D01*
X65073Y191423D01*
X64917Y191494D01*
X64844Y191514D01*
X64774Y191543D01*
X64606Y191580D01*
X64442Y191625D01*
X64366Y191633D01*
X64292Y191649D01*
X64121Y191659D01*
X63951Y191677D01*
X63875Y191673D01*
X63799Y191677D01*
X63629Y191659D01*
X63458Y191649D01*
X63384Y191633D01*
X63309Y191625D01*
X63144Y191580D01*
X62977Y191543D01*
X62922Y191519D01*
X62833Y191494D01*
X62385Y191288D01*
X62366Y191276D01*
X62352Y191270D01*
X61456Y190752D01*
X60810Y190579D01*
X56022Y190579D01*
X56022Y198120D01*
X56022Y205661D01*
X60810Y205661D01*
X61456Y205488D01*
X62352Y204970D01*
X62506Y204897D01*
X62657Y204816D01*
X62729Y204792D01*
X62798Y204759D01*
X62962Y204712D01*
X63124Y204656D01*
X63199Y204643D01*
X63272Y204622D01*
X63442Y204602D01*
X63610Y204574D01*
X63686Y204573D01*
X63761Y204564D01*
X63933Y204572D01*
X64103Y204571D01*
X64178Y204582D01*
X64254Y204586D01*
X64422Y204621D01*
X64591Y204647D01*
X64663Y204671D01*
X64737Y204686D01*
X64897Y204748D01*
X65059Y204801D01*
X65127Y204837D01*
X65198Y204864D01*
X65345Y204950D01*
X65497Y205029D01*
X65543Y205066D01*
X65623Y205113D01*
X65632Y205121D01*
X67336Y205121D01*
X67554Y205138D01*
X67772Y205152D01*
X67800Y205158D01*
X67828Y205161D01*
X68040Y205213D01*
X68253Y205262D01*
X68279Y205273D01*
X68307Y205279D01*
X68508Y205366D01*
X68710Y205448D01*
X68734Y205463D01*
X68760Y205474D01*
X68944Y205591D01*
X69131Y205705D01*
X69152Y205724D01*
X69176Y205739D01*
X69338Y205884D01*
X69505Y206027D01*
X69523Y206049D01*
X69544Y206068D01*
X69681Y206237D01*
X69822Y206405D01*
X69833Y206426D01*
X69854Y206452D01*
X70098Y206880D01*
X70117Y206930D01*
X70125Y206944D01*
X70135Y206971D01*
X70152Y207002D01*
X70176Y207060D01*
X78622Y215506D01*
X80291Y216197D01*
X102208Y216197D01*
X103877Y215506D01*
X113023Y206361D01*
X113028Y206353D01*
X113112Y206271D01*
X113163Y206221D01*
X113172Y206212D01*
X113185Y206200D01*
X113338Y206045D01*
X113361Y206028D01*
X113382Y206008D01*
X113561Y205883D01*
X113737Y205754D01*
X113763Y205742D01*
X113786Y205725D01*
X113982Y205631D01*
X114178Y205532D01*
X114205Y205524D01*
X114230Y205511D01*
X114439Y205450D01*
X114632Y205389D01*
X116778Y203243D01*
X116796Y203228D01*
X116832Y203187D01*
X116891Y203139D01*
X116945Y203085D01*
X117077Y202989D01*
X117154Y202923D01*
X117172Y202912D01*
X117216Y202877D01*
X117282Y202839D01*
X117344Y202794D01*
X117493Y202719D01*
X117576Y202669D01*
X117594Y202662D01*
X117645Y202633D01*
X117716Y202606D01*
X117784Y202572D01*
X117946Y202521D01*
X118034Y202486D01*
X118052Y202482D01*
X118107Y202461D01*
X118182Y202447D01*
X118255Y202424D01*
X118360Y202412D01*
X118426Y202399D01*
X118516Y202379D01*
X118533Y202378D01*
X118591Y202367D01*
X118828Y202359D01*
X118932Y202347D01*
X121787Y202347D01*
X121901Y202357D01*
X122015Y202356D01*
X122147Y202377D01*
X122279Y202387D01*
X122390Y202415D01*
X122503Y202433D01*
X122629Y202474D01*
X122758Y202506D01*
X122863Y202551D01*
X122971Y202587D01*
X123089Y202648D01*
X123211Y202701D01*
X123307Y202762D01*
X123409Y202815D01*
X123482Y202873D01*
X123627Y202966D01*
X123662Y202996D01*
X125850Y203903D01*
X128150Y203903D01*
X130276Y203022D01*
X131902Y201396D01*
X132783Y199270D01*
X132783Y196970D01*
X131902Y194844D01*
X130276Y193218D01*
X128150Y192337D01*
X125850Y192337D01*
X124168Y193034D01*
X124158Y193037D01*
X124150Y193041D01*
X123922Y193113D01*
X123698Y193185D01*
X123689Y193187D01*
X123679Y193190D01*
X123639Y193194D01*
X123210Y193259D01*
X123080Y193257D01*
X123002Y193266D01*
X118932Y193266D01*
X118856Y193260D01*
X118780Y193262D01*
X118721Y193254D01*
X118704Y193254D01*
X118614Y193240D01*
X118611Y193240D01*
X118441Y193226D01*
X118367Y193208D01*
X118291Y193198D01*
X118234Y193181D01*
X118217Y193178D01*
X118127Y193148D01*
X117962Y193107D01*
X117892Y193077D01*
X117819Y193055D01*
X117766Y193029D01*
X117748Y193024D01*
X117663Y192979D01*
X117509Y192913D01*
X117444Y192872D01*
X117376Y192838D01*
X117329Y192805D01*
X117311Y192796D01*
X117272Y192765D01*
X117236Y192739D01*
X117092Y192648D01*
X117036Y192597D01*
X116974Y192553D01*
X116852Y192433D01*
X116819Y192404D01*
X116778Y192370D01*
X116740Y192333D01*
X116725Y192319D01*
X116718Y192310D01*
X114713Y190306D01*
X103056Y190306D01*
X102539Y190822D01*
X102481Y190872D01*
X102429Y190927D01*
X102293Y191031D01*
X102163Y191142D01*
X102098Y191181D01*
X102038Y191228D01*
X101887Y191308D01*
X101741Y191397D01*
X101670Y191425D01*
X101603Y191461D01*
X101441Y191516D01*
X101283Y191580D01*
X101208Y191596D01*
X101136Y191621D01*
X100968Y191649D01*
X100801Y191686D01*
X100725Y191691D01*
X100650Y191703D01*
X100479Y191705D01*
X100308Y191714D01*
X100233Y191706D01*
X100157Y191706D01*
X99988Y191680D01*
X99818Y191662D01*
X99744Y191642D01*
X99669Y191630D01*
X99507Y191576D01*
X99342Y191531D01*
X99273Y191499D01*
X99201Y191476D01*
X99049Y191397D01*
X98894Y191325D01*
X98831Y191283D01*
X98763Y191248D01*
X98680Y191182D01*
X98484Y191050D01*
X98312Y190888D01*
X98230Y190823D01*
X97318Y189911D01*
X97244Y189823D01*
X97163Y189743D01*
X97084Y189636D01*
X96998Y189535D01*
X96939Y189437D01*
X96872Y189344D01*
X96812Y189226D01*
X96744Y189112D01*
X96701Y189006D01*
X96650Y188904D01*
X96610Y188777D01*
X96561Y188654D01*
X96536Y188542D01*
X96502Y188434D01*
X96491Y188340D01*
X96454Y188172D01*
X96436Y187848D01*
X96425Y187756D01*
X96425Y127477D01*
X96437Y127335D01*
X96439Y127193D01*
X96457Y127090D01*
X96465Y126986D01*
X96499Y126847D01*
X96524Y126707D01*
X96559Y126608D01*
X96584Y126507D01*
X96640Y126376D01*
X96687Y126241D01*
X96737Y126149D01*
X96778Y126053D01*
X96855Y125933D01*
X96923Y125808D01*
X96987Y125725D01*
X97043Y125637D01*
X97138Y125531D01*
X97226Y125418D01*
X97302Y125347D01*
X97372Y125269D01*
X97483Y125180D01*
X97588Y125083D01*
X97675Y125025D01*
X97756Y124959D01*
X97880Y124889D01*
X97999Y124810D01*
X98094Y124767D01*
X98185Y124715D01*
X98318Y124666D01*
X98448Y124607D01*
X98549Y124580D01*
X98647Y124544D01*
X98787Y124516D01*
X98925Y124480D01*
X99029Y124469D01*
X99131Y124449D01*
X99274Y124445D01*
X99416Y124431D01*
X99520Y124437D01*
X99625Y124434D01*
X99766Y124452D01*
X99908Y124461D01*
X100010Y124485D01*
X100114Y124498D01*
X100250Y124539D01*
X100389Y124571D01*
X100486Y124611D01*
X100586Y124641D01*
X100714Y124703D01*
X100846Y124757D01*
X100935Y124812D01*
X101029Y124858D01*
X101145Y124940D01*
X101267Y125014D01*
X101346Y125083D01*
X101431Y125143D01*
X101533Y125243D01*
X101641Y125336D01*
X101708Y125416D01*
X101782Y125490D01*
X101866Y125605D01*
X101958Y125714D01*
X101996Y125783D01*
X102073Y125889D01*
X102268Y126276D01*
X102288Y126311D01*
X102793Y127532D01*
X103877Y129409D01*
X105197Y131130D01*
X106730Y132663D01*
X108451Y133983D01*
X110329Y135067D01*
X112332Y135897D01*
X113661Y136253D01*
X113661Y121152D01*
X113667Y121076D01*
X113665Y121000D01*
X113687Y120831D01*
X113701Y120660D01*
X113719Y120587D01*
X113729Y120511D01*
X113778Y120347D01*
X113818Y120189D01*
X113775Y120073D01*
X113760Y119998D01*
X113737Y119926D01*
X113725Y119821D01*
X113680Y119589D01*
X113673Y119353D01*
X113661Y119248D01*
X113661Y104147D01*
X112332Y104503D01*
X110329Y105333D01*
X108451Y106417D01*
X106730Y107737D01*
X105197Y109270D01*
X103877Y110991D01*
X102793Y112868D01*
X102288Y114089D01*
X102223Y114216D01*
X102167Y114347D01*
X102110Y114435D01*
X102063Y114528D01*
X101978Y114643D01*
X101901Y114763D01*
X101832Y114841D01*
X101770Y114925D01*
X101668Y115024D01*
X101573Y115131D01*
X101491Y115196D01*
X101417Y115269D01*
X101300Y115351D01*
X101189Y115441D01*
X101098Y115492D01*
X101012Y115552D01*
X100884Y115614D01*
X100760Y115685D01*
X100662Y115721D01*
X100568Y115766D01*
X100431Y115807D01*
X100298Y115856D01*
X100195Y115876D01*
X100095Y115906D01*
X99953Y115924D01*
X99813Y115951D01*
X99709Y115954D01*
X99605Y115967D01*
X99463Y115962D01*
X99320Y115966D01*
X99217Y115953D01*
X99112Y115949D01*
X98972Y115920D01*
X98831Y115902D01*
X98731Y115872D01*
X98629Y115851D01*
X98495Y115800D01*
X98359Y115759D01*
X98265Y115713D01*
X98167Y115676D01*
X98044Y115605D01*
X97916Y115542D01*
X97831Y115482D01*
X97740Y115430D01*
X97630Y115339D01*
X97514Y115257D01*
X97439Y115183D01*
X97358Y115117D01*
X97264Y115011D01*
X97163Y114910D01*
X97101Y114826D01*
X97032Y114747D01*
X96956Y114627D01*
X96872Y114511D01*
X96825Y114418D01*
X96769Y114330D01*
X96714Y114198D01*
X96650Y114071D01*
X96618Y113971D01*
X96578Y113875D01*
X96544Y113736D01*
X96502Y113601D01*
X96493Y113522D01*
X96462Y113395D01*
X96430Y112963D01*
X96425Y112923D01*
X96425Y95657D01*
X96426Y95647D01*
X96425Y95637D01*
X96446Y95402D01*
X96465Y95165D01*
X96467Y95155D01*
X96468Y95146D01*
X96479Y95107D01*
X96584Y94686D01*
X96635Y94566D01*
X96657Y94491D01*
X98013Y91218D01*
X98013Y86582D01*
X96239Y82299D01*
X92961Y79021D01*
X88678Y77247D01*
X84042Y77247D01*
G37*
%LPD*%
%LPC*%
G36*
X84042Y298227D02*
X84042Y298227D01*
X79759Y300001D01*
X76481Y303279D01*
X74707Y307562D01*
X74707Y312198D01*
X76481Y316481D01*
X79759Y319759D01*
X84042Y321533D01*
X88433Y321533D01*
X88509Y321539D01*
X88585Y321537D01*
X88754Y321559D01*
X88924Y321573D01*
X88998Y321591D01*
X89074Y321601D01*
X89237Y321650D01*
X89403Y321691D01*
X89473Y321721D01*
X89546Y321743D01*
X89700Y321819D01*
X89856Y321886D01*
X89921Y321927D01*
X89989Y321960D01*
X90129Y322059D01*
X90273Y322151D01*
X90329Y322202D01*
X90391Y322246D01*
X90513Y322366D01*
X90640Y322480D01*
X90688Y322539D01*
X90742Y322593D01*
X90843Y322731D01*
X90950Y322864D01*
X90988Y322930D01*
X91033Y322991D01*
X91110Y323144D01*
X91194Y323292D01*
X91221Y323364D01*
X91255Y323432D01*
X91307Y323595D01*
X91366Y323755D01*
X91381Y323830D01*
X91403Y323902D01*
X91415Y324007D01*
X91461Y324239D01*
X91468Y324475D01*
X91480Y324580D01*
X91480Y393919D01*
X91471Y394033D01*
X91471Y394147D01*
X91451Y394279D01*
X91440Y394411D01*
X91412Y394522D01*
X91395Y394635D01*
X91353Y394761D01*
X91321Y394890D01*
X91276Y394995D01*
X91240Y395103D01*
X91179Y395221D01*
X91127Y395343D01*
X91065Y395440D01*
X91013Y395541D01*
X90954Y395614D01*
X90862Y395759D01*
X90645Y396001D01*
X90587Y396074D01*
X89020Y397642D01*
X89020Y410299D01*
X90192Y411471D01*
X101849Y411471D01*
X102366Y410955D01*
X102424Y410905D01*
X102476Y410850D01*
X102612Y410746D01*
X102742Y410635D01*
X102807Y410596D01*
X102867Y410549D01*
X103018Y410469D01*
X103164Y410380D01*
X103235Y410352D01*
X103302Y410316D01*
X103464Y410261D01*
X103622Y410197D01*
X103697Y410181D01*
X103769Y410156D01*
X103937Y410128D01*
X104104Y410091D01*
X104180Y410086D01*
X104255Y410074D01*
X104426Y410072D01*
X104597Y410063D01*
X104672Y410071D01*
X104749Y410071D01*
X104918Y410097D01*
X105087Y410115D01*
X105160Y410135D01*
X105236Y410147D01*
X105398Y410201D01*
X105563Y410246D01*
X105632Y410278D01*
X105705Y410301D01*
X105856Y410380D01*
X106011Y410452D01*
X106075Y410494D01*
X106142Y410529D01*
X106224Y410595D01*
X106421Y410727D01*
X106593Y410889D01*
X106675Y410955D01*
X107587Y411867D01*
X107661Y411954D01*
X107742Y412034D01*
X107821Y412141D01*
X107907Y412243D01*
X107966Y412340D01*
X108033Y412433D01*
X108093Y412551D01*
X108161Y412665D01*
X108204Y412771D01*
X108255Y412873D01*
X108295Y413000D01*
X108344Y413123D01*
X108369Y413235D01*
X108403Y413344D01*
X108414Y413437D01*
X108451Y413605D01*
X108469Y413929D01*
X108480Y414021D01*
X108480Y415402D01*
X108474Y415478D01*
X108476Y415554D01*
X108454Y415723D01*
X108440Y415894D01*
X108422Y415968D01*
X108412Y416043D01*
X108362Y416207D01*
X108321Y416373D01*
X108291Y416442D01*
X108269Y416516D01*
X108194Y416669D01*
X108127Y416826D01*
X108086Y416890D01*
X108052Y416959D01*
X107953Y417098D01*
X107862Y417242D01*
X107811Y417299D01*
X107767Y417361D01*
X107647Y417482D01*
X107533Y417610D01*
X107474Y417658D01*
X107420Y417712D01*
X107282Y417813D01*
X107149Y417920D01*
X107083Y417957D01*
X107021Y418002D01*
X106869Y418079D01*
X106720Y418164D01*
X106649Y418190D01*
X106581Y418225D01*
X106418Y418276D01*
X106258Y418335D01*
X106183Y418350D01*
X106110Y418373D01*
X106005Y418385D01*
X105774Y418430D01*
X105537Y418437D01*
X105433Y418449D01*
X102460Y418449D01*
X102338Y418523D01*
X102196Y418619D01*
X102127Y418650D01*
X102062Y418689D01*
X101903Y418753D01*
X101747Y418824D01*
X101674Y418844D01*
X101604Y418873D01*
X101436Y418910D01*
X101272Y418955D01*
X101196Y418963D01*
X101122Y418979D01*
X100951Y418989D01*
X100781Y419007D01*
X100705Y419003D01*
X100629Y419007D01*
X100459Y418989D01*
X100288Y418979D01*
X100214Y418963D01*
X100139Y418955D01*
X99974Y418910D01*
X99807Y418873D01*
X99752Y418849D01*
X99663Y418824D01*
X99215Y418618D01*
X99196Y418606D01*
X99182Y418600D01*
X98286Y418082D01*
X97640Y417909D01*
X92852Y417909D01*
X92852Y425450D01*
X92852Y432991D01*
X97640Y432991D01*
X98286Y432818D01*
X99182Y432300D01*
X99336Y432227D01*
X99487Y432146D01*
X99559Y432122D01*
X99628Y432089D01*
X99792Y432042D01*
X99954Y431986D01*
X100029Y431973D01*
X100102Y431952D01*
X100272Y431932D01*
X100440Y431904D01*
X100516Y431903D01*
X100591Y431894D01*
X100763Y431902D01*
X100933Y431901D01*
X101008Y431912D01*
X101084Y431916D01*
X101252Y431951D01*
X101421Y431977D01*
X101493Y432001D01*
X101567Y432016D01*
X101727Y432078D01*
X101889Y432131D01*
X101957Y432167D01*
X102028Y432194D01*
X102175Y432280D01*
X102327Y432359D01*
X102373Y432396D01*
X102453Y432443D01*
X102462Y432451D01*
X119184Y432451D01*
X120356Y431279D01*
X120356Y419621D01*
X118454Y417719D01*
X118380Y417632D01*
X118299Y417552D01*
X118220Y417445D01*
X118134Y417343D01*
X118075Y417245D01*
X118008Y417153D01*
X117948Y417035D01*
X117880Y416921D01*
X117837Y416815D01*
X117786Y416713D01*
X117746Y416586D01*
X117697Y416463D01*
X117672Y416351D01*
X117638Y416242D01*
X117627Y416149D01*
X117590Y415981D01*
X117572Y415657D01*
X117561Y415565D01*
X117561Y414021D01*
X117570Y413908D01*
X117570Y413793D01*
X117590Y413662D01*
X117601Y413530D01*
X117629Y413419D01*
X117646Y413306D01*
X117688Y413180D01*
X117720Y413051D01*
X117765Y412946D01*
X117801Y412837D01*
X117862Y412719D01*
X117914Y412597D01*
X117976Y412501D01*
X118029Y412400D01*
X118087Y412326D01*
X118180Y412181D01*
X118396Y411939D01*
X118454Y411867D01*
X120914Y409407D01*
X120932Y409391D01*
X120968Y409350D01*
X121028Y409303D01*
X121081Y409248D01*
X121213Y409152D01*
X121290Y409087D01*
X121308Y409076D01*
X121352Y409040D01*
X121418Y409003D01*
X121480Y408958D01*
X121629Y408883D01*
X121712Y408832D01*
X121730Y408825D01*
X121781Y408796D01*
X121852Y408770D01*
X121920Y408736D01*
X122082Y408685D01*
X122170Y408649D01*
X122188Y408646D01*
X122243Y408625D01*
X122318Y408610D01*
X122391Y408587D01*
X122496Y408576D01*
X122562Y408563D01*
X122652Y408543D01*
X122669Y408542D01*
X122728Y408530D01*
X122964Y408523D01*
X123069Y408511D01*
X123781Y408511D01*
X123791Y408512D01*
X123801Y408511D01*
X124036Y408532D01*
X124273Y408551D01*
X124283Y408553D01*
X124292Y408554D01*
X124331Y408565D01*
X124752Y408670D01*
X124872Y408721D01*
X124948Y408743D01*
X127120Y409643D01*
X129420Y409643D01*
X131546Y408762D01*
X133172Y407136D01*
X134053Y405010D01*
X134053Y402710D01*
X133172Y400584D01*
X131546Y398958D01*
X129420Y398077D01*
X127120Y398077D01*
X124460Y399179D01*
X124408Y399205D01*
X124282Y399245D01*
X124158Y399294D01*
X124047Y399319D01*
X123938Y399353D01*
X123844Y399364D01*
X123677Y399401D01*
X123500Y399411D01*
X123477Y399414D01*
X123445Y399414D01*
X123352Y399419D01*
X123260Y399430D01*
X123069Y399430D01*
X122992Y399423D01*
X122916Y399426D01*
X122857Y399418D01*
X122841Y399418D01*
X122750Y399404D01*
X122747Y399403D01*
X122577Y399390D01*
X122503Y399371D01*
X122427Y399361D01*
X122370Y399344D01*
X122353Y399341D01*
X122263Y399312D01*
X122098Y399271D01*
X122028Y399241D01*
X121955Y399219D01*
X121902Y399193D01*
X121885Y399187D01*
X121799Y399143D01*
X121645Y399076D01*
X121580Y399035D01*
X121512Y399002D01*
X121465Y398969D01*
X121447Y398959D01*
X121408Y398928D01*
X121373Y398903D01*
X121229Y398811D01*
X121172Y398761D01*
X121110Y398716D01*
X120988Y398596D01*
X120955Y398567D01*
X120914Y398534D01*
X120876Y398497D01*
X120861Y398483D01*
X120854Y398474D01*
X118849Y396470D01*
X107192Y396470D01*
X106675Y396986D01*
X106617Y397035D01*
X106565Y397091D01*
X106429Y397195D01*
X106299Y397306D01*
X106234Y397345D01*
X106174Y397391D01*
X106023Y397472D01*
X105877Y397560D01*
X105806Y397588D01*
X105739Y397624D01*
X105577Y397680D01*
X105419Y397743D01*
X105344Y397760D01*
X105272Y397784D01*
X105104Y397813D01*
X104937Y397850D01*
X104861Y397854D01*
X104786Y397867D01*
X104615Y397868D01*
X104445Y397878D01*
X104369Y397870D01*
X104293Y397870D01*
X104124Y397844D01*
X103954Y397826D01*
X103880Y397805D01*
X103805Y397793D01*
X103643Y397740D01*
X103478Y397695D01*
X103409Y397663D01*
X103337Y397639D01*
X103185Y397560D01*
X103030Y397489D01*
X102967Y397447D01*
X102899Y397411D01*
X102817Y397346D01*
X102621Y397214D01*
X102448Y397052D01*
X102366Y396986D01*
X101454Y396074D01*
X101380Y395987D01*
X101299Y395907D01*
X101220Y395800D01*
X101134Y395698D01*
X101075Y395600D01*
X101008Y395508D01*
X100948Y395390D01*
X100880Y395276D01*
X100837Y395170D01*
X100786Y395068D01*
X100746Y394941D01*
X100697Y394818D01*
X100672Y394706D01*
X100638Y394597D01*
X100627Y394504D01*
X100590Y394336D01*
X100572Y394012D01*
X100561Y393919D01*
X100561Y354830D01*
X100564Y354792D01*
X100562Y354754D01*
X100584Y354546D01*
X100601Y354338D01*
X100610Y354301D01*
X100614Y354263D01*
X100670Y354062D01*
X100720Y353860D01*
X100735Y353824D01*
X100745Y353788D01*
X100832Y353598D01*
X100914Y353406D01*
X100935Y353374D01*
X100951Y353339D01*
X101068Y353166D01*
X101180Y352990D01*
X101205Y352962D01*
X101226Y352930D01*
X101369Y352778D01*
X101508Y352622D01*
X101538Y352598D01*
X101564Y352570D01*
X101730Y352443D01*
X101892Y352312D01*
X101925Y352293D01*
X101955Y352270D01*
X102139Y352172D01*
X102321Y352068D01*
X102357Y352055D01*
X102390Y352037D01*
X102587Y351969D01*
X102783Y351897D01*
X102821Y351889D01*
X102857Y351877D01*
X103063Y351842D01*
X103268Y351802D01*
X103305Y351801D01*
X103343Y351794D01*
X103553Y351793D01*
X103761Y351787D01*
X103798Y351792D01*
X103837Y351791D01*
X104043Y351824D01*
X104250Y351851D01*
X104286Y351862D01*
X104324Y351868D01*
X104522Y351933D01*
X104722Y351994D01*
X104756Y352010D01*
X104793Y352022D01*
X104977Y352119D01*
X105165Y352210D01*
X105196Y352233D01*
X105230Y352250D01*
X105303Y352308D01*
X105567Y352496D01*
X105690Y352617D01*
X105763Y352675D01*
X106730Y353643D01*
X108451Y354963D01*
X110329Y356047D01*
X112332Y356877D01*
X113661Y357233D01*
X113661Y342132D01*
X113667Y342056D01*
X113665Y341980D01*
X113687Y341811D01*
X113701Y341640D01*
X113719Y341567D01*
X113729Y341491D01*
X113778Y341327D01*
X113818Y341169D01*
X113775Y341053D01*
X113760Y340978D01*
X113737Y340906D01*
X113725Y340801D01*
X113680Y340569D01*
X113673Y340333D01*
X113661Y340228D01*
X113661Y325127D01*
X112332Y325483D01*
X110329Y326313D01*
X108451Y327397D01*
X106730Y328717D01*
X105763Y329685D01*
X105734Y329709D01*
X105709Y329738D01*
X105546Y329869D01*
X105387Y330004D01*
X105355Y330024D01*
X105325Y330048D01*
X105144Y330151D01*
X104965Y330259D01*
X104929Y330273D01*
X104896Y330292D01*
X104701Y330364D01*
X104507Y330442D01*
X104469Y330450D01*
X104434Y330463D01*
X104229Y330503D01*
X104025Y330549D01*
X103987Y330551D01*
X103950Y330558D01*
X103742Y330564D01*
X103532Y330576D01*
X103494Y330572D01*
X103456Y330573D01*
X103250Y330546D01*
X103042Y330524D01*
X103005Y330514D01*
X102967Y330509D01*
X102767Y330449D01*
X102566Y330393D01*
X102532Y330377D01*
X102495Y330366D01*
X102307Y330275D01*
X102118Y330188D01*
X102086Y330166D01*
X102052Y330150D01*
X101882Y330029D01*
X101708Y329912D01*
X101681Y329886D01*
X101650Y329864D01*
X101501Y329717D01*
X101349Y329574D01*
X101326Y329544D01*
X101299Y329517D01*
X101176Y329349D01*
X101049Y329183D01*
X101031Y329149D01*
X101008Y329119D01*
X100914Y328932D01*
X100815Y328748D01*
X100803Y328712D01*
X100786Y328678D01*
X100723Y328479D01*
X100655Y328282D01*
X100649Y328244D01*
X100638Y328208D01*
X100627Y328115D01*
X100573Y327795D01*
X100572Y327623D01*
X100561Y327530D01*
X100561Y318187D01*
X99870Y316518D01*
X98731Y315379D01*
X98590Y315213D01*
X98445Y315049D01*
X98430Y315025D01*
X98412Y315003D01*
X98299Y314815D01*
X98183Y314631D01*
X98172Y314605D01*
X98157Y314581D01*
X98076Y314377D01*
X97991Y314176D01*
X97984Y314149D01*
X97974Y314122D01*
X97927Y313909D01*
X97875Y313697D01*
X97873Y313669D01*
X97867Y313641D01*
X97855Y313422D01*
X97839Y313205D01*
X97841Y313177D01*
X97840Y313148D01*
X97863Y312931D01*
X97882Y312714D01*
X97888Y312691D01*
X97892Y312658D01*
X98013Y312217D01*
X98013Y307562D01*
X96239Y303279D01*
X92961Y300001D01*
X88678Y298227D01*
X84042Y298227D01*
G37*
%LPD*%
%LPC*%
G36*
X84042Y503967D02*
X84042Y503967D01*
X79759Y505741D01*
X76481Y509019D01*
X74707Y513302D01*
X74707Y517938D01*
X76481Y522221D01*
X79759Y525499D01*
X79938Y525573D01*
X80133Y525672D01*
X80329Y525768D01*
X80352Y525785D01*
X80377Y525798D01*
X80553Y525927D01*
X80731Y526054D01*
X80751Y526074D01*
X80774Y526091D01*
X80927Y526247D01*
X81082Y526401D01*
X81099Y526423D01*
X81118Y526444D01*
X81244Y526624D01*
X81372Y526799D01*
X81385Y526825D01*
X81401Y526848D01*
X81496Y527045D01*
X81595Y527240D01*
X81603Y527267D01*
X81615Y527292D01*
X81677Y527501D01*
X81743Y527710D01*
X81746Y527734D01*
X81755Y527766D01*
X81816Y528255D01*
X81813Y528336D01*
X81819Y528388D01*
X81819Y593003D01*
X81810Y593116D01*
X81811Y593231D01*
X81790Y593362D01*
X81779Y593494D01*
X81752Y593605D01*
X81734Y593718D01*
X81693Y593844D01*
X81661Y593973D01*
X81616Y594078D01*
X81580Y594187D01*
X81518Y594305D01*
X81466Y594427D01*
X81405Y594523D01*
X81352Y594624D01*
X81293Y594698D01*
X81201Y594843D01*
X80985Y595085D01*
X80927Y595157D01*
X54422Y621662D01*
X54335Y621736D01*
X54254Y621818D01*
X54147Y621896D01*
X54046Y621982D01*
X53948Y622041D01*
X53856Y622108D01*
X53737Y622168D01*
X53623Y622237D01*
X53517Y622279D01*
X53415Y622330D01*
X53288Y622370D01*
X53165Y622420D01*
X53054Y622444D01*
X52945Y622479D01*
X52851Y622489D01*
X52684Y622526D01*
X52359Y622545D01*
X52267Y622555D01*
X51701Y622555D01*
X50529Y623727D01*
X50529Y636320D01*
X50531Y636326D01*
X50537Y636533D01*
X50549Y636741D01*
X50545Y636780D01*
X50546Y636819D01*
X50519Y637025D01*
X50497Y637231D01*
X50487Y637269D01*
X50481Y637308D01*
X50421Y637507D01*
X50367Y637707D01*
X50350Y637743D01*
X50339Y637781D01*
X50247Y637967D01*
X50161Y638156D01*
X50139Y638188D01*
X50122Y638224D01*
X50002Y638393D01*
X49886Y638565D01*
X49859Y638594D01*
X49837Y638626D01*
X49691Y638774D01*
X49549Y638925D01*
X49518Y638949D01*
X49490Y638977D01*
X49322Y639099D01*
X49158Y639226D01*
X49123Y639244D01*
X49091Y639267D01*
X48906Y639361D01*
X48723Y639459D01*
X48686Y639472D01*
X48651Y639490D01*
X48453Y639552D01*
X48256Y639620D01*
X48218Y639626D01*
X48180Y639638D01*
X48087Y639649D01*
X47770Y639702D01*
X47596Y639704D01*
X47502Y639714D01*
X46878Y639714D01*
X46802Y639708D01*
X46726Y639710D01*
X46557Y639688D01*
X46386Y639674D01*
X46312Y639656D01*
X46237Y639646D01*
X46073Y639597D01*
X45907Y639556D01*
X45838Y639526D01*
X45764Y639504D01*
X45611Y639428D01*
X45454Y639361D01*
X45390Y639320D01*
X45321Y639287D01*
X45182Y639188D01*
X45038Y639096D01*
X44981Y639045D01*
X44919Y639001D01*
X44798Y638881D01*
X44670Y638767D01*
X44622Y638708D01*
X44568Y638654D01*
X44467Y638516D01*
X44360Y638383D01*
X44323Y638317D01*
X44278Y638256D01*
X44201Y638103D01*
X44116Y637955D01*
X44090Y637883D01*
X44055Y637815D01*
X44004Y637652D01*
X43945Y637492D01*
X43930Y637417D01*
X43907Y637345D01*
X43895Y637240D01*
X43850Y637008D01*
X43843Y636772D01*
X43831Y636667D01*
X43831Y635860D01*
X43757Y635738D01*
X43661Y635596D01*
X43630Y635527D01*
X43591Y635462D01*
X43527Y635303D01*
X43456Y635147D01*
X43436Y635074D01*
X43407Y635004D01*
X43370Y634836D01*
X43325Y634672D01*
X43317Y634596D01*
X43301Y634522D01*
X43291Y634351D01*
X43273Y634181D01*
X43277Y634105D01*
X43273Y634029D01*
X43291Y633859D01*
X43301Y633688D01*
X43317Y633614D01*
X43325Y633539D01*
X43370Y633374D01*
X43407Y633207D01*
X43431Y633152D01*
X43456Y633063D01*
X43662Y632615D01*
X43674Y632596D01*
X43680Y632582D01*
X44198Y631686D01*
X44371Y631040D01*
X44371Y626252D01*
X36830Y626252D01*
X29289Y626252D01*
X29289Y631040D01*
X29462Y631686D01*
X29980Y632582D01*
X30053Y632736D01*
X30134Y632887D01*
X30158Y632959D01*
X30191Y633028D01*
X30238Y633192D01*
X30294Y633354D01*
X30307Y633429D01*
X30328Y633502D01*
X30348Y633672D01*
X30376Y633840D01*
X30377Y633916D01*
X30386Y633991D01*
X30378Y634163D01*
X30379Y634333D01*
X30368Y634408D01*
X30364Y634484D01*
X30329Y634652D01*
X30303Y634821D01*
X30279Y634893D01*
X30264Y634967D01*
X30202Y635127D01*
X30149Y635289D01*
X30113Y635357D01*
X30086Y635428D01*
X30000Y635575D01*
X29921Y635727D01*
X29884Y635773D01*
X29837Y635853D01*
X29829Y635862D01*
X29829Y652584D01*
X31397Y654151D01*
X31471Y654238D01*
X31552Y654318D01*
X31630Y654426D01*
X31716Y654527D01*
X31775Y654625D01*
X31842Y654717D01*
X31902Y654836D01*
X31971Y654950D01*
X32013Y655056D01*
X32065Y655158D01*
X32105Y655285D01*
X32154Y655408D01*
X32179Y655519D01*
X32213Y655628D01*
X32223Y655722D01*
X32261Y655889D01*
X32279Y656214D01*
X32289Y656306D01*
X32289Y658185D01*
X32288Y658195D01*
X32289Y658204D01*
X32269Y658440D01*
X32249Y658677D01*
X32247Y658686D01*
X32246Y658696D01*
X32235Y658734D01*
X32131Y659156D01*
X32079Y659276D01*
X32057Y659351D01*
X31047Y661790D01*
X31047Y664090D01*
X31928Y666216D01*
X33554Y667842D01*
X35680Y668723D01*
X37980Y668723D01*
X40106Y667842D01*
X41732Y666216D01*
X42613Y664090D01*
X42613Y661790D01*
X41603Y659351D01*
X41600Y659342D01*
X41595Y659333D01*
X41524Y659107D01*
X41451Y658882D01*
X41450Y658872D01*
X41447Y658863D01*
X41442Y658822D01*
X41378Y658394D01*
X41380Y658263D01*
X41371Y658185D01*
X41371Y656306D01*
X41380Y656192D01*
X41379Y656078D01*
X41400Y655947D01*
X41411Y655814D01*
X41438Y655703D01*
X41456Y655591D01*
X41497Y655464D01*
X41529Y655335D01*
X41574Y655231D01*
X41610Y655122D01*
X41672Y655004D01*
X41724Y654882D01*
X41785Y654786D01*
X41838Y654684D01*
X41897Y654611D01*
X41989Y654466D01*
X42205Y654224D01*
X42263Y654151D01*
X43831Y652584D01*
X43831Y651843D01*
X43837Y651767D01*
X43835Y651691D01*
X43857Y651522D01*
X43871Y651351D01*
X43889Y651277D01*
X43899Y651202D01*
X43948Y651038D01*
X43989Y650872D01*
X44019Y650803D01*
X44041Y650729D01*
X44117Y650576D01*
X44184Y650419D01*
X44225Y650355D01*
X44258Y650286D01*
X44357Y650147D01*
X44449Y650003D01*
X44500Y649946D01*
X44544Y649884D01*
X44664Y649763D01*
X44778Y649635D01*
X44837Y649587D01*
X44891Y649533D01*
X45029Y649432D01*
X45162Y649325D01*
X45228Y649288D01*
X45289Y649243D01*
X45442Y649166D01*
X45590Y649081D01*
X45662Y649055D01*
X45730Y649020D01*
X45893Y648969D01*
X46053Y648910D01*
X46128Y648895D01*
X46200Y648872D01*
X46305Y648860D01*
X46537Y648815D01*
X46773Y648808D01*
X46878Y648796D01*
X47482Y648796D01*
X47558Y648802D01*
X47634Y648800D01*
X47803Y648822D01*
X47974Y648836D01*
X48048Y648854D01*
X48123Y648864D01*
X48287Y648913D01*
X48453Y648954D01*
X48523Y648984D01*
X48596Y649006D01*
X48749Y649082D01*
X48906Y649149D01*
X48970Y649190D01*
X49039Y649223D01*
X49178Y649322D01*
X49322Y649414D01*
X49379Y649465D01*
X49441Y649509D01*
X49563Y649629D01*
X49690Y649743D01*
X49738Y649802D01*
X49792Y649856D01*
X49893Y649994D01*
X50000Y650127D01*
X50038Y650193D01*
X50082Y650254D01*
X50159Y650407D01*
X50244Y650555D01*
X50270Y650627D01*
X50305Y650695D01*
X50356Y650858D01*
X50416Y651018D01*
X50430Y651093D01*
X50453Y651165D01*
X50465Y651270D01*
X50510Y651502D01*
X50518Y651738D01*
X50529Y651843D01*
X50529Y652385D01*
X51701Y653556D01*
X64359Y653556D01*
X65531Y652385D01*
X65531Y640727D01*
X65014Y640211D01*
X64965Y640152D01*
X64909Y640100D01*
X64805Y639965D01*
X64695Y639835D01*
X64656Y639769D01*
X64609Y639709D01*
X64528Y639558D01*
X64440Y639412D01*
X64412Y639341D01*
X64376Y639274D01*
X64320Y639112D01*
X64257Y638954D01*
X64241Y638880D01*
X64216Y638807D01*
X64187Y638639D01*
X64150Y638472D01*
X64146Y638396D01*
X64133Y638321D01*
X64132Y638150D01*
X64123Y637980D01*
X64131Y637904D01*
X64130Y637828D01*
X64157Y637659D01*
X64175Y637489D01*
X64195Y637416D01*
X64207Y637340D01*
X64260Y637178D01*
X64306Y637013D01*
X64337Y636944D01*
X64361Y636872D01*
X64440Y636720D01*
X64511Y636565D01*
X64554Y636502D01*
X64589Y636434D01*
X64655Y636352D01*
X64787Y636156D01*
X64949Y635983D01*
X65014Y635901D01*
X65531Y635385D01*
X65531Y624659D01*
X65540Y624545D01*
X65539Y624431D01*
X65560Y624299D01*
X65571Y624167D01*
X65598Y624056D01*
X65616Y623943D01*
X65658Y623817D01*
X65690Y623688D01*
X65735Y623583D01*
X65770Y623475D01*
X65832Y623357D01*
X65884Y623235D01*
X65945Y623139D01*
X65998Y623037D01*
X66057Y622964D01*
X66149Y622819D01*
X66366Y622577D01*
X66423Y622504D01*
X90209Y598718D01*
X90901Y597049D01*
X90901Y528388D01*
X90918Y528170D01*
X90932Y527952D01*
X90938Y527925D01*
X90941Y527896D01*
X90993Y527684D01*
X91042Y527471D01*
X91053Y527445D01*
X91059Y527418D01*
X91146Y527217D01*
X91228Y527014D01*
X91243Y526990D01*
X91254Y526964D01*
X91371Y526780D01*
X91485Y526594D01*
X91504Y526572D01*
X91519Y526548D01*
X91664Y526386D01*
X91807Y526220D01*
X91829Y526201D01*
X91848Y526180D01*
X92017Y526043D01*
X92185Y525903D01*
X92206Y525891D01*
X92232Y525870D01*
X92660Y525626D01*
X92736Y525598D01*
X92782Y525573D01*
X92961Y525499D01*
X96239Y522221D01*
X98013Y517938D01*
X98013Y513302D01*
X96239Y509019D01*
X92961Y505741D01*
X88678Y503967D01*
X84042Y503967D01*
G37*
%LPD*%
%LPC*%
G36*
X195580Y163067D02*
X195580Y163067D01*
X178267Y163067D01*
X178544Y163920D01*
X179270Y165345D01*
X180210Y166639D01*
X181341Y167770D01*
X182635Y168710D01*
X184060Y169436D01*
X185656Y169955D01*
X185789Y169978D01*
X185880Y170011D01*
X185975Y170033D01*
X186113Y170092D01*
X186255Y170141D01*
X186340Y170188D01*
X186429Y170226D01*
X186556Y170306D01*
X186688Y170377D01*
X186764Y170437D01*
X186846Y170489D01*
X186959Y170588D01*
X187077Y170680D01*
X187143Y170751D01*
X187216Y170815D01*
X187311Y170932D01*
X187413Y171042D01*
X187466Y171123D01*
X187528Y171198D01*
X187602Y171328D01*
X187686Y171453D01*
X187726Y171541D01*
X187774Y171625D01*
X187827Y171765D01*
X187888Y171903D01*
X187914Y171996D01*
X187948Y172087D01*
X187977Y172234D01*
X188016Y172379D01*
X188026Y172475D01*
X188045Y172571D01*
X188050Y172721D01*
X188065Y172870D01*
X188059Y172967D01*
X188063Y173064D01*
X188044Y173213D01*
X188034Y173362D01*
X188013Y173457D01*
X188001Y173553D01*
X187958Y173697D01*
X187925Y173843D01*
X187888Y173933D01*
X187861Y174026D01*
X187795Y174161D01*
X187739Y174300D01*
X187688Y174383D01*
X187646Y174470D01*
X187559Y174593D01*
X187481Y174721D01*
X187418Y174795D01*
X187362Y174874D01*
X187257Y174981D01*
X187159Y175095D01*
X187085Y175157D01*
X187017Y175227D01*
X186897Y175316D01*
X186782Y175412D01*
X186717Y175448D01*
X186620Y175519D01*
X186194Y175737D01*
X186185Y175742D01*
X182510Y177264D01*
X179804Y179970D01*
X178339Y183506D01*
X178339Y187334D01*
X179804Y190870D01*
X182510Y193576D01*
X186046Y195041D01*
X205114Y195041D01*
X208825Y193504D01*
X208891Y193456D01*
X209009Y193396D01*
X209123Y193327D01*
X209229Y193285D01*
X209331Y193233D01*
X209457Y193193D01*
X209581Y193144D01*
X209692Y193119D01*
X209801Y193085D01*
X209895Y193075D01*
X210062Y193037D01*
X210387Y193019D01*
X210479Y193009D01*
X288698Y193009D01*
X288812Y193018D01*
X288926Y193017D01*
X289058Y193038D01*
X289190Y193049D01*
X289301Y193076D01*
X289413Y193094D01*
X289540Y193135D01*
X289669Y193167D01*
X289774Y193212D01*
X289882Y193248D01*
X290000Y193310D01*
X290122Y193362D01*
X290218Y193423D01*
X290320Y193476D01*
X290393Y193535D01*
X290538Y193627D01*
X290780Y193843D01*
X290853Y193901D01*
X293422Y196471D01*
X296561Y197771D01*
X313039Y197771D01*
X316178Y196470D01*
X318580Y194068D01*
X319881Y190929D01*
X319881Y187531D01*
X318580Y184392D01*
X316178Y181990D01*
X313039Y180689D01*
X296561Y180689D01*
X293422Y181989D01*
X293393Y182019D01*
X293306Y182093D01*
X293226Y182174D01*
X293118Y182252D01*
X293017Y182338D01*
X292919Y182397D01*
X292827Y182464D01*
X292708Y182524D01*
X292594Y182593D01*
X292488Y182635D01*
X292386Y182687D01*
X292260Y182727D01*
X292136Y182776D01*
X292025Y182801D01*
X291916Y182835D01*
X291822Y182845D01*
X291655Y182883D01*
X291330Y182901D01*
X291238Y182911D01*
X214610Y182911D01*
X214392Y182894D01*
X214175Y182880D01*
X214147Y182874D01*
X214119Y182871D01*
X213907Y182819D01*
X213694Y182770D01*
X213667Y182759D01*
X213640Y182753D01*
X213439Y182667D01*
X213237Y182584D01*
X213212Y182569D01*
X213186Y182558D01*
X213003Y182441D01*
X212816Y182327D01*
X212794Y182308D01*
X212770Y182293D01*
X212608Y182148D01*
X212442Y182005D01*
X212424Y181983D01*
X212402Y181964D01*
X212265Y181794D01*
X212125Y181627D01*
X212114Y181607D01*
X212093Y181580D01*
X211849Y181152D01*
X211821Y181076D01*
X211795Y181030D01*
X211356Y179970D01*
X208650Y177264D01*
X204975Y175742D01*
X204842Y175674D01*
X204704Y175614D01*
X204623Y175561D01*
X204536Y175517D01*
X204416Y175428D01*
X204289Y175347D01*
X204218Y175282D01*
X204139Y175224D01*
X204035Y175116D01*
X203923Y175016D01*
X203863Y174940D01*
X203795Y174871D01*
X203709Y174748D01*
X203615Y174631D01*
X203568Y174546D01*
X203512Y174467D01*
X203447Y174332D01*
X203373Y174201D01*
X203340Y174110D01*
X203298Y174022D01*
X203255Y173878D01*
X203204Y173737D01*
X203186Y173642D01*
X203159Y173549D01*
X203140Y173400D01*
X203112Y173253D01*
X203109Y173156D01*
X203097Y173060D01*
X203103Y172910D01*
X203099Y172759D01*
X203112Y172663D01*
X203116Y172567D01*
X203145Y172419D01*
X203166Y172271D01*
X203194Y172178D01*
X203213Y172083D01*
X203267Y171942D01*
X203311Y171799D01*
X203354Y171712D01*
X203388Y171622D01*
X203463Y171491D01*
X203530Y171357D01*
X203586Y171278D01*
X203635Y171194D01*
X203730Y171078D01*
X203817Y170956D01*
X203886Y170888D01*
X203947Y170813D01*
X204060Y170713D01*
X204166Y170607D01*
X204244Y170550D01*
X204317Y170486D01*
X204444Y170406D01*
X204566Y170318D01*
X204653Y170275D01*
X204735Y170224D01*
X204873Y170165D01*
X205007Y170098D01*
X205079Y170079D01*
X205189Y170032D01*
X205491Y169959D01*
X207100Y169436D01*
X208525Y168710D01*
X209819Y167770D01*
X210950Y166639D01*
X211890Y165345D01*
X212616Y163920D01*
X212893Y163067D01*
X195580Y163067D01*
X195580Y163067D01*
G37*
%LPD*%
%LPC*%
G36*
X186046Y328199D02*
X186046Y328199D01*
X182510Y329664D01*
X179804Y332370D01*
X178339Y335906D01*
X178339Y339734D01*
X179804Y343270D01*
X182510Y345976D01*
X186046Y347441D01*
X205114Y347441D01*
X208650Y345976D01*
X210865Y343761D01*
X210951Y343687D01*
X211032Y343606D01*
X211139Y343528D01*
X211240Y343442D01*
X211338Y343383D01*
X211431Y343316D01*
X211549Y343256D01*
X211663Y343187D01*
X211769Y343145D01*
X211871Y343093D01*
X211998Y343053D01*
X212121Y343004D01*
X212232Y342979D01*
X212341Y342945D01*
X212435Y342935D01*
X212603Y342897D01*
X212927Y342879D01*
X213019Y342869D01*
X235407Y342869D01*
X235520Y342878D01*
X235635Y342877D01*
X235766Y342898D01*
X235898Y342909D01*
X236009Y342936D01*
X236122Y342954D01*
X236248Y342995D01*
X236377Y343027D01*
X236482Y343072D01*
X236590Y343108D01*
X236708Y343170D01*
X236830Y343222D01*
X236927Y343283D01*
X237028Y343336D01*
X237102Y343395D01*
X237247Y343487D01*
X237489Y343703D01*
X237561Y343761D01*
X265110Y371310D01*
X266966Y372079D01*
X289968Y372079D01*
X290082Y372088D01*
X290196Y372087D01*
X290328Y372108D01*
X290460Y372119D01*
X290571Y372146D01*
X290683Y372164D01*
X290810Y372205D01*
X290939Y372237D01*
X291043Y372282D01*
X291152Y372318D01*
X291270Y372380D01*
X291392Y372432D01*
X291488Y372493D01*
X291590Y372546D01*
X291663Y372605D01*
X291808Y372697D01*
X292050Y372913D01*
X292123Y372971D01*
X293422Y374271D01*
X296561Y375571D01*
X313039Y375571D01*
X316178Y374270D01*
X318580Y371868D01*
X319881Y368729D01*
X319881Y365331D01*
X318580Y362192D01*
X316178Y359790D01*
X313039Y358489D01*
X296561Y358489D01*
X293422Y359789D01*
X292123Y361089D01*
X292036Y361163D01*
X291956Y361244D01*
X291848Y361322D01*
X291747Y361408D01*
X291649Y361467D01*
X291557Y361534D01*
X291438Y361594D01*
X291324Y361663D01*
X291218Y361705D01*
X291116Y361757D01*
X290990Y361797D01*
X290866Y361846D01*
X290755Y361871D01*
X290646Y361905D01*
X290552Y361915D01*
X290385Y361953D01*
X290060Y361971D01*
X289968Y361981D01*
X271323Y361981D01*
X271210Y361972D01*
X271095Y361973D01*
X270964Y361952D01*
X270832Y361941D01*
X270721Y361914D01*
X270608Y361896D01*
X270482Y361855D01*
X270353Y361823D01*
X270248Y361778D01*
X270140Y361742D01*
X270022Y361680D01*
X269900Y361628D01*
X269803Y361567D01*
X269702Y361514D01*
X269628Y361455D01*
X269483Y361363D01*
X269241Y361147D01*
X269169Y361089D01*
X241620Y333540D01*
X239764Y332771D01*
X213019Y332771D01*
X212906Y332762D01*
X212791Y332763D01*
X212660Y332742D01*
X212528Y332731D01*
X212417Y332704D01*
X212304Y332686D01*
X212178Y332645D01*
X212049Y332613D01*
X211944Y332568D01*
X211835Y332532D01*
X211717Y332470D01*
X211595Y332418D01*
X211499Y332357D01*
X211398Y332304D01*
X211324Y332245D01*
X211179Y332153D01*
X210937Y331937D01*
X210865Y331879D01*
X208650Y329664D01*
X205114Y328199D01*
X186046Y328199D01*
G37*
%LPD*%
%LPC*%
G36*
X186046Y277399D02*
X186046Y277399D01*
X182510Y278864D01*
X179804Y281570D01*
X178339Y285106D01*
X178339Y288934D01*
X179804Y292470D01*
X182510Y295176D01*
X186046Y296641D01*
X205114Y296641D01*
X206393Y296111D01*
X206403Y296108D01*
X206411Y296103D01*
X206638Y296032D01*
X206863Y295959D01*
X206872Y295958D01*
X206882Y295955D01*
X206922Y295951D01*
X207351Y295886D01*
X207481Y295888D01*
X207559Y295879D01*
X289968Y295879D01*
X290082Y295888D01*
X290196Y295887D01*
X290328Y295908D01*
X290460Y295919D01*
X290571Y295946D01*
X290683Y295964D01*
X290810Y296005D01*
X290939Y296037D01*
X291043Y296082D01*
X291152Y296118D01*
X291270Y296180D01*
X291392Y296232D01*
X291488Y296293D01*
X291590Y296346D01*
X291663Y296405D01*
X291808Y296497D01*
X292050Y296713D01*
X292123Y296771D01*
X293422Y298071D01*
X296561Y299371D01*
X313039Y299371D01*
X316178Y298070D01*
X318580Y295668D01*
X319881Y292529D01*
X319881Y289131D01*
X318580Y285992D01*
X316178Y283590D01*
X313039Y282289D01*
X296561Y282289D01*
X293422Y283589D01*
X292123Y284889D01*
X292036Y284963D01*
X291956Y285044D01*
X291848Y285122D01*
X291747Y285208D01*
X291649Y285267D01*
X291557Y285334D01*
X291438Y285394D01*
X291324Y285463D01*
X291218Y285505D01*
X291116Y285557D01*
X290990Y285597D01*
X290866Y285646D01*
X290755Y285671D01*
X290646Y285705D01*
X290552Y285715D01*
X290385Y285753D01*
X290060Y285771D01*
X289968Y285781D01*
X215136Y285781D01*
X214918Y285764D01*
X214701Y285750D01*
X214673Y285744D01*
X214645Y285741D01*
X214432Y285689D01*
X214220Y285640D01*
X214193Y285629D01*
X214166Y285623D01*
X213965Y285536D01*
X213763Y285454D01*
X213739Y285439D01*
X213712Y285428D01*
X213528Y285311D01*
X213342Y285197D01*
X213320Y285178D01*
X213296Y285163D01*
X213134Y285018D01*
X212968Y284875D01*
X212950Y284853D01*
X212929Y284834D01*
X212792Y284665D01*
X212651Y284497D01*
X212640Y284476D01*
X212619Y284450D01*
X212375Y284022D01*
X212347Y283946D01*
X212321Y283900D01*
X211356Y281570D01*
X208650Y278864D01*
X205114Y277399D01*
X186046Y277399D01*
G37*
%LPD*%
%LPC*%
G36*
X186046Y302799D02*
X186046Y302799D01*
X182510Y304264D01*
X179804Y306970D01*
X178339Y310506D01*
X178339Y314334D01*
X179804Y317870D01*
X182510Y320576D01*
X186046Y322041D01*
X205114Y322041D01*
X206393Y321511D01*
X206403Y321508D01*
X206411Y321503D01*
X206638Y321432D01*
X206863Y321359D01*
X206872Y321358D01*
X206882Y321355D01*
X206922Y321351D01*
X207351Y321286D01*
X207481Y321288D01*
X207559Y321279D01*
X289968Y321279D01*
X290082Y321288D01*
X290196Y321287D01*
X290328Y321308D01*
X290460Y321319D01*
X290571Y321346D01*
X290683Y321364D01*
X290810Y321405D01*
X290939Y321437D01*
X291043Y321482D01*
X291152Y321518D01*
X291270Y321580D01*
X291392Y321632D01*
X291488Y321693D01*
X291590Y321746D01*
X291663Y321805D01*
X291808Y321897D01*
X292050Y322113D01*
X292123Y322171D01*
X293422Y323471D01*
X296561Y324771D01*
X313039Y324771D01*
X316178Y323470D01*
X318580Y321068D01*
X319881Y317929D01*
X319881Y314531D01*
X318580Y311392D01*
X316178Y308990D01*
X313039Y307689D01*
X296561Y307689D01*
X293422Y308989D01*
X292123Y310289D01*
X292036Y310363D01*
X291956Y310444D01*
X291848Y310522D01*
X291747Y310608D01*
X291649Y310667D01*
X291557Y310734D01*
X291438Y310794D01*
X291324Y310863D01*
X291218Y310905D01*
X291116Y310957D01*
X290990Y310997D01*
X290866Y311046D01*
X290755Y311071D01*
X290646Y311105D01*
X290552Y311115D01*
X290385Y311153D01*
X290060Y311171D01*
X289968Y311181D01*
X215136Y311181D01*
X214918Y311164D01*
X214701Y311150D01*
X214673Y311144D01*
X214645Y311141D01*
X214432Y311089D01*
X214220Y311040D01*
X214193Y311029D01*
X214166Y311023D01*
X213965Y310936D01*
X213763Y310854D01*
X213739Y310839D01*
X213712Y310828D01*
X213528Y310711D01*
X213342Y310597D01*
X213320Y310578D01*
X213296Y310563D01*
X213134Y310418D01*
X212968Y310275D01*
X212950Y310253D01*
X212929Y310234D01*
X212792Y310065D01*
X212651Y309897D01*
X212640Y309876D01*
X212619Y309850D01*
X212375Y309422D01*
X212347Y309346D01*
X212321Y309300D01*
X211356Y306970D01*
X208650Y304264D01*
X205114Y302799D01*
X186046Y302799D01*
G37*
%LPD*%
%LPC*%
G36*
X186046Y201199D02*
X186046Y201199D01*
X182510Y202664D01*
X179804Y205370D01*
X178339Y208906D01*
X178339Y212734D01*
X179804Y216270D01*
X182510Y218976D01*
X186046Y220441D01*
X205114Y220441D01*
X206393Y219911D01*
X206403Y219908D01*
X206411Y219903D01*
X206638Y219832D01*
X206863Y219759D01*
X206872Y219758D01*
X206882Y219755D01*
X206922Y219751D01*
X207351Y219686D01*
X207481Y219688D01*
X207559Y219679D01*
X289968Y219679D01*
X290082Y219688D01*
X290196Y219687D01*
X290328Y219708D01*
X290460Y219719D01*
X290571Y219746D01*
X290683Y219764D01*
X290810Y219805D01*
X290939Y219837D01*
X291043Y219882D01*
X291152Y219918D01*
X291270Y219980D01*
X291392Y220032D01*
X291488Y220093D01*
X291590Y220146D01*
X291663Y220205D01*
X291808Y220297D01*
X292050Y220513D01*
X292123Y220571D01*
X293422Y221871D01*
X296561Y223171D01*
X313039Y223171D01*
X316178Y221870D01*
X318580Y219468D01*
X319881Y216329D01*
X319881Y212931D01*
X318580Y209792D01*
X316178Y207390D01*
X313039Y206089D01*
X296561Y206089D01*
X293422Y207389D01*
X292123Y208689D01*
X292036Y208763D01*
X291956Y208844D01*
X291848Y208922D01*
X291747Y209008D01*
X291649Y209067D01*
X291557Y209134D01*
X291438Y209194D01*
X291324Y209263D01*
X291218Y209305D01*
X291116Y209357D01*
X290990Y209397D01*
X290866Y209446D01*
X290755Y209471D01*
X290646Y209505D01*
X290552Y209515D01*
X290385Y209553D01*
X290060Y209571D01*
X289968Y209581D01*
X215136Y209581D01*
X214918Y209564D01*
X214701Y209550D01*
X214673Y209544D01*
X214645Y209541D01*
X214432Y209489D01*
X214220Y209440D01*
X214193Y209429D01*
X214166Y209423D01*
X213965Y209336D01*
X213763Y209254D01*
X213739Y209239D01*
X213712Y209228D01*
X213528Y209111D01*
X213342Y208997D01*
X213320Y208978D01*
X213296Y208963D01*
X213134Y208818D01*
X212968Y208675D01*
X212950Y208653D01*
X212929Y208634D01*
X212792Y208465D01*
X212651Y208297D01*
X212640Y208276D01*
X212619Y208250D01*
X212375Y207822D01*
X212347Y207746D01*
X212321Y207700D01*
X211356Y205370D01*
X208650Y202664D01*
X205114Y201199D01*
X186046Y201199D01*
G37*
%LPD*%
%LPC*%
G36*
X186046Y226599D02*
X186046Y226599D01*
X182510Y228064D01*
X179804Y230770D01*
X178339Y234306D01*
X178339Y238134D01*
X179804Y241670D01*
X182510Y244376D01*
X186046Y245841D01*
X205114Y245841D01*
X206393Y245311D01*
X206403Y245308D01*
X206411Y245303D01*
X206638Y245232D01*
X206863Y245159D01*
X206872Y245158D01*
X206882Y245155D01*
X206922Y245151D01*
X207351Y245086D01*
X207481Y245088D01*
X207559Y245079D01*
X289968Y245079D01*
X290082Y245088D01*
X290196Y245087D01*
X290328Y245108D01*
X290460Y245119D01*
X290571Y245146D01*
X290683Y245164D01*
X290810Y245205D01*
X290939Y245237D01*
X291043Y245282D01*
X291152Y245318D01*
X291270Y245380D01*
X291392Y245432D01*
X291488Y245493D01*
X291590Y245546D01*
X291663Y245605D01*
X291808Y245697D01*
X292050Y245913D01*
X292123Y245971D01*
X293422Y247271D01*
X296561Y248571D01*
X313039Y248571D01*
X316178Y247270D01*
X318580Y244868D01*
X319881Y241729D01*
X319881Y238331D01*
X318580Y235192D01*
X316178Y232790D01*
X313039Y231489D01*
X296561Y231489D01*
X293422Y232789D01*
X292123Y234089D01*
X292036Y234163D01*
X291956Y234244D01*
X291848Y234322D01*
X291747Y234408D01*
X291649Y234467D01*
X291557Y234534D01*
X291438Y234594D01*
X291324Y234663D01*
X291218Y234705D01*
X291116Y234757D01*
X290990Y234797D01*
X290866Y234846D01*
X290755Y234871D01*
X290646Y234905D01*
X290552Y234915D01*
X290385Y234953D01*
X290060Y234971D01*
X289968Y234981D01*
X215136Y234981D01*
X214918Y234964D01*
X214701Y234950D01*
X214673Y234944D01*
X214645Y234941D01*
X214432Y234889D01*
X214220Y234840D01*
X214193Y234829D01*
X214166Y234823D01*
X213965Y234736D01*
X213763Y234654D01*
X213739Y234639D01*
X213712Y234628D01*
X213528Y234511D01*
X213342Y234397D01*
X213320Y234378D01*
X213296Y234363D01*
X213134Y234218D01*
X212968Y234075D01*
X212950Y234053D01*
X212929Y234034D01*
X212792Y233865D01*
X212651Y233697D01*
X212640Y233676D01*
X212619Y233650D01*
X212375Y233222D01*
X212347Y233146D01*
X212321Y233100D01*
X211356Y230770D01*
X208650Y228064D01*
X205114Y226599D01*
X186046Y226599D01*
G37*
%LPD*%
%LPC*%
G36*
X186046Y251999D02*
X186046Y251999D01*
X182510Y253464D01*
X179804Y256170D01*
X178339Y259706D01*
X178339Y263534D01*
X179804Y267070D01*
X182510Y269776D01*
X186046Y271241D01*
X205114Y271241D01*
X206393Y270711D01*
X206403Y270708D01*
X206411Y270703D01*
X206638Y270632D01*
X206863Y270559D01*
X206872Y270558D01*
X206882Y270555D01*
X206922Y270551D01*
X207351Y270486D01*
X207481Y270488D01*
X207559Y270479D01*
X289968Y270479D01*
X290082Y270488D01*
X290196Y270487D01*
X290328Y270508D01*
X290460Y270519D01*
X290571Y270546D01*
X290683Y270564D01*
X290810Y270605D01*
X290939Y270637D01*
X291043Y270682D01*
X291152Y270718D01*
X291270Y270780D01*
X291392Y270832D01*
X291488Y270893D01*
X291590Y270946D01*
X291663Y271005D01*
X291808Y271097D01*
X292050Y271313D01*
X292123Y271371D01*
X293422Y272671D01*
X296561Y273971D01*
X313039Y273971D01*
X316178Y272670D01*
X318580Y270268D01*
X319881Y267129D01*
X319881Y263731D01*
X318580Y260592D01*
X316178Y258190D01*
X313039Y256889D01*
X296561Y256889D01*
X293422Y258189D01*
X292123Y259489D01*
X292036Y259563D01*
X291956Y259644D01*
X291848Y259722D01*
X291747Y259808D01*
X291649Y259867D01*
X291557Y259934D01*
X291438Y259994D01*
X291324Y260063D01*
X291218Y260105D01*
X291116Y260157D01*
X290990Y260197D01*
X290866Y260246D01*
X290755Y260271D01*
X290646Y260305D01*
X290552Y260315D01*
X290385Y260353D01*
X290060Y260371D01*
X289968Y260381D01*
X215136Y260381D01*
X214918Y260364D01*
X214701Y260350D01*
X214673Y260344D01*
X214645Y260341D01*
X214432Y260289D01*
X214220Y260240D01*
X214193Y260229D01*
X214166Y260223D01*
X213965Y260136D01*
X213763Y260054D01*
X213739Y260039D01*
X213712Y260028D01*
X213528Y259911D01*
X213342Y259797D01*
X213320Y259778D01*
X213296Y259763D01*
X213134Y259618D01*
X212968Y259475D01*
X212950Y259453D01*
X212929Y259434D01*
X212792Y259265D01*
X212651Y259097D01*
X212640Y259076D01*
X212619Y259050D01*
X212375Y258622D01*
X212347Y258546D01*
X212321Y258500D01*
X211356Y256170D01*
X208650Y253464D01*
X205114Y251999D01*
X186046Y251999D01*
G37*
%LPD*%
%LPC*%
G36*
X194430Y631957D02*
X194430Y631957D01*
X192304Y632838D01*
X190678Y634464D01*
X189797Y636590D01*
X189797Y638890D01*
X190807Y641329D01*
X190810Y641338D01*
X190815Y641347D01*
X190887Y641575D01*
X190959Y641798D01*
X190960Y641808D01*
X190963Y641817D01*
X190967Y641857D01*
X191032Y642286D01*
X191030Y642417D01*
X191039Y642495D01*
X191039Y742005D01*
X191038Y742015D01*
X191039Y742024D01*
X191019Y742260D01*
X190999Y742497D01*
X190997Y742506D01*
X190996Y742516D01*
X190985Y742554D01*
X190881Y742976D01*
X190829Y743096D01*
X190807Y743171D01*
X189797Y745610D01*
X189797Y747910D01*
X190678Y750036D01*
X192304Y751662D01*
X194430Y752543D01*
X196730Y752543D01*
X198856Y751662D01*
X200482Y750036D01*
X201363Y747910D01*
X201363Y745610D01*
X200353Y743171D01*
X200350Y743162D01*
X200345Y743153D01*
X200273Y742925D01*
X200201Y742702D01*
X200200Y742692D01*
X200197Y742683D01*
X200193Y742643D01*
X200128Y742214D01*
X200130Y742083D01*
X200121Y742005D01*
X200121Y642495D01*
X200122Y642485D01*
X200121Y642476D01*
X200141Y642240D01*
X200161Y642003D01*
X200163Y641994D01*
X200164Y641984D01*
X200175Y641946D01*
X200279Y641524D01*
X200331Y641404D01*
X200353Y641329D01*
X201363Y638890D01*
X201363Y636590D01*
X200482Y634464D01*
X198856Y632838D01*
X196730Y631957D01*
X194430Y631957D01*
G37*
%LPD*%
%LPC*%
G36*
X235070Y591117D02*
X235070Y591117D01*
X232944Y591998D01*
X231318Y593624D01*
X230437Y595750D01*
X230437Y598050D01*
X230939Y599262D01*
X230942Y599271D01*
X230947Y599280D01*
X231019Y599508D01*
X231091Y599732D01*
X231092Y599741D01*
X231095Y599751D01*
X231099Y599791D01*
X231164Y600220D01*
X231162Y600350D01*
X231171Y600428D01*
X231171Y658864D01*
X231940Y660720D01*
X233360Y662140D01*
X234026Y662416D01*
X234035Y662421D01*
X234044Y662424D01*
X234255Y662533D01*
X234465Y662641D01*
X234473Y662647D01*
X234482Y662651D01*
X234513Y662677D01*
X234862Y662934D01*
X234954Y663028D01*
X235015Y663077D01*
X237267Y665329D01*
X237273Y665336D01*
X237281Y665342D01*
X237434Y665525D01*
X237587Y665705D01*
X237592Y665713D01*
X237598Y665720D01*
X237617Y665756D01*
X237841Y666127D01*
X237890Y666248D01*
X237928Y666317D01*
X238938Y668756D01*
X240564Y670382D01*
X242690Y671263D01*
X244990Y671263D01*
X247116Y670382D01*
X248742Y668756D01*
X249623Y666630D01*
X249623Y664330D01*
X248742Y662204D01*
X247116Y660578D01*
X244677Y659568D01*
X244668Y659563D01*
X244659Y659560D01*
X244452Y659452D01*
X244238Y659343D01*
X244230Y659337D01*
X244222Y659332D01*
X244191Y659307D01*
X243841Y659050D01*
X243750Y658956D01*
X243689Y658907D01*
X242161Y657380D01*
X242087Y657293D01*
X242006Y657212D01*
X241928Y657105D01*
X241842Y657004D01*
X241783Y656906D01*
X241716Y656814D01*
X241656Y656695D01*
X241587Y656581D01*
X241545Y656475D01*
X241493Y656373D01*
X241453Y656246D01*
X241404Y656123D01*
X241379Y656012D01*
X241345Y655903D01*
X241335Y655809D01*
X241297Y655641D01*
X241279Y655317D01*
X241269Y655225D01*
X241269Y600428D01*
X241270Y600419D01*
X241269Y600409D01*
X241289Y600173D01*
X241309Y599937D01*
X241311Y599927D01*
X241312Y599918D01*
X241323Y599879D01*
X241427Y599458D01*
X241479Y599338D01*
X241501Y599262D01*
X242003Y598050D01*
X242003Y595750D01*
X241122Y593624D01*
X239496Y591998D01*
X237370Y591117D01*
X235070Y591117D01*
G37*
%LPD*%
%LPC*%
G36*
X296561Y688689D02*
X296561Y688689D01*
X293422Y689990D01*
X291020Y692392D01*
X289719Y695531D01*
X289719Y698929D01*
X291020Y702068D01*
X293422Y704470D01*
X296561Y705771D01*
X313039Y705771D01*
X316178Y704470D01*
X318580Y702068D01*
X319881Y698929D01*
X319881Y695531D01*
X318580Y692392D01*
X316178Y689990D01*
X313039Y688689D01*
X296561Y688689D01*
G37*
%LPD*%
%LPC*%
G36*
X296561Y663289D02*
X296561Y663289D01*
X293422Y664590D01*
X291020Y666992D01*
X289719Y670131D01*
X289719Y673529D01*
X291020Y676668D01*
X293422Y679070D01*
X296561Y680371D01*
X313039Y680371D01*
X316178Y679070D01*
X318580Y676668D01*
X319881Y673529D01*
X319881Y670131D01*
X318580Y666992D01*
X316178Y664590D01*
X313039Y663289D01*
X296561Y663289D01*
G37*
%LPD*%
%LPC*%
G36*
X296561Y637889D02*
X296561Y637889D01*
X293422Y639190D01*
X291020Y641592D01*
X289719Y644731D01*
X289719Y648129D01*
X291020Y651268D01*
X293422Y653670D01*
X296561Y654971D01*
X313039Y654971D01*
X316178Y653670D01*
X318580Y651268D01*
X319881Y648129D01*
X319881Y644731D01*
X318580Y641592D01*
X316178Y639190D01*
X313039Y637889D01*
X296561Y637889D01*
G37*
%LPD*%
%LPC*%
G36*
X296561Y612489D02*
X296561Y612489D01*
X293422Y613790D01*
X291020Y616192D01*
X289719Y619331D01*
X289719Y622729D01*
X291020Y625868D01*
X293422Y628270D01*
X296561Y629571D01*
X313039Y629571D01*
X316178Y628270D01*
X318580Y625868D01*
X319881Y622729D01*
X319881Y619331D01*
X318580Y616192D01*
X316178Y613790D01*
X313039Y612489D01*
X296561Y612489D01*
G37*
%LPD*%
%LPC*%
G36*
X296561Y460089D02*
X296561Y460089D01*
X293422Y461390D01*
X291020Y463792D01*
X289719Y466931D01*
X289719Y470329D01*
X291020Y473468D01*
X293422Y475870D01*
X296561Y477171D01*
X313039Y477171D01*
X316178Y475870D01*
X318580Y473468D01*
X319881Y470329D01*
X319881Y466931D01*
X318580Y463792D01*
X316178Y461390D01*
X313039Y460089D01*
X296561Y460089D01*
G37*
%LPD*%
%LPC*%
G36*
X296561Y53689D02*
X296561Y53689D01*
X293422Y54990D01*
X291020Y57392D01*
X289719Y60531D01*
X289719Y63929D01*
X291020Y67068D01*
X293422Y69470D01*
X296561Y70771D01*
X313039Y70771D01*
X316178Y69470D01*
X318580Y67068D01*
X319881Y63929D01*
X319881Y60531D01*
X318580Y57392D01*
X316178Y54990D01*
X313039Y53689D01*
X296561Y53689D01*
G37*
%LPD*%
%LPC*%
G36*
X296561Y587089D02*
X296561Y587089D01*
X293422Y588390D01*
X291020Y590792D01*
X289719Y593931D01*
X289719Y597329D01*
X291020Y600468D01*
X293422Y602870D01*
X296561Y604171D01*
X313039Y604171D01*
X316178Y602870D01*
X318580Y600468D01*
X319881Y597329D01*
X319881Y593931D01*
X318580Y590792D01*
X316178Y588390D01*
X313039Y587089D01*
X296561Y587089D01*
G37*
%LPD*%
%LPC*%
G36*
X296561Y79089D02*
X296561Y79089D01*
X293422Y80390D01*
X291020Y82792D01*
X289719Y85931D01*
X289719Y89329D01*
X291020Y92468D01*
X293422Y94870D01*
X296561Y96171D01*
X313039Y96171D01*
X316178Y94870D01*
X318580Y92468D01*
X319881Y89329D01*
X319881Y85931D01*
X318580Y82792D01*
X316178Y80390D01*
X313039Y79089D01*
X296561Y79089D01*
G37*
%LPD*%
%LPC*%
G36*
X296561Y561689D02*
X296561Y561689D01*
X293422Y562990D01*
X291020Y565392D01*
X289719Y568531D01*
X289719Y571929D01*
X291020Y575068D01*
X293422Y577470D01*
X296561Y578771D01*
X313039Y578771D01*
X316178Y577470D01*
X318580Y575068D01*
X319881Y571929D01*
X319881Y568531D01*
X318580Y565392D01*
X316178Y562990D01*
X313039Y561689D01*
X296561Y561689D01*
G37*
%LPD*%
%LPC*%
G36*
X296561Y104489D02*
X296561Y104489D01*
X293422Y105790D01*
X291020Y108192D01*
X289719Y111331D01*
X289719Y114729D01*
X291020Y117868D01*
X293422Y120270D01*
X296561Y121571D01*
X313039Y121571D01*
X316178Y120270D01*
X318580Y117868D01*
X319881Y114729D01*
X319881Y111331D01*
X318580Y108192D01*
X316178Y105790D01*
X313039Y104489D01*
X296561Y104489D01*
G37*
%LPD*%
%LPC*%
G36*
X296561Y129889D02*
X296561Y129889D01*
X293422Y131190D01*
X291020Y133592D01*
X289719Y136731D01*
X289719Y140129D01*
X291020Y143268D01*
X293422Y145670D01*
X296561Y146971D01*
X313039Y146971D01*
X316178Y145670D01*
X318580Y143268D01*
X319881Y140129D01*
X319881Y136731D01*
X318580Y133592D01*
X316178Y131190D01*
X313039Y129889D01*
X296561Y129889D01*
G37*
%LPD*%
%LPC*%
G36*
X296561Y434689D02*
X296561Y434689D01*
X293422Y435990D01*
X291020Y438392D01*
X289719Y441531D01*
X289719Y444929D01*
X291020Y448068D01*
X293422Y450470D01*
X296561Y451771D01*
X313039Y451771D01*
X316178Y450470D01*
X318580Y448068D01*
X319881Y444929D01*
X319881Y441531D01*
X318580Y438392D01*
X316178Y435990D01*
X313039Y434689D01*
X296561Y434689D01*
G37*
%LPD*%
%LPC*%
G36*
X296561Y155289D02*
X296561Y155289D01*
X293422Y156590D01*
X291020Y158992D01*
X289719Y162131D01*
X289719Y165529D01*
X291020Y168668D01*
X293422Y171070D01*
X296561Y172371D01*
X313039Y172371D01*
X316178Y171070D01*
X318580Y168668D01*
X319881Y165529D01*
X319881Y162131D01*
X318580Y158992D01*
X316178Y156590D01*
X313039Y155289D01*
X296561Y155289D01*
G37*
%LPD*%
%LPC*%
G36*
X296561Y383889D02*
X296561Y383889D01*
X293422Y385190D01*
X291020Y387592D01*
X289719Y390731D01*
X289719Y394129D01*
X291020Y397268D01*
X293422Y399670D01*
X296561Y400971D01*
X313039Y400971D01*
X316178Y399670D01*
X318580Y397268D01*
X319881Y394129D01*
X319881Y390731D01*
X318580Y387592D01*
X316178Y385190D01*
X313039Y383889D01*
X296561Y383889D01*
G37*
%LPD*%
%LPC*%
G36*
X296561Y536289D02*
X296561Y536289D01*
X293422Y537590D01*
X291020Y539992D01*
X289719Y543131D01*
X289719Y546529D01*
X291020Y549668D01*
X293422Y552070D01*
X296561Y553371D01*
X313039Y553371D01*
X316178Y552070D01*
X318580Y549668D01*
X319881Y546529D01*
X319881Y543131D01*
X318580Y539992D01*
X316178Y537590D01*
X313039Y536289D01*
X296561Y536289D01*
G37*
%LPD*%
%LPC*%
G36*
X296561Y841089D02*
X296561Y841089D01*
X293422Y842390D01*
X291020Y844792D01*
X289719Y847931D01*
X289719Y851329D01*
X291020Y854468D01*
X293422Y856870D01*
X296561Y858171D01*
X313039Y858171D01*
X316178Y856870D01*
X318580Y854468D01*
X319881Y851329D01*
X319881Y847931D01*
X318580Y844792D01*
X316178Y842390D01*
X313039Y841089D01*
X296561Y841089D01*
G37*
%LPD*%
%LPC*%
G36*
X296561Y28289D02*
X296561Y28289D01*
X293422Y29590D01*
X291020Y31992D01*
X289719Y35131D01*
X289719Y38529D01*
X291020Y41668D01*
X293422Y44070D01*
X296561Y45371D01*
X313039Y45371D01*
X316178Y44070D01*
X318580Y41668D01*
X319881Y38529D01*
X319881Y35131D01*
X318580Y31992D01*
X316178Y29590D01*
X313039Y28289D01*
X296561Y28289D01*
G37*
%LPD*%
%LPC*%
G36*
X296561Y333089D02*
X296561Y333089D01*
X293422Y334390D01*
X291020Y336792D01*
X289719Y339931D01*
X289719Y343329D01*
X291020Y346468D01*
X293422Y348870D01*
X296561Y350171D01*
X313039Y350171D01*
X316178Y348870D01*
X318580Y346468D01*
X319881Y343329D01*
X319881Y339931D01*
X318580Y336792D01*
X316178Y334390D01*
X313039Y333089D01*
X296561Y333089D01*
G37*
%LPD*%
%LPC*%
G36*
X296561Y790289D02*
X296561Y790289D01*
X293422Y791590D01*
X291020Y793992D01*
X289719Y797131D01*
X289719Y800529D01*
X291020Y803668D01*
X293422Y806070D01*
X296561Y807371D01*
X313039Y807371D01*
X316178Y806070D01*
X318580Y803668D01*
X319881Y800529D01*
X319881Y797131D01*
X318580Y793992D01*
X316178Y791590D01*
X313039Y790289D01*
X296561Y790289D01*
G37*
%LPD*%
%LPC*%
G36*
X296561Y510889D02*
X296561Y510889D01*
X293422Y512190D01*
X291020Y514592D01*
X289719Y517731D01*
X289719Y521129D01*
X291020Y524268D01*
X293422Y526670D01*
X296561Y527971D01*
X313039Y527971D01*
X316178Y526670D01*
X318580Y524268D01*
X319881Y521129D01*
X319881Y517731D01*
X318580Y514592D01*
X316178Y512190D01*
X313039Y510889D01*
X296561Y510889D01*
G37*
%LPD*%
%LPC*%
G36*
X296561Y485489D02*
X296561Y485489D01*
X293422Y486790D01*
X291020Y489192D01*
X289719Y492331D01*
X289719Y495729D01*
X291020Y498868D01*
X293422Y501270D01*
X296561Y502571D01*
X313039Y502571D01*
X316178Y501270D01*
X318580Y498868D01*
X319881Y495729D01*
X319881Y492331D01*
X318580Y489192D01*
X316178Y486790D01*
X313039Y485489D01*
X296561Y485489D01*
G37*
%LPD*%
%LPC*%
G36*
X296561Y764889D02*
X296561Y764889D01*
X293422Y766190D01*
X291020Y768592D01*
X289719Y771731D01*
X289719Y775129D01*
X291020Y778268D01*
X293422Y780670D01*
X296561Y781971D01*
X313039Y781971D01*
X316178Y780670D01*
X318580Y778268D01*
X319881Y775129D01*
X319881Y771731D01*
X318580Y768592D01*
X316178Y766190D01*
X313039Y764889D01*
X296561Y764889D01*
G37*
%LPD*%
%LPC*%
G36*
X296561Y739489D02*
X296561Y739489D01*
X293422Y740790D01*
X291020Y743192D01*
X289719Y746331D01*
X289719Y749729D01*
X291020Y752868D01*
X293422Y755270D01*
X296561Y756571D01*
X313039Y756571D01*
X316178Y755270D01*
X318580Y752868D01*
X319881Y749729D01*
X319881Y746331D01*
X318580Y743192D01*
X316178Y740790D01*
X313039Y739489D01*
X296561Y739489D01*
G37*
%LPD*%
%LPC*%
G36*
X296561Y714089D02*
X296561Y714089D01*
X293422Y715390D01*
X291020Y717792D01*
X289719Y720931D01*
X289719Y724329D01*
X291020Y727468D01*
X293422Y729870D01*
X296561Y731171D01*
X313039Y731171D01*
X316178Y729870D01*
X318580Y727468D01*
X319881Y724329D01*
X319881Y720931D01*
X318580Y717792D01*
X316178Y715390D01*
X313039Y714089D01*
X296561Y714089D01*
G37*
%LPD*%
%LPC*%
G36*
X296561Y409289D02*
X296561Y409289D01*
X293422Y410590D01*
X291020Y412992D01*
X289719Y416131D01*
X289719Y419529D01*
X291020Y422668D01*
X293422Y425070D01*
X296561Y426371D01*
X313039Y426371D01*
X316178Y425070D01*
X318580Y422668D01*
X319881Y419529D01*
X319881Y416131D01*
X318580Y412992D01*
X316178Y410590D01*
X313039Y409289D01*
X296561Y409289D01*
G37*
%LPD*%
%LPC*%
G36*
X163187Y572579D02*
X163187Y572579D01*
X163187Y579120D01*
X163187Y585661D01*
X164475Y585661D01*
X165121Y585488D01*
X165700Y585153D01*
X165867Y584986D01*
X165925Y584937D01*
X165977Y584881D01*
X166113Y584777D01*
X166243Y584667D01*
X166308Y584627D01*
X166369Y584581D01*
X166519Y584500D01*
X166665Y584412D01*
X166736Y584384D01*
X166803Y584348D01*
X166965Y584292D01*
X167124Y584229D01*
X167198Y584212D01*
X167270Y584188D01*
X167439Y584159D01*
X167605Y584122D01*
X167681Y584118D01*
X167757Y584105D01*
X167927Y584104D01*
X168098Y584094D01*
X168174Y584103D01*
X168250Y584102D01*
X168419Y584129D01*
X168588Y584147D01*
X168662Y584167D01*
X168737Y584179D01*
X168899Y584232D01*
X169064Y584277D01*
X169133Y584309D01*
X169206Y584333D01*
X169357Y584412D01*
X169512Y584483D01*
X169576Y584526D01*
X169643Y584561D01*
X169726Y584626D01*
X169922Y584758D01*
X170094Y584921D01*
X170177Y584986D01*
X170311Y585121D01*
X179969Y585121D01*
X180028Y585061D01*
X180115Y584987D01*
X180195Y584906D01*
X180303Y584828D01*
X180404Y584742D01*
X180502Y584683D01*
X180594Y584616D01*
X180713Y584556D01*
X180827Y584487D01*
X180933Y584445D01*
X181035Y584393D01*
X181162Y584353D01*
X181285Y584304D01*
X181396Y584279D01*
X181505Y584245D01*
X181599Y584235D01*
X181766Y584197D01*
X182091Y584179D01*
X182183Y584169D01*
X184432Y584169D01*
X184441Y584170D01*
X184451Y584169D01*
X184686Y584189D01*
X184923Y584209D01*
X184933Y584211D01*
X184942Y584212D01*
X184981Y584223D01*
X185402Y584327D01*
X185522Y584379D01*
X185598Y584401D01*
X186810Y584903D01*
X189110Y584903D01*
X191236Y584022D01*
X192862Y582396D01*
X193743Y580270D01*
X193743Y577970D01*
X192862Y575844D01*
X191236Y574218D01*
X189110Y573337D01*
X186810Y573337D01*
X185598Y573839D01*
X185589Y573842D01*
X185580Y573847D01*
X185352Y573919D01*
X185128Y573991D01*
X185119Y573992D01*
X185109Y573995D01*
X185069Y573999D01*
X184640Y574064D01*
X184510Y574062D01*
X184432Y574071D01*
X182183Y574071D01*
X182069Y574062D01*
X181955Y574063D01*
X181824Y574042D01*
X181691Y574031D01*
X181580Y574004D01*
X181468Y573986D01*
X181341Y573945D01*
X181212Y573913D01*
X181108Y573868D01*
X180999Y573832D01*
X180881Y573770D01*
X180759Y573718D01*
X180663Y573657D01*
X180561Y573604D01*
X180488Y573545D01*
X180343Y573453D01*
X180101Y573237D01*
X180028Y573179D01*
X179969Y573119D01*
X170311Y573119D01*
X170177Y573254D01*
X170119Y573303D01*
X170066Y573359D01*
X169931Y573463D01*
X169801Y573573D01*
X169735Y573613D01*
X169675Y573659D01*
X169525Y573740D01*
X169378Y573828D01*
X169307Y573856D01*
X169240Y573892D01*
X169079Y573948D01*
X168920Y574011D01*
X168846Y574028D01*
X168773Y574052D01*
X168605Y574081D01*
X168438Y574118D01*
X168362Y574122D01*
X168287Y574135D01*
X168117Y574136D01*
X167946Y574146D01*
X167870Y574137D01*
X167794Y574138D01*
X167625Y574111D01*
X167455Y574093D01*
X167382Y574073D01*
X167306Y574061D01*
X167144Y574008D01*
X166979Y573963D01*
X166910Y573931D01*
X166838Y573907D01*
X166686Y573828D01*
X166531Y573757D01*
X166468Y573714D01*
X166400Y573679D01*
X166318Y573613D01*
X166122Y573482D01*
X165949Y573320D01*
X165867Y573254D01*
X165700Y573087D01*
X165121Y572752D01*
X164475Y572579D01*
X163187Y572579D01*
G37*
%LPD*%
%LPC*%
G36*
X59059Y282579D02*
X59059Y282579D01*
X59059Y294633D01*
X60388Y294277D01*
X62391Y293447D01*
X64269Y292363D01*
X65990Y291043D01*
X67523Y289510D01*
X68843Y287789D01*
X69927Y285911D01*
X70757Y283908D01*
X71113Y282579D01*
X59059Y282579D01*
G37*
%LPD*%
%LPC*%
G36*
X59059Y124199D02*
X59059Y124199D01*
X59059Y136253D01*
X60388Y135897D01*
X62391Y135067D01*
X64269Y133983D01*
X65990Y132663D01*
X67523Y131130D01*
X68843Y129409D01*
X69927Y127531D01*
X70757Y125528D01*
X71113Y124199D01*
X59059Y124199D01*
G37*
%LPD*%
%LPC*%
G36*
X121659Y124199D02*
X121659Y124199D01*
X121659Y136253D01*
X122988Y135897D01*
X124991Y135067D01*
X126869Y133983D01*
X128590Y132663D01*
X130123Y131130D01*
X131443Y129409D01*
X132527Y127531D01*
X133357Y125528D01*
X133713Y124199D01*
X121659Y124199D01*
G37*
%LPD*%
%LPC*%
G36*
X59059Y61599D02*
X59059Y61599D01*
X59059Y73653D01*
X60388Y73297D01*
X62391Y72467D01*
X64269Y71383D01*
X65990Y70063D01*
X67523Y68530D01*
X68843Y66809D01*
X69927Y64931D01*
X70757Y62928D01*
X71113Y61599D01*
X59059Y61599D01*
G37*
%LPD*%
%LPC*%
G36*
X121659Y61599D02*
X121659Y61599D01*
X121659Y73653D01*
X122988Y73297D01*
X124991Y72467D01*
X126869Y71383D01*
X128590Y70063D01*
X130123Y68530D01*
X131443Y66809D01*
X132527Y64931D01*
X133357Y62928D01*
X133713Y61599D01*
X121659Y61599D01*
G37*
%LPD*%
%LPC*%
G36*
X121659Y550919D02*
X121659Y550919D01*
X121659Y562973D01*
X122988Y562617D01*
X124991Y561787D01*
X126869Y560703D01*
X128590Y559383D01*
X130123Y557850D01*
X131443Y556129D01*
X132527Y554251D01*
X133357Y552248D01*
X133713Y550919D01*
X121659Y550919D01*
G37*
%LPD*%
%LPC*%
G36*
X59059Y550919D02*
X59059Y550919D01*
X59059Y562973D01*
X60388Y562617D01*
X62391Y561787D01*
X64269Y560703D01*
X65990Y559383D01*
X67523Y557850D01*
X68843Y556129D01*
X69927Y554251D01*
X70757Y552248D01*
X71113Y550919D01*
X59059Y550919D01*
G37*
%LPD*%
%LPC*%
G36*
X59059Y488319D02*
X59059Y488319D01*
X59059Y500373D01*
X60388Y500017D01*
X62391Y499187D01*
X64269Y498103D01*
X65990Y496783D01*
X67523Y495250D01*
X68843Y493529D01*
X69927Y491651D01*
X70757Y489648D01*
X71113Y488319D01*
X59059Y488319D01*
G37*
%LPD*%
%LPC*%
G36*
X121659Y488319D02*
X121659Y488319D01*
X121659Y500373D01*
X122988Y500017D01*
X124991Y499187D01*
X126869Y498103D01*
X128590Y496783D01*
X130123Y495250D01*
X131443Y493529D01*
X132527Y491651D01*
X133357Y489648D01*
X133713Y488319D01*
X121659Y488319D01*
G37*
%LPD*%
%LPC*%
G36*
X121659Y282579D02*
X121659Y282579D01*
X121659Y294633D01*
X122988Y294277D01*
X124991Y293447D01*
X126869Y292363D01*
X128590Y291043D01*
X130123Y289510D01*
X131443Y287789D01*
X132527Y285911D01*
X133357Y283908D01*
X133713Y282579D01*
X121659Y282579D01*
G37*
%LPD*%
%LPC*%
G36*
X121659Y345179D02*
X121659Y345179D01*
X121659Y357233D01*
X122988Y356877D01*
X124991Y356047D01*
X126869Y354963D01*
X128590Y353643D01*
X130123Y352110D01*
X131443Y350389D01*
X132527Y348511D01*
X133357Y346508D01*
X133713Y345179D01*
X121659Y345179D01*
G37*
%LPD*%
%LPC*%
G36*
X59059Y345179D02*
X59059Y345179D01*
X59059Y357233D01*
X60388Y356877D01*
X62391Y356047D01*
X64269Y354963D01*
X65990Y353643D01*
X67523Y352110D01*
X68843Y350389D01*
X69927Y348511D01*
X70757Y346508D01*
X71113Y345179D01*
X59059Y345179D01*
G37*
%LPD*%
%LPC*%
G36*
X59059Y337181D02*
X59059Y337181D01*
X71113Y337181D01*
X70757Y335852D01*
X69927Y333849D01*
X68843Y331971D01*
X67523Y330250D01*
X65990Y328717D01*
X64269Y327397D01*
X62391Y326313D01*
X60388Y325483D01*
X59059Y325127D01*
X59059Y337181D01*
G37*
%LPD*%
%LPC*%
G36*
X121659Y542921D02*
X121659Y542921D01*
X133713Y542921D01*
X133357Y541592D01*
X132527Y539589D01*
X131443Y537711D01*
X130123Y535990D01*
X128590Y534457D01*
X126869Y533137D01*
X124991Y532053D01*
X122988Y531223D01*
X121659Y530867D01*
X121659Y542921D01*
G37*
%LPD*%
%LPC*%
G36*
X39007Y124199D02*
X39007Y124199D01*
X39363Y125528D01*
X40193Y127531D01*
X41277Y129409D01*
X42597Y131130D01*
X44130Y132663D01*
X45851Y133983D01*
X47729Y135067D01*
X49732Y135897D01*
X51061Y136253D01*
X51061Y124199D01*
X39007Y124199D01*
G37*
%LPD*%
%LPC*%
G36*
X39007Y550919D02*
X39007Y550919D01*
X39363Y552248D01*
X40193Y554251D01*
X41277Y556129D01*
X42597Y557850D01*
X44130Y559383D01*
X45851Y560703D01*
X47729Y561787D01*
X49732Y562617D01*
X51061Y562973D01*
X51061Y550919D01*
X39007Y550919D01*
G37*
%LPD*%
%LPC*%
G36*
X101607Y550919D02*
X101607Y550919D01*
X101963Y552248D01*
X102793Y554251D01*
X103877Y556129D01*
X105197Y557850D01*
X106730Y559383D01*
X108451Y560703D01*
X110329Y561787D01*
X112332Y562617D01*
X113661Y562973D01*
X113661Y550919D01*
X101607Y550919D01*
G37*
%LPD*%
%LPC*%
G36*
X39007Y282579D02*
X39007Y282579D01*
X39363Y283908D01*
X40193Y285911D01*
X41277Y287789D01*
X42597Y289510D01*
X44130Y291043D01*
X45851Y292363D01*
X47729Y293447D01*
X49732Y294277D01*
X51061Y294633D01*
X51061Y282579D01*
X39007Y282579D01*
G37*
%LPD*%
%LPC*%
G36*
X39007Y345179D02*
X39007Y345179D01*
X39363Y346508D01*
X40193Y348511D01*
X41277Y350389D01*
X42597Y352110D01*
X44130Y353643D01*
X45851Y354963D01*
X47729Y356047D01*
X49732Y356877D01*
X51061Y357233D01*
X51061Y345179D01*
X39007Y345179D01*
G37*
%LPD*%
%LPC*%
G36*
X121659Y116201D02*
X121659Y116201D01*
X133713Y116201D01*
X133357Y114872D01*
X132527Y112869D01*
X131443Y110991D01*
X130123Y109270D01*
X128590Y107737D01*
X126869Y106417D01*
X124991Y105333D01*
X122988Y104503D01*
X121659Y104147D01*
X121659Y116201D01*
G37*
%LPD*%
%LPC*%
G36*
X121659Y480321D02*
X121659Y480321D01*
X133713Y480321D01*
X133357Y478992D01*
X132527Y476989D01*
X131443Y475111D01*
X130123Y473390D01*
X128590Y471857D01*
X126869Y470537D01*
X124991Y469453D01*
X122988Y468623D01*
X121659Y468267D01*
X121659Y480321D01*
G37*
%LPD*%
%LPC*%
G36*
X59059Y116201D02*
X59059Y116201D01*
X71113Y116201D01*
X70757Y114872D01*
X69927Y112869D01*
X68843Y110991D01*
X67523Y109270D01*
X65990Y107737D01*
X64269Y106417D01*
X62391Y105333D01*
X60388Y104503D01*
X59059Y104147D01*
X59059Y116201D01*
G37*
%LPD*%
%LPC*%
G36*
X39007Y61599D02*
X39007Y61599D01*
X39363Y62928D01*
X40193Y64931D01*
X41277Y66809D01*
X42597Y68530D01*
X44130Y70063D01*
X45851Y71383D01*
X47729Y72467D01*
X49732Y73297D01*
X51061Y73653D01*
X51061Y61599D01*
X39007Y61599D01*
G37*
%LPD*%
%LPC*%
G36*
X59059Y480321D02*
X59059Y480321D01*
X71113Y480321D01*
X70757Y478992D01*
X69927Y476989D01*
X68843Y475111D01*
X67523Y473390D01*
X65990Y471857D01*
X64269Y470537D01*
X62391Y469453D01*
X60388Y468623D01*
X59059Y468267D01*
X59059Y480321D01*
G37*
%LPD*%
%LPC*%
G36*
X101607Y282579D02*
X101607Y282579D01*
X101963Y283908D01*
X102793Y285911D01*
X103877Y287789D01*
X105197Y289510D01*
X106730Y291043D01*
X108451Y292363D01*
X110329Y293447D01*
X112332Y294277D01*
X113661Y294633D01*
X113661Y282579D01*
X101607Y282579D01*
G37*
%LPD*%
%LPC*%
G36*
X121659Y274581D02*
X121659Y274581D01*
X133713Y274581D01*
X133357Y273252D01*
X132527Y271249D01*
X131443Y269371D01*
X130123Y267650D01*
X128590Y266117D01*
X126869Y264797D01*
X124991Y263713D01*
X122988Y262883D01*
X121659Y262527D01*
X121659Y274581D01*
G37*
%LPD*%
%LPC*%
G36*
X101607Y61599D02*
X101607Y61599D01*
X101963Y62928D01*
X102793Y64931D01*
X103877Y66809D01*
X105197Y68530D01*
X106730Y70063D01*
X108451Y71383D01*
X110329Y72467D01*
X112332Y73297D01*
X113661Y73653D01*
X113661Y61599D01*
X101607Y61599D01*
G37*
%LPD*%
%LPC*%
G36*
X59059Y274581D02*
X59059Y274581D01*
X71113Y274581D01*
X70757Y273252D01*
X69927Y271249D01*
X68843Y269371D01*
X67523Y267650D01*
X65990Y266117D01*
X64269Y264797D01*
X62391Y263713D01*
X60388Y262883D01*
X59059Y262527D01*
X59059Y274581D01*
G37*
%LPD*%
%LPC*%
G36*
X121659Y337181D02*
X121659Y337181D01*
X133713Y337181D01*
X133357Y335852D01*
X132527Y333849D01*
X131443Y331971D01*
X130123Y330250D01*
X128590Y328717D01*
X126869Y327397D01*
X124991Y326313D01*
X122988Y325483D01*
X121659Y325127D01*
X121659Y337181D01*
G37*
%LPD*%
%LPC*%
G36*
X101607Y488319D02*
X101607Y488319D01*
X101963Y489648D01*
X102793Y491651D01*
X103877Y493529D01*
X105197Y495250D01*
X106730Y496783D01*
X108451Y498103D01*
X110329Y499187D01*
X112332Y500017D01*
X113661Y500373D01*
X113661Y488319D01*
X101607Y488319D01*
G37*
%LPD*%
%LPC*%
G36*
X39007Y488319D02*
X39007Y488319D01*
X39363Y489648D01*
X40193Y491651D01*
X41277Y493529D01*
X42597Y495250D01*
X44130Y496783D01*
X45851Y498103D01*
X47729Y499187D01*
X49732Y500017D01*
X51061Y500373D01*
X51061Y488319D01*
X39007Y488319D01*
G37*
%LPD*%
%LPC*%
G36*
X121659Y53601D02*
X121659Y53601D01*
X133713Y53601D01*
X133357Y52272D01*
X132527Y50269D01*
X131443Y48391D01*
X130123Y46670D01*
X128590Y45137D01*
X126869Y43817D01*
X124991Y42733D01*
X122988Y41903D01*
X121659Y41547D01*
X121659Y53601D01*
G37*
%LPD*%
%LPC*%
G36*
X59059Y542921D02*
X59059Y542921D01*
X71113Y542921D01*
X70757Y541592D01*
X69927Y539589D01*
X68843Y537711D01*
X67523Y535990D01*
X65990Y534457D01*
X64269Y533137D01*
X62391Y532053D01*
X60388Y531223D01*
X59059Y530867D01*
X59059Y542921D01*
G37*
%LPD*%
%LPC*%
G36*
X59059Y53601D02*
X59059Y53601D01*
X71113Y53601D01*
X70757Y52272D01*
X69927Y50269D01*
X68843Y48391D01*
X67523Y46670D01*
X65990Y45137D01*
X64269Y43817D01*
X62391Y42733D01*
X60388Y41903D01*
X59059Y41547D01*
X59059Y53601D01*
G37*
%LPD*%
%LPC*%
G36*
X49732Y325483D02*
X49732Y325483D01*
X47729Y326313D01*
X45851Y327397D01*
X44130Y328717D01*
X42597Y330250D01*
X41277Y331971D01*
X40193Y333849D01*
X39363Y335852D01*
X39007Y337181D01*
X51061Y337181D01*
X51061Y325127D01*
X49732Y325483D01*
G37*
%LPD*%
%LPC*%
G36*
X112332Y468623D02*
X112332Y468623D01*
X110329Y469453D01*
X108451Y470537D01*
X106730Y471857D01*
X105197Y473390D01*
X103877Y475111D01*
X102793Y476989D01*
X101963Y478992D01*
X101607Y480321D01*
X113661Y480321D01*
X113661Y468267D01*
X112332Y468623D01*
G37*
%LPD*%
%LPC*%
G36*
X112332Y262883D02*
X112332Y262883D01*
X110329Y263713D01*
X108451Y264797D01*
X106730Y266117D01*
X105197Y267650D01*
X103877Y269371D01*
X102793Y271249D01*
X101963Y273252D01*
X101607Y274581D01*
X113661Y274581D01*
X113661Y262527D01*
X112332Y262883D01*
G37*
%LPD*%
%LPC*%
G36*
X49732Y262883D02*
X49732Y262883D01*
X47729Y263713D01*
X45851Y264797D01*
X44130Y266117D01*
X42597Y267650D01*
X41277Y269371D01*
X40193Y271249D01*
X39363Y273252D01*
X39007Y274581D01*
X51061Y274581D01*
X51061Y262527D01*
X49732Y262883D01*
G37*
%LPD*%
%LPC*%
G36*
X49732Y531223D02*
X49732Y531223D01*
X47729Y532053D01*
X45851Y533137D01*
X44130Y534457D01*
X42597Y535990D01*
X41277Y537711D01*
X40193Y539589D01*
X39363Y541592D01*
X39007Y542921D01*
X51061Y542921D01*
X51061Y530867D01*
X49732Y531223D01*
G37*
%LPD*%
%LPC*%
G36*
X112332Y531223D02*
X112332Y531223D01*
X110329Y532053D01*
X108451Y533137D01*
X106730Y534457D01*
X105197Y535990D01*
X103877Y537711D01*
X102793Y539589D01*
X101963Y541592D01*
X101607Y542921D01*
X113661Y542921D01*
X113661Y530867D01*
X112332Y531223D01*
G37*
%LPD*%
%LPC*%
G36*
X49732Y468623D02*
X49732Y468623D01*
X47729Y469453D01*
X45851Y470537D01*
X44130Y471857D01*
X42597Y473390D01*
X41277Y475111D01*
X40193Y476989D01*
X39363Y478992D01*
X39007Y480321D01*
X51061Y480321D01*
X51061Y468267D01*
X49732Y468623D01*
G37*
%LPD*%
%LPC*%
G36*
X112332Y41903D02*
X112332Y41903D01*
X110329Y42733D01*
X108451Y43817D01*
X106730Y45137D01*
X105197Y46670D01*
X103877Y48391D01*
X102793Y50269D01*
X101963Y52272D01*
X101607Y53601D01*
X113661Y53601D01*
X113661Y41547D01*
X112332Y41903D01*
G37*
%LPD*%
%LPC*%
G36*
X49732Y104503D02*
X49732Y104503D01*
X47729Y105333D01*
X45851Y106417D01*
X44130Y107737D01*
X42597Y109270D01*
X41277Y110991D01*
X40193Y112869D01*
X39363Y114872D01*
X39007Y116201D01*
X51061Y116201D01*
X51061Y104147D01*
X49732Y104503D01*
G37*
%LPD*%
%LPC*%
G36*
X49732Y41903D02*
X49732Y41903D01*
X47729Y42733D01*
X45851Y43817D01*
X44130Y45137D01*
X42597Y46670D01*
X41277Y48391D01*
X40193Y50269D01*
X39363Y52272D01*
X39007Y53601D01*
X51061Y53601D01*
X51061Y41547D01*
X49732Y41903D01*
G37*
%LPD*%
%LPC*%
G36*
X198627Y149859D02*
X198627Y149859D01*
X198627Y156973D01*
X212893Y156973D01*
X212616Y156120D01*
X211890Y154695D01*
X210950Y153401D01*
X209819Y152270D01*
X208525Y151330D01*
X207100Y150604D01*
X205579Y150109D01*
X204000Y149859D01*
X198627Y149859D01*
G37*
%LPD*%
%LPC*%
G36*
X187160Y149859D02*
X187160Y149859D01*
X185581Y150109D01*
X184060Y150604D01*
X182635Y151330D01*
X181341Y152270D01*
X180210Y153401D01*
X179270Y154695D01*
X178544Y156120D01*
X178267Y156973D01*
X192533Y156973D01*
X192533Y149859D01*
X187160Y149859D01*
G37*
%LPD*%
%LPC*%
G36*
X307847Y827277D02*
X307847Y827277D01*
X307847Y833311D01*
X312055Y833311D01*
X313466Y833087D01*
X314826Y832645D01*
X316099Y831997D01*
X317256Y831156D01*
X318266Y830146D01*
X319107Y828989D01*
X319755Y827716D01*
X319898Y827277D01*
X307847Y827277D01*
G37*
%LPD*%
%LPC*%
G36*
X289702Y827277D02*
X289702Y827277D01*
X289845Y827716D01*
X290493Y828989D01*
X291334Y830146D01*
X292344Y831156D01*
X293501Y831997D01*
X294774Y832645D01*
X296134Y833087D01*
X297545Y833311D01*
X301753Y833311D01*
X301753Y827277D01*
X289702Y827277D01*
G37*
%LPD*%
%LPC*%
G36*
X307847Y815149D02*
X307847Y815149D01*
X307847Y821183D01*
X319898Y821183D01*
X319755Y820744D01*
X319107Y819471D01*
X318266Y818314D01*
X317256Y817304D01*
X316099Y816463D01*
X314826Y815815D01*
X313466Y815373D01*
X312055Y815149D01*
X307847Y815149D01*
G37*
%LPD*%
%LPC*%
G36*
X297545Y815149D02*
X297545Y815149D01*
X296134Y815373D01*
X294774Y815815D01*
X293501Y816463D01*
X292344Y817304D01*
X291334Y818314D01*
X290493Y819471D01*
X289845Y820744D01*
X289702Y821183D01*
X301753Y821183D01*
X301753Y815149D01*
X297545Y815149D01*
G37*
%LPD*%
%LPC*%
G36*
X39877Y613164D02*
X39877Y613164D01*
X39877Y620158D01*
X44371Y620158D01*
X44371Y615370D01*
X44198Y614724D01*
X43863Y614145D01*
X43390Y613672D01*
X42811Y613337D01*
X42165Y613164D01*
X39877Y613164D01*
G37*
%LPD*%
%LPC*%
G36*
X79764Y428497D02*
X79764Y428497D01*
X79764Y430785D01*
X79937Y431431D01*
X80272Y432010D01*
X80745Y432483D01*
X81324Y432818D01*
X81970Y432991D01*
X86758Y432991D01*
X86758Y428497D01*
X79764Y428497D01*
G37*
%LPD*%
%LPC*%
G36*
X42934Y201167D02*
X42934Y201167D01*
X42934Y203455D01*
X43107Y204101D01*
X43442Y204680D01*
X43915Y205153D01*
X44494Y205488D01*
X45140Y205661D01*
X49928Y205661D01*
X49928Y201167D01*
X42934Y201167D01*
G37*
%LPD*%
%LPC*%
G36*
X81970Y417909D02*
X81970Y417909D01*
X81324Y418082D01*
X80745Y418417D01*
X80272Y418890D01*
X79937Y419469D01*
X79764Y420115D01*
X79764Y422403D01*
X86758Y422403D01*
X86758Y417909D01*
X81970Y417909D01*
G37*
%LPD*%
%LPC*%
G36*
X31495Y613164D02*
X31495Y613164D01*
X30849Y613337D01*
X30270Y613672D01*
X29797Y614145D01*
X29462Y614724D01*
X29289Y615370D01*
X29289Y620158D01*
X33783Y620158D01*
X33783Y613164D01*
X31495Y613164D01*
G37*
%LPD*%
%LPC*%
G36*
X45140Y190579D02*
X45140Y190579D01*
X44494Y190752D01*
X43915Y191087D01*
X43442Y191560D01*
X43107Y192139D01*
X42934Y192785D01*
X42934Y195073D01*
X49928Y195073D01*
X49928Y190579D01*
X45140Y190579D01*
G37*
%LPD*%
%LPC*%
G36*
X153599Y582167D02*
X153599Y582167D01*
X153599Y583455D01*
X153772Y584101D01*
X154107Y584680D01*
X154580Y585153D01*
X155159Y585488D01*
X155805Y585661D01*
X157093Y585661D01*
X157093Y582167D01*
X153599Y582167D01*
G37*
%LPD*%
%LPC*%
G36*
X155805Y572579D02*
X155805Y572579D01*
X155159Y572752D01*
X154580Y573087D01*
X154107Y573560D01*
X153772Y574139D01*
X153599Y574785D01*
X153599Y576073D01*
X157093Y576073D01*
X157093Y572579D01*
X155805Y572579D01*
G37*
%LPD*%
D10*
X160140Y579120D03*
X175140Y579120D03*
D11*
X298260Y849630D02*
X311340Y849630D01*
X311340Y824230D02*
X298260Y824230D01*
X298260Y798830D02*
X311340Y798830D01*
X311340Y773430D02*
X298260Y773430D01*
X298260Y748030D02*
X311340Y748030D01*
X311340Y722630D02*
X298260Y722630D01*
X298260Y697230D02*
X311340Y697230D01*
X311340Y671830D02*
X298260Y671830D01*
X298260Y646430D02*
X311340Y646430D01*
X311340Y621030D02*
X298260Y621030D01*
X298260Y595630D02*
X311340Y595630D01*
X311340Y570230D02*
X298260Y570230D01*
X298260Y544830D02*
X311340Y544830D01*
X311340Y519430D02*
X298260Y519430D01*
X298260Y494030D02*
X311340Y494030D01*
X311340Y468630D02*
X298260Y468630D01*
X298260Y443230D02*
X311340Y443230D01*
X311340Y417830D02*
X298260Y417830D01*
X298260Y392430D02*
X311340Y392430D01*
X311340Y367030D02*
X298260Y367030D01*
X298260Y341630D02*
X311340Y341630D01*
X311340Y316230D02*
X298260Y316230D01*
X298260Y290830D02*
X311340Y290830D01*
X311340Y265430D02*
X298260Y265430D01*
X298260Y240030D02*
X311340Y240030D01*
X311340Y214630D02*
X298260Y214630D01*
X298260Y189230D02*
X311340Y189230D01*
X311340Y163830D02*
X298260Y163830D01*
X298260Y138430D02*
X311340Y138430D01*
X311340Y113030D02*
X298260Y113030D01*
X298260Y87630D02*
X311340Y87630D01*
X311340Y62230D02*
X298260Y62230D01*
X298260Y36830D02*
X311340Y36830D01*
D12*
X55060Y120200D03*
X117660Y120200D03*
X55060Y57600D03*
X117660Y57600D03*
D13*
X86360Y88900D03*
D12*
X55060Y341180D03*
X117660Y341180D03*
X55060Y278580D03*
X117660Y278580D03*
D13*
X86360Y309880D03*
D12*
X55060Y546920D03*
X117660Y546920D03*
X55060Y484320D03*
X117660Y484320D03*
D13*
X86360Y515620D03*
D14*
X60720Y853410D03*
X45720Y853410D03*
X30720Y853410D03*
D15*
X60720Y814410D03*
X45720Y814410D03*
X30720Y814410D03*
D16*
X113021Y403970D03*
X96021Y403970D03*
D17*
X58030Y646556D03*
X58030Y629556D03*
D16*
X108884Y197807D03*
X91884Y197807D03*
D18*
X36830Y623205D03*
X36830Y644255D03*
D19*
X89805Y425450D03*
X110855Y425450D03*
X52975Y198120D03*
X74025Y198120D03*
D20*
X187960Y337820D02*
X203200Y337820D01*
X203200Y312420D02*
X187960Y312420D01*
X187960Y287020D02*
X203200Y287020D01*
X203200Y261620D02*
X187960Y261620D01*
X187960Y236220D02*
X203200Y236220D01*
X203200Y210820D02*
X187960Y210820D01*
X187960Y185420D02*
X203200Y185420D01*
X203200Y160020D02*
X187960Y160020D01*
D21*
X195580Y637740D03*
X195580Y746760D03*
D22*
X195580Y637740D01*
D23*
X199390Y316230D02*
X304800Y316230D01*
X199390Y316230D02*
X195580Y312420D01*
D21*
X236220Y596900D03*
D22*
X236220Y657860D02*
X243840Y665480D01*
D21*
X243840Y665480D03*
D23*
X199390Y265430D02*
X304800Y265430D01*
X199390Y265430D02*
X195580Y261620D01*
X236220Y596900D02*
X236220Y657860D01*
X199390Y290830D02*
X195580Y287020D01*
X199390Y290830D02*
X304800Y290830D01*
X304800Y240030D02*
X199390Y240030D01*
X195580Y236220D01*
X267970Y367030D02*
X304800Y367030D01*
X267970Y367030D02*
X238760Y337820D01*
X195580Y337820D01*
X199390Y214630D02*
X195580Y210820D01*
X199390Y214630D02*
X304800Y214630D01*
X303530Y187960D02*
X198120Y187960D01*
X195580Y185420D01*
X303530Y187960D02*
X304800Y189230D01*
D21*
X147320Y579120D03*
D23*
X160140Y579120D01*
D21*
X289560Y835660D03*
X71120Y749300D03*
X86360Y58420D03*
X281940Y48260D03*
X180340Y619760D03*
X114300Y619760D03*
X279400Y657860D03*
X279400Y713740D03*
X17780Y774700D03*
X91440Y469900D03*
X111760Y370840D03*
X195580Y365760D03*
X17780Y731520D03*
X17780Y693420D03*
X17780Y660400D03*
X17780Y629920D03*
X17780Y599440D03*
X16510Y535940D03*
X190500Y464820D03*
X17780Y490220D03*
X17780Y457200D03*
X17780Y424180D03*
X17780Y398780D03*
X66040Y431800D03*
X17780Y360680D03*
X134620Y381000D03*
X17780Y314960D03*
X17780Y271780D03*
X17780Y231140D03*
X17780Y190500D03*
X17780Y147320D03*
X53340Y213360D03*
X109220Y218016D03*
X20320Y88900D03*
X20320Y17780D03*
X185420Y22860D03*
X337820Y27940D03*
X340360Y231140D03*
X256540Y226060D03*
X228600Y251460D03*
X220980Y276860D03*
X135890Y311150D03*
X175260Y325120D03*
X281940Y429260D03*
X279400Y391160D03*
X281940Y497840D03*
X281940Y541020D03*
X185100Y558154D03*
X200660Y520700D03*
X116840Y683260D03*
X182880Y746760D03*
X210820Y749300D03*
X210820Y718820D03*
X170180Y721360D03*
X180340Y850900D03*
X139700Y850900D03*
X175260Y817880D03*
X220980Y850900D03*
X274320Y810260D03*
X340360Y871220D03*
X337820Y774700D03*
X104140Y853440D03*
X88900Y835660D03*
X99060Y642620D03*
X226060Y518160D03*
X327660Y358140D03*
X322580Y276860D03*
X287020Y254000D03*
X289560Y279400D03*
X289560Y304800D03*
X322580Y256540D03*
X254000Y637540D03*
X111760Y767080D03*
X119380Y718820D03*
X172720Y784860D03*
X50800Y772160D03*
X72390Y765810D03*
X320040Y609600D03*
X320040Y508000D03*
X322580Y205740D03*
X254000Y121920D03*
D22*
X89805Y425450D02*
X72390Y425450D01*
X66040Y431800D01*
X117660Y549460D02*
X147320Y579120D01*
X117660Y549460D02*
X117660Y546920D01*
X36830Y623205D02*
X17780Y604155D01*
X17780Y599440D01*
D21*
X36830Y662940D03*
D22*
X36830Y644255D02*
X55729Y644255D01*
X58030Y646556D01*
X36830Y644255D02*
X36830Y662940D01*
D21*
X187960Y579120D03*
D23*
X175140Y579120D01*
D22*
X128160Y403970D02*
X128270Y403860D01*
X128160Y403970D02*
X113021Y403970D01*
D21*
X128270Y403860D03*
D22*
X113021Y423284D02*
X110855Y425450D01*
X113021Y423284D02*
X113021Y403970D01*
X108884Y197807D02*
X126687Y197807D01*
X127000Y198120D01*
D21*
X127000Y198120D03*
D22*
X101305Y211657D02*
X81194Y211657D01*
X108884Y204077D02*
X108884Y197807D01*
X108884Y204077D02*
X101305Y211657D01*
X81194Y211657D02*
X74025Y204488D01*
X74025Y198120D01*
D23*
X60720Y814410D02*
X60720Y853410D01*
X60720Y814410D02*
X60960Y814170D01*
X60960Y795020D01*
D21*
X60960Y795020D03*
D23*
X30720Y814410D02*
X30720Y853410D01*
X30720Y814410D02*
X30720Y795260D01*
X30480Y795020D01*
D21*
X30480Y795020D03*
D23*
X45720Y814410D02*
X45720Y853410D01*
X45720Y814410D02*
X45720Y795020D01*
D21*
X45720Y795020D03*
D22*
X58030Y624476D02*
X86360Y596146D01*
X58030Y624476D02*
X58030Y629556D01*
X86360Y596146D02*
X86360Y515620D01*
X96021Y403970D02*
X96021Y319090D01*
X86810Y309880D01*
X86360Y309880D01*
X91884Y197807D02*
X91884Y94424D01*
X86360Y88900D01*
M02*
