G04 EAGLE Gerber RS-274X export*
G75*
%MOMM*%
%FSLAX34Y34*%
%LPD*%
%INSilkscreen Top*%
%IPPOS*%
%AMOC8*
5,1,8,0,0,1.08239X$1,22.5*%
G01*
%ADD10C,0.127000*%
%ADD11C,0.076200*%
%ADD12C,0.101600*%
%ADD13R,0.250000X0.225000*%
%ADD14C,0.200000*%
%ADD15C,0.152400*%


D10*
X244252Y849494D02*
X253405Y849494D01*
X248828Y844918D02*
X248828Y854071D01*
X259414Y844155D02*
X263228Y844155D01*
X263350Y844157D01*
X263472Y844163D01*
X263594Y844173D01*
X263716Y844186D01*
X263837Y844204D01*
X263957Y844225D01*
X264077Y844251D01*
X264195Y844280D01*
X264313Y844313D01*
X264430Y844349D01*
X264545Y844390D01*
X264659Y844434D01*
X264772Y844481D01*
X264883Y844533D01*
X264992Y844588D01*
X265100Y844646D01*
X265205Y844707D01*
X265309Y844773D01*
X265410Y844841D01*
X265509Y844912D01*
X265606Y844987D01*
X265700Y845065D01*
X265792Y845146D01*
X265881Y845229D01*
X265968Y845316D01*
X266051Y845405D01*
X266132Y845497D01*
X266210Y845591D01*
X266285Y845688D01*
X266356Y845787D01*
X266424Y845888D01*
X266490Y845992D01*
X266551Y846097D01*
X266609Y846205D01*
X266664Y846314D01*
X266716Y846425D01*
X266763Y846538D01*
X266807Y846652D01*
X266848Y846767D01*
X266884Y846884D01*
X266917Y847002D01*
X266946Y847120D01*
X266972Y847240D01*
X266993Y847360D01*
X267011Y847481D01*
X267024Y847603D01*
X267034Y847725D01*
X267040Y847847D01*
X267042Y847969D01*
X267040Y848091D01*
X267034Y848213D01*
X267024Y848335D01*
X267011Y848457D01*
X266993Y848578D01*
X266972Y848698D01*
X266946Y848818D01*
X266917Y848936D01*
X266884Y849054D01*
X266848Y849171D01*
X266807Y849286D01*
X266763Y849400D01*
X266716Y849513D01*
X266664Y849624D01*
X266609Y849733D01*
X266551Y849841D01*
X266490Y849946D01*
X266424Y850050D01*
X266356Y850151D01*
X266285Y850250D01*
X266210Y850347D01*
X266132Y850441D01*
X266051Y850533D01*
X265968Y850622D01*
X265881Y850709D01*
X265792Y850792D01*
X265700Y850873D01*
X265606Y850951D01*
X265509Y851026D01*
X265410Y851097D01*
X265309Y851165D01*
X265205Y851231D01*
X265100Y851292D01*
X264992Y851350D01*
X264883Y851405D01*
X264772Y851457D01*
X264659Y851504D01*
X264545Y851548D01*
X264430Y851589D01*
X264313Y851625D01*
X264195Y851658D01*
X264077Y851687D01*
X263957Y851713D01*
X263837Y851734D01*
X263716Y851752D01*
X263594Y851765D01*
X263472Y851775D01*
X263350Y851781D01*
X263228Y851783D01*
X263991Y857885D02*
X259414Y857885D01*
X263991Y857885D02*
X264100Y857883D01*
X264209Y857877D01*
X264317Y857868D01*
X264425Y857854D01*
X264533Y857837D01*
X264640Y857815D01*
X264746Y857790D01*
X264851Y857761D01*
X264955Y857729D01*
X265057Y857693D01*
X265159Y857653D01*
X265258Y857609D01*
X265357Y857562D01*
X265453Y857512D01*
X265548Y857458D01*
X265640Y857401D01*
X265731Y857340D01*
X265819Y857276D01*
X265905Y857210D01*
X265989Y857140D01*
X266070Y857067D01*
X266148Y856991D01*
X266224Y856913D01*
X266297Y856832D01*
X266367Y856748D01*
X266433Y856662D01*
X266497Y856574D01*
X266558Y856483D01*
X266615Y856391D01*
X266669Y856296D01*
X266719Y856200D01*
X266766Y856101D01*
X266810Y856002D01*
X266850Y855900D01*
X266886Y855798D01*
X266918Y855694D01*
X266947Y855589D01*
X266972Y855483D01*
X266994Y855376D01*
X267011Y855268D01*
X267025Y855160D01*
X267034Y855052D01*
X267040Y854943D01*
X267042Y854834D01*
X267040Y854725D01*
X267034Y854616D01*
X267025Y854508D01*
X267011Y854400D01*
X266994Y854292D01*
X266972Y854185D01*
X266947Y854079D01*
X266918Y853974D01*
X266886Y853870D01*
X266850Y853768D01*
X266810Y853666D01*
X266766Y853567D01*
X266719Y853468D01*
X266669Y853372D01*
X266615Y853277D01*
X266558Y853185D01*
X266497Y853094D01*
X266433Y853006D01*
X266367Y852920D01*
X266297Y852836D01*
X266224Y852755D01*
X266148Y852677D01*
X266070Y852601D01*
X265989Y852528D01*
X265905Y852458D01*
X265819Y852392D01*
X265731Y852328D01*
X265640Y852267D01*
X265548Y852210D01*
X265453Y852156D01*
X265357Y852106D01*
X265258Y852059D01*
X265159Y852015D01*
X265057Y851975D01*
X264955Y851939D01*
X264851Y851907D01*
X264746Y851878D01*
X264640Y851853D01*
X264533Y851831D01*
X264425Y851814D01*
X264317Y851800D01*
X264209Y851791D01*
X264100Y851785D01*
X263991Y851783D01*
X260940Y851783D01*
X272152Y857885D02*
X276728Y844155D01*
X281305Y857885D01*
X252505Y826383D02*
X250217Y826383D01*
X252505Y826383D02*
X252505Y818755D01*
X247928Y818755D01*
X247819Y818757D01*
X247710Y818763D01*
X247602Y818772D01*
X247494Y818786D01*
X247386Y818803D01*
X247279Y818825D01*
X247173Y818850D01*
X247068Y818879D01*
X246964Y818911D01*
X246862Y818947D01*
X246760Y818987D01*
X246661Y819031D01*
X246562Y819078D01*
X246466Y819128D01*
X246371Y819182D01*
X246279Y819239D01*
X246188Y819300D01*
X246100Y819364D01*
X246014Y819430D01*
X245930Y819500D01*
X245849Y819573D01*
X245771Y819649D01*
X245695Y819727D01*
X245622Y819808D01*
X245552Y819892D01*
X245486Y819978D01*
X245422Y820066D01*
X245361Y820157D01*
X245304Y820249D01*
X245250Y820344D01*
X245200Y820440D01*
X245153Y820539D01*
X245109Y820638D01*
X245069Y820740D01*
X245033Y820842D01*
X245001Y820946D01*
X244972Y821051D01*
X244947Y821157D01*
X244925Y821264D01*
X244908Y821372D01*
X244894Y821480D01*
X244885Y821588D01*
X244879Y821697D01*
X244877Y821806D01*
X244877Y829434D01*
X244879Y829543D01*
X244885Y829652D01*
X244894Y829760D01*
X244908Y829868D01*
X244925Y829976D01*
X244947Y830083D01*
X244972Y830189D01*
X245001Y830294D01*
X245033Y830397D01*
X245069Y830500D01*
X245109Y830602D01*
X245153Y830701D01*
X245200Y830800D01*
X245250Y830896D01*
X245304Y830991D01*
X245361Y831083D01*
X245422Y831174D01*
X245486Y831262D01*
X245552Y831348D01*
X245622Y831432D01*
X245695Y831513D01*
X245771Y831591D01*
X245849Y831667D01*
X245930Y831740D01*
X246014Y831810D01*
X246100Y831876D01*
X246188Y831940D01*
X246278Y832001D01*
X246371Y832058D01*
X246466Y832112D01*
X246562Y832162D01*
X246661Y832209D01*
X246760Y832253D01*
X246862Y832293D01*
X246964Y832329D01*
X247068Y832361D01*
X247173Y832390D01*
X247279Y832415D01*
X247386Y832437D01*
X247494Y832454D01*
X247602Y832468D01*
X247710Y832477D01*
X247819Y832483D01*
X247928Y832485D01*
X252505Y832485D01*
X259277Y832485D02*
X259277Y818755D01*
X266905Y818755D02*
X259277Y832485D01*
X266905Y832485D02*
X266905Y818755D01*
X273677Y818755D02*
X273677Y832485D01*
X277491Y832485D01*
X277613Y832483D01*
X277735Y832477D01*
X277857Y832467D01*
X277979Y832454D01*
X278100Y832436D01*
X278220Y832415D01*
X278340Y832389D01*
X278458Y832360D01*
X278576Y832327D01*
X278693Y832291D01*
X278808Y832250D01*
X278922Y832206D01*
X279035Y832159D01*
X279146Y832107D01*
X279255Y832052D01*
X279363Y831994D01*
X279468Y831933D01*
X279572Y831867D01*
X279673Y831799D01*
X279772Y831728D01*
X279869Y831653D01*
X279963Y831575D01*
X280055Y831494D01*
X280144Y831411D01*
X280231Y831324D01*
X280314Y831235D01*
X280395Y831143D01*
X280473Y831049D01*
X280548Y830952D01*
X280619Y830853D01*
X280687Y830752D01*
X280753Y830648D01*
X280814Y830543D01*
X280872Y830435D01*
X280927Y830326D01*
X280979Y830215D01*
X281026Y830102D01*
X281070Y829988D01*
X281111Y829873D01*
X281147Y829756D01*
X281180Y829638D01*
X281209Y829520D01*
X281235Y829400D01*
X281256Y829280D01*
X281274Y829159D01*
X281287Y829037D01*
X281297Y828915D01*
X281303Y828793D01*
X281305Y828671D01*
X281305Y822569D01*
X281303Y822447D01*
X281297Y822325D01*
X281287Y822203D01*
X281274Y822081D01*
X281256Y821960D01*
X281235Y821840D01*
X281209Y821720D01*
X281180Y821602D01*
X281147Y821484D01*
X281111Y821367D01*
X281070Y821252D01*
X281026Y821138D01*
X280979Y821025D01*
X280927Y820914D01*
X280872Y820805D01*
X280814Y820697D01*
X280753Y820592D01*
X280687Y820488D01*
X280619Y820387D01*
X280548Y820288D01*
X280473Y820191D01*
X280395Y820097D01*
X280314Y820005D01*
X280231Y819916D01*
X280144Y819829D01*
X280055Y819746D01*
X279963Y819665D01*
X279869Y819587D01*
X279772Y819512D01*
X279673Y819441D01*
X279572Y819373D01*
X279468Y819307D01*
X279363Y819246D01*
X279255Y819188D01*
X279146Y819133D01*
X279035Y819081D01*
X278922Y819034D01*
X278808Y818990D01*
X278693Y818949D01*
X278576Y818913D01*
X278458Y818880D01*
X278340Y818851D01*
X278220Y818825D01*
X278100Y818804D01*
X277979Y818786D01*
X277857Y818773D01*
X277735Y818763D01*
X277613Y818757D01*
X277491Y818755D01*
X273677Y818755D01*
X213995Y192165D02*
X213995Y178435D01*
X213995Y192165D02*
X217809Y192165D01*
X217931Y192163D01*
X218053Y192157D01*
X218175Y192147D01*
X218297Y192134D01*
X218418Y192116D01*
X218538Y192095D01*
X218658Y192069D01*
X218776Y192040D01*
X218894Y192007D01*
X219011Y191971D01*
X219126Y191930D01*
X219240Y191886D01*
X219353Y191839D01*
X219464Y191787D01*
X219573Y191732D01*
X219681Y191674D01*
X219786Y191613D01*
X219890Y191547D01*
X219991Y191479D01*
X220090Y191408D01*
X220187Y191333D01*
X220281Y191255D01*
X220373Y191174D01*
X220462Y191091D01*
X220549Y191004D01*
X220632Y190915D01*
X220713Y190823D01*
X220791Y190729D01*
X220866Y190632D01*
X220937Y190533D01*
X221005Y190432D01*
X221071Y190328D01*
X221132Y190223D01*
X221190Y190115D01*
X221245Y190006D01*
X221297Y189895D01*
X221344Y189782D01*
X221388Y189668D01*
X221429Y189553D01*
X221465Y189436D01*
X221498Y189318D01*
X221527Y189200D01*
X221553Y189080D01*
X221574Y188960D01*
X221592Y188839D01*
X221605Y188717D01*
X221615Y188595D01*
X221621Y188473D01*
X221623Y188351D01*
X221623Y182249D01*
X221621Y182127D01*
X221615Y182005D01*
X221605Y181883D01*
X221592Y181761D01*
X221574Y181640D01*
X221553Y181520D01*
X221527Y181400D01*
X221498Y181282D01*
X221465Y181164D01*
X221429Y181047D01*
X221388Y180932D01*
X221344Y180818D01*
X221297Y180705D01*
X221245Y180594D01*
X221190Y180485D01*
X221132Y180377D01*
X221071Y180272D01*
X221005Y180168D01*
X220937Y180067D01*
X220866Y179968D01*
X220791Y179871D01*
X220713Y179777D01*
X220632Y179685D01*
X220549Y179596D01*
X220462Y179509D01*
X220373Y179426D01*
X220281Y179345D01*
X220187Y179267D01*
X220090Y179192D01*
X219991Y179121D01*
X219890Y179053D01*
X219786Y178987D01*
X219681Y178926D01*
X219573Y178868D01*
X219464Y178813D01*
X219353Y178761D01*
X219240Y178714D01*
X219126Y178670D01*
X219011Y178629D01*
X218894Y178593D01*
X218776Y178560D01*
X218658Y178531D01*
X218538Y178505D01*
X218418Y178484D01*
X218297Y178466D01*
X218175Y178453D01*
X218053Y178443D01*
X217931Y178437D01*
X217809Y178435D01*
X213995Y178435D01*
X228484Y178435D02*
X228484Y192165D01*
X232298Y192165D01*
X232420Y192163D01*
X232542Y192157D01*
X232664Y192147D01*
X232786Y192134D01*
X232907Y192116D01*
X233027Y192095D01*
X233147Y192069D01*
X233265Y192040D01*
X233383Y192007D01*
X233500Y191971D01*
X233615Y191930D01*
X233729Y191886D01*
X233842Y191839D01*
X233953Y191787D01*
X234062Y191732D01*
X234170Y191674D01*
X234275Y191613D01*
X234379Y191547D01*
X234480Y191479D01*
X234579Y191408D01*
X234676Y191333D01*
X234770Y191255D01*
X234862Y191174D01*
X234951Y191091D01*
X235038Y191004D01*
X235121Y190915D01*
X235202Y190823D01*
X235280Y190729D01*
X235355Y190632D01*
X235426Y190533D01*
X235494Y190432D01*
X235560Y190328D01*
X235621Y190223D01*
X235679Y190115D01*
X235734Y190006D01*
X235786Y189895D01*
X235833Y189782D01*
X235877Y189668D01*
X235918Y189553D01*
X235954Y189436D01*
X235987Y189318D01*
X236016Y189200D01*
X236042Y189080D01*
X236063Y188960D01*
X236081Y188839D01*
X236094Y188717D01*
X236104Y188595D01*
X236110Y188473D01*
X236112Y188351D01*
X236110Y188229D01*
X236104Y188107D01*
X236094Y187985D01*
X236081Y187863D01*
X236063Y187742D01*
X236042Y187622D01*
X236016Y187502D01*
X235987Y187384D01*
X235954Y187266D01*
X235918Y187149D01*
X235877Y187034D01*
X235833Y186920D01*
X235786Y186807D01*
X235734Y186696D01*
X235679Y186587D01*
X235621Y186479D01*
X235560Y186374D01*
X235494Y186270D01*
X235426Y186169D01*
X235355Y186070D01*
X235280Y185973D01*
X235202Y185879D01*
X235121Y185787D01*
X235038Y185698D01*
X234951Y185611D01*
X234862Y185528D01*
X234770Y185447D01*
X234676Y185369D01*
X234579Y185294D01*
X234480Y185223D01*
X234379Y185155D01*
X234275Y185089D01*
X234170Y185028D01*
X234062Y184970D01*
X233953Y184915D01*
X233842Y184863D01*
X233729Y184816D01*
X233615Y184772D01*
X233500Y184731D01*
X233383Y184695D01*
X233265Y184662D01*
X233147Y184633D01*
X233027Y184607D01*
X232907Y184586D01*
X232786Y184568D01*
X232664Y184555D01*
X232542Y184545D01*
X232420Y184539D01*
X232298Y184537D01*
X228484Y184537D01*
X233061Y184537D02*
X236112Y178435D01*
X242345Y178435D02*
X242345Y192165D01*
X246159Y192165D01*
X246281Y192163D01*
X246403Y192157D01*
X246525Y192147D01*
X246647Y192134D01*
X246768Y192116D01*
X246888Y192095D01*
X247008Y192069D01*
X247126Y192040D01*
X247244Y192007D01*
X247361Y191971D01*
X247476Y191930D01*
X247590Y191886D01*
X247703Y191839D01*
X247814Y191787D01*
X247923Y191732D01*
X248031Y191674D01*
X248136Y191613D01*
X248240Y191547D01*
X248341Y191479D01*
X248440Y191408D01*
X248537Y191333D01*
X248631Y191255D01*
X248723Y191174D01*
X248812Y191091D01*
X248899Y191004D01*
X248982Y190915D01*
X249063Y190823D01*
X249141Y190729D01*
X249216Y190632D01*
X249287Y190533D01*
X249355Y190432D01*
X249421Y190328D01*
X249482Y190223D01*
X249540Y190115D01*
X249595Y190006D01*
X249647Y189895D01*
X249694Y189782D01*
X249738Y189668D01*
X249779Y189553D01*
X249815Y189436D01*
X249848Y189318D01*
X249877Y189200D01*
X249903Y189080D01*
X249924Y188960D01*
X249942Y188839D01*
X249955Y188717D01*
X249965Y188595D01*
X249971Y188473D01*
X249973Y188351D01*
X249973Y182249D01*
X249971Y182127D01*
X249965Y182005D01*
X249955Y181883D01*
X249942Y181761D01*
X249924Y181640D01*
X249903Y181520D01*
X249877Y181400D01*
X249848Y181282D01*
X249815Y181164D01*
X249779Y181047D01*
X249738Y180932D01*
X249694Y180818D01*
X249647Y180705D01*
X249595Y180594D01*
X249540Y180485D01*
X249482Y180377D01*
X249421Y180272D01*
X249355Y180168D01*
X249287Y180067D01*
X249216Y179968D01*
X249141Y179871D01*
X249063Y179777D01*
X248982Y179685D01*
X248899Y179596D01*
X248812Y179509D01*
X248723Y179426D01*
X248631Y179345D01*
X248537Y179267D01*
X248440Y179192D01*
X248341Y179121D01*
X248240Y179053D01*
X248136Y178987D01*
X248031Y178926D01*
X247923Y178868D01*
X247814Y178813D01*
X247703Y178761D01*
X247590Y178714D01*
X247476Y178670D01*
X247361Y178629D01*
X247244Y178593D01*
X247126Y178560D01*
X247008Y178531D01*
X246888Y178505D01*
X246768Y178484D01*
X246647Y178466D01*
X246525Y178453D01*
X246403Y178443D01*
X246281Y178437D01*
X246159Y178435D01*
X242345Y178435D01*
X255532Y192165D02*
X260109Y185681D01*
X264686Y192165D01*
X260109Y185681D02*
X260109Y178435D01*
X216535Y205105D02*
X216535Y218835D01*
X220349Y218835D01*
X220471Y218833D01*
X220593Y218827D01*
X220715Y218817D01*
X220837Y218804D01*
X220958Y218786D01*
X221078Y218765D01*
X221198Y218739D01*
X221316Y218710D01*
X221434Y218677D01*
X221551Y218641D01*
X221666Y218600D01*
X221780Y218556D01*
X221893Y218509D01*
X222004Y218457D01*
X222113Y218402D01*
X222221Y218344D01*
X222326Y218283D01*
X222430Y218217D01*
X222531Y218149D01*
X222630Y218078D01*
X222727Y218003D01*
X222821Y217925D01*
X222913Y217844D01*
X223002Y217761D01*
X223089Y217674D01*
X223172Y217585D01*
X223253Y217493D01*
X223331Y217399D01*
X223406Y217302D01*
X223477Y217203D01*
X223545Y217102D01*
X223611Y216998D01*
X223672Y216893D01*
X223730Y216785D01*
X223785Y216676D01*
X223837Y216565D01*
X223884Y216452D01*
X223928Y216338D01*
X223969Y216223D01*
X224005Y216106D01*
X224038Y215988D01*
X224067Y215870D01*
X224093Y215750D01*
X224114Y215630D01*
X224132Y215509D01*
X224145Y215387D01*
X224155Y215265D01*
X224161Y215143D01*
X224163Y215021D01*
X224161Y214899D01*
X224155Y214777D01*
X224145Y214655D01*
X224132Y214533D01*
X224114Y214412D01*
X224093Y214292D01*
X224067Y214172D01*
X224038Y214054D01*
X224005Y213936D01*
X223969Y213819D01*
X223928Y213704D01*
X223884Y213590D01*
X223837Y213477D01*
X223785Y213366D01*
X223730Y213257D01*
X223672Y213149D01*
X223611Y213044D01*
X223545Y212940D01*
X223477Y212839D01*
X223406Y212740D01*
X223331Y212643D01*
X223253Y212549D01*
X223172Y212457D01*
X223089Y212368D01*
X223002Y212281D01*
X222913Y212198D01*
X222821Y212117D01*
X222727Y212039D01*
X222630Y211964D01*
X222531Y211893D01*
X222430Y211825D01*
X222326Y211759D01*
X222221Y211698D01*
X222113Y211640D01*
X222004Y211585D01*
X221893Y211533D01*
X221780Y211486D01*
X221666Y211442D01*
X221551Y211401D01*
X221434Y211365D01*
X221316Y211332D01*
X221198Y211303D01*
X221078Y211277D01*
X220958Y211256D01*
X220837Y211238D01*
X220715Y211225D01*
X220593Y211215D01*
X220471Y211209D01*
X220349Y211207D01*
X216535Y211207D01*
X221112Y211207D02*
X224163Y205105D01*
X230423Y205105D02*
X236525Y205105D01*
X230423Y205105D02*
X230423Y218835D01*
X236525Y218835D01*
X235000Y212733D02*
X230423Y212733D01*
X245772Y205105D02*
X245881Y205107D01*
X245990Y205113D01*
X246098Y205122D01*
X246206Y205136D01*
X246314Y205153D01*
X246421Y205175D01*
X246527Y205200D01*
X246632Y205229D01*
X246736Y205261D01*
X246838Y205297D01*
X246940Y205337D01*
X247039Y205381D01*
X247138Y205428D01*
X247234Y205478D01*
X247329Y205532D01*
X247422Y205589D01*
X247512Y205650D01*
X247600Y205714D01*
X247686Y205780D01*
X247770Y205850D01*
X247851Y205923D01*
X247929Y205999D01*
X248005Y206077D01*
X248078Y206158D01*
X248148Y206242D01*
X248214Y206328D01*
X248278Y206416D01*
X248339Y206507D01*
X248396Y206599D01*
X248450Y206694D01*
X248500Y206790D01*
X248547Y206889D01*
X248591Y206988D01*
X248631Y207090D01*
X248667Y207193D01*
X248699Y207296D01*
X248728Y207401D01*
X248753Y207507D01*
X248775Y207614D01*
X248792Y207722D01*
X248806Y207830D01*
X248815Y207938D01*
X248821Y208047D01*
X248823Y208156D01*
X245772Y205105D02*
X245613Y205107D01*
X245454Y205113D01*
X245295Y205123D01*
X245137Y205136D01*
X244979Y205154D01*
X244821Y205175D01*
X244664Y205201D01*
X244508Y205230D01*
X244353Y205263D01*
X244198Y205300D01*
X244044Y205341D01*
X243891Y205385D01*
X243740Y205434D01*
X243590Y205486D01*
X243441Y205541D01*
X243293Y205601D01*
X243147Y205664D01*
X243003Y205730D01*
X242860Y205800D01*
X242719Y205874D01*
X242580Y205951D01*
X242443Y206031D01*
X242308Y206115D01*
X242175Y206202D01*
X242044Y206293D01*
X241915Y206386D01*
X241789Y206483D01*
X241665Y206583D01*
X241544Y206686D01*
X241425Y206792D01*
X241309Y206900D01*
X241196Y207012D01*
X241577Y215784D02*
X241579Y215893D01*
X241585Y216002D01*
X241594Y216110D01*
X241608Y216218D01*
X241625Y216326D01*
X241647Y216433D01*
X241672Y216539D01*
X241701Y216644D01*
X241733Y216748D01*
X241769Y216850D01*
X241809Y216952D01*
X241853Y217051D01*
X241900Y217150D01*
X241950Y217246D01*
X242004Y217341D01*
X242061Y217433D01*
X242122Y217524D01*
X242186Y217612D01*
X242252Y217698D01*
X242322Y217782D01*
X242395Y217863D01*
X242471Y217941D01*
X242549Y218017D01*
X242630Y218090D01*
X242714Y218160D01*
X242800Y218226D01*
X242888Y218290D01*
X242979Y218351D01*
X243071Y218408D01*
X243166Y218462D01*
X243262Y218512D01*
X243361Y218559D01*
X243460Y218603D01*
X243562Y218643D01*
X243664Y218679D01*
X243768Y218711D01*
X243873Y218740D01*
X243979Y218765D01*
X244086Y218787D01*
X244194Y218804D01*
X244302Y218818D01*
X244410Y218827D01*
X244519Y218833D01*
X244628Y218835D01*
X244775Y218833D01*
X244922Y218827D01*
X245069Y218818D01*
X245216Y218805D01*
X245362Y218788D01*
X245508Y218767D01*
X245653Y218742D01*
X245798Y218714D01*
X245942Y218682D01*
X246084Y218647D01*
X246226Y218607D01*
X246367Y218564D01*
X246507Y218518D01*
X246645Y218468D01*
X246782Y218414D01*
X246918Y218357D01*
X247052Y218296D01*
X247185Y218232D01*
X247316Y218164D01*
X247445Y218093D01*
X247572Y218019D01*
X247697Y217942D01*
X247821Y217861D01*
X247942Y217778D01*
X248061Y217691D01*
X243103Y213114D02*
X243008Y213172D01*
X242916Y213234D01*
X242825Y213298D01*
X242738Y213366D01*
X242652Y213437D01*
X242570Y213511D01*
X242490Y213588D01*
X242412Y213667D01*
X242338Y213750D01*
X242267Y213835D01*
X242199Y213922D01*
X242134Y214012D01*
X242072Y214104D01*
X242013Y214199D01*
X241958Y214295D01*
X241907Y214393D01*
X241859Y214493D01*
X241814Y214595D01*
X241774Y214698D01*
X241736Y214803D01*
X241703Y214908D01*
X241674Y215015D01*
X241648Y215123D01*
X241627Y215232D01*
X241609Y215342D01*
X241595Y215452D01*
X241585Y215562D01*
X241579Y215673D01*
X241577Y215784D01*
X247297Y210826D02*
X247392Y210768D01*
X247484Y210706D01*
X247575Y210642D01*
X247662Y210574D01*
X247748Y210503D01*
X247830Y210429D01*
X247910Y210352D01*
X247988Y210273D01*
X248062Y210190D01*
X248133Y210105D01*
X248201Y210018D01*
X248266Y209928D01*
X248328Y209836D01*
X248387Y209741D01*
X248442Y209645D01*
X248493Y209547D01*
X248541Y209447D01*
X248586Y209345D01*
X248626Y209242D01*
X248664Y209137D01*
X248697Y209032D01*
X248726Y208925D01*
X248752Y208817D01*
X248773Y208708D01*
X248791Y208598D01*
X248805Y208488D01*
X248815Y208378D01*
X248821Y208267D01*
X248823Y208156D01*
X247298Y210826D02*
X243102Y213114D01*
X254723Y205105D02*
X260825Y205105D01*
X254723Y205105D02*
X254723Y218835D01*
X260825Y218835D01*
X259300Y212733D02*
X254723Y212733D01*
X268859Y218835D02*
X268859Y205105D01*
X265045Y218835D02*
X272673Y218835D01*
X222893Y233556D02*
X222891Y233447D01*
X222885Y233338D01*
X222876Y233230D01*
X222862Y233122D01*
X222845Y233014D01*
X222823Y232907D01*
X222798Y232801D01*
X222769Y232696D01*
X222737Y232593D01*
X222701Y232490D01*
X222661Y232388D01*
X222617Y232289D01*
X222570Y232190D01*
X222520Y232094D01*
X222466Y231999D01*
X222409Y231907D01*
X222348Y231816D01*
X222284Y231728D01*
X222218Y231642D01*
X222148Y231558D01*
X222075Y231477D01*
X221999Y231399D01*
X221921Y231323D01*
X221840Y231250D01*
X221756Y231180D01*
X221670Y231114D01*
X221582Y231050D01*
X221492Y230989D01*
X221399Y230932D01*
X221304Y230878D01*
X221208Y230828D01*
X221109Y230781D01*
X221010Y230737D01*
X220908Y230697D01*
X220806Y230661D01*
X220702Y230629D01*
X220597Y230600D01*
X220491Y230575D01*
X220384Y230553D01*
X220276Y230536D01*
X220168Y230522D01*
X220060Y230513D01*
X219951Y230507D01*
X219842Y230505D01*
X219683Y230507D01*
X219524Y230513D01*
X219365Y230523D01*
X219207Y230536D01*
X219049Y230554D01*
X218891Y230575D01*
X218734Y230601D01*
X218578Y230630D01*
X218423Y230663D01*
X218268Y230700D01*
X218114Y230741D01*
X217961Y230785D01*
X217810Y230834D01*
X217660Y230886D01*
X217511Y230941D01*
X217363Y231001D01*
X217217Y231064D01*
X217073Y231130D01*
X216930Y231200D01*
X216789Y231274D01*
X216650Y231351D01*
X216513Y231431D01*
X216378Y231515D01*
X216245Y231602D01*
X216114Y231693D01*
X215985Y231786D01*
X215859Y231883D01*
X215735Y231983D01*
X215614Y232086D01*
X215495Y232192D01*
X215379Y232300D01*
X215266Y232412D01*
X215647Y241184D02*
X215649Y241293D01*
X215655Y241402D01*
X215664Y241510D01*
X215678Y241618D01*
X215695Y241726D01*
X215717Y241833D01*
X215742Y241939D01*
X215771Y242044D01*
X215803Y242148D01*
X215839Y242250D01*
X215879Y242352D01*
X215923Y242451D01*
X215970Y242550D01*
X216020Y242646D01*
X216074Y242741D01*
X216131Y242833D01*
X216192Y242924D01*
X216256Y243012D01*
X216322Y243098D01*
X216392Y243182D01*
X216465Y243263D01*
X216541Y243341D01*
X216619Y243417D01*
X216700Y243490D01*
X216784Y243560D01*
X216870Y243626D01*
X216958Y243690D01*
X217049Y243751D01*
X217141Y243808D01*
X217236Y243862D01*
X217332Y243912D01*
X217431Y243959D01*
X217530Y244003D01*
X217632Y244043D01*
X217734Y244079D01*
X217838Y244111D01*
X217943Y244140D01*
X218049Y244165D01*
X218156Y244187D01*
X218264Y244204D01*
X218372Y244218D01*
X218480Y244227D01*
X218589Y244233D01*
X218698Y244235D01*
X218845Y244233D01*
X218992Y244227D01*
X219139Y244218D01*
X219286Y244205D01*
X219432Y244188D01*
X219578Y244167D01*
X219723Y244142D01*
X219868Y244114D01*
X220012Y244082D01*
X220154Y244047D01*
X220296Y244007D01*
X220437Y243964D01*
X220577Y243918D01*
X220715Y243868D01*
X220852Y243814D01*
X220988Y243757D01*
X221122Y243696D01*
X221255Y243632D01*
X221386Y243564D01*
X221515Y243493D01*
X221642Y243419D01*
X221767Y243342D01*
X221891Y243261D01*
X222012Y243178D01*
X222131Y243091D01*
X217172Y238514D02*
X217077Y238572D01*
X216985Y238634D01*
X216894Y238698D01*
X216807Y238766D01*
X216721Y238837D01*
X216639Y238911D01*
X216559Y238988D01*
X216481Y239067D01*
X216407Y239150D01*
X216336Y239235D01*
X216268Y239322D01*
X216203Y239412D01*
X216141Y239504D01*
X216082Y239599D01*
X216027Y239695D01*
X215976Y239793D01*
X215928Y239893D01*
X215883Y239995D01*
X215843Y240098D01*
X215805Y240203D01*
X215772Y240308D01*
X215743Y240415D01*
X215717Y240523D01*
X215696Y240632D01*
X215678Y240742D01*
X215664Y240852D01*
X215654Y240962D01*
X215648Y241073D01*
X215646Y241184D01*
X221367Y236226D02*
X221462Y236168D01*
X221554Y236106D01*
X221645Y236042D01*
X221732Y235974D01*
X221818Y235903D01*
X221900Y235829D01*
X221980Y235752D01*
X222058Y235673D01*
X222132Y235590D01*
X222203Y235505D01*
X222271Y235418D01*
X222336Y235328D01*
X222398Y235236D01*
X222457Y235141D01*
X222512Y235045D01*
X222563Y234947D01*
X222611Y234847D01*
X222656Y234745D01*
X222696Y234642D01*
X222734Y234537D01*
X222767Y234432D01*
X222796Y234325D01*
X222822Y234217D01*
X222843Y234108D01*
X222861Y233998D01*
X222875Y233888D01*
X222885Y233778D01*
X222891Y233667D01*
X222893Y233556D01*
X221367Y236226D02*
X217172Y238514D01*
X231229Y244235D02*
X231229Y230505D01*
X227415Y244235D02*
X235043Y244235D01*
X243829Y244235D02*
X239252Y230505D01*
X248406Y230505D02*
X243829Y244235D01*
X247261Y233938D02*
X240396Y233938D01*
X254054Y230505D02*
X254054Y244235D01*
X257868Y244235D01*
X257990Y244233D01*
X258112Y244227D01*
X258234Y244217D01*
X258356Y244204D01*
X258477Y244186D01*
X258597Y244165D01*
X258717Y244139D01*
X258835Y244110D01*
X258953Y244077D01*
X259070Y244041D01*
X259185Y244000D01*
X259299Y243956D01*
X259412Y243909D01*
X259523Y243857D01*
X259632Y243802D01*
X259740Y243744D01*
X259845Y243683D01*
X259949Y243617D01*
X260050Y243549D01*
X260149Y243478D01*
X260246Y243403D01*
X260340Y243325D01*
X260432Y243244D01*
X260521Y243161D01*
X260608Y243074D01*
X260691Y242985D01*
X260772Y242893D01*
X260850Y242799D01*
X260925Y242702D01*
X260996Y242603D01*
X261064Y242502D01*
X261130Y242398D01*
X261191Y242293D01*
X261249Y242185D01*
X261304Y242076D01*
X261356Y241965D01*
X261403Y241852D01*
X261447Y241738D01*
X261488Y241623D01*
X261524Y241506D01*
X261557Y241388D01*
X261586Y241270D01*
X261612Y241150D01*
X261633Y241030D01*
X261651Y240909D01*
X261664Y240787D01*
X261674Y240665D01*
X261680Y240543D01*
X261682Y240421D01*
X261680Y240299D01*
X261674Y240177D01*
X261664Y240055D01*
X261651Y239933D01*
X261633Y239812D01*
X261612Y239692D01*
X261586Y239572D01*
X261557Y239454D01*
X261524Y239336D01*
X261488Y239219D01*
X261447Y239104D01*
X261403Y238990D01*
X261356Y238877D01*
X261304Y238766D01*
X261249Y238657D01*
X261191Y238549D01*
X261130Y238444D01*
X261064Y238340D01*
X260996Y238239D01*
X260925Y238140D01*
X260850Y238043D01*
X260772Y237949D01*
X260691Y237857D01*
X260608Y237768D01*
X260521Y237681D01*
X260432Y237598D01*
X260340Y237517D01*
X260246Y237439D01*
X260149Y237364D01*
X260050Y237293D01*
X259949Y237225D01*
X259845Y237159D01*
X259740Y237098D01*
X259632Y237040D01*
X259523Y236985D01*
X259412Y236933D01*
X259299Y236886D01*
X259185Y236842D01*
X259070Y236801D01*
X258953Y236765D01*
X258835Y236732D01*
X258717Y236703D01*
X258597Y236677D01*
X258477Y236656D01*
X258356Y236638D01*
X258234Y236625D01*
X258112Y236615D01*
X257990Y236609D01*
X257868Y236607D01*
X254054Y236607D01*
X258631Y236607D02*
X261682Y230505D01*
X270379Y230505D02*
X270379Y244235D01*
X266565Y244235D02*
X274193Y244235D01*
X220097Y330835D02*
X217046Y330835D01*
X216937Y330837D01*
X216828Y330843D01*
X216720Y330852D01*
X216612Y330866D01*
X216504Y330883D01*
X216397Y330905D01*
X216291Y330930D01*
X216186Y330959D01*
X216082Y330991D01*
X215980Y331027D01*
X215878Y331067D01*
X215779Y331111D01*
X215680Y331158D01*
X215584Y331208D01*
X215489Y331262D01*
X215397Y331319D01*
X215306Y331380D01*
X215218Y331444D01*
X215132Y331510D01*
X215048Y331580D01*
X214967Y331653D01*
X214889Y331729D01*
X214813Y331807D01*
X214740Y331888D01*
X214670Y331972D01*
X214604Y332058D01*
X214540Y332146D01*
X214479Y332237D01*
X214422Y332329D01*
X214368Y332424D01*
X214318Y332520D01*
X214271Y332619D01*
X214227Y332718D01*
X214187Y332820D01*
X214151Y332922D01*
X214119Y333026D01*
X214090Y333131D01*
X214065Y333237D01*
X214043Y333344D01*
X214026Y333452D01*
X214012Y333560D01*
X214003Y333668D01*
X213997Y333777D01*
X213995Y333886D01*
X213995Y341514D01*
X213997Y341623D01*
X214003Y341732D01*
X214012Y341840D01*
X214026Y341948D01*
X214043Y342056D01*
X214065Y342163D01*
X214090Y342269D01*
X214119Y342374D01*
X214151Y342477D01*
X214187Y342580D01*
X214227Y342682D01*
X214271Y342781D01*
X214318Y342880D01*
X214368Y342976D01*
X214422Y343071D01*
X214479Y343163D01*
X214540Y343254D01*
X214604Y343342D01*
X214670Y343428D01*
X214740Y343512D01*
X214813Y343593D01*
X214889Y343671D01*
X214967Y343747D01*
X215048Y343820D01*
X215132Y343890D01*
X215218Y343956D01*
X215306Y344020D01*
X215396Y344081D01*
X215489Y344138D01*
X215584Y344192D01*
X215680Y344242D01*
X215779Y344289D01*
X215878Y344333D01*
X215980Y344373D01*
X216082Y344409D01*
X216186Y344441D01*
X216291Y344470D01*
X216397Y344495D01*
X216504Y344517D01*
X216612Y344534D01*
X216720Y344548D01*
X216828Y344557D01*
X216937Y344563D01*
X217046Y344565D01*
X220097Y344565D01*
X232463Y333886D02*
X232461Y333777D01*
X232455Y333668D01*
X232446Y333560D01*
X232432Y333452D01*
X232415Y333344D01*
X232393Y333237D01*
X232368Y333131D01*
X232339Y333026D01*
X232307Y332923D01*
X232271Y332820D01*
X232231Y332718D01*
X232187Y332619D01*
X232140Y332520D01*
X232090Y332424D01*
X232036Y332329D01*
X231979Y332237D01*
X231918Y332146D01*
X231854Y332058D01*
X231788Y331972D01*
X231718Y331888D01*
X231645Y331807D01*
X231569Y331729D01*
X231491Y331653D01*
X231410Y331580D01*
X231326Y331510D01*
X231240Y331444D01*
X231152Y331380D01*
X231062Y331319D01*
X230969Y331262D01*
X230874Y331208D01*
X230778Y331158D01*
X230679Y331111D01*
X230580Y331067D01*
X230478Y331027D01*
X230376Y330991D01*
X230272Y330959D01*
X230167Y330930D01*
X230061Y330905D01*
X229954Y330883D01*
X229846Y330866D01*
X229738Y330852D01*
X229630Y330843D01*
X229521Y330837D01*
X229412Y330835D01*
X229253Y330837D01*
X229094Y330843D01*
X228935Y330853D01*
X228777Y330866D01*
X228619Y330884D01*
X228461Y330905D01*
X228304Y330931D01*
X228148Y330960D01*
X227993Y330993D01*
X227838Y331030D01*
X227684Y331071D01*
X227531Y331115D01*
X227380Y331164D01*
X227230Y331216D01*
X227081Y331271D01*
X226933Y331331D01*
X226787Y331394D01*
X226643Y331460D01*
X226500Y331530D01*
X226359Y331604D01*
X226220Y331681D01*
X226083Y331761D01*
X225948Y331845D01*
X225815Y331932D01*
X225684Y332023D01*
X225555Y332116D01*
X225429Y332213D01*
X225305Y332313D01*
X225184Y332416D01*
X225065Y332522D01*
X224949Y332630D01*
X224836Y332742D01*
X225217Y341514D02*
X225219Y341623D01*
X225225Y341732D01*
X225234Y341840D01*
X225248Y341948D01*
X225265Y342056D01*
X225287Y342163D01*
X225312Y342269D01*
X225341Y342374D01*
X225373Y342478D01*
X225409Y342580D01*
X225449Y342682D01*
X225493Y342781D01*
X225540Y342880D01*
X225590Y342976D01*
X225644Y343071D01*
X225701Y343163D01*
X225762Y343254D01*
X225826Y343342D01*
X225892Y343428D01*
X225962Y343512D01*
X226035Y343593D01*
X226111Y343671D01*
X226189Y343747D01*
X226270Y343820D01*
X226354Y343890D01*
X226440Y343956D01*
X226528Y344020D01*
X226619Y344081D01*
X226711Y344138D01*
X226806Y344192D01*
X226902Y344242D01*
X227001Y344289D01*
X227100Y344333D01*
X227202Y344373D01*
X227304Y344409D01*
X227408Y344441D01*
X227513Y344470D01*
X227619Y344495D01*
X227726Y344517D01*
X227834Y344534D01*
X227942Y344548D01*
X228050Y344557D01*
X228159Y344563D01*
X228268Y344565D01*
X228415Y344563D01*
X228562Y344557D01*
X228709Y344548D01*
X228856Y344535D01*
X229002Y344518D01*
X229148Y344497D01*
X229293Y344472D01*
X229438Y344444D01*
X229582Y344412D01*
X229724Y344377D01*
X229866Y344337D01*
X230007Y344294D01*
X230147Y344248D01*
X230285Y344198D01*
X230422Y344144D01*
X230558Y344087D01*
X230692Y344026D01*
X230825Y343962D01*
X230956Y343894D01*
X231085Y343823D01*
X231212Y343749D01*
X231337Y343672D01*
X231461Y343591D01*
X231582Y343508D01*
X231701Y343421D01*
X226743Y338844D02*
X226648Y338902D01*
X226556Y338964D01*
X226465Y339028D01*
X226378Y339096D01*
X226292Y339167D01*
X226210Y339241D01*
X226130Y339318D01*
X226052Y339397D01*
X225978Y339480D01*
X225907Y339565D01*
X225839Y339652D01*
X225774Y339742D01*
X225712Y339834D01*
X225653Y339929D01*
X225598Y340025D01*
X225547Y340123D01*
X225499Y340223D01*
X225454Y340325D01*
X225414Y340428D01*
X225376Y340533D01*
X225343Y340638D01*
X225314Y340745D01*
X225288Y340853D01*
X225267Y340962D01*
X225249Y341072D01*
X225235Y341182D01*
X225225Y341292D01*
X225219Y341403D01*
X225217Y341514D01*
X230937Y336556D02*
X231032Y336498D01*
X231124Y336436D01*
X231215Y336372D01*
X231302Y336304D01*
X231388Y336233D01*
X231470Y336159D01*
X231550Y336082D01*
X231628Y336003D01*
X231702Y335920D01*
X231773Y335835D01*
X231841Y335748D01*
X231906Y335658D01*
X231968Y335566D01*
X232027Y335471D01*
X232082Y335375D01*
X232133Y335277D01*
X232181Y335177D01*
X232226Y335075D01*
X232266Y334972D01*
X232304Y334867D01*
X232337Y334762D01*
X232366Y334655D01*
X232392Y334547D01*
X232413Y334438D01*
X232431Y334328D01*
X232445Y334218D01*
X232455Y334108D01*
X232461Y333997D01*
X232463Y333886D01*
X230938Y336556D02*
X226742Y338844D01*
X215265Y293765D02*
X215265Y280035D01*
X219842Y286137D02*
X215265Y293765D01*
X219842Y286137D02*
X224418Y293765D01*
X224418Y280035D01*
X231992Y280035D02*
X231992Y293765D01*
X230466Y280035D02*
X233517Y280035D01*
X233517Y293765D02*
X230466Y293765D01*
X243104Y280035D02*
X243213Y280037D01*
X243322Y280043D01*
X243430Y280052D01*
X243538Y280066D01*
X243646Y280083D01*
X243753Y280105D01*
X243859Y280130D01*
X243964Y280159D01*
X244068Y280191D01*
X244170Y280227D01*
X244272Y280267D01*
X244371Y280311D01*
X244470Y280358D01*
X244566Y280408D01*
X244661Y280462D01*
X244754Y280519D01*
X244844Y280580D01*
X244932Y280644D01*
X245018Y280710D01*
X245102Y280780D01*
X245183Y280853D01*
X245261Y280929D01*
X245337Y281007D01*
X245410Y281088D01*
X245480Y281172D01*
X245546Y281258D01*
X245610Y281346D01*
X245671Y281437D01*
X245728Y281529D01*
X245782Y281624D01*
X245832Y281720D01*
X245879Y281819D01*
X245923Y281918D01*
X245963Y282020D01*
X245999Y282123D01*
X246031Y282226D01*
X246060Y282331D01*
X246085Y282437D01*
X246107Y282544D01*
X246124Y282652D01*
X246138Y282760D01*
X246147Y282868D01*
X246153Y282977D01*
X246155Y283086D01*
X243104Y280035D02*
X242945Y280037D01*
X242786Y280043D01*
X242627Y280053D01*
X242469Y280066D01*
X242311Y280084D01*
X242153Y280105D01*
X241996Y280131D01*
X241840Y280160D01*
X241685Y280193D01*
X241530Y280230D01*
X241376Y280271D01*
X241223Y280315D01*
X241072Y280364D01*
X240922Y280416D01*
X240773Y280471D01*
X240625Y280531D01*
X240479Y280594D01*
X240335Y280660D01*
X240192Y280730D01*
X240051Y280804D01*
X239912Y280881D01*
X239775Y280961D01*
X239640Y281045D01*
X239507Y281132D01*
X239376Y281223D01*
X239247Y281316D01*
X239121Y281413D01*
X238997Y281513D01*
X238876Y281616D01*
X238757Y281722D01*
X238641Y281830D01*
X238528Y281942D01*
X238909Y290714D02*
X238911Y290823D01*
X238917Y290932D01*
X238926Y291040D01*
X238940Y291148D01*
X238957Y291256D01*
X238979Y291363D01*
X239004Y291469D01*
X239033Y291574D01*
X239065Y291678D01*
X239101Y291780D01*
X239141Y291882D01*
X239185Y291981D01*
X239232Y292080D01*
X239282Y292176D01*
X239336Y292271D01*
X239393Y292363D01*
X239454Y292454D01*
X239518Y292542D01*
X239584Y292628D01*
X239654Y292712D01*
X239727Y292793D01*
X239803Y292871D01*
X239881Y292947D01*
X239962Y293020D01*
X240046Y293090D01*
X240132Y293156D01*
X240220Y293220D01*
X240311Y293281D01*
X240403Y293338D01*
X240498Y293392D01*
X240594Y293442D01*
X240693Y293489D01*
X240792Y293533D01*
X240894Y293573D01*
X240996Y293609D01*
X241100Y293641D01*
X241205Y293670D01*
X241311Y293695D01*
X241418Y293717D01*
X241526Y293734D01*
X241634Y293748D01*
X241742Y293757D01*
X241851Y293763D01*
X241960Y293765D01*
X242107Y293763D01*
X242254Y293757D01*
X242401Y293748D01*
X242548Y293735D01*
X242694Y293718D01*
X242840Y293697D01*
X242985Y293672D01*
X243130Y293644D01*
X243274Y293612D01*
X243416Y293577D01*
X243558Y293537D01*
X243699Y293494D01*
X243839Y293448D01*
X243977Y293398D01*
X244114Y293344D01*
X244250Y293287D01*
X244384Y293226D01*
X244517Y293162D01*
X244648Y293094D01*
X244777Y293023D01*
X244904Y292949D01*
X245029Y292872D01*
X245153Y292791D01*
X245274Y292708D01*
X245393Y292621D01*
X240435Y288044D02*
X240340Y288102D01*
X240248Y288164D01*
X240157Y288228D01*
X240070Y288296D01*
X239984Y288367D01*
X239902Y288441D01*
X239822Y288518D01*
X239744Y288597D01*
X239670Y288680D01*
X239599Y288765D01*
X239531Y288852D01*
X239466Y288942D01*
X239404Y289034D01*
X239345Y289129D01*
X239290Y289225D01*
X239239Y289323D01*
X239191Y289423D01*
X239146Y289525D01*
X239106Y289628D01*
X239068Y289733D01*
X239035Y289838D01*
X239006Y289945D01*
X238980Y290053D01*
X238959Y290162D01*
X238941Y290272D01*
X238927Y290382D01*
X238917Y290492D01*
X238911Y290603D01*
X238909Y290714D01*
X244630Y285756D02*
X244725Y285698D01*
X244817Y285636D01*
X244908Y285572D01*
X244995Y285504D01*
X245081Y285433D01*
X245163Y285359D01*
X245243Y285282D01*
X245321Y285203D01*
X245395Y285120D01*
X245466Y285035D01*
X245534Y284948D01*
X245599Y284858D01*
X245661Y284766D01*
X245720Y284671D01*
X245775Y284575D01*
X245826Y284477D01*
X245874Y284377D01*
X245919Y284275D01*
X245959Y284172D01*
X245997Y284067D01*
X246030Y283962D01*
X246059Y283855D01*
X246085Y283747D01*
X246106Y283638D01*
X246124Y283528D01*
X246138Y283418D01*
X246148Y283308D01*
X246154Y283197D01*
X246156Y283086D01*
X244630Y285756D02*
X240435Y288044D01*
X251578Y289951D02*
X251578Y283849D01*
X251578Y289951D02*
X251580Y290073D01*
X251586Y290195D01*
X251596Y290317D01*
X251609Y290439D01*
X251627Y290560D01*
X251648Y290680D01*
X251674Y290800D01*
X251703Y290918D01*
X251736Y291036D01*
X251772Y291153D01*
X251813Y291268D01*
X251857Y291382D01*
X251904Y291495D01*
X251956Y291606D01*
X252011Y291715D01*
X252069Y291823D01*
X252130Y291928D01*
X252196Y292032D01*
X252264Y292133D01*
X252335Y292232D01*
X252410Y292329D01*
X252488Y292423D01*
X252569Y292515D01*
X252652Y292604D01*
X252739Y292691D01*
X252828Y292774D01*
X252920Y292855D01*
X253014Y292933D01*
X253111Y293008D01*
X253210Y293079D01*
X253311Y293147D01*
X253415Y293213D01*
X253520Y293274D01*
X253628Y293332D01*
X253737Y293387D01*
X253848Y293439D01*
X253961Y293486D01*
X254075Y293530D01*
X254190Y293571D01*
X254307Y293607D01*
X254425Y293640D01*
X254543Y293669D01*
X254663Y293695D01*
X254783Y293716D01*
X254904Y293734D01*
X255026Y293747D01*
X255148Y293757D01*
X255270Y293763D01*
X255392Y293765D01*
X255514Y293763D01*
X255636Y293757D01*
X255758Y293747D01*
X255880Y293734D01*
X256001Y293716D01*
X256121Y293695D01*
X256241Y293669D01*
X256359Y293640D01*
X256477Y293607D01*
X256594Y293571D01*
X256709Y293530D01*
X256823Y293486D01*
X256936Y293439D01*
X257047Y293387D01*
X257156Y293332D01*
X257264Y293274D01*
X257369Y293213D01*
X257473Y293147D01*
X257574Y293079D01*
X257673Y293008D01*
X257770Y292933D01*
X257864Y292855D01*
X257956Y292774D01*
X258045Y292691D01*
X258132Y292604D01*
X258215Y292515D01*
X258296Y292423D01*
X258374Y292329D01*
X258449Y292232D01*
X258520Y292133D01*
X258588Y292032D01*
X258654Y291928D01*
X258715Y291823D01*
X258773Y291715D01*
X258828Y291606D01*
X258880Y291495D01*
X258927Y291382D01*
X258971Y291268D01*
X259012Y291153D01*
X259048Y291036D01*
X259081Y290918D01*
X259110Y290800D01*
X259136Y290680D01*
X259157Y290560D01*
X259175Y290439D01*
X259188Y290317D01*
X259198Y290195D01*
X259204Y290073D01*
X259206Y289951D01*
X259206Y283849D01*
X259204Y283727D01*
X259198Y283605D01*
X259188Y283483D01*
X259175Y283361D01*
X259157Y283240D01*
X259136Y283120D01*
X259110Y283000D01*
X259081Y282882D01*
X259048Y282764D01*
X259012Y282647D01*
X258971Y282532D01*
X258927Y282418D01*
X258880Y282305D01*
X258828Y282194D01*
X258773Y282085D01*
X258715Y281977D01*
X258654Y281872D01*
X258588Y281768D01*
X258520Y281667D01*
X258449Y281568D01*
X258374Y281471D01*
X258296Y281377D01*
X258215Y281285D01*
X258132Y281196D01*
X258045Y281109D01*
X257956Y281026D01*
X257864Y280945D01*
X257770Y280867D01*
X257673Y280792D01*
X257574Y280721D01*
X257473Y280653D01*
X257369Y280587D01*
X257264Y280526D01*
X257156Y280468D01*
X257047Y280413D01*
X256936Y280361D01*
X256823Y280314D01*
X256709Y280270D01*
X256594Y280229D01*
X256477Y280193D01*
X256359Y280160D01*
X256241Y280131D01*
X256121Y280105D01*
X256001Y280084D01*
X255880Y280066D01*
X255758Y280053D01*
X255636Y280043D01*
X255514Y280037D01*
X255392Y280035D01*
X255270Y280037D01*
X255148Y280043D01*
X255026Y280053D01*
X254904Y280066D01*
X254783Y280084D01*
X254663Y280105D01*
X254543Y280131D01*
X254425Y280160D01*
X254307Y280193D01*
X254190Y280229D01*
X254075Y280270D01*
X253961Y280314D01*
X253848Y280361D01*
X253737Y280413D01*
X253628Y280468D01*
X253520Y280526D01*
X253415Y280587D01*
X253311Y280653D01*
X253210Y280721D01*
X253111Y280792D01*
X253014Y280867D01*
X252920Y280945D01*
X252828Y281026D01*
X252739Y281109D01*
X252652Y281196D01*
X252569Y281285D01*
X252488Y281377D01*
X252410Y281471D01*
X252335Y281568D01*
X252264Y281667D01*
X252196Y281768D01*
X252130Y281872D01*
X252069Y281977D01*
X252011Y282085D01*
X251956Y282194D01*
X251904Y282305D01*
X251857Y282418D01*
X251813Y282532D01*
X251772Y282647D01*
X251736Y282764D01*
X251703Y282882D01*
X251674Y283000D01*
X251648Y283120D01*
X251627Y283240D01*
X251609Y283361D01*
X251596Y283483D01*
X251586Y283605D01*
X251580Y283727D01*
X251578Y283849D01*
X221623Y309756D02*
X221621Y309647D01*
X221615Y309538D01*
X221606Y309430D01*
X221592Y309322D01*
X221575Y309214D01*
X221553Y309107D01*
X221528Y309001D01*
X221499Y308896D01*
X221467Y308793D01*
X221431Y308690D01*
X221391Y308588D01*
X221347Y308489D01*
X221300Y308390D01*
X221250Y308294D01*
X221196Y308199D01*
X221139Y308107D01*
X221078Y308016D01*
X221014Y307928D01*
X220948Y307842D01*
X220878Y307758D01*
X220805Y307677D01*
X220729Y307599D01*
X220651Y307523D01*
X220570Y307450D01*
X220486Y307380D01*
X220400Y307314D01*
X220312Y307250D01*
X220222Y307189D01*
X220129Y307132D01*
X220034Y307078D01*
X219938Y307028D01*
X219839Y306981D01*
X219740Y306937D01*
X219638Y306897D01*
X219536Y306861D01*
X219432Y306829D01*
X219327Y306800D01*
X219221Y306775D01*
X219114Y306753D01*
X219006Y306736D01*
X218898Y306722D01*
X218790Y306713D01*
X218681Y306707D01*
X218572Y306705D01*
X218413Y306707D01*
X218254Y306713D01*
X218095Y306723D01*
X217937Y306736D01*
X217779Y306754D01*
X217621Y306775D01*
X217464Y306801D01*
X217308Y306830D01*
X217153Y306863D01*
X216998Y306900D01*
X216844Y306941D01*
X216691Y306985D01*
X216540Y307034D01*
X216390Y307086D01*
X216241Y307141D01*
X216093Y307201D01*
X215947Y307264D01*
X215803Y307330D01*
X215660Y307400D01*
X215519Y307474D01*
X215380Y307551D01*
X215243Y307631D01*
X215108Y307715D01*
X214975Y307802D01*
X214844Y307893D01*
X214715Y307986D01*
X214589Y308083D01*
X214465Y308183D01*
X214344Y308286D01*
X214225Y308392D01*
X214109Y308500D01*
X213996Y308612D01*
X214377Y317384D02*
X214379Y317493D01*
X214385Y317602D01*
X214394Y317710D01*
X214408Y317818D01*
X214425Y317926D01*
X214447Y318033D01*
X214472Y318139D01*
X214501Y318244D01*
X214533Y318348D01*
X214569Y318450D01*
X214609Y318552D01*
X214653Y318651D01*
X214700Y318750D01*
X214750Y318846D01*
X214804Y318941D01*
X214861Y319033D01*
X214922Y319124D01*
X214986Y319212D01*
X215052Y319298D01*
X215122Y319382D01*
X215195Y319463D01*
X215271Y319541D01*
X215349Y319617D01*
X215430Y319690D01*
X215514Y319760D01*
X215600Y319826D01*
X215688Y319890D01*
X215779Y319951D01*
X215871Y320008D01*
X215966Y320062D01*
X216062Y320112D01*
X216161Y320159D01*
X216260Y320203D01*
X216362Y320243D01*
X216464Y320279D01*
X216568Y320311D01*
X216673Y320340D01*
X216779Y320365D01*
X216886Y320387D01*
X216994Y320404D01*
X217102Y320418D01*
X217210Y320427D01*
X217319Y320433D01*
X217428Y320435D01*
X217575Y320433D01*
X217722Y320427D01*
X217869Y320418D01*
X218016Y320405D01*
X218162Y320388D01*
X218308Y320367D01*
X218453Y320342D01*
X218598Y320314D01*
X218742Y320282D01*
X218884Y320247D01*
X219026Y320207D01*
X219167Y320164D01*
X219307Y320118D01*
X219445Y320068D01*
X219582Y320014D01*
X219718Y319957D01*
X219852Y319896D01*
X219985Y319832D01*
X220116Y319764D01*
X220245Y319693D01*
X220372Y319619D01*
X220497Y319542D01*
X220621Y319461D01*
X220742Y319378D01*
X220861Y319291D01*
X215902Y314714D02*
X215807Y314772D01*
X215715Y314834D01*
X215624Y314898D01*
X215537Y314966D01*
X215451Y315037D01*
X215369Y315111D01*
X215289Y315188D01*
X215211Y315267D01*
X215137Y315350D01*
X215066Y315435D01*
X214998Y315522D01*
X214933Y315612D01*
X214871Y315704D01*
X214812Y315799D01*
X214757Y315895D01*
X214706Y315993D01*
X214658Y316093D01*
X214613Y316195D01*
X214573Y316298D01*
X214535Y316403D01*
X214502Y316508D01*
X214473Y316615D01*
X214447Y316723D01*
X214426Y316832D01*
X214408Y316942D01*
X214394Y317052D01*
X214384Y317162D01*
X214378Y317273D01*
X214376Y317384D01*
X220097Y312426D02*
X220192Y312368D01*
X220284Y312306D01*
X220375Y312242D01*
X220462Y312174D01*
X220548Y312103D01*
X220630Y312029D01*
X220710Y311952D01*
X220788Y311873D01*
X220862Y311790D01*
X220933Y311705D01*
X221001Y311618D01*
X221066Y311528D01*
X221128Y311436D01*
X221187Y311341D01*
X221242Y311245D01*
X221293Y311147D01*
X221341Y311047D01*
X221386Y310945D01*
X221426Y310842D01*
X221464Y310737D01*
X221497Y310632D01*
X221526Y310525D01*
X221552Y310417D01*
X221573Y310308D01*
X221591Y310198D01*
X221605Y310088D01*
X221615Y309978D01*
X221621Y309867D01*
X221623Y309756D01*
X220097Y312426D02*
X215902Y314714D01*
X230056Y306705D02*
X233107Y306705D01*
X230056Y306705D02*
X229947Y306707D01*
X229838Y306713D01*
X229730Y306722D01*
X229622Y306736D01*
X229514Y306753D01*
X229407Y306775D01*
X229301Y306800D01*
X229196Y306829D01*
X229092Y306861D01*
X228990Y306897D01*
X228888Y306937D01*
X228789Y306981D01*
X228690Y307028D01*
X228594Y307078D01*
X228499Y307132D01*
X228407Y307189D01*
X228316Y307250D01*
X228228Y307314D01*
X228142Y307380D01*
X228058Y307450D01*
X227977Y307523D01*
X227899Y307599D01*
X227823Y307677D01*
X227750Y307758D01*
X227680Y307842D01*
X227614Y307928D01*
X227550Y308016D01*
X227489Y308107D01*
X227432Y308199D01*
X227378Y308294D01*
X227328Y308390D01*
X227281Y308489D01*
X227237Y308588D01*
X227197Y308690D01*
X227161Y308792D01*
X227129Y308896D01*
X227100Y309001D01*
X227075Y309107D01*
X227053Y309214D01*
X227036Y309322D01*
X227022Y309430D01*
X227013Y309538D01*
X227007Y309647D01*
X227005Y309756D01*
X227005Y317384D01*
X227007Y317493D01*
X227013Y317602D01*
X227022Y317710D01*
X227036Y317818D01*
X227053Y317926D01*
X227075Y318033D01*
X227100Y318139D01*
X227129Y318244D01*
X227161Y318347D01*
X227197Y318450D01*
X227237Y318552D01*
X227281Y318651D01*
X227328Y318750D01*
X227378Y318846D01*
X227432Y318941D01*
X227489Y319033D01*
X227550Y319124D01*
X227614Y319212D01*
X227680Y319298D01*
X227750Y319382D01*
X227823Y319463D01*
X227899Y319541D01*
X227977Y319617D01*
X228058Y319690D01*
X228142Y319760D01*
X228228Y319826D01*
X228316Y319890D01*
X228406Y319951D01*
X228499Y320008D01*
X228594Y320062D01*
X228690Y320112D01*
X228789Y320159D01*
X228888Y320203D01*
X228990Y320243D01*
X229092Y320279D01*
X229196Y320311D01*
X229301Y320340D01*
X229407Y320365D01*
X229514Y320387D01*
X229622Y320404D01*
X229730Y320418D01*
X229838Y320427D01*
X229947Y320433D01*
X230056Y320435D01*
X233107Y320435D01*
X238772Y320435D02*
X238772Y306705D01*
X244875Y306705D01*
X250651Y306705D02*
X250651Y320435D01*
X258279Y320435D02*
X250651Y312044D01*
X253702Y315096D02*
X258279Y306705D01*
X216535Y268365D02*
X216535Y254635D01*
X221112Y260737D02*
X216535Y268365D01*
X221112Y260737D02*
X225688Y268365D01*
X225688Y254635D01*
X232148Y258449D02*
X232148Y264551D01*
X232150Y264673D01*
X232156Y264795D01*
X232166Y264917D01*
X232179Y265039D01*
X232197Y265160D01*
X232218Y265280D01*
X232244Y265400D01*
X232273Y265518D01*
X232306Y265636D01*
X232342Y265753D01*
X232383Y265868D01*
X232427Y265982D01*
X232474Y266095D01*
X232526Y266206D01*
X232581Y266315D01*
X232639Y266423D01*
X232700Y266528D01*
X232766Y266632D01*
X232834Y266733D01*
X232905Y266832D01*
X232980Y266929D01*
X233058Y267023D01*
X233139Y267115D01*
X233222Y267204D01*
X233309Y267291D01*
X233398Y267374D01*
X233490Y267455D01*
X233584Y267533D01*
X233681Y267608D01*
X233780Y267679D01*
X233881Y267747D01*
X233985Y267813D01*
X234090Y267874D01*
X234198Y267932D01*
X234307Y267987D01*
X234418Y268039D01*
X234531Y268086D01*
X234645Y268130D01*
X234760Y268171D01*
X234877Y268207D01*
X234995Y268240D01*
X235113Y268269D01*
X235233Y268295D01*
X235353Y268316D01*
X235474Y268334D01*
X235596Y268347D01*
X235718Y268357D01*
X235840Y268363D01*
X235962Y268365D01*
X236084Y268363D01*
X236206Y268357D01*
X236328Y268347D01*
X236450Y268334D01*
X236571Y268316D01*
X236691Y268295D01*
X236811Y268269D01*
X236929Y268240D01*
X237047Y268207D01*
X237164Y268171D01*
X237279Y268130D01*
X237393Y268086D01*
X237506Y268039D01*
X237617Y267987D01*
X237726Y267932D01*
X237834Y267874D01*
X237939Y267813D01*
X238043Y267747D01*
X238144Y267679D01*
X238243Y267608D01*
X238340Y267533D01*
X238434Y267455D01*
X238526Y267374D01*
X238615Y267291D01*
X238702Y267204D01*
X238785Y267115D01*
X238866Y267023D01*
X238944Y266929D01*
X239019Y266832D01*
X239090Y266733D01*
X239158Y266632D01*
X239224Y266528D01*
X239285Y266423D01*
X239343Y266315D01*
X239398Y266206D01*
X239450Y266095D01*
X239497Y265982D01*
X239541Y265868D01*
X239582Y265753D01*
X239618Y265636D01*
X239651Y265518D01*
X239680Y265400D01*
X239706Y265280D01*
X239727Y265160D01*
X239745Y265039D01*
X239758Y264917D01*
X239768Y264795D01*
X239774Y264673D01*
X239776Y264551D01*
X239776Y258449D01*
X239774Y258327D01*
X239768Y258205D01*
X239758Y258083D01*
X239745Y257961D01*
X239727Y257840D01*
X239706Y257720D01*
X239680Y257600D01*
X239651Y257482D01*
X239618Y257364D01*
X239582Y257247D01*
X239541Y257132D01*
X239497Y257018D01*
X239450Y256905D01*
X239398Y256794D01*
X239343Y256685D01*
X239285Y256577D01*
X239224Y256472D01*
X239158Y256368D01*
X239090Y256267D01*
X239019Y256168D01*
X238944Y256071D01*
X238866Y255977D01*
X238785Y255885D01*
X238702Y255796D01*
X238615Y255709D01*
X238526Y255626D01*
X238434Y255545D01*
X238340Y255467D01*
X238243Y255392D01*
X238144Y255321D01*
X238043Y255253D01*
X237939Y255187D01*
X237834Y255126D01*
X237726Y255068D01*
X237617Y255013D01*
X237506Y254961D01*
X237393Y254914D01*
X237279Y254870D01*
X237164Y254829D01*
X237047Y254793D01*
X236929Y254760D01*
X236811Y254731D01*
X236691Y254705D01*
X236571Y254684D01*
X236450Y254666D01*
X236328Y254653D01*
X236206Y254643D01*
X236084Y254637D01*
X235962Y254635D01*
X235840Y254637D01*
X235718Y254643D01*
X235596Y254653D01*
X235474Y254666D01*
X235353Y254684D01*
X235233Y254705D01*
X235113Y254731D01*
X234995Y254760D01*
X234877Y254793D01*
X234760Y254829D01*
X234645Y254870D01*
X234531Y254914D01*
X234418Y254961D01*
X234307Y255013D01*
X234198Y255068D01*
X234090Y255126D01*
X233985Y255187D01*
X233881Y255253D01*
X233780Y255321D01*
X233681Y255392D01*
X233584Y255467D01*
X233490Y255545D01*
X233398Y255626D01*
X233309Y255709D01*
X233222Y255796D01*
X233139Y255885D01*
X233058Y255977D01*
X232980Y256071D01*
X232905Y256168D01*
X232834Y256267D01*
X232766Y256368D01*
X232700Y256472D01*
X232639Y256577D01*
X232581Y256685D01*
X232526Y256794D01*
X232474Y256905D01*
X232427Y257018D01*
X232383Y257132D01*
X232342Y257247D01*
X232306Y257364D01*
X232273Y257482D01*
X232244Y257600D01*
X232218Y257720D01*
X232197Y257840D01*
X232179Y257961D01*
X232166Y258083D01*
X232156Y258205D01*
X232150Y258327D01*
X232148Y258449D01*
X249774Y254635D02*
X249883Y254637D01*
X249992Y254643D01*
X250100Y254652D01*
X250208Y254666D01*
X250316Y254683D01*
X250423Y254705D01*
X250529Y254730D01*
X250634Y254759D01*
X250738Y254791D01*
X250840Y254827D01*
X250942Y254867D01*
X251041Y254911D01*
X251140Y254958D01*
X251236Y255008D01*
X251331Y255062D01*
X251424Y255119D01*
X251514Y255180D01*
X251602Y255244D01*
X251688Y255310D01*
X251772Y255380D01*
X251853Y255453D01*
X251931Y255529D01*
X252007Y255607D01*
X252080Y255688D01*
X252150Y255772D01*
X252216Y255858D01*
X252280Y255946D01*
X252341Y256037D01*
X252398Y256129D01*
X252452Y256224D01*
X252502Y256320D01*
X252549Y256419D01*
X252593Y256518D01*
X252633Y256620D01*
X252669Y256723D01*
X252701Y256826D01*
X252730Y256931D01*
X252755Y257037D01*
X252777Y257144D01*
X252794Y257252D01*
X252808Y257360D01*
X252817Y257468D01*
X252823Y257577D01*
X252825Y257686D01*
X249774Y254635D02*
X249615Y254637D01*
X249456Y254643D01*
X249297Y254653D01*
X249139Y254666D01*
X248981Y254684D01*
X248823Y254705D01*
X248666Y254731D01*
X248510Y254760D01*
X248355Y254793D01*
X248200Y254830D01*
X248046Y254871D01*
X247893Y254915D01*
X247742Y254964D01*
X247592Y255016D01*
X247443Y255071D01*
X247295Y255131D01*
X247149Y255194D01*
X247005Y255260D01*
X246862Y255330D01*
X246721Y255404D01*
X246582Y255481D01*
X246445Y255561D01*
X246310Y255645D01*
X246177Y255732D01*
X246046Y255823D01*
X245917Y255916D01*
X245791Y256013D01*
X245667Y256113D01*
X245546Y256216D01*
X245427Y256322D01*
X245311Y256430D01*
X245198Y256542D01*
X245579Y265314D02*
X245581Y265423D01*
X245587Y265532D01*
X245596Y265640D01*
X245610Y265748D01*
X245627Y265856D01*
X245649Y265963D01*
X245674Y266069D01*
X245703Y266174D01*
X245735Y266278D01*
X245771Y266380D01*
X245811Y266482D01*
X245855Y266581D01*
X245902Y266680D01*
X245952Y266776D01*
X246006Y266871D01*
X246063Y266963D01*
X246124Y267054D01*
X246188Y267142D01*
X246254Y267228D01*
X246324Y267312D01*
X246397Y267393D01*
X246473Y267471D01*
X246551Y267547D01*
X246632Y267620D01*
X246716Y267690D01*
X246802Y267756D01*
X246890Y267820D01*
X246981Y267881D01*
X247073Y267938D01*
X247168Y267992D01*
X247264Y268042D01*
X247363Y268089D01*
X247462Y268133D01*
X247564Y268173D01*
X247666Y268209D01*
X247770Y268241D01*
X247875Y268270D01*
X247981Y268295D01*
X248088Y268317D01*
X248196Y268334D01*
X248304Y268348D01*
X248412Y268357D01*
X248521Y268363D01*
X248630Y268365D01*
X248777Y268363D01*
X248924Y268357D01*
X249071Y268348D01*
X249218Y268335D01*
X249364Y268318D01*
X249510Y268297D01*
X249655Y268272D01*
X249800Y268244D01*
X249944Y268212D01*
X250086Y268177D01*
X250228Y268137D01*
X250369Y268094D01*
X250509Y268048D01*
X250647Y267998D01*
X250784Y267944D01*
X250920Y267887D01*
X251054Y267826D01*
X251187Y267762D01*
X251318Y267694D01*
X251447Y267623D01*
X251574Y267549D01*
X251699Y267472D01*
X251823Y267391D01*
X251944Y267308D01*
X252063Y267221D01*
X247105Y262644D02*
X247010Y262702D01*
X246918Y262764D01*
X246827Y262828D01*
X246740Y262896D01*
X246654Y262967D01*
X246572Y263041D01*
X246492Y263118D01*
X246414Y263197D01*
X246340Y263280D01*
X246269Y263365D01*
X246201Y263452D01*
X246136Y263542D01*
X246074Y263634D01*
X246015Y263729D01*
X245960Y263825D01*
X245909Y263923D01*
X245861Y264023D01*
X245816Y264125D01*
X245776Y264228D01*
X245738Y264333D01*
X245705Y264438D01*
X245676Y264545D01*
X245650Y264653D01*
X245629Y264762D01*
X245611Y264872D01*
X245597Y264982D01*
X245587Y265092D01*
X245581Y265203D01*
X245579Y265314D01*
X251300Y260356D02*
X251395Y260298D01*
X251487Y260236D01*
X251578Y260172D01*
X251665Y260104D01*
X251751Y260033D01*
X251833Y259959D01*
X251913Y259882D01*
X251991Y259803D01*
X252065Y259720D01*
X252136Y259635D01*
X252204Y259548D01*
X252269Y259458D01*
X252331Y259366D01*
X252390Y259271D01*
X252445Y259175D01*
X252496Y259077D01*
X252544Y258977D01*
X252589Y258875D01*
X252629Y258772D01*
X252667Y258667D01*
X252700Y258562D01*
X252729Y258455D01*
X252755Y258347D01*
X252776Y258238D01*
X252794Y258128D01*
X252808Y258018D01*
X252818Y257908D01*
X252824Y257797D01*
X252826Y257686D01*
X251300Y260356D02*
X247105Y262644D01*
X259362Y268365D02*
X259362Y254635D01*
X260887Y254635D02*
X257836Y254635D01*
X257836Y268365D02*
X260887Y268365D01*
X60077Y597535D02*
X53975Y597535D01*
X53975Y611265D01*
X60077Y611265D01*
X58552Y605163D02*
X53975Y605163D01*
X64435Y597535D02*
X73588Y611265D01*
X64435Y611265D02*
X73588Y597535D01*
X78835Y602874D02*
X87988Y602874D01*
X95111Y597535D02*
X95111Y611265D01*
X93586Y597535D02*
X96637Y597535D01*
X96637Y611265D02*
X93586Y611265D01*
X102548Y611265D02*
X102548Y597535D01*
X110175Y597535D02*
X102548Y611265D01*
X110175Y611265D02*
X110175Y597535D01*
X115910Y596009D02*
X122013Y596009D01*
X127298Y608214D02*
X131111Y611265D01*
X131111Y597535D01*
X127298Y597535D02*
X134925Y597535D01*
X57537Y389255D02*
X51435Y389255D01*
X51435Y402985D01*
X57537Y402985D01*
X56012Y396883D02*
X51435Y396883D01*
X61895Y389255D02*
X71048Y402985D01*
X61895Y402985D02*
X71048Y389255D01*
X76295Y394594D02*
X85448Y394594D01*
X92571Y389255D02*
X92571Y402985D01*
X91046Y389255D02*
X94097Y389255D01*
X94097Y402985D02*
X91046Y402985D01*
X100008Y402985D02*
X100008Y389255D01*
X107635Y389255D02*
X100008Y402985D01*
X107635Y402985D02*
X107635Y389255D01*
X113370Y387729D02*
X119473Y387729D01*
X132386Y399553D02*
X132384Y399668D01*
X132378Y399782D01*
X132369Y399897D01*
X132355Y400011D01*
X132338Y400124D01*
X132317Y400237D01*
X132292Y400349D01*
X132264Y400460D01*
X132232Y400570D01*
X132196Y400679D01*
X132157Y400787D01*
X132114Y400893D01*
X132067Y400998D01*
X132017Y401101D01*
X131964Y401203D01*
X131907Y401303D01*
X131847Y401400D01*
X131783Y401496D01*
X131717Y401589D01*
X131647Y401681D01*
X131575Y401769D01*
X131499Y401856D01*
X131421Y401940D01*
X131340Y402021D01*
X131256Y402099D01*
X131169Y402175D01*
X131081Y402247D01*
X130989Y402317D01*
X130896Y402383D01*
X130800Y402447D01*
X130703Y402507D01*
X130603Y402564D01*
X130501Y402617D01*
X130398Y402667D01*
X130293Y402714D01*
X130187Y402757D01*
X130079Y402796D01*
X129970Y402832D01*
X129860Y402864D01*
X129749Y402892D01*
X129637Y402917D01*
X129524Y402938D01*
X129411Y402955D01*
X129297Y402969D01*
X129182Y402978D01*
X129068Y402984D01*
X128953Y402986D01*
X128953Y402985D02*
X128821Y402983D01*
X128689Y402977D01*
X128557Y402967D01*
X128426Y402953D01*
X128295Y402936D01*
X128165Y402914D01*
X128035Y402888D01*
X127907Y402859D01*
X127779Y402826D01*
X127652Y402789D01*
X127527Y402748D01*
X127402Y402703D01*
X127279Y402655D01*
X127158Y402603D01*
X127038Y402548D01*
X126920Y402489D01*
X126804Y402426D01*
X126690Y402360D01*
X126577Y402290D01*
X126467Y402218D01*
X126359Y402142D01*
X126254Y402062D01*
X126150Y401980D01*
X126050Y401894D01*
X125952Y401806D01*
X125856Y401715D01*
X125764Y401621D01*
X125674Y401524D01*
X125587Y401424D01*
X125503Y401322D01*
X125423Y401218D01*
X125345Y401111D01*
X125271Y401002D01*
X125200Y400890D01*
X125132Y400777D01*
X125068Y400662D01*
X125007Y400544D01*
X124950Y400425D01*
X124896Y400305D01*
X124846Y400182D01*
X124800Y400059D01*
X124758Y399934D01*
X131241Y396883D02*
X131326Y396967D01*
X131408Y397053D01*
X131488Y397142D01*
X131564Y397234D01*
X131638Y397328D01*
X131709Y397424D01*
X131776Y397523D01*
X131840Y397624D01*
X131901Y397727D01*
X131958Y397831D01*
X132012Y397938D01*
X132063Y398046D01*
X132110Y398156D01*
X132153Y398267D01*
X132193Y398380D01*
X132229Y398493D01*
X132262Y398608D01*
X132291Y398724D01*
X132316Y398841D01*
X132337Y398958D01*
X132354Y399077D01*
X132368Y399195D01*
X132377Y399314D01*
X132383Y399434D01*
X132385Y399553D01*
X131241Y396883D02*
X124758Y389255D01*
X132385Y389255D01*
X54997Y168275D02*
X48895Y168275D01*
X48895Y182005D01*
X54997Y182005D01*
X53472Y175903D02*
X48895Y175903D01*
X59355Y168275D02*
X68508Y182005D01*
X59355Y182005D02*
X68508Y168275D01*
X73755Y173614D02*
X82908Y173614D01*
X90031Y168275D02*
X90031Y182005D01*
X88506Y168275D02*
X91557Y168275D01*
X91557Y182005D02*
X88506Y182005D01*
X97468Y182005D02*
X97468Y168275D01*
X105095Y168275D02*
X97468Y182005D01*
X105095Y182005D02*
X105095Y168275D01*
X110830Y166749D02*
X116933Y166749D01*
X122218Y168275D02*
X126031Y168275D01*
X126153Y168277D01*
X126275Y168283D01*
X126397Y168293D01*
X126519Y168306D01*
X126640Y168324D01*
X126760Y168345D01*
X126880Y168371D01*
X126998Y168400D01*
X127116Y168433D01*
X127233Y168469D01*
X127348Y168510D01*
X127462Y168554D01*
X127575Y168601D01*
X127686Y168653D01*
X127795Y168708D01*
X127903Y168766D01*
X128008Y168827D01*
X128112Y168893D01*
X128213Y168961D01*
X128312Y169032D01*
X128409Y169107D01*
X128503Y169185D01*
X128595Y169266D01*
X128684Y169349D01*
X128771Y169436D01*
X128854Y169525D01*
X128935Y169617D01*
X129013Y169711D01*
X129088Y169808D01*
X129159Y169907D01*
X129227Y170008D01*
X129293Y170112D01*
X129354Y170217D01*
X129412Y170325D01*
X129467Y170434D01*
X129519Y170545D01*
X129566Y170658D01*
X129610Y170772D01*
X129651Y170887D01*
X129687Y171004D01*
X129720Y171122D01*
X129749Y171240D01*
X129775Y171360D01*
X129796Y171480D01*
X129814Y171601D01*
X129827Y171723D01*
X129837Y171845D01*
X129843Y171967D01*
X129845Y172089D01*
X129843Y172211D01*
X129837Y172333D01*
X129827Y172455D01*
X129814Y172577D01*
X129796Y172698D01*
X129775Y172818D01*
X129749Y172938D01*
X129720Y173056D01*
X129687Y173174D01*
X129651Y173291D01*
X129610Y173406D01*
X129566Y173520D01*
X129519Y173633D01*
X129467Y173744D01*
X129412Y173853D01*
X129354Y173961D01*
X129293Y174066D01*
X129227Y174170D01*
X129159Y174271D01*
X129088Y174370D01*
X129013Y174467D01*
X128935Y174561D01*
X128854Y174653D01*
X128771Y174742D01*
X128684Y174829D01*
X128595Y174912D01*
X128503Y174993D01*
X128409Y175071D01*
X128312Y175146D01*
X128213Y175217D01*
X128112Y175285D01*
X128008Y175351D01*
X127903Y175412D01*
X127795Y175470D01*
X127686Y175525D01*
X127575Y175577D01*
X127462Y175624D01*
X127348Y175668D01*
X127233Y175709D01*
X127116Y175745D01*
X126998Y175778D01*
X126880Y175807D01*
X126760Y175833D01*
X126640Y175854D01*
X126519Y175872D01*
X126397Y175885D01*
X126275Y175895D01*
X126153Y175901D01*
X126031Y175903D01*
X126794Y182005D02*
X122218Y182005D01*
X126794Y182005D02*
X126903Y182003D01*
X127012Y181997D01*
X127120Y181988D01*
X127228Y181974D01*
X127336Y181957D01*
X127443Y181935D01*
X127549Y181910D01*
X127654Y181881D01*
X127758Y181849D01*
X127860Y181813D01*
X127962Y181773D01*
X128061Y181729D01*
X128160Y181682D01*
X128256Y181632D01*
X128351Y181578D01*
X128443Y181521D01*
X128534Y181460D01*
X128622Y181396D01*
X128708Y181330D01*
X128792Y181260D01*
X128873Y181187D01*
X128951Y181111D01*
X129027Y181033D01*
X129100Y180952D01*
X129170Y180868D01*
X129236Y180782D01*
X129300Y180694D01*
X129361Y180603D01*
X129418Y180511D01*
X129472Y180416D01*
X129522Y180320D01*
X129569Y180221D01*
X129613Y180122D01*
X129653Y180020D01*
X129689Y179918D01*
X129721Y179814D01*
X129750Y179709D01*
X129775Y179603D01*
X129797Y179496D01*
X129814Y179388D01*
X129828Y179280D01*
X129837Y179172D01*
X129843Y179063D01*
X129845Y178954D01*
X129843Y178845D01*
X129837Y178736D01*
X129828Y178628D01*
X129814Y178520D01*
X129797Y178412D01*
X129775Y178305D01*
X129750Y178199D01*
X129721Y178094D01*
X129689Y177990D01*
X129653Y177888D01*
X129613Y177786D01*
X129569Y177687D01*
X129522Y177588D01*
X129472Y177492D01*
X129418Y177397D01*
X129361Y177305D01*
X129300Y177214D01*
X129236Y177126D01*
X129170Y177040D01*
X129100Y176956D01*
X129027Y176875D01*
X128951Y176797D01*
X128873Y176721D01*
X128792Y176648D01*
X128708Y176578D01*
X128622Y176512D01*
X128534Y176448D01*
X128443Y176387D01*
X128351Y176330D01*
X128256Y176276D01*
X128160Y176226D01*
X128061Y176179D01*
X127962Y176135D01*
X127860Y176095D01*
X127758Y176059D01*
X127654Y176027D01*
X127549Y175998D01*
X127443Y175973D01*
X127336Y175951D01*
X127228Y175934D01*
X127120Y175920D01*
X127012Y175911D01*
X126903Y175905D01*
X126794Y175903D01*
X123743Y175903D01*
X79375Y846455D02*
X79375Y860185D01*
X83189Y860185D01*
X83311Y860183D01*
X83433Y860177D01*
X83555Y860167D01*
X83677Y860154D01*
X83798Y860136D01*
X83918Y860115D01*
X84038Y860089D01*
X84156Y860060D01*
X84274Y860027D01*
X84391Y859991D01*
X84506Y859950D01*
X84620Y859906D01*
X84733Y859859D01*
X84844Y859807D01*
X84953Y859752D01*
X85061Y859694D01*
X85166Y859633D01*
X85270Y859567D01*
X85371Y859499D01*
X85470Y859428D01*
X85567Y859353D01*
X85661Y859275D01*
X85753Y859194D01*
X85842Y859111D01*
X85929Y859024D01*
X86012Y858935D01*
X86093Y858843D01*
X86171Y858749D01*
X86246Y858652D01*
X86317Y858553D01*
X86385Y858452D01*
X86451Y858348D01*
X86512Y858243D01*
X86570Y858135D01*
X86625Y858026D01*
X86677Y857915D01*
X86724Y857802D01*
X86768Y857688D01*
X86809Y857573D01*
X86845Y857456D01*
X86878Y857338D01*
X86907Y857220D01*
X86933Y857100D01*
X86954Y856980D01*
X86972Y856859D01*
X86985Y856737D01*
X86995Y856615D01*
X87001Y856493D01*
X87003Y856371D01*
X87001Y856249D01*
X86995Y856127D01*
X86985Y856005D01*
X86972Y855883D01*
X86954Y855762D01*
X86933Y855642D01*
X86907Y855522D01*
X86878Y855404D01*
X86845Y855286D01*
X86809Y855169D01*
X86768Y855054D01*
X86724Y854940D01*
X86677Y854827D01*
X86625Y854716D01*
X86570Y854607D01*
X86512Y854499D01*
X86451Y854394D01*
X86385Y854290D01*
X86317Y854189D01*
X86246Y854090D01*
X86171Y853993D01*
X86093Y853899D01*
X86012Y853807D01*
X85929Y853718D01*
X85842Y853631D01*
X85753Y853548D01*
X85661Y853467D01*
X85567Y853389D01*
X85470Y853314D01*
X85371Y853243D01*
X85270Y853175D01*
X85166Y853109D01*
X85061Y853048D01*
X84953Y852990D01*
X84844Y852935D01*
X84733Y852883D01*
X84620Y852836D01*
X84506Y852792D01*
X84391Y852751D01*
X84274Y852715D01*
X84156Y852682D01*
X84038Y852653D01*
X83918Y852627D01*
X83798Y852606D01*
X83677Y852588D01*
X83555Y852575D01*
X83433Y852565D01*
X83311Y852559D01*
X83189Y852557D01*
X79375Y852557D01*
X95133Y846455D02*
X95133Y860185D01*
X91319Y860185D02*
X98947Y860185D01*
X103919Y857134D02*
X107733Y860185D01*
X107733Y846455D01*
X103919Y846455D02*
X111547Y846455D01*
X117420Y853320D02*
X117423Y853590D01*
X117433Y853860D01*
X117449Y854130D01*
X117472Y854399D01*
X117501Y854667D01*
X117536Y854935D01*
X117578Y855202D01*
X117626Y855468D01*
X117680Y855732D01*
X117741Y855995D01*
X117808Y856257D01*
X117881Y856517D01*
X117961Y856775D01*
X118046Y857031D01*
X118138Y857286D01*
X118235Y857537D01*
X118339Y857787D01*
X118449Y858034D01*
X118564Y858278D01*
X118600Y858378D01*
X118640Y858476D01*
X118683Y858573D01*
X118731Y858668D01*
X118782Y858761D01*
X118836Y858852D01*
X118893Y858941D01*
X118954Y859028D01*
X119019Y859112D01*
X119086Y859194D01*
X119156Y859274D01*
X119230Y859350D01*
X119306Y859424D01*
X119385Y859495D01*
X119466Y859563D01*
X119550Y859628D01*
X119636Y859690D01*
X119725Y859748D01*
X119815Y859803D01*
X119908Y859855D01*
X120003Y859903D01*
X120099Y859947D01*
X120197Y859988D01*
X120296Y860025D01*
X120397Y860058D01*
X120499Y860088D01*
X120602Y860114D01*
X120706Y860135D01*
X120810Y860153D01*
X120915Y860167D01*
X121021Y860177D01*
X121127Y860183D01*
X121233Y860185D01*
X121339Y860183D01*
X121445Y860177D01*
X121551Y860167D01*
X121656Y860153D01*
X121760Y860135D01*
X121864Y860114D01*
X121967Y860088D01*
X122069Y860058D01*
X122170Y860025D01*
X122269Y859988D01*
X122367Y859947D01*
X122463Y859903D01*
X122558Y859855D01*
X122651Y859803D01*
X122741Y859748D01*
X122830Y859690D01*
X122916Y859628D01*
X123000Y859563D01*
X123082Y859495D01*
X123160Y859424D01*
X123236Y859350D01*
X123310Y859274D01*
X123380Y859194D01*
X123447Y859112D01*
X123512Y859028D01*
X123573Y858941D01*
X123630Y858852D01*
X123684Y858761D01*
X123735Y858668D01*
X123783Y858573D01*
X123826Y858476D01*
X123866Y858378D01*
X123902Y858278D01*
X124017Y858034D01*
X124127Y857787D01*
X124231Y857537D01*
X124328Y857286D01*
X124420Y857031D01*
X124505Y856775D01*
X124585Y856517D01*
X124658Y856257D01*
X124725Y855995D01*
X124786Y855732D01*
X124840Y855468D01*
X124888Y855202D01*
X124930Y854935D01*
X124965Y854667D01*
X124994Y854399D01*
X125017Y854130D01*
X125033Y853860D01*
X125043Y853590D01*
X125046Y853320D01*
X117419Y853320D02*
X117422Y853050D01*
X117432Y852780D01*
X117448Y852510D01*
X117471Y852241D01*
X117500Y851973D01*
X117535Y851705D01*
X117577Y851438D01*
X117625Y851172D01*
X117679Y850908D01*
X117740Y850644D01*
X117807Y850383D01*
X117880Y850123D01*
X117960Y849864D01*
X118045Y849608D01*
X118137Y849354D01*
X118234Y849102D01*
X118338Y848853D01*
X118448Y848606D01*
X118563Y848362D01*
X118564Y848362D02*
X118600Y848262D01*
X118640Y848164D01*
X118684Y848067D01*
X118731Y847972D01*
X118782Y847879D01*
X118836Y847788D01*
X118894Y847699D01*
X118954Y847612D01*
X119019Y847528D01*
X119086Y847446D01*
X119156Y847366D01*
X119230Y847290D01*
X119306Y847216D01*
X119385Y847145D01*
X119466Y847077D01*
X119550Y847012D01*
X119636Y846950D01*
X119725Y846892D01*
X119815Y846837D01*
X119908Y846785D01*
X120003Y846737D01*
X120099Y846693D01*
X120197Y846652D01*
X120296Y846615D01*
X120397Y846582D01*
X120499Y846552D01*
X120602Y846526D01*
X120706Y846505D01*
X120810Y846487D01*
X120915Y846473D01*
X121021Y846463D01*
X121127Y846457D01*
X121233Y846455D01*
X123903Y848362D02*
X124018Y848606D01*
X124128Y848853D01*
X124232Y849102D01*
X124329Y849354D01*
X124421Y849608D01*
X124506Y849864D01*
X124586Y850123D01*
X124659Y850383D01*
X124726Y850644D01*
X124787Y850908D01*
X124841Y851172D01*
X124889Y851438D01*
X124931Y851705D01*
X124966Y851973D01*
X124995Y852241D01*
X125018Y852510D01*
X125034Y852780D01*
X125044Y853050D01*
X125047Y853320D01*
X123902Y848362D02*
X123866Y848262D01*
X123826Y848164D01*
X123783Y848067D01*
X123735Y847972D01*
X123684Y847879D01*
X123630Y847788D01*
X123573Y847699D01*
X123512Y847612D01*
X123447Y847528D01*
X123380Y847446D01*
X123310Y847366D01*
X123236Y847290D01*
X123160Y847216D01*
X123082Y847145D01*
X123000Y847077D01*
X122916Y847012D01*
X122830Y846950D01*
X122741Y846892D01*
X122651Y846837D01*
X122558Y846785D01*
X122463Y846737D01*
X122367Y846693D01*
X122269Y846652D01*
X122170Y846615D01*
X122069Y846582D01*
X121967Y846552D01*
X121864Y846526D01*
X121760Y846505D01*
X121656Y846487D01*
X121551Y846473D01*
X121445Y846463D01*
X121339Y846457D01*
X121233Y846455D01*
X118182Y849506D02*
X124284Y857134D01*
X130920Y853320D02*
X130923Y853590D01*
X130933Y853860D01*
X130949Y854130D01*
X130972Y854399D01*
X131001Y854667D01*
X131036Y854935D01*
X131078Y855202D01*
X131126Y855468D01*
X131180Y855732D01*
X131241Y855995D01*
X131308Y856257D01*
X131381Y856517D01*
X131461Y856775D01*
X131546Y857031D01*
X131638Y857286D01*
X131735Y857537D01*
X131839Y857787D01*
X131949Y858034D01*
X132064Y858278D01*
X132100Y858378D01*
X132140Y858476D01*
X132183Y858573D01*
X132231Y858668D01*
X132282Y858761D01*
X132336Y858852D01*
X132393Y858941D01*
X132454Y859028D01*
X132519Y859112D01*
X132586Y859194D01*
X132656Y859274D01*
X132730Y859350D01*
X132806Y859424D01*
X132885Y859495D01*
X132966Y859563D01*
X133050Y859628D01*
X133136Y859690D01*
X133225Y859748D01*
X133315Y859803D01*
X133408Y859855D01*
X133503Y859903D01*
X133599Y859947D01*
X133697Y859988D01*
X133796Y860025D01*
X133897Y860058D01*
X133999Y860088D01*
X134102Y860114D01*
X134206Y860135D01*
X134310Y860153D01*
X134415Y860167D01*
X134521Y860177D01*
X134627Y860183D01*
X134733Y860185D01*
X134839Y860183D01*
X134945Y860177D01*
X135051Y860167D01*
X135156Y860153D01*
X135260Y860135D01*
X135364Y860114D01*
X135467Y860088D01*
X135569Y860058D01*
X135670Y860025D01*
X135769Y859988D01*
X135867Y859947D01*
X135963Y859903D01*
X136058Y859855D01*
X136151Y859803D01*
X136241Y859748D01*
X136330Y859690D01*
X136416Y859628D01*
X136500Y859563D01*
X136582Y859495D01*
X136660Y859424D01*
X136736Y859350D01*
X136810Y859274D01*
X136880Y859194D01*
X136947Y859112D01*
X137012Y859028D01*
X137073Y858941D01*
X137130Y858852D01*
X137184Y858761D01*
X137235Y858668D01*
X137283Y858573D01*
X137326Y858476D01*
X137366Y858378D01*
X137402Y858278D01*
X137517Y858034D01*
X137627Y857787D01*
X137731Y857537D01*
X137828Y857286D01*
X137920Y857031D01*
X138005Y856775D01*
X138085Y856517D01*
X138158Y856257D01*
X138225Y855995D01*
X138286Y855732D01*
X138340Y855468D01*
X138388Y855202D01*
X138430Y854935D01*
X138465Y854667D01*
X138494Y854399D01*
X138517Y854130D01*
X138533Y853860D01*
X138543Y853590D01*
X138546Y853320D01*
X130919Y853320D02*
X130922Y853050D01*
X130932Y852780D01*
X130948Y852510D01*
X130971Y852241D01*
X131000Y851973D01*
X131035Y851705D01*
X131077Y851438D01*
X131125Y851172D01*
X131179Y850908D01*
X131240Y850644D01*
X131307Y850383D01*
X131380Y850123D01*
X131460Y849864D01*
X131545Y849608D01*
X131637Y849354D01*
X131734Y849102D01*
X131838Y848853D01*
X131948Y848606D01*
X132063Y848362D01*
X132064Y848362D02*
X132100Y848262D01*
X132140Y848164D01*
X132184Y848067D01*
X132231Y847972D01*
X132282Y847879D01*
X132336Y847788D01*
X132394Y847699D01*
X132454Y847612D01*
X132519Y847528D01*
X132586Y847446D01*
X132656Y847366D01*
X132730Y847290D01*
X132806Y847216D01*
X132885Y847145D01*
X132966Y847077D01*
X133050Y847012D01*
X133136Y846950D01*
X133225Y846892D01*
X133315Y846837D01*
X133408Y846785D01*
X133503Y846737D01*
X133599Y846693D01*
X133697Y846652D01*
X133796Y846615D01*
X133897Y846582D01*
X133999Y846552D01*
X134102Y846526D01*
X134206Y846505D01*
X134310Y846487D01*
X134415Y846473D01*
X134521Y846463D01*
X134627Y846457D01*
X134733Y846455D01*
X137403Y848362D02*
X137518Y848606D01*
X137628Y848853D01*
X137732Y849102D01*
X137829Y849354D01*
X137921Y849608D01*
X138006Y849864D01*
X138086Y850123D01*
X138159Y850383D01*
X138226Y850644D01*
X138287Y850908D01*
X138341Y851172D01*
X138389Y851438D01*
X138431Y851705D01*
X138466Y851973D01*
X138495Y852241D01*
X138518Y852510D01*
X138534Y852780D01*
X138544Y853050D01*
X138547Y853320D01*
X137402Y848362D02*
X137366Y848262D01*
X137326Y848164D01*
X137283Y848067D01*
X137235Y847972D01*
X137184Y847879D01*
X137130Y847788D01*
X137073Y847699D01*
X137012Y847612D01*
X136947Y847528D01*
X136880Y847446D01*
X136810Y847366D01*
X136736Y847290D01*
X136660Y847216D01*
X136582Y847145D01*
X136500Y847077D01*
X136416Y847012D01*
X136330Y846950D01*
X136241Y846892D01*
X136151Y846837D01*
X136058Y846785D01*
X135963Y846737D01*
X135867Y846693D01*
X135769Y846652D01*
X135670Y846615D01*
X135569Y846582D01*
X135467Y846552D01*
X135364Y846526D01*
X135260Y846505D01*
X135156Y846487D01*
X135051Y846473D01*
X134945Y846463D01*
X134839Y846457D01*
X134733Y846455D01*
X131682Y849506D02*
X137784Y857134D01*
D11*
X330581Y856051D02*
X333192Y858139D01*
X333192Y848741D01*
X335802Y848741D02*
X330581Y848741D01*
D10*
X221623Y160663D02*
X219334Y160663D01*
X221623Y160663D02*
X221623Y153035D01*
X217046Y153035D01*
X216937Y153037D01*
X216828Y153043D01*
X216720Y153052D01*
X216612Y153066D01*
X216504Y153083D01*
X216397Y153105D01*
X216291Y153130D01*
X216186Y153159D01*
X216082Y153191D01*
X215980Y153227D01*
X215878Y153267D01*
X215779Y153311D01*
X215680Y153358D01*
X215584Y153408D01*
X215489Y153462D01*
X215397Y153519D01*
X215306Y153580D01*
X215218Y153644D01*
X215132Y153710D01*
X215048Y153780D01*
X214967Y153853D01*
X214889Y153929D01*
X214813Y154007D01*
X214740Y154088D01*
X214670Y154172D01*
X214604Y154258D01*
X214540Y154346D01*
X214479Y154437D01*
X214422Y154529D01*
X214368Y154624D01*
X214318Y154720D01*
X214271Y154819D01*
X214227Y154918D01*
X214187Y155020D01*
X214151Y155122D01*
X214119Y155226D01*
X214090Y155331D01*
X214065Y155437D01*
X214043Y155544D01*
X214026Y155652D01*
X214012Y155760D01*
X214003Y155868D01*
X213997Y155977D01*
X213995Y156086D01*
X213995Y163714D01*
X213997Y163823D01*
X214003Y163932D01*
X214012Y164040D01*
X214026Y164148D01*
X214043Y164256D01*
X214065Y164363D01*
X214090Y164469D01*
X214119Y164574D01*
X214151Y164677D01*
X214187Y164780D01*
X214227Y164882D01*
X214271Y164981D01*
X214318Y165080D01*
X214368Y165176D01*
X214422Y165271D01*
X214479Y165363D01*
X214540Y165454D01*
X214604Y165542D01*
X214670Y165628D01*
X214740Y165712D01*
X214813Y165793D01*
X214889Y165871D01*
X214967Y165947D01*
X215048Y166020D01*
X215132Y166090D01*
X215218Y166156D01*
X215306Y166220D01*
X215396Y166281D01*
X215489Y166338D01*
X215584Y166392D01*
X215680Y166442D01*
X215779Y166489D01*
X215878Y166533D01*
X215980Y166573D01*
X216082Y166609D01*
X216186Y166641D01*
X216291Y166670D01*
X216397Y166695D01*
X216504Y166717D01*
X216612Y166734D01*
X216720Y166748D01*
X216828Y166757D01*
X216937Y166763D01*
X217046Y166765D01*
X221623Y166765D01*
X228395Y166765D02*
X228395Y153035D01*
X236023Y153035D02*
X228395Y166765D01*
X236023Y166765D02*
X236023Y153035D01*
X242795Y153035D02*
X242795Y166765D01*
X246609Y166765D01*
X246731Y166763D01*
X246853Y166757D01*
X246975Y166747D01*
X247097Y166734D01*
X247218Y166716D01*
X247338Y166695D01*
X247458Y166669D01*
X247576Y166640D01*
X247694Y166607D01*
X247811Y166571D01*
X247926Y166530D01*
X248040Y166486D01*
X248153Y166439D01*
X248264Y166387D01*
X248373Y166332D01*
X248481Y166274D01*
X248586Y166213D01*
X248690Y166147D01*
X248791Y166079D01*
X248890Y166008D01*
X248987Y165933D01*
X249081Y165855D01*
X249173Y165774D01*
X249262Y165691D01*
X249349Y165604D01*
X249432Y165515D01*
X249513Y165423D01*
X249591Y165329D01*
X249666Y165232D01*
X249737Y165133D01*
X249805Y165032D01*
X249871Y164928D01*
X249932Y164823D01*
X249990Y164715D01*
X250045Y164606D01*
X250097Y164495D01*
X250144Y164382D01*
X250188Y164268D01*
X250229Y164153D01*
X250265Y164036D01*
X250298Y163918D01*
X250327Y163800D01*
X250353Y163680D01*
X250374Y163560D01*
X250392Y163439D01*
X250405Y163317D01*
X250415Y163195D01*
X250421Y163073D01*
X250423Y162951D01*
X250423Y156849D01*
X250421Y156727D01*
X250415Y156605D01*
X250405Y156483D01*
X250392Y156361D01*
X250374Y156240D01*
X250353Y156120D01*
X250327Y156000D01*
X250298Y155882D01*
X250265Y155764D01*
X250229Y155647D01*
X250188Y155532D01*
X250144Y155418D01*
X250097Y155305D01*
X250045Y155194D01*
X249990Y155085D01*
X249932Y154977D01*
X249871Y154872D01*
X249805Y154768D01*
X249737Y154667D01*
X249666Y154568D01*
X249591Y154471D01*
X249513Y154377D01*
X249432Y154285D01*
X249349Y154196D01*
X249262Y154109D01*
X249173Y154026D01*
X249081Y153945D01*
X248987Y153867D01*
X248890Y153792D01*
X248791Y153721D01*
X248690Y153653D01*
X248586Y153587D01*
X248481Y153526D01*
X248373Y153468D01*
X248264Y153413D01*
X248153Y153361D01*
X248040Y153314D01*
X247926Y153270D01*
X247811Y153229D01*
X247694Y153193D01*
X247576Y153160D01*
X247458Y153131D01*
X247338Y153105D01*
X247218Y153084D01*
X247097Y153066D01*
X246975Y153053D01*
X246853Y153043D01*
X246731Y153037D01*
X246609Y153035D01*
X242795Y153035D01*
D12*
X169640Y582620D02*
X165640Y582620D01*
X165640Y575620D02*
X169640Y575620D01*
D13*
X166390Y581995D03*
D11*
X152941Y584421D02*
X152941Y593819D01*
X152941Y584421D02*
X157118Y584421D01*
X160866Y584421D02*
X165043Y584421D01*
X160866Y584421D02*
X160866Y593819D01*
X165043Y593819D01*
X163998Y589642D02*
X160866Y589642D01*
X168773Y593819D02*
X168773Y584421D01*
X168773Y593819D02*
X171384Y593819D01*
X171484Y593817D01*
X171584Y593811D01*
X171683Y593802D01*
X171783Y593788D01*
X171881Y593771D01*
X171979Y593750D01*
X172076Y593726D01*
X172172Y593697D01*
X172267Y593665D01*
X172360Y593630D01*
X172452Y593591D01*
X172543Y593548D01*
X172631Y593502D01*
X172718Y593452D01*
X172803Y593400D01*
X172886Y593344D01*
X172967Y593285D01*
X173045Y593222D01*
X173121Y593157D01*
X173195Y593089D01*
X173265Y593019D01*
X173333Y592945D01*
X173398Y592869D01*
X173461Y592791D01*
X173520Y592710D01*
X173576Y592627D01*
X173628Y592542D01*
X173678Y592455D01*
X173724Y592367D01*
X173767Y592276D01*
X173806Y592184D01*
X173841Y592091D01*
X173873Y591996D01*
X173902Y591900D01*
X173926Y591803D01*
X173947Y591705D01*
X173964Y591607D01*
X173978Y591507D01*
X173987Y591408D01*
X173993Y591308D01*
X173995Y591208D01*
X173994Y591208D02*
X173994Y587032D01*
X173995Y587032D02*
X173993Y586932D01*
X173987Y586832D01*
X173978Y586733D01*
X173964Y586633D01*
X173947Y586535D01*
X173926Y586437D01*
X173902Y586340D01*
X173873Y586244D01*
X173841Y586149D01*
X173806Y586056D01*
X173767Y585964D01*
X173724Y585873D01*
X173678Y585785D01*
X173628Y585698D01*
X173576Y585613D01*
X173520Y585530D01*
X173461Y585449D01*
X173398Y585371D01*
X173333Y585295D01*
X173265Y585221D01*
X173195Y585151D01*
X173121Y585083D01*
X173045Y585018D01*
X172967Y584955D01*
X172886Y584896D01*
X172803Y584840D01*
X172718Y584788D01*
X172631Y584738D01*
X172543Y584692D01*
X172452Y584649D01*
X172360Y584610D01*
X172267Y584575D01*
X172172Y584543D01*
X172076Y584514D01*
X171979Y584490D01*
X171881Y584469D01*
X171783Y584452D01*
X171683Y584438D01*
X171584Y584429D01*
X171484Y584423D01*
X171384Y584421D01*
X168773Y584421D01*
X178222Y591731D02*
X180832Y593819D01*
X180832Y584421D01*
X178222Y584421D02*
X183443Y584421D01*
X187365Y589120D02*
X187367Y589305D01*
X187374Y589490D01*
X187385Y589674D01*
X187400Y589858D01*
X187420Y590042D01*
X187444Y590226D01*
X187473Y590408D01*
X187506Y590590D01*
X187543Y590771D01*
X187585Y590951D01*
X187631Y591131D01*
X187681Y591309D01*
X187735Y591485D01*
X187794Y591661D01*
X187856Y591835D01*
X187923Y592007D01*
X187994Y592178D01*
X188069Y592347D01*
X188148Y592514D01*
X188178Y592594D01*
X188211Y592673D01*
X188248Y592750D01*
X188288Y592826D01*
X188331Y592900D01*
X188377Y592972D01*
X188427Y593041D01*
X188479Y593109D01*
X188535Y593174D01*
X188593Y593237D01*
X188655Y593296D01*
X188718Y593354D01*
X188785Y593408D01*
X188853Y593459D01*
X188924Y593507D01*
X188997Y593552D01*
X189071Y593594D01*
X189148Y593632D01*
X189226Y593667D01*
X189305Y593699D01*
X189386Y593727D01*
X189468Y593751D01*
X189552Y593772D01*
X189635Y593789D01*
X189720Y593802D01*
X189805Y593811D01*
X189890Y593817D01*
X189976Y593819D01*
X190062Y593817D01*
X190147Y593811D01*
X190232Y593802D01*
X190317Y593789D01*
X190400Y593772D01*
X190484Y593751D01*
X190566Y593727D01*
X190647Y593699D01*
X190726Y593667D01*
X190804Y593632D01*
X190881Y593594D01*
X190955Y593552D01*
X191028Y593507D01*
X191099Y593459D01*
X191167Y593408D01*
X191234Y593354D01*
X191297Y593296D01*
X191359Y593237D01*
X191417Y593174D01*
X191473Y593109D01*
X191525Y593041D01*
X191575Y592972D01*
X191621Y592900D01*
X191664Y592826D01*
X191704Y592750D01*
X191741Y592673D01*
X191774Y592594D01*
X191804Y592514D01*
X191883Y592347D01*
X191958Y592178D01*
X192029Y592007D01*
X192096Y591835D01*
X192158Y591661D01*
X192217Y591485D01*
X192271Y591309D01*
X192321Y591131D01*
X192367Y590951D01*
X192409Y590771D01*
X192446Y590590D01*
X192479Y590408D01*
X192508Y590226D01*
X192532Y590042D01*
X192552Y589858D01*
X192567Y589674D01*
X192578Y589490D01*
X192585Y589305D01*
X192587Y589120D01*
X187366Y589120D02*
X187368Y588935D01*
X187375Y588750D01*
X187386Y588566D01*
X187401Y588382D01*
X187421Y588198D01*
X187445Y588014D01*
X187474Y587832D01*
X187507Y587650D01*
X187544Y587469D01*
X187586Y587289D01*
X187632Y587109D01*
X187682Y586931D01*
X187736Y586755D01*
X187795Y586579D01*
X187857Y586405D01*
X187924Y586233D01*
X187995Y586062D01*
X188070Y585893D01*
X188149Y585726D01*
X188148Y585726D02*
X188178Y585646D01*
X188211Y585567D01*
X188248Y585490D01*
X188288Y585414D01*
X188331Y585340D01*
X188377Y585268D01*
X188427Y585199D01*
X188480Y585131D01*
X188535Y585066D01*
X188594Y585003D01*
X188655Y584944D01*
X188718Y584886D01*
X188785Y584832D01*
X188853Y584781D01*
X188924Y584733D01*
X188997Y584688D01*
X189071Y584646D01*
X189148Y584608D01*
X189226Y584573D01*
X189305Y584541D01*
X189386Y584513D01*
X189468Y584489D01*
X189552Y584468D01*
X189635Y584451D01*
X189720Y584438D01*
X189805Y584429D01*
X189890Y584423D01*
X189976Y584421D01*
X191804Y585726D02*
X191883Y585893D01*
X191958Y586062D01*
X192029Y586233D01*
X192096Y586405D01*
X192158Y586579D01*
X192217Y586755D01*
X192271Y586931D01*
X192321Y587109D01*
X192367Y587289D01*
X192409Y587469D01*
X192446Y587650D01*
X192479Y587832D01*
X192508Y588014D01*
X192532Y588198D01*
X192552Y588382D01*
X192567Y588566D01*
X192578Y588750D01*
X192585Y588935D01*
X192587Y589120D01*
X191804Y585726D02*
X191774Y585646D01*
X191741Y585567D01*
X191704Y585490D01*
X191664Y585414D01*
X191621Y585340D01*
X191575Y585268D01*
X191525Y585199D01*
X191473Y585131D01*
X191417Y585066D01*
X191359Y585003D01*
X191297Y584944D01*
X191234Y584886D01*
X191167Y584832D01*
X191099Y584781D01*
X191028Y584733D01*
X190955Y584688D01*
X190881Y584646D01*
X190804Y584608D01*
X190726Y584573D01*
X190647Y584541D01*
X190566Y584513D01*
X190484Y584489D01*
X190400Y584468D01*
X190317Y584451D01*
X190232Y584438D01*
X190147Y584429D01*
X190062Y584423D01*
X189976Y584421D01*
X187888Y586509D02*
X192065Y591731D01*
X196510Y591731D02*
X199120Y593819D01*
X199120Y584421D01*
X196510Y584421D02*
X201731Y584421D01*
D14*
X323850Y23368D02*
X342900Y23368D01*
X323850Y23368D02*
X285750Y23368D01*
X285750Y861568D01*
X323850Y861568D01*
X342900Y861568D01*
X342900Y23368D01*
X323850Y23368D02*
X323850Y861568D01*
D11*
X306366Y875157D02*
X300101Y865759D01*
X306366Y865759D02*
X300101Y875157D01*
X309767Y873069D02*
X312378Y875157D01*
X312378Y865759D01*
X314988Y865759D02*
X309767Y865759D01*
X318911Y870458D02*
X318913Y870643D01*
X318920Y870828D01*
X318931Y871012D01*
X318946Y871196D01*
X318966Y871380D01*
X318990Y871564D01*
X319019Y871746D01*
X319052Y871928D01*
X319089Y872109D01*
X319131Y872289D01*
X319177Y872469D01*
X319227Y872647D01*
X319281Y872823D01*
X319340Y872999D01*
X319402Y873173D01*
X319469Y873345D01*
X319540Y873516D01*
X319615Y873685D01*
X319694Y873852D01*
X319724Y873932D01*
X319757Y874011D01*
X319794Y874088D01*
X319834Y874164D01*
X319877Y874238D01*
X319923Y874310D01*
X319973Y874379D01*
X320025Y874447D01*
X320081Y874512D01*
X320139Y874575D01*
X320201Y874634D01*
X320264Y874692D01*
X320331Y874746D01*
X320399Y874797D01*
X320470Y874845D01*
X320543Y874890D01*
X320617Y874932D01*
X320694Y874970D01*
X320772Y875005D01*
X320851Y875037D01*
X320932Y875065D01*
X321014Y875089D01*
X321098Y875110D01*
X321181Y875127D01*
X321266Y875140D01*
X321351Y875149D01*
X321436Y875155D01*
X321522Y875157D01*
X321608Y875155D01*
X321693Y875149D01*
X321778Y875140D01*
X321863Y875127D01*
X321946Y875110D01*
X322030Y875089D01*
X322112Y875065D01*
X322193Y875037D01*
X322272Y875005D01*
X322350Y874970D01*
X322427Y874932D01*
X322501Y874890D01*
X322574Y874845D01*
X322645Y874797D01*
X322713Y874746D01*
X322780Y874692D01*
X322843Y874634D01*
X322905Y874575D01*
X322963Y874512D01*
X323019Y874447D01*
X323071Y874379D01*
X323121Y874310D01*
X323167Y874238D01*
X323210Y874164D01*
X323250Y874088D01*
X323287Y874011D01*
X323320Y873932D01*
X323350Y873852D01*
X323349Y873852D02*
X323428Y873685D01*
X323503Y873516D01*
X323574Y873345D01*
X323641Y873173D01*
X323703Y872999D01*
X323762Y872823D01*
X323816Y872647D01*
X323866Y872469D01*
X323912Y872289D01*
X323954Y872109D01*
X323991Y871928D01*
X324024Y871746D01*
X324053Y871564D01*
X324077Y871380D01*
X324097Y871196D01*
X324112Y871012D01*
X324123Y870828D01*
X324130Y870643D01*
X324132Y870458D01*
X318911Y870458D02*
X318913Y870273D01*
X318920Y870088D01*
X318931Y869904D01*
X318946Y869720D01*
X318966Y869536D01*
X318990Y869352D01*
X319019Y869170D01*
X319052Y868988D01*
X319089Y868807D01*
X319131Y868627D01*
X319177Y868447D01*
X319227Y868269D01*
X319281Y868093D01*
X319340Y867917D01*
X319402Y867743D01*
X319469Y867571D01*
X319540Y867400D01*
X319615Y867231D01*
X319694Y867064D01*
X319724Y866984D01*
X319757Y866905D01*
X319794Y866828D01*
X319834Y866752D01*
X319877Y866678D01*
X319923Y866606D01*
X319973Y866537D01*
X320026Y866469D01*
X320081Y866404D01*
X320140Y866341D01*
X320201Y866282D01*
X320264Y866224D01*
X320331Y866170D01*
X320399Y866119D01*
X320470Y866071D01*
X320543Y866026D01*
X320617Y865984D01*
X320694Y865946D01*
X320772Y865911D01*
X320851Y865879D01*
X320932Y865851D01*
X321014Y865827D01*
X321098Y865806D01*
X321181Y865789D01*
X321266Y865776D01*
X321351Y865767D01*
X321436Y865761D01*
X321522Y865759D01*
X323349Y867064D02*
X323428Y867231D01*
X323503Y867400D01*
X323574Y867571D01*
X323641Y867743D01*
X323703Y867917D01*
X323762Y868093D01*
X323816Y868269D01*
X323866Y868447D01*
X323912Y868627D01*
X323954Y868807D01*
X323991Y868988D01*
X324024Y869170D01*
X324053Y869352D01*
X324077Y869536D01*
X324097Y869720D01*
X324112Y869904D01*
X324123Y870088D01*
X324130Y870273D01*
X324132Y870458D01*
X323350Y867064D02*
X323320Y866984D01*
X323287Y866905D01*
X323250Y866828D01*
X323210Y866752D01*
X323167Y866678D01*
X323121Y866606D01*
X323071Y866537D01*
X323019Y866469D01*
X322963Y866404D01*
X322905Y866341D01*
X322843Y866282D01*
X322780Y866224D01*
X322713Y866170D01*
X322645Y866119D01*
X322574Y866071D01*
X322501Y866026D01*
X322427Y865984D01*
X322350Y865946D01*
X322272Y865911D01*
X322193Y865879D01*
X322112Y865851D01*
X322030Y865827D01*
X321946Y865806D01*
X321863Y865789D01*
X321778Y865776D01*
X321693Y865767D01*
X321608Y865761D01*
X321522Y865759D01*
X319433Y867847D02*
X323610Y873069D01*
X328055Y865759D02*
X331188Y865759D01*
X331277Y865761D01*
X331365Y865767D01*
X331453Y865776D01*
X331541Y865789D01*
X331628Y865806D01*
X331714Y865826D01*
X331799Y865851D01*
X331884Y865878D01*
X331967Y865910D01*
X332048Y865944D01*
X332128Y865983D01*
X332206Y866024D01*
X332283Y866069D01*
X332357Y866117D01*
X332430Y866168D01*
X332500Y866222D01*
X332567Y866280D01*
X332633Y866340D01*
X332695Y866402D01*
X332755Y866468D01*
X332813Y866535D01*
X332867Y866605D01*
X332918Y866678D01*
X332966Y866752D01*
X333011Y866829D01*
X333052Y866907D01*
X333091Y866987D01*
X333125Y867068D01*
X333157Y867151D01*
X333184Y867236D01*
X333209Y867321D01*
X333229Y867407D01*
X333246Y867494D01*
X333259Y867582D01*
X333268Y867670D01*
X333274Y867758D01*
X333276Y867847D01*
X333276Y868892D01*
X333274Y868981D01*
X333268Y869069D01*
X333259Y869157D01*
X333246Y869245D01*
X333229Y869332D01*
X333209Y869418D01*
X333184Y869503D01*
X333157Y869588D01*
X333125Y869671D01*
X333091Y869752D01*
X333052Y869832D01*
X333011Y869910D01*
X332966Y869987D01*
X332918Y870061D01*
X332867Y870134D01*
X332813Y870204D01*
X332755Y870271D01*
X332695Y870337D01*
X332633Y870399D01*
X332567Y870459D01*
X332500Y870517D01*
X332430Y870571D01*
X332357Y870622D01*
X332283Y870670D01*
X332206Y870715D01*
X332128Y870756D01*
X332048Y870795D01*
X331967Y870829D01*
X331884Y870861D01*
X331799Y870888D01*
X331714Y870913D01*
X331628Y870933D01*
X331541Y870950D01*
X331453Y870963D01*
X331365Y870972D01*
X331277Y870978D01*
X331188Y870980D01*
X328055Y870980D01*
X328055Y875157D01*
X333276Y875157D01*
D10*
X31360Y88900D02*
X31377Y90250D01*
X31426Y91599D01*
X31509Y92946D01*
X31625Y94291D01*
X31774Y95633D01*
X31955Y96970D01*
X32170Y98303D01*
X32417Y99630D01*
X32696Y100951D01*
X33008Y102264D01*
X33352Y103569D01*
X33728Y104866D01*
X34136Y106152D01*
X34575Y107429D01*
X35045Y108694D01*
X35547Y109948D01*
X36078Y111188D01*
X36641Y112416D01*
X37233Y113629D01*
X37854Y114827D01*
X38505Y116009D01*
X39185Y117176D01*
X39893Y118325D01*
X40629Y119456D01*
X41393Y120569D01*
X42184Y121663D01*
X43001Y122738D01*
X43844Y123792D01*
X44714Y124825D01*
X45608Y125836D01*
X46526Y126825D01*
X47469Y127791D01*
X48435Y128734D01*
X49424Y129652D01*
X50435Y130546D01*
X51468Y131416D01*
X52522Y132259D01*
X53597Y133076D01*
X54691Y133867D01*
X55804Y134631D01*
X56935Y135367D01*
X58084Y136075D01*
X59251Y136755D01*
X60433Y137406D01*
X61631Y138027D01*
X62844Y138619D01*
X64072Y139182D01*
X65312Y139713D01*
X66566Y140215D01*
X67831Y140685D01*
X69108Y141124D01*
X70394Y141532D01*
X71691Y141908D01*
X72996Y142252D01*
X74309Y142564D01*
X75630Y142843D01*
X76957Y143090D01*
X78290Y143305D01*
X79627Y143486D01*
X80969Y143635D01*
X82314Y143751D01*
X83661Y143834D01*
X85010Y143883D01*
X86360Y143900D01*
X87710Y143883D01*
X89059Y143834D01*
X90406Y143751D01*
X91751Y143635D01*
X93093Y143486D01*
X94430Y143305D01*
X95763Y143090D01*
X97090Y142843D01*
X98411Y142564D01*
X99724Y142252D01*
X101029Y141908D01*
X102326Y141532D01*
X103612Y141124D01*
X104889Y140685D01*
X106154Y140215D01*
X107408Y139713D01*
X108648Y139182D01*
X109876Y138619D01*
X111089Y138027D01*
X112287Y137406D01*
X113469Y136755D01*
X114636Y136075D01*
X115785Y135367D01*
X116916Y134631D01*
X118029Y133867D01*
X119123Y133076D01*
X120198Y132259D01*
X121252Y131416D01*
X122285Y130546D01*
X123296Y129652D01*
X124285Y128734D01*
X125251Y127791D01*
X126194Y126825D01*
X127112Y125836D01*
X128006Y124825D01*
X128876Y123792D01*
X129719Y122738D01*
X130536Y121663D01*
X131327Y120569D01*
X132091Y119456D01*
X132827Y118325D01*
X133535Y117176D01*
X134215Y116009D01*
X134866Y114827D01*
X135487Y113629D01*
X136079Y112416D01*
X136642Y111188D01*
X137173Y109948D01*
X137675Y108694D01*
X138145Y107429D01*
X138584Y106152D01*
X138992Y104866D01*
X139368Y103569D01*
X139712Y102264D01*
X140024Y100951D01*
X140303Y99630D01*
X140550Y98303D01*
X140765Y96970D01*
X140946Y95633D01*
X141095Y94291D01*
X141211Y92946D01*
X141294Y91599D01*
X141343Y90250D01*
X141360Y88900D01*
X141343Y87550D01*
X141294Y86201D01*
X141211Y84854D01*
X141095Y83509D01*
X140946Y82167D01*
X140765Y80830D01*
X140550Y79497D01*
X140303Y78170D01*
X140024Y76849D01*
X139712Y75536D01*
X139368Y74231D01*
X138992Y72934D01*
X138584Y71648D01*
X138145Y70371D01*
X137675Y69106D01*
X137173Y67852D01*
X136642Y66612D01*
X136079Y65384D01*
X135487Y64171D01*
X134866Y62973D01*
X134215Y61791D01*
X133535Y60624D01*
X132827Y59475D01*
X132091Y58344D01*
X131327Y57231D01*
X130536Y56137D01*
X129719Y55062D01*
X128876Y54008D01*
X128006Y52975D01*
X127112Y51964D01*
X126194Y50975D01*
X125251Y50009D01*
X124285Y49066D01*
X123296Y48148D01*
X122285Y47254D01*
X121252Y46384D01*
X120198Y45541D01*
X119123Y44724D01*
X118029Y43933D01*
X116916Y43169D01*
X115785Y42433D01*
X114636Y41725D01*
X113469Y41045D01*
X112287Y40394D01*
X111089Y39773D01*
X109876Y39181D01*
X108648Y38618D01*
X107408Y38087D01*
X106154Y37585D01*
X104889Y37115D01*
X103612Y36676D01*
X102326Y36268D01*
X101029Y35892D01*
X99724Y35548D01*
X98411Y35236D01*
X97090Y34957D01*
X95763Y34710D01*
X94430Y34495D01*
X93093Y34314D01*
X91751Y34165D01*
X90406Y34049D01*
X89059Y33966D01*
X87710Y33917D01*
X86360Y33900D01*
X85010Y33917D01*
X83661Y33966D01*
X82314Y34049D01*
X80969Y34165D01*
X79627Y34314D01*
X78290Y34495D01*
X76957Y34710D01*
X75630Y34957D01*
X74309Y35236D01*
X72996Y35548D01*
X71691Y35892D01*
X70394Y36268D01*
X69108Y36676D01*
X67831Y37115D01*
X66566Y37585D01*
X65312Y38087D01*
X64072Y38618D01*
X62844Y39181D01*
X61631Y39773D01*
X60433Y40394D01*
X59251Y41045D01*
X58084Y41725D01*
X56935Y42433D01*
X55804Y43169D01*
X54691Y43933D01*
X53597Y44724D01*
X52522Y45541D01*
X51468Y46384D01*
X50435Y47254D01*
X49424Y48148D01*
X48435Y49066D01*
X47469Y50009D01*
X46526Y50975D01*
X45608Y51964D01*
X44714Y52975D01*
X43844Y54008D01*
X43001Y55062D01*
X42184Y56137D01*
X41393Y57231D01*
X40629Y58344D01*
X39893Y59475D01*
X39185Y60624D01*
X38505Y61791D01*
X37854Y62973D01*
X37233Y64171D01*
X36641Y65384D01*
X36078Y66612D01*
X35547Y67852D01*
X35045Y69106D01*
X34575Y70371D01*
X34136Y71648D01*
X33728Y72934D01*
X33352Y74231D01*
X33008Y75536D01*
X32696Y76849D01*
X32417Y78170D01*
X32170Y79497D01*
X31955Y80830D01*
X31774Y82167D01*
X31625Y83509D01*
X31509Y84854D01*
X31426Y86201D01*
X31377Y87550D01*
X31360Y88900D01*
D15*
X11360Y88900D02*
X11383Y90741D01*
X11450Y92580D01*
X11563Y94417D01*
X11721Y96251D01*
X11924Y98081D01*
X12172Y99905D01*
X12464Y101722D01*
X12801Y103532D01*
X13182Y105333D01*
X13608Y107124D01*
X14077Y108903D01*
X14589Y110671D01*
X15145Y112426D01*
X15744Y114167D01*
X16386Y115892D01*
X17069Y117601D01*
X17794Y119293D01*
X18561Y120967D01*
X19368Y122621D01*
X20216Y124255D01*
X21103Y125867D01*
X22030Y127458D01*
X22996Y129025D01*
X24000Y130568D01*
X25041Y132086D01*
X26119Y133577D01*
X27234Y135042D01*
X28384Y136479D01*
X29569Y137888D01*
X30789Y139267D01*
X32041Y140616D01*
X33327Y141933D01*
X34644Y143219D01*
X35993Y144471D01*
X37372Y145691D01*
X38781Y146876D01*
X40218Y148026D01*
X41683Y149141D01*
X43174Y150219D01*
X44692Y151260D01*
X46235Y152264D01*
X47802Y153230D01*
X49393Y154157D01*
X51005Y155044D01*
X52639Y155892D01*
X54293Y156699D01*
X55967Y157466D01*
X57659Y158191D01*
X59368Y158874D01*
X61093Y159516D01*
X62834Y160115D01*
X64589Y160671D01*
X66357Y161183D01*
X68136Y161652D01*
X69927Y162078D01*
X71728Y162459D01*
X73538Y162796D01*
X75355Y163088D01*
X77179Y163336D01*
X79009Y163539D01*
X80843Y163697D01*
X82680Y163810D01*
X84519Y163877D01*
X86360Y163900D01*
X88201Y163877D01*
X90040Y163810D01*
X91877Y163697D01*
X93711Y163539D01*
X95541Y163336D01*
X97365Y163088D01*
X99182Y162796D01*
X100992Y162459D01*
X102793Y162078D01*
X104584Y161652D01*
X106363Y161183D01*
X108131Y160671D01*
X109886Y160115D01*
X111627Y159516D01*
X113352Y158874D01*
X115061Y158191D01*
X116753Y157466D01*
X118427Y156699D01*
X120081Y155892D01*
X121715Y155044D01*
X123327Y154157D01*
X124918Y153230D01*
X126485Y152264D01*
X128028Y151260D01*
X129546Y150219D01*
X131037Y149141D01*
X132502Y148026D01*
X133939Y146876D01*
X135348Y145691D01*
X136727Y144471D01*
X138076Y143219D01*
X139393Y141933D01*
X140679Y140616D01*
X141931Y139267D01*
X143151Y137888D01*
X144336Y136479D01*
X145486Y135042D01*
X146601Y133577D01*
X147679Y132086D01*
X148720Y130568D01*
X149724Y129025D01*
X150690Y127458D01*
X151617Y125867D01*
X152504Y124255D01*
X153352Y122621D01*
X154159Y120967D01*
X154926Y119293D01*
X155651Y117601D01*
X156334Y115892D01*
X156976Y114167D01*
X157575Y112426D01*
X158131Y110671D01*
X158643Y108903D01*
X159112Y107124D01*
X159538Y105333D01*
X159919Y103532D01*
X160256Y101722D01*
X160548Y99905D01*
X160796Y98081D01*
X160999Y96251D01*
X161157Y94417D01*
X161270Y92580D01*
X161337Y90741D01*
X161360Y88900D01*
X161337Y87059D01*
X161270Y85220D01*
X161157Y83383D01*
X160999Y81549D01*
X160796Y79719D01*
X160548Y77895D01*
X160256Y76078D01*
X159919Y74268D01*
X159538Y72467D01*
X159112Y70676D01*
X158643Y68897D01*
X158131Y67129D01*
X157575Y65374D01*
X156976Y63633D01*
X156334Y61908D01*
X155651Y60199D01*
X154926Y58507D01*
X154159Y56833D01*
X153352Y55179D01*
X152504Y53545D01*
X151617Y51933D01*
X150690Y50342D01*
X149724Y48775D01*
X148720Y47232D01*
X147679Y45714D01*
X146601Y44223D01*
X145486Y42758D01*
X144336Y41321D01*
X143151Y39912D01*
X141931Y38533D01*
X140679Y37184D01*
X139393Y35867D01*
X138076Y34581D01*
X136727Y33329D01*
X135348Y32109D01*
X133939Y30924D01*
X132502Y29774D01*
X131037Y28659D01*
X129546Y27581D01*
X128028Y26540D01*
X126485Y25536D01*
X124918Y24570D01*
X123327Y23643D01*
X121715Y22756D01*
X120081Y21908D01*
X118427Y21101D01*
X116753Y20334D01*
X115061Y19609D01*
X113352Y18926D01*
X111627Y18284D01*
X109886Y17685D01*
X108131Y17129D01*
X106363Y16617D01*
X104584Y16148D01*
X102793Y15722D01*
X100992Y15341D01*
X99182Y15004D01*
X97365Y14712D01*
X95541Y14464D01*
X93711Y14261D01*
X91877Y14103D01*
X90040Y13990D01*
X88201Y13923D01*
X86360Y13900D01*
X84519Y13923D01*
X82680Y13990D01*
X80843Y14103D01*
X79009Y14261D01*
X77179Y14464D01*
X75355Y14712D01*
X73538Y15004D01*
X71728Y15341D01*
X69927Y15722D01*
X68136Y16148D01*
X66357Y16617D01*
X64589Y17129D01*
X62834Y17685D01*
X61093Y18284D01*
X59368Y18926D01*
X57659Y19609D01*
X55967Y20334D01*
X54293Y21101D01*
X52639Y21908D01*
X51005Y22756D01*
X49393Y23643D01*
X47802Y24570D01*
X46235Y25536D01*
X44692Y26540D01*
X43174Y27581D01*
X41683Y28659D01*
X40218Y29774D01*
X38781Y30924D01*
X37372Y32109D01*
X35993Y33329D01*
X34644Y34581D01*
X33327Y35867D01*
X32041Y37184D01*
X30789Y38533D01*
X29569Y39912D01*
X28384Y41321D01*
X27234Y42758D01*
X26119Y44223D01*
X25041Y45714D01*
X24000Y47232D01*
X22996Y48775D01*
X22030Y50342D01*
X21103Y51933D01*
X20216Y53545D01*
X19368Y55179D01*
X18561Y56833D01*
X17794Y58507D01*
X17069Y60199D01*
X16386Y61908D01*
X15744Y63633D01*
X15145Y65374D01*
X14589Y67129D01*
X14077Y68897D01*
X13608Y70676D01*
X13182Y72467D01*
X12801Y74268D01*
X12464Y76078D01*
X12172Y77895D01*
X11924Y79719D01*
X11721Y81549D01*
X11563Y83383D01*
X11450Y85220D01*
X11383Y87059D01*
X11360Y88900D01*
D11*
X13081Y155321D02*
X19346Y164719D01*
X13081Y164719D02*
X19346Y155321D01*
X22747Y162631D02*
X25358Y164719D01*
X25358Y155321D01*
X27968Y155321D02*
X22747Y155321D01*
X31891Y160020D02*
X31893Y160205D01*
X31900Y160390D01*
X31911Y160574D01*
X31926Y160758D01*
X31946Y160942D01*
X31970Y161126D01*
X31999Y161308D01*
X32032Y161490D01*
X32069Y161671D01*
X32111Y161851D01*
X32157Y162031D01*
X32207Y162209D01*
X32261Y162385D01*
X32320Y162561D01*
X32382Y162735D01*
X32449Y162907D01*
X32520Y163078D01*
X32595Y163247D01*
X32674Y163414D01*
X32704Y163494D01*
X32737Y163573D01*
X32774Y163650D01*
X32814Y163726D01*
X32857Y163800D01*
X32903Y163872D01*
X32953Y163941D01*
X33005Y164009D01*
X33061Y164074D01*
X33119Y164137D01*
X33181Y164196D01*
X33244Y164254D01*
X33311Y164308D01*
X33379Y164359D01*
X33450Y164407D01*
X33523Y164452D01*
X33597Y164494D01*
X33674Y164532D01*
X33752Y164567D01*
X33831Y164599D01*
X33912Y164627D01*
X33994Y164651D01*
X34078Y164672D01*
X34161Y164689D01*
X34246Y164702D01*
X34331Y164711D01*
X34416Y164717D01*
X34502Y164719D01*
X34588Y164717D01*
X34673Y164711D01*
X34758Y164702D01*
X34843Y164689D01*
X34926Y164672D01*
X35010Y164651D01*
X35092Y164627D01*
X35173Y164599D01*
X35252Y164567D01*
X35330Y164532D01*
X35407Y164494D01*
X35481Y164452D01*
X35554Y164407D01*
X35625Y164359D01*
X35693Y164308D01*
X35760Y164254D01*
X35823Y164196D01*
X35885Y164137D01*
X35943Y164074D01*
X35999Y164009D01*
X36051Y163941D01*
X36101Y163872D01*
X36147Y163800D01*
X36190Y163726D01*
X36230Y163650D01*
X36267Y163573D01*
X36300Y163494D01*
X36330Y163414D01*
X36329Y163414D02*
X36408Y163247D01*
X36483Y163078D01*
X36554Y162907D01*
X36621Y162735D01*
X36683Y162561D01*
X36742Y162385D01*
X36796Y162209D01*
X36846Y162031D01*
X36892Y161851D01*
X36934Y161671D01*
X36971Y161490D01*
X37004Y161308D01*
X37033Y161126D01*
X37057Y160942D01*
X37077Y160758D01*
X37092Y160574D01*
X37103Y160390D01*
X37110Y160205D01*
X37112Y160020D01*
X31891Y160020D02*
X31893Y159835D01*
X31900Y159650D01*
X31911Y159466D01*
X31926Y159282D01*
X31946Y159098D01*
X31970Y158914D01*
X31999Y158732D01*
X32032Y158550D01*
X32069Y158369D01*
X32111Y158189D01*
X32157Y158009D01*
X32207Y157831D01*
X32261Y157655D01*
X32320Y157479D01*
X32382Y157305D01*
X32449Y157133D01*
X32520Y156962D01*
X32595Y156793D01*
X32674Y156626D01*
X32704Y156546D01*
X32737Y156467D01*
X32774Y156390D01*
X32814Y156314D01*
X32857Y156240D01*
X32903Y156168D01*
X32953Y156099D01*
X33006Y156031D01*
X33061Y155966D01*
X33120Y155903D01*
X33181Y155844D01*
X33244Y155786D01*
X33311Y155732D01*
X33379Y155681D01*
X33450Y155633D01*
X33523Y155588D01*
X33597Y155546D01*
X33674Y155508D01*
X33752Y155473D01*
X33831Y155441D01*
X33912Y155413D01*
X33994Y155389D01*
X34078Y155368D01*
X34161Y155351D01*
X34246Y155338D01*
X34331Y155329D01*
X34416Y155323D01*
X34502Y155321D01*
X36329Y156626D02*
X36408Y156793D01*
X36483Y156962D01*
X36554Y157133D01*
X36621Y157305D01*
X36683Y157479D01*
X36742Y157655D01*
X36796Y157831D01*
X36846Y158009D01*
X36892Y158189D01*
X36934Y158369D01*
X36971Y158550D01*
X37004Y158732D01*
X37033Y158914D01*
X37057Y159098D01*
X37077Y159282D01*
X37092Y159466D01*
X37103Y159650D01*
X37110Y159835D01*
X37112Y160020D01*
X36330Y156626D02*
X36300Y156546D01*
X36267Y156467D01*
X36230Y156390D01*
X36190Y156314D01*
X36147Y156240D01*
X36101Y156168D01*
X36051Y156099D01*
X35999Y156031D01*
X35943Y155966D01*
X35885Y155903D01*
X35823Y155844D01*
X35760Y155786D01*
X35693Y155732D01*
X35625Y155681D01*
X35554Y155633D01*
X35481Y155588D01*
X35407Y155546D01*
X35330Y155508D01*
X35252Y155473D01*
X35173Y155441D01*
X35092Y155413D01*
X35010Y155389D01*
X34926Y155368D01*
X34843Y155351D01*
X34758Y155338D01*
X34673Y155329D01*
X34588Y155323D01*
X34502Y155321D01*
X32413Y157409D02*
X36590Y162631D01*
X41035Y157409D02*
X43123Y164719D01*
X41035Y157409D02*
X46256Y157409D01*
X44690Y159498D02*
X44690Y155321D01*
D10*
X31360Y309880D02*
X31377Y311230D01*
X31426Y312579D01*
X31509Y313926D01*
X31625Y315271D01*
X31774Y316613D01*
X31955Y317950D01*
X32170Y319283D01*
X32417Y320610D01*
X32696Y321931D01*
X33008Y323244D01*
X33352Y324549D01*
X33728Y325846D01*
X34136Y327132D01*
X34575Y328409D01*
X35045Y329674D01*
X35547Y330928D01*
X36078Y332168D01*
X36641Y333396D01*
X37233Y334609D01*
X37854Y335807D01*
X38505Y336989D01*
X39185Y338156D01*
X39893Y339305D01*
X40629Y340436D01*
X41393Y341549D01*
X42184Y342643D01*
X43001Y343718D01*
X43844Y344772D01*
X44714Y345805D01*
X45608Y346816D01*
X46526Y347805D01*
X47469Y348771D01*
X48435Y349714D01*
X49424Y350632D01*
X50435Y351526D01*
X51468Y352396D01*
X52522Y353239D01*
X53597Y354056D01*
X54691Y354847D01*
X55804Y355611D01*
X56935Y356347D01*
X58084Y357055D01*
X59251Y357735D01*
X60433Y358386D01*
X61631Y359007D01*
X62844Y359599D01*
X64072Y360162D01*
X65312Y360693D01*
X66566Y361195D01*
X67831Y361665D01*
X69108Y362104D01*
X70394Y362512D01*
X71691Y362888D01*
X72996Y363232D01*
X74309Y363544D01*
X75630Y363823D01*
X76957Y364070D01*
X78290Y364285D01*
X79627Y364466D01*
X80969Y364615D01*
X82314Y364731D01*
X83661Y364814D01*
X85010Y364863D01*
X86360Y364880D01*
X87710Y364863D01*
X89059Y364814D01*
X90406Y364731D01*
X91751Y364615D01*
X93093Y364466D01*
X94430Y364285D01*
X95763Y364070D01*
X97090Y363823D01*
X98411Y363544D01*
X99724Y363232D01*
X101029Y362888D01*
X102326Y362512D01*
X103612Y362104D01*
X104889Y361665D01*
X106154Y361195D01*
X107408Y360693D01*
X108648Y360162D01*
X109876Y359599D01*
X111089Y359007D01*
X112287Y358386D01*
X113469Y357735D01*
X114636Y357055D01*
X115785Y356347D01*
X116916Y355611D01*
X118029Y354847D01*
X119123Y354056D01*
X120198Y353239D01*
X121252Y352396D01*
X122285Y351526D01*
X123296Y350632D01*
X124285Y349714D01*
X125251Y348771D01*
X126194Y347805D01*
X127112Y346816D01*
X128006Y345805D01*
X128876Y344772D01*
X129719Y343718D01*
X130536Y342643D01*
X131327Y341549D01*
X132091Y340436D01*
X132827Y339305D01*
X133535Y338156D01*
X134215Y336989D01*
X134866Y335807D01*
X135487Y334609D01*
X136079Y333396D01*
X136642Y332168D01*
X137173Y330928D01*
X137675Y329674D01*
X138145Y328409D01*
X138584Y327132D01*
X138992Y325846D01*
X139368Y324549D01*
X139712Y323244D01*
X140024Y321931D01*
X140303Y320610D01*
X140550Y319283D01*
X140765Y317950D01*
X140946Y316613D01*
X141095Y315271D01*
X141211Y313926D01*
X141294Y312579D01*
X141343Y311230D01*
X141360Y309880D01*
X141343Y308530D01*
X141294Y307181D01*
X141211Y305834D01*
X141095Y304489D01*
X140946Y303147D01*
X140765Y301810D01*
X140550Y300477D01*
X140303Y299150D01*
X140024Y297829D01*
X139712Y296516D01*
X139368Y295211D01*
X138992Y293914D01*
X138584Y292628D01*
X138145Y291351D01*
X137675Y290086D01*
X137173Y288832D01*
X136642Y287592D01*
X136079Y286364D01*
X135487Y285151D01*
X134866Y283953D01*
X134215Y282771D01*
X133535Y281604D01*
X132827Y280455D01*
X132091Y279324D01*
X131327Y278211D01*
X130536Y277117D01*
X129719Y276042D01*
X128876Y274988D01*
X128006Y273955D01*
X127112Y272944D01*
X126194Y271955D01*
X125251Y270989D01*
X124285Y270046D01*
X123296Y269128D01*
X122285Y268234D01*
X121252Y267364D01*
X120198Y266521D01*
X119123Y265704D01*
X118029Y264913D01*
X116916Y264149D01*
X115785Y263413D01*
X114636Y262705D01*
X113469Y262025D01*
X112287Y261374D01*
X111089Y260753D01*
X109876Y260161D01*
X108648Y259598D01*
X107408Y259067D01*
X106154Y258565D01*
X104889Y258095D01*
X103612Y257656D01*
X102326Y257248D01*
X101029Y256872D01*
X99724Y256528D01*
X98411Y256216D01*
X97090Y255937D01*
X95763Y255690D01*
X94430Y255475D01*
X93093Y255294D01*
X91751Y255145D01*
X90406Y255029D01*
X89059Y254946D01*
X87710Y254897D01*
X86360Y254880D01*
X85010Y254897D01*
X83661Y254946D01*
X82314Y255029D01*
X80969Y255145D01*
X79627Y255294D01*
X78290Y255475D01*
X76957Y255690D01*
X75630Y255937D01*
X74309Y256216D01*
X72996Y256528D01*
X71691Y256872D01*
X70394Y257248D01*
X69108Y257656D01*
X67831Y258095D01*
X66566Y258565D01*
X65312Y259067D01*
X64072Y259598D01*
X62844Y260161D01*
X61631Y260753D01*
X60433Y261374D01*
X59251Y262025D01*
X58084Y262705D01*
X56935Y263413D01*
X55804Y264149D01*
X54691Y264913D01*
X53597Y265704D01*
X52522Y266521D01*
X51468Y267364D01*
X50435Y268234D01*
X49424Y269128D01*
X48435Y270046D01*
X47469Y270989D01*
X46526Y271955D01*
X45608Y272944D01*
X44714Y273955D01*
X43844Y274988D01*
X43001Y276042D01*
X42184Y277117D01*
X41393Y278211D01*
X40629Y279324D01*
X39893Y280455D01*
X39185Y281604D01*
X38505Y282771D01*
X37854Y283953D01*
X37233Y285151D01*
X36641Y286364D01*
X36078Y287592D01*
X35547Y288832D01*
X35045Y290086D01*
X34575Y291351D01*
X34136Y292628D01*
X33728Y293914D01*
X33352Y295211D01*
X33008Y296516D01*
X32696Y297829D01*
X32417Y299150D01*
X32170Y300477D01*
X31955Y301810D01*
X31774Y303147D01*
X31625Y304489D01*
X31509Y305834D01*
X31426Y307181D01*
X31377Y308530D01*
X31360Y309880D01*
D15*
X11360Y309880D02*
X11383Y311721D01*
X11450Y313560D01*
X11563Y315397D01*
X11721Y317231D01*
X11924Y319061D01*
X12172Y320885D01*
X12464Y322702D01*
X12801Y324512D01*
X13182Y326313D01*
X13608Y328104D01*
X14077Y329883D01*
X14589Y331651D01*
X15145Y333406D01*
X15744Y335147D01*
X16386Y336872D01*
X17069Y338581D01*
X17794Y340273D01*
X18561Y341947D01*
X19368Y343601D01*
X20216Y345235D01*
X21103Y346847D01*
X22030Y348438D01*
X22996Y350005D01*
X24000Y351548D01*
X25041Y353066D01*
X26119Y354557D01*
X27234Y356022D01*
X28384Y357459D01*
X29569Y358868D01*
X30789Y360247D01*
X32041Y361596D01*
X33327Y362913D01*
X34644Y364199D01*
X35993Y365451D01*
X37372Y366671D01*
X38781Y367856D01*
X40218Y369006D01*
X41683Y370121D01*
X43174Y371199D01*
X44692Y372240D01*
X46235Y373244D01*
X47802Y374210D01*
X49393Y375137D01*
X51005Y376024D01*
X52639Y376872D01*
X54293Y377679D01*
X55967Y378446D01*
X57659Y379171D01*
X59368Y379854D01*
X61093Y380496D01*
X62834Y381095D01*
X64589Y381651D01*
X66357Y382163D01*
X68136Y382632D01*
X69927Y383058D01*
X71728Y383439D01*
X73538Y383776D01*
X75355Y384068D01*
X77179Y384316D01*
X79009Y384519D01*
X80843Y384677D01*
X82680Y384790D01*
X84519Y384857D01*
X86360Y384880D01*
X88201Y384857D01*
X90040Y384790D01*
X91877Y384677D01*
X93711Y384519D01*
X95541Y384316D01*
X97365Y384068D01*
X99182Y383776D01*
X100992Y383439D01*
X102793Y383058D01*
X104584Y382632D01*
X106363Y382163D01*
X108131Y381651D01*
X109886Y381095D01*
X111627Y380496D01*
X113352Y379854D01*
X115061Y379171D01*
X116753Y378446D01*
X118427Y377679D01*
X120081Y376872D01*
X121715Y376024D01*
X123327Y375137D01*
X124918Y374210D01*
X126485Y373244D01*
X128028Y372240D01*
X129546Y371199D01*
X131037Y370121D01*
X132502Y369006D01*
X133939Y367856D01*
X135348Y366671D01*
X136727Y365451D01*
X138076Y364199D01*
X139393Y362913D01*
X140679Y361596D01*
X141931Y360247D01*
X143151Y358868D01*
X144336Y357459D01*
X145486Y356022D01*
X146601Y354557D01*
X147679Y353066D01*
X148720Y351548D01*
X149724Y350005D01*
X150690Y348438D01*
X151617Y346847D01*
X152504Y345235D01*
X153352Y343601D01*
X154159Y341947D01*
X154926Y340273D01*
X155651Y338581D01*
X156334Y336872D01*
X156976Y335147D01*
X157575Y333406D01*
X158131Y331651D01*
X158643Y329883D01*
X159112Y328104D01*
X159538Y326313D01*
X159919Y324512D01*
X160256Y322702D01*
X160548Y320885D01*
X160796Y319061D01*
X160999Y317231D01*
X161157Y315397D01*
X161270Y313560D01*
X161337Y311721D01*
X161360Y309880D01*
X161337Y308039D01*
X161270Y306200D01*
X161157Y304363D01*
X160999Y302529D01*
X160796Y300699D01*
X160548Y298875D01*
X160256Y297058D01*
X159919Y295248D01*
X159538Y293447D01*
X159112Y291656D01*
X158643Y289877D01*
X158131Y288109D01*
X157575Y286354D01*
X156976Y284613D01*
X156334Y282888D01*
X155651Y281179D01*
X154926Y279487D01*
X154159Y277813D01*
X153352Y276159D01*
X152504Y274525D01*
X151617Y272913D01*
X150690Y271322D01*
X149724Y269755D01*
X148720Y268212D01*
X147679Y266694D01*
X146601Y265203D01*
X145486Y263738D01*
X144336Y262301D01*
X143151Y260892D01*
X141931Y259513D01*
X140679Y258164D01*
X139393Y256847D01*
X138076Y255561D01*
X136727Y254309D01*
X135348Y253089D01*
X133939Y251904D01*
X132502Y250754D01*
X131037Y249639D01*
X129546Y248561D01*
X128028Y247520D01*
X126485Y246516D01*
X124918Y245550D01*
X123327Y244623D01*
X121715Y243736D01*
X120081Y242888D01*
X118427Y242081D01*
X116753Y241314D01*
X115061Y240589D01*
X113352Y239906D01*
X111627Y239264D01*
X109886Y238665D01*
X108131Y238109D01*
X106363Y237597D01*
X104584Y237128D01*
X102793Y236702D01*
X100992Y236321D01*
X99182Y235984D01*
X97365Y235692D01*
X95541Y235444D01*
X93711Y235241D01*
X91877Y235083D01*
X90040Y234970D01*
X88201Y234903D01*
X86360Y234880D01*
X84519Y234903D01*
X82680Y234970D01*
X80843Y235083D01*
X79009Y235241D01*
X77179Y235444D01*
X75355Y235692D01*
X73538Y235984D01*
X71728Y236321D01*
X69927Y236702D01*
X68136Y237128D01*
X66357Y237597D01*
X64589Y238109D01*
X62834Y238665D01*
X61093Y239264D01*
X59368Y239906D01*
X57659Y240589D01*
X55967Y241314D01*
X54293Y242081D01*
X52639Y242888D01*
X51005Y243736D01*
X49393Y244623D01*
X47802Y245550D01*
X46235Y246516D01*
X44692Y247520D01*
X43174Y248561D01*
X41683Y249639D01*
X40218Y250754D01*
X38781Y251904D01*
X37372Y253089D01*
X35993Y254309D01*
X34644Y255561D01*
X33327Y256847D01*
X32041Y258164D01*
X30789Y259513D01*
X29569Y260892D01*
X28384Y262301D01*
X27234Y263738D01*
X26119Y265203D01*
X25041Y266694D01*
X24000Y268212D01*
X22996Y269755D01*
X22030Y271322D01*
X21103Y272913D01*
X20216Y274525D01*
X19368Y276159D01*
X18561Y277813D01*
X17794Y279487D01*
X17069Y281179D01*
X16386Y282888D01*
X15744Y284613D01*
X15145Y286354D01*
X14589Y288109D01*
X14077Y289877D01*
X13608Y291656D01*
X13182Y293447D01*
X12801Y295248D01*
X12464Y297058D01*
X12172Y298875D01*
X11924Y300699D01*
X11721Y302529D01*
X11563Y304363D01*
X11450Y306200D01*
X11383Y308039D01*
X11360Y309880D01*
D11*
X15621Y378841D02*
X21886Y388239D01*
X15621Y388239D02*
X21886Y378841D01*
X25287Y386151D02*
X27898Y388239D01*
X27898Y378841D01*
X30508Y378841D02*
X25287Y378841D01*
X34431Y383540D02*
X34433Y383725D01*
X34440Y383910D01*
X34451Y384094D01*
X34466Y384278D01*
X34486Y384462D01*
X34510Y384646D01*
X34539Y384828D01*
X34572Y385010D01*
X34609Y385191D01*
X34651Y385371D01*
X34697Y385551D01*
X34747Y385729D01*
X34801Y385905D01*
X34860Y386081D01*
X34922Y386255D01*
X34989Y386427D01*
X35060Y386598D01*
X35135Y386767D01*
X35214Y386934D01*
X35244Y387014D01*
X35277Y387093D01*
X35314Y387170D01*
X35354Y387246D01*
X35397Y387320D01*
X35443Y387392D01*
X35493Y387461D01*
X35545Y387529D01*
X35601Y387594D01*
X35659Y387657D01*
X35721Y387716D01*
X35784Y387774D01*
X35851Y387828D01*
X35919Y387879D01*
X35990Y387927D01*
X36063Y387972D01*
X36137Y388014D01*
X36214Y388052D01*
X36292Y388087D01*
X36371Y388119D01*
X36452Y388147D01*
X36534Y388171D01*
X36618Y388192D01*
X36701Y388209D01*
X36786Y388222D01*
X36871Y388231D01*
X36956Y388237D01*
X37042Y388239D01*
X37128Y388237D01*
X37213Y388231D01*
X37298Y388222D01*
X37383Y388209D01*
X37466Y388192D01*
X37550Y388171D01*
X37632Y388147D01*
X37713Y388119D01*
X37792Y388087D01*
X37870Y388052D01*
X37947Y388014D01*
X38021Y387972D01*
X38094Y387927D01*
X38165Y387879D01*
X38233Y387828D01*
X38300Y387774D01*
X38363Y387716D01*
X38425Y387657D01*
X38483Y387594D01*
X38539Y387529D01*
X38591Y387461D01*
X38641Y387392D01*
X38687Y387320D01*
X38730Y387246D01*
X38770Y387170D01*
X38807Y387093D01*
X38840Y387014D01*
X38870Y386934D01*
X38869Y386934D02*
X38948Y386767D01*
X39023Y386598D01*
X39094Y386427D01*
X39161Y386255D01*
X39223Y386081D01*
X39282Y385905D01*
X39336Y385729D01*
X39386Y385551D01*
X39432Y385371D01*
X39474Y385191D01*
X39511Y385010D01*
X39544Y384828D01*
X39573Y384646D01*
X39597Y384462D01*
X39617Y384278D01*
X39632Y384094D01*
X39643Y383910D01*
X39650Y383725D01*
X39652Y383540D01*
X34431Y383540D02*
X34433Y383355D01*
X34440Y383170D01*
X34451Y382986D01*
X34466Y382802D01*
X34486Y382618D01*
X34510Y382434D01*
X34539Y382252D01*
X34572Y382070D01*
X34609Y381889D01*
X34651Y381709D01*
X34697Y381529D01*
X34747Y381351D01*
X34801Y381175D01*
X34860Y380999D01*
X34922Y380825D01*
X34989Y380653D01*
X35060Y380482D01*
X35135Y380313D01*
X35214Y380146D01*
X35244Y380066D01*
X35277Y379987D01*
X35314Y379910D01*
X35354Y379834D01*
X35397Y379760D01*
X35443Y379688D01*
X35493Y379619D01*
X35546Y379551D01*
X35601Y379486D01*
X35660Y379423D01*
X35721Y379364D01*
X35784Y379306D01*
X35851Y379252D01*
X35919Y379201D01*
X35990Y379153D01*
X36063Y379108D01*
X36137Y379066D01*
X36214Y379028D01*
X36292Y378993D01*
X36371Y378961D01*
X36452Y378933D01*
X36534Y378909D01*
X36618Y378888D01*
X36701Y378871D01*
X36786Y378858D01*
X36871Y378849D01*
X36956Y378843D01*
X37042Y378841D01*
X38869Y380146D02*
X38948Y380313D01*
X39023Y380482D01*
X39094Y380653D01*
X39161Y380825D01*
X39223Y380999D01*
X39282Y381175D01*
X39336Y381351D01*
X39386Y381529D01*
X39432Y381709D01*
X39474Y381889D01*
X39511Y382070D01*
X39544Y382252D01*
X39573Y382434D01*
X39597Y382618D01*
X39617Y382802D01*
X39632Y382986D01*
X39643Y383170D01*
X39650Y383355D01*
X39652Y383540D01*
X38870Y380146D02*
X38840Y380066D01*
X38807Y379987D01*
X38770Y379910D01*
X38730Y379834D01*
X38687Y379760D01*
X38641Y379688D01*
X38591Y379619D01*
X38539Y379551D01*
X38483Y379486D01*
X38425Y379423D01*
X38363Y379364D01*
X38300Y379306D01*
X38233Y379252D01*
X38165Y379201D01*
X38094Y379153D01*
X38021Y379108D01*
X37947Y379066D01*
X37870Y379028D01*
X37792Y378993D01*
X37713Y378961D01*
X37632Y378933D01*
X37550Y378909D01*
X37466Y378888D01*
X37383Y378871D01*
X37298Y378858D01*
X37213Y378849D01*
X37128Y378843D01*
X37042Y378841D01*
X34953Y380929D02*
X39130Y386151D01*
X43575Y378841D02*
X46186Y378841D01*
X46287Y378843D01*
X46388Y378849D01*
X46489Y378859D01*
X46589Y378872D01*
X46689Y378890D01*
X46788Y378911D01*
X46886Y378937D01*
X46983Y378966D01*
X47079Y378998D01*
X47173Y379035D01*
X47266Y379075D01*
X47358Y379119D01*
X47447Y379166D01*
X47535Y379217D01*
X47621Y379271D01*
X47704Y379328D01*
X47786Y379388D01*
X47864Y379452D01*
X47941Y379518D01*
X48014Y379588D01*
X48085Y379660D01*
X48153Y379735D01*
X48218Y379813D01*
X48280Y379893D01*
X48339Y379975D01*
X48395Y380060D01*
X48447Y380147D01*
X48496Y380235D01*
X48542Y380326D01*
X48583Y380418D01*
X48622Y380512D01*
X48656Y380607D01*
X48687Y380703D01*
X48714Y380801D01*
X48738Y380899D01*
X48757Y380999D01*
X48773Y381099D01*
X48785Y381199D01*
X48793Y381300D01*
X48797Y381401D01*
X48797Y381503D01*
X48793Y381604D01*
X48785Y381705D01*
X48773Y381805D01*
X48757Y381905D01*
X48738Y382005D01*
X48714Y382103D01*
X48687Y382201D01*
X48656Y382297D01*
X48622Y382392D01*
X48583Y382486D01*
X48542Y382578D01*
X48496Y382669D01*
X48447Y382757D01*
X48395Y382844D01*
X48339Y382929D01*
X48280Y383011D01*
X48218Y383091D01*
X48153Y383169D01*
X48085Y383244D01*
X48014Y383316D01*
X47941Y383386D01*
X47864Y383452D01*
X47786Y383516D01*
X47704Y383576D01*
X47621Y383633D01*
X47535Y383687D01*
X47447Y383738D01*
X47358Y383785D01*
X47266Y383829D01*
X47173Y383869D01*
X47079Y383906D01*
X46983Y383938D01*
X46886Y383967D01*
X46788Y383993D01*
X46689Y384014D01*
X46589Y384032D01*
X46489Y384045D01*
X46388Y384055D01*
X46287Y384061D01*
X46186Y384063D01*
X46708Y388239D02*
X43575Y388239D01*
X46708Y388239D02*
X46798Y388237D01*
X46887Y388231D01*
X46977Y388222D01*
X47066Y388208D01*
X47154Y388191D01*
X47241Y388170D01*
X47328Y388145D01*
X47413Y388116D01*
X47497Y388084D01*
X47579Y388049D01*
X47660Y388009D01*
X47739Y387967D01*
X47816Y387921D01*
X47891Y387871D01*
X47964Y387819D01*
X48035Y387763D01*
X48103Y387705D01*
X48168Y387643D01*
X48231Y387579D01*
X48291Y387512D01*
X48348Y387443D01*
X48402Y387371D01*
X48453Y387297D01*
X48501Y387221D01*
X48545Y387143D01*
X48586Y387063D01*
X48624Y386981D01*
X48658Y386898D01*
X48688Y386813D01*
X48715Y386727D01*
X48738Y386641D01*
X48757Y386553D01*
X48772Y386464D01*
X48784Y386375D01*
X48792Y386286D01*
X48796Y386196D01*
X48796Y386106D01*
X48792Y386016D01*
X48784Y385927D01*
X48772Y385838D01*
X48757Y385749D01*
X48738Y385661D01*
X48715Y385575D01*
X48688Y385489D01*
X48658Y385404D01*
X48624Y385321D01*
X48586Y385239D01*
X48545Y385159D01*
X48501Y385081D01*
X48453Y385005D01*
X48402Y384931D01*
X48348Y384859D01*
X48291Y384790D01*
X48231Y384723D01*
X48168Y384659D01*
X48103Y384597D01*
X48035Y384539D01*
X47964Y384483D01*
X47891Y384431D01*
X47816Y384381D01*
X47739Y384335D01*
X47660Y384293D01*
X47579Y384253D01*
X47497Y384218D01*
X47413Y384186D01*
X47328Y384157D01*
X47241Y384132D01*
X47154Y384111D01*
X47066Y384094D01*
X46977Y384080D01*
X46887Y384071D01*
X46798Y384065D01*
X46708Y384063D01*
X46708Y384062D02*
X44619Y384062D01*
D10*
X31360Y515620D02*
X31377Y516970D01*
X31426Y518319D01*
X31509Y519666D01*
X31625Y521011D01*
X31774Y522353D01*
X31955Y523690D01*
X32170Y525023D01*
X32417Y526350D01*
X32696Y527671D01*
X33008Y528984D01*
X33352Y530289D01*
X33728Y531586D01*
X34136Y532872D01*
X34575Y534149D01*
X35045Y535414D01*
X35547Y536668D01*
X36078Y537908D01*
X36641Y539136D01*
X37233Y540349D01*
X37854Y541547D01*
X38505Y542729D01*
X39185Y543896D01*
X39893Y545045D01*
X40629Y546176D01*
X41393Y547289D01*
X42184Y548383D01*
X43001Y549458D01*
X43844Y550512D01*
X44714Y551545D01*
X45608Y552556D01*
X46526Y553545D01*
X47469Y554511D01*
X48435Y555454D01*
X49424Y556372D01*
X50435Y557266D01*
X51468Y558136D01*
X52522Y558979D01*
X53597Y559796D01*
X54691Y560587D01*
X55804Y561351D01*
X56935Y562087D01*
X58084Y562795D01*
X59251Y563475D01*
X60433Y564126D01*
X61631Y564747D01*
X62844Y565339D01*
X64072Y565902D01*
X65312Y566433D01*
X66566Y566935D01*
X67831Y567405D01*
X69108Y567844D01*
X70394Y568252D01*
X71691Y568628D01*
X72996Y568972D01*
X74309Y569284D01*
X75630Y569563D01*
X76957Y569810D01*
X78290Y570025D01*
X79627Y570206D01*
X80969Y570355D01*
X82314Y570471D01*
X83661Y570554D01*
X85010Y570603D01*
X86360Y570620D01*
X87710Y570603D01*
X89059Y570554D01*
X90406Y570471D01*
X91751Y570355D01*
X93093Y570206D01*
X94430Y570025D01*
X95763Y569810D01*
X97090Y569563D01*
X98411Y569284D01*
X99724Y568972D01*
X101029Y568628D01*
X102326Y568252D01*
X103612Y567844D01*
X104889Y567405D01*
X106154Y566935D01*
X107408Y566433D01*
X108648Y565902D01*
X109876Y565339D01*
X111089Y564747D01*
X112287Y564126D01*
X113469Y563475D01*
X114636Y562795D01*
X115785Y562087D01*
X116916Y561351D01*
X118029Y560587D01*
X119123Y559796D01*
X120198Y558979D01*
X121252Y558136D01*
X122285Y557266D01*
X123296Y556372D01*
X124285Y555454D01*
X125251Y554511D01*
X126194Y553545D01*
X127112Y552556D01*
X128006Y551545D01*
X128876Y550512D01*
X129719Y549458D01*
X130536Y548383D01*
X131327Y547289D01*
X132091Y546176D01*
X132827Y545045D01*
X133535Y543896D01*
X134215Y542729D01*
X134866Y541547D01*
X135487Y540349D01*
X136079Y539136D01*
X136642Y537908D01*
X137173Y536668D01*
X137675Y535414D01*
X138145Y534149D01*
X138584Y532872D01*
X138992Y531586D01*
X139368Y530289D01*
X139712Y528984D01*
X140024Y527671D01*
X140303Y526350D01*
X140550Y525023D01*
X140765Y523690D01*
X140946Y522353D01*
X141095Y521011D01*
X141211Y519666D01*
X141294Y518319D01*
X141343Y516970D01*
X141360Y515620D01*
X141343Y514270D01*
X141294Y512921D01*
X141211Y511574D01*
X141095Y510229D01*
X140946Y508887D01*
X140765Y507550D01*
X140550Y506217D01*
X140303Y504890D01*
X140024Y503569D01*
X139712Y502256D01*
X139368Y500951D01*
X138992Y499654D01*
X138584Y498368D01*
X138145Y497091D01*
X137675Y495826D01*
X137173Y494572D01*
X136642Y493332D01*
X136079Y492104D01*
X135487Y490891D01*
X134866Y489693D01*
X134215Y488511D01*
X133535Y487344D01*
X132827Y486195D01*
X132091Y485064D01*
X131327Y483951D01*
X130536Y482857D01*
X129719Y481782D01*
X128876Y480728D01*
X128006Y479695D01*
X127112Y478684D01*
X126194Y477695D01*
X125251Y476729D01*
X124285Y475786D01*
X123296Y474868D01*
X122285Y473974D01*
X121252Y473104D01*
X120198Y472261D01*
X119123Y471444D01*
X118029Y470653D01*
X116916Y469889D01*
X115785Y469153D01*
X114636Y468445D01*
X113469Y467765D01*
X112287Y467114D01*
X111089Y466493D01*
X109876Y465901D01*
X108648Y465338D01*
X107408Y464807D01*
X106154Y464305D01*
X104889Y463835D01*
X103612Y463396D01*
X102326Y462988D01*
X101029Y462612D01*
X99724Y462268D01*
X98411Y461956D01*
X97090Y461677D01*
X95763Y461430D01*
X94430Y461215D01*
X93093Y461034D01*
X91751Y460885D01*
X90406Y460769D01*
X89059Y460686D01*
X87710Y460637D01*
X86360Y460620D01*
X85010Y460637D01*
X83661Y460686D01*
X82314Y460769D01*
X80969Y460885D01*
X79627Y461034D01*
X78290Y461215D01*
X76957Y461430D01*
X75630Y461677D01*
X74309Y461956D01*
X72996Y462268D01*
X71691Y462612D01*
X70394Y462988D01*
X69108Y463396D01*
X67831Y463835D01*
X66566Y464305D01*
X65312Y464807D01*
X64072Y465338D01*
X62844Y465901D01*
X61631Y466493D01*
X60433Y467114D01*
X59251Y467765D01*
X58084Y468445D01*
X56935Y469153D01*
X55804Y469889D01*
X54691Y470653D01*
X53597Y471444D01*
X52522Y472261D01*
X51468Y473104D01*
X50435Y473974D01*
X49424Y474868D01*
X48435Y475786D01*
X47469Y476729D01*
X46526Y477695D01*
X45608Y478684D01*
X44714Y479695D01*
X43844Y480728D01*
X43001Y481782D01*
X42184Y482857D01*
X41393Y483951D01*
X40629Y485064D01*
X39893Y486195D01*
X39185Y487344D01*
X38505Y488511D01*
X37854Y489693D01*
X37233Y490891D01*
X36641Y492104D01*
X36078Y493332D01*
X35547Y494572D01*
X35045Y495826D01*
X34575Y497091D01*
X34136Y498368D01*
X33728Y499654D01*
X33352Y500951D01*
X33008Y502256D01*
X32696Y503569D01*
X32417Y504890D01*
X32170Y506217D01*
X31955Y507550D01*
X31774Y508887D01*
X31625Y510229D01*
X31509Y511574D01*
X31426Y512921D01*
X31377Y514270D01*
X31360Y515620D01*
D15*
X11360Y515620D02*
X11383Y517461D01*
X11450Y519300D01*
X11563Y521137D01*
X11721Y522971D01*
X11924Y524801D01*
X12172Y526625D01*
X12464Y528442D01*
X12801Y530252D01*
X13182Y532053D01*
X13608Y533844D01*
X14077Y535623D01*
X14589Y537391D01*
X15145Y539146D01*
X15744Y540887D01*
X16386Y542612D01*
X17069Y544321D01*
X17794Y546013D01*
X18561Y547687D01*
X19368Y549341D01*
X20216Y550975D01*
X21103Y552587D01*
X22030Y554178D01*
X22996Y555745D01*
X24000Y557288D01*
X25041Y558806D01*
X26119Y560297D01*
X27234Y561762D01*
X28384Y563199D01*
X29569Y564608D01*
X30789Y565987D01*
X32041Y567336D01*
X33327Y568653D01*
X34644Y569939D01*
X35993Y571191D01*
X37372Y572411D01*
X38781Y573596D01*
X40218Y574746D01*
X41683Y575861D01*
X43174Y576939D01*
X44692Y577980D01*
X46235Y578984D01*
X47802Y579950D01*
X49393Y580877D01*
X51005Y581764D01*
X52639Y582612D01*
X54293Y583419D01*
X55967Y584186D01*
X57659Y584911D01*
X59368Y585594D01*
X61093Y586236D01*
X62834Y586835D01*
X64589Y587391D01*
X66357Y587903D01*
X68136Y588372D01*
X69927Y588798D01*
X71728Y589179D01*
X73538Y589516D01*
X75355Y589808D01*
X77179Y590056D01*
X79009Y590259D01*
X80843Y590417D01*
X82680Y590530D01*
X84519Y590597D01*
X86360Y590620D01*
X88201Y590597D01*
X90040Y590530D01*
X91877Y590417D01*
X93711Y590259D01*
X95541Y590056D01*
X97365Y589808D01*
X99182Y589516D01*
X100992Y589179D01*
X102793Y588798D01*
X104584Y588372D01*
X106363Y587903D01*
X108131Y587391D01*
X109886Y586835D01*
X111627Y586236D01*
X113352Y585594D01*
X115061Y584911D01*
X116753Y584186D01*
X118427Y583419D01*
X120081Y582612D01*
X121715Y581764D01*
X123327Y580877D01*
X124918Y579950D01*
X126485Y578984D01*
X128028Y577980D01*
X129546Y576939D01*
X131037Y575861D01*
X132502Y574746D01*
X133939Y573596D01*
X135348Y572411D01*
X136727Y571191D01*
X138076Y569939D01*
X139393Y568653D01*
X140679Y567336D01*
X141931Y565987D01*
X143151Y564608D01*
X144336Y563199D01*
X145486Y561762D01*
X146601Y560297D01*
X147679Y558806D01*
X148720Y557288D01*
X149724Y555745D01*
X150690Y554178D01*
X151617Y552587D01*
X152504Y550975D01*
X153352Y549341D01*
X154159Y547687D01*
X154926Y546013D01*
X155651Y544321D01*
X156334Y542612D01*
X156976Y540887D01*
X157575Y539146D01*
X158131Y537391D01*
X158643Y535623D01*
X159112Y533844D01*
X159538Y532053D01*
X159919Y530252D01*
X160256Y528442D01*
X160548Y526625D01*
X160796Y524801D01*
X160999Y522971D01*
X161157Y521137D01*
X161270Y519300D01*
X161337Y517461D01*
X161360Y515620D01*
X161337Y513779D01*
X161270Y511940D01*
X161157Y510103D01*
X160999Y508269D01*
X160796Y506439D01*
X160548Y504615D01*
X160256Y502798D01*
X159919Y500988D01*
X159538Y499187D01*
X159112Y497396D01*
X158643Y495617D01*
X158131Y493849D01*
X157575Y492094D01*
X156976Y490353D01*
X156334Y488628D01*
X155651Y486919D01*
X154926Y485227D01*
X154159Y483553D01*
X153352Y481899D01*
X152504Y480265D01*
X151617Y478653D01*
X150690Y477062D01*
X149724Y475495D01*
X148720Y473952D01*
X147679Y472434D01*
X146601Y470943D01*
X145486Y469478D01*
X144336Y468041D01*
X143151Y466632D01*
X141931Y465253D01*
X140679Y463904D01*
X139393Y462587D01*
X138076Y461301D01*
X136727Y460049D01*
X135348Y458829D01*
X133939Y457644D01*
X132502Y456494D01*
X131037Y455379D01*
X129546Y454301D01*
X128028Y453260D01*
X126485Y452256D01*
X124918Y451290D01*
X123327Y450363D01*
X121715Y449476D01*
X120081Y448628D01*
X118427Y447821D01*
X116753Y447054D01*
X115061Y446329D01*
X113352Y445646D01*
X111627Y445004D01*
X109886Y444405D01*
X108131Y443849D01*
X106363Y443337D01*
X104584Y442868D01*
X102793Y442442D01*
X100992Y442061D01*
X99182Y441724D01*
X97365Y441432D01*
X95541Y441184D01*
X93711Y440981D01*
X91877Y440823D01*
X90040Y440710D01*
X88201Y440643D01*
X86360Y440620D01*
X84519Y440643D01*
X82680Y440710D01*
X80843Y440823D01*
X79009Y440981D01*
X77179Y441184D01*
X75355Y441432D01*
X73538Y441724D01*
X71728Y442061D01*
X69927Y442442D01*
X68136Y442868D01*
X66357Y443337D01*
X64589Y443849D01*
X62834Y444405D01*
X61093Y445004D01*
X59368Y445646D01*
X57659Y446329D01*
X55967Y447054D01*
X54293Y447821D01*
X52639Y448628D01*
X51005Y449476D01*
X49393Y450363D01*
X47802Y451290D01*
X46235Y452256D01*
X44692Y453260D01*
X43174Y454301D01*
X41683Y455379D01*
X40218Y456494D01*
X38781Y457644D01*
X37372Y458829D01*
X35993Y460049D01*
X34644Y461301D01*
X33327Y462587D01*
X32041Y463904D01*
X30789Y465253D01*
X29569Y466632D01*
X28384Y468041D01*
X27234Y469478D01*
X26119Y470943D01*
X25041Y472434D01*
X24000Y473952D01*
X22996Y475495D01*
X22030Y477062D01*
X21103Y478653D01*
X20216Y480265D01*
X19368Y481899D01*
X18561Y483553D01*
X17794Y485227D01*
X17069Y486919D01*
X16386Y488628D01*
X15744Y490353D01*
X15145Y492094D01*
X14589Y493849D01*
X14077Y495617D01*
X13608Y497396D01*
X13182Y499187D01*
X12801Y500988D01*
X12464Y502798D01*
X12172Y504615D01*
X11924Y506439D01*
X11721Y508269D01*
X11563Y510103D01*
X11450Y511940D01*
X11383Y513779D01*
X11360Y515620D01*
D11*
X15621Y582041D02*
X21886Y591439D01*
X15621Y591439D02*
X21886Y582041D01*
X25287Y589351D02*
X27898Y591439D01*
X27898Y582041D01*
X30508Y582041D02*
X25287Y582041D01*
X34431Y586740D02*
X34433Y586925D01*
X34440Y587110D01*
X34451Y587294D01*
X34466Y587478D01*
X34486Y587662D01*
X34510Y587846D01*
X34539Y588028D01*
X34572Y588210D01*
X34609Y588391D01*
X34651Y588571D01*
X34697Y588751D01*
X34747Y588929D01*
X34801Y589105D01*
X34860Y589281D01*
X34922Y589455D01*
X34989Y589627D01*
X35060Y589798D01*
X35135Y589967D01*
X35214Y590134D01*
X35244Y590214D01*
X35277Y590293D01*
X35314Y590370D01*
X35354Y590446D01*
X35397Y590520D01*
X35443Y590592D01*
X35493Y590661D01*
X35545Y590729D01*
X35601Y590794D01*
X35659Y590857D01*
X35721Y590916D01*
X35784Y590974D01*
X35851Y591028D01*
X35919Y591079D01*
X35990Y591127D01*
X36063Y591172D01*
X36137Y591214D01*
X36214Y591252D01*
X36292Y591287D01*
X36371Y591319D01*
X36452Y591347D01*
X36534Y591371D01*
X36618Y591392D01*
X36701Y591409D01*
X36786Y591422D01*
X36871Y591431D01*
X36956Y591437D01*
X37042Y591439D01*
X37128Y591437D01*
X37213Y591431D01*
X37298Y591422D01*
X37383Y591409D01*
X37466Y591392D01*
X37550Y591371D01*
X37632Y591347D01*
X37713Y591319D01*
X37792Y591287D01*
X37870Y591252D01*
X37947Y591214D01*
X38021Y591172D01*
X38094Y591127D01*
X38165Y591079D01*
X38233Y591028D01*
X38300Y590974D01*
X38363Y590916D01*
X38425Y590857D01*
X38483Y590794D01*
X38539Y590729D01*
X38591Y590661D01*
X38641Y590592D01*
X38687Y590520D01*
X38730Y590446D01*
X38770Y590370D01*
X38807Y590293D01*
X38840Y590214D01*
X38870Y590134D01*
X38869Y590134D02*
X38948Y589967D01*
X39023Y589798D01*
X39094Y589627D01*
X39161Y589455D01*
X39223Y589281D01*
X39282Y589105D01*
X39336Y588929D01*
X39386Y588751D01*
X39432Y588571D01*
X39474Y588391D01*
X39511Y588210D01*
X39544Y588028D01*
X39573Y587846D01*
X39597Y587662D01*
X39617Y587478D01*
X39632Y587294D01*
X39643Y587110D01*
X39650Y586925D01*
X39652Y586740D01*
X34431Y586740D02*
X34433Y586555D01*
X34440Y586370D01*
X34451Y586186D01*
X34466Y586002D01*
X34486Y585818D01*
X34510Y585634D01*
X34539Y585452D01*
X34572Y585270D01*
X34609Y585089D01*
X34651Y584909D01*
X34697Y584729D01*
X34747Y584551D01*
X34801Y584375D01*
X34860Y584199D01*
X34922Y584025D01*
X34989Y583853D01*
X35060Y583682D01*
X35135Y583513D01*
X35214Y583346D01*
X35244Y583266D01*
X35277Y583187D01*
X35314Y583110D01*
X35354Y583034D01*
X35397Y582960D01*
X35443Y582888D01*
X35493Y582819D01*
X35546Y582751D01*
X35601Y582686D01*
X35660Y582623D01*
X35721Y582564D01*
X35784Y582506D01*
X35851Y582452D01*
X35919Y582401D01*
X35990Y582353D01*
X36063Y582308D01*
X36137Y582266D01*
X36214Y582228D01*
X36292Y582193D01*
X36371Y582161D01*
X36452Y582133D01*
X36534Y582109D01*
X36618Y582088D01*
X36701Y582071D01*
X36786Y582058D01*
X36871Y582049D01*
X36956Y582043D01*
X37042Y582041D01*
X38869Y583346D02*
X38948Y583513D01*
X39023Y583682D01*
X39094Y583853D01*
X39161Y584025D01*
X39223Y584199D01*
X39282Y584375D01*
X39336Y584551D01*
X39386Y584729D01*
X39432Y584909D01*
X39474Y585089D01*
X39511Y585270D01*
X39544Y585452D01*
X39573Y585634D01*
X39597Y585818D01*
X39617Y586002D01*
X39632Y586186D01*
X39643Y586370D01*
X39650Y586555D01*
X39652Y586740D01*
X38870Y583346D02*
X38840Y583266D01*
X38807Y583187D01*
X38770Y583110D01*
X38730Y583034D01*
X38687Y582960D01*
X38641Y582888D01*
X38591Y582819D01*
X38539Y582751D01*
X38483Y582686D01*
X38425Y582623D01*
X38363Y582564D01*
X38300Y582506D01*
X38233Y582452D01*
X38165Y582401D01*
X38094Y582353D01*
X38021Y582308D01*
X37947Y582266D01*
X37870Y582228D01*
X37792Y582193D01*
X37713Y582161D01*
X37632Y582133D01*
X37550Y582109D01*
X37466Y582088D01*
X37383Y582071D01*
X37298Y582058D01*
X37213Y582049D01*
X37128Y582043D01*
X37042Y582041D01*
X34953Y584129D02*
X39130Y589351D01*
X46447Y591440D02*
X46542Y591438D01*
X46636Y591432D01*
X46730Y591423D01*
X46824Y591410D01*
X46917Y591393D01*
X47009Y591372D01*
X47101Y591347D01*
X47191Y591319D01*
X47280Y591287D01*
X47368Y591252D01*
X47454Y591213D01*
X47539Y591171D01*
X47622Y591125D01*
X47703Y591076D01*
X47782Y591024D01*
X47859Y590969D01*
X47933Y590910D01*
X48005Y590849D01*
X48075Y590785D01*
X48142Y590718D01*
X48206Y590648D01*
X48267Y590576D01*
X48326Y590502D01*
X48381Y590425D01*
X48433Y590346D01*
X48482Y590265D01*
X48528Y590182D01*
X48570Y590097D01*
X48609Y590011D01*
X48644Y589923D01*
X48676Y589834D01*
X48704Y589744D01*
X48729Y589652D01*
X48750Y589560D01*
X48767Y589467D01*
X48780Y589373D01*
X48789Y589279D01*
X48795Y589185D01*
X48797Y589090D01*
X46447Y591439D02*
X46339Y591437D01*
X46230Y591431D01*
X46122Y591421D01*
X46015Y591408D01*
X45908Y591390D01*
X45801Y591369D01*
X45696Y591344D01*
X45591Y591315D01*
X45488Y591283D01*
X45386Y591246D01*
X45285Y591206D01*
X45186Y591163D01*
X45088Y591116D01*
X44992Y591065D01*
X44898Y591011D01*
X44806Y590954D01*
X44716Y590893D01*
X44628Y590829D01*
X44543Y590763D01*
X44460Y590693D01*
X44380Y590620D01*
X44302Y590544D01*
X44227Y590466D01*
X44155Y590385D01*
X44086Y590301D01*
X44020Y590215D01*
X43957Y590127D01*
X43898Y590036D01*
X43841Y589944D01*
X43788Y589849D01*
X43739Y589753D01*
X43693Y589654D01*
X43650Y589555D01*
X43611Y589453D01*
X43576Y589351D01*
X48013Y587262D02*
X48082Y587331D01*
X48148Y587402D01*
X48212Y587475D01*
X48273Y587551D01*
X48331Y587630D01*
X48385Y587710D01*
X48437Y587793D01*
X48485Y587877D01*
X48531Y587963D01*
X48572Y588051D01*
X48611Y588141D01*
X48646Y588232D01*
X48677Y588324D01*
X48705Y588417D01*
X48729Y588511D01*
X48749Y588606D01*
X48766Y588702D01*
X48779Y588799D01*
X48788Y588896D01*
X48794Y588993D01*
X48796Y589090D01*
X48013Y587262D02*
X43575Y582041D01*
X48796Y582041D01*
X79121Y869061D02*
X85386Y878459D01*
X79121Y878459D02*
X85386Y869061D01*
X88787Y876371D02*
X91398Y878459D01*
X91398Y869061D01*
X94008Y869061D02*
X88787Y869061D01*
X97931Y873760D02*
X97933Y873945D01*
X97940Y874130D01*
X97951Y874314D01*
X97966Y874498D01*
X97986Y874682D01*
X98010Y874866D01*
X98039Y875048D01*
X98072Y875230D01*
X98109Y875411D01*
X98151Y875591D01*
X98197Y875771D01*
X98247Y875949D01*
X98301Y876125D01*
X98360Y876301D01*
X98422Y876475D01*
X98489Y876647D01*
X98560Y876818D01*
X98635Y876987D01*
X98714Y877154D01*
X98744Y877234D01*
X98777Y877313D01*
X98814Y877390D01*
X98854Y877466D01*
X98897Y877540D01*
X98943Y877612D01*
X98993Y877681D01*
X99045Y877749D01*
X99101Y877814D01*
X99159Y877877D01*
X99221Y877936D01*
X99284Y877994D01*
X99351Y878048D01*
X99419Y878099D01*
X99490Y878147D01*
X99563Y878192D01*
X99637Y878234D01*
X99714Y878272D01*
X99792Y878307D01*
X99871Y878339D01*
X99952Y878367D01*
X100034Y878391D01*
X100118Y878412D01*
X100201Y878429D01*
X100286Y878442D01*
X100371Y878451D01*
X100456Y878457D01*
X100542Y878459D01*
X100628Y878457D01*
X100713Y878451D01*
X100798Y878442D01*
X100883Y878429D01*
X100966Y878412D01*
X101050Y878391D01*
X101132Y878367D01*
X101213Y878339D01*
X101292Y878307D01*
X101370Y878272D01*
X101447Y878234D01*
X101521Y878192D01*
X101594Y878147D01*
X101665Y878099D01*
X101733Y878048D01*
X101800Y877994D01*
X101863Y877936D01*
X101925Y877877D01*
X101983Y877814D01*
X102039Y877749D01*
X102091Y877681D01*
X102141Y877612D01*
X102187Y877540D01*
X102230Y877466D01*
X102270Y877390D01*
X102307Y877313D01*
X102340Y877234D01*
X102370Y877154D01*
X102369Y877154D02*
X102448Y876987D01*
X102523Y876818D01*
X102594Y876647D01*
X102661Y876475D01*
X102723Y876301D01*
X102782Y876125D01*
X102836Y875949D01*
X102886Y875771D01*
X102932Y875591D01*
X102974Y875411D01*
X103011Y875230D01*
X103044Y875048D01*
X103073Y874866D01*
X103097Y874682D01*
X103117Y874498D01*
X103132Y874314D01*
X103143Y874130D01*
X103150Y873945D01*
X103152Y873760D01*
X97931Y873760D02*
X97933Y873575D01*
X97940Y873390D01*
X97951Y873206D01*
X97966Y873022D01*
X97986Y872838D01*
X98010Y872654D01*
X98039Y872472D01*
X98072Y872290D01*
X98109Y872109D01*
X98151Y871929D01*
X98197Y871749D01*
X98247Y871571D01*
X98301Y871395D01*
X98360Y871219D01*
X98422Y871045D01*
X98489Y870873D01*
X98560Y870702D01*
X98635Y870533D01*
X98714Y870366D01*
X98744Y870286D01*
X98777Y870207D01*
X98814Y870130D01*
X98854Y870054D01*
X98897Y869980D01*
X98943Y869908D01*
X98993Y869839D01*
X99046Y869771D01*
X99101Y869706D01*
X99160Y869643D01*
X99221Y869584D01*
X99284Y869526D01*
X99351Y869472D01*
X99419Y869421D01*
X99490Y869373D01*
X99563Y869328D01*
X99637Y869286D01*
X99714Y869248D01*
X99792Y869213D01*
X99871Y869181D01*
X99952Y869153D01*
X100034Y869129D01*
X100118Y869108D01*
X100201Y869091D01*
X100286Y869078D01*
X100371Y869069D01*
X100456Y869063D01*
X100542Y869061D01*
X102369Y870366D02*
X102448Y870533D01*
X102523Y870702D01*
X102594Y870873D01*
X102661Y871045D01*
X102723Y871219D01*
X102782Y871395D01*
X102836Y871571D01*
X102886Y871749D01*
X102932Y871929D01*
X102974Y872109D01*
X103011Y872290D01*
X103044Y872472D01*
X103073Y872654D01*
X103097Y872838D01*
X103117Y873022D01*
X103132Y873206D01*
X103143Y873390D01*
X103150Y873575D01*
X103152Y873760D01*
X102370Y870366D02*
X102340Y870286D01*
X102307Y870207D01*
X102270Y870130D01*
X102230Y870054D01*
X102187Y869980D01*
X102141Y869908D01*
X102091Y869839D01*
X102039Y869771D01*
X101983Y869706D01*
X101925Y869643D01*
X101863Y869584D01*
X101800Y869526D01*
X101733Y869472D01*
X101665Y869421D01*
X101594Y869373D01*
X101521Y869328D01*
X101447Y869286D01*
X101370Y869248D01*
X101292Y869213D01*
X101213Y869181D01*
X101132Y869153D01*
X101050Y869129D01*
X100966Y869108D01*
X100883Y869091D01*
X100798Y869078D01*
X100713Y869069D01*
X100628Y869063D01*
X100542Y869061D01*
X98453Y871149D02*
X102630Y876371D01*
X107075Y876371D02*
X109686Y878459D01*
X109686Y869061D01*
X112296Y869061D02*
X107075Y869061D01*
X88054Y392159D02*
X88054Y382761D01*
X88054Y392159D02*
X90664Y392159D01*
X90664Y392160D02*
X90765Y392158D01*
X90866Y392152D01*
X90967Y392142D01*
X91067Y392129D01*
X91167Y392111D01*
X91266Y392090D01*
X91364Y392064D01*
X91461Y392035D01*
X91557Y392003D01*
X91651Y391966D01*
X91744Y391926D01*
X91836Y391882D01*
X91925Y391835D01*
X92013Y391784D01*
X92099Y391730D01*
X92182Y391673D01*
X92264Y391613D01*
X92342Y391549D01*
X92419Y391483D01*
X92492Y391413D01*
X92563Y391341D01*
X92631Y391266D01*
X92696Y391188D01*
X92758Y391108D01*
X92817Y391026D01*
X92873Y390941D01*
X92925Y390854D01*
X92974Y390766D01*
X93020Y390675D01*
X93061Y390583D01*
X93100Y390489D01*
X93134Y390394D01*
X93165Y390298D01*
X93192Y390200D01*
X93216Y390102D01*
X93235Y390002D01*
X93251Y389902D01*
X93263Y389802D01*
X93271Y389701D01*
X93275Y389600D01*
X93275Y389498D01*
X93271Y389397D01*
X93263Y389296D01*
X93251Y389196D01*
X93235Y389096D01*
X93216Y388996D01*
X93192Y388898D01*
X93165Y388800D01*
X93134Y388704D01*
X93100Y388609D01*
X93061Y388515D01*
X93020Y388423D01*
X92974Y388332D01*
X92925Y388244D01*
X92873Y388157D01*
X92817Y388072D01*
X92758Y387990D01*
X92696Y387910D01*
X92631Y387832D01*
X92563Y387757D01*
X92492Y387685D01*
X92419Y387615D01*
X92342Y387549D01*
X92264Y387485D01*
X92182Y387425D01*
X92099Y387368D01*
X92013Y387314D01*
X91925Y387263D01*
X91836Y387216D01*
X91744Y387172D01*
X91651Y387132D01*
X91557Y387095D01*
X91461Y387063D01*
X91364Y387034D01*
X91266Y387008D01*
X91167Y386987D01*
X91067Y386969D01*
X90967Y386956D01*
X90866Y386946D01*
X90765Y386940D01*
X90664Y386938D01*
X88054Y386938D01*
X91186Y386938D02*
X93275Y382761D01*
X97141Y390071D02*
X99751Y392159D01*
X99751Y382761D01*
X97141Y382761D02*
X102362Y382761D01*
X106284Y387460D02*
X106286Y387645D01*
X106293Y387830D01*
X106304Y388014D01*
X106319Y388198D01*
X106339Y388382D01*
X106363Y388566D01*
X106392Y388748D01*
X106425Y388930D01*
X106462Y389111D01*
X106504Y389291D01*
X106550Y389471D01*
X106600Y389649D01*
X106654Y389825D01*
X106713Y390001D01*
X106775Y390175D01*
X106842Y390347D01*
X106913Y390518D01*
X106988Y390687D01*
X107067Y390854D01*
X107067Y390855D02*
X107097Y390935D01*
X107130Y391014D01*
X107167Y391091D01*
X107207Y391167D01*
X107250Y391241D01*
X107296Y391313D01*
X107346Y391382D01*
X107398Y391450D01*
X107454Y391515D01*
X107512Y391578D01*
X107574Y391637D01*
X107637Y391695D01*
X107704Y391749D01*
X107772Y391800D01*
X107843Y391848D01*
X107916Y391893D01*
X107990Y391935D01*
X108067Y391973D01*
X108145Y392008D01*
X108224Y392040D01*
X108305Y392068D01*
X108387Y392092D01*
X108471Y392113D01*
X108554Y392130D01*
X108639Y392143D01*
X108724Y392152D01*
X108809Y392158D01*
X108895Y392160D01*
X108981Y392158D01*
X109066Y392152D01*
X109151Y392143D01*
X109236Y392130D01*
X109319Y392113D01*
X109403Y392092D01*
X109485Y392068D01*
X109566Y392040D01*
X109645Y392008D01*
X109723Y391973D01*
X109800Y391935D01*
X109874Y391893D01*
X109947Y391848D01*
X110018Y391800D01*
X110086Y391749D01*
X110153Y391695D01*
X110216Y391637D01*
X110278Y391578D01*
X110336Y391515D01*
X110392Y391450D01*
X110444Y391382D01*
X110494Y391313D01*
X110540Y391241D01*
X110583Y391167D01*
X110623Y391091D01*
X110660Y391014D01*
X110693Y390935D01*
X110723Y390855D01*
X110723Y390854D02*
X110802Y390687D01*
X110877Y390518D01*
X110948Y390347D01*
X111015Y390175D01*
X111077Y390001D01*
X111136Y389825D01*
X111190Y389649D01*
X111240Y389471D01*
X111286Y389291D01*
X111328Y389111D01*
X111365Y388930D01*
X111398Y388748D01*
X111427Y388566D01*
X111451Y388382D01*
X111471Y388198D01*
X111486Y388014D01*
X111497Y387830D01*
X111504Y387645D01*
X111506Y387460D01*
X106284Y387460D02*
X106286Y387275D01*
X106293Y387090D01*
X106304Y386906D01*
X106319Y386722D01*
X106339Y386538D01*
X106363Y386354D01*
X106392Y386172D01*
X106425Y385990D01*
X106462Y385809D01*
X106504Y385629D01*
X106550Y385449D01*
X106600Y385271D01*
X106654Y385095D01*
X106713Y384919D01*
X106775Y384745D01*
X106842Y384573D01*
X106913Y384402D01*
X106988Y384233D01*
X107067Y384066D01*
X107097Y383986D01*
X107130Y383907D01*
X107167Y383830D01*
X107207Y383754D01*
X107250Y383680D01*
X107296Y383608D01*
X107346Y383539D01*
X107399Y383471D01*
X107454Y383406D01*
X107513Y383343D01*
X107574Y383284D01*
X107637Y383226D01*
X107704Y383172D01*
X107772Y383121D01*
X107843Y383073D01*
X107916Y383028D01*
X107990Y382986D01*
X108067Y382948D01*
X108145Y382913D01*
X108224Y382881D01*
X108305Y382853D01*
X108387Y382829D01*
X108471Y382808D01*
X108554Y382791D01*
X108639Y382778D01*
X108724Y382769D01*
X108809Y382763D01*
X108895Y382761D01*
X110723Y384066D02*
X110802Y384233D01*
X110877Y384402D01*
X110948Y384573D01*
X111015Y384745D01*
X111077Y384919D01*
X111136Y385095D01*
X111190Y385271D01*
X111240Y385449D01*
X111286Y385629D01*
X111328Y385809D01*
X111365Y385990D01*
X111398Y386172D01*
X111427Y386354D01*
X111451Y386538D01*
X111471Y386722D01*
X111486Y386906D01*
X111497Y387090D01*
X111504Y387275D01*
X111506Y387460D01*
X110723Y384066D02*
X110693Y383986D01*
X110660Y383907D01*
X110623Y383830D01*
X110583Y383754D01*
X110540Y383680D01*
X110494Y383608D01*
X110444Y383539D01*
X110392Y383471D01*
X110336Y383406D01*
X110278Y383343D01*
X110216Y383284D01*
X110153Y383226D01*
X110086Y383172D01*
X110018Y383121D01*
X109947Y383073D01*
X109874Y383028D01*
X109800Y382986D01*
X109723Y382948D01*
X109645Y382913D01*
X109566Y382881D01*
X109485Y382853D01*
X109403Y382829D01*
X109319Y382808D01*
X109236Y382791D01*
X109151Y382778D01*
X109066Y382769D01*
X108981Y382763D01*
X108895Y382761D01*
X106807Y384850D02*
X110983Y390071D01*
X115428Y382761D02*
X118561Y382761D01*
X118561Y382762D02*
X118650Y382764D01*
X118738Y382770D01*
X118826Y382779D01*
X118914Y382792D01*
X119001Y382809D01*
X119087Y382829D01*
X119172Y382854D01*
X119257Y382881D01*
X119340Y382913D01*
X119421Y382947D01*
X119501Y382986D01*
X119579Y383027D01*
X119656Y383072D01*
X119730Y383120D01*
X119803Y383171D01*
X119873Y383225D01*
X119940Y383283D01*
X120006Y383343D01*
X120068Y383405D01*
X120128Y383471D01*
X120186Y383538D01*
X120240Y383608D01*
X120291Y383681D01*
X120339Y383755D01*
X120384Y383832D01*
X120425Y383910D01*
X120464Y383990D01*
X120498Y384071D01*
X120530Y384154D01*
X120557Y384239D01*
X120582Y384324D01*
X120602Y384410D01*
X120619Y384497D01*
X120632Y384585D01*
X120641Y384673D01*
X120647Y384761D01*
X120649Y384850D01*
X120650Y384850D02*
X120650Y385894D01*
X120649Y385894D02*
X120647Y385983D01*
X120641Y386071D01*
X120632Y386159D01*
X120619Y386247D01*
X120602Y386334D01*
X120582Y386420D01*
X120557Y386505D01*
X120530Y386590D01*
X120498Y386673D01*
X120464Y386754D01*
X120425Y386834D01*
X120384Y386912D01*
X120339Y386989D01*
X120291Y387063D01*
X120240Y387136D01*
X120186Y387206D01*
X120128Y387273D01*
X120068Y387339D01*
X120006Y387401D01*
X119940Y387461D01*
X119873Y387519D01*
X119803Y387573D01*
X119730Y387624D01*
X119656Y387672D01*
X119579Y387717D01*
X119501Y387758D01*
X119421Y387797D01*
X119340Y387831D01*
X119257Y387863D01*
X119172Y387890D01*
X119087Y387915D01*
X119001Y387935D01*
X118914Y387952D01*
X118826Y387965D01*
X118738Y387974D01*
X118650Y387980D01*
X118561Y387982D01*
X115428Y387982D01*
X115428Y392159D01*
X120650Y392159D01*
X79239Y621589D02*
X69841Y621589D01*
X69841Y624199D01*
X69843Y624300D01*
X69849Y624401D01*
X69859Y624502D01*
X69872Y624602D01*
X69890Y624702D01*
X69911Y624801D01*
X69937Y624899D01*
X69966Y624996D01*
X69998Y625092D01*
X70035Y625186D01*
X70075Y625279D01*
X70119Y625371D01*
X70166Y625460D01*
X70217Y625548D01*
X70271Y625634D01*
X70328Y625717D01*
X70388Y625799D01*
X70452Y625877D01*
X70518Y625954D01*
X70588Y626027D01*
X70660Y626098D01*
X70735Y626166D01*
X70813Y626231D01*
X70893Y626293D01*
X70975Y626352D01*
X71060Y626408D01*
X71147Y626460D01*
X71235Y626509D01*
X71326Y626555D01*
X71418Y626596D01*
X71512Y626635D01*
X71607Y626669D01*
X71703Y626700D01*
X71801Y626727D01*
X71899Y626751D01*
X71999Y626770D01*
X72099Y626786D01*
X72199Y626798D01*
X72300Y626806D01*
X72401Y626810D01*
X72503Y626810D01*
X72604Y626806D01*
X72705Y626798D01*
X72805Y626786D01*
X72905Y626770D01*
X73005Y626751D01*
X73103Y626727D01*
X73201Y626700D01*
X73297Y626669D01*
X73392Y626635D01*
X73486Y626596D01*
X73578Y626555D01*
X73669Y626509D01*
X73758Y626460D01*
X73844Y626408D01*
X73929Y626352D01*
X74011Y626293D01*
X74091Y626231D01*
X74169Y626166D01*
X74244Y626098D01*
X74316Y626027D01*
X74386Y625954D01*
X74452Y625877D01*
X74516Y625799D01*
X74576Y625717D01*
X74633Y625634D01*
X74687Y625548D01*
X74738Y625460D01*
X74785Y625371D01*
X74829Y625279D01*
X74869Y625186D01*
X74906Y625092D01*
X74938Y624996D01*
X74967Y624899D01*
X74993Y624801D01*
X75014Y624702D01*
X75032Y624602D01*
X75045Y624502D01*
X75055Y624401D01*
X75061Y624300D01*
X75063Y624199D01*
X75062Y624199D02*
X75062Y621589D01*
X75062Y624721D02*
X79239Y626810D01*
X71930Y630676D02*
X69841Y633286D01*
X79239Y633286D01*
X79239Y630676D02*
X79239Y635897D01*
X74540Y639819D02*
X74355Y639821D01*
X74170Y639828D01*
X73986Y639839D01*
X73802Y639854D01*
X73618Y639874D01*
X73434Y639898D01*
X73252Y639927D01*
X73070Y639960D01*
X72889Y639997D01*
X72709Y640039D01*
X72529Y640085D01*
X72351Y640135D01*
X72175Y640189D01*
X71999Y640248D01*
X71825Y640310D01*
X71653Y640377D01*
X71482Y640448D01*
X71313Y640523D01*
X71146Y640602D01*
X71066Y640632D01*
X70987Y640665D01*
X70910Y640702D01*
X70834Y640742D01*
X70760Y640785D01*
X70688Y640831D01*
X70619Y640881D01*
X70551Y640933D01*
X70486Y640989D01*
X70423Y641047D01*
X70364Y641109D01*
X70306Y641172D01*
X70252Y641239D01*
X70201Y641307D01*
X70153Y641378D01*
X70108Y641451D01*
X70066Y641525D01*
X70028Y641602D01*
X69993Y641680D01*
X69961Y641759D01*
X69933Y641840D01*
X69909Y641922D01*
X69888Y642006D01*
X69871Y642089D01*
X69858Y642174D01*
X69849Y642259D01*
X69843Y642344D01*
X69841Y642430D01*
X69843Y642516D01*
X69849Y642601D01*
X69858Y642686D01*
X69871Y642771D01*
X69888Y642854D01*
X69909Y642938D01*
X69933Y643020D01*
X69961Y643101D01*
X69993Y643180D01*
X70028Y643258D01*
X70066Y643335D01*
X70108Y643409D01*
X70153Y643482D01*
X70201Y643553D01*
X70252Y643621D01*
X70306Y643688D01*
X70364Y643751D01*
X70423Y643813D01*
X70486Y643871D01*
X70551Y643927D01*
X70619Y643979D01*
X70688Y644029D01*
X70760Y644075D01*
X70834Y644118D01*
X70910Y644158D01*
X70987Y644195D01*
X71066Y644228D01*
X71146Y644258D01*
X71313Y644337D01*
X71482Y644412D01*
X71653Y644483D01*
X71825Y644550D01*
X71999Y644612D01*
X72175Y644671D01*
X72351Y644725D01*
X72529Y644775D01*
X72709Y644821D01*
X72889Y644863D01*
X73070Y644900D01*
X73252Y644933D01*
X73434Y644962D01*
X73618Y644986D01*
X73802Y645006D01*
X73986Y645021D01*
X74170Y645032D01*
X74355Y645039D01*
X74540Y645041D01*
X74540Y639820D02*
X74725Y639822D01*
X74910Y639829D01*
X75094Y639840D01*
X75278Y639855D01*
X75462Y639875D01*
X75646Y639899D01*
X75828Y639928D01*
X76010Y639961D01*
X76191Y639998D01*
X76371Y640040D01*
X76551Y640086D01*
X76729Y640136D01*
X76905Y640190D01*
X77081Y640249D01*
X77255Y640311D01*
X77427Y640378D01*
X77598Y640449D01*
X77767Y640524D01*
X77934Y640603D01*
X77934Y640602D02*
X78014Y640632D01*
X78093Y640665D01*
X78170Y640702D01*
X78246Y640742D01*
X78320Y640785D01*
X78392Y640831D01*
X78461Y640881D01*
X78529Y640934D01*
X78594Y640989D01*
X78657Y641048D01*
X78716Y641109D01*
X78774Y641172D01*
X78828Y641239D01*
X78879Y641307D01*
X78927Y641378D01*
X78972Y641451D01*
X79014Y641525D01*
X79052Y641602D01*
X79087Y641680D01*
X79119Y641759D01*
X79147Y641840D01*
X79171Y641922D01*
X79192Y642006D01*
X79209Y642089D01*
X79222Y642174D01*
X79231Y642259D01*
X79237Y642344D01*
X79239Y642430D01*
X77934Y644258D02*
X77767Y644337D01*
X77598Y644412D01*
X77427Y644483D01*
X77255Y644550D01*
X77081Y644612D01*
X76905Y644671D01*
X76729Y644725D01*
X76551Y644775D01*
X76371Y644821D01*
X76191Y644863D01*
X76010Y644900D01*
X75828Y644933D01*
X75646Y644962D01*
X75462Y644986D01*
X75278Y645006D01*
X75094Y645021D01*
X74910Y645032D01*
X74725Y645039D01*
X74540Y645041D01*
X77934Y644258D02*
X78014Y644228D01*
X78093Y644195D01*
X78170Y644158D01*
X78246Y644118D01*
X78320Y644075D01*
X78392Y644029D01*
X78461Y643979D01*
X78529Y643927D01*
X78594Y643871D01*
X78657Y643813D01*
X78716Y643751D01*
X78774Y643688D01*
X78828Y643621D01*
X78879Y643553D01*
X78927Y643482D01*
X78972Y643409D01*
X79014Y643335D01*
X79052Y643258D01*
X79087Y643180D01*
X79119Y643101D01*
X79147Y643020D01*
X79171Y642938D01*
X79192Y642854D01*
X79209Y642771D01*
X79222Y642686D01*
X79231Y642601D01*
X79237Y642516D01*
X79239Y642430D01*
X77151Y640342D02*
X71930Y644519D01*
X79239Y648964D02*
X79239Y651574D01*
X79240Y651574D02*
X79238Y651675D01*
X79232Y651776D01*
X79222Y651877D01*
X79209Y651977D01*
X79191Y652077D01*
X79170Y652176D01*
X79144Y652274D01*
X79115Y652371D01*
X79083Y652467D01*
X79046Y652561D01*
X79006Y652654D01*
X78962Y652746D01*
X78915Y652835D01*
X78864Y652923D01*
X78810Y653009D01*
X78753Y653092D01*
X78693Y653174D01*
X78629Y653252D01*
X78563Y653329D01*
X78493Y653402D01*
X78421Y653473D01*
X78346Y653541D01*
X78268Y653606D01*
X78188Y653668D01*
X78106Y653727D01*
X78021Y653783D01*
X77935Y653835D01*
X77846Y653884D01*
X77755Y653930D01*
X77663Y653971D01*
X77569Y654010D01*
X77474Y654044D01*
X77378Y654075D01*
X77280Y654102D01*
X77182Y654126D01*
X77082Y654145D01*
X76982Y654161D01*
X76882Y654173D01*
X76781Y654181D01*
X76680Y654185D01*
X76578Y654185D01*
X76477Y654181D01*
X76376Y654173D01*
X76276Y654161D01*
X76176Y654145D01*
X76076Y654126D01*
X75978Y654102D01*
X75880Y654075D01*
X75784Y654044D01*
X75689Y654010D01*
X75595Y653971D01*
X75503Y653930D01*
X75412Y653884D01*
X75324Y653835D01*
X75237Y653783D01*
X75152Y653727D01*
X75070Y653668D01*
X74990Y653606D01*
X74912Y653541D01*
X74837Y653473D01*
X74765Y653402D01*
X74695Y653329D01*
X74629Y653252D01*
X74565Y653174D01*
X74505Y653092D01*
X74448Y653009D01*
X74394Y652923D01*
X74343Y652835D01*
X74296Y652746D01*
X74252Y652654D01*
X74212Y652561D01*
X74175Y652467D01*
X74143Y652371D01*
X74114Y652274D01*
X74088Y652176D01*
X74067Y652077D01*
X74049Y651977D01*
X74036Y651877D01*
X74026Y651776D01*
X74020Y651675D01*
X74018Y651574D01*
X69841Y652096D02*
X69841Y648964D01*
X69842Y652096D02*
X69844Y652186D01*
X69850Y652275D01*
X69859Y652365D01*
X69873Y652454D01*
X69890Y652542D01*
X69911Y652629D01*
X69936Y652716D01*
X69965Y652801D01*
X69997Y652885D01*
X70032Y652967D01*
X70072Y653048D01*
X70114Y653127D01*
X70160Y653204D01*
X70210Y653279D01*
X70262Y653352D01*
X70318Y653423D01*
X70376Y653491D01*
X70438Y653556D01*
X70502Y653619D01*
X70569Y653679D01*
X70638Y653736D01*
X70710Y653790D01*
X70784Y653841D01*
X70860Y653889D01*
X70938Y653933D01*
X71018Y653974D01*
X71100Y654012D01*
X71183Y654046D01*
X71268Y654076D01*
X71354Y654103D01*
X71440Y654126D01*
X71528Y654145D01*
X71617Y654160D01*
X71706Y654172D01*
X71795Y654180D01*
X71885Y654184D01*
X71975Y654184D01*
X72065Y654180D01*
X72154Y654172D01*
X72243Y654160D01*
X72332Y654145D01*
X72420Y654126D01*
X72506Y654103D01*
X72592Y654076D01*
X72677Y654046D01*
X72760Y654012D01*
X72842Y653974D01*
X72922Y653933D01*
X73000Y653889D01*
X73076Y653841D01*
X73150Y653790D01*
X73222Y653736D01*
X73291Y653679D01*
X73358Y653619D01*
X73422Y653556D01*
X73484Y653491D01*
X73542Y653423D01*
X73598Y653352D01*
X73650Y653279D01*
X73700Y653204D01*
X73746Y653127D01*
X73788Y653048D01*
X73828Y652967D01*
X73863Y652885D01*
X73895Y652801D01*
X73924Y652716D01*
X73949Y652629D01*
X73970Y652542D01*
X73987Y652454D01*
X74001Y652365D01*
X74010Y652275D01*
X74016Y652186D01*
X74018Y652096D01*
X74018Y650008D01*
D12*
X75679Y185869D02*
X75679Y174185D01*
X75679Y185869D02*
X78925Y185869D01*
X79038Y185867D01*
X79151Y185861D01*
X79264Y185851D01*
X79377Y185837D01*
X79489Y185820D01*
X79600Y185798D01*
X79710Y185773D01*
X79820Y185743D01*
X79928Y185710D01*
X80035Y185673D01*
X80141Y185633D01*
X80245Y185588D01*
X80348Y185540D01*
X80449Y185489D01*
X80548Y185434D01*
X80645Y185376D01*
X80740Y185314D01*
X80833Y185249D01*
X80923Y185181D01*
X81011Y185110D01*
X81097Y185035D01*
X81180Y184958D01*
X81260Y184878D01*
X81337Y184795D01*
X81412Y184709D01*
X81483Y184621D01*
X81551Y184531D01*
X81616Y184438D01*
X81678Y184343D01*
X81736Y184246D01*
X81791Y184147D01*
X81842Y184046D01*
X81890Y183943D01*
X81935Y183839D01*
X81975Y183733D01*
X82012Y183626D01*
X82045Y183518D01*
X82075Y183408D01*
X82100Y183298D01*
X82122Y183187D01*
X82139Y183075D01*
X82153Y182962D01*
X82163Y182849D01*
X82169Y182736D01*
X82171Y182623D01*
X82169Y182510D01*
X82163Y182397D01*
X82153Y182284D01*
X82139Y182171D01*
X82122Y182059D01*
X82100Y181948D01*
X82075Y181838D01*
X82045Y181728D01*
X82012Y181620D01*
X81975Y181513D01*
X81935Y181407D01*
X81890Y181303D01*
X81842Y181200D01*
X81791Y181099D01*
X81736Y181000D01*
X81678Y180903D01*
X81616Y180808D01*
X81551Y180715D01*
X81483Y180625D01*
X81412Y180537D01*
X81337Y180451D01*
X81260Y180368D01*
X81180Y180288D01*
X81097Y180211D01*
X81011Y180136D01*
X80923Y180065D01*
X80833Y179997D01*
X80740Y179932D01*
X80645Y179870D01*
X80548Y179812D01*
X80449Y179757D01*
X80348Y179706D01*
X80245Y179658D01*
X80141Y179613D01*
X80035Y179573D01*
X79928Y179536D01*
X79820Y179503D01*
X79710Y179473D01*
X79600Y179448D01*
X79489Y179426D01*
X79377Y179409D01*
X79264Y179395D01*
X79151Y179385D01*
X79038Y179379D01*
X78925Y179377D01*
X78925Y179378D02*
X75679Y179378D01*
X79574Y179378D02*
X82170Y174185D01*
X87035Y183272D02*
X90281Y185869D01*
X90281Y174185D01*
X87035Y174185D02*
X93527Y174185D01*
X98466Y180027D02*
X98469Y180257D01*
X98477Y180487D01*
X98491Y180716D01*
X98510Y180945D01*
X98535Y181174D01*
X98565Y181401D01*
X98600Y181629D01*
X98641Y181855D01*
X98687Y182080D01*
X98739Y182304D01*
X98796Y182526D01*
X98858Y182748D01*
X98926Y182967D01*
X98999Y183185D01*
X99077Y183402D01*
X99160Y183616D01*
X99248Y183828D01*
X99341Y184038D01*
X99440Y184246D01*
X99439Y184246D02*
X99472Y184336D01*
X99508Y184425D01*
X99548Y184513D01*
X99592Y184598D01*
X99639Y184682D01*
X99689Y184764D01*
X99743Y184844D01*
X99799Y184921D01*
X99859Y184997D01*
X99922Y185070D01*
X99987Y185140D01*
X100056Y185208D01*
X100127Y185272D01*
X100200Y185334D01*
X100276Y185393D01*
X100354Y185449D01*
X100435Y185502D01*
X100517Y185551D01*
X100601Y185597D01*
X100688Y185640D01*
X100775Y185679D01*
X100865Y185715D01*
X100955Y185747D01*
X101047Y185775D01*
X101140Y185800D01*
X101234Y185821D01*
X101328Y185838D01*
X101423Y185852D01*
X101519Y185861D01*
X101615Y185867D01*
X101711Y185869D01*
X101807Y185867D01*
X101903Y185861D01*
X101999Y185852D01*
X102094Y185838D01*
X102188Y185821D01*
X102282Y185800D01*
X102375Y185775D01*
X102467Y185747D01*
X102557Y185715D01*
X102647Y185679D01*
X102734Y185640D01*
X102821Y185597D01*
X102905Y185551D01*
X102987Y185502D01*
X103068Y185449D01*
X103146Y185393D01*
X103222Y185334D01*
X103295Y185272D01*
X103366Y185208D01*
X103435Y185140D01*
X103500Y185070D01*
X103563Y184997D01*
X103623Y184921D01*
X103679Y184844D01*
X103733Y184764D01*
X103783Y184682D01*
X103830Y184598D01*
X103874Y184513D01*
X103914Y184425D01*
X103950Y184336D01*
X103983Y184246D01*
X104082Y184039D01*
X104175Y183829D01*
X104263Y183616D01*
X104346Y183402D01*
X104424Y183186D01*
X104497Y182968D01*
X104565Y182748D01*
X104627Y182527D01*
X104684Y182304D01*
X104736Y182080D01*
X104782Y181855D01*
X104823Y181629D01*
X104858Y181402D01*
X104888Y181174D01*
X104913Y180945D01*
X104932Y180716D01*
X104946Y180487D01*
X104954Y180257D01*
X104957Y180027D01*
X98465Y180027D02*
X98468Y179797D01*
X98476Y179567D01*
X98490Y179338D01*
X98509Y179109D01*
X98534Y178880D01*
X98564Y178652D01*
X98599Y178425D01*
X98640Y178199D01*
X98686Y177974D01*
X98738Y177750D01*
X98795Y177527D01*
X98857Y177306D01*
X98925Y177086D01*
X98998Y176868D01*
X99076Y176652D01*
X99159Y176438D01*
X99247Y176226D01*
X99340Y176015D01*
X99439Y175808D01*
X99439Y175807D02*
X99472Y175717D01*
X99508Y175628D01*
X99549Y175540D01*
X99592Y175455D01*
X99639Y175371D01*
X99689Y175289D01*
X99743Y175209D01*
X99799Y175132D01*
X99859Y175056D01*
X99922Y174983D01*
X99987Y174913D01*
X100056Y174845D01*
X100127Y174781D01*
X100200Y174719D01*
X100276Y174660D01*
X100354Y174604D01*
X100435Y174551D01*
X100517Y174502D01*
X100601Y174456D01*
X100688Y174413D01*
X100775Y174374D01*
X100865Y174338D01*
X100955Y174306D01*
X101047Y174278D01*
X101140Y174253D01*
X101234Y174232D01*
X101328Y174215D01*
X101423Y174201D01*
X101519Y174192D01*
X101615Y174186D01*
X101711Y174184D01*
X103983Y175808D02*
X104082Y176015D01*
X104175Y176226D01*
X104263Y176438D01*
X104346Y176652D01*
X104424Y176868D01*
X104497Y177086D01*
X104565Y177306D01*
X104627Y177527D01*
X104684Y177750D01*
X104736Y177974D01*
X104782Y178199D01*
X104823Y178425D01*
X104858Y178652D01*
X104888Y178880D01*
X104913Y179109D01*
X104932Y179338D01*
X104946Y179567D01*
X104954Y179797D01*
X104957Y180027D01*
X103983Y175807D02*
X103950Y175717D01*
X103914Y175628D01*
X103874Y175540D01*
X103830Y175455D01*
X103783Y175371D01*
X103733Y175289D01*
X103679Y175209D01*
X103623Y175132D01*
X103563Y175056D01*
X103500Y174983D01*
X103435Y174913D01*
X103366Y174845D01*
X103295Y174781D01*
X103222Y174719D01*
X103146Y174660D01*
X103068Y174604D01*
X102987Y174551D01*
X102905Y174502D01*
X102821Y174456D01*
X102734Y174413D01*
X102647Y174374D01*
X102557Y174338D01*
X102467Y174306D01*
X102375Y174278D01*
X102282Y174253D01*
X102188Y174232D01*
X102094Y174215D01*
X101999Y174201D01*
X101903Y174192D01*
X101807Y174186D01*
X101711Y174184D01*
X99115Y176781D02*
X104307Y183272D01*
X109895Y184570D02*
X109895Y185869D01*
X116386Y185869D01*
X113141Y174185D01*
D11*
X23749Y612521D02*
X14351Y612521D01*
X14351Y615132D01*
X14353Y615233D01*
X14359Y615334D01*
X14369Y615435D01*
X14382Y615535D01*
X14400Y615635D01*
X14421Y615734D01*
X14447Y615832D01*
X14476Y615929D01*
X14508Y616025D01*
X14545Y616119D01*
X14585Y616212D01*
X14629Y616304D01*
X14676Y616393D01*
X14727Y616481D01*
X14781Y616567D01*
X14838Y616650D01*
X14898Y616732D01*
X14962Y616810D01*
X15028Y616887D01*
X15098Y616960D01*
X15170Y617031D01*
X15245Y617099D01*
X15323Y617164D01*
X15403Y617226D01*
X15485Y617285D01*
X15570Y617341D01*
X15657Y617393D01*
X15745Y617442D01*
X15836Y617488D01*
X15928Y617529D01*
X16022Y617568D01*
X16117Y617602D01*
X16213Y617633D01*
X16311Y617660D01*
X16409Y617684D01*
X16509Y617703D01*
X16609Y617719D01*
X16709Y617731D01*
X16810Y617739D01*
X16911Y617743D01*
X17013Y617743D01*
X17114Y617739D01*
X17215Y617731D01*
X17315Y617719D01*
X17415Y617703D01*
X17515Y617684D01*
X17613Y617660D01*
X17711Y617633D01*
X17807Y617602D01*
X17902Y617568D01*
X17996Y617529D01*
X18088Y617488D01*
X18179Y617442D01*
X18268Y617393D01*
X18354Y617341D01*
X18439Y617285D01*
X18521Y617226D01*
X18601Y617164D01*
X18679Y617099D01*
X18754Y617031D01*
X18826Y616960D01*
X18896Y616887D01*
X18962Y616810D01*
X19026Y616732D01*
X19086Y616650D01*
X19143Y616567D01*
X19197Y616481D01*
X19248Y616393D01*
X19295Y616304D01*
X19339Y616212D01*
X19379Y616119D01*
X19416Y616025D01*
X19448Y615929D01*
X19477Y615832D01*
X19503Y615734D01*
X19524Y615635D01*
X19542Y615535D01*
X19555Y615435D01*
X19565Y615334D01*
X19571Y615233D01*
X19573Y615132D01*
X19572Y615132D02*
X19572Y612521D01*
X19572Y615654D02*
X23749Y617742D01*
X16439Y621608D02*
X14351Y624218D01*
X23749Y624218D01*
X23749Y621608D02*
X23749Y626829D01*
X19050Y630752D02*
X18865Y630754D01*
X18680Y630761D01*
X18496Y630772D01*
X18312Y630787D01*
X18128Y630807D01*
X17944Y630831D01*
X17762Y630860D01*
X17580Y630893D01*
X17399Y630930D01*
X17219Y630972D01*
X17039Y631018D01*
X16861Y631068D01*
X16685Y631122D01*
X16509Y631181D01*
X16335Y631243D01*
X16163Y631310D01*
X15992Y631381D01*
X15823Y631456D01*
X15656Y631535D01*
X15656Y631534D02*
X15576Y631564D01*
X15497Y631597D01*
X15420Y631634D01*
X15344Y631674D01*
X15270Y631717D01*
X15198Y631763D01*
X15129Y631813D01*
X15061Y631865D01*
X14996Y631921D01*
X14933Y631979D01*
X14874Y632041D01*
X14816Y632104D01*
X14762Y632171D01*
X14711Y632239D01*
X14663Y632310D01*
X14618Y632383D01*
X14576Y632457D01*
X14538Y632534D01*
X14503Y632612D01*
X14471Y632691D01*
X14443Y632772D01*
X14419Y632854D01*
X14398Y632938D01*
X14381Y633021D01*
X14368Y633106D01*
X14359Y633191D01*
X14353Y633276D01*
X14351Y633362D01*
X14353Y633448D01*
X14359Y633533D01*
X14368Y633618D01*
X14381Y633703D01*
X14398Y633786D01*
X14419Y633870D01*
X14443Y633952D01*
X14471Y634033D01*
X14503Y634112D01*
X14538Y634190D01*
X14576Y634267D01*
X14618Y634341D01*
X14663Y634414D01*
X14711Y634485D01*
X14762Y634553D01*
X14816Y634620D01*
X14874Y634683D01*
X14933Y634745D01*
X14996Y634803D01*
X15061Y634859D01*
X15129Y634911D01*
X15198Y634961D01*
X15270Y635007D01*
X15344Y635050D01*
X15420Y635090D01*
X15497Y635127D01*
X15576Y635160D01*
X15656Y635190D01*
X15823Y635269D01*
X15992Y635344D01*
X16163Y635415D01*
X16335Y635482D01*
X16509Y635544D01*
X16685Y635603D01*
X16861Y635657D01*
X17039Y635707D01*
X17219Y635753D01*
X17399Y635795D01*
X17580Y635832D01*
X17762Y635865D01*
X17944Y635894D01*
X18128Y635918D01*
X18312Y635938D01*
X18496Y635953D01*
X18680Y635964D01*
X18865Y635971D01*
X19050Y635973D01*
X19050Y630752D02*
X19235Y630754D01*
X19420Y630761D01*
X19604Y630772D01*
X19788Y630787D01*
X19972Y630807D01*
X20156Y630831D01*
X20338Y630860D01*
X20520Y630893D01*
X20701Y630930D01*
X20881Y630972D01*
X21061Y631018D01*
X21239Y631068D01*
X21415Y631122D01*
X21591Y631181D01*
X21765Y631243D01*
X21937Y631310D01*
X22108Y631381D01*
X22277Y631456D01*
X22444Y631535D01*
X22444Y631534D02*
X22524Y631564D01*
X22603Y631597D01*
X22680Y631634D01*
X22756Y631674D01*
X22830Y631717D01*
X22902Y631763D01*
X22971Y631813D01*
X23039Y631866D01*
X23104Y631921D01*
X23167Y631980D01*
X23226Y632041D01*
X23284Y632104D01*
X23338Y632171D01*
X23389Y632239D01*
X23437Y632310D01*
X23482Y632383D01*
X23524Y632457D01*
X23562Y632534D01*
X23597Y632612D01*
X23629Y632691D01*
X23657Y632772D01*
X23681Y632854D01*
X23702Y632938D01*
X23719Y633021D01*
X23732Y633106D01*
X23741Y633191D01*
X23747Y633276D01*
X23749Y633362D01*
X22444Y635190D02*
X22277Y635269D01*
X22108Y635344D01*
X21937Y635415D01*
X21765Y635482D01*
X21591Y635544D01*
X21415Y635603D01*
X21239Y635657D01*
X21061Y635707D01*
X20881Y635753D01*
X20701Y635795D01*
X20520Y635832D01*
X20338Y635865D01*
X20156Y635894D01*
X19972Y635918D01*
X19788Y635938D01*
X19604Y635953D01*
X19420Y635964D01*
X19235Y635971D01*
X19050Y635973D01*
X22444Y635190D02*
X22524Y635160D01*
X22603Y635127D01*
X22680Y635090D01*
X22756Y635050D01*
X22830Y635007D01*
X22902Y634961D01*
X22971Y634911D01*
X23039Y634859D01*
X23104Y634803D01*
X23167Y634745D01*
X23226Y634683D01*
X23284Y634620D01*
X23338Y634553D01*
X23389Y634485D01*
X23437Y634414D01*
X23482Y634341D01*
X23524Y634267D01*
X23562Y634190D01*
X23597Y634112D01*
X23629Y634033D01*
X23657Y633952D01*
X23681Y633870D01*
X23702Y633786D01*
X23719Y633703D01*
X23732Y633618D01*
X23741Y633533D01*
X23747Y633448D01*
X23749Y633362D01*
X21661Y631274D02*
X16439Y635451D01*
X21661Y639896D02*
X14351Y641984D01*
X21661Y639896D02*
X21661Y645117D01*
X19572Y643551D02*
X23749Y643551D01*
X79121Y447929D02*
X79121Y438531D01*
X79121Y447929D02*
X81732Y447929D01*
X81833Y447927D01*
X81934Y447921D01*
X82035Y447911D01*
X82135Y447898D01*
X82235Y447880D01*
X82334Y447859D01*
X82432Y447833D01*
X82529Y447804D01*
X82625Y447772D01*
X82719Y447735D01*
X82812Y447695D01*
X82904Y447651D01*
X82993Y447604D01*
X83081Y447553D01*
X83167Y447499D01*
X83250Y447442D01*
X83332Y447382D01*
X83410Y447318D01*
X83487Y447252D01*
X83560Y447182D01*
X83631Y447110D01*
X83699Y447035D01*
X83764Y446957D01*
X83826Y446877D01*
X83885Y446795D01*
X83941Y446710D01*
X83993Y446623D01*
X84042Y446535D01*
X84088Y446444D01*
X84129Y446352D01*
X84168Y446258D01*
X84202Y446163D01*
X84233Y446067D01*
X84260Y445969D01*
X84284Y445871D01*
X84303Y445771D01*
X84319Y445671D01*
X84331Y445571D01*
X84339Y445470D01*
X84343Y445369D01*
X84343Y445267D01*
X84339Y445166D01*
X84331Y445065D01*
X84319Y444965D01*
X84303Y444865D01*
X84284Y444765D01*
X84260Y444667D01*
X84233Y444569D01*
X84202Y444473D01*
X84168Y444378D01*
X84129Y444284D01*
X84088Y444192D01*
X84042Y444101D01*
X83993Y444013D01*
X83941Y443926D01*
X83885Y443841D01*
X83826Y443759D01*
X83764Y443679D01*
X83699Y443601D01*
X83631Y443526D01*
X83560Y443454D01*
X83487Y443384D01*
X83410Y443318D01*
X83332Y443254D01*
X83250Y443194D01*
X83167Y443137D01*
X83081Y443083D01*
X82993Y443032D01*
X82904Y442985D01*
X82812Y442941D01*
X82719Y442901D01*
X82625Y442864D01*
X82529Y442832D01*
X82432Y442803D01*
X82334Y442777D01*
X82235Y442756D01*
X82135Y442738D01*
X82035Y442725D01*
X81934Y442715D01*
X81833Y442709D01*
X81732Y442707D01*
X81732Y442708D02*
X79121Y442708D01*
X82254Y442708D02*
X84342Y438531D01*
X88208Y445841D02*
X90818Y447929D01*
X90818Y438531D01*
X88208Y438531D02*
X93429Y438531D01*
X97352Y443230D02*
X97354Y443415D01*
X97361Y443600D01*
X97372Y443784D01*
X97387Y443968D01*
X97407Y444152D01*
X97431Y444336D01*
X97460Y444518D01*
X97493Y444700D01*
X97530Y444881D01*
X97572Y445061D01*
X97618Y445241D01*
X97668Y445419D01*
X97722Y445595D01*
X97781Y445771D01*
X97843Y445945D01*
X97910Y446117D01*
X97981Y446288D01*
X98056Y446457D01*
X98135Y446624D01*
X98134Y446624D02*
X98164Y446704D01*
X98197Y446783D01*
X98234Y446860D01*
X98274Y446936D01*
X98317Y447010D01*
X98363Y447082D01*
X98413Y447151D01*
X98465Y447219D01*
X98521Y447284D01*
X98579Y447347D01*
X98641Y447406D01*
X98704Y447464D01*
X98771Y447518D01*
X98839Y447569D01*
X98910Y447617D01*
X98983Y447662D01*
X99057Y447704D01*
X99134Y447742D01*
X99212Y447777D01*
X99291Y447809D01*
X99372Y447837D01*
X99454Y447861D01*
X99538Y447882D01*
X99621Y447899D01*
X99706Y447912D01*
X99791Y447921D01*
X99876Y447927D01*
X99962Y447929D01*
X100048Y447927D01*
X100133Y447921D01*
X100218Y447912D01*
X100303Y447899D01*
X100386Y447882D01*
X100470Y447861D01*
X100552Y447837D01*
X100633Y447809D01*
X100712Y447777D01*
X100790Y447742D01*
X100867Y447704D01*
X100941Y447662D01*
X101014Y447617D01*
X101085Y447569D01*
X101153Y447518D01*
X101220Y447464D01*
X101283Y447406D01*
X101345Y447347D01*
X101403Y447284D01*
X101459Y447219D01*
X101511Y447151D01*
X101561Y447082D01*
X101607Y447010D01*
X101650Y446936D01*
X101690Y446860D01*
X101727Y446783D01*
X101760Y446704D01*
X101790Y446624D01*
X101869Y446457D01*
X101944Y446288D01*
X102015Y446117D01*
X102082Y445945D01*
X102144Y445771D01*
X102203Y445595D01*
X102257Y445419D01*
X102307Y445241D01*
X102353Y445061D01*
X102395Y444881D01*
X102432Y444700D01*
X102465Y444518D01*
X102494Y444336D01*
X102518Y444152D01*
X102538Y443968D01*
X102553Y443784D01*
X102564Y443600D01*
X102571Y443415D01*
X102573Y443230D01*
X97352Y443230D02*
X97354Y443045D01*
X97361Y442860D01*
X97372Y442676D01*
X97387Y442492D01*
X97407Y442308D01*
X97431Y442124D01*
X97460Y441942D01*
X97493Y441760D01*
X97530Y441579D01*
X97572Y441399D01*
X97618Y441219D01*
X97668Y441041D01*
X97722Y440865D01*
X97781Y440689D01*
X97843Y440515D01*
X97910Y440343D01*
X97981Y440172D01*
X98056Y440003D01*
X98135Y439836D01*
X98134Y439836D02*
X98164Y439756D01*
X98197Y439677D01*
X98234Y439600D01*
X98274Y439524D01*
X98317Y439450D01*
X98363Y439378D01*
X98413Y439309D01*
X98466Y439241D01*
X98521Y439176D01*
X98580Y439113D01*
X98641Y439054D01*
X98704Y438996D01*
X98771Y438942D01*
X98839Y438891D01*
X98910Y438843D01*
X98983Y438798D01*
X99057Y438756D01*
X99134Y438718D01*
X99212Y438683D01*
X99291Y438651D01*
X99372Y438623D01*
X99454Y438599D01*
X99538Y438578D01*
X99621Y438561D01*
X99706Y438548D01*
X99791Y438539D01*
X99876Y438533D01*
X99962Y438531D01*
X101790Y439836D02*
X101869Y440003D01*
X101944Y440172D01*
X102015Y440343D01*
X102082Y440515D01*
X102144Y440689D01*
X102203Y440865D01*
X102257Y441041D01*
X102307Y441219D01*
X102353Y441399D01*
X102395Y441579D01*
X102432Y441760D01*
X102465Y441942D01*
X102494Y442124D01*
X102518Y442308D01*
X102538Y442492D01*
X102553Y442676D01*
X102564Y442860D01*
X102571Y443045D01*
X102573Y443230D01*
X101790Y439836D02*
X101760Y439756D01*
X101727Y439677D01*
X101690Y439600D01*
X101650Y439524D01*
X101607Y439450D01*
X101561Y439378D01*
X101511Y439309D01*
X101459Y439241D01*
X101403Y439176D01*
X101345Y439113D01*
X101283Y439054D01*
X101220Y438996D01*
X101153Y438942D01*
X101085Y438891D01*
X101014Y438843D01*
X100941Y438798D01*
X100867Y438756D01*
X100790Y438718D01*
X100712Y438683D01*
X100633Y438651D01*
X100552Y438623D01*
X100470Y438599D01*
X100386Y438578D01*
X100303Y438561D01*
X100218Y438548D01*
X100133Y438539D01*
X100048Y438533D01*
X99962Y438531D01*
X97874Y440619D02*
X102051Y445841D01*
X106496Y443752D02*
X109629Y443752D01*
X109718Y443750D01*
X109806Y443744D01*
X109894Y443735D01*
X109982Y443722D01*
X110069Y443705D01*
X110155Y443685D01*
X110240Y443660D01*
X110325Y443633D01*
X110408Y443601D01*
X110489Y443567D01*
X110569Y443528D01*
X110647Y443487D01*
X110724Y443442D01*
X110798Y443394D01*
X110871Y443343D01*
X110941Y443289D01*
X111008Y443231D01*
X111074Y443171D01*
X111136Y443109D01*
X111196Y443043D01*
X111254Y442976D01*
X111308Y442906D01*
X111359Y442833D01*
X111407Y442759D01*
X111452Y442682D01*
X111493Y442604D01*
X111532Y442524D01*
X111566Y442443D01*
X111598Y442360D01*
X111625Y442275D01*
X111650Y442190D01*
X111670Y442104D01*
X111687Y442017D01*
X111700Y441929D01*
X111709Y441841D01*
X111715Y441753D01*
X111717Y441664D01*
X111717Y441142D01*
X111715Y441041D01*
X111709Y440940D01*
X111699Y440839D01*
X111686Y440739D01*
X111668Y440639D01*
X111647Y440540D01*
X111621Y440442D01*
X111592Y440345D01*
X111560Y440249D01*
X111523Y440155D01*
X111483Y440062D01*
X111439Y439970D01*
X111392Y439881D01*
X111341Y439793D01*
X111287Y439707D01*
X111230Y439624D01*
X111170Y439542D01*
X111106Y439464D01*
X111040Y439387D01*
X110970Y439314D01*
X110898Y439243D01*
X110823Y439175D01*
X110745Y439110D01*
X110665Y439048D01*
X110583Y438989D01*
X110498Y438933D01*
X110411Y438881D01*
X110323Y438832D01*
X110232Y438786D01*
X110140Y438745D01*
X110046Y438706D01*
X109951Y438672D01*
X109855Y438641D01*
X109757Y438614D01*
X109659Y438590D01*
X109559Y438571D01*
X109459Y438555D01*
X109359Y438543D01*
X109258Y438535D01*
X109157Y438531D01*
X109055Y438531D01*
X108954Y438535D01*
X108853Y438543D01*
X108753Y438555D01*
X108653Y438571D01*
X108553Y438590D01*
X108455Y438614D01*
X108357Y438641D01*
X108261Y438672D01*
X108166Y438706D01*
X108072Y438745D01*
X107980Y438786D01*
X107889Y438832D01*
X107801Y438881D01*
X107714Y438933D01*
X107629Y438989D01*
X107547Y439048D01*
X107467Y439110D01*
X107389Y439175D01*
X107314Y439243D01*
X107242Y439314D01*
X107172Y439387D01*
X107106Y439464D01*
X107042Y439542D01*
X106982Y439624D01*
X106925Y439707D01*
X106871Y439793D01*
X106820Y439881D01*
X106773Y439970D01*
X106729Y440062D01*
X106689Y440155D01*
X106652Y440249D01*
X106620Y440345D01*
X106591Y440442D01*
X106565Y440540D01*
X106544Y440639D01*
X106526Y440739D01*
X106513Y440839D01*
X106503Y440940D01*
X106497Y441041D01*
X106495Y441142D01*
X106496Y441142D02*
X106496Y443752D01*
X106498Y443881D01*
X106504Y444009D01*
X106514Y444137D01*
X106528Y444265D01*
X106545Y444393D01*
X106567Y444520D01*
X106593Y444646D01*
X106622Y444771D01*
X106655Y444895D01*
X106693Y445018D01*
X106733Y445140D01*
X106778Y445261D01*
X106826Y445380D01*
X106878Y445498D01*
X106934Y445614D01*
X106993Y445728D01*
X107056Y445840D01*
X107122Y445951D01*
X107191Y446059D01*
X107264Y446165D01*
X107340Y446269D01*
X107419Y446371D01*
X107501Y446470D01*
X107586Y446566D01*
X107674Y446660D01*
X107765Y446751D01*
X107859Y446839D01*
X107955Y446924D01*
X108054Y447006D01*
X108156Y447085D01*
X108260Y447161D01*
X108366Y447234D01*
X108474Y447303D01*
X108584Y447369D01*
X108697Y447432D01*
X108811Y447491D01*
X108927Y447547D01*
X109045Y447599D01*
X109164Y447647D01*
X109285Y447692D01*
X109407Y447732D01*
X109530Y447770D01*
X109654Y447803D01*
X109779Y447832D01*
X109905Y447858D01*
X110032Y447880D01*
X110160Y447897D01*
X110288Y447911D01*
X110416Y447921D01*
X110544Y447927D01*
X110673Y447929D01*
D12*
X42418Y223012D02*
X42418Y211328D01*
X42418Y223012D02*
X45664Y223012D01*
X45777Y223010D01*
X45890Y223004D01*
X46003Y222994D01*
X46116Y222980D01*
X46228Y222963D01*
X46339Y222941D01*
X46449Y222916D01*
X46559Y222886D01*
X46667Y222853D01*
X46774Y222816D01*
X46880Y222776D01*
X46984Y222731D01*
X47087Y222683D01*
X47188Y222632D01*
X47287Y222577D01*
X47384Y222519D01*
X47479Y222457D01*
X47572Y222392D01*
X47662Y222324D01*
X47750Y222253D01*
X47836Y222178D01*
X47919Y222101D01*
X47999Y222021D01*
X48076Y221938D01*
X48151Y221852D01*
X48222Y221764D01*
X48290Y221674D01*
X48355Y221581D01*
X48417Y221486D01*
X48475Y221389D01*
X48530Y221290D01*
X48581Y221189D01*
X48629Y221086D01*
X48674Y220982D01*
X48714Y220876D01*
X48751Y220769D01*
X48784Y220661D01*
X48814Y220551D01*
X48839Y220441D01*
X48861Y220330D01*
X48878Y220218D01*
X48892Y220105D01*
X48902Y219992D01*
X48908Y219879D01*
X48910Y219766D01*
X48908Y219653D01*
X48902Y219540D01*
X48892Y219427D01*
X48878Y219314D01*
X48861Y219202D01*
X48839Y219091D01*
X48814Y218981D01*
X48784Y218871D01*
X48751Y218763D01*
X48714Y218656D01*
X48674Y218550D01*
X48629Y218446D01*
X48581Y218343D01*
X48530Y218242D01*
X48475Y218143D01*
X48417Y218046D01*
X48355Y217951D01*
X48290Y217858D01*
X48222Y217768D01*
X48151Y217680D01*
X48076Y217594D01*
X47999Y217511D01*
X47919Y217431D01*
X47836Y217354D01*
X47750Y217279D01*
X47662Y217208D01*
X47572Y217140D01*
X47479Y217075D01*
X47384Y217013D01*
X47287Y216955D01*
X47188Y216900D01*
X47087Y216849D01*
X46984Y216801D01*
X46880Y216756D01*
X46774Y216716D01*
X46667Y216679D01*
X46559Y216646D01*
X46449Y216616D01*
X46339Y216591D01*
X46228Y216569D01*
X46116Y216552D01*
X46003Y216538D01*
X45890Y216528D01*
X45777Y216522D01*
X45664Y216520D01*
X45664Y216521D02*
X42418Y216521D01*
X46313Y216521D02*
X48909Y211328D01*
X53774Y220416D02*
X57020Y223012D01*
X57020Y211328D01*
X60265Y211328D02*
X53774Y211328D01*
X65205Y217170D02*
X65208Y217400D01*
X65216Y217630D01*
X65230Y217859D01*
X65249Y218088D01*
X65274Y218317D01*
X65304Y218544D01*
X65339Y218772D01*
X65380Y218998D01*
X65426Y219223D01*
X65478Y219447D01*
X65535Y219669D01*
X65597Y219891D01*
X65665Y220110D01*
X65738Y220328D01*
X65816Y220545D01*
X65899Y220759D01*
X65987Y220971D01*
X66080Y221181D01*
X66179Y221389D01*
X66178Y221389D02*
X66211Y221479D01*
X66247Y221568D01*
X66287Y221656D01*
X66331Y221741D01*
X66378Y221825D01*
X66428Y221907D01*
X66482Y221987D01*
X66538Y222064D01*
X66598Y222140D01*
X66661Y222213D01*
X66726Y222283D01*
X66795Y222351D01*
X66866Y222415D01*
X66939Y222477D01*
X67015Y222536D01*
X67093Y222592D01*
X67174Y222645D01*
X67256Y222694D01*
X67340Y222740D01*
X67427Y222783D01*
X67514Y222822D01*
X67604Y222858D01*
X67694Y222890D01*
X67786Y222918D01*
X67879Y222943D01*
X67973Y222964D01*
X68067Y222981D01*
X68162Y222995D01*
X68258Y223004D01*
X68354Y223010D01*
X68450Y223012D01*
X68546Y223010D01*
X68642Y223004D01*
X68738Y222995D01*
X68833Y222981D01*
X68927Y222964D01*
X69021Y222943D01*
X69114Y222918D01*
X69206Y222890D01*
X69296Y222858D01*
X69386Y222822D01*
X69473Y222783D01*
X69560Y222740D01*
X69644Y222694D01*
X69726Y222645D01*
X69807Y222592D01*
X69885Y222536D01*
X69961Y222477D01*
X70034Y222415D01*
X70105Y222351D01*
X70174Y222283D01*
X70239Y222213D01*
X70302Y222140D01*
X70362Y222064D01*
X70418Y221987D01*
X70472Y221907D01*
X70522Y221825D01*
X70569Y221741D01*
X70613Y221656D01*
X70653Y221568D01*
X70689Y221479D01*
X70722Y221389D01*
X70821Y221182D01*
X70914Y220972D01*
X71002Y220759D01*
X71085Y220545D01*
X71163Y220329D01*
X71236Y220111D01*
X71304Y219891D01*
X71366Y219670D01*
X71423Y219447D01*
X71475Y219223D01*
X71521Y218998D01*
X71562Y218772D01*
X71597Y218545D01*
X71627Y218317D01*
X71652Y218088D01*
X71671Y217859D01*
X71685Y217630D01*
X71693Y217400D01*
X71696Y217170D01*
X65204Y217170D02*
X65207Y216940D01*
X65215Y216710D01*
X65229Y216481D01*
X65248Y216252D01*
X65273Y216023D01*
X65303Y215795D01*
X65338Y215568D01*
X65379Y215342D01*
X65425Y215117D01*
X65477Y214893D01*
X65534Y214670D01*
X65596Y214449D01*
X65664Y214229D01*
X65737Y214011D01*
X65815Y213795D01*
X65898Y213581D01*
X65986Y213369D01*
X66079Y213158D01*
X66178Y212951D01*
X66211Y212861D01*
X66247Y212772D01*
X66288Y212684D01*
X66331Y212599D01*
X66378Y212515D01*
X66428Y212433D01*
X66482Y212353D01*
X66538Y212276D01*
X66598Y212200D01*
X66661Y212127D01*
X66726Y212057D01*
X66795Y211989D01*
X66866Y211925D01*
X66939Y211863D01*
X67015Y211804D01*
X67093Y211748D01*
X67174Y211695D01*
X67256Y211646D01*
X67340Y211600D01*
X67427Y211557D01*
X67514Y211518D01*
X67604Y211482D01*
X67694Y211450D01*
X67786Y211422D01*
X67879Y211397D01*
X67973Y211376D01*
X68067Y211359D01*
X68162Y211345D01*
X68258Y211336D01*
X68354Y211330D01*
X68450Y211328D01*
X70722Y212951D02*
X70821Y213158D01*
X70914Y213369D01*
X71002Y213581D01*
X71085Y213795D01*
X71163Y214011D01*
X71236Y214229D01*
X71304Y214449D01*
X71366Y214670D01*
X71423Y214893D01*
X71475Y215117D01*
X71521Y215342D01*
X71562Y215568D01*
X71597Y215795D01*
X71627Y216023D01*
X71652Y216252D01*
X71671Y216481D01*
X71685Y216710D01*
X71693Y216940D01*
X71696Y217170D01*
X70722Y212951D02*
X70689Y212861D01*
X70653Y212772D01*
X70613Y212684D01*
X70569Y212599D01*
X70522Y212515D01*
X70472Y212433D01*
X70418Y212353D01*
X70362Y212276D01*
X70302Y212200D01*
X70239Y212127D01*
X70174Y212057D01*
X70105Y211989D01*
X70034Y211925D01*
X69961Y211863D01*
X69885Y211804D01*
X69807Y211748D01*
X69726Y211695D01*
X69644Y211646D01*
X69560Y211600D01*
X69473Y211557D01*
X69386Y211518D01*
X69296Y211482D01*
X69206Y211450D01*
X69114Y211422D01*
X69021Y211397D01*
X68927Y211376D01*
X68833Y211359D01*
X68738Y211345D01*
X68642Y211336D01*
X68546Y211330D01*
X68450Y211328D01*
X65853Y213924D02*
X71046Y220416D01*
X76634Y214574D02*
X76636Y214687D01*
X76642Y214800D01*
X76652Y214913D01*
X76666Y215026D01*
X76683Y215138D01*
X76705Y215249D01*
X76730Y215359D01*
X76760Y215469D01*
X76793Y215577D01*
X76830Y215684D01*
X76870Y215790D01*
X76915Y215894D01*
X76963Y215997D01*
X77014Y216098D01*
X77069Y216197D01*
X77127Y216294D01*
X77189Y216389D01*
X77254Y216482D01*
X77322Y216572D01*
X77393Y216660D01*
X77468Y216746D01*
X77545Y216829D01*
X77625Y216909D01*
X77708Y216986D01*
X77794Y217061D01*
X77882Y217132D01*
X77972Y217200D01*
X78065Y217265D01*
X78160Y217327D01*
X78257Y217385D01*
X78356Y217440D01*
X78457Y217491D01*
X78560Y217539D01*
X78664Y217584D01*
X78770Y217624D01*
X78877Y217661D01*
X78985Y217694D01*
X79095Y217724D01*
X79205Y217749D01*
X79316Y217771D01*
X79428Y217788D01*
X79541Y217802D01*
X79654Y217812D01*
X79767Y217818D01*
X79880Y217820D01*
X79993Y217818D01*
X80106Y217812D01*
X80219Y217802D01*
X80332Y217788D01*
X80444Y217771D01*
X80555Y217749D01*
X80665Y217724D01*
X80775Y217694D01*
X80883Y217661D01*
X80990Y217624D01*
X81096Y217584D01*
X81200Y217539D01*
X81303Y217491D01*
X81404Y217440D01*
X81503Y217385D01*
X81600Y217327D01*
X81695Y217265D01*
X81788Y217200D01*
X81878Y217132D01*
X81966Y217061D01*
X82052Y216986D01*
X82135Y216909D01*
X82215Y216829D01*
X82292Y216746D01*
X82367Y216660D01*
X82438Y216572D01*
X82506Y216482D01*
X82571Y216389D01*
X82633Y216294D01*
X82691Y216197D01*
X82746Y216098D01*
X82797Y215997D01*
X82845Y215894D01*
X82890Y215790D01*
X82930Y215684D01*
X82967Y215577D01*
X83000Y215469D01*
X83030Y215359D01*
X83055Y215249D01*
X83077Y215138D01*
X83094Y215026D01*
X83108Y214913D01*
X83118Y214800D01*
X83124Y214687D01*
X83126Y214574D01*
X83124Y214461D01*
X83118Y214348D01*
X83108Y214235D01*
X83094Y214122D01*
X83077Y214010D01*
X83055Y213899D01*
X83030Y213789D01*
X83000Y213679D01*
X82967Y213571D01*
X82930Y213464D01*
X82890Y213358D01*
X82845Y213254D01*
X82797Y213151D01*
X82746Y213050D01*
X82691Y212951D01*
X82633Y212854D01*
X82571Y212759D01*
X82506Y212666D01*
X82438Y212576D01*
X82367Y212488D01*
X82292Y212402D01*
X82215Y212319D01*
X82135Y212239D01*
X82052Y212162D01*
X81966Y212087D01*
X81878Y212016D01*
X81788Y211948D01*
X81695Y211883D01*
X81600Y211821D01*
X81503Y211763D01*
X81404Y211708D01*
X81303Y211657D01*
X81200Y211609D01*
X81096Y211564D01*
X80990Y211524D01*
X80883Y211487D01*
X80775Y211454D01*
X80665Y211424D01*
X80555Y211399D01*
X80444Y211377D01*
X80332Y211360D01*
X80219Y211346D01*
X80106Y211336D01*
X79993Y211330D01*
X79880Y211328D01*
X79767Y211330D01*
X79654Y211336D01*
X79541Y211346D01*
X79428Y211360D01*
X79316Y211377D01*
X79205Y211399D01*
X79095Y211424D01*
X78985Y211454D01*
X78877Y211487D01*
X78770Y211524D01*
X78664Y211564D01*
X78560Y211609D01*
X78457Y211657D01*
X78356Y211708D01*
X78257Y211763D01*
X78160Y211821D01*
X78065Y211883D01*
X77972Y211948D01*
X77882Y212016D01*
X77794Y212087D01*
X77708Y212162D01*
X77625Y212239D01*
X77545Y212319D01*
X77468Y212402D01*
X77393Y212488D01*
X77322Y212576D01*
X77254Y212666D01*
X77189Y212759D01*
X77127Y212854D01*
X77069Y212951D01*
X77014Y213050D01*
X76963Y213151D01*
X76915Y213254D01*
X76870Y213358D01*
X76830Y213464D01*
X76793Y213571D01*
X76760Y213679D01*
X76730Y213789D01*
X76705Y213899D01*
X76683Y214010D01*
X76666Y214122D01*
X76652Y214235D01*
X76642Y214348D01*
X76636Y214461D01*
X76634Y214574D01*
X77284Y220416D02*
X77286Y220517D01*
X77292Y220617D01*
X77302Y220717D01*
X77315Y220817D01*
X77333Y220916D01*
X77354Y221015D01*
X77379Y221112D01*
X77408Y221209D01*
X77441Y221304D01*
X77477Y221398D01*
X77517Y221490D01*
X77560Y221581D01*
X77607Y221670D01*
X77657Y221757D01*
X77711Y221843D01*
X77768Y221926D01*
X77828Y222006D01*
X77891Y222085D01*
X77958Y222161D01*
X78027Y222234D01*
X78099Y222304D01*
X78173Y222372D01*
X78250Y222437D01*
X78330Y222498D01*
X78412Y222557D01*
X78496Y222612D01*
X78582Y222664D01*
X78670Y222713D01*
X78760Y222758D01*
X78852Y222800D01*
X78945Y222838D01*
X79040Y222872D01*
X79135Y222903D01*
X79232Y222930D01*
X79330Y222953D01*
X79429Y222973D01*
X79529Y222988D01*
X79629Y223000D01*
X79729Y223008D01*
X79830Y223012D01*
X79930Y223012D01*
X80031Y223008D01*
X80131Y223000D01*
X80231Y222988D01*
X80331Y222973D01*
X80430Y222953D01*
X80528Y222930D01*
X80625Y222903D01*
X80720Y222872D01*
X80815Y222838D01*
X80908Y222800D01*
X81000Y222758D01*
X81090Y222713D01*
X81178Y222664D01*
X81264Y222612D01*
X81348Y222557D01*
X81430Y222498D01*
X81510Y222437D01*
X81587Y222372D01*
X81661Y222304D01*
X81733Y222234D01*
X81802Y222161D01*
X81869Y222085D01*
X81932Y222006D01*
X81992Y221926D01*
X82049Y221843D01*
X82103Y221757D01*
X82153Y221670D01*
X82200Y221581D01*
X82243Y221490D01*
X82283Y221398D01*
X82319Y221304D01*
X82352Y221209D01*
X82381Y221112D01*
X82406Y221015D01*
X82427Y220916D01*
X82445Y220817D01*
X82458Y220717D01*
X82468Y220617D01*
X82474Y220517D01*
X82476Y220416D01*
X82474Y220315D01*
X82468Y220215D01*
X82458Y220115D01*
X82445Y220015D01*
X82427Y219916D01*
X82406Y219817D01*
X82381Y219720D01*
X82352Y219623D01*
X82319Y219528D01*
X82283Y219434D01*
X82243Y219342D01*
X82200Y219251D01*
X82153Y219162D01*
X82103Y219075D01*
X82049Y218989D01*
X81992Y218906D01*
X81932Y218826D01*
X81869Y218747D01*
X81802Y218671D01*
X81733Y218598D01*
X81661Y218528D01*
X81587Y218460D01*
X81510Y218395D01*
X81430Y218334D01*
X81348Y218275D01*
X81264Y218220D01*
X81178Y218168D01*
X81090Y218119D01*
X81000Y218074D01*
X80908Y218032D01*
X80815Y217994D01*
X80720Y217960D01*
X80625Y217929D01*
X80528Y217902D01*
X80430Y217879D01*
X80331Y217859D01*
X80231Y217844D01*
X80131Y217832D01*
X80031Y217824D01*
X79930Y217820D01*
X79830Y217820D01*
X79729Y217824D01*
X79629Y217832D01*
X79529Y217844D01*
X79429Y217859D01*
X79330Y217879D01*
X79232Y217902D01*
X79135Y217929D01*
X79040Y217960D01*
X78945Y217994D01*
X78852Y218032D01*
X78760Y218074D01*
X78670Y218119D01*
X78582Y218168D01*
X78496Y218220D01*
X78412Y218275D01*
X78330Y218334D01*
X78250Y218395D01*
X78173Y218460D01*
X78099Y218528D01*
X78027Y218598D01*
X77958Y218671D01*
X77891Y218747D01*
X77828Y218826D01*
X77768Y218906D01*
X77711Y218989D01*
X77657Y219075D01*
X77607Y219162D01*
X77560Y219251D01*
X77517Y219342D01*
X77477Y219434D01*
X77441Y219528D01*
X77408Y219623D01*
X77379Y219720D01*
X77354Y219817D01*
X77333Y219916D01*
X77315Y220015D01*
X77302Y220115D01*
X77292Y220215D01*
X77286Y220315D01*
X77284Y220416D01*
D15*
X208280Y331470D02*
X208280Y344170D01*
X208280Y331470D02*
X201930Y325120D01*
X189230Y325120D02*
X182880Y331470D01*
X201930Y325120D02*
X208280Y318770D01*
X208280Y306070D01*
X201930Y299720D01*
X189230Y299720D02*
X182880Y306070D01*
X182880Y318770D01*
X189230Y325120D01*
X189230Y350520D02*
X201930Y350520D01*
X208280Y344170D01*
X189230Y350520D02*
X182880Y344170D01*
X182880Y331470D01*
X201930Y299720D02*
X208280Y293370D01*
X208280Y280670D01*
X201930Y274320D01*
X189230Y274320D02*
X182880Y280670D01*
X182880Y293370D01*
X189230Y299720D01*
X208280Y267970D02*
X208280Y255270D01*
X201930Y248920D01*
X189230Y248920D02*
X182880Y255270D01*
X201930Y274320D02*
X208280Y267970D01*
X189230Y274320D02*
X182880Y267970D01*
X182880Y255270D01*
X208280Y242570D02*
X208280Y229870D01*
X201930Y223520D01*
X189230Y223520D02*
X182880Y229870D01*
X201930Y223520D02*
X208280Y217170D01*
X208280Y204470D01*
X201930Y198120D01*
X189230Y198120D02*
X182880Y204470D01*
X182880Y217170D01*
X189230Y223520D01*
X208280Y242570D02*
X201930Y248920D01*
X189230Y248920D02*
X182880Y242570D01*
X182880Y229870D01*
X201930Y198120D02*
X208280Y191770D01*
X208280Y179070D01*
X201930Y172720D01*
X189230Y172720D02*
X182880Y179070D01*
X182880Y191770D01*
X189230Y198120D01*
X208280Y166370D02*
X208280Y153670D01*
X201930Y147320D01*
X189230Y147320D01*
X182880Y153670D01*
X201930Y172720D02*
X208280Y166370D01*
X189230Y172720D02*
X182880Y166370D01*
X182880Y153670D01*
D10*
X169545Y335915D02*
X167005Y339090D01*
X178435Y339090D01*
X178435Y335915D02*
X178435Y342265D01*
X220980Y165735D02*
X220869Y165733D01*
X220759Y165727D01*
X220648Y165718D01*
X220538Y165704D01*
X220429Y165687D01*
X220320Y165666D01*
X220212Y165641D01*
X220105Y165612D01*
X219999Y165580D01*
X219894Y165544D01*
X219791Y165504D01*
X219689Y165461D01*
X219588Y165414D01*
X219489Y165363D01*
X219393Y165310D01*
X219298Y165253D01*
X219205Y165192D01*
X219114Y165129D01*
X219025Y165062D01*
X218939Y164992D01*
X218856Y164919D01*
X218774Y164844D01*
X218696Y164766D01*
X218621Y164684D01*
X218548Y164601D01*
X218478Y164515D01*
X218411Y164426D01*
X218348Y164335D01*
X218287Y164242D01*
X218230Y164148D01*
X218177Y164051D01*
X218126Y163952D01*
X218079Y163851D01*
X218036Y163749D01*
X217996Y163646D01*
X217960Y163541D01*
X217928Y163435D01*
X217899Y163328D01*
X217874Y163220D01*
X217853Y163111D01*
X217836Y163002D01*
X217822Y162892D01*
X217813Y162781D01*
X217807Y162671D01*
X217805Y162560D01*
X217807Y162449D01*
X217813Y162339D01*
X217822Y162228D01*
X217836Y162118D01*
X217853Y162009D01*
X217874Y161900D01*
X217899Y161792D01*
X217928Y161685D01*
X217960Y161579D01*
X217996Y161474D01*
X218036Y161371D01*
X218079Y161269D01*
X218126Y161168D01*
X218177Y161069D01*
X218230Y160973D01*
X218287Y160878D01*
X218348Y160785D01*
X218411Y160694D01*
X218478Y160605D01*
X218548Y160519D01*
X218621Y160436D01*
X218696Y160354D01*
X218774Y160276D01*
X218856Y160201D01*
X218939Y160128D01*
X219025Y160058D01*
X219114Y159991D01*
X219205Y159928D01*
X219298Y159867D01*
X219393Y159810D01*
X219489Y159757D01*
X219588Y159706D01*
X219689Y159659D01*
X219791Y159616D01*
X219894Y159576D01*
X219999Y159540D01*
X220105Y159508D01*
X220212Y159479D01*
X220320Y159454D01*
X220429Y159433D01*
X220538Y159416D01*
X220648Y159402D01*
X220759Y159393D01*
X220869Y159387D01*
X220980Y159385D01*
X221091Y159387D01*
X221201Y159393D01*
X221312Y159402D01*
X221422Y159416D01*
X221531Y159433D01*
X221640Y159454D01*
X221748Y159479D01*
X221855Y159508D01*
X221961Y159540D01*
X222066Y159576D01*
X222169Y159616D01*
X222271Y159659D01*
X222372Y159706D01*
X222471Y159757D01*
X222567Y159810D01*
X222662Y159867D01*
X222755Y159928D01*
X222846Y159991D01*
X222935Y160058D01*
X223021Y160128D01*
X223104Y160201D01*
X223186Y160276D01*
X223264Y160354D01*
X223339Y160436D01*
X223412Y160519D01*
X223482Y160605D01*
X223549Y160694D01*
X223612Y160785D01*
X223673Y160878D01*
X223730Y160972D01*
X223783Y161069D01*
X223834Y161168D01*
X223881Y161269D01*
X223924Y161371D01*
X223964Y161474D01*
X224000Y161579D01*
X224032Y161685D01*
X224061Y161792D01*
X224086Y161900D01*
X224107Y162009D01*
X224124Y162118D01*
X224138Y162228D01*
X224147Y162339D01*
X224153Y162449D01*
X224155Y162560D01*
X224153Y162671D01*
X224147Y162781D01*
X224138Y162892D01*
X224124Y163002D01*
X224107Y163111D01*
X224086Y163220D01*
X224061Y163328D01*
X224032Y163435D01*
X224000Y163541D01*
X223964Y163646D01*
X223924Y163749D01*
X223881Y163851D01*
X223834Y163952D01*
X223783Y164051D01*
X223730Y164147D01*
X223673Y164242D01*
X223612Y164335D01*
X223549Y164426D01*
X223482Y164515D01*
X223412Y164601D01*
X223339Y164684D01*
X223264Y164766D01*
X223186Y164844D01*
X223104Y164919D01*
X223021Y164992D01*
X222935Y165062D01*
X222846Y165129D01*
X222755Y165192D01*
X222662Y165253D01*
X222568Y165310D01*
X222471Y165363D01*
X222372Y165414D01*
X222271Y165461D01*
X222169Y165504D01*
X222066Y165544D01*
X221961Y165580D01*
X221855Y165612D01*
X221748Y165641D01*
X221640Y165666D01*
X221531Y165687D01*
X221422Y165704D01*
X221312Y165718D01*
X221201Y165727D01*
X221091Y165733D01*
X220980Y165735D01*
X215265Y165100D02*
X215165Y165098D01*
X215066Y165092D01*
X214966Y165082D01*
X214868Y165069D01*
X214769Y165051D01*
X214672Y165030D01*
X214576Y165005D01*
X214480Y164976D01*
X214386Y164943D01*
X214293Y164907D01*
X214202Y164867D01*
X214112Y164823D01*
X214024Y164776D01*
X213938Y164726D01*
X213854Y164672D01*
X213772Y164615D01*
X213693Y164555D01*
X213615Y164491D01*
X213541Y164425D01*
X213469Y164356D01*
X213400Y164284D01*
X213334Y164210D01*
X213270Y164132D01*
X213210Y164053D01*
X213153Y163971D01*
X213099Y163887D01*
X213049Y163801D01*
X213002Y163713D01*
X212958Y163623D01*
X212918Y163532D01*
X212882Y163439D01*
X212849Y163345D01*
X212820Y163249D01*
X212795Y163153D01*
X212774Y163056D01*
X212756Y162957D01*
X212743Y162859D01*
X212733Y162759D01*
X212727Y162660D01*
X212725Y162560D01*
X212727Y162460D01*
X212733Y162361D01*
X212743Y162261D01*
X212756Y162163D01*
X212774Y162064D01*
X212795Y161967D01*
X212820Y161871D01*
X212849Y161775D01*
X212882Y161681D01*
X212918Y161588D01*
X212958Y161497D01*
X213002Y161407D01*
X213049Y161319D01*
X213099Y161233D01*
X213153Y161149D01*
X213210Y161067D01*
X213270Y160988D01*
X213334Y160910D01*
X213400Y160836D01*
X213469Y160764D01*
X213541Y160695D01*
X213615Y160629D01*
X213693Y160565D01*
X213772Y160505D01*
X213854Y160448D01*
X213938Y160394D01*
X214024Y160344D01*
X214112Y160297D01*
X214202Y160253D01*
X214293Y160213D01*
X214386Y160177D01*
X214480Y160144D01*
X214576Y160115D01*
X214672Y160090D01*
X214769Y160069D01*
X214868Y160051D01*
X214966Y160038D01*
X215066Y160028D01*
X215165Y160022D01*
X215265Y160020D01*
X215365Y160022D01*
X215464Y160028D01*
X215564Y160038D01*
X215662Y160051D01*
X215761Y160069D01*
X215858Y160090D01*
X215954Y160115D01*
X216050Y160144D01*
X216144Y160177D01*
X216237Y160213D01*
X216328Y160253D01*
X216418Y160297D01*
X216506Y160344D01*
X216592Y160394D01*
X216676Y160448D01*
X216758Y160505D01*
X216837Y160565D01*
X216915Y160629D01*
X216989Y160695D01*
X217061Y160764D01*
X217130Y160836D01*
X217196Y160910D01*
X217260Y160988D01*
X217320Y161067D01*
X217377Y161149D01*
X217431Y161233D01*
X217481Y161319D01*
X217528Y161407D01*
X217572Y161497D01*
X217612Y161588D01*
X217648Y161681D01*
X217681Y161775D01*
X217710Y161871D01*
X217735Y161967D01*
X217756Y162064D01*
X217774Y162163D01*
X217787Y162261D01*
X217797Y162361D01*
X217803Y162460D01*
X217805Y162560D01*
X217803Y162660D01*
X217797Y162759D01*
X217787Y162859D01*
X217774Y162957D01*
X217756Y163056D01*
X217735Y163153D01*
X217710Y163249D01*
X217681Y163345D01*
X217648Y163439D01*
X217612Y163532D01*
X217572Y163623D01*
X217528Y163713D01*
X217481Y163801D01*
X217431Y163887D01*
X217377Y163971D01*
X217320Y164053D01*
X217260Y164132D01*
X217196Y164210D01*
X217130Y164284D01*
X217061Y164356D01*
X216989Y164425D01*
X216915Y164491D01*
X216837Y164555D01*
X216758Y164615D01*
X216676Y164672D01*
X216592Y164726D01*
X216506Y164776D01*
X216418Y164823D01*
X216328Y164867D01*
X216237Y164907D01*
X216144Y164943D01*
X216050Y164976D01*
X215954Y165005D01*
X215858Y165030D01*
X215761Y165051D01*
X215662Y165069D01*
X215564Y165082D01*
X215464Y165092D01*
X215365Y165098D01*
X215265Y165100D01*
X169545Y156845D02*
X169543Y156945D01*
X169537Y157044D01*
X169527Y157144D01*
X169514Y157242D01*
X169496Y157341D01*
X169475Y157438D01*
X169450Y157534D01*
X169421Y157630D01*
X169388Y157724D01*
X169352Y157817D01*
X169312Y157908D01*
X169268Y157998D01*
X169221Y158086D01*
X169171Y158172D01*
X169117Y158256D01*
X169060Y158338D01*
X169000Y158417D01*
X168936Y158495D01*
X168870Y158569D01*
X168801Y158641D01*
X168729Y158710D01*
X168655Y158776D01*
X168577Y158840D01*
X168498Y158900D01*
X168416Y158957D01*
X168332Y159011D01*
X168246Y159061D01*
X168158Y159108D01*
X168068Y159152D01*
X167977Y159192D01*
X167884Y159228D01*
X167790Y159261D01*
X167694Y159290D01*
X167598Y159315D01*
X167501Y159336D01*
X167402Y159354D01*
X167304Y159367D01*
X167204Y159377D01*
X167105Y159383D01*
X167005Y159385D01*
X169545Y156845D02*
X169543Y156704D01*
X169538Y156563D01*
X169528Y156422D01*
X169515Y156281D01*
X169499Y156141D01*
X169478Y156001D01*
X169454Y155862D01*
X169426Y155723D01*
X169395Y155586D01*
X169360Y155449D01*
X169322Y155313D01*
X169280Y155178D01*
X169234Y155045D01*
X169185Y154912D01*
X169132Y154781D01*
X169076Y154652D01*
X169017Y154523D01*
X168954Y154397D01*
X168888Y154272D01*
X168819Y154149D01*
X168746Y154028D01*
X168670Y153909D01*
X168591Y153791D01*
X168510Y153676D01*
X168425Y153564D01*
X168337Y153453D01*
X168246Y153345D01*
X168153Y153239D01*
X168056Y153136D01*
X167957Y153035D01*
X160655Y153353D02*
X160555Y153355D01*
X160456Y153361D01*
X160356Y153371D01*
X160258Y153384D01*
X160159Y153402D01*
X160062Y153423D01*
X159966Y153448D01*
X159870Y153477D01*
X159776Y153510D01*
X159683Y153546D01*
X159592Y153586D01*
X159502Y153630D01*
X159414Y153677D01*
X159328Y153727D01*
X159244Y153781D01*
X159162Y153838D01*
X159083Y153898D01*
X159005Y153962D01*
X158931Y154028D01*
X158859Y154097D01*
X158790Y154169D01*
X158724Y154243D01*
X158660Y154321D01*
X158600Y154400D01*
X158543Y154482D01*
X158489Y154566D01*
X158439Y154652D01*
X158392Y154740D01*
X158348Y154830D01*
X158308Y154921D01*
X158272Y155014D01*
X158239Y155108D01*
X158210Y155204D01*
X158185Y155300D01*
X158164Y155397D01*
X158146Y155496D01*
X158133Y155594D01*
X158123Y155694D01*
X158117Y155793D01*
X158115Y155893D01*
X158117Y156026D01*
X158122Y156159D01*
X158132Y156292D01*
X158145Y156425D01*
X158162Y156557D01*
X158182Y156689D01*
X158206Y156820D01*
X158234Y156950D01*
X158265Y157080D01*
X158300Y157208D01*
X158339Y157336D01*
X158381Y157462D01*
X158427Y157587D01*
X158476Y157711D01*
X158528Y157834D01*
X158584Y157955D01*
X158644Y158074D01*
X158706Y158192D01*
X158772Y158307D01*
X158841Y158421D01*
X158914Y158533D01*
X158989Y158643D01*
X159068Y158751D01*
X162878Y154622D02*
X162826Y154538D01*
X162771Y154455D01*
X162712Y154375D01*
X162651Y154297D01*
X162587Y154222D01*
X162519Y154149D01*
X162449Y154078D01*
X162377Y154011D01*
X162302Y153946D01*
X162224Y153884D01*
X162144Y153825D01*
X162062Y153769D01*
X161978Y153717D01*
X161892Y153668D01*
X161804Y153622D01*
X161714Y153579D01*
X161623Y153540D01*
X161530Y153505D01*
X161436Y153473D01*
X161341Y153445D01*
X161245Y153420D01*
X161148Y153400D01*
X161050Y153382D01*
X160952Y153369D01*
X160853Y153360D01*
X160754Y153354D01*
X160655Y153352D01*
X164782Y158115D02*
X164834Y158199D01*
X164889Y158282D01*
X164948Y158362D01*
X165009Y158440D01*
X165073Y158515D01*
X165141Y158588D01*
X165211Y158659D01*
X165283Y158726D01*
X165358Y158791D01*
X165436Y158853D01*
X165516Y158912D01*
X165598Y158968D01*
X165682Y159020D01*
X165768Y159069D01*
X165856Y159115D01*
X165946Y159158D01*
X166037Y159197D01*
X166130Y159232D01*
X166224Y159264D01*
X166319Y159292D01*
X166415Y159317D01*
X166512Y159337D01*
X166610Y159355D01*
X166708Y159368D01*
X166807Y159377D01*
X166906Y159383D01*
X167005Y159385D01*
X164783Y158115D02*
X162878Y154623D01*
X158115Y163449D02*
X169545Y167259D01*
X158115Y171069D01*
X160655Y175514D02*
X158115Y178689D01*
X169545Y178689D01*
X169545Y175514D02*
X169545Y181864D01*
X163830Y186944D02*
X163605Y186947D01*
X163380Y186955D01*
X163156Y186968D01*
X162932Y186987D01*
X162708Y187011D01*
X162485Y187040D01*
X162263Y187075D01*
X162042Y187115D01*
X161822Y187161D01*
X161603Y187211D01*
X161385Y187267D01*
X161168Y187328D01*
X160953Y187394D01*
X160740Y187465D01*
X160529Y187542D01*
X160319Y187623D01*
X160111Y187709D01*
X159906Y187800D01*
X159703Y187896D01*
X159615Y187928D01*
X159528Y187964D01*
X159442Y188003D01*
X159358Y188046D01*
X159276Y188092D01*
X159196Y188141D01*
X159118Y188193D01*
X159042Y188249D01*
X158968Y188307D01*
X158897Y188369D01*
X158828Y188433D01*
X158762Y188500D01*
X158699Y188569D01*
X158638Y188641D01*
X158580Y188715D01*
X158526Y188792D01*
X158474Y188870D01*
X158426Y188951D01*
X158381Y189033D01*
X158339Y189118D01*
X158301Y189204D01*
X158266Y189291D01*
X158234Y189379D01*
X158207Y189469D01*
X158182Y189560D01*
X158162Y189652D01*
X158145Y189744D01*
X158132Y189838D01*
X158123Y189931D01*
X158117Y190025D01*
X158115Y190119D01*
X158117Y190213D01*
X158123Y190307D01*
X158132Y190400D01*
X158145Y190494D01*
X158162Y190586D01*
X158182Y190678D01*
X158207Y190769D01*
X158234Y190859D01*
X158266Y190947D01*
X158301Y191034D01*
X158339Y191120D01*
X158381Y191205D01*
X158426Y191287D01*
X158474Y191368D01*
X158526Y191446D01*
X158580Y191523D01*
X158638Y191597D01*
X158699Y191669D01*
X158762Y191738D01*
X158828Y191805D01*
X158897Y191869D01*
X158968Y191931D01*
X159042Y191989D01*
X159118Y192045D01*
X159196Y192097D01*
X159276Y192146D01*
X159358Y192192D01*
X159442Y192235D01*
X159528Y192274D01*
X159615Y192310D01*
X159703Y192342D01*
X159906Y192438D01*
X160111Y192529D01*
X160319Y192615D01*
X160529Y192696D01*
X160740Y192773D01*
X160953Y192844D01*
X161168Y192910D01*
X161385Y192971D01*
X161603Y193027D01*
X161822Y193077D01*
X162042Y193123D01*
X162263Y193163D01*
X162485Y193198D01*
X162708Y193227D01*
X162932Y193251D01*
X163156Y193270D01*
X163380Y193283D01*
X163605Y193291D01*
X163830Y193294D01*
X163830Y186944D02*
X164055Y186947D01*
X164280Y186955D01*
X164504Y186968D01*
X164728Y186987D01*
X164952Y187011D01*
X165175Y187040D01*
X165397Y187075D01*
X165618Y187115D01*
X165838Y187161D01*
X166057Y187211D01*
X166275Y187267D01*
X166492Y187328D01*
X166707Y187394D01*
X166920Y187465D01*
X167131Y187542D01*
X167341Y187623D01*
X167549Y187709D01*
X167754Y187800D01*
X167957Y187896D01*
X167958Y187896D02*
X168046Y187928D01*
X168133Y187964D01*
X168219Y188003D01*
X168303Y188046D01*
X168385Y188092D01*
X168465Y188141D01*
X168543Y188193D01*
X168619Y188249D01*
X168693Y188307D01*
X168764Y188369D01*
X168833Y188433D01*
X168899Y188500D01*
X168962Y188569D01*
X169023Y188641D01*
X169081Y188715D01*
X169135Y188792D01*
X169187Y188870D01*
X169235Y188951D01*
X169280Y189033D01*
X169322Y189118D01*
X169360Y189204D01*
X169395Y189291D01*
X169427Y189379D01*
X169454Y189469D01*
X169479Y189560D01*
X169499Y189652D01*
X169516Y189744D01*
X169529Y189838D01*
X169538Y189931D01*
X169544Y190025D01*
X169546Y190119D01*
X167957Y192342D02*
X167754Y192438D01*
X167549Y192529D01*
X167341Y192615D01*
X167131Y192696D01*
X166920Y192773D01*
X166707Y192844D01*
X166492Y192910D01*
X166275Y192971D01*
X166057Y193027D01*
X165838Y193077D01*
X165618Y193123D01*
X165397Y193163D01*
X165175Y193198D01*
X164952Y193227D01*
X164728Y193251D01*
X164504Y193270D01*
X164280Y193283D01*
X164055Y193291D01*
X163830Y193294D01*
X167958Y192342D02*
X168046Y192310D01*
X168133Y192274D01*
X168219Y192235D01*
X168303Y192192D01*
X168385Y192146D01*
X168465Y192097D01*
X168543Y192045D01*
X168619Y191989D01*
X168693Y191931D01*
X168764Y191869D01*
X168833Y191805D01*
X168899Y191738D01*
X168962Y191669D01*
X169023Y191597D01*
X169081Y191523D01*
X169135Y191446D01*
X169187Y191368D01*
X169235Y191287D01*
X169280Y191205D01*
X169322Y191120D01*
X169360Y191034D01*
X169395Y190947D01*
X169427Y190859D01*
X169454Y190769D01*
X169479Y190678D01*
X169499Y190586D01*
X169516Y190494D01*
X169529Y190400D01*
X169538Y190307D01*
X169544Y190213D01*
X169546Y190119D01*
X167005Y187579D02*
X160655Y192659D01*
X160655Y198374D02*
X158115Y201549D01*
X169545Y201549D01*
X169545Y198374D02*
X169545Y204724D01*
M02*
