G04 EAGLE Gerber RS-274X export*
G75*
%MOMM*%
%FSLAX34Y34*%
%LPD*%
%INSoldermask Bottom*%
%IPPOS*%
%AMOC8*
5,1,8,0,0,1.08239X$1,22.5*%
G01*
%ADD10R,1.203200X1.303200*%
%ADD11R,1.303200X1.203200*%
%ADD12R,0.503200X1.803200*%
%ADD13R,1.803200X0.503200*%
%ADD14R,1.203200X1.703200*%
%ADD15C,1.511200*%
%ADD16C,3.003200*%
%ADD17C,2.133600*%
%ADD18C,1.727200*%
%ADD19C,0.959600*%


D10*
X274320Y841620D03*
X274320Y824620D03*
X198120Y832240D03*
X198120Y849240D03*
D11*
X138040Y594360D03*
X121040Y594360D03*
D10*
X157480Y832240D03*
X157480Y849240D03*
D12*
X129820Y681240D03*
X134820Y681240D03*
X139820Y681240D03*
X144820Y681240D03*
X149820Y681240D03*
X154820Y681240D03*
X159820Y681240D03*
X164820Y681240D03*
D13*
X178320Y667740D03*
X178320Y662740D03*
X178320Y657740D03*
X178320Y652740D03*
X178320Y647740D03*
X178320Y642740D03*
X178320Y637740D03*
X178320Y632740D03*
D12*
X164820Y619240D03*
X159820Y619240D03*
X154820Y619240D03*
X149820Y619240D03*
X144820Y619240D03*
X139820Y619240D03*
X134820Y619240D03*
X129820Y619240D03*
D13*
X116320Y632740D03*
X116320Y637740D03*
X116320Y642740D03*
X116320Y647740D03*
X116320Y652740D03*
X116320Y657740D03*
X116320Y662740D03*
X116320Y667740D03*
D11*
X127000Y817000D03*
X127000Y834000D03*
D14*
X83820Y759095D03*
X83820Y780145D03*
D10*
X237880Y734060D03*
X254880Y734060D03*
D11*
X162560Y407280D03*
X162560Y390280D03*
D10*
X237880Y703580D03*
X254880Y703580D03*
X207400Y680720D03*
X224400Y680720D03*
X235340Y624840D03*
X252340Y624840D03*
X235340Y650240D03*
X252340Y650240D03*
D11*
X218440Y407280D03*
X218440Y390280D03*
D10*
X216780Y579120D03*
X199780Y579120D03*
D15*
X298260Y849630D02*
X311340Y849630D01*
X311340Y824230D02*
X298260Y824230D01*
X298260Y798830D02*
X311340Y798830D01*
X311340Y773430D02*
X298260Y773430D01*
X298260Y748030D02*
X311340Y748030D01*
X311340Y722630D02*
X298260Y722630D01*
X298260Y697230D02*
X311340Y697230D01*
X311340Y671830D02*
X298260Y671830D01*
X298260Y646430D02*
X311340Y646430D01*
X311340Y621030D02*
X298260Y621030D01*
X298260Y595630D02*
X311340Y595630D01*
X311340Y570230D02*
X298260Y570230D01*
X298260Y544830D02*
X311340Y544830D01*
X311340Y519430D02*
X298260Y519430D01*
X298260Y494030D02*
X311340Y494030D01*
X311340Y468630D02*
X298260Y468630D01*
X298260Y443230D02*
X311340Y443230D01*
X311340Y417830D02*
X298260Y417830D01*
X298260Y392430D02*
X311340Y392430D01*
X311340Y367030D02*
X298260Y367030D01*
X298260Y341630D02*
X311340Y341630D01*
X311340Y316230D02*
X298260Y316230D01*
X298260Y290830D02*
X311340Y290830D01*
X311340Y265430D02*
X298260Y265430D01*
X298260Y240030D02*
X311340Y240030D01*
X311340Y214630D02*
X298260Y214630D01*
X298260Y189230D02*
X311340Y189230D01*
X311340Y163830D02*
X298260Y163830D01*
X298260Y138430D02*
X311340Y138430D01*
X311340Y113030D02*
X298260Y113030D01*
X298260Y87630D02*
X311340Y87630D01*
X311340Y62230D02*
X298260Y62230D01*
X298260Y36830D02*
X311340Y36830D01*
D16*
X55060Y120200D03*
X117660Y120200D03*
X55060Y57600D03*
X117660Y57600D03*
D17*
X86360Y88900D03*
D16*
X55060Y341180D03*
X117660Y341180D03*
X55060Y278580D03*
X117660Y278580D03*
D17*
X86360Y309880D03*
D16*
X55060Y546920D03*
X117660Y546920D03*
X55060Y484320D03*
X117660Y484320D03*
D17*
X86360Y515620D03*
D10*
X60960Y780660D03*
X60960Y763660D03*
X38100Y780660D03*
X38100Y763660D03*
X101600Y817000D03*
X101600Y834000D03*
D11*
X160900Y767080D03*
X143900Y767080D03*
D18*
X187960Y337820D02*
X203200Y337820D01*
X203200Y312420D02*
X187960Y312420D01*
X187960Y287020D02*
X203200Y287020D01*
X203200Y261620D02*
X187960Y261620D01*
X187960Y236220D02*
X203200Y236220D01*
X203200Y210820D02*
X187960Y210820D01*
X187960Y185420D02*
X203200Y185420D01*
X203200Y160020D02*
X187960Y160020D01*
D19*
X195580Y637740D03*
X195580Y746760D03*
X236220Y596900D03*
X243840Y665480D03*
X147320Y579120D03*
X289560Y835660D03*
X71120Y749300D03*
X86360Y58420D03*
X281940Y48260D03*
X180340Y619760D03*
X114300Y619760D03*
X279400Y657860D03*
X279400Y713740D03*
X17780Y774700D03*
X91440Y469900D03*
X111760Y370840D03*
X195580Y365760D03*
X17780Y731520D03*
X17780Y693420D03*
X17780Y660400D03*
X17780Y629920D03*
X17780Y599440D03*
X16510Y535940D03*
X190500Y464820D03*
X17780Y490220D03*
X17780Y457200D03*
X17780Y424180D03*
X17780Y398780D03*
X66040Y431800D03*
X17780Y360680D03*
X134620Y381000D03*
X17780Y314960D03*
X17780Y271780D03*
X17780Y231140D03*
X17780Y190500D03*
X17780Y147320D03*
X53340Y213360D03*
X109220Y218016D03*
X20320Y88900D03*
X20320Y17780D03*
X185420Y22860D03*
X337820Y27940D03*
X340360Y231140D03*
X256540Y226060D03*
X228600Y251460D03*
X220980Y276860D03*
X135890Y311150D03*
X175260Y325120D03*
X281940Y429260D03*
X279400Y391160D03*
X281940Y497840D03*
X281940Y541020D03*
X185100Y558154D03*
X200660Y520700D03*
X116840Y683260D03*
X182880Y746760D03*
X210820Y749300D03*
X210820Y718820D03*
X170180Y721360D03*
X180340Y850900D03*
X139700Y850900D03*
X175260Y817880D03*
X220980Y850900D03*
X274320Y810260D03*
X340360Y871220D03*
X337820Y774700D03*
X104140Y853440D03*
X88900Y835660D03*
X99060Y642620D03*
X226060Y518160D03*
X327660Y358140D03*
X322580Y276860D03*
X287020Y254000D03*
X289560Y279400D03*
X289560Y304800D03*
X322580Y256540D03*
X254000Y637540D03*
X111760Y767080D03*
X119380Y718820D03*
X172720Y784860D03*
X50800Y772160D03*
X72390Y765810D03*
X320040Y609600D03*
X320040Y508000D03*
X322580Y205740D03*
X254000Y121920D03*
X36830Y662940D03*
X187960Y579120D03*
X128270Y403860D03*
X127000Y198120D03*
X60960Y795020D03*
X30480Y795020D03*
X45720Y795020D03*
M02*
