M48
;GenerationSoftware,Autodesk,EAGLE,9.5.2*%
;CreationDate,2019-12-03T13:44:01Z*%
FMAT,2
ICI,OFF
METRIC,TZ,000.000
T5C0.350
T4C0.800
T3C1.016
T2C1.100
T1C1.600
%
G90
M71
T1
X5506Y48432
X11766Y54692
X5506Y54692
X11766Y27858
X5506Y27858
X11766Y34118
X5506Y34118
X11766Y48432
X11766Y5760
X5506Y5760
X11766Y12020
X5506Y12020
T2
X8636Y51562
X8636Y8890
X8636Y30988
T3
X19558Y21082
X19558Y23622
X19558Y26162
X19558Y28702
X19558Y31242
X19558Y33782
X19558Y18542
X19558Y16002
T4
X30480Y79883
X30480Y77343
X30480Y74803
X30480Y72263
X30480Y69723
X30480Y67183
X30480Y64643
X30480Y62103
X30480Y59563
X30480Y57023
X30480Y54483
X30480Y51943
X30480Y49403
X30480Y46863
X30480Y44323
X30480Y41783
X30480Y39243
X30480Y36703
X30480Y34163
X30480Y31623
X30480Y29083
X30480Y26543
X30480Y24003
X30480Y21463
X30480Y18923
X30480Y16383
X30480Y13843
X30480Y11303
X30480Y8763
X30480Y6223
X30480Y3683
X30480Y84963
X30480Y82423
T5
X6096Y79502
X18796Y57912
X19558Y36576
X11176Y37084
X8636Y48260
X1778Y77470
X27940Y71374
X27940Y65786
X11430Y61976
X28194Y4826
X8636Y5842
X18034Y61976
X7112Y74930
X28956Y83566
X14732Y57912
X24384Y66548
X23622Y59690
X19558Y74676
X19558Y63774
X4572Y79502
X3048Y79502
M30