G04 EAGLE Gerber RS-274X export*
G75*
%MOMM*%
%FSLAX34Y34*%
%LPD*%
%INSilkscreen Top*%
%IPPOS*%
%AMOC8*
5,1,8,0,0,1.08239X$1,22.5*%
G01*
%ADD10C,0.076200*%
%ADD11C,0.101600*%
%ADD12R,0.250000X0.225000*%
%ADD13C,0.200000*%
%ADD14C,0.127000*%
%ADD15C,0.152400*%


D10*
X243595Y849856D02*
X249860Y849856D01*
X246727Y846723D02*
X246727Y852988D01*
X253870Y846201D02*
X256481Y846201D01*
X256582Y846203D01*
X256683Y846209D01*
X256784Y846219D01*
X256884Y846232D01*
X256984Y846250D01*
X257083Y846271D01*
X257181Y846297D01*
X257278Y846326D01*
X257374Y846358D01*
X257468Y846395D01*
X257561Y846435D01*
X257653Y846479D01*
X257742Y846526D01*
X257830Y846577D01*
X257916Y846631D01*
X257999Y846688D01*
X258081Y846748D01*
X258159Y846812D01*
X258236Y846878D01*
X258309Y846948D01*
X258380Y847020D01*
X258448Y847095D01*
X258513Y847173D01*
X258575Y847253D01*
X258634Y847335D01*
X258690Y847420D01*
X258742Y847507D01*
X258791Y847595D01*
X258837Y847686D01*
X258878Y847778D01*
X258917Y847872D01*
X258951Y847967D01*
X258982Y848063D01*
X259009Y848161D01*
X259033Y848259D01*
X259052Y848359D01*
X259068Y848459D01*
X259080Y848559D01*
X259088Y848660D01*
X259092Y848761D01*
X259092Y848863D01*
X259088Y848964D01*
X259080Y849065D01*
X259068Y849165D01*
X259052Y849265D01*
X259033Y849365D01*
X259009Y849463D01*
X258982Y849561D01*
X258951Y849657D01*
X258917Y849752D01*
X258878Y849846D01*
X258837Y849938D01*
X258791Y850029D01*
X258742Y850118D01*
X258690Y850204D01*
X258634Y850289D01*
X258575Y850371D01*
X258513Y850451D01*
X258448Y850529D01*
X258380Y850604D01*
X258309Y850676D01*
X258236Y850746D01*
X258159Y850812D01*
X258081Y850876D01*
X257999Y850936D01*
X257916Y850993D01*
X257830Y851047D01*
X257742Y851098D01*
X257653Y851145D01*
X257561Y851189D01*
X257468Y851229D01*
X257374Y851266D01*
X257278Y851298D01*
X257181Y851327D01*
X257083Y851353D01*
X256984Y851374D01*
X256884Y851392D01*
X256784Y851405D01*
X256683Y851415D01*
X256582Y851421D01*
X256481Y851423D01*
X257003Y855599D02*
X253870Y855599D01*
X257003Y855599D02*
X257093Y855597D01*
X257182Y855591D01*
X257272Y855582D01*
X257361Y855568D01*
X257449Y855551D01*
X257536Y855530D01*
X257623Y855505D01*
X257708Y855476D01*
X257792Y855444D01*
X257874Y855409D01*
X257955Y855369D01*
X258034Y855327D01*
X258111Y855281D01*
X258186Y855231D01*
X258259Y855179D01*
X258330Y855123D01*
X258398Y855065D01*
X258463Y855003D01*
X258526Y854939D01*
X258586Y854872D01*
X258643Y854803D01*
X258697Y854731D01*
X258748Y854657D01*
X258796Y854581D01*
X258840Y854503D01*
X258881Y854423D01*
X258919Y854341D01*
X258953Y854258D01*
X258983Y854173D01*
X259010Y854087D01*
X259033Y854001D01*
X259052Y853913D01*
X259067Y853824D01*
X259079Y853735D01*
X259087Y853646D01*
X259091Y853556D01*
X259091Y853466D01*
X259087Y853376D01*
X259079Y853287D01*
X259067Y853198D01*
X259052Y853109D01*
X259033Y853021D01*
X259010Y852935D01*
X258983Y852849D01*
X258953Y852764D01*
X258919Y852681D01*
X258881Y852599D01*
X258840Y852519D01*
X258796Y852441D01*
X258748Y852365D01*
X258697Y852291D01*
X258643Y852219D01*
X258586Y852150D01*
X258526Y852083D01*
X258463Y852019D01*
X258398Y851957D01*
X258330Y851899D01*
X258259Y851843D01*
X258186Y851791D01*
X258111Y851741D01*
X258034Y851695D01*
X257955Y851653D01*
X257874Y851613D01*
X257792Y851578D01*
X257708Y851546D01*
X257623Y851517D01*
X257536Y851492D01*
X257449Y851471D01*
X257361Y851454D01*
X257272Y851440D01*
X257182Y851431D01*
X257093Y851425D01*
X257003Y851423D01*
X257003Y851422D02*
X254915Y851422D01*
X262621Y846723D02*
X262621Y846201D01*
X262621Y846723D02*
X263143Y846723D01*
X263143Y846201D01*
X262621Y846201D01*
X266672Y846201D02*
X269282Y846201D01*
X269383Y846203D01*
X269484Y846209D01*
X269585Y846219D01*
X269685Y846232D01*
X269785Y846250D01*
X269884Y846271D01*
X269982Y846297D01*
X270079Y846326D01*
X270175Y846358D01*
X270269Y846395D01*
X270362Y846435D01*
X270454Y846479D01*
X270543Y846526D01*
X270631Y846577D01*
X270717Y846631D01*
X270800Y846688D01*
X270882Y846748D01*
X270960Y846812D01*
X271037Y846878D01*
X271110Y846948D01*
X271181Y847020D01*
X271249Y847095D01*
X271314Y847173D01*
X271376Y847253D01*
X271435Y847335D01*
X271491Y847420D01*
X271543Y847507D01*
X271592Y847595D01*
X271638Y847686D01*
X271679Y847778D01*
X271718Y847872D01*
X271752Y847967D01*
X271783Y848063D01*
X271810Y848161D01*
X271834Y848259D01*
X271853Y848359D01*
X271869Y848459D01*
X271881Y848559D01*
X271889Y848660D01*
X271893Y848761D01*
X271893Y848863D01*
X271889Y848964D01*
X271881Y849065D01*
X271869Y849165D01*
X271853Y849265D01*
X271834Y849365D01*
X271810Y849463D01*
X271783Y849561D01*
X271752Y849657D01*
X271718Y849752D01*
X271679Y849846D01*
X271638Y849938D01*
X271592Y850029D01*
X271543Y850118D01*
X271491Y850204D01*
X271435Y850289D01*
X271376Y850371D01*
X271314Y850451D01*
X271249Y850529D01*
X271181Y850604D01*
X271110Y850676D01*
X271037Y850746D01*
X270960Y850812D01*
X270882Y850876D01*
X270800Y850936D01*
X270717Y850993D01*
X270631Y851047D01*
X270543Y851098D01*
X270454Y851145D01*
X270362Y851189D01*
X270269Y851229D01*
X270175Y851266D01*
X270079Y851298D01*
X269982Y851327D01*
X269884Y851353D01*
X269785Y851374D01*
X269685Y851392D01*
X269585Y851405D01*
X269484Y851415D01*
X269383Y851421D01*
X269282Y851423D01*
X269805Y855599D02*
X266672Y855599D01*
X269805Y855599D02*
X269895Y855597D01*
X269984Y855591D01*
X270074Y855582D01*
X270163Y855568D01*
X270251Y855551D01*
X270338Y855530D01*
X270425Y855505D01*
X270510Y855476D01*
X270594Y855444D01*
X270676Y855409D01*
X270757Y855369D01*
X270836Y855327D01*
X270913Y855281D01*
X270988Y855231D01*
X271061Y855179D01*
X271132Y855123D01*
X271200Y855065D01*
X271265Y855003D01*
X271328Y854939D01*
X271388Y854872D01*
X271445Y854803D01*
X271499Y854731D01*
X271550Y854657D01*
X271598Y854581D01*
X271642Y854503D01*
X271683Y854423D01*
X271721Y854341D01*
X271755Y854258D01*
X271785Y854173D01*
X271812Y854087D01*
X271835Y854001D01*
X271854Y853913D01*
X271869Y853824D01*
X271881Y853735D01*
X271889Y853646D01*
X271893Y853556D01*
X271893Y853466D01*
X271889Y853376D01*
X271881Y853287D01*
X271869Y853198D01*
X271854Y853109D01*
X271835Y853021D01*
X271812Y852935D01*
X271785Y852849D01*
X271755Y852764D01*
X271721Y852681D01*
X271683Y852599D01*
X271642Y852519D01*
X271598Y852441D01*
X271550Y852365D01*
X271499Y852291D01*
X271445Y852219D01*
X271388Y852150D01*
X271328Y852083D01*
X271265Y852019D01*
X271200Y851957D01*
X271132Y851899D01*
X271061Y851843D01*
X270988Y851791D01*
X270913Y851741D01*
X270836Y851695D01*
X270757Y851653D01*
X270676Y851613D01*
X270594Y851578D01*
X270510Y851546D01*
X270425Y851517D01*
X270338Y851492D01*
X270251Y851471D01*
X270163Y851454D01*
X270074Y851440D01*
X269984Y851431D01*
X269895Y851425D01*
X269805Y851423D01*
X269805Y851422D02*
X267716Y851422D01*
X275294Y855599D02*
X278426Y846201D01*
X281559Y855599D01*
X262052Y826022D02*
X260485Y826022D01*
X262052Y826022D02*
X262052Y820801D01*
X258919Y820801D01*
X258830Y820803D01*
X258742Y820809D01*
X258654Y820818D01*
X258566Y820831D01*
X258479Y820848D01*
X258393Y820868D01*
X258308Y820893D01*
X258223Y820920D01*
X258140Y820952D01*
X258059Y820986D01*
X257979Y821025D01*
X257901Y821066D01*
X257824Y821111D01*
X257750Y821159D01*
X257677Y821210D01*
X257607Y821264D01*
X257540Y821322D01*
X257474Y821382D01*
X257412Y821444D01*
X257352Y821510D01*
X257294Y821577D01*
X257240Y821647D01*
X257189Y821720D01*
X257141Y821794D01*
X257096Y821871D01*
X257055Y821949D01*
X257016Y822029D01*
X256982Y822110D01*
X256950Y822193D01*
X256923Y822278D01*
X256898Y822363D01*
X256878Y822449D01*
X256861Y822536D01*
X256848Y822624D01*
X256839Y822712D01*
X256833Y822800D01*
X256831Y822889D01*
X256831Y828111D01*
X256833Y828202D01*
X256839Y828293D01*
X256849Y828384D01*
X256863Y828474D01*
X256880Y828563D01*
X256902Y828651D01*
X256928Y828739D01*
X256957Y828825D01*
X256990Y828910D01*
X257027Y828993D01*
X257067Y829075D01*
X257111Y829155D01*
X257158Y829233D01*
X257209Y829309D01*
X257262Y829382D01*
X257319Y829453D01*
X257380Y829522D01*
X257443Y829587D01*
X257508Y829650D01*
X257577Y829710D01*
X257648Y829768D01*
X257721Y829821D01*
X257797Y829872D01*
X257875Y829919D01*
X257955Y829963D01*
X258037Y830003D01*
X258120Y830040D01*
X258205Y830073D01*
X258291Y830102D01*
X258379Y830128D01*
X258467Y830150D01*
X258556Y830167D01*
X258646Y830181D01*
X258737Y830191D01*
X258828Y830197D01*
X258919Y830199D01*
X262052Y830199D01*
X266584Y830199D02*
X266584Y820801D01*
X271805Y820801D02*
X266584Y830199D01*
X271805Y830199D02*
X271805Y820801D01*
X276338Y820801D02*
X276338Y830199D01*
X278948Y830199D01*
X279048Y830197D01*
X279148Y830191D01*
X279247Y830182D01*
X279347Y830168D01*
X279445Y830151D01*
X279543Y830130D01*
X279640Y830106D01*
X279736Y830077D01*
X279831Y830045D01*
X279924Y830010D01*
X280016Y829971D01*
X280107Y829928D01*
X280195Y829882D01*
X280282Y829832D01*
X280367Y829780D01*
X280450Y829724D01*
X280531Y829665D01*
X280609Y829602D01*
X280685Y829537D01*
X280759Y829469D01*
X280829Y829399D01*
X280897Y829325D01*
X280962Y829249D01*
X281025Y829171D01*
X281084Y829090D01*
X281140Y829007D01*
X281192Y828922D01*
X281242Y828835D01*
X281288Y828747D01*
X281331Y828656D01*
X281370Y828564D01*
X281405Y828471D01*
X281437Y828376D01*
X281466Y828280D01*
X281490Y828183D01*
X281511Y828085D01*
X281528Y827987D01*
X281542Y827887D01*
X281551Y827788D01*
X281557Y827688D01*
X281559Y827588D01*
X281559Y823412D01*
X281557Y823312D01*
X281551Y823212D01*
X281542Y823113D01*
X281528Y823013D01*
X281511Y822915D01*
X281490Y822817D01*
X281466Y822720D01*
X281437Y822624D01*
X281405Y822529D01*
X281370Y822436D01*
X281331Y822344D01*
X281288Y822253D01*
X281242Y822165D01*
X281192Y822078D01*
X281140Y821993D01*
X281084Y821910D01*
X281025Y821829D01*
X280962Y821751D01*
X280897Y821675D01*
X280829Y821601D01*
X280759Y821531D01*
X280685Y821463D01*
X280609Y821398D01*
X280531Y821335D01*
X280450Y821276D01*
X280367Y821220D01*
X280282Y821168D01*
X280195Y821118D01*
X280107Y821072D01*
X280016Y821029D01*
X279924Y820990D01*
X279831Y820955D01*
X279736Y820923D01*
X279640Y820894D01*
X279543Y820870D01*
X279445Y820849D01*
X279347Y820832D01*
X279247Y820818D01*
X279148Y820809D01*
X279048Y820803D01*
X278948Y820801D01*
X276338Y820801D01*
X216685Y190119D02*
X216685Y180721D01*
X216685Y190119D02*
X219295Y190119D01*
X219395Y190117D01*
X219495Y190111D01*
X219594Y190102D01*
X219694Y190088D01*
X219792Y190071D01*
X219890Y190050D01*
X219987Y190026D01*
X220083Y189997D01*
X220178Y189965D01*
X220271Y189930D01*
X220363Y189891D01*
X220454Y189848D01*
X220542Y189802D01*
X220629Y189752D01*
X220714Y189700D01*
X220797Y189644D01*
X220878Y189585D01*
X220956Y189522D01*
X221032Y189457D01*
X221106Y189389D01*
X221176Y189319D01*
X221244Y189245D01*
X221309Y189169D01*
X221372Y189091D01*
X221431Y189010D01*
X221487Y188927D01*
X221539Y188842D01*
X221589Y188755D01*
X221635Y188667D01*
X221678Y188576D01*
X221717Y188484D01*
X221752Y188391D01*
X221784Y188296D01*
X221813Y188200D01*
X221837Y188103D01*
X221858Y188005D01*
X221875Y187907D01*
X221889Y187807D01*
X221898Y187708D01*
X221904Y187608D01*
X221906Y187508D01*
X221906Y183332D01*
X221904Y183232D01*
X221898Y183132D01*
X221889Y183033D01*
X221875Y182933D01*
X221858Y182835D01*
X221837Y182737D01*
X221813Y182640D01*
X221784Y182544D01*
X221752Y182449D01*
X221717Y182356D01*
X221678Y182264D01*
X221635Y182173D01*
X221589Y182085D01*
X221539Y181998D01*
X221487Y181913D01*
X221431Y181830D01*
X221372Y181749D01*
X221309Y181671D01*
X221244Y181595D01*
X221176Y181521D01*
X221106Y181451D01*
X221032Y181383D01*
X220956Y181318D01*
X220878Y181255D01*
X220797Y181196D01*
X220714Y181140D01*
X220629Y181088D01*
X220542Y181038D01*
X220454Y180992D01*
X220363Y180949D01*
X220271Y180910D01*
X220178Y180875D01*
X220083Y180843D01*
X219987Y180814D01*
X219890Y180790D01*
X219792Y180769D01*
X219694Y180752D01*
X219594Y180738D01*
X219495Y180729D01*
X219395Y180723D01*
X219295Y180721D01*
X216685Y180721D01*
X226495Y180721D02*
X226495Y190119D01*
X229106Y190119D01*
X229207Y190117D01*
X229308Y190111D01*
X229409Y190101D01*
X229509Y190088D01*
X229609Y190070D01*
X229708Y190049D01*
X229806Y190023D01*
X229903Y189994D01*
X229999Y189962D01*
X230093Y189925D01*
X230186Y189885D01*
X230278Y189841D01*
X230367Y189794D01*
X230455Y189743D01*
X230541Y189689D01*
X230624Y189632D01*
X230706Y189572D01*
X230784Y189508D01*
X230861Y189442D01*
X230934Y189372D01*
X231005Y189300D01*
X231073Y189225D01*
X231138Y189147D01*
X231200Y189067D01*
X231259Y188985D01*
X231315Y188900D01*
X231367Y188813D01*
X231416Y188725D01*
X231462Y188634D01*
X231503Y188542D01*
X231542Y188448D01*
X231576Y188353D01*
X231607Y188257D01*
X231634Y188159D01*
X231658Y188061D01*
X231677Y187961D01*
X231693Y187861D01*
X231705Y187761D01*
X231713Y187660D01*
X231717Y187559D01*
X231717Y187457D01*
X231713Y187356D01*
X231705Y187255D01*
X231693Y187155D01*
X231677Y187055D01*
X231658Y186955D01*
X231634Y186857D01*
X231607Y186759D01*
X231576Y186663D01*
X231542Y186568D01*
X231503Y186474D01*
X231462Y186382D01*
X231416Y186291D01*
X231367Y186202D01*
X231315Y186116D01*
X231259Y186031D01*
X231200Y185949D01*
X231138Y185869D01*
X231073Y185791D01*
X231005Y185716D01*
X230934Y185644D01*
X230861Y185574D01*
X230784Y185508D01*
X230706Y185444D01*
X230624Y185384D01*
X230541Y185327D01*
X230455Y185273D01*
X230367Y185222D01*
X230278Y185175D01*
X230186Y185131D01*
X230093Y185091D01*
X229999Y185054D01*
X229903Y185022D01*
X229806Y184993D01*
X229708Y184967D01*
X229609Y184946D01*
X229509Y184928D01*
X229409Y184915D01*
X229308Y184905D01*
X229207Y184899D01*
X229106Y184897D01*
X229106Y184898D02*
X226495Y184898D01*
X229628Y184898D02*
X231716Y180721D01*
X235887Y180721D02*
X235887Y190119D01*
X238498Y190119D01*
X238598Y190117D01*
X238698Y190111D01*
X238797Y190102D01*
X238897Y190088D01*
X238995Y190071D01*
X239093Y190050D01*
X239190Y190026D01*
X239286Y189997D01*
X239381Y189965D01*
X239474Y189930D01*
X239566Y189891D01*
X239657Y189848D01*
X239745Y189802D01*
X239832Y189752D01*
X239917Y189700D01*
X240000Y189644D01*
X240081Y189585D01*
X240159Y189522D01*
X240235Y189457D01*
X240309Y189389D01*
X240379Y189319D01*
X240447Y189245D01*
X240512Y189169D01*
X240575Y189091D01*
X240634Y189010D01*
X240690Y188927D01*
X240742Y188842D01*
X240792Y188755D01*
X240838Y188667D01*
X240881Y188576D01*
X240920Y188484D01*
X240955Y188391D01*
X240987Y188296D01*
X241016Y188200D01*
X241040Y188103D01*
X241061Y188005D01*
X241078Y187907D01*
X241092Y187807D01*
X241101Y187708D01*
X241107Y187608D01*
X241109Y187508D01*
X241108Y187508D02*
X241108Y183332D01*
X241109Y183332D02*
X241107Y183232D01*
X241101Y183132D01*
X241092Y183033D01*
X241078Y182933D01*
X241061Y182835D01*
X241040Y182737D01*
X241016Y182640D01*
X240987Y182544D01*
X240955Y182449D01*
X240920Y182356D01*
X240881Y182264D01*
X240838Y182173D01*
X240792Y182085D01*
X240742Y181998D01*
X240690Y181913D01*
X240634Y181830D01*
X240575Y181749D01*
X240512Y181671D01*
X240447Y181595D01*
X240379Y181521D01*
X240309Y181451D01*
X240235Y181383D01*
X240159Y181318D01*
X240081Y181255D01*
X240000Y181196D01*
X239917Y181140D01*
X239832Y181088D01*
X239745Y181038D01*
X239657Y180992D01*
X239566Y180949D01*
X239474Y180910D01*
X239381Y180875D01*
X239286Y180843D01*
X239190Y180814D01*
X239093Y180790D01*
X238995Y180769D01*
X238897Y180752D01*
X238797Y180738D01*
X238698Y180729D01*
X238598Y180723D01*
X238498Y180721D01*
X235887Y180721D01*
X244814Y190119D02*
X247946Y185681D01*
X251079Y190119D01*
X247946Y185681D02*
X247946Y180721D01*
X223157Y206121D02*
X223157Y215519D01*
X225767Y215519D01*
X225868Y215517D01*
X225969Y215511D01*
X226070Y215501D01*
X226170Y215488D01*
X226270Y215470D01*
X226369Y215449D01*
X226467Y215423D01*
X226564Y215394D01*
X226660Y215362D01*
X226754Y215325D01*
X226847Y215285D01*
X226939Y215241D01*
X227028Y215194D01*
X227116Y215143D01*
X227202Y215089D01*
X227285Y215032D01*
X227367Y214972D01*
X227445Y214908D01*
X227522Y214842D01*
X227595Y214772D01*
X227666Y214700D01*
X227734Y214625D01*
X227799Y214547D01*
X227861Y214467D01*
X227920Y214385D01*
X227976Y214300D01*
X228028Y214213D01*
X228077Y214125D01*
X228123Y214034D01*
X228164Y213942D01*
X228203Y213848D01*
X228237Y213753D01*
X228268Y213657D01*
X228295Y213559D01*
X228319Y213461D01*
X228338Y213361D01*
X228354Y213261D01*
X228366Y213161D01*
X228374Y213060D01*
X228378Y212959D01*
X228378Y212857D01*
X228374Y212756D01*
X228366Y212655D01*
X228354Y212555D01*
X228338Y212455D01*
X228319Y212355D01*
X228295Y212257D01*
X228268Y212159D01*
X228237Y212063D01*
X228203Y211968D01*
X228164Y211874D01*
X228123Y211782D01*
X228077Y211691D01*
X228028Y211602D01*
X227976Y211516D01*
X227920Y211431D01*
X227861Y211349D01*
X227799Y211269D01*
X227734Y211191D01*
X227666Y211116D01*
X227595Y211044D01*
X227522Y210974D01*
X227445Y210908D01*
X227367Y210844D01*
X227285Y210784D01*
X227202Y210727D01*
X227116Y210673D01*
X227028Y210622D01*
X226939Y210575D01*
X226847Y210531D01*
X226754Y210491D01*
X226660Y210454D01*
X226564Y210422D01*
X226467Y210393D01*
X226369Y210367D01*
X226270Y210346D01*
X226170Y210328D01*
X226070Y210315D01*
X225969Y210305D01*
X225868Y210299D01*
X225767Y210297D01*
X225767Y210298D02*
X223157Y210298D01*
X226289Y210298D02*
X228378Y206121D01*
X232566Y206121D02*
X236743Y206121D01*
X232566Y206121D02*
X232566Y215519D01*
X236743Y215519D01*
X235699Y211342D02*
X232566Y211342D01*
X242996Y206121D02*
X243085Y206123D01*
X243173Y206129D01*
X243261Y206138D01*
X243349Y206151D01*
X243436Y206168D01*
X243522Y206188D01*
X243607Y206213D01*
X243692Y206240D01*
X243775Y206272D01*
X243856Y206306D01*
X243936Y206345D01*
X244014Y206386D01*
X244091Y206431D01*
X244165Y206479D01*
X244238Y206530D01*
X244308Y206584D01*
X244375Y206642D01*
X244441Y206702D01*
X244503Y206764D01*
X244563Y206830D01*
X244621Y206897D01*
X244675Y206967D01*
X244726Y207040D01*
X244774Y207114D01*
X244819Y207191D01*
X244860Y207269D01*
X244899Y207349D01*
X244933Y207430D01*
X244965Y207513D01*
X244992Y207598D01*
X245017Y207683D01*
X245037Y207769D01*
X245054Y207856D01*
X245067Y207944D01*
X245076Y208032D01*
X245082Y208120D01*
X245084Y208209D01*
X242996Y206121D02*
X242867Y206123D01*
X242738Y206129D01*
X242609Y206138D01*
X242481Y206151D01*
X242353Y206168D01*
X242226Y206189D01*
X242099Y206213D01*
X241973Y206241D01*
X241848Y206273D01*
X241724Y206308D01*
X241601Y206347D01*
X241479Y206390D01*
X241359Y206436D01*
X241240Y206486D01*
X241122Y206539D01*
X241006Y206595D01*
X240892Y206655D01*
X240779Y206718D01*
X240669Y206785D01*
X240560Y206854D01*
X240454Y206927D01*
X240349Y207003D01*
X240247Y207082D01*
X240148Y207164D01*
X240050Y207248D01*
X239955Y207336D01*
X239863Y207426D01*
X240125Y213431D02*
X240127Y213520D01*
X240133Y213608D01*
X240142Y213696D01*
X240155Y213784D01*
X240172Y213871D01*
X240192Y213957D01*
X240217Y214042D01*
X240244Y214127D01*
X240276Y214210D01*
X240310Y214291D01*
X240349Y214371D01*
X240390Y214449D01*
X240435Y214526D01*
X240483Y214600D01*
X240534Y214673D01*
X240588Y214743D01*
X240646Y214810D01*
X240706Y214876D01*
X240768Y214938D01*
X240834Y214998D01*
X240901Y215056D01*
X240971Y215110D01*
X241044Y215161D01*
X241118Y215209D01*
X241195Y215254D01*
X241273Y215295D01*
X241353Y215334D01*
X241434Y215368D01*
X241517Y215400D01*
X241602Y215427D01*
X241687Y215452D01*
X241773Y215472D01*
X241860Y215489D01*
X241948Y215502D01*
X242036Y215511D01*
X242124Y215517D01*
X242213Y215519D01*
X242333Y215517D01*
X242453Y215512D01*
X242573Y215502D01*
X242692Y215490D01*
X242811Y215473D01*
X242929Y215453D01*
X243047Y215429D01*
X243163Y215402D01*
X243279Y215371D01*
X243394Y215337D01*
X243508Y215299D01*
X243621Y215257D01*
X243732Y215212D01*
X243842Y215164D01*
X243950Y215113D01*
X244057Y215058D01*
X244162Y215000D01*
X244265Y214938D01*
X244366Y214874D01*
X244466Y214806D01*
X244563Y214736D01*
X241169Y211604D02*
X241091Y211652D01*
X241015Y211704D01*
X240942Y211758D01*
X240871Y211816D01*
X240802Y211877D01*
X240736Y211941D01*
X240673Y212008D01*
X240613Y212077D01*
X240556Y212149D01*
X240502Y212223D01*
X240452Y212300D01*
X240404Y212379D01*
X240361Y212459D01*
X240320Y212542D01*
X240284Y212626D01*
X240251Y212711D01*
X240222Y212798D01*
X240196Y212887D01*
X240174Y212976D01*
X240157Y213066D01*
X240143Y213156D01*
X240133Y213248D01*
X240127Y213339D01*
X240125Y213431D01*
X244041Y210036D02*
X244119Y209988D01*
X244195Y209936D01*
X244268Y209882D01*
X244339Y209824D01*
X244408Y209763D01*
X244474Y209699D01*
X244537Y209632D01*
X244597Y209563D01*
X244654Y209491D01*
X244708Y209417D01*
X244758Y209340D01*
X244806Y209261D01*
X244849Y209181D01*
X244890Y209098D01*
X244926Y209014D01*
X244959Y208929D01*
X244988Y208842D01*
X245014Y208753D01*
X245036Y208664D01*
X245053Y208574D01*
X245067Y208484D01*
X245077Y208392D01*
X245083Y208301D01*
X245085Y208209D01*
X244040Y210037D02*
X241169Y211603D01*
X249025Y206121D02*
X253202Y206121D01*
X249025Y206121D02*
X249025Y215519D01*
X253202Y215519D01*
X252158Y211342D02*
X249025Y211342D01*
X258628Y215519D02*
X258628Y206121D01*
X256018Y215519D02*
X261239Y215519D01*
X221412Y233609D02*
X221410Y233520D01*
X221404Y233432D01*
X221395Y233344D01*
X221382Y233256D01*
X221365Y233169D01*
X221345Y233083D01*
X221320Y232998D01*
X221293Y232913D01*
X221261Y232830D01*
X221227Y232749D01*
X221188Y232669D01*
X221147Y232591D01*
X221102Y232514D01*
X221054Y232440D01*
X221003Y232367D01*
X220949Y232297D01*
X220891Y232230D01*
X220831Y232164D01*
X220769Y232102D01*
X220703Y232042D01*
X220636Y231984D01*
X220566Y231930D01*
X220493Y231879D01*
X220419Y231831D01*
X220342Y231786D01*
X220264Y231745D01*
X220184Y231706D01*
X220103Y231672D01*
X220020Y231640D01*
X219935Y231613D01*
X219850Y231588D01*
X219764Y231568D01*
X219677Y231551D01*
X219589Y231538D01*
X219501Y231529D01*
X219413Y231523D01*
X219324Y231521D01*
X219195Y231523D01*
X219066Y231529D01*
X218937Y231538D01*
X218809Y231551D01*
X218681Y231568D01*
X218554Y231589D01*
X218427Y231613D01*
X218301Y231641D01*
X218176Y231673D01*
X218052Y231708D01*
X217929Y231747D01*
X217807Y231790D01*
X217687Y231836D01*
X217568Y231886D01*
X217450Y231939D01*
X217334Y231995D01*
X217220Y232055D01*
X217107Y232118D01*
X216997Y232185D01*
X216888Y232254D01*
X216782Y232327D01*
X216677Y232403D01*
X216575Y232482D01*
X216476Y232564D01*
X216378Y232648D01*
X216283Y232736D01*
X216191Y232826D01*
X216452Y238831D02*
X216454Y238920D01*
X216460Y239008D01*
X216469Y239096D01*
X216482Y239184D01*
X216499Y239271D01*
X216519Y239357D01*
X216544Y239442D01*
X216571Y239527D01*
X216603Y239610D01*
X216637Y239691D01*
X216676Y239771D01*
X216717Y239849D01*
X216762Y239926D01*
X216810Y240000D01*
X216861Y240073D01*
X216915Y240143D01*
X216973Y240210D01*
X217033Y240276D01*
X217095Y240338D01*
X217161Y240398D01*
X217228Y240456D01*
X217298Y240510D01*
X217371Y240561D01*
X217445Y240609D01*
X217522Y240654D01*
X217600Y240695D01*
X217680Y240734D01*
X217761Y240768D01*
X217844Y240800D01*
X217929Y240827D01*
X218014Y240852D01*
X218100Y240872D01*
X218187Y240889D01*
X218275Y240902D01*
X218363Y240911D01*
X218451Y240917D01*
X218540Y240919D01*
X218660Y240917D01*
X218780Y240912D01*
X218900Y240902D01*
X219019Y240890D01*
X219138Y240873D01*
X219256Y240853D01*
X219374Y240829D01*
X219490Y240802D01*
X219606Y240771D01*
X219721Y240737D01*
X219835Y240699D01*
X219948Y240657D01*
X220059Y240612D01*
X220169Y240564D01*
X220277Y240513D01*
X220384Y240458D01*
X220489Y240400D01*
X220592Y240338D01*
X220693Y240274D01*
X220793Y240206D01*
X220890Y240136D01*
X217496Y237004D02*
X217418Y237052D01*
X217342Y237104D01*
X217269Y237158D01*
X217198Y237216D01*
X217129Y237277D01*
X217063Y237341D01*
X217000Y237408D01*
X216940Y237477D01*
X216883Y237549D01*
X216829Y237623D01*
X216779Y237700D01*
X216731Y237779D01*
X216688Y237859D01*
X216647Y237942D01*
X216611Y238026D01*
X216578Y238111D01*
X216549Y238198D01*
X216523Y238287D01*
X216501Y238376D01*
X216484Y238466D01*
X216470Y238556D01*
X216460Y238648D01*
X216454Y238739D01*
X216452Y238831D01*
X220368Y235436D02*
X220446Y235388D01*
X220522Y235336D01*
X220595Y235282D01*
X220666Y235224D01*
X220735Y235163D01*
X220801Y235099D01*
X220864Y235032D01*
X220924Y234963D01*
X220981Y234891D01*
X221035Y234817D01*
X221085Y234740D01*
X221133Y234661D01*
X221176Y234581D01*
X221217Y234498D01*
X221253Y234414D01*
X221286Y234329D01*
X221315Y234242D01*
X221341Y234153D01*
X221363Y234064D01*
X221380Y233974D01*
X221394Y233884D01*
X221404Y233792D01*
X221410Y233701D01*
X221412Y233609D01*
X220368Y235437D02*
X217496Y237003D01*
X227031Y240919D02*
X227031Y231521D01*
X224420Y240919D02*
X229642Y240919D01*
X235565Y240919D02*
X232433Y231521D01*
X238698Y231521D02*
X235565Y240919D01*
X237915Y233871D02*
X233216Y233871D01*
X242461Y231521D02*
X242461Y240919D01*
X245071Y240919D01*
X245172Y240917D01*
X245273Y240911D01*
X245374Y240901D01*
X245474Y240888D01*
X245574Y240870D01*
X245673Y240849D01*
X245771Y240823D01*
X245868Y240794D01*
X245964Y240762D01*
X246058Y240725D01*
X246151Y240685D01*
X246243Y240641D01*
X246332Y240594D01*
X246420Y240543D01*
X246506Y240489D01*
X246589Y240432D01*
X246671Y240372D01*
X246749Y240308D01*
X246826Y240242D01*
X246899Y240172D01*
X246970Y240100D01*
X247038Y240025D01*
X247103Y239947D01*
X247165Y239867D01*
X247224Y239785D01*
X247280Y239700D01*
X247332Y239613D01*
X247381Y239525D01*
X247427Y239434D01*
X247468Y239342D01*
X247507Y239248D01*
X247541Y239153D01*
X247572Y239057D01*
X247599Y238959D01*
X247623Y238861D01*
X247642Y238761D01*
X247658Y238661D01*
X247670Y238561D01*
X247678Y238460D01*
X247682Y238359D01*
X247682Y238257D01*
X247678Y238156D01*
X247670Y238055D01*
X247658Y237955D01*
X247642Y237855D01*
X247623Y237755D01*
X247599Y237657D01*
X247572Y237559D01*
X247541Y237463D01*
X247507Y237368D01*
X247468Y237274D01*
X247427Y237182D01*
X247381Y237091D01*
X247332Y237002D01*
X247280Y236916D01*
X247224Y236831D01*
X247165Y236749D01*
X247103Y236669D01*
X247038Y236591D01*
X246970Y236516D01*
X246899Y236444D01*
X246826Y236374D01*
X246749Y236308D01*
X246671Y236244D01*
X246589Y236184D01*
X246506Y236127D01*
X246420Y236073D01*
X246332Y236022D01*
X246243Y235975D01*
X246151Y235931D01*
X246058Y235891D01*
X245964Y235854D01*
X245868Y235822D01*
X245771Y235793D01*
X245673Y235767D01*
X245574Y235746D01*
X245474Y235728D01*
X245374Y235715D01*
X245273Y235705D01*
X245172Y235699D01*
X245071Y235697D01*
X245071Y235698D02*
X242461Y235698D01*
X245593Y235698D02*
X247682Y231521D01*
X253548Y231521D02*
X253548Y240919D01*
X250938Y240919D02*
X256159Y240919D01*
X224914Y333121D02*
X222825Y333121D01*
X222736Y333123D01*
X222648Y333129D01*
X222560Y333138D01*
X222472Y333151D01*
X222385Y333168D01*
X222299Y333188D01*
X222214Y333213D01*
X222129Y333240D01*
X222046Y333272D01*
X221965Y333306D01*
X221885Y333345D01*
X221807Y333386D01*
X221730Y333431D01*
X221656Y333479D01*
X221583Y333530D01*
X221513Y333584D01*
X221446Y333642D01*
X221380Y333702D01*
X221318Y333764D01*
X221258Y333830D01*
X221200Y333897D01*
X221146Y333967D01*
X221095Y334040D01*
X221047Y334114D01*
X221002Y334191D01*
X220961Y334269D01*
X220922Y334349D01*
X220888Y334430D01*
X220856Y334513D01*
X220829Y334598D01*
X220804Y334683D01*
X220784Y334769D01*
X220767Y334856D01*
X220754Y334944D01*
X220745Y335032D01*
X220739Y335120D01*
X220737Y335209D01*
X220737Y340431D01*
X220738Y340431D02*
X220740Y340522D01*
X220746Y340613D01*
X220756Y340704D01*
X220770Y340794D01*
X220787Y340883D01*
X220809Y340971D01*
X220835Y341059D01*
X220864Y341145D01*
X220897Y341230D01*
X220934Y341313D01*
X220974Y341395D01*
X221018Y341475D01*
X221065Y341553D01*
X221116Y341629D01*
X221169Y341702D01*
X221226Y341773D01*
X221287Y341842D01*
X221350Y341907D01*
X221415Y341970D01*
X221484Y342030D01*
X221555Y342088D01*
X221628Y342141D01*
X221704Y342192D01*
X221782Y342239D01*
X221862Y342283D01*
X221944Y342323D01*
X222027Y342360D01*
X222112Y342393D01*
X222198Y342422D01*
X222286Y342448D01*
X222374Y342470D01*
X222463Y342487D01*
X222553Y342501D01*
X222644Y342511D01*
X222735Y342517D01*
X222826Y342519D01*
X222825Y342519D02*
X224914Y342519D01*
X233299Y335209D02*
X233297Y335120D01*
X233291Y335032D01*
X233282Y334944D01*
X233269Y334856D01*
X233252Y334769D01*
X233232Y334683D01*
X233207Y334598D01*
X233180Y334513D01*
X233148Y334430D01*
X233114Y334349D01*
X233075Y334269D01*
X233034Y334191D01*
X232989Y334114D01*
X232941Y334040D01*
X232890Y333967D01*
X232836Y333897D01*
X232778Y333830D01*
X232718Y333764D01*
X232656Y333702D01*
X232590Y333642D01*
X232523Y333584D01*
X232453Y333530D01*
X232380Y333479D01*
X232306Y333431D01*
X232229Y333386D01*
X232151Y333345D01*
X232071Y333306D01*
X231990Y333272D01*
X231907Y333240D01*
X231822Y333213D01*
X231737Y333188D01*
X231651Y333168D01*
X231564Y333151D01*
X231476Y333138D01*
X231388Y333129D01*
X231300Y333123D01*
X231211Y333121D01*
X231082Y333123D01*
X230953Y333129D01*
X230824Y333138D01*
X230696Y333151D01*
X230568Y333168D01*
X230441Y333189D01*
X230314Y333213D01*
X230188Y333241D01*
X230063Y333273D01*
X229939Y333308D01*
X229816Y333347D01*
X229694Y333390D01*
X229574Y333436D01*
X229455Y333486D01*
X229337Y333539D01*
X229221Y333595D01*
X229107Y333655D01*
X228994Y333718D01*
X228884Y333785D01*
X228775Y333854D01*
X228669Y333927D01*
X228564Y334003D01*
X228462Y334082D01*
X228363Y334164D01*
X228265Y334248D01*
X228170Y334336D01*
X228078Y334426D01*
X228339Y340431D02*
X228341Y340520D01*
X228347Y340608D01*
X228356Y340696D01*
X228369Y340784D01*
X228386Y340871D01*
X228406Y340957D01*
X228431Y341042D01*
X228458Y341127D01*
X228490Y341210D01*
X228524Y341291D01*
X228563Y341371D01*
X228604Y341449D01*
X228649Y341526D01*
X228697Y341600D01*
X228748Y341673D01*
X228802Y341743D01*
X228860Y341810D01*
X228920Y341876D01*
X228982Y341938D01*
X229048Y341998D01*
X229115Y342056D01*
X229185Y342110D01*
X229258Y342161D01*
X229332Y342209D01*
X229409Y342254D01*
X229487Y342295D01*
X229567Y342334D01*
X229648Y342368D01*
X229731Y342400D01*
X229816Y342427D01*
X229901Y342452D01*
X229987Y342472D01*
X230074Y342489D01*
X230162Y342502D01*
X230250Y342511D01*
X230338Y342517D01*
X230427Y342519D01*
X230547Y342517D01*
X230667Y342512D01*
X230787Y342502D01*
X230906Y342490D01*
X231025Y342473D01*
X231143Y342453D01*
X231261Y342429D01*
X231377Y342402D01*
X231493Y342371D01*
X231608Y342337D01*
X231722Y342299D01*
X231835Y342257D01*
X231946Y342212D01*
X232056Y342164D01*
X232164Y342113D01*
X232271Y342058D01*
X232376Y342000D01*
X232479Y341938D01*
X232580Y341874D01*
X232680Y341806D01*
X232777Y341736D01*
X229383Y338604D02*
X229305Y338652D01*
X229229Y338704D01*
X229156Y338758D01*
X229085Y338816D01*
X229016Y338877D01*
X228950Y338941D01*
X228887Y339008D01*
X228827Y339077D01*
X228770Y339149D01*
X228716Y339223D01*
X228666Y339300D01*
X228618Y339379D01*
X228575Y339459D01*
X228534Y339542D01*
X228498Y339626D01*
X228465Y339711D01*
X228436Y339798D01*
X228410Y339887D01*
X228388Y339976D01*
X228371Y340066D01*
X228357Y340156D01*
X228347Y340248D01*
X228341Y340339D01*
X228339Y340431D01*
X232255Y337036D02*
X232333Y336988D01*
X232409Y336936D01*
X232482Y336882D01*
X232553Y336824D01*
X232622Y336763D01*
X232688Y336699D01*
X232751Y336632D01*
X232811Y336563D01*
X232868Y336491D01*
X232922Y336417D01*
X232972Y336340D01*
X233020Y336261D01*
X233063Y336181D01*
X233104Y336098D01*
X233140Y336014D01*
X233173Y335929D01*
X233202Y335842D01*
X233228Y335753D01*
X233250Y335664D01*
X233267Y335574D01*
X233281Y335484D01*
X233291Y335392D01*
X233297Y335301D01*
X233299Y335209D01*
X232255Y337037D02*
X229383Y338603D01*
X218717Y294259D02*
X218717Y284861D01*
X221849Y289038D02*
X218717Y294259D01*
X221849Y289038D02*
X224982Y294259D01*
X224982Y284861D01*
X230079Y284861D02*
X230079Y294259D01*
X229035Y284861D02*
X231123Y284861D01*
X231123Y294259D02*
X229035Y294259D01*
X237611Y284861D02*
X237700Y284863D01*
X237788Y284869D01*
X237876Y284878D01*
X237964Y284891D01*
X238051Y284908D01*
X238137Y284928D01*
X238222Y284953D01*
X238307Y284980D01*
X238390Y285012D01*
X238471Y285046D01*
X238551Y285085D01*
X238629Y285126D01*
X238706Y285171D01*
X238780Y285219D01*
X238853Y285270D01*
X238923Y285324D01*
X238990Y285382D01*
X239056Y285442D01*
X239118Y285504D01*
X239178Y285570D01*
X239236Y285637D01*
X239290Y285707D01*
X239341Y285780D01*
X239389Y285854D01*
X239434Y285931D01*
X239475Y286009D01*
X239514Y286089D01*
X239548Y286170D01*
X239580Y286253D01*
X239607Y286338D01*
X239632Y286423D01*
X239652Y286509D01*
X239669Y286596D01*
X239682Y286684D01*
X239691Y286772D01*
X239697Y286860D01*
X239699Y286949D01*
X237611Y284861D02*
X237482Y284863D01*
X237353Y284869D01*
X237224Y284878D01*
X237096Y284891D01*
X236968Y284908D01*
X236841Y284929D01*
X236714Y284953D01*
X236588Y284981D01*
X236463Y285013D01*
X236339Y285048D01*
X236216Y285087D01*
X236094Y285130D01*
X235974Y285176D01*
X235855Y285226D01*
X235737Y285279D01*
X235621Y285335D01*
X235507Y285395D01*
X235394Y285458D01*
X235284Y285525D01*
X235175Y285594D01*
X235069Y285667D01*
X234964Y285743D01*
X234862Y285822D01*
X234763Y285904D01*
X234665Y285988D01*
X234570Y286076D01*
X234478Y286166D01*
X234740Y292171D02*
X234742Y292260D01*
X234748Y292348D01*
X234757Y292436D01*
X234770Y292524D01*
X234787Y292611D01*
X234807Y292697D01*
X234832Y292782D01*
X234859Y292867D01*
X234891Y292950D01*
X234925Y293031D01*
X234964Y293111D01*
X235005Y293189D01*
X235050Y293266D01*
X235098Y293340D01*
X235149Y293413D01*
X235203Y293483D01*
X235261Y293550D01*
X235321Y293616D01*
X235383Y293678D01*
X235449Y293738D01*
X235516Y293796D01*
X235586Y293850D01*
X235659Y293901D01*
X235733Y293949D01*
X235810Y293994D01*
X235888Y294035D01*
X235968Y294074D01*
X236049Y294108D01*
X236132Y294140D01*
X236217Y294167D01*
X236302Y294192D01*
X236388Y294212D01*
X236475Y294229D01*
X236563Y294242D01*
X236651Y294251D01*
X236739Y294257D01*
X236828Y294259D01*
X236948Y294257D01*
X237068Y294252D01*
X237188Y294242D01*
X237307Y294230D01*
X237426Y294213D01*
X237544Y294193D01*
X237662Y294169D01*
X237778Y294142D01*
X237894Y294111D01*
X238009Y294077D01*
X238123Y294039D01*
X238236Y293997D01*
X238347Y293952D01*
X238457Y293904D01*
X238565Y293853D01*
X238672Y293798D01*
X238777Y293740D01*
X238880Y293678D01*
X238981Y293614D01*
X239081Y293546D01*
X239178Y293476D01*
X235784Y290344D02*
X235706Y290392D01*
X235630Y290444D01*
X235557Y290498D01*
X235486Y290556D01*
X235417Y290617D01*
X235351Y290681D01*
X235288Y290748D01*
X235228Y290817D01*
X235171Y290889D01*
X235117Y290963D01*
X235067Y291040D01*
X235019Y291119D01*
X234976Y291199D01*
X234935Y291282D01*
X234899Y291366D01*
X234866Y291451D01*
X234837Y291538D01*
X234811Y291627D01*
X234789Y291716D01*
X234772Y291806D01*
X234758Y291896D01*
X234748Y291988D01*
X234742Y292079D01*
X234740Y292171D01*
X238656Y288776D02*
X238734Y288728D01*
X238810Y288676D01*
X238883Y288622D01*
X238954Y288564D01*
X239023Y288503D01*
X239089Y288439D01*
X239152Y288372D01*
X239212Y288303D01*
X239269Y288231D01*
X239323Y288157D01*
X239373Y288080D01*
X239421Y288001D01*
X239464Y287921D01*
X239505Y287838D01*
X239541Y287754D01*
X239574Y287669D01*
X239603Y287582D01*
X239629Y287493D01*
X239651Y287404D01*
X239668Y287314D01*
X239682Y287224D01*
X239692Y287132D01*
X239698Y287041D01*
X239700Y286949D01*
X238656Y288777D02*
X235784Y290343D01*
X243318Y291648D02*
X243318Y287472D01*
X243317Y291648D02*
X243319Y291749D01*
X243325Y291850D01*
X243335Y291951D01*
X243348Y292051D01*
X243366Y292151D01*
X243387Y292250D01*
X243413Y292348D01*
X243442Y292445D01*
X243474Y292541D01*
X243511Y292635D01*
X243551Y292728D01*
X243595Y292820D01*
X243642Y292909D01*
X243693Y292997D01*
X243747Y293083D01*
X243804Y293166D01*
X243864Y293248D01*
X243928Y293326D01*
X243994Y293403D01*
X244064Y293476D01*
X244136Y293547D01*
X244211Y293615D01*
X244289Y293680D01*
X244369Y293742D01*
X244451Y293801D01*
X244536Y293857D01*
X244623Y293909D01*
X244711Y293958D01*
X244802Y294004D01*
X244894Y294045D01*
X244988Y294084D01*
X245083Y294118D01*
X245179Y294149D01*
X245277Y294176D01*
X245375Y294200D01*
X245475Y294219D01*
X245575Y294235D01*
X245675Y294247D01*
X245776Y294255D01*
X245877Y294259D01*
X245979Y294259D01*
X246080Y294255D01*
X246181Y294247D01*
X246281Y294235D01*
X246381Y294219D01*
X246481Y294200D01*
X246579Y294176D01*
X246677Y294149D01*
X246773Y294118D01*
X246868Y294084D01*
X246962Y294045D01*
X247054Y294004D01*
X247145Y293958D01*
X247234Y293909D01*
X247320Y293857D01*
X247405Y293801D01*
X247487Y293742D01*
X247567Y293680D01*
X247645Y293615D01*
X247720Y293547D01*
X247792Y293476D01*
X247862Y293403D01*
X247928Y293326D01*
X247992Y293248D01*
X248052Y293166D01*
X248109Y293083D01*
X248163Y292997D01*
X248214Y292909D01*
X248261Y292820D01*
X248305Y292728D01*
X248345Y292635D01*
X248382Y292541D01*
X248414Y292445D01*
X248443Y292348D01*
X248469Y292250D01*
X248490Y292151D01*
X248508Y292051D01*
X248521Y291951D01*
X248531Y291850D01*
X248537Y291749D01*
X248539Y291648D01*
X248539Y287472D01*
X248537Y287371D01*
X248531Y287270D01*
X248521Y287169D01*
X248508Y287069D01*
X248490Y286969D01*
X248469Y286870D01*
X248443Y286772D01*
X248414Y286675D01*
X248382Y286579D01*
X248345Y286485D01*
X248305Y286392D01*
X248261Y286300D01*
X248214Y286211D01*
X248163Y286123D01*
X248109Y286037D01*
X248052Y285954D01*
X247992Y285872D01*
X247928Y285794D01*
X247862Y285717D01*
X247792Y285644D01*
X247720Y285573D01*
X247645Y285505D01*
X247567Y285440D01*
X247487Y285378D01*
X247405Y285319D01*
X247320Y285263D01*
X247233Y285211D01*
X247145Y285162D01*
X247054Y285116D01*
X246962Y285075D01*
X246868Y285036D01*
X246773Y285002D01*
X246677Y284971D01*
X246579Y284944D01*
X246481Y284920D01*
X246381Y284901D01*
X246281Y284885D01*
X246181Y284873D01*
X246080Y284865D01*
X245979Y284861D01*
X245877Y284861D01*
X245776Y284865D01*
X245675Y284873D01*
X245575Y284885D01*
X245475Y284901D01*
X245375Y284920D01*
X245277Y284944D01*
X245179Y284971D01*
X245083Y285002D01*
X244988Y285036D01*
X244894Y285075D01*
X244802Y285116D01*
X244711Y285162D01*
X244623Y285211D01*
X244536Y285263D01*
X244451Y285319D01*
X244369Y285378D01*
X244289Y285440D01*
X244211Y285505D01*
X244136Y285573D01*
X244064Y285644D01*
X243994Y285717D01*
X243928Y285794D01*
X243864Y285872D01*
X243804Y285954D01*
X243747Y286037D01*
X243693Y286123D01*
X243642Y286211D01*
X243595Y286300D01*
X243551Y286392D01*
X243511Y286485D01*
X243474Y286579D01*
X243442Y286675D01*
X243413Y286772D01*
X243387Y286870D01*
X243366Y286969D01*
X243348Y287069D01*
X243335Y287169D01*
X243325Y287270D01*
X243319Y287371D01*
X243317Y287472D01*
X221631Y307721D02*
X221720Y307723D01*
X221808Y307729D01*
X221896Y307738D01*
X221984Y307751D01*
X222071Y307768D01*
X222157Y307788D01*
X222242Y307813D01*
X222327Y307840D01*
X222410Y307872D01*
X222491Y307906D01*
X222571Y307945D01*
X222649Y307986D01*
X222726Y308031D01*
X222800Y308079D01*
X222873Y308130D01*
X222943Y308184D01*
X223010Y308242D01*
X223076Y308302D01*
X223138Y308364D01*
X223198Y308430D01*
X223256Y308497D01*
X223310Y308567D01*
X223361Y308640D01*
X223409Y308714D01*
X223454Y308791D01*
X223495Y308869D01*
X223534Y308949D01*
X223568Y309030D01*
X223600Y309113D01*
X223627Y309198D01*
X223652Y309283D01*
X223672Y309369D01*
X223689Y309456D01*
X223702Y309544D01*
X223711Y309632D01*
X223717Y309720D01*
X223719Y309809D01*
X221631Y307721D02*
X221502Y307723D01*
X221373Y307729D01*
X221244Y307738D01*
X221116Y307751D01*
X220988Y307768D01*
X220861Y307789D01*
X220734Y307813D01*
X220608Y307841D01*
X220483Y307873D01*
X220359Y307908D01*
X220236Y307947D01*
X220114Y307990D01*
X219994Y308036D01*
X219875Y308086D01*
X219757Y308139D01*
X219641Y308195D01*
X219527Y308255D01*
X219414Y308318D01*
X219304Y308385D01*
X219195Y308454D01*
X219089Y308527D01*
X218984Y308603D01*
X218882Y308682D01*
X218783Y308764D01*
X218685Y308848D01*
X218590Y308936D01*
X218498Y309026D01*
X218760Y315031D02*
X218762Y315120D01*
X218768Y315208D01*
X218777Y315296D01*
X218790Y315384D01*
X218807Y315471D01*
X218827Y315557D01*
X218852Y315642D01*
X218879Y315727D01*
X218911Y315810D01*
X218945Y315891D01*
X218984Y315971D01*
X219025Y316049D01*
X219070Y316126D01*
X219118Y316200D01*
X219169Y316273D01*
X219223Y316343D01*
X219281Y316410D01*
X219341Y316476D01*
X219403Y316538D01*
X219469Y316598D01*
X219536Y316656D01*
X219606Y316710D01*
X219679Y316761D01*
X219753Y316809D01*
X219830Y316854D01*
X219908Y316895D01*
X219988Y316934D01*
X220069Y316968D01*
X220152Y317000D01*
X220237Y317027D01*
X220322Y317052D01*
X220408Y317072D01*
X220495Y317089D01*
X220583Y317102D01*
X220671Y317111D01*
X220759Y317117D01*
X220848Y317119D01*
X220847Y317119D02*
X220967Y317117D01*
X221087Y317112D01*
X221207Y317102D01*
X221326Y317090D01*
X221445Y317073D01*
X221563Y317053D01*
X221681Y317029D01*
X221797Y317002D01*
X221913Y316971D01*
X222028Y316937D01*
X222142Y316899D01*
X222255Y316857D01*
X222366Y316812D01*
X222476Y316764D01*
X222584Y316713D01*
X222691Y316658D01*
X222796Y316600D01*
X222899Y316538D01*
X223000Y316474D01*
X223100Y316406D01*
X223197Y316336D01*
X219803Y313204D02*
X219725Y313252D01*
X219649Y313304D01*
X219576Y313358D01*
X219505Y313416D01*
X219436Y313477D01*
X219370Y313541D01*
X219307Y313608D01*
X219247Y313677D01*
X219190Y313749D01*
X219136Y313823D01*
X219086Y313900D01*
X219038Y313979D01*
X218995Y314059D01*
X218954Y314142D01*
X218918Y314226D01*
X218885Y314311D01*
X218856Y314398D01*
X218830Y314487D01*
X218808Y314576D01*
X218791Y314666D01*
X218777Y314756D01*
X218767Y314848D01*
X218761Y314939D01*
X218759Y315031D01*
X222675Y311636D02*
X222753Y311588D01*
X222829Y311536D01*
X222902Y311482D01*
X222973Y311424D01*
X223042Y311363D01*
X223108Y311299D01*
X223171Y311232D01*
X223231Y311163D01*
X223288Y311091D01*
X223342Y311017D01*
X223392Y310940D01*
X223440Y310861D01*
X223483Y310781D01*
X223524Y310698D01*
X223560Y310614D01*
X223593Y310529D01*
X223622Y310442D01*
X223648Y310353D01*
X223670Y310264D01*
X223687Y310174D01*
X223701Y310084D01*
X223711Y309992D01*
X223717Y309901D01*
X223719Y309809D01*
X222675Y311637D02*
X219803Y313203D01*
X229400Y307721D02*
X231488Y307721D01*
X229400Y307721D02*
X229311Y307723D01*
X229223Y307729D01*
X229135Y307738D01*
X229047Y307751D01*
X228960Y307768D01*
X228874Y307788D01*
X228789Y307813D01*
X228704Y307840D01*
X228621Y307872D01*
X228540Y307906D01*
X228460Y307945D01*
X228382Y307986D01*
X228305Y308031D01*
X228231Y308079D01*
X228158Y308130D01*
X228088Y308184D01*
X228021Y308242D01*
X227955Y308302D01*
X227893Y308364D01*
X227833Y308430D01*
X227775Y308497D01*
X227721Y308567D01*
X227670Y308640D01*
X227622Y308714D01*
X227577Y308791D01*
X227536Y308869D01*
X227497Y308949D01*
X227463Y309030D01*
X227431Y309113D01*
X227404Y309198D01*
X227379Y309283D01*
X227359Y309369D01*
X227342Y309456D01*
X227329Y309544D01*
X227320Y309632D01*
X227314Y309720D01*
X227312Y309809D01*
X227311Y309809D02*
X227311Y315031D01*
X227312Y315031D02*
X227314Y315122D01*
X227320Y315213D01*
X227330Y315304D01*
X227344Y315394D01*
X227361Y315483D01*
X227383Y315571D01*
X227409Y315659D01*
X227438Y315745D01*
X227471Y315830D01*
X227508Y315913D01*
X227548Y315995D01*
X227592Y316075D01*
X227639Y316153D01*
X227690Y316229D01*
X227743Y316302D01*
X227800Y316373D01*
X227861Y316442D01*
X227924Y316507D01*
X227989Y316570D01*
X228058Y316630D01*
X228129Y316688D01*
X228202Y316741D01*
X228278Y316792D01*
X228356Y316839D01*
X228436Y316883D01*
X228518Y316923D01*
X228601Y316960D01*
X228686Y316993D01*
X228772Y317022D01*
X228860Y317048D01*
X228948Y317070D01*
X229037Y317087D01*
X229127Y317101D01*
X229218Y317111D01*
X229309Y317117D01*
X229400Y317119D01*
X231488Y317119D01*
X235279Y317119D02*
X235279Y307721D01*
X239456Y307721D01*
X243318Y307721D02*
X243318Y317119D01*
X248539Y317119D02*
X243318Y311376D01*
X245406Y313464D02*
X248539Y307721D01*
X218454Y268859D02*
X218454Y259461D01*
X221587Y263638D02*
X218454Y268859D01*
X221587Y263638D02*
X224720Y268859D01*
X224720Y259461D01*
X229035Y262072D02*
X229035Y266248D01*
X229034Y266248D02*
X229036Y266349D01*
X229042Y266450D01*
X229052Y266551D01*
X229065Y266651D01*
X229083Y266751D01*
X229104Y266850D01*
X229130Y266948D01*
X229159Y267045D01*
X229191Y267141D01*
X229228Y267235D01*
X229268Y267328D01*
X229312Y267420D01*
X229359Y267509D01*
X229410Y267597D01*
X229464Y267683D01*
X229521Y267766D01*
X229581Y267848D01*
X229645Y267926D01*
X229711Y268003D01*
X229781Y268076D01*
X229853Y268147D01*
X229928Y268215D01*
X230006Y268280D01*
X230086Y268342D01*
X230168Y268401D01*
X230253Y268457D01*
X230340Y268509D01*
X230428Y268558D01*
X230519Y268604D01*
X230611Y268645D01*
X230705Y268684D01*
X230800Y268718D01*
X230896Y268749D01*
X230994Y268776D01*
X231092Y268800D01*
X231192Y268819D01*
X231292Y268835D01*
X231392Y268847D01*
X231493Y268855D01*
X231594Y268859D01*
X231696Y268859D01*
X231797Y268855D01*
X231898Y268847D01*
X231998Y268835D01*
X232098Y268819D01*
X232198Y268800D01*
X232296Y268776D01*
X232394Y268749D01*
X232490Y268718D01*
X232585Y268684D01*
X232679Y268645D01*
X232771Y268604D01*
X232862Y268558D01*
X232951Y268509D01*
X233037Y268457D01*
X233122Y268401D01*
X233204Y268342D01*
X233284Y268280D01*
X233362Y268215D01*
X233437Y268147D01*
X233509Y268076D01*
X233579Y268003D01*
X233645Y267926D01*
X233709Y267848D01*
X233769Y267766D01*
X233826Y267683D01*
X233880Y267597D01*
X233931Y267509D01*
X233978Y267420D01*
X234022Y267328D01*
X234062Y267235D01*
X234099Y267141D01*
X234131Y267045D01*
X234160Y266948D01*
X234186Y266850D01*
X234207Y266751D01*
X234225Y266651D01*
X234238Y266551D01*
X234248Y266450D01*
X234254Y266349D01*
X234256Y266248D01*
X234256Y262072D01*
X234254Y261971D01*
X234248Y261870D01*
X234238Y261769D01*
X234225Y261669D01*
X234207Y261569D01*
X234186Y261470D01*
X234160Y261372D01*
X234131Y261275D01*
X234099Y261179D01*
X234062Y261085D01*
X234022Y260992D01*
X233978Y260900D01*
X233931Y260811D01*
X233880Y260723D01*
X233826Y260637D01*
X233769Y260554D01*
X233709Y260472D01*
X233645Y260394D01*
X233579Y260317D01*
X233509Y260244D01*
X233437Y260173D01*
X233362Y260105D01*
X233284Y260040D01*
X233204Y259978D01*
X233122Y259919D01*
X233037Y259863D01*
X232950Y259811D01*
X232862Y259762D01*
X232771Y259716D01*
X232679Y259675D01*
X232585Y259636D01*
X232490Y259602D01*
X232394Y259571D01*
X232296Y259544D01*
X232198Y259520D01*
X232098Y259501D01*
X231998Y259485D01*
X231898Y259473D01*
X231797Y259465D01*
X231696Y259461D01*
X231594Y259461D01*
X231493Y259465D01*
X231392Y259473D01*
X231292Y259485D01*
X231192Y259501D01*
X231092Y259520D01*
X230994Y259544D01*
X230896Y259571D01*
X230800Y259602D01*
X230705Y259636D01*
X230611Y259675D01*
X230519Y259716D01*
X230428Y259762D01*
X230340Y259811D01*
X230253Y259863D01*
X230168Y259919D01*
X230086Y259978D01*
X230006Y260040D01*
X229928Y260105D01*
X229853Y260173D01*
X229781Y260244D01*
X229711Y260317D01*
X229645Y260394D01*
X229581Y260472D01*
X229521Y260554D01*
X229464Y260637D01*
X229410Y260723D01*
X229359Y260811D01*
X229312Y260900D01*
X229268Y260992D01*
X229228Y261085D01*
X229191Y261179D01*
X229159Y261275D01*
X229130Y261372D01*
X229104Y261470D01*
X229083Y261569D01*
X229065Y261669D01*
X229052Y261769D01*
X229042Y261870D01*
X229036Y261971D01*
X229034Y262072D01*
X241007Y259461D02*
X241096Y259463D01*
X241184Y259469D01*
X241272Y259478D01*
X241360Y259491D01*
X241447Y259508D01*
X241533Y259528D01*
X241618Y259553D01*
X241703Y259580D01*
X241786Y259612D01*
X241867Y259646D01*
X241947Y259685D01*
X242025Y259726D01*
X242102Y259771D01*
X242176Y259819D01*
X242249Y259870D01*
X242319Y259924D01*
X242386Y259982D01*
X242452Y260042D01*
X242514Y260104D01*
X242574Y260170D01*
X242632Y260237D01*
X242686Y260307D01*
X242737Y260380D01*
X242785Y260454D01*
X242830Y260531D01*
X242871Y260609D01*
X242910Y260689D01*
X242944Y260770D01*
X242976Y260853D01*
X243003Y260938D01*
X243028Y261023D01*
X243048Y261109D01*
X243065Y261196D01*
X243078Y261284D01*
X243087Y261372D01*
X243093Y261460D01*
X243095Y261549D01*
X241007Y259461D02*
X240878Y259463D01*
X240749Y259469D01*
X240620Y259478D01*
X240492Y259491D01*
X240364Y259508D01*
X240237Y259529D01*
X240110Y259553D01*
X239984Y259581D01*
X239859Y259613D01*
X239735Y259648D01*
X239612Y259687D01*
X239490Y259730D01*
X239370Y259776D01*
X239251Y259826D01*
X239133Y259879D01*
X239017Y259935D01*
X238903Y259995D01*
X238790Y260058D01*
X238680Y260125D01*
X238571Y260194D01*
X238465Y260267D01*
X238360Y260343D01*
X238258Y260422D01*
X238159Y260504D01*
X238061Y260588D01*
X237966Y260676D01*
X237874Y260766D01*
X238135Y266771D02*
X238137Y266860D01*
X238143Y266948D01*
X238152Y267036D01*
X238165Y267124D01*
X238182Y267211D01*
X238202Y267297D01*
X238227Y267382D01*
X238254Y267467D01*
X238286Y267550D01*
X238320Y267631D01*
X238359Y267711D01*
X238400Y267789D01*
X238445Y267866D01*
X238493Y267940D01*
X238544Y268013D01*
X238598Y268083D01*
X238656Y268150D01*
X238716Y268216D01*
X238778Y268278D01*
X238844Y268338D01*
X238911Y268396D01*
X238981Y268450D01*
X239054Y268501D01*
X239128Y268549D01*
X239205Y268594D01*
X239283Y268635D01*
X239363Y268674D01*
X239444Y268708D01*
X239527Y268740D01*
X239612Y268767D01*
X239697Y268792D01*
X239783Y268812D01*
X239870Y268829D01*
X239958Y268842D01*
X240046Y268851D01*
X240134Y268857D01*
X240223Y268859D01*
X240343Y268857D01*
X240463Y268852D01*
X240583Y268842D01*
X240702Y268830D01*
X240821Y268813D01*
X240939Y268793D01*
X241057Y268769D01*
X241173Y268742D01*
X241289Y268711D01*
X241404Y268677D01*
X241518Y268639D01*
X241631Y268597D01*
X241742Y268552D01*
X241852Y268504D01*
X241960Y268453D01*
X242067Y268398D01*
X242172Y268340D01*
X242275Y268278D01*
X242376Y268214D01*
X242476Y268146D01*
X242573Y268076D01*
X239179Y264944D02*
X239101Y264992D01*
X239025Y265044D01*
X238952Y265098D01*
X238881Y265156D01*
X238812Y265217D01*
X238746Y265281D01*
X238683Y265348D01*
X238623Y265417D01*
X238566Y265489D01*
X238512Y265563D01*
X238462Y265640D01*
X238414Y265719D01*
X238371Y265799D01*
X238330Y265882D01*
X238294Y265966D01*
X238261Y266051D01*
X238232Y266138D01*
X238206Y266227D01*
X238184Y266316D01*
X238167Y266406D01*
X238153Y266496D01*
X238143Y266588D01*
X238137Y266679D01*
X238135Y266771D01*
X242051Y263376D02*
X242129Y263328D01*
X242205Y263276D01*
X242278Y263222D01*
X242349Y263164D01*
X242418Y263103D01*
X242484Y263039D01*
X242547Y262972D01*
X242607Y262903D01*
X242664Y262831D01*
X242718Y262757D01*
X242768Y262680D01*
X242816Y262601D01*
X242859Y262521D01*
X242900Y262438D01*
X242936Y262354D01*
X242969Y262269D01*
X242998Y262182D01*
X243024Y262093D01*
X243046Y262004D01*
X243063Y261914D01*
X243077Y261824D01*
X243087Y261732D01*
X243093Y261641D01*
X243095Y261549D01*
X242051Y263377D02*
X239179Y264943D01*
X247495Y268859D02*
X247495Y259461D01*
X246451Y259461D02*
X248539Y259461D01*
X248539Y268859D02*
X246451Y268859D01*
X68058Y597281D02*
X63881Y597281D01*
X63881Y606679D01*
X68058Y606679D01*
X67014Y602502D02*
X63881Y602502D01*
X70961Y597281D02*
X77227Y606679D01*
X70961Y606679D02*
X77227Y597281D01*
X80715Y600936D02*
X86980Y600936D01*
X91772Y597281D02*
X91772Y606679D01*
X90728Y597281D02*
X92817Y597281D01*
X92817Y606679D02*
X90728Y606679D01*
X96782Y606679D02*
X96782Y597281D01*
X102003Y597281D02*
X96782Y606679D01*
X102003Y606679D02*
X102003Y597281D01*
X105838Y596237D02*
X110015Y596237D01*
X113546Y604591D02*
X116156Y606679D01*
X116156Y597281D01*
X113546Y597281D02*
X118767Y597281D01*
X88378Y389001D02*
X84201Y389001D01*
X84201Y398399D01*
X88378Y398399D01*
X87334Y394222D02*
X84201Y394222D01*
X91281Y389001D02*
X97547Y398399D01*
X91281Y398399D02*
X97547Y389001D01*
X101035Y392656D02*
X107300Y392656D01*
X112092Y389001D02*
X112092Y398399D01*
X111048Y389001D02*
X113137Y389001D01*
X113137Y398399D02*
X111048Y398399D01*
X117102Y398399D02*
X117102Y389001D01*
X122323Y389001D02*
X117102Y398399D01*
X122323Y398399D02*
X122323Y389001D01*
X126158Y387957D02*
X130335Y387957D01*
X139087Y396050D02*
X139085Y396145D01*
X139079Y396239D01*
X139070Y396333D01*
X139057Y396427D01*
X139040Y396520D01*
X139019Y396612D01*
X138994Y396704D01*
X138966Y396794D01*
X138934Y396883D01*
X138899Y396971D01*
X138860Y397057D01*
X138818Y397142D01*
X138772Y397225D01*
X138723Y397306D01*
X138671Y397385D01*
X138616Y397462D01*
X138557Y397536D01*
X138496Y397608D01*
X138432Y397678D01*
X138365Y397745D01*
X138295Y397809D01*
X138223Y397870D01*
X138149Y397929D01*
X138072Y397984D01*
X137993Y398036D01*
X137912Y398085D01*
X137829Y398131D01*
X137744Y398173D01*
X137658Y398212D01*
X137570Y398247D01*
X137481Y398279D01*
X137391Y398307D01*
X137299Y398332D01*
X137207Y398353D01*
X137114Y398370D01*
X137020Y398383D01*
X136926Y398392D01*
X136832Y398398D01*
X136737Y398400D01*
X136737Y398399D02*
X136629Y398397D01*
X136520Y398391D01*
X136412Y398381D01*
X136305Y398368D01*
X136198Y398350D01*
X136091Y398329D01*
X135986Y398304D01*
X135881Y398275D01*
X135778Y398243D01*
X135676Y398206D01*
X135575Y398166D01*
X135476Y398123D01*
X135378Y398076D01*
X135282Y398025D01*
X135188Y397971D01*
X135096Y397914D01*
X135006Y397853D01*
X134918Y397789D01*
X134833Y397723D01*
X134750Y397653D01*
X134670Y397580D01*
X134592Y397504D01*
X134517Y397426D01*
X134445Y397345D01*
X134376Y397261D01*
X134310Y397175D01*
X134247Y397087D01*
X134188Y396996D01*
X134131Y396904D01*
X134078Y396809D01*
X134029Y396713D01*
X133983Y396614D01*
X133940Y396515D01*
X133901Y396413D01*
X133866Y396311D01*
X138304Y394222D02*
X138373Y394291D01*
X138439Y394362D01*
X138503Y394435D01*
X138564Y394511D01*
X138622Y394590D01*
X138676Y394670D01*
X138728Y394753D01*
X138776Y394837D01*
X138822Y394923D01*
X138863Y395011D01*
X138902Y395101D01*
X138937Y395192D01*
X138968Y395284D01*
X138996Y395377D01*
X139020Y395471D01*
X139040Y395566D01*
X139057Y395662D01*
X139070Y395759D01*
X139079Y395856D01*
X139085Y395953D01*
X139087Y396050D01*
X138304Y394222D02*
X133866Y389001D01*
X139087Y389001D01*
X83298Y168021D02*
X79121Y168021D01*
X79121Y177419D01*
X83298Y177419D01*
X82254Y173242D02*
X79121Y173242D01*
X86201Y168021D02*
X92467Y177419D01*
X86201Y177419D02*
X92467Y168021D01*
X95955Y171676D02*
X102220Y171676D01*
X107012Y168021D02*
X107012Y177419D01*
X105968Y168021D02*
X108057Y168021D01*
X108057Y177419D02*
X105968Y177419D01*
X112022Y177419D02*
X112022Y168021D01*
X117243Y168021D02*
X112022Y177419D01*
X117243Y177419D02*
X117243Y168021D01*
X121078Y166977D02*
X125255Y166977D01*
X128786Y168021D02*
X131396Y168021D01*
X131497Y168023D01*
X131598Y168029D01*
X131699Y168039D01*
X131799Y168052D01*
X131899Y168070D01*
X131998Y168091D01*
X132096Y168117D01*
X132193Y168146D01*
X132289Y168178D01*
X132383Y168215D01*
X132476Y168255D01*
X132568Y168299D01*
X132657Y168346D01*
X132745Y168397D01*
X132831Y168451D01*
X132914Y168508D01*
X132996Y168568D01*
X133074Y168632D01*
X133151Y168698D01*
X133224Y168768D01*
X133295Y168840D01*
X133363Y168915D01*
X133428Y168993D01*
X133490Y169073D01*
X133549Y169155D01*
X133605Y169240D01*
X133657Y169326D01*
X133706Y169415D01*
X133752Y169506D01*
X133793Y169598D01*
X133832Y169692D01*
X133866Y169787D01*
X133897Y169883D01*
X133924Y169981D01*
X133948Y170079D01*
X133967Y170179D01*
X133983Y170279D01*
X133995Y170379D01*
X134003Y170480D01*
X134007Y170581D01*
X134007Y170683D01*
X134003Y170784D01*
X133995Y170885D01*
X133983Y170985D01*
X133967Y171085D01*
X133948Y171185D01*
X133924Y171283D01*
X133897Y171381D01*
X133866Y171477D01*
X133832Y171572D01*
X133793Y171666D01*
X133752Y171758D01*
X133706Y171849D01*
X133657Y171937D01*
X133605Y172024D01*
X133549Y172109D01*
X133490Y172191D01*
X133428Y172271D01*
X133363Y172349D01*
X133295Y172424D01*
X133224Y172496D01*
X133151Y172566D01*
X133074Y172632D01*
X132996Y172696D01*
X132914Y172756D01*
X132831Y172813D01*
X132745Y172867D01*
X132657Y172918D01*
X132568Y172965D01*
X132476Y173009D01*
X132383Y173049D01*
X132289Y173086D01*
X132193Y173118D01*
X132096Y173147D01*
X131998Y173173D01*
X131899Y173194D01*
X131799Y173212D01*
X131699Y173225D01*
X131598Y173235D01*
X131497Y173241D01*
X131396Y173243D01*
X131918Y177419D02*
X128786Y177419D01*
X131918Y177419D02*
X132008Y177417D01*
X132097Y177411D01*
X132187Y177402D01*
X132276Y177388D01*
X132364Y177371D01*
X132451Y177350D01*
X132538Y177325D01*
X132623Y177296D01*
X132707Y177264D01*
X132789Y177229D01*
X132870Y177189D01*
X132949Y177147D01*
X133026Y177101D01*
X133101Y177051D01*
X133174Y176999D01*
X133245Y176943D01*
X133313Y176885D01*
X133378Y176823D01*
X133441Y176759D01*
X133501Y176692D01*
X133558Y176623D01*
X133612Y176551D01*
X133663Y176477D01*
X133711Y176401D01*
X133755Y176323D01*
X133796Y176243D01*
X133834Y176161D01*
X133868Y176078D01*
X133898Y175993D01*
X133925Y175907D01*
X133948Y175821D01*
X133967Y175733D01*
X133982Y175644D01*
X133994Y175555D01*
X134002Y175466D01*
X134006Y175376D01*
X134006Y175286D01*
X134002Y175196D01*
X133994Y175107D01*
X133982Y175018D01*
X133967Y174929D01*
X133948Y174841D01*
X133925Y174755D01*
X133898Y174669D01*
X133868Y174584D01*
X133834Y174501D01*
X133796Y174419D01*
X133755Y174339D01*
X133711Y174261D01*
X133663Y174185D01*
X133612Y174111D01*
X133558Y174039D01*
X133501Y173970D01*
X133441Y173903D01*
X133378Y173839D01*
X133313Y173777D01*
X133245Y173719D01*
X133174Y173663D01*
X133101Y173611D01*
X133026Y173561D01*
X132949Y173515D01*
X132870Y173473D01*
X132789Y173433D01*
X132707Y173398D01*
X132623Y173366D01*
X132538Y173337D01*
X132451Y173312D01*
X132364Y173291D01*
X132276Y173274D01*
X132187Y173260D01*
X132097Y173251D01*
X132008Y173245D01*
X131918Y173243D01*
X131918Y173242D02*
X129830Y173242D01*
X78857Y851281D02*
X78857Y860679D01*
X81468Y860679D01*
X81569Y860677D01*
X81670Y860671D01*
X81771Y860661D01*
X81871Y860648D01*
X81971Y860630D01*
X82070Y860609D01*
X82168Y860583D01*
X82265Y860554D01*
X82361Y860522D01*
X82455Y860485D01*
X82548Y860445D01*
X82640Y860401D01*
X82729Y860354D01*
X82817Y860303D01*
X82903Y860249D01*
X82986Y860192D01*
X83068Y860132D01*
X83146Y860068D01*
X83223Y860002D01*
X83296Y859932D01*
X83367Y859860D01*
X83435Y859785D01*
X83500Y859707D01*
X83562Y859627D01*
X83621Y859545D01*
X83677Y859460D01*
X83729Y859374D01*
X83778Y859285D01*
X83824Y859194D01*
X83865Y859102D01*
X83904Y859008D01*
X83938Y858913D01*
X83969Y858817D01*
X83996Y858719D01*
X84020Y858621D01*
X84039Y858521D01*
X84055Y858421D01*
X84067Y858321D01*
X84075Y858220D01*
X84079Y858119D01*
X84079Y858017D01*
X84075Y857916D01*
X84067Y857815D01*
X84055Y857715D01*
X84039Y857615D01*
X84020Y857515D01*
X83996Y857417D01*
X83969Y857319D01*
X83938Y857223D01*
X83904Y857128D01*
X83865Y857034D01*
X83824Y856942D01*
X83778Y856851D01*
X83729Y856763D01*
X83677Y856676D01*
X83621Y856591D01*
X83562Y856509D01*
X83500Y856429D01*
X83435Y856351D01*
X83367Y856276D01*
X83296Y856204D01*
X83223Y856134D01*
X83146Y856068D01*
X83068Y856004D01*
X82986Y855944D01*
X82903Y855887D01*
X82817Y855833D01*
X82729Y855782D01*
X82640Y855735D01*
X82548Y855691D01*
X82455Y855651D01*
X82361Y855614D01*
X82265Y855582D01*
X82168Y855553D01*
X82070Y855527D01*
X81971Y855506D01*
X81871Y855488D01*
X81771Y855475D01*
X81670Y855465D01*
X81569Y855459D01*
X81468Y855457D01*
X81468Y855458D02*
X78857Y855458D01*
X89566Y851281D02*
X89566Y860679D01*
X86956Y860679D02*
X92177Y860679D01*
X95490Y858591D02*
X98101Y860679D01*
X98101Y851281D01*
X100711Y851281D02*
X95490Y851281D01*
X104634Y855980D02*
X104636Y856165D01*
X104643Y856350D01*
X104654Y856534D01*
X104669Y856718D01*
X104689Y856902D01*
X104713Y857086D01*
X104742Y857268D01*
X104775Y857450D01*
X104812Y857631D01*
X104854Y857811D01*
X104900Y857991D01*
X104950Y858169D01*
X105004Y858345D01*
X105063Y858521D01*
X105125Y858695D01*
X105192Y858867D01*
X105263Y859038D01*
X105338Y859207D01*
X105417Y859374D01*
X105416Y859374D02*
X105446Y859454D01*
X105479Y859533D01*
X105516Y859610D01*
X105556Y859686D01*
X105599Y859760D01*
X105645Y859832D01*
X105695Y859901D01*
X105747Y859969D01*
X105803Y860034D01*
X105861Y860097D01*
X105923Y860156D01*
X105986Y860214D01*
X106053Y860268D01*
X106121Y860319D01*
X106192Y860367D01*
X106265Y860412D01*
X106339Y860454D01*
X106416Y860492D01*
X106494Y860527D01*
X106573Y860559D01*
X106654Y860587D01*
X106736Y860611D01*
X106820Y860632D01*
X106903Y860649D01*
X106988Y860662D01*
X107073Y860671D01*
X107158Y860677D01*
X107244Y860679D01*
X107330Y860677D01*
X107415Y860671D01*
X107500Y860662D01*
X107585Y860649D01*
X107668Y860632D01*
X107752Y860611D01*
X107834Y860587D01*
X107915Y860559D01*
X107994Y860527D01*
X108072Y860492D01*
X108149Y860454D01*
X108223Y860412D01*
X108296Y860367D01*
X108367Y860319D01*
X108435Y860268D01*
X108502Y860214D01*
X108565Y860156D01*
X108627Y860097D01*
X108685Y860034D01*
X108741Y859969D01*
X108793Y859901D01*
X108843Y859832D01*
X108889Y859760D01*
X108932Y859686D01*
X108972Y859610D01*
X109009Y859533D01*
X109042Y859454D01*
X109072Y859374D01*
X109151Y859207D01*
X109226Y859038D01*
X109297Y858867D01*
X109364Y858695D01*
X109426Y858521D01*
X109485Y858345D01*
X109539Y858169D01*
X109589Y857991D01*
X109635Y857811D01*
X109677Y857631D01*
X109714Y857450D01*
X109747Y857268D01*
X109776Y857086D01*
X109800Y856902D01*
X109820Y856718D01*
X109835Y856534D01*
X109846Y856350D01*
X109853Y856165D01*
X109855Y855980D01*
X104634Y855980D02*
X104636Y855795D01*
X104643Y855610D01*
X104654Y855426D01*
X104669Y855242D01*
X104689Y855058D01*
X104713Y854874D01*
X104742Y854692D01*
X104775Y854510D01*
X104812Y854329D01*
X104854Y854149D01*
X104900Y853969D01*
X104950Y853791D01*
X105004Y853615D01*
X105063Y853439D01*
X105125Y853265D01*
X105192Y853093D01*
X105263Y852922D01*
X105338Y852753D01*
X105417Y852586D01*
X105416Y852586D02*
X105446Y852506D01*
X105479Y852427D01*
X105516Y852350D01*
X105556Y852274D01*
X105599Y852200D01*
X105645Y852128D01*
X105695Y852059D01*
X105748Y851991D01*
X105803Y851926D01*
X105862Y851863D01*
X105923Y851804D01*
X105986Y851746D01*
X106053Y851692D01*
X106121Y851641D01*
X106192Y851593D01*
X106265Y851548D01*
X106339Y851506D01*
X106416Y851468D01*
X106494Y851433D01*
X106573Y851401D01*
X106654Y851373D01*
X106736Y851349D01*
X106820Y851328D01*
X106903Y851311D01*
X106988Y851298D01*
X107073Y851289D01*
X107158Y851283D01*
X107244Y851281D01*
X109072Y852586D02*
X109151Y852753D01*
X109226Y852922D01*
X109297Y853093D01*
X109364Y853265D01*
X109426Y853439D01*
X109485Y853615D01*
X109539Y853791D01*
X109589Y853969D01*
X109635Y854149D01*
X109677Y854329D01*
X109714Y854510D01*
X109747Y854692D01*
X109776Y854874D01*
X109800Y855058D01*
X109820Y855242D01*
X109835Y855426D01*
X109846Y855610D01*
X109853Y855795D01*
X109855Y855980D01*
X109072Y852586D02*
X109042Y852506D01*
X109009Y852427D01*
X108972Y852350D01*
X108932Y852274D01*
X108889Y852200D01*
X108843Y852128D01*
X108793Y852059D01*
X108741Y851991D01*
X108685Y851926D01*
X108627Y851863D01*
X108565Y851804D01*
X108502Y851746D01*
X108435Y851692D01*
X108367Y851641D01*
X108296Y851593D01*
X108223Y851548D01*
X108149Y851506D01*
X108072Y851468D01*
X107994Y851433D01*
X107915Y851401D01*
X107834Y851373D01*
X107752Y851349D01*
X107668Y851328D01*
X107585Y851311D01*
X107500Y851298D01*
X107415Y851289D01*
X107330Y851283D01*
X107244Y851281D01*
X105156Y853369D02*
X109333Y858591D01*
X113778Y855980D02*
X113780Y856165D01*
X113787Y856350D01*
X113798Y856534D01*
X113813Y856718D01*
X113833Y856902D01*
X113857Y857086D01*
X113886Y857268D01*
X113919Y857450D01*
X113956Y857631D01*
X113998Y857811D01*
X114044Y857991D01*
X114094Y858169D01*
X114148Y858345D01*
X114207Y858521D01*
X114269Y858695D01*
X114336Y858867D01*
X114407Y859038D01*
X114482Y859207D01*
X114561Y859374D01*
X114560Y859374D02*
X114590Y859454D01*
X114623Y859533D01*
X114660Y859610D01*
X114700Y859686D01*
X114743Y859760D01*
X114789Y859832D01*
X114839Y859901D01*
X114891Y859969D01*
X114947Y860034D01*
X115005Y860097D01*
X115067Y860156D01*
X115130Y860214D01*
X115197Y860268D01*
X115265Y860319D01*
X115336Y860367D01*
X115409Y860412D01*
X115483Y860454D01*
X115560Y860492D01*
X115638Y860527D01*
X115717Y860559D01*
X115798Y860587D01*
X115880Y860611D01*
X115964Y860632D01*
X116047Y860649D01*
X116132Y860662D01*
X116217Y860671D01*
X116302Y860677D01*
X116388Y860679D01*
X116474Y860677D01*
X116559Y860671D01*
X116644Y860662D01*
X116729Y860649D01*
X116812Y860632D01*
X116896Y860611D01*
X116978Y860587D01*
X117059Y860559D01*
X117138Y860527D01*
X117216Y860492D01*
X117293Y860454D01*
X117367Y860412D01*
X117440Y860367D01*
X117511Y860319D01*
X117579Y860268D01*
X117646Y860214D01*
X117709Y860156D01*
X117771Y860097D01*
X117829Y860034D01*
X117885Y859969D01*
X117937Y859901D01*
X117987Y859832D01*
X118033Y859760D01*
X118076Y859686D01*
X118116Y859610D01*
X118153Y859533D01*
X118186Y859454D01*
X118216Y859374D01*
X118295Y859207D01*
X118370Y859038D01*
X118441Y858867D01*
X118508Y858695D01*
X118570Y858521D01*
X118629Y858345D01*
X118683Y858169D01*
X118733Y857991D01*
X118779Y857811D01*
X118821Y857631D01*
X118858Y857450D01*
X118891Y857268D01*
X118920Y857086D01*
X118944Y856902D01*
X118964Y856718D01*
X118979Y856534D01*
X118990Y856350D01*
X118997Y856165D01*
X118999Y855980D01*
X113778Y855980D02*
X113780Y855795D01*
X113787Y855610D01*
X113798Y855426D01*
X113813Y855242D01*
X113833Y855058D01*
X113857Y854874D01*
X113886Y854692D01*
X113919Y854510D01*
X113956Y854329D01*
X113998Y854149D01*
X114044Y853969D01*
X114094Y853791D01*
X114148Y853615D01*
X114207Y853439D01*
X114269Y853265D01*
X114336Y853093D01*
X114407Y852922D01*
X114482Y852753D01*
X114561Y852586D01*
X114560Y852586D02*
X114590Y852506D01*
X114623Y852427D01*
X114660Y852350D01*
X114700Y852274D01*
X114743Y852200D01*
X114789Y852128D01*
X114839Y852059D01*
X114892Y851991D01*
X114947Y851926D01*
X115006Y851863D01*
X115067Y851804D01*
X115130Y851746D01*
X115197Y851692D01*
X115265Y851641D01*
X115336Y851593D01*
X115409Y851548D01*
X115483Y851506D01*
X115560Y851468D01*
X115638Y851433D01*
X115717Y851401D01*
X115798Y851373D01*
X115880Y851349D01*
X115964Y851328D01*
X116047Y851311D01*
X116132Y851298D01*
X116217Y851289D01*
X116302Y851283D01*
X116388Y851281D01*
X118216Y852586D02*
X118295Y852753D01*
X118370Y852922D01*
X118441Y853093D01*
X118508Y853265D01*
X118570Y853439D01*
X118629Y853615D01*
X118683Y853791D01*
X118733Y853969D01*
X118779Y854149D01*
X118821Y854329D01*
X118858Y854510D01*
X118891Y854692D01*
X118920Y854874D01*
X118944Y855058D01*
X118964Y855242D01*
X118979Y855426D01*
X118990Y855610D01*
X118997Y855795D01*
X118999Y855980D01*
X118216Y852586D02*
X118186Y852506D01*
X118153Y852427D01*
X118116Y852350D01*
X118076Y852274D01*
X118033Y852200D01*
X117987Y852128D01*
X117937Y852059D01*
X117885Y851991D01*
X117829Y851926D01*
X117771Y851863D01*
X117709Y851804D01*
X117646Y851746D01*
X117579Y851692D01*
X117511Y851641D01*
X117440Y851593D01*
X117367Y851548D01*
X117293Y851506D01*
X117216Y851468D01*
X117138Y851433D01*
X117059Y851401D01*
X116978Y851373D01*
X116896Y851349D01*
X116812Y851328D01*
X116729Y851311D01*
X116644Y851298D01*
X116559Y851289D01*
X116474Y851283D01*
X116388Y851281D01*
X114300Y853369D02*
X118477Y858591D01*
X330581Y856051D02*
X333192Y858139D01*
X333192Y848741D01*
X335802Y848741D02*
X330581Y848741D01*
X223952Y152922D02*
X222385Y152922D01*
X223952Y152922D02*
X223952Y147701D01*
X220819Y147701D01*
X220730Y147703D01*
X220642Y147709D01*
X220554Y147718D01*
X220466Y147731D01*
X220379Y147748D01*
X220293Y147768D01*
X220208Y147793D01*
X220123Y147820D01*
X220040Y147852D01*
X219959Y147886D01*
X219879Y147925D01*
X219801Y147966D01*
X219724Y148011D01*
X219650Y148059D01*
X219577Y148110D01*
X219507Y148164D01*
X219440Y148222D01*
X219374Y148282D01*
X219312Y148344D01*
X219252Y148410D01*
X219194Y148477D01*
X219140Y148547D01*
X219089Y148620D01*
X219041Y148694D01*
X218996Y148771D01*
X218955Y148849D01*
X218916Y148929D01*
X218882Y149010D01*
X218850Y149093D01*
X218823Y149178D01*
X218798Y149263D01*
X218778Y149349D01*
X218761Y149436D01*
X218748Y149524D01*
X218739Y149612D01*
X218733Y149700D01*
X218731Y149789D01*
X218731Y155011D01*
X218733Y155102D01*
X218739Y155193D01*
X218749Y155284D01*
X218763Y155374D01*
X218780Y155463D01*
X218802Y155551D01*
X218828Y155639D01*
X218857Y155725D01*
X218890Y155810D01*
X218927Y155893D01*
X218967Y155975D01*
X219011Y156055D01*
X219058Y156133D01*
X219109Y156209D01*
X219162Y156282D01*
X219219Y156353D01*
X219280Y156422D01*
X219343Y156487D01*
X219408Y156550D01*
X219477Y156610D01*
X219548Y156668D01*
X219621Y156721D01*
X219697Y156772D01*
X219775Y156819D01*
X219855Y156863D01*
X219937Y156903D01*
X220020Y156940D01*
X220105Y156973D01*
X220191Y157002D01*
X220279Y157028D01*
X220367Y157050D01*
X220456Y157067D01*
X220546Y157081D01*
X220637Y157091D01*
X220728Y157097D01*
X220819Y157099D01*
X223952Y157099D01*
X228484Y157099D02*
X228484Y147701D01*
X233705Y147701D02*
X228484Y157099D01*
X233705Y157099D02*
X233705Y147701D01*
X238238Y147701D02*
X238238Y157099D01*
X240848Y157099D01*
X240948Y157097D01*
X241048Y157091D01*
X241147Y157082D01*
X241247Y157068D01*
X241345Y157051D01*
X241443Y157030D01*
X241540Y157006D01*
X241636Y156977D01*
X241731Y156945D01*
X241824Y156910D01*
X241916Y156871D01*
X242007Y156828D01*
X242095Y156782D01*
X242182Y156732D01*
X242267Y156680D01*
X242350Y156624D01*
X242431Y156565D01*
X242509Y156502D01*
X242585Y156437D01*
X242659Y156369D01*
X242729Y156299D01*
X242797Y156225D01*
X242862Y156149D01*
X242925Y156071D01*
X242984Y155990D01*
X243040Y155907D01*
X243092Y155822D01*
X243142Y155735D01*
X243188Y155647D01*
X243231Y155556D01*
X243270Y155464D01*
X243305Y155371D01*
X243337Y155276D01*
X243366Y155180D01*
X243390Y155083D01*
X243411Y154985D01*
X243428Y154887D01*
X243442Y154787D01*
X243451Y154688D01*
X243457Y154588D01*
X243459Y154488D01*
X243459Y150312D01*
X243457Y150212D01*
X243451Y150112D01*
X243442Y150013D01*
X243428Y149913D01*
X243411Y149815D01*
X243390Y149717D01*
X243366Y149620D01*
X243337Y149524D01*
X243305Y149429D01*
X243270Y149336D01*
X243231Y149244D01*
X243188Y149153D01*
X243142Y149065D01*
X243092Y148978D01*
X243040Y148893D01*
X242984Y148810D01*
X242925Y148729D01*
X242862Y148651D01*
X242797Y148575D01*
X242729Y148501D01*
X242659Y148431D01*
X242585Y148363D01*
X242509Y148298D01*
X242431Y148235D01*
X242350Y148176D01*
X242267Y148120D01*
X242182Y148068D01*
X242095Y148018D01*
X242007Y147972D01*
X241916Y147929D01*
X241824Y147890D01*
X241731Y147855D01*
X241636Y147823D01*
X241540Y147794D01*
X241443Y147770D01*
X241345Y147749D01*
X241247Y147732D01*
X241147Y147718D01*
X241048Y147709D01*
X240948Y147703D01*
X240848Y147701D01*
X238238Y147701D01*
D11*
X169640Y582620D02*
X165640Y582620D01*
X165640Y575620D02*
X169640Y575620D01*
D12*
X166390Y581995D03*
D10*
X152941Y584421D02*
X152941Y593819D01*
X152941Y584421D02*
X157118Y584421D01*
X160866Y584421D02*
X165043Y584421D01*
X160866Y584421D02*
X160866Y593819D01*
X165043Y593819D01*
X163998Y589642D02*
X160866Y589642D01*
X168773Y593819D02*
X168773Y584421D01*
X168773Y593819D02*
X171384Y593819D01*
X171484Y593817D01*
X171584Y593811D01*
X171683Y593802D01*
X171783Y593788D01*
X171881Y593771D01*
X171979Y593750D01*
X172076Y593726D01*
X172172Y593697D01*
X172267Y593665D01*
X172360Y593630D01*
X172452Y593591D01*
X172543Y593548D01*
X172631Y593502D01*
X172718Y593452D01*
X172803Y593400D01*
X172886Y593344D01*
X172967Y593285D01*
X173045Y593222D01*
X173121Y593157D01*
X173195Y593089D01*
X173265Y593019D01*
X173333Y592945D01*
X173398Y592869D01*
X173461Y592791D01*
X173520Y592710D01*
X173576Y592627D01*
X173628Y592542D01*
X173678Y592455D01*
X173724Y592367D01*
X173767Y592276D01*
X173806Y592184D01*
X173841Y592091D01*
X173873Y591996D01*
X173902Y591900D01*
X173926Y591803D01*
X173947Y591705D01*
X173964Y591607D01*
X173978Y591507D01*
X173987Y591408D01*
X173993Y591308D01*
X173995Y591208D01*
X173994Y591208D02*
X173994Y587032D01*
X173995Y587032D02*
X173993Y586932D01*
X173987Y586832D01*
X173978Y586733D01*
X173964Y586633D01*
X173947Y586535D01*
X173926Y586437D01*
X173902Y586340D01*
X173873Y586244D01*
X173841Y586149D01*
X173806Y586056D01*
X173767Y585964D01*
X173724Y585873D01*
X173678Y585785D01*
X173628Y585698D01*
X173576Y585613D01*
X173520Y585530D01*
X173461Y585449D01*
X173398Y585371D01*
X173333Y585295D01*
X173265Y585221D01*
X173195Y585151D01*
X173121Y585083D01*
X173045Y585018D01*
X172967Y584955D01*
X172886Y584896D01*
X172803Y584840D01*
X172718Y584788D01*
X172631Y584738D01*
X172543Y584692D01*
X172452Y584649D01*
X172360Y584610D01*
X172267Y584575D01*
X172172Y584543D01*
X172076Y584514D01*
X171979Y584490D01*
X171881Y584469D01*
X171783Y584452D01*
X171683Y584438D01*
X171584Y584429D01*
X171484Y584423D01*
X171384Y584421D01*
X168773Y584421D01*
X178222Y591731D02*
X180832Y593819D01*
X180832Y584421D01*
X178222Y584421D02*
X183443Y584421D01*
X187365Y589120D02*
X187367Y589305D01*
X187374Y589490D01*
X187385Y589674D01*
X187400Y589858D01*
X187420Y590042D01*
X187444Y590226D01*
X187473Y590408D01*
X187506Y590590D01*
X187543Y590771D01*
X187585Y590951D01*
X187631Y591131D01*
X187681Y591309D01*
X187735Y591485D01*
X187794Y591661D01*
X187856Y591835D01*
X187923Y592007D01*
X187994Y592178D01*
X188069Y592347D01*
X188148Y592514D01*
X188178Y592594D01*
X188211Y592673D01*
X188248Y592750D01*
X188288Y592826D01*
X188331Y592900D01*
X188377Y592972D01*
X188427Y593041D01*
X188479Y593109D01*
X188535Y593174D01*
X188593Y593237D01*
X188655Y593296D01*
X188718Y593354D01*
X188785Y593408D01*
X188853Y593459D01*
X188924Y593507D01*
X188997Y593552D01*
X189071Y593594D01*
X189148Y593632D01*
X189226Y593667D01*
X189305Y593699D01*
X189386Y593727D01*
X189468Y593751D01*
X189552Y593772D01*
X189635Y593789D01*
X189720Y593802D01*
X189805Y593811D01*
X189890Y593817D01*
X189976Y593819D01*
X190062Y593817D01*
X190147Y593811D01*
X190232Y593802D01*
X190317Y593789D01*
X190400Y593772D01*
X190484Y593751D01*
X190566Y593727D01*
X190647Y593699D01*
X190726Y593667D01*
X190804Y593632D01*
X190881Y593594D01*
X190955Y593552D01*
X191028Y593507D01*
X191099Y593459D01*
X191167Y593408D01*
X191234Y593354D01*
X191297Y593296D01*
X191359Y593237D01*
X191417Y593174D01*
X191473Y593109D01*
X191525Y593041D01*
X191575Y592972D01*
X191621Y592900D01*
X191664Y592826D01*
X191704Y592750D01*
X191741Y592673D01*
X191774Y592594D01*
X191804Y592514D01*
X191883Y592347D01*
X191958Y592178D01*
X192029Y592007D01*
X192096Y591835D01*
X192158Y591661D01*
X192217Y591485D01*
X192271Y591309D01*
X192321Y591131D01*
X192367Y590951D01*
X192409Y590771D01*
X192446Y590590D01*
X192479Y590408D01*
X192508Y590226D01*
X192532Y590042D01*
X192552Y589858D01*
X192567Y589674D01*
X192578Y589490D01*
X192585Y589305D01*
X192587Y589120D01*
X187366Y589120D02*
X187368Y588935D01*
X187375Y588750D01*
X187386Y588566D01*
X187401Y588382D01*
X187421Y588198D01*
X187445Y588014D01*
X187474Y587832D01*
X187507Y587650D01*
X187544Y587469D01*
X187586Y587289D01*
X187632Y587109D01*
X187682Y586931D01*
X187736Y586755D01*
X187795Y586579D01*
X187857Y586405D01*
X187924Y586233D01*
X187995Y586062D01*
X188070Y585893D01*
X188149Y585726D01*
X188148Y585726D02*
X188178Y585646D01*
X188211Y585567D01*
X188248Y585490D01*
X188288Y585414D01*
X188331Y585340D01*
X188377Y585268D01*
X188427Y585199D01*
X188480Y585131D01*
X188535Y585066D01*
X188594Y585003D01*
X188655Y584944D01*
X188718Y584886D01*
X188785Y584832D01*
X188853Y584781D01*
X188924Y584733D01*
X188997Y584688D01*
X189071Y584646D01*
X189148Y584608D01*
X189226Y584573D01*
X189305Y584541D01*
X189386Y584513D01*
X189468Y584489D01*
X189552Y584468D01*
X189635Y584451D01*
X189720Y584438D01*
X189805Y584429D01*
X189890Y584423D01*
X189976Y584421D01*
X191804Y585726D02*
X191883Y585893D01*
X191958Y586062D01*
X192029Y586233D01*
X192096Y586405D01*
X192158Y586579D01*
X192217Y586755D01*
X192271Y586931D01*
X192321Y587109D01*
X192367Y587289D01*
X192409Y587469D01*
X192446Y587650D01*
X192479Y587832D01*
X192508Y588014D01*
X192532Y588198D01*
X192552Y588382D01*
X192567Y588566D01*
X192578Y588750D01*
X192585Y588935D01*
X192587Y589120D01*
X191804Y585726D02*
X191774Y585646D01*
X191741Y585567D01*
X191704Y585490D01*
X191664Y585414D01*
X191621Y585340D01*
X191575Y585268D01*
X191525Y585199D01*
X191473Y585131D01*
X191417Y585066D01*
X191359Y585003D01*
X191297Y584944D01*
X191234Y584886D01*
X191167Y584832D01*
X191099Y584781D01*
X191028Y584733D01*
X190955Y584688D01*
X190881Y584646D01*
X190804Y584608D01*
X190726Y584573D01*
X190647Y584541D01*
X190566Y584513D01*
X190484Y584489D01*
X190400Y584468D01*
X190317Y584451D01*
X190232Y584438D01*
X190147Y584429D01*
X190062Y584423D01*
X189976Y584421D01*
X187888Y586509D02*
X192065Y591731D01*
X196510Y591731D02*
X199120Y593819D01*
X199120Y584421D01*
X196510Y584421D02*
X201731Y584421D01*
D13*
X323850Y23368D02*
X342900Y23368D01*
X323850Y23368D02*
X285750Y23368D01*
X285750Y861568D01*
X323850Y861568D01*
X342900Y861568D01*
X342900Y23368D01*
X323850Y23368D02*
X323850Y861568D01*
D10*
X306366Y875157D02*
X300101Y865759D01*
X306366Y865759D02*
X300101Y875157D01*
X309767Y873069D02*
X312378Y875157D01*
X312378Y865759D01*
X314988Y865759D02*
X309767Y865759D01*
X318911Y870458D02*
X318913Y870643D01*
X318920Y870828D01*
X318931Y871012D01*
X318946Y871196D01*
X318966Y871380D01*
X318990Y871564D01*
X319019Y871746D01*
X319052Y871928D01*
X319089Y872109D01*
X319131Y872289D01*
X319177Y872469D01*
X319227Y872647D01*
X319281Y872823D01*
X319340Y872999D01*
X319402Y873173D01*
X319469Y873345D01*
X319540Y873516D01*
X319615Y873685D01*
X319694Y873852D01*
X319724Y873932D01*
X319757Y874011D01*
X319794Y874088D01*
X319834Y874164D01*
X319877Y874238D01*
X319923Y874310D01*
X319973Y874379D01*
X320025Y874447D01*
X320081Y874512D01*
X320139Y874575D01*
X320201Y874634D01*
X320264Y874692D01*
X320331Y874746D01*
X320399Y874797D01*
X320470Y874845D01*
X320543Y874890D01*
X320617Y874932D01*
X320694Y874970D01*
X320772Y875005D01*
X320851Y875037D01*
X320932Y875065D01*
X321014Y875089D01*
X321098Y875110D01*
X321181Y875127D01*
X321266Y875140D01*
X321351Y875149D01*
X321436Y875155D01*
X321522Y875157D01*
X321608Y875155D01*
X321693Y875149D01*
X321778Y875140D01*
X321863Y875127D01*
X321946Y875110D01*
X322030Y875089D01*
X322112Y875065D01*
X322193Y875037D01*
X322272Y875005D01*
X322350Y874970D01*
X322427Y874932D01*
X322501Y874890D01*
X322574Y874845D01*
X322645Y874797D01*
X322713Y874746D01*
X322780Y874692D01*
X322843Y874634D01*
X322905Y874575D01*
X322963Y874512D01*
X323019Y874447D01*
X323071Y874379D01*
X323121Y874310D01*
X323167Y874238D01*
X323210Y874164D01*
X323250Y874088D01*
X323287Y874011D01*
X323320Y873932D01*
X323350Y873852D01*
X323349Y873852D02*
X323428Y873685D01*
X323503Y873516D01*
X323574Y873345D01*
X323641Y873173D01*
X323703Y872999D01*
X323762Y872823D01*
X323816Y872647D01*
X323866Y872469D01*
X323912Y872289D01*
X323954Y872109D01*
X323991Y871928D01*
X324024Y871746D01*
X324053Y871564D01*
X324077Y871380D01*
X324097Y871196D01*
X324112Y871012D01*
X324123Y870828D01*
X324130Y870643D01*
X324132Y870458D01*
X318911Y870458D02*
X318913Y870273D01*
X318920Y870088D01*
X318931Y869904D01*
X318946Y869720D01*
X318966Y869536D01*
X318990Y869352D01*
X319019Y869170D01*
X319052Y868988D01*
X319089Y868807D01*
X319131Y868627D01*
X319177Y868447D01*
X319227Y868269D01*
X319281Y868093D01*
X319340Y867917D01*
X319402Y867743D01*
X319469Y867571D01*
X319540Y867400D01*
X319615Y867231D01*
X319694Y867064D01*
X319724Y866984D01*
X319757Y866905D01*
X319794Y866828D01*
X319834Y866752D01*
X319877Y866678D01*
X319923Y866606D01*
X319973Y866537D01*
X320026Y866469D01*
X320081Y866404D01*
X320140Y866341D01*
X320201Y866282D01*
X320264Y866224D01*
X320331Y866170D01*
X320399Y866119D01*
X320470Y866071D01*
X320543Y866026D01*
X320617Y865984D01*
X320694Y865946D01*
X320772Y865911D01*
X320851Y865879D01*
X320932Y865851D01*
X321014Y865827D01*
X321098Y865806D01*
X321181Y865789D01*
X321266Y865776D01*
X321351Y865767D01*
X321436Y865761D01*
X321522Y865759D01*
X323349Y867064D02*
X323428Y867231D01*
X323503Y867400D01*
X323574Y867571D01*
X323641Y867743D01*
X323703Y867917D01*
X323762Y868093D01*
X323816Y868269D01*
X323866Y868447D01*
X323912Y868627D01*
X323954Y868807D01*
X323991Y868988D01*
X324024Y869170D01*
X324053Y869352D01*
X324077Y869536D01*
X324097Y869720D01*
X324112Y869904D01*
X324123Y870088D01*
X324130Y870273D01*
X324132Y870458D01*
X323350Y867064D02*
X323320Y866984D01*
X323287Y866905D01*
X323250Y866828D01*
X323210Y866752D01*
X323167Y866678D01*
X323121Y866606D01*
X323071Y866537D01*
X323019Y866469D01*
X322963Y866404D01*
X322905Y866341D01*
X322843Y866282D01*
X322780Y866224D01*
X322713Y866170D01*
X322645Y866119D01*
X322574Y866071D01*
X322501Y866026D01*
X322427Y865984D01*
X322350Y865946D01*
X322272Y865911D01*
X322193Y865879D01*
X322112Y865851D01*
X322030Y865827D01*
X321946Y865806D01*
X321863Y865789D01*
X321778Y865776D01*
X321693Y865767D01*
X321608Y865761D01*
X321522Y865759D01*
X319433Y867847D02*
X323610Y873069D01*
X328055Y865759D02*
X331188Y865759D01*
X331277Y865761D01*
X331365Y865767D01*
X331453Y865776D01*
X331541Y865789D01*
X331628Y865806D01*
X331714Y865826D01*
X331799Y865851D01*
X331884Y865878D01*
X331967Y865910D01*
X332048Y865944D01*
X332128Y865983D01*
X332206Y866024D01*
X332283Y866069D01*
X332357Y866117D01*
X332430Y866168D01*
X332500Y866222D01*
X332567Y866280D01*
X332633Y866340D01*
X332695Y866402D01*
X332755Y866468D01*
X332813Y866535D01*
X332867Y866605D01*
X332918Y866678D01*
X332966Y866752D01*
X333011Y866829D01*
X333052Y866907D01*
X333091Y866987D01*
X333125Y867068D01*
X333157Y867151D01*
X333184Y867236D01*
X333209Y867321D01*
X333229Y867407D01*
X333246Y867494D01*
X333259Y867582D01*
X333268Y867670D01*
X333274Y867758D01*
X333276Y867847D01*
X333276Y868892D01*
X333274Y868981D01*
X333268Y869069D01*
X333259Y869157D01*
X333246Y869245D01*
X333229Y869332D01*
X333209Y869418D01*
X333184Y869503D01*
X333157Y869588D01*
X333125Y869671D01*
X333091Y869752D01*
X333052Y869832D01*
X333011Y869910D01*
X332966Y869987D01*
X332918Y870061D01*
X332867Y870134D01*
X332813Y870204D01*
X332755Y870271D01*
X332695Y870337D01*
X332633Y870399D01*
X332567Y870459D01*
X332500Y870517D01*
X332430Y870571D01*
X332357Y870622D01*
X332283Y870670D01*
X332206Y870715D01*
X332128Y870756D01*
X332048Y870795D01*
X331967Y870829D01*
X331884Y870861D01*
X331799Y870888D01*
X331714Y870913D01*
X331628Y870933D01*
X331541Y870950D01*
X331453Y870963D01*
X331365Y870972D01*
X331277Y870978D01*
X331188Y870980D01*
X328055Y870980D01*
X328055Y875157D01*
X333276Y875157D01*
D14*
X31360Y88900D02*
X31377Y90250D01*
X31426Y91599D01*
X31509Y92946D01*
X31625Y94291D01*
X31774Y95633D01*
X31955Y96970D01*
X32170Y98303D01*
X32417Y99630D01*
X32696Y100951D01*
X33008Y102264D01*
X33352Y103569D01*
X33728Y104866D01*
X34136Y106152D01*
X34575Y107429D01*
X35045Y108694D01*
X35547Y109948D01*
X36078Y111188D01*
X36641Y112416D01*
X37233Y113629D01*
X37854Y114827D01*
X38505Y116009D01*
X39185Y117176D01*
X39893Y118325D01*
X40629Y119456D01*
X41393Y120569D01*
X42184Y121663D01*
X43001Y122738D01*
X43844Y123792D01*
X44714Y124825D01*
X45608Y125836D01*
X46526Y126825D01*
X47469Y127791D01*
X48435Y128734D01*
X49424Y129652D01*
X50435Y130546D01*
X51468Y131416D01*
X52522Y132259D01*
X53597Y133076D01*
X54691Y133867D01*
X55804Y134631D01*
X56935Y135367D01*
X58084Y136075D01*
X59251Y136755D01*
X60433Y137406D01*
X61631Y138027D01*
X62844Y138619D01*
X64072Y139182D01*
X65312Y139713D01*
X66566Y140215D01*
X67831Y140685D01*
X69108Y141124D01*
X70394Y141532D01*
X71691Y141908D01*
X72996Y142252D01*
X74309Y142564D01*
X75630Y142843D01*
X76957Y143090D01*
X78290Y143305D01*
X79627Y143486D01*
X80969Y143635D01*
X82314Y143751D01*
X83661Y143834D01*
X85010Y143883D01*
X86360Y143900D01*
X87710Y143883D01*
X89059Y143834D01*
X90406Y143751D01*
X91751Y143635D01*
X93093Y143486D01*
X94430Y143305D01*
X95763Y143090D01*
X97090Y142843D01*
X98411Y142564D01*
X99724Y142252D01*
X101029Y141908D01*
X102326Y141532D01*
X103612Y141124D01*
X104889Y140685D01*
X106154Y140215D01*
X107408Y139713D01*
X108648Y139182D01*
X109876Y138619D01*
X111089Y138027D01*
X112287Y137406D01*
X113469Y136755D01*
X114636Y136075D01*
X115785Y135367D01*
X116916Y134631D01*
X118029Y133867D01*
X119123Y133076D01*
X120198Y132259D01*
X121252Y131416D01*
X122285Y130546D01*
X123296Y129652D01*
X124285Y128734D01*
X125251Y127791D01*
X126194Y126825D01*
X127112Y125836D01*
X128006Y124825D01*
X128876Y123792D01*
X129719Y122738D01*
X130536Y121663D01*
X131327Y120569D01*
X132091Y119456D01*
X132827Y118325D01*
X133535Y117176D01*
X134215Y116009D01*
X134866Y114827D01*
X135487Y113629D01*
X136079Y112416D01*
X136642Y111188D01*
X137173Y109948D01*
X137675Y108694D01*
X138145Y107429D01*
X138584Y106152D01*
X138992Y104866D01*
X139368Y103569D01*
X139712Y102264D01*
X140024Y100951D01*
X140303Y99630D01*
X140550Y98303D01*
X140765Y96970D01*
X140946Y95633D01*
X141095Y94291D01*
X141211Y92946D01*
X141294Y91599D01*
X141343Y90250D01*
X141360Y88900D01*
X141343Y87550D01*
X141294Y86201D01*
X141211Y84854D01*
X141095Y83509D01*
X140946Y82167D01*
X140765Y80830D01*
X140550Y79497D01*
X140303Y78170D01*
X140024Y76849D01*
X139712Y75536D01*
X139368Y74231D01*
X138992Y72934D01*
X138584Y71648D01*
X138145Y70371D01*
X137675Y69106D01*
X137173Y67852D01*
X136642Y66612D01*
X136079Y65384D01*
X135487Y64171D01*
X134866Y62973D01*
X134215Y61791D01*
X133535Y60624D01*
X132827Y59475D01*
X132091Y58344D01*
X131327Y57231D01*
X130536Y56137D01*
X129719Y55062D01*
X128876Y54008D01*
X128006Y52975D01*
X127112Y51964D01*
X126194Y50975D01*
X125251Y50009D01*
X124285Y49066D01*
X123296Y48148D01*
X122285Y47254D01*
X121252Y46384D01*
X120198Y45541D01*
X119123Y44724D01*
X118029Y43933D01*
X116916Y43169D01*
X115785Y42433D01*
X114636Y41725D01*
X113469Y41045D01*
X112287Y40394D01*
X111089Y39773D01*
X109876Y39181D01*
X108648Y38618D01*
X107408Y38087D01*
X106154Y37585D01*
X104889Y37115D01*
X103612Y36676D01*
X102326Y36268D01*
X101029Y35892D01*
X99724Y35548D01*
X98411Y35236D01*
X97090Y34957D01*
X95763Y34710D01*
X94430Y34495D01*
X93093Y34314D01*
X91751Y34165D01*
X90406Y34049D01*
X89059Y33966D01*
X87710Y33917D01*
X86360Y33900D01*
X85010Y33917D01*
X83661Y33966D01*
X82314Y34049D01*
X80969Y34165D01*
X79627Y34314D01*
X78290Y34495D01*
X76957Y34710D01*
X75630Y34957D01*
X74309Y35236D01*
X72996Y35548D01*
X71691Y35892D01*
X70394Y36268D01*
X69108Y36676D01*
X67831Y37115D01*
X66566Y37585D01*
X65312Y38087D01*
X64072Y38618D01*
X62844Y39181D01*
X61631Y39773D01*
X60433Y40394D01*
X59251Y41045D01*
X58084Y41725D01*
X56935Y42433D01*
X55804Y43169D01*
X54691Y43933D01*
X53597Y44724D01*
X52522Y45541D01*
X51468Y46384D01*
X50435Y47254D01*
X49424Y48148D01*
X48435Y49066D01*
X47469Y50009D01*
X46526Y50975D01*
X45608Y51964D01*
X44714Y52975D01*
X43844Y54008D01*
X43001Y55062D01*
X42184Y56137D01*
X41393Y57231D01*
X40629Y58344D01*
X39893Y59475D01*
X39185Y60624D01*
X38505Y61791D01*
X37854Y62973D01*
X37233Y64171D01*
X36641Y65384D01*
X36078Y66612D01*
X35547Y67852D01*
X35045Y69106D01*
X34575Y70371D01*
X34136Y71648D01*
X33728Y72934D01*
X33352Y74231D01*
X33008Y75536D01*
X32696Y76849D01*
X32417Y78170D01*
X32170Y79497D01*
X31955Y80830D01*
X31774Y82167D01*
X31625Y83509D01*
X31509Y84854D01*
X31426Y86201D01*
X31377Y87550D01*
X31360Y88900D01*
D15*
X11360Y88900D02*
X11383Y90741D01*
X11450Y92580D01*
X11563Y94417D01*
X11721Y96251D01*
X11924Y98081D01*
X12172Y99905D01*
X12464Y101722D01*
X12801Y103532D01*
X13182Y105333D01*
X13608Y107124D01*
X14077Y108903D01*
X14589Y110671D01*
X15145Y112426D01*
X15744Y114167D01*
X16386Y115892D01*
X17069Y117601D01*
X17794Y119293D01*
X18561Y120967D01*
X19368Y122621D01*
X20216Y124255D01*
X21103Y125867D01*
X22030Y127458D01*
X22996Y129025D01*
X24000Y130568D01*
X25041Y132086D01*
X26119Y133577D01*
X27234Y135042D01*
X28384Y136479D01*
X29569Y137888D01*
X30789Y139267D01*
X32041Y140616D01*
X33327Y141933D01*
X34644Y143219D01*
X35993Y144471D01*
X37372Y145691D01*
X38781Y146876D01*
X40218Y148026D01*
X41683Y149141D01*
X43174Y150219D01*
X44692Y151260D01*
X46235Y152264D01*
X47802Y153230D01*
X49393Y154157D01*
X51005Y155044D01*
X52639Y155892D01*
X54293Y156699D01*
X55967Y157466D01*
X57659Y158191D01*
X59368Y158874D01*
X61093Y159516D01*
X62834Y160115D01*
X64589Y160671D01*
X66357Y161183D01*
X68136Y161652D01*
X69927Y162078D01*
X71728Y162459D01*
X73538Y162796D01*
X75355Y163088D01*
X77179Y163336D01*
X79009Y163539D01*
X80843Y163697D01*
X82680Y163810D01*
X84519Y163877D01*
X86360Y163900D01*
X88201Y163877D01*
X90040Y163810D01*
X91877Y163697D01*
X93711Y163539D01*
X95541Y163336D01*
X97365Y163088D01*
X99182Y162796D01*
X100992Y162459D01*
X102793Y162078D01*
X104584Y161652D01*
X106363Y161183D01*
X108131Y160671D01*
X109886Y160115D01*
X111627Y159516D01*
X113352Y158874D01*
X115061Y158191D01*
X116753Y157466D01*
X118427Y156699D01*
X120081Y155892D01*
X121715Y155044D01*
X123327Y154157D01*
X124918Y153230D01*
X126485Y152264D01*
X128028Y151260D01*
X129546Y150219D01*
X131037Y149141D01*
X132502Y148026D01*
X133939Y146876D01*
X135348Y145691D01*
X136727Y144471D01*
X138076Y143219D01*
X139393Y141933D01*
X140679Y140616D01*
X141931Y139267D01*
X143151Y137888D01*
X144336Y136479D01*
X145486Y135042D01*
X146601Y133577D01*
X147679Y132086D01*
X148720Y130568D01*
X149724Y129025D01*
X150690Y127458D01*
X151617Y125867D01*
X152504Y124255D01*
X153352Y122621D01*
X154159Y120967D01*
X154926Y119293D01*
X155651Y117601D01*
X156334Y115892D01*
X156976Y114167D01*
X157575Y112426D01*
X158131Y110671D01*
X158643Y108903D01*
X159112Y107124D01*
X159538Y105333D01*
X159919Y103532D01*
X160256Y101722D01*
X160548Y99905D01*
X160796Y98081D01*
X160999Y96251D01*
X161157Y94417D01*
X161270Y92580D01*
X161337Y90741D01*
X161360Y88900D01*
X161337Y87059D01*
X161270Y85220D01*
X161157Y83383D01*
X160999Y81549D01*
X160796Y79719D01*
X160548Y77895D01*
X160256Y76078D01*
X159919Y74268D01*
X159538Y72467D01*
X159112Y70676D01*
X158643Y68897D01*
X158131Y67129D01*
X157575Y65374D01*
X156976Y63633D01*
X156334Y61908D01*
X155651Y60199D01*
X154926Y58507D01*
X154159Y56833D01*
X153352Y55179D01*
X152504Y53545D01*
X151617Y51933D01*
X150690Y50342D01*
X149724Y48775D01*
X148720Y47232D01*
X147679Y45714D01*
X146601Y44223D01*
X145486Y42758D01*
X144336Y41321D01*
X143151Y39912D01*
X141931Y38533D01*
X140679Y37184D01*
X139393Y35867D01*
X138076Y34581D01*
X136727Y33329D01*
X135348Y32109D01*
X133939Y30924D01*
X132502Y29774D01*
X131037Y28659D01*
X129546Y27581D01*
X128028Y26540D01*
X126485Y25536D01*
X124918Y24570D01*
X123327Y23643D01*
X121715Y22756D01*
X120081Y21908D01*
X118427Y21101D01*
X116753Y20334D01*
X115061Y19609D01*
X113352Y18926D01*
X111627Y18284D01*
X109886Y17685D01*
X108131Y17129D01*
X106363Y16617D01*
X104584Y16148D01*
X102793Y15722D01*
X100992Y15341D01*
X99182Y15004D01*
X97365Y14712D01*
X95541Y14464D01*
X93711Y14261D01*
X91877Y14103D01*
X90040Y13990D01*
X88201Y13923D01*
X86360Y13900D01*
X84519Y13923D01*
X82680Y13990D01*
X80843Y14103D01*
X79009Y14261D01*
X77179Y14464D01*
X75355Y14712D01*
X73538Y15004D01*
X71728Y15341D01*
X69927Y15722D01*
X68136Y16148D01*
X66357Y16617D01*
X64589Y17129D01*
X62834Y17685D01*
X61093Y18284D01*
X59368Y18926D01*
X57659Y19609D01*
X55967Y20334D01*
X54293Y21101D01*
X52639Y21908D01*
X51005Y22756D01*
X49393Y23643D01*
X47802Y24570D01*
X46235Y25536D01*
X44692Y26540D01*
X43174Y27581D01*
X41683Y28659D01*
X40218Y29774D01*
X38781Y30924D01*
X37372Y32109D01*
X35993Y33329D01*
X34644Y34581D01*
X33327Y35867D01*
X32041Y37184D01*
X30789Y38533D01*
X29569Y39912D01*
X28384Y41321D01*
X27234Y42758D01*
X26119Y44223D01*
X25041Y45714D01*
X24000Y47232D01*
X22996Y48775D01*
X22030Y50342D01*
X21103Y51933D01*
X20216Y53545D01*
X19368Y55179D01*
X18561Y56833D01*
X17794Y58507D01*
X17069Y60199D01*
X16386Y61908D01*
X15744Y63633D01*
X15145Y65374D01*
X14589Y67129D01*
X14077Y68897D01*
X13608Y70676D01*
X13182Y72467D01*
X12801Y74268D01*
X12464Y76078D01*
X12172Y77895D01*
X11924Y79719D01*
X11721Y81549D01*
X11563Y83383D01*
X11450Y85220D01*
X11383Y87059D01*
X11360Y88900D01*
D10*
X13081Y155321D02*
X19346Y164719D01*
X13081Y164719D02*
X19346Y155321D01*
X22747Y162631D02*
X25358Y164719D01*
X25358Y155321D01*
X27968Y155321D02*
X22747Y155321D01*
X31891Y160020D02*
X31893Y160205D01*
X31900Y160390D01*
X31911Y160574D01*
X31926Y160758D01*
X31946Y160942D01*
X31970Y161126D01*
X31999Y161308D01*
X32032Y161490D01*
X32069Y161671D01*
X32111Y161851D01*
X32157Y162031D01*
X32207Y162209D01*
X32261Y162385D01*
X32320Y162561D01*
X32382Y162735D01*
X32449Y162907D01*
X32520Y163078D01*
X32595Y163247D01*
X32674Y163414D01*
X32704Y163494D01*
X32737Y163573D01*
X32774Y163650D01*
X32814Y163726D01*
X32857Y163800D01*
X32903Y163872D01*
X32953Y163941D01*
X33005Y164009D01*
X33061Y164074D01*
X33119Y164137D01*
X33181Y164196D01*
X33244Y164254D01*
X33311Y164308D01*
X33379Y164359D01*
X33450Y164407D01*
X33523Y164452D01*
X33597Y164494D01*
X33674Y164532D01*
X33752Y164567D01*
X33831Y164599D01*
X33912Y164627D01*
X33994Y164651D01*
X34078Y164672D01*
X34161Y164689D01*
X34246Y164702D01*
X34331Y164711D01*
X34416Y164717D01*
X34502Y164719D01*
X34588Y164717D01*
X34673Y164711D01*
X34758Y164702D01*
X34843Y164689D01*
X34926Y164672D01*
X35010Y164651D01*
X35092Y164627D01*
X35173Y164599D01*
X35252Y164567D01*
X35330Y164532D01*
X35407Y164494D01*
X35481Y164452D01*
X35554Y164407D01*
X35625Y164359D01*
X35693Y164308D01*
X35760Y164254D01*
X35823Y164196D01*
X35885Y164137D01*
X35943Y164074D01*
X35999Y164009D01*
X36051Y163941D01*
X36101Y163872D01*
X36147Y163800D01*
X36190Y163726D01*
X36230Y163650D01*
X36267Y163573D01*
X36300Y163494D01*
X36330Y163414D01*
X36329Y163414D02*
X36408Y163247D01*
X36483Y163078D01*
X36554Y162907D01*
X36621Y162735D01*
X36683Y162561D01*
X36742Y162385D01*
X36796Y162209D01*
X36846Y162031D01*
X36892Y161851D01*
X36934Y161671D01*
X36971Y161490D01*
X37004Y161308D01*
X37033Y161126D01*
X37057Y160942D01*
X37077Y160758D01*
X37092Y160574D01*
X37103Y160390D01*
X37110Y160205D01*
X37112Y160020D01*
X31891Y160020D02*
X31893Y159835D01*
X31900Y159650D01*
X31911Y159466D01*
X31926Y159282D01*
X31946Y159098D01*
X31970Y158914D01*
X31999Y158732D01*
X32032Y158550D01*
X32069Y158369D01*
X32111Y158189D01*
X32157Y158009D01*
X32207Y157831D01*
X32261Y157655D01*
X32320Y157479D01*
X32382Y157305D01*
X32449Y157133D01*
X32520Y156962D01*
X32595Y156793D01*
X32674Y156626D01*
X32704Y156546D01*
X32737Y156467D01*
X32774Y156390D01*
X32814Y156314D01*
X32857Y156240D01*
X32903Y156168D01*
X32953Y156099D01*
X33006Y156031D01*
X33061Y155966D01*
X33120Y155903D01*
X33181Y155844D01*
X33244Y155786D01*
X33311Y155732D01*
X33379Y155681D01*
X33450Y155633D01*
X33523Y155588D01*
X33597Y155546D01*
X33674Y155508D01*
X33752Y155473D01*
X33831Y155441D01*
X33912Y155413D01*
X33994Y155389D01*
X34078Y155368D01*
X34161Y155351D01*
X34246Y155338D01*
X34331Y155329D01*
X34416Y155323D01*
X34502Y155321D01*
X36329Y156626D02*
X36408Y156793D01*
X36483Y156962D01*
X36554Y157133D01*
X36621Y157305D01*
X36683Y157479D01*
X36742Y157655D01*
X36796Y157831D01*
X36846Y158009D01*
X36892Y158189D01*
X36934Y158369D01*
X36971Y158550D01*
X37004Y158732D01*
X37033Y158914D01*
X37057Y159098D01*
X37077Y159282D01*
X37092Y159466D01*
X37103Y159650D01*
X37110Y159835D01*
X37112Y160020D01*
X36330Y156626D02*
X36300Y156546D01*
X36267Y156467D01*
X36230Y156390D01*
X36190Y156314D01*
X36147Y156240D01*
X36101Y156168D01*
X36051Y156099D01*
X35999Y156031D01*
X35943Y155966D01*
X35885Y155903D01*
X35823Y155844D01*
X35760Y155786D01*
X35693Y155732D01*
X35625Y155681D01*
X35554Y155633D01*
X35481Y155588D01*
X35407Y155546D01*
X35330Y155508D01*
X35252Y155473D01*
X35173Y155441D01*
X35092Y155413D01*
X35010Y155389D01*
X34926Y155368D01*
X34843Y155351D01*
X34758Y155338D01*
X34673Y155329D01*
X34588Y155323D01*
X34502Y155321D01*
X32413Y157409D02*
X36590Y162631D01*
X41035Y157409D02*
X43123Y164719D01*
X41035Y157409D02*
X46256Y157409D01*
X44690Y159498D02*
X44690Y155321D01*
D14*
X31360Y309880D02*
X31377Y311230D01*
X31426Y312579D01*
X31509Y313926D01*
X31625Y315271D01*
X31774Y316613D01*
X31955Y317950D01*
X32170Y319283D01*
X32417Y320610D01*
X32696Y321931D01*
X33008Y323244D01*
X33352Y324549D01*
X33728Y325846D01*
X34136Y327132D01*
X34575Y328409D01*
X35045Y329674D01*
X35547Y330928D01*
X36078Y332168D01*
X36641Y333396D01*
X37233Y334609D01*
X37854Y335807D01*
X38505Y336989D01*
X39185Y338156D01*
X39893Y339305D01*
X40629Y340436D01*
X41393Y341549D01*
X42184Y342643D01*
X43001Y343718D01*
X43844Y344772D01*
X44714Y345805D01*
X45608Y346816D01*
X46526Y347805D01*
X47469Y348771D01*
X48435Y349714D01*
X49424Y350632D01*
X50435Y351526D01*
X51468Y352396D01*
X52522Y353239D01*
X53597Y354056D01*
X54691Y354847D01*
X55804Y355611D01*
X56935Y356347D01*
X58084Y357055D01*
X59251Y357735D01*
X60433Y358386D01*
X61631Y359007D01*
X62844Y359599D01*
X64072Y360162D01*
X65312Y360693D01*
X66566Y361195D01*
X67831Y361665D01*
X69108Y362104D01*
X70394Y362512D01*
X71691Y362888D01*
X72996Y363232D01*
X74309Y363544D01*
X75630Y363823D01*
X76957Y364070D01*
X78290Y364285D01*
X79627Y364466D01*
X80969Y364615D01*
X82314Y364731D01*
X83661Y364814D01*
X85010Y364863D01*
X86360Y364880D01*
X87710Y364863D01*
X89059Y364814D01*
X90406Y364731D01*
X91751Y364615D01*
X93093Y364466D01*
X94430Y364285D01*
X95763Y364070D01*
X97090Y363823D01*
X98411Y363544D01*
X99724Y363232D01*
X101029Y362888D01*
X102326Y362512D01*
X103612Y362104D01*
X104889Y361665D01*
X106154Y361195D01*
X107408Y360693D01*
X108648Y360162D01*
X109876Y359599D01*
X111089Y359007D01*
X112287Y358386D01*
X113469Y357735D01*
X114636Y357055D01*
X115785Y356347D01*
X116916Y355611D01*
X118029Y354847D01*
X119123Y354056D01*
X120198Y353239D01*
X121252Y352396D01*
X122285Y351526D01*
X123296Y350632D01*
X124285Y349714D01*
X125251Y348771D01*
X126194Y347805D01*
X127112Y346816D01*
X128006Y345805D01*
X128876Y344772D01*
X129719Y343718D01*
X130536Y342643D01*
X131327Y341549D01*
X132091Y340436D01*
X132827Y339305D01*
X133535Y338156D01*
X134215Y336989D01*
X134866Y335807D01*
X135487Y334609D01*
X136079Y333396D01*
X136642Y332168D01*
X137173Y330928D01*
X137675Y329674D01*
X138145Y328409D01*
X138584Y327132D01*
X138992Y325846D01*
X139368Y324549D01*
X139712Y323244D01*
X140024Y321931D01*
X140303Y320610D01*
X140550Y319283D01*
X140765Y317950D01*
X140946Y316613D01*
X141095Y315271D01*
X141211Y313926D01*
X141294Y312579D01*
X141343Y311230D01*
X141360Y309880D01*
X141343Y308530D01*
X141294Y307181D01*
X141211Y305834D01*
X141095Y304489D01*
X140946Y303147D01*
X140765Y301810D01*
X140550Y300477D01*
X140303Y299150D01*
X140024Y297829D01*
X139712Y296516D01*
X139368Y295211D01*
X138992Y293914D01*
X138584Y292628D01*
X138145Y291351D01*
X137675Y290086D01*
X137173Y288832D01*
X136642Y287592D01*
X136079Y286364D01*
X135487Y285151D01*
X134866Y283953D01*
X134215Y282771D01*
X133535Y281604D01*
X132827Y280455D01*
X132091Y279324D01*
X131327Y278211D01*
X130536Y277117D01*
X129719Y276042D01*
X128876Y274988D01*
X128006Y273955D01*
X127112Y272944D01*
X126194Y271955D01*
X125251Y270989D01*
X124285Y270046D01*
X123296Y269128D01*
X122285Y268234D01*
X121252Y267364D01*
X120198Y266521D01*
X119123Y265704D01*
X118029Y264913D01*
X116916Y264149D01*
X115785Y263413D01*
X114636Y262705D01*
X113469Y262025D01*
X112287Y261374D01*
X111089Y260753D01*
X109876Y260161D01*
X108648Y259598D01*
X107408Y259067D01*
X106154Y258565D01*
X104889Y258095D01*
X103612Y257656D01*
X102326Y257248D01*
X101029Y256872D01*
X99724Y256528D01*
X98411Y256216D01*
X97090Y255937D01*
X95763Y255690D01*
X94430Y255475D01*
X93093Y255294D01*
X91751Y255145D01*
X90406Y255029D01*
X89059Y254946D01*
X87710Y254897D01*
X86360Y254880D01*
X85010Y254897D01*
X83661Y254946D01*
X82314Y255029D01*
X80969Y255145D01*
X79627Y255294D01*
X78290Y255475D01*
X76957Y255690D01*
X75630Y255937D01*
X74309Y256216D01*
X72996Y256528D01*
X71691Y256872D01*
X70394Y257248D01*
X69108Y257656D01*
X67831Y258095D01*
X66566Y258565D01*
X65312Y259067D01*
X64072Y259598D01*
X62844Y260161D01*
X61631Y260753D01*
X60433Y261374D01*
X59251Y262025D01*
X58084Y262705D01*
X56935Y263413D01*
X55804Y264149D01*
X54691Y264913D01*
X53597Y265704D01*
X52522Y266521D01*
X51468Y267364D01*
X50435Y268234D01*
X49424Y269128D01*
X48435Y270046D01*
X47469Y270989D01*
X46526Y271955D01*
X45608Y272944D01*
X44714Y273955D01*
X43844Y274988D01*
X43001Y276042D01*
X42184Y277117D01*
X41393Y278211D01*
X40629Y279324D01*
X39893Y280455D01*
X39185Y281604D01*
X38505Y282771D01*
X37854Y283953D01*
X37233Y285151D01*
X36641Y286364D01*
X36078Y287592D01*
X35547Y288832D01*
X35045Y290086D01*
X34575Y291351D01*
X34136Y292628D01*
X33728Y293914D01*
X33352Y295211D01*
X33008Y296516D01*
X32696Y297829D01*
X32417Y299150D01*
X32170Y300477D01*
X31955Y301810D01*
X31774Y303147D01*
X31625Y304489D01*
X31509Y305834D01*
X31426Y307181D01*
X31377Y308530D01*
X31360Y309880D01*
D15*
X11360Y309880D02*
X11383Y311721D01*
X11450Y313560D01*
X11563Y315397D01*
X11721Y317231D01*
X11924Y319061D01*
X12172Y320885D01*
X12464Y322702D01*
X12801Y324512D01*
X13182Y326313D01*
X13608Y328104D01*
X14077Y329883D01*
X14589Y331651D01*
X15145Y333406D01*
X15744Y335147D01*
X16386Y336872D01*
X17069Y338581D01*
X17794Y340273D01*
X18561Y341947D01*
X19368Y343601D01*
X20216Y345235D01*
X21103Y346847D01*
X22030Y348438D01*
X22996Y350005D01*
X24000Y351548D01*
X25041Y353066D01*
X26119Y354557D01*
X27234Y356022D01*
X28384Y357459D01*
X29569Y358868D01*
X30789Y360247D01*
X32041Y361596D01*
X33327Y362913D01*
X34644Y364199D01*
X35993Y365451D01*
X37372Y366671D01*
X38781Y367856D01*
X40218Y369006D01*
X41683Y370121D01*
X43174Y371199D01*
X44692Y372240D01*
X46235Y373244D01*
X47802Y374210D01*
X49393Y375137D01*
X51005Y376024D01*
X52639Y376872D01*
X54293Y377679D01*
X55967Y378446D01*
X57659Y379171D01*
X59368Y379854D01*
X61093Y380496D01*
X62834Y381095D01*
X64589Y381651D01*
X66357Y382163D01*
X68136Y382632D01*
X69927Y383058D01*
X71728Y383439D01*
X73538Y383776D01*
X75355Y384068D01*
X77179Y384316D01*
X79009Y384519D01*
X80843Y384677D01*
X82680Y384790D01*
X84519Y384857D01*
X86360Y384880D01*
X88201Y384857D01*
X90040Y384790D01*
X91877Y384677D01*
X93711Y384519D01*
X95541Y384316D01*
X97365Y384068D01*
X99182Y383776D01*
X100992Y383439D01*
X102793Y383058D01*
X104584Y382632D01*
X106363Y382163D01*
X108131Y381651D01*
X109886Y381095D01*
X111627Y380496D01*
X113352Y379854D01*
X115061Y379171D01*
X116753Y378446D01*
X118427Y377679D01*
X120081Y376872D01*
X121715Y376024D01*
X123327Y375137D01*
X124918Y374210D01*
X126485Y373244D01*
X128028Y372240D01*
X129546Y371199D01*
X131037Y370121D01*
X132502Y369006D01*
X133939Y367856D01*
X135348Y366671D01*
X136727Y365451D01*
X138076Y364199D01*
X139393Y362913D01*
X140679Y361596D01*
X141931Y360247D01*
X143151Y358868D01*
X144336Y357459D01*
X145486Y356022D01*
X146601Y354557D01*
X147679Y353066D01*
X148720Y351548D01*
X149724Y350005D01*
X150690Y348438D01*
X151617Y346847D01*
X152504Y345235D01*
X153352Y343601D01*
X154159Y341947D01*
X154926Y340273D01*
X155651Y338581D01*
X156334Y336872D01*
X156976Y335147D01*
X157575Y333406D01*
X158131Y331651D01*
X158643Y329883D01*
X159112Y328104D01*
X159538Y326313D01*
X159919Y324512D01*
X160256Y322702D01*
X160548Y320885D01*
X160796Y319061D01*
X160999Y317231D01*
X161157Y315397D01*
X161270Y313560D01*
X161337Y311721D01*
X161360Y309880D01*
X161337Y308039D01*
X161270Y306200D01*
X161157Y304363D01*
X160999Y302529D01*
X160796Y300699D01*
X160548Y298875D01*
X160256Y297058D01*
X159919Y295248D01*
X159538Y293447D01*
X159112Y291656D01*
X158643Y289877D01*
X158131Y288109D01*
X157575Y286354D01*
X156976Y284613D01*
X156334Y282888D01*
X155651Y281179D01*
X154926Y279487D01*
X154159Y277813D01*
X153352Y276159D01*
X152504Y274525D01*
X151617Y272913D01*
X150690Y271322D01*
X149724Y269755D01*
X148720Y268212D01*
X147679Y266694D01*
X146601Y265203D01*
X145486Y263738D01*
X144336Y262301D01*
X143151Y260892D01*
X141931Y259513D01*
X140679Y258164D01*
X139393Y256847D01*
X138076Y255561D01*
X136727Y254309D01*
X135348Y253089D01*
X133939Y251904D01*
X132502Y250754D01*
X131037Y249639D01*
X129546Y248561D01*
X128028Y247520D01*
X126485Y246516D01*
X124918Y245550D01*
X123327Y244623D01*
X121715Y243736D01*
X120081Y242888D01*
X118427Y242081D01*
X116753Y241314D01*
X115061Y240589D01*
X113352Y239906D01*
X111627Y239264D01*
X109886Y238665D01*
X108131Y238109D01*
X106363Y237597D01*
X104584Y237128D01*
X102793Y236702D01*
X100992Y236321D01*
X99182Y235984D01*
X97365Y235692D01*
X95541Y235444D01*
X93711Y235241D01*
X91877Y235083D01*
X90040Y234970D01*
X88201Y234903D01*
X86360Y234880D01*
X84519Y234903D01*
X82680Y234970D01*
X80843Y235083D01*
X79009Y235241D01*
X77179Y235444D01*
X75355Y235692D01*
X73538Y235984D01*
X71728Y236321D01*
X69927Y236702D01*
X68136Y237128D01*
X66357Y237597D01*
X64589Y238109D01*
X62834Y238665D01*
X61093Y239264D01*
X59368Y239906D01*
X57659Y240589D01*
X55967Y241314D01*
X54293Y242081D01*
X52639Y242888D01*
X51005Y243736D01*
X49393Y244623D01*
X47802Y245550D01*
X46235Y246516D01*
X44692Y247520D01*
X43174Y248561D01*
X41683Y249639D01*
X40218Y250754D01*
X38781Y251904D01*
X37372Y253089D01*
X35993Y254309D01*
X34644Y255561D01*
X33327Y256847D01*
X32041Y258164D01*
X30789Y259513D01*
X29569Y260892D01*
X28384Y262301D01*
X27234Y263738D01*
X26119Y265203D01*
X25041Y266694D01*
X24000Y268212D01*
X22996Y269755D01*
X22030Y271322D01*
X21103Y272913D01*
X20216Y274525D01*
X19368Y276159D01*
X18561Y277813D01*
X17794Y279487D01*
X17069Y281179D01*
X16386Y282888D01*
X15744Y284613D01*
X15145Y286354D01*
X14589Y288109D01*
X14077Y289877D01*
X13608Y291656D01*
X13182Y293447D01*
X12801Y295248D01*
X12464Y297058D01*
X12172Y298875D01*
X11924Y300699D01*
X11721Y302529D01*
X11563Y304363D01*
X11450Y306200D01*
X11383Y308039D01*
X11360Y309880D01*
D10*
X15621Y378841D02*
X21886Y388239D01*
X15621Y388239D02*
X21886Y378841D01*
X25287Y386151D02*
X27898Y388239D01*
X27898Y378841D01*
X30508Y378841D02*
X25287Y378841D01*
X34431Y383540D02*
X34433Y383725D01*
X34440Y383910D01*
X34451Y384094D01*
X34466Y384278D01*
X34486Y384462D01*
X34510Y384646D01*
X34539Y384828D01*
X34572Y385010D01*
X34609Y385191D01*
X34651Y385371D01*
X34697Y385551D01*
X34747Y385729D01*
X34801Y385905D01*
X34860Y386081D01*
X34922Y386255D01*
X34989Y386427D01*
X35060Y386598D01*
X35135Y386767D01*
X35214Y386934D01*
X35244Y387014D01*
X35277Y387093D01*
X35314Y387170D01*
X35354Y387246D01*
X35397Y387320D01*
X35443Y387392D01*
X35493Y387461D01*
X35545Y387529D01*
X35601Y387594D01*
X35659Y387657D01*
X35721Y387716D01*
X35784Y387774D01*
X35851Y387828D01*
X35919Y387879D01*
X35990Y387927D01*
X36063Y387972D01*
X36137Y388014D01*
X36214Y388052D01*
X36292Y388087D01*
X36371Y388119D01*
X36452Y388147D01*
X36534Y388171D01*
X36618Y388192D01*
X36701Y388209D01*
X36786Y388222D01*
X36871Y388231D01*
X36956Y388237D01*
X37042Y388239D01*
X37128Y388237D01*
X37213Y388231D01*
X37298Y388222D01*
X37383Y388209D01*
X37466Y388192D01*
X37550Y388171D01*
X37632Y388147D01*
X37713Y388119D01*
X37792Y388087D01*
X37870Y388052D01*
X37947Y388014D01*
X38021Y387972D01*
X38094Y387927D01*
X38165Y387879D01*
X38233Y387828D01*
X38300Y387774D01*
X38363Y387716D01*
X38425Y387657D01*
X38483Y387594D01*
X38539Y387529D01*
X38591Y387461D01*
X38641Y387392D01*
X38687Y387320D01*
X38730Y387246D01*
X38770Y387170D01*
X38807Y387093D01*
X38840Y387014D01*
X38870Y386934D01*
X38869Y386934D02*
X38948Y386767D01*
X39023Y386598D01*
X39094Y386427D01*
X39161Y386255D01*
X39223Y386081D01*
X39282Y385905D01*
X39336Y385729D01*
X39386Y385551D01*
X39432Y385371D01*
X39474Y385191D01*
X39511Y385010D01*
X39544Y384828D01*
X39573Y384646D01*
X39597Y384462D01*
X39617Y384278D01*
X39632Y384094D01*
X39643Y383910D01*
X39650Y383725D01*
X39652Y383540D01*
X34431Y383540D02*
X34433Y383355D01*
X34440Y383170D01*
X34451Y382986D01*
X34466Y382802D01*
X34486Y382618D01*
X34510Y382434D01*
X34539Y382252D01*
X34572Y382070D01*
X34609Y381889D01*
X34651Y381709D01*
X34697Y381529D01*
X34747Y381351D01*
X34801Y381175D01*
X34860Y380999D01*
X34922Y380825D01*
X34989Y380653D01*
X35060Y380482D01*
X35135Y380313D01*
X35214Y380146D01*
X35244Y380066D01*
X35277Y379987D01*
X35314Y379910D01*
X35354Y379834D01*
X35397Y379760D01*
X35443Y379688D01*
X35493Y379619D01*
X35546Y379551D01*
X35601Y379486D01*
X35660Y379423D01*
X35721Y379364D01*
X35784Y379306D01*
X35851Y379252D01*
X35919Y379201D01*
X35990Y379153D01*
X36063Y379108D01*
X36137Y379066D01*
X36214Y379028D01*
X36292Y378993D01*
X36371Y378961D01*
X36452Y378933D01*
X36534Y378909D01*
X36618Y378888D01*
X36701Y378871D01*
X36786Y378858D01*
X36871Y378849D01*
X36956Y378843D01*
X37042Y378841D01*
X38869Y380146D02*
X38948Y380313D01*
X39023Y380482D01*
X39094Y380653D01*
X39161Y380825D01*
X39223Y380999D01*
X39282Y381175D01*
X39336Y381351D01*
X39386Y381529D01*
X39432Y381709D01*
X39474Y381889D01*
X39511Y382070D01*
X39544Y382252D01*
X39573Y382434D01*
X39597Y382618D01*
X39617Y382802D01*
X39632Y382986D01*
X39643Y383170D01*
X39650Y383355D01*
X39652Y383540D01*
X38870Y380146D02*
X38840Y380066D01*
X38807Y379987D01*
X38770Y379910D01*
X38730Y379834D01*
X38687Y379760D01*
X38641Y379688D01*
X38591Y379619D01*
X38539Y379551D01*
X38483Y379486D01*
X38425Y379423D01*
X38363Y379364D01*
X38300Y379306D01*
X38233Y379252D01*
X38165Y379201D01*
X38094Y379153D01*
X38021Y379108D01*
X37947Y379066D01*
X37870Y379028D01*
X37792Y378993D01*
X37713Y378961D01*
X37632Y378933D01*
X37550Y378909D01*
X37466Y378888D01*
X37383Y378871D01*
X37298Y378858D01*
X37213Y378849D01*
X37128Y378843D01*
X37042Y378841D01*
X34953Y380929D02*
X39130Y386151D01*
X43575Y378841D02*
X46186Y378841D01*
X46287Y378843D01*
X46388Y378849D01*
X46489Y378859D01*
X46589Y378872D01*
X46689Y378890D01*
X46788Y378911D01*
X46886Y378937D01*
X46983Y378966D01*
X47079Y378998D01*
X47173Y379035D01*
X47266Y379075D01*
X47358Y379119D01*
X47447Y379166D01*
X47535Y379217D01*
X47621Y379271D01*
X47704Y379328D01*
X47786Y379388D01*
X47864Y379452D01*
X47941Y379518D01*
X48014Y379588D01*
X48085Y379660D01*
X48153Y379735D01*
X48218Y379813D01*
X48280Y379893D01*
X48339Y379975D01*
X48395Y380060D01*
X48447Y380147D01*
X48496Y380235D01*
X48542Y380326D01*
X48583Y380418D01*
X48622Y380512D01*
X48656Y380607D01*
X48687Y380703D01*
X48714Y380801D01*
X48738Y380899D01*
X48757Y380999D01*
X48773Y381099D01*
X48785Y381199D01*
X48793Y381300D01*
X48797Y381401D01*
X48797Y381503D01*
X48793Y381604D01*
X48785Y381705D01*
X48773Y381805D01*
X48757Y381905D01*
X48738Y382005D01*
X48714Y382103D01*
X48687Y382201D01*
X48656Y382297D01*
X48622Y382392D01*
X48583Y382486D01*
X48542Y382578D01*
X48496Y382669D01*
X48447Y382757D01*
X48395Y382844D01*
X48339Y382929D01*
X48280Y383011D01*
X48218Y383091D01*
X48153Y383169D01*
X48085Y383244D01*
X48014Y383316D01*
X47941Y383386D01*
X47864Y383452D01*
X47786Y383516D01*
X47704Y383576D01*
X47621Y383633D01*
X47535Y383687D01*
X47447Y383738D01*
X47358Y383785D01*
X47266Y383829D01*
X47173Y383869D01*
X47079Y383906D01*
X46983Y383938D01*
X46886Y383967D01*
X46788Y383993D01*
X46689Y384014D01*
X46589Y384032D01*
X46489Y384045D01*
X46388Y384055D01*
X46287Y384061D01*
X46186Y384063D01*
X46708Y388239D02*
X43575Y388239D01*
X46708Y388239D02*
X46798Y388237D01*
X46887Y388231D01*
X46977Y388222D01*
X47066Y388208D01*
X47154Y388191D01*
X47241Y388170D01*
X47328Y388145D01*
X47413Y388116D01*
X47497Y388084D01*
X47579Y388049D01*
X47660Y388009D01*
X47739Y387967D01*
X47816Y387921D01*
X47891Y387871D01*
X47964Y387819D01*
X48035Y387763D01*
X48103Y387705D01*
X48168Y387643D01*
X48231Y387579D01*
X48291Y387512D01*
X48348Y387443D01*
X48402Y387371D01*
X48453Y387297D01*
X48501Y387221D01*
X48545Y387143D01*
X48586Y387063D01*
X48624Y386981D01*
X48658Y386898D01*
X48688Y386813D01*
X48715Y386727D01*
X48738Y386641D01*
X48757Y386553D01*
X48772Y386464D01*
X48784Y386375D01*
X48792Y386286D01*
X48796Y386196D01*
X48796Y386106D01*
X48792Y386016D01*
X48784Y385927D01*
X48772Y385838D01*
X48757Y385749D01*
X48738Y385661D01*
X48715Y385575D01*
X48688Y385489D01*
X48658Y385404D01*
X48624Y385321D01*
X48586Y385239D01*
X48545Y385159D01*
X48501Y385081D01*
X48453Y385005D01*
X48402Y384931D01*
X48348Y384859D01*
X48291Y384790D01*
X48231Y384723D01*
X48168Y384659D01*
X48103Y384597D01*
X48035Y384539D01*
X47964Y384483D01*
X47891Y384431D01*
X47816Y384381D01*
X47739Y384335D01*
X47660Y384293D01*
X47579Y384253D01*
X47497Y384218D01*
X47413Y384186D01*
X47328Y384157D01*
X47241Y384132D01*
X47154Y384111D01*
X47066Y384094D01*
X46977Y384080D01*
X46887Y384071D01*
X46798Y384065D01*
X46708Y384063D01*
X46708Y384062D02*
X44619Y384062D01*
D14*
X31360Y515620D02*
X31377Y516970D01*
X31426Y518319D01*
X31509Y519666D01*
X31625Y521011D01*
X31774Y522353D01*
X31955Y523690D01*
X32170Y525023D01*
X32417Y526350D01*
X32696Y527671D01*
X33008Y528984D01*
X33352Y530289D01*
X33728Y531586D01*
X34136Y532872D01*
X34575Y534149D01*
X35045Y535414D01*
X35547Y536668D01*
X36078Y537908D01*
X36641Y539136D01*
X37233Y540349D01*
X37854Y541547D01*
X38505Y542729D01*
X39185Y543896D01*
X39893Y545045D01*
X40629Y546176D01*
X41393Y547289D01*
X42184Y548383D01*
X43001Y549458D01*
X43844Y550512D01*
X44714Y551545D01*
X45608Y552556D01*
X46526Y553545D01*
X47469Y554511D01*
X48435Y555454D01*
X49424Y556372D01*
X50435Y557266D01*
X51468Y558136D01*
X52522Y558979D01*
X53597Y559796D01*
X54691Y560587D01*
X55804Y561351D01*
X56935Y562087D01*
X58084Y562795D01*
X59251Y563475D01*
X60433Y564126D01*
X61631Y564747D01*
X62844Y565339D01*
X64072Y565902D01*
X65312Y566433D01*
X66566Y566935D01*
X67831Y567405D01*
X69108Y567844D01*
X70394Y568252D01*
X71691Y568628D01*
X72996Y568972D01*
X74309Y569284D01*
X75630Y569563D01*
X76957Y569810D01*
X78290Y570025D01*
X79627Y570206D01*
X80969Y570355D01*
X82314Y570471D01*
X83661Y570554D01*
X85010Y570603D01*
X86360Y570620D01*
X87710Y570603D01*
X89059Y570554D01*
X90406Y570471D01*
X91751Y570355D01*
X93093Y570206D01*
X94430Y570025D01*
X95763Y569810D01*
X97090Y569563D01*
X98411Y569284D01*
X99724Y568972D01*
X101029Y568628D01*
X102326Y568252D01*
X103612Y567844D01*
X104889Y567405D01*
X106154Y566935D01*
X107408Y566433D01*
X108648Y565902D01*
X109876Y565339D01*
X111089Y564747D01*
X112287Y564126D01*
X113469Y563475D01*
X114636Y562795D01*
X115785Y562087D01*
X116916Y561351D01*
X118029Y560587D01*
X119123Y559796D01*
X120198Y558979D01*
X121252Y558136D01*
X122285Y557266D01*
X123296Y556372D01*
X124285Y555454D01*
X125251Y554511D01*
X126194Y553545D01*
X127112Y552556D01*
X128006Y551545D01*
X128876Y550512D01*
X129719Y549458D01*
X130536Y548383D01*
X131327Y547289D01*
X132091Y546176D01*
X132827Y545045D01*
X133535Y543896D01*
X134215Y542729D01*
X134866Y541547D01*
X135487Y540349D01*
X136079Y539136D01*
X136642Y537908D01*
X137173Y536668D01*
X137675Y535414D01*
X138145Y534149D01*
X138584Y532872D01*
X138992Y531586D01*
X139368Y530289D01*
X139712Y528984D01*
X140024Y527671D01*
X140303Y526350D01*
X140550Y525023D01*
X140765Y523690D01*
X140946Y522353D01*
X141095Y521011D01*
X141211Y519666D01*
X141294Y518319D01*
X141343Y516970D01*
X141360Y515620D01*
X141343Y514270D01*
X141294Y512921D01*
X141211Y511574D01*
X141095Y510229D01*
X140946Y508887D01*
X140765Y507550D01*
X140550Y506217D01*
X140303Y504890D01*
X140024Y503569D01*
X139712Y502256D01*
X139368Y500951D01*
X138992Y499654D01*
X138584Y498368D01*
X138145Y497091D01*
X137675Y495826D01*
X137173Y494572D01*
X136642Y493332D01*
X136079Y492104D01*
X135487Y490891D01*
X134866Y489693D01*
X134215Y488511D01*
X133535Y487344D01*
X132827Y486195D01*
X132091Y485064D01*
X131327Y483951D01*
X130536Y482857D01*
X129719Y481782D01*
X128876Y480728D01*
X128006Y479695D01*
X127112Y478684D01*
X126194Y477695D01*
X125251Y476729D01*
X124285Y475786D01*
X123296Y474868D01*
X122285Y473974D01*
X121252Y473104D01*
X120198Y472261D01*
X119123Y471444D01*
X118029Y470653D01*
X116916Y469889D01*
X115785Y469153D01*
X114636Y468445D01*
X113469Y467765D01*
X112287Y467114D01*
X111089Y466493D01*
X109876Y465901D01*
X108648Y465338D01*
X107408Y464807D01*
X106154Y464305D01*
X104889Y463835D01*
X103612Y463396D01*
X102326Y462988D01*
X101029Y462612D01*
X99724Y462268D01*
X98411Y461956D01*
X97090Y461677D01*
X95763Y461430D01*
X94430Y461215D01*
X93093Y461034D01*
X91751Y460885D01*
X90406Y460769D01*
X89059Y460686D01*
X87710Y460637D01*
X86360Y460620D01*
X85010Y460637D01*
X83661Y460686D01*
X82314Y460769D01*
X80969Y460885D01*
X79627Y461034D01*
X78290Y461215D01*
X76957Y461430D01*
X75630Y461677D01*
X74309Y461956D01*
X72996Y462268D01*
X71691Y462612D01*
X70394Y462988D01*
X69108Y463396D01*
X67831Y463835D01*
X66566Y464305D01*
X65312Y464807D01*
X64072Y465338D01*
X62844Y465901D01*
X61631Y466493D01*
X60433Y467114D01*
X59251Y467765D01*
X58084Y468445D01*
X56935Y469153D01*
X55804Y469889D01*
X54691Y470653D01*
X53597Y471444D01*
X52522Y472261D01*
X51468Y473104D01*
X50435Y473974D01*
X49424Y474868D01*
X48435Y475786D01*
X47469Y476729D01*
X46526Y477695D01*
X45608Y478684D01*
X44714Y479695D01*
X43844Y480728D01*
X43001Y481782D01*
X42184Y482857D01*
X41393Y483951D01*
X40629Y485064D01*
X39893Y486195D01*
X39185Y487344D01*
X38505Y488511D01*
X37854Y489693D01*
X37233Y490891D01*
X36641Y492104D01*
X36078Y493332D01*
X35547Y494572D01*
X35045Y495826D01*
X34575Y497091D01*
X34136Y498368D01*
X33728Y499654D01*
X33352Y500951D01*
X33008Y502256D01*
X32696Y503569D01*
X32417Y504890D01*
X32170Y506217D01*
X31955Y507550D01*
X31774Y508887D01*
X31625Y510229D01*
X31509Y511574D01*
X31426Y512921D01*
X31377Y514270D01*
X31360Y515620D01*
D15*
X11360Y515620D02*
X11383Y517461D01*
X11450Y519300D01*
X11563Y521137D01*
X11721Y522971D01*
X11924Y524801D01*
X12172Y526625D01*
X12464Y528442D01*
X12801Y530252D01*
X13182Y532053D01*
X13608Y533844D01*
X14077Y535623D01*
X14589Y537391D01*
X15145Y539146D01*
X15744Y540887D01*
X16386Y542612D01*
X17069Y544321D01*
X17794Y546013D01*
X18561Y547687D01*
X19368Y549341D01*
X20216Y550975D01*
X21103Y552587D01*
X22030Y554178D01*
X22996Y555745D01*
X24000Y557288D01*
X25041Y558806D01*
X26119Y560297D01*
X27234Y561762D01*
X28384Y563199D01*
X29569Y564608D01*
X30789Y565987D01*
X32041Y567336D01*
X33327Y568653D01*
X34644Y569939D01*
X35993Y571191D01*
X37372Y572411D01*
X38781Y573596D01*
X40218Y574746D01*
X41683Y575861D01*
X43174Y576939D01*
X44692Y577980D01*
X46235Y578984D01*
X47802Y579950D01*
X49393Y580877D01*
X51005Y581764D01*
X52639Y582612D01*
X54293Y583419D01*
X55967Y584186D01*
X57659Y584911D01*
X59368Y585594D01*
X61093Y586236D01*
X62834Y586835D01*
X64589Y587391D01*
X66357Y587903D01*
X68136Y588372D01*
X69927Y588798D01*
X71728Y589179D01*
X73538Y589516D01*
X75355Y589808D01*
X77179Y590056D01*
X79009Y590259D01*
X80843Y590417D01*
X82680Y590530D01*
X84519Y590597D01*
X86360Y590620D01*
X88201Y590597D01*
X90040Y590530D01*
X91877Y590417D01*
X93711Y590259D01*
X95541Y590056D01*
X97365Y589808D01*
X99182Y589516D01*
X100992Y589179D01*
X102793Y588798D01*
X104584Y588372D01*
X106363Y587903D01*
X108131Y587391D01*
X109886Y586835D01*
X111627Y586236D01*
X113352Y585594D01*
X115061Y584911D01*
X116753Y584186D01*
X118427Y583419D01*
X120081Y582612D01*
X121715Y581764D01*
X123327Y580877D01*
X124918Y579950D01*
X126485Y578984D01*
X128028Y577980D01*
X129546Y576939D01*
X131037Y575861D01*
X132502Y574746D01*
X133939Y573596D01*
X135348Y572411D01*
X136727Y571191D01*
X138076Y569939D01*
X139393Y568653D01*
X140679Y567336D01*
X141931Y565987D01*
X143151Y564608D01*
X144336Y563199D01*
X145486Y561762D01*
X146601Y560297D01*
X147679Y558806D01*
X148720Y557288D01*
X149724Y555745D01*
X150690Y554178D01*
X151617Y552587D01*
X152504Y550975D01*
X153352Y549341D01*
X154159Y547687D01*
X154926Y546013D01*
X155651Y544321D01*
X156334Y542612D01*
X156976Y540887D01*
X157575Y539146D01*
X158131Y537391D01*
X158643Y535623D01*
X159112Y533844D01*
X159538Y532053D01*
X159919Y530252D01*
X160256Y528442D01*
X160548Y526625D01*
X160796Y524801D01*
X160999Y522971D01*
X161157Y521137D01*
X161270Y519300D01*
X161337Y517461D01*
X161360Y515620D01*
X161337Y513779D01*
X161270Y511940D01*
X161157Y510103D01*
X160999Y508269D01*
X160796Y506439D01*
X160548Y504615D01*
X160256Y502798D01*
X159919Y500988D01*
X159538Y499187D01*
X159112Y497396D01*
X158643Y495617D01*
X158131Y493849D01*
X157575Y492094D01*
X156976Y490353D01*
X156334Y488628D01*
X155651Y486919D01*
X154926Y485227D01*
X154159Y483553D01*
X153352Y481899D01*
X152504Y480265D01*
X151617Y478653D01*
X150690Y477062D01*
X149724Y475495D01*
X148720Y473952D01*
X147679Y472434D01*
X146601Y470943D01*
X145486Y469478D01*
X144336Y468041D01*
X143151Y466632D01*
X141931Y465253D01*
X140679Y463904D01*
X139393Y462587D01*
X138076Y461301D01*
X136727Y460049D01*
X135348Y458829D01*
X133939Y457644D01*
X132502Y456494D01*
X131037Y455379D01*
X129546Y454301D01*
X128028Y453260D01*
X126485Y452256D01*
X124918Y451290D01*
X123327Y450363D01*
X121715Y449476D01*
X120081Y448628D01*
X118427Y447821D01*
X116753Y447054D01*
X115061Y446329D01*
X113352Y445646D01*
X111627Y445004D01*
X109886Y444405D01*
X108131Y443849D01*
X106363Y443337D01*
X104584Y442868D01*
X102793Y442442D01*
X100992Y442061D01*
X99182Y441724D01*
X97365Y441432D01*
X95541Y441184D01*
X93711Y440981D01*
X91877Y440823D01*
X90040Y440710D01*
X88201Y440643D01*
X86360Y440620D01*
X84519Y440643D01*
X82680Y440710D01*
X80843Y440823D01*
X79009Y440981D01*
X77179Y441184D01*
X75355Y441432D01*
X73538Y441724D01*
X71728Y442061D01*
X69927Y442442D01*
X68136Y442868D01*
X66357Y443337D01*
X64589Y443849D01*
X62834Y444405D01*
X61093Y445004D01*
X59368Y445646D01*
X57659Y446329D01*
X55967Y447054D01*
X54293Y447821D01*
X52639Y448628D01*
X51005Y449476D01*
X49393Y450363D01*
X47802Y451290D01*
X46235Y452256D01*
X44692Y453260D01*
X43174Y454301D01*
X41683Y455379D01*
X40218Y456494D01*
X38781Y457644D01*
X37372Y458829D01*
X35993Y460049D01*
X34644Y461301D01*
X33327Y462587D01*
X32041Y463904D01*
X30789Y465253D01*
X29569Y466632D01*
X28384Y468041D01*
X27234Y469478D01*
X26119Y470943D01*
X25041Y472434D01*
X24000Y473952D01*
X22996Y475495D01*
X22030Y477062D01*
X21103Y478653D01*
X20216Y480265D01*
X19368Y481899D01*
X18561Y483553D01*
X17794Y485227D01*
X17069Y486919D01*
X16386Y488628D01*
X15744Y490353D01*
X15145Y492094D01*
X14589Y493849D01*
X14077Y495617D01*
X13608Y497396D01*
X13182Y499187D01*
X12801Y500988D01*
X12464Y502798D01*
X12172Y504615D01*
X11924Y506439D01*
X11721Y508269D01*
X11563Y510103D01*
X11450Y511940D01*
X11383Y513779D01*
X11360Y515620D01*
D10*
X15621Y582041D02*
X21886Y591439D01*
X15621Y591439D02*
X21886Y582041D01*
X25287Y589351D02*
X27898Y591439D01*
X27898Y582041D01*
X30508Y582041D02*
X25287Y582041D01*
X34431Y586740D02*
X34433Y586925D01*
X34440Y587110D01*
X34451Y587294D01*
X34466Y587478D01*
X34486Y587662D01*
X34510Y587846D01*
X34539Y588028D01*
X34572Y588210D01*
X34609Y588391D01*
X34651Y588571D01*
X34697Y588751D01*
X34747Y588929D01*
X34801Y589105D01*
X34860Y589281D01*
X34922Y589455D01*
X34989Y589627D01*
X35060Y589798D01*
X35135Y589967D01*
X35214Y590134D01*
X35244Y590214D01*
X35277Y590293D01*
X35314Y590370D01*
X35354Y590446D01*
X35397Y590520D01*
X35443Y590592D01*
X35493Y590661D01*
X35545Y590729D01*
X35601Y590794D01*
X35659Y590857D01*
X35721Y590916D01*
X35784Y590974D01*
X35851Y591028D01*
X35919Y591079D01*
X35990Y591127D01*
X36063Y591172D01*
X36137Y591214D01*
X36214Y591252D01*
X36292Y591287D01*
X36371Y591319D01*
X36452Y591347D01*
X36534Y591371D01*
X36618Y591392D01*
X36701Y591409D01*
X36786Y591422D01*
X36871Y591431D01*
X36956Y591437D01*
X37042Y591439D01*
X37128Y591437D01*
X37213Y591431D01*
X37298Y591422D01*
X37383Y591409D01*
X37466Y591392D01*
X37550Y591371D01*
X37632Y591347D01*
X37713Y591319D01*
X37792Y591287D01*
X37870Y591252D01*
X37947Y591214D01*
X38021Y591172D01*
X38094Y591127D01*
X38165Y591079D01*
X38233Y591028D01*
X38300Y590974D01*
X38363Y590916D01*
X38425Y590857D01*
X38483Y590794D01*
X38539Y590729D01*
X38591Y590661D01*
X38641Y590592D01*
X38687Y590520D01*
X38730Y590446D01*
X38770Y590370D01*
X38807Y590293D01*
X38840Y590214D01*
X38870Y590134D01*
X38869Y590134D02*
X38948Y589967D01*
X39023Y589798D01*
X39094Y589627D01*
X39161Y589455D01*
X39223Y589281D01*
X39282Y589105D01*
X39336Y588929D01*
X39386Y588751D01*
X39432Y588571D01*
X39474Y588391D01*
X39511Y588210D01*
X39544Y588028D01*
X39573Y587846D01*
X39597Y587662D01*
X39617Y587478D01*
X39632Y587294D01*
X39643Y587110D01*
X39650Y586925D01*
X39652Y586740D01*
X34431Y586740D02*
X34433Y586555D01*
X34440Y586370D01*
X34451Y586186D01*
X34466Y586002D01*
X34486Y585818D01*
X34510Y585634D01*
X34539Y585452D01*
X34572Y585270D01*
X34609Y585089D01*
X34651Y584909D01*
X34697Y584729D01*
X34747Y584551D01*
X34801Y584375D01*
X34860Y584199D01*
X34922Y584025D01*
X34989Y583853D01*
X35060Y583682D01*
X35135Y583513D01*
X35214Y583346D01*
X35244Y583266D01*
X35277Y583187D01*
X35314Y583110D01*
X35354Y583034D01*
X35397Y582960D01*
X35443Y582888D01*
X35493Y582819D01*
X35546Y582751D01*
X35601Y582686D01*
X35660Y582623D01*
X35721Y582564D01*
X35784Y582506D01*
X35851Y582452D01*
X35919Y582401D01*
X35990Y582353D01*
X36063Y582308D01*
X36137Y582266D01*
X36214Y582228D01*
X36292Y582193D01*
X36371Y582161D01*
X36452Y582133D01*
X36534Y582109D01*
X36618Y582088D01*
X36701Y582071D01*
X36786Y582058D01*
X36871Y582049D01*
X36956Y582043D01*
X37042Y582041D01*
X38869Y583346D02*
X38948Y583513D01*
X39023Y583682D01*
X39094Y583853D01*
X39161Y584025D01*
X39223Y584199D01*
X39282Y584375D01*
X39336Y584551D01*
X39386Y584729D01*
X39432Y584909D01*
X39474Y585089D01*
X39511Y585270D01*
X39544Y585452D01*
X39573Y585634D01*
X39597Y585818D01*
X39617Y586002D01*
X39632Y586186D01*
X39643Y586370D01*
X39650Y586555D01*
X39652Y586740D01*
X38870Y583346D02*
X38840Y583266D01*
X38807Y583187D01*
X38770Y583110D01*
X38730Y583034D01*
X38687Y582960D01*
X38641Y582888D01*
X38591Y582819D01*
X38539Y582751D01*
X38483Y582686D01*
X38425Y582623D01*
X38363Y582564D01*
X38300Y582506D01*
X38233Y582452D01*
X38165Y582401D01*
X38094Y582353D01*
X38021Y582308D01*
X37947Y582266D01*
X37870Y582228D01*
X37792Y582193D01*
X37713Y582161D01*
X37632Y582133D01*
X37550Y582109D01*
X37466Y582088D01*
X37383Y582071D01*
X37298Y582058D01*
X37213Y582049D01*
X37128Y582043D01*
X37042Y582041D01*
X34953Y584129D02*
X39130Y589351D01*
X46447Y591440D02*
X46542Y591438D01*
X46636Y591432D01*
X46730Y591423D01*
X46824Y591410D01*
X46917Y591393D01*
X47009Y591372D01*
X47101Y591347D01*
X47191Y591319D01*
X47280Y591287D01*
X47368Y591252D01*
X47454Y591213D01*
X47539Y591171D01*
X47622Y591125D01*
X47703Y591076D01*
X47782Y591024D01*
X47859Y590969D01*
X47933Y590910D01*
X48005Y590849D01*
X48075Y590785D01*
X48142Y590718D01*
X48206Y590648D01*
X48267Y590576D01*
X48326Y590502D01*
X48381Y590425D01*
X48433Y590346D01*
X48482Y590265D01*
X48528Y590182D01*
X48570Y590097D01*
X48609Y590011D01*
X48644Y589923D01*
X48676Y589834D01*
X48704Y589744D01*
X48729Y589652D01*
X48750Y589560D01*
X48767Y589467D01*
X48780Y589373D01*
X48789Y589279D01*
X48795Y589185D01*
X48797Y589090D01*
X46447Y591439D02*
X46339Y591437D01*
X46230Y591431D01*
X46122Y591421D01*
X46015Y591408D01*
X45908Y591390D01*
X45801Y591369D01*
X45696Y591344D01*
X45591Y591315D01*
X45488Y591283D01*
X45386Y591246D01*
X45285Y591206D01*
X45186Y591163D01*
X45088Y591116D01*
X44992Y591065D01*
X44898Y591011D01*
X44806Y590954D01*
X44716Y590893D01*
X44628Y590829D01*
X44543Y590763D01*
X44460Y590693D01*
X44380Y590620D01*
X44302Y590544D01*
X44227Y590466D01*
X44155Y590385D01*
X44086Y590301D01*
X44020Y590215D01*
X43957Y590127D01*
X43898Y590036D01*
X43841Y589944D01*
X43788Y589849D01*
X43739Y589753D01*
X43693Y589654D01*
X43650Y589555D01*
X43611Y589453D01*
X43576Y589351D01*
X48013Y587262D02*
X48082Y587331D01*
X48148Y587402D01*
X48212Y587475D01*
X48273Y587551D01*
X48331Y587630D01*
X48385Y587710D01*
X48437Y587793D01*
X48485Y587877D01*
X48531Y587963D01*
X48572Y588051D01*
X48611Y588141D01*
X48646Y588232D01*
X48677Y588324D01*
X48705Y588417D01*
X48729Y588511D01*
X48749Y588606D01*
X48766Y588702D01*
X48779Y588799D01*
X48788Y588896D01*
X48794Y588993D01*
X48796Y589090D01*
X48013Y587262D02*
X43575Y582041D01*
X48796Y582041D01*
X79121Y869061D02*
X85386Y878459D01*
X79121Y878459D02*
X85386Y869061D01*
X88787Y876371D02*
X91398Y878459D01*
X91398Y869061D01*
X94008Y869061D02*
X88787Y869061D01*
X97931Y873760D02*
X97933Y873945D01*
X97940Y874130D01*
X97951Y874314D01*
X97966Y874498D01*
X97986Y874682D01*
X98010Y874866D01*
X98039Y875048D01*
X98072Y875230D01*
X98109Y875411D01*
X98151Y875591D01*
X98197Y875771D01*
X98247Y875949D01*
X98301Y876125D01*
X98360Y876301D01*
X98422Y876475D01*
X98489Y876647D01*
X98560Y876818D01*
X98635Y876987D01*
X98714Y877154D01*
X98744Y877234D01*
X98777Y877313D01*
X98814Y877390D01*
X98854Y877466D01*
X98897Y877540D01*
X98943Y877612D01*
X98993Y877681D01*
X99045Y877749D01*
X99101Y877814D01*
X99159Y877877D01*
X99221Y877936D01*
X99284Y877994D01*
X99351Y878048D01*
X99419Y878099D01*
X99490Y878147D01*
X99563Y878192D01*
X99637Y878234D01*
X99714Y878272D01*
X99792Y878307D01*
X99871Y878339D01*
X99952Y878367D01*
X100034Y878391D01*
X100118Y878412D01*
X100201Y878429D01*
X100286Y878442D01*
X100371Y878451D01*
X100456Y878457D01*
X100542Y878459D01*
X100628Y878457D01*
X100713Y878451D01*
X100798Y878442D01*
X100883Y878429D01*
X100966Y878412D01*
X101050Y878391D01*
X101132Y878367D01*
X101213Y878339D01*
X101292Y878307D01*
X101370Y878272D01*
X101447Y878234D01*
X101521Y878192D01*
X101594Y878147D01*
X101665Y878099D01*
X101733Y878048D01*
X101800Y877994D01*
X101863Y877936D01*
X101925Y877877D01*
X101983Y877814D01*
X102039Y877749D01*
X102091Y877681D01*
X102141Y877612D01*
X102187Y877540D01*
X102230Y877466D01*
X102270Y877390D01*
X102307Y877313D01*
X102340Y877234D01*
X102370Y877154D01*
X102369Y877154D02*
X102448Y876987D01*
X102523Y876818D01*
X102594Y876647D01*
X102661Y876475D01*
X102723Y876301D01*
X102782Y876125D01*
X102836Y875949D01*
X102886Y875771D01*
X102932Y875591D01*
X102974Y875411D01*
X103011Y875230D01*
X103044Y875048D01*
X103073Y874866D01*
X103097Y874682D01*
X103117Y874498D01*
X103132Y874314D01*
X103143Y874130D01*
X103150Y873945D01*
X103152Y873760D01*
X97931Y873760D02*
X97933Y873575D01*
X97940Y873390D01*
X97951Y873206D01*
X97966Y873022D01*
X97986Y872838D01*
X98010Y872654D01*
X98039Y872472D01*
X98072Y872290D01*
X98109Y872109D01*
X98151Y871929D01*
X98197Y871749D01*
X98247Y871571D01*
X98301Y871395D01*
X98360Y871219D01*
X98422Y871045D01*
X98489Y870873D01*
X98560Y870702D01*
X98635Y870533D01*
X98714Y870366D01*
X98744Y870286D01*
X98777Y870207D01*
X98814Y870130D01*
X98854Y870054D01*
X98897Y869980D01*
X98943Y869908D01*
X98993Y869839D01*
X99046Y869771D01*
X99101Y869706D01*
X99160Y869643D01*
X99221Y869584D01*
X99284Y869526D01*
X99351Y869472D01*
X99419Y869421D01*
X99490Y869373D01*
X99563Y869328D01*
X99637Y869286D01*
X99714Y869248D01*
X99792Y869213D01*
X99871Y869181D01*
X99952Y869153D01*
X100034Y869129D01*
X100118Y869108D01*
X100201Y869091D01*
X100286Y869078D01*
X100371Y869069D01*
X100456Y869063D01*
X100542Y869061D01*
X102369Y870366D02*
X102448Y870533D01*
X102523Y870702D01*
X102594Y870873D01*
X102661Y871045D01*
X102723Y871219D01*
X102782Y871395D01*
X102836Y871571D01*
X102886Y871749D01*
X102932Y871929D01*
X102974Y872109D01*
X103011Y872290D01*
X103044Y872472D01*
X103073Y872654D01*
X103097Y872838D01*
X103117Y873022D01*
X103132Y873206D01*
X103143Y873390D01*
X103150Y873575D01*
X103152Y873760D01*
X102370Y870366D02*
X102340Y870286D01*
X102307Y870207D01*
X102270Y870130D01*
X102230Y870054D01*
X102187Y869980D01*
X102141Y869908D01*
X102091Y869839D01*
X102039Y869771D01*
X101983Y869706D01*
X101925Y869643D01*
X101863Y869584D01*
X101800Y869526D01*
X101733Y869472D01*
X101665Y869421D01*
X101594Y869373D01*
X101521Y869328D01*
X101447Y869286D01*
X101370Y869248D01*
X101292Y869213D01*
X101213Y869181D01*
X101132Y869153D01*
X101050Y869129D01*
X100966Y869108D01*
X100883Y869091D01*
X100798Y869078D01*
X100713Y869069D01*
X100628Y869063D01*
X100542Y869061D01*
X98453Y871149D02*
X102630Y876371D01*
X107075Y876371D02*
X109686Y878459D01*
X109686Y869061D01*
X112296Y869061D02*
X107075Y869061D01*
D11*
X88138Y435102D02*
X88138Y423418D01*
X88138Y435102D02*
X91384Y435102D01*
X91497Y435100D01*
X91610Y435094D01*
X91723Y435084D01*
X91836Y435070D01*
X91948Y435053D01*
X92059Y435031D01*
X92169Y435006D01*
X92279Y434976D01*
X92387Y434943D01*
X92494Y434906D01*
X92600Y434866D01*
X92704Y434821D01*
X92807Y434773D01*
X92908Y434722D01*
X93007Y434667D01*
X93104Y434609D01*
X93199Y434547D01*
X93292Y434482D01*
X93382Y434414D01*
X93470Y434343D01*
X93556Y434268D01*
X93639Y434191D01*
X93719Y434111D01*
X93796Y434028D01*
X93871Y433942D01*
X93942Y433854D01*
X94010Y433764D01*
X94075Y433671D01*
X94137Y433576D01*
X94195Y433479D01*
X94250Y433380D01*
X94301Y433279D01*
X94349Y433176D01*
X94394Y433072D01*
X94434Y432966D01*
X94471Y432859D01*
X94504Y432751D01*
X94534Y432641D01*
X94559Y432531D01*
X94581Y432420D01*
X94598Y432308D01*
X94612Y432195D01*
X94622Y432082D01*
X94628Y431969D01*
X94630Y431856D01*
X94628Y431743D01*
X94622Y431630D01*
X94612Y431517D01*
X94598Y431404D01*
X94581Y431292D01*
X94559Y431181D01*
X94534Y431071D01*
X94504Y430961D01*
X94471Y430853D01*
X94434Y430746D01*
X94394Y430640D01*
X94349Y430536D01*
X94301Y430433D01*
X94250Y430332D01*
X94195Y430233D01*
X94137Y430136D01*
X94075Y430041D01*
X94010Y429948D01*
X93942Y429858D01*
X93871Y429770D01*
X93796Y429684D01*
X93719Y429601D01*
X93639Y429521D01*
X93556Y429444D01*
X93470Y429369D01*
X93382Y429298D01*
X93292Y429230D01*
X93199Y429165D01*
X93104Y429103D01*
X93007Y429045D01*
X92908Y428990D01*
X92807Y428939D01*
X92704Y428891D01*
X92600Y428846D01*
X92494Y428806D01*
X92387Y428769D01*
X92279Y428736D01*
X92169Y428706D01*
X92059Y428681D01*
X91948Y428659D01*
X91836Y428642D01*
X91723Y428628D01*
X91610Y428618D01*
X91497Y428612D01*
X91384Y428610D01*
X91384Y428611D02*
X88138Y428611D01*
X92033Y428611D02*
X94629Y423418D01*
X99494Y432506D02*
X102740Y435102D01*
X102740Y423418D01*
X105985Y423418D02*
X99494Y423418D01*
X110925Y429260D02*
X110928Y429490D01*
X110936Y429720D01*
X110950Y429949D01*
X110969Y430178D01*
X110994Y430407D01*
X111024Y430634D01*
X111059Y430862D01*
X111100Y431088D01*
X111146Y431313D01*
X111198Y431537D01*
X111255Y431759D01*
X111317Y431981D01*
X111385Y432200D01*
X111458Y432418D01*
X111536Y432635D01*
X111619Y432849D01*
X111707Y433061D01*
X111800Y433271D01*
X111899Y433479D01*
X111898Y433479D02*
X111931Y433569D01*
X111967Y433658D01*
X112007Y433746D01*
X112051Y433831D01*
X112098Y433915D01*
X112148Y433997D01*
X112202Y434077D01*
X112258Y434154D01*
X112318Y434230D01*
X112381Y434303D01*
X112446Y434373D01*
X112515Y434441D01*
X112586Y434505D01*
X112659Y434567D01*
X112735Y434626D01*
X112813Y434682D01*
X112894Y434735D01*
X112976Y434784D01*
X113060Y434830D01*
X113147Y434873D01*
X113234Y434912D01*
X113324Y434948D01*
X113414Y434980D01*
X113506Y435008D01*
X113599Y435033D01*
X113693Y435054D01*
X113787Y435071D01*
X113882Y435085D01*
X113978Y435094D01*
X114074Y435100D01*
X114170Y435102D01*
X114266Y435100D01*
X114362Y435094D01*
X114458Y435085D01*
X114553Y435071D01*
X114647Y435054D01*
X114741Y435033D01*
X114834Y435008D01*
X114926Y434980D01*
X115016Y434948D01*
X115106Y434912D01*
X115193Y434873D01*
X115280Y434830D01*
X115364Y434784D01*
X115446Y434735D01*
X115527Y434682D01*
X115605Y434626D01*
X115681Y434567D01*
X115754Y434505D01*
X115825Y434441D01*
X115894Y434373D01*
X115959Y434303D01*
X116022Y434230D01*
X116082Y434154D01*
X116138Y434077D01*
X116192Y433997D01*
X116242Y433915D01*
X116289Y433831D01*
X116333Y433746D01*
X116373Y433658D01*
X116409Y433569D01*
X116442Y433479D01*
X116541Y433272D01*
X116634Y433062D01*
X116722Y432849D01*
X116805Y432635D01*
X116883Y432419D01*
X116956Y432201D01*
X117024Y431981D01*
X117086Y431760D01*
X117143Y431537D01*
X117195Y431313D01*
X117241Y431088D01*
X117282Y430862D01*
X117317Y430635D01*
X117347Y430407D01*
X117372Y430178D01*
X117391Y429949D01*
X117405Y429720D01*
X117413Y429490D01*
X117416Y429260D01*
X110924Y429260D02*
X110927Y429030D01*
X110935Y428800D01*
X110949Y428571D01*
X110968Y428342D01*
X110993Y428113D01*
X111023Y427885D01*
X111058Y427658D01*
X111099Y427432D01*
X111145Y427207D01*
X111197Y426983D01*
X111254Y426760D01*
X111316Y426539D01*
X111384Y426319D01*
X111457Y426101D01*
X111535Y425885D01*
X111618Y425671D01*
X111706Y425459D01*
X111799Y425248D01*
X111898Y425041D01*
X111931Y424951D01*
X111967Y424862D01*
X112008Y424774D01*
X112051Y424689D01*
X112098Y424605D01*
X112148Y424523D01*
X112202Y424443D01*
X112258Y424366D01*
X112318Y424290D01*
X112381Y424217D01*
X112446Y424147D01*
X112515Y424079D01*
X112586Y424015D01*
X112659Y423953D01*
X112735Y423894D01*
X112813Y423838D01*
X112894Y423785D01*
X112976Y423736D01*
X113060Y423690D01*
X113147Y423647D01*
X113234Y423608D01*
X113324Y423572D01*
X113414Y423540D01*
X113506Y423512D01*
X113599Y423487D01*
X113693Y423466D01*
X113787Y423449D01*
X113882Y423435D01*
X113978Y423426D01*
X114074Y423420D01*
X114170Y423418D01*
X116442Y425041D02*
X116541Y425248D01*
X116634Y425459D01*
X116722Y425671D01*
X116805Y425885D01*
X116883Y426101D01*
X116956Y426319D01*
X117024Y426539D01*
X117086Y426760D01*
X117143Y426983D01*
X117195Y427207D01*
X117241Y427432D01*
X117282Y427658D01*
X117317Y427885D01*
X117347Y428113D01*
X117372Y428342D01*
X117391Y428571D01*
X117405Y428800D01*
X117413Y429030D01*
X117416Y429260D01*
X116442Y425041D02*
X116409Y424951D01*
X116373Y424862D01*
X116333Y424774D01*
X116289Y424689D01*
X116242Y424605D01*
X116192Y424523D01*
X116138Y424443D01*
X116082Y424366D01*
X116022Y424290D01*
X115959Y424217D01*
X115894Y424147D01*
X115825Y424079D01*
X115754Y424015D01*
X115681Y423953D01*
X115605Y423894D01*
X115527Y423838D01*
X115446Y423785D01*
X115364Y423736D01*
X115280Y423690D01*
X115193Y423647D01*
X115106Y423608D01*
X115016Y423572D01*
X114926Y423540D01*
X114834Y423512D01*
X114741Y423487D01*
X114647Y423466D01*
X114553Y423449D01*
X114458Y423435D01*
X114362Y423426D01*
X114266Y423420D01*
X114170Y423418D01*
X111573Y426014D02*
X116766Y432506D01*
X122354Y423418D02*
X126249Y423418D01*
X126348Y423420D01*
X126448Y423426D01*
X126547Y423435D01*
X126645Y423448D01*
X126743Y423465D01*
X126841Y423486D01*
X126937Y423511D01*
X127032Y423539D01*
X127126Y423571D01*
X127219Y423606D01*
X127311Y423645D01*
X127401Y423688D01*
X127489Y423733D01*
X127576Y423783D01*
X127660Y423835D01*
X127743Y423891D01*
X127823Y423949D01*
X127901Y424011D01*
X127976Y424076D01*
X128049Y424144D01*
X128119Y424214D01*
X128187Y424287D01*
X128252Y424362D01*
X128314Y424440D01*
X128372Y424520D01*
X128428Y424603D01*
X128480Y424687D01*
X128530Y424774D01*
X128575Y424862D01*
X128618Y424952D01*
X128657Y425044D01*
X128692Y425137D01*
X128724Y425231D01*
X128752Y425326D01*
X128777Y425422D01*
X128798Y425520D01*
X128815Y425618D01*
X128828Y425716D01*
X128837Y425815D01*
X128843Y425915D01*
X128845Y426014D01*
X128845Y427313D01*
X128843Y427412D01*
X128837Y427512D01*
X128828Y427611D01*
X128815Y427709D01*
X128798Y427807D01*
X128777Y427905D01*
X128752Y428001D01*
X128724Y428096D01*
X128692Y428190D01*
X128657Y428283D01*
X128618Y428375D01*
X128575Y428465D01*
X128530Y428553D01*
X128480Y428640D01*
X128428Y428724D01*
X128372Y428807D01*
X128314Y428887D01*
X128252Y428965D01*
X128187Y429040D01*
X128119Y429113D01*
X128049Y429183D01*
X127976Y429251D01*
X127901Y429316D01*
X127823Y429378D01*
X127743Y429436D01*
X127660Y429492D01*
X127576Y429544D01*
X127489Y429594D01*
X127401Y429639D01*
X127311Y429682D01*
X127219Y429721D01*
X127126Y429756D01*
X127032Y429788D01*
X126937Y429816D01*
X126841Y429841D01*
X126743Y429862D01*
X126645Y429879D01*
X126547Y429892D01*
X126448Y429901D01*
X126348Y429907D01*
X126249Y429909D01*
X122354Y429909D01*
X122354Y435102D01*
X128845Y435102D01*
X164338Y522478D02*
X176022Y522478D01*
X164338Y522478D02*
X164338Y525724D01*
X164340Y525837D01*
X164346Y525950D01*
X164356Y526063D01*
X164370Y526176D01*
X164387Y526288D01*
X164409Y526399D01*
X164434Y526509D01*
X164464Y526619D01*
X164497Y526727D01*
X164534Y526834D01*
X164574Y526940D01*
X164619Y527044D01*
X164667Y527147D01*
X164718Y527248D01*
X164773Y527347D01*
X164831Y527444D01*
X164893Y527539D01*
X164958Y527632D01*
X165026Y527722D01*
X165097Y527810D01*
X165172Y527896D01*
X165249Y527979D01*
X165329Y528059D01*
X165412Y528136D01*
X165498Y528211D01*
X165586Y528282D01*
X165676Y528350D01*
X165769Y528415D01*
X165864Y528477D01*
X165961Y528535D01*
X166060Y528590D01*
X166161Y528641D01*
X166264Y528689D01*
X166368Y528734D01*
X166474Y528774D01*
X166581Y528811D01*
X166689Y528844D01*
X166799Y528874D01*
X166909Y528899D01*
X167020Y528921D01*
X167132Y528938D01*
X167245Y528952D01*
X167358Y528962D01*
X167471Y528968D01*
X167584Y528970D01*
X167697Y528968D01*
X167810Y528962D01*
X167923Y528952D01*
X168036Y528938D01*
X168148Y528921D01*
X168259Y528899D01*
X168369Y528874D01*
X168479Y528844D01*
X168587Y528811D01*
X168694Y528774D01*
X168800Y528734D01*
X168904Y528689D01*
X169007Y528641D01*
X169108Y528590D01*
X169207Y528535D01*
X169304Y528477D01*
X169399Y528415D01*
X169492Y528350D01*
X169582Y528282D01*
X169670Y528211D01*
X169756Y528136D01*
X169839Y528059D01*
X169919Y527979D01*
X169996Y527896D01*
X170071Y527810D01*
X170142Y527722D01*
X170210Y527632D01*
X170275Y527539D01*
X170337Y527444D01*
X170395Y527347D01*
X170450Y527248D01*
X170501Y527147D01*
X170549Y527044D01*
X170594Y526940D01*
X170634Y526834D01*
X170671Y526727D01*
X170704Y526619D01*
X170734Y526509D01*
X170759Y526399D01*
X170781Y526288D01*
X170798Y526176D01*
X170812Y526063D01*
X170822Y525950D01*
X170828Y525837D01*
X170830Y525724D01*
X170829Y525724D02*
X170829Y522478D01*
X170829Y526373D02*
X176022Y528969D01*
X166934Y533834D02*
X164338Y537080D01*
X176022Y537080D01*
X176022Y540325D02*
X176022Y533834D01*
X170180Y545264D02*
X169950Y545267D01*
X169720Y545275D01*
X169491Y545289D01*
X169262Y545308D01*
X169033Y545333D01*
X168805Y545363D01*
X168578Y545398D01*
X168352Y545439D01*
X168127Y545485D01*
X167903Y545537D01*
X167680Y545594D01*
X167459Y545656D01*
X167239Y545724D01*
X167021Y545797D01*
X166805Y545875D01*
X166591Y545958D01*
X166379Y546046D01*
X166168Y546139D01*
X165961Y546238D01*
X165871Y546271D01*
X165782Y546307D01*
X165694Y546347D01*
X165609Y546391D01*
X165525Y546438D01*
X165443Y546488D01*
X165363Y546542D01*
X165286Y546598D01*
X165210Y546658D01*
X165137Y546721D01*
X165067Y546786D01*
X164999Y546855D01*
X164935Y546926D01*
X164873Y546999D01*
X164814Y547075D01*
X164758Y547153D01*
X164705Y547234D01*
X164656Y547316D01*
X164610Y547400D01*
X164567Y547487D01*
X164528Y547574D01*
X164492Y547664D01*
X164460Y547754D01*
X164432Y547846D01*
X164407Y547939D01*
X164386Y548033D01*
X164369Y548127D01*
X164355Y548222D01*
X164346Y548318D01*
X164340Y548414D01*
X164338Y548510D01*
X164340Y548606D01*
X164346Y548702D01*
X164355Y548798D01*
X164369Y548893D01*
X164386Y548987D01*
X164407Y549081D01*
X164432Y549174D01*
X164460Y549266D01*
X164492Y549356D01*
X164528Y549446D01*
X164567Y549534D01*
X164610Y549620D01*
X164656Y549704D01*
X164705Y549786D01*
X164758Y549867D01*
X164814Y549945D01*
X164873Y550021D01*
X164935Y550094D01*
X164999Y550165D01*
X165067Y550234D01*
X165137Y550299D01*
X165210Y550362D01*
X165286Y550422D01*
X165363Y550478D01*
X165443Y550532D01*
X165525Y550582D01*
X165609Y550629D01*
X165694Y550673D01*
X165782Y550713D01*
X165871Y550749D01*
X165961Y550782D01*
X166168Y550881D01*
X166379Y550974D01*
X166591Y551062D01*
X166805Y551145D01*
X167021Y551223D01*
X167239Y551296D01*
X167459Y551364D01*
X167680Y551426D01*
X167903Y551483D01*
X168127Y551535D01*
X168352Y551581D01*
X168578Y551622D01*
X168805Y551657D01*
X169033Y551687D01*
X169262Y551712D01*
X169491Y551731D01*
X169720Y551745D01*
X169950Y551753D01*
X170180Y551756D01*
X170180Y545264D02*
X170410Y545267D01*
X170640Y545275D01*
X170869Y545289D01*
X171098Y545308D01*
X171327Y545333D01*
X171555Y545363D01*
X171782Y545398D01*
X172008Y545439D01*
X172233Y545485D01*
X172457Y545537D01*
X172680Y545594D01*
X172901Y545656D01*
X173121Y545724D01*
X173339Y545797D01*
X173555Y545875D01*
X173769Y545958D01*
X173981Y546046D01*
X174192Y546139D01*
X174399Y546238D01*
X174489Y546271D01*
X174578Y546307D01*
X174666Y546348D01*
X174751Y546391D01*
X174835Y546438D01*
X174917Y546488D01*
X174997Y546542D01*
X175074Y546598D01*
X175150Y546658D01*
X175223Y546721D01*
X175293Y546786D01*
X175361Y546855D01*
X175425Y546926D01*
X175487Y546999D01*
X175546Y547075D01*
X175602Y547153D01*
X175655Y547234D01*
X175704Y547316D01*
X175750Y547400D01*
X175793Y547487D01*
X175832Y547574D01*
X175868Y547664D01*
X175900Y547754D01*
X175928Y547846D01*
X175953Y547939D01*
X175974Y548033D01*
X175991Y548127D01*
X176005Y548222D01*
X176014Y548318D01*
X176020Y548414D01*
X176022Y548510D01*
X174399Y550782D02*
X174192Y550881D01*
X173981Y550974D01*
X173769Y551062D01*
X173555Y551145D01*
X173339Y551223D01*
X173121Y551296D01*
X172901Y551364D01*
X172680Y551426D01*
X172457Y551483D01*
X172233Y551535D01*
X172008Y551581D01*
X171782Y551622D01*
X171555Y551657D01*
X171327Y551687D01*
X171098Y551712D01*
X170869Y551731D01*
X170640Y551745D01*
X170410Y551753D01*
X170180Y551756D01*
X174399Y550782D02*
X174489Y550749D01*
X174578Y550713D01*
X174666Y550673D01*
X174751Y550629D01*
X174835Y550582D01*
X174917Y550532D01*
X174997Y550478D01*
X175074Y550422D01*
X175150Y550362D01*
X175223Y550299D01*
X175293Y550234D01*
X175361Y550165D01*
X175425Y550094D01*
X175487Y550021D01*
X175546Y549945D01*
X175602Y549867D01*
X175655Y549786D01*
X175704Y549704D01*
X175750Y549620D01*
X175793Y549533D01*
X175832Y549446D01*
X175868Y549356D01*
X175900Y549266D01*
X175928Y549174D01*
X175953Y549081D01*
X175974Y548987D01*
X175991Y548893D01*
X176005Y548798D01*
X176014Y548702D01*
X176020Y548606D01*
X176022Y548510D01*
X173426Y545913D02*
X166934Y551106D01*
X176022Y556694D02*
X176022Y559940D01*
X176020Y560053D01*
X176014Y560166D01*
X176004Y560279D01*
X175990Y560392D01*
X175973Y560504D01*
X175951Y560615D01*
X175926Y560725D01*
X175896Y560835D01*
X175863Y560943D01*
X175826Y561050D01*
X175786Y561156D01*
X175741Y561260D01*
X175693Y561363D01*
X175642Y561464D01*
X175587Y561563D01*
X175529Y561660D01*
X175467Y561755D01*
X175402Y561848D01*
X175334Y561938D01*
X175263Y562026D01*
X175188Y562112D01*
X175111Y562195D01*
X175031Y562275D01*
X174948Y562352D01*
X174862Y562427D01*
X174774Y562498D01*
X174684Y562566D01*
X174591Y562631D01*
X174496Y562693D01*
X174399Y562751D01*
X174300Y562806D01*
X174199Y562857D01*
X174096Y562905D01*
X173992Y562950D01*
X173886Y562990D01*
X173779Y563027D01*
X173671Y563060D01*
X173561Y563090D01*
X173451Y563115D01*
X173340Y563137D01*
X173228Y563154D01*
X173115Y563168D01*
X173002Y563178D01*
X172889Y563184D01*
X172776Y563186D01*
X172663Y563184D01*
X172550Y563178D01*
X172437Y563168D01*
X172324Y563154D01*
X172212Y563137D01*
X172101Y563115D01*
X171991Y563090D01*
X171881Y563060D01*
X171773Y563027D01*
X171666Y562990D01*
X171560Y562950D01*
X171456Y562905D01*
X171353Y562857D01*
X171252Y562806D01*
X171153Y562751D01*
X171056Y562693D01*
X170961Y562631D01*
X170868Y562566D01*
X170778Y562498D01*
X170690Y562427D01*
X170604Y562352D01*
X170521Y562275D01*
X170441Y562195D01*
X170364Y562112D01*
X170289Y562026D01*
X170218Y561938D01*
X170150Y561848D01*
X170085Y561755D01*
X170023Y561660D01*
X169965Y561563D01*
X169910Y561464D01*
X169859Y561363D01*
X169811Y561260D01*
X169766Y561156D01*
X169726Y561050D01*
X169689Y560943D01*
X169656Y560835D01*
X169626Y560725D01*
X169601Y560615D01*
X169579Y560504D01*
X169562Y560392D01*
X169548Y560279D01*
X169538Y560166D01*
X169532Y560053D01*
X169530Y559940D01*
X164338Y560589D02*
X164338Y556694D01*
X164338Y560589D02*
X164340Y560690D01*
X164346Y560790D01*
X164356Y560890D01*
X164369Y560990D01*
X164387Y561089D01*
X164408Y561188D01*
X164433Y561285D01*
X164462Y561382D01*
X164495Y561477D01*
X164531Y561571D01*
X164571Y561663D01*
X164614Y561754D01*
X164661Y561843D01*
X164711Y561930D01*
X164765Y562016D01*
X164822Y562099D01*
X164882Y562179D01*
X164945Y562258D01*
X165012Y562334D01*
X165081Y562407D01*
X165153Y562477D01*
X165227Y562545D01*
X165304Y562610D01*
X165384Y562671D01*
X165466Y562730D01*
X165550Y562785D01*
X165636Y562837D01*
X165724Y562886D01*
X165814Y562931D01*
X165906Y562973D01*
X165999Y563011D01*
X166094Y563045D01*
X166189Y563076D01*
X166286Y563103D01*
X166384Y563126D01*
X166483Y563146D01*
X166583Y563161D01*
X166683Y563173D01*
X166783Y563181D01*
X166884Y563185D01*
X166984Y563185D01*
X167085Y563181D01*
X167185Y563173D01*
X167285Y563161D01*
X167385Y563146D01*
X167484Y563126D01*
X167582Y563103D01*
X167679Y563076D01*
X167774Y563045D01*
X167869Y563011D01*
X167962Y562973D01*
X168054Y562931D01*
X168144Y562886D01*
X168232Y562837D01*
X168318Y562785D01*
X168402Y562730D01*
X168484Y562671D01*
X168564Y562610D01*
X168641Y562545D01*
X168715Y562477D01*
X168787Y562407D01*
X168856Y562334D01*
X168923Y562258D01*
X168986Y562179D01*
X169046Y562099D01*
X169103Y562016D01*
X169157Y561930D01*
X169207Y561843D01*
X169254Y561754D01*
X169297Y561663D01*
X169337Y561571D01*
X169373Y561477D01*
X169406Y561382D01*
X169435Y561285D01*
X169460Y561188D01*
X169481Y561089D01*
X169499Y560990D01*
X169512Y560890D01*
X169522Y560790D01*
X169528Y560690D01*
X169530Y560589D01*
X169531Y560589D02*
X169531Y557993D01*
X85598Y221742D02*
X85598Y210058D01*
X85598Y221742D02*
X88844Y221742D01*
X88957Y221740D01*
X89070Y221734D01*
X89183Y221724D01*
X89296Y221710D01*
X89408Y221693D01*
X89519Y221671D01*
X89629Y221646D01*
X89739Y221616D01*
X89847Y221583D01*
X89954Y221546D01*
X90060Y221506D01*
X90164Y221461D01*
X90267Y221413D01*
X90368Y221362D01*
X90467Y221307D01*
X90564Y221249D01*
X90659Y221187D01*
X90752Y221122D01*
X90842Y221054D01*
X90930Y220983D01*
X91016Y220908D01*
X91099Y220831D01*
X91179Y220751D01*
X91256Y220668D01*
X91331Y220582D01*
X91402Y220494D01*
X91470Y220404D01*
X91535Y220311D01*
X91597Y220216D01*
X91655Y220119D01*
X91710Y220020D01*
X91761Y219919D01*
X91809Y219816D01*
X91854Y219712D01*
X91894Y219606D01*
X91931Y219499D01*
X91964Y219391D01*
X91994Y219281D01*
X92019Y219171D01*
X92041Y219060D01*
X92058Y218948D01*
X92072Y218835D01*
X92082Y218722D01*
X92088Y218609D01*
X92090Y218496D01*
X92088Y218383D01*
X92082Y218270D01*
X92072Y218157D01*
X92058Y218044D01*
X92041Y217932D01*
X92019Y217821D01*
X91994Y217711D01*
X91964Y217601D01*
X91931Y217493D01*
X91894Y217386D01*
X91854Y217280D01*
X91809Y217176D01*
X91761Y217073D01*
X91710Y216972D01*
X91655Y216873D01*
X91597Y216776D01*
X91535Y216681D01*
X91470Y216588D01*
X91402Y216498D01*
X91331Y216410D01*
X91256Y216324D01*
X91179Y216241D01*
X91099Y216161D01*
X91016Y216084D01*
X90930Y216009D01*
X90842Y215938D01*
X90752Y215870D01*
X90659Y215805D01*
X90564Y215743D01*
X90467Y215685D01*
X90368Y215630D01*
X90267Y215579D01*
X90164Y215531D01*
X90060Y215486D01*
X89954Y215446D01*
X89847Y215409D01*
X89739Y215376D01*
X89629Y215346D01*
X89519Y215321D01*
X89408Y215299D01*
X89296Y215282D01*
X89183Y215268D01*
X89070Y215258D01*
X88957Y215252D01*
X88844Y215250D01*
X88844Y215251D02*
X85598Y215251D01*
X89493Y215251D02*
X92089Y210058D01*
X96954Y219146D02*
X100200Y221742D01*
X100200Y210058D01*
X103445Y210058D02*
X96954Y210058D01*
X108385Y215900D02*
X108388Y216130D01*
X108396Y216360D01*
X108410Y216589D01*
X108429Y216818D01*
X108454Y217047D01*
X108484Y217274D01*
X108519Y217502D01*
X108560Y217728D01*
X108606Y217953D01*
X108658Y218177D01*
X108715Y218399D01*
X108777Y218621D01*
X108845Y218840D01*
X108918Y219058D01*
X108996Y219275D01*
X109079Y219489D01*
X109167Y219701D01*
X109260Y219911D01*
X109359Y220119D01*
X109358Y220119D02*
X109391Y220209D01*
X109427Y220298D01*
X109467Y220386D01*
X109511Y220471D01*
X109558Y220555D01*
X109608Y220637D01*
X109662Y220717D01*
X109718Y220794D01*
X109778Y220870D01*
X109841Y220943D01*
X109906Y221013D01*
X109975Y221081D01*
X110046Y221145D01*
X110119Y221207D01*
X110195Y221266D01*
X110273Y221322D01*
X110354Y221375D01*
X110436Y221424D01*
X110520Y221470D01*
X110607Y221513D01*
X110694Y221552D01*
X110784Y221588D01*
X110874Y221620D01*
X110966Y221648D01*
X111059Y221673D01*
X111153Y221694D01*
X111247Y221711D01*
X111342Y221725D01*
X111438Y221734D01*
X111534Y221740D01*
X111630Y221742D01*
X111726Y221740D01*
X111822Y221734D01*
X111918Y221725D01*
X112013Y221711D01*
X112107Y221694D01*
X112201Y221673D01*
X112294Y221648D01*
X112386Y221620D01*
X112476Y221588D01*
X112566Y221552D01*
X112653Y221513D01*
X112740Y221470D01*
X112824Y221424D01*
X112906Y221375D01*
X112987Y221322D01*
X113065Y221266D01*
X113141Y221207D01*
X113214Y221145D01*
X113285Y221081D01*
X113354Y221013D01*
X113419Y220943D01*
X113482Y220870D01*
X113542Y220794D01*
X113598Y220717D01*
X113652Y220637D01*
X113702Y220555D01*
X113749Y220471D01*
X113793Y220386D01*
X113833Y220298D01*
X113869Y220209D01*
X113902Y220119D01*
X114001Y219912D01*
X114094Y219702D01*
X114182Y219489D01*
X114265Y219275D01*
X114343Y219059D01*
X114416Y218841D01*
X114484Y218621D01*
X114546Y218400D01*
X114603Y218177D01*
X114655Y217953D01*
X114701Y217728D01*
X114742Y217502D01*
X114777Y217275D01*
X114807Y217047D01*
X114832Y216818D01*
X114851Y216589D01*
X114865Y216360D01*
X114873Y216130D01*
X114876Y215900D01*
X108384Y215900D02*
X108387Y215670D01*
X108395Y215440D01*
X108409Y215211D01*
X108428Y214982D01*
X108453Y214753D01*
X108483Y214525D01*
X108518Y214298D01*
X108559Y214072D01*
X108605Y213847D01*
X108657Y213623D01*
X108714Y213400D01*
X108776Y213179D01*
X108844Y212959D01*
X108917Y212741D01*
X108995Y212525D01*
X109078Y212311D01*
X109166Y212099D01*
X109259Y211888D01*
X109358Y211681D01*
X109391Y211591D01*
X109427Y211502D01*
X109468Y211414D01*
X109511Y211329D01*
X109558Y211245D01*
X109608Y211163D01*
X109662Y211083D01*
X109718Y211006D01*
X109778Y210930D01*
X109841Y210857D01*
X109906Y210787D01*
X109975Y210719D01*
X110046Y210655D01*
X110119Y210593D01*
X110195Y210534D01*
X110273Y210478D01*
X110354Y210425D01*
X110436Y210376D01*
X110520Y210330D01*
X110607Y210287D01*
X110694Y210248D01*
X110784Y210212D01*
X110874Y210180D01*
X110966Y210152D01*
X111059Y210127D01*
X111153Y210106D01*
X111247Y210089D01*
X111342Y210075D01*
X111438Y210066D01*
X111534Y210060D01*
X111630Y210058D01*
X113902Y211681D02*
X114001Y211888D01*
X114094Y212099D01*
X114182Y212311D01*
X114265Y212525D01*
X114343Y212741D01*
X114416Y212959D01*
X114484Y213179D01*
X114546Y213400D01*
X114603Y213623D01*
X114655Y213847D01*
X114701Y214072D01*
X114742Y214298D01*
X114777Y214525D01*
X114807Y214753D01*
X114832Y214982D01*
X114851Y215211D01*
X114865Y215440D01*
X114873Y215670D01*
X114876Y215900D01*
X113902Y211681D02*
X113869Y211591D01*
X113833Y211502D01*
X113793Y211414D01*
X113749Y211329D01*
X113702Y211245D01*
X113652Y211163D01*
X113598Y211083D01*
X113542Y211006D01*
X113482Y210930D01*
X113419Y210857D01*
X113354Y210787D01*
X113285Y210719D01*
X113214Y210655D01*
X113141Y210593D01*
X113065Y210534D01*
X112987Y210478D01*
X112906Y210425D01*
X112824Y210376D01*
X112740Y210330D01*
X112653Y210287D01*
X112566Y210248D01*
X112476Y210212D01*
X112386Y210180D01*
X112294Y210152D01*
X112201Y210127D01*
X112107Y210106D01*
X112013Y210089D01*
X111918Y210075D01*
X111822Y210066D01*
X111726Y210060D01*
X111630Y210058D01*
X109033Y212654D02*
X114226Y219146D01*
X119814Y220444D02*
X119814Y221742D01*
X126305Y221742D01*
X123060Y210058D01*
X163068Y479298D02*
X174752Y479298D01*
X163068Y479298D02*
X163068Y482544D01*
X163070Y482657D01*
X163076Y482770D01*
X163086Y482883D01*
X163100Y482996D01*
X163117Y483108D01*
X163139Y483219D01*
X163164Y483329D01*
X163194Y483439D01*
X163227Y483547D01*
X163264Y483654D01*
X163304Y483760D01*
X163349Y483864D01*
X163397Y483967D01*
X163448Y484068D01*
X163503Y484167D01*
X163561Y484264D01*
X163623Y484359D01*
X163688Y484452D01*
X163756Y484542D01*
X163827Y484630D01*
X163902Y484716D01*
X163979Y484799D01*
X164059Y484879D01*
X164142Y484956D01*
X164228Y485031D01*
X164316Y485102D01*
X164406Y485170D01*
X164499Y485235D01*
X164594Y485297D01*
X164691Y485355D01*
X164790Y485410D01*
X164891Y485461D01*
X164994Y485509D01*
X165098Y485554D01*
X165204Y485594D01*
X165311Y485631D01*
X165419Y485664D01*
X165529Y485694D01*
X165639Y485719D01*
X165750Y485741D01*
X165862Y485758D01*
X165975Y485772D01*
X166088Y485782D01*
X166201Y485788D01*
X166314Y485790D01*
X166427Y485788D01*
X166540Y485782D01*
X166653Y485772D01*
X166766Y485758D01*
X166878Y485741D01*
X166989Y485719D01*
X167099Y485694D01*
X167209Y485664D01*
X167317Y485631D01*
X167424Y485594D01*
X167530Y485554D01*
X167634Y485509D01*
X167737Y485461D01*
X167838Y485410D01*
X167937Y485355D01*
X168034Y485297D01*
X168129Y485235D01*
X168222Y485170D01*
X168312Y485102D01*
X168400Y485031D01*
X168486Y484956D01*
X168569Y484879D01*
X168649Y484799D01*
X168726Y484716D01*
X168801Y484630D01*
X168872Y484542D01*
X168940Y484452D01*
X169005Y484359D01*
X169067Y484264D01*
X169125Y484167D01*
X169180Y484068D01*
X169231Y483967D01*
X169279Y483864D01*
X169324Y483760D01*
X169364Y483654D01*
X169401Y483547D01*
X169434Y483439D01*
X169464Y483329D01*
X169489Y483219D01*
X169511Y483108D01*
X169528Y482996D01*
X169542Y482883D01*
X169552Y482770D01*
X169558Y482657D01*
X169560Y482544D01*
X169559Y482544D02*
X169559Y479298D01*
X169559Y483193D02*
X174752Y485789D01*
X165664Y490654D02*
X163068Y493900D01*
X174752Y493900D01*
X174752Y497145D02*
X174752Y490654D01*
X168910Y502084D02*
X168680Y502087D01*
X168450Y502095D01*
X168221Y502109D01*
X167992Y502128D01*
X167763Y502153D01*
X167535Y502183D01*
X167308Y502218D01*
X167082Y502259D01*
X166857Y502305D01*
X166633Y502357D01*
X166410Y502414D01*
X166189Y502476D01*
X165969Y502544D01*
X165751Y502617D01*
X165535Y502695D01*
X165321Y502778D01*
X165109Y502866D01*
X164898Y502959D01*
X164691Y503058D01*
X164601Y503091D01*
X164512Y503127D01*
X164424Y503167D01*
X164339Y503211D01*
X164255Y503258D01*
X164173Y503308D01*
X164093Y503362D01*
X164016Y503418D01*
X163940Y503478D01*
X163867Y503541D01*
X163797Y503606D01*
X163729Y503675D01*
X163665Y503746D01*
X163603Y503819D01*
X163544Y503895D01*
X163488Y503973D01*
X163435Y504054D01*
X163386Y504136D01*
X163340Y504220D01*
X163297Y504307D01*
X163258Y504394D01*
X163222Y504484D01*
X163190Y504574D01*
X163162Y504666D01*
X163137Y504759D01*
X163116Y504853D01*
X163099Y504947D01*
X163085Y505042D01*
X163076Y505138D01*
X163070Y505234D01*
X163068Y505330D01*
X163070Y505426D01*
X163076Y505522D01*
X163085Y505618D01*
X163099Y505713D01*
X163116Y505807D01*
X163137Y505901D01*
X163162Y505994D01*
X163190Y506086D01*
X163222Y506176D01*
X163258Y506266D01*
X163297Y506354D01*
X163340Y506440D01*
X163386Y506524D01*
X163435Y506606D01*
X163488Y506687D01*
X163544Y506765D01*
X163603Y506841D01*
X163665Y506914D01*
X163729Y506985D01*
X163797Y507054D01*
X163867Y507119D01*
X163940Y507182D01*
X164016Y507242D01*
X164093Y507298D01*
X164173Y507352D01*
X164255Y507402D01*
X164339Y507449D01*
X164424Y507493D01*
X164512Y507533D01*
X164601Y507569D01*
X164691Y507602D01*
X164898Y507701D01*
X165109Y507794D01*
X165321Y507882D01*
X165535Y507965D01*
X165751Y508043D01*
X165969Y508116D01*
X166189Y508184D01*
X166410Y508246D01*
X166633Y508303D01*
X166857Y508355D01*
X167082Y508401D01*
X167308Y508442D01*
X167535Y508477D01*
X167763Y508507D01*
X167992Y508532D01*
X168221Y508551D01*
X168450Y508565D01*
X168680Y508573D01*
X168910Y508576D01*
X168910Y502084D02*
X169140Y502087D01*
X169370Y502095D01*
X169599Y502109D01*
X169828Y502128D01*
X170057Y502153D01*
X170285Y502183D01*
X170512Y502218D01*
X170738Y502259D01*
X170963Y502305D01*
X171187Y502357D01*
X171410Y502414D01*
X171631Y502476D01*
X171851Y502544D01*
X172069Y502617D01*
X172285Y502695D01*
X172499Y502778D01*
X172711Y502866D01*
X172922Y502959D01*
X173129Y503058D01*
X173219Y503091D01*
X173308Y503127D01*
X173396Y503168D01*
X173481Y503211D01*
X173565Y503258D01*
X173647Y503308D01*
X173727Y503362D01*
X173804Y503418D01*
X173880Y503478D01*
X173953Y503541D01*
X174023Y503606D01*
X174091Y503675D01*
X174155Y503746D01*
X174217Y503819D01*
X174276Y503895D01*
X174332Y503973D01*
X174385Y504054D01*
X174434Y504136D01*
X174480Y504220D01*
X174523Y504307D01*
X174562Y504394D01*
X174598Y504484D01*
X174630Y504574D01*
X174658Y504666D01*
X174683Y504759D01*
X174704Y504853D01*
X174721Y504947D01*
X174735Y505042D01*
X174744Y505138D01*
X174750Y505234D01*
X174752Y505330D01*
X173129Y507602D02*
X172922Y507701D01*
X172711Y507794D01*
X172499Y507882D01*
X172285Y507965D01*
X172069Y508043D01*
X171851Y508116D01*
X171631Y508184D01*
X171410Y508246D01*
X171187Y508303D01*
X170963Y508355D01*
X170738Y508401D01*
X170512Y508442D01*
X170285Y508477D01*
X170057Y508507D01*
X169828Y508532D01*
X169599Y508551D01*
X169370Y508565D01*
X169140Y508573D01*
X168910Y508576D01*
X173129Y507602D02*
X173219Y507569D01*
X173308Y507533D01*
X173396Y507493D01*
X173481Y507449D01*
X173565Y507402D01*
X173647Y507352D01*
X173727Y507298D01*
X173804Y507242D01*
X173880Y507182D01*
X173953Y507119D01*
X174023Y507054D01*
X174091Y506985D01*
X174155Y506914D01*
X174217Y506841D01*
X174276Y506765D01*
X174332Y506687D01*
X174385Y506606D01*
X174434Y506524D01*
X174480Y506440D01*
X174523Y506353D01*
X174562Y506266D01*
X174598Y506176D01*
X174630Y506086D01*
X174658Y505994D01*
X174683Y505901D01*
X174704Y505807D01*
X174721Y505713D01*
X174735Y505618D01*
X174744Y505522D01*
X174750Y505426D01*
X174752Y505330D01*
X172156Y502733D02*
X165664Y507926D01*
X172156Y513514D02*
X163068Y516111D01*
X172156Y513514D02*
X172156Y520005D01*
X169559Y518058D02*
X174752Y518058D01*
X42418Y436372D02*
X42418Y424688D01*
X42418Y436372D02*
X45664Y436372D01*
X45777Y436370D01*
X45890Y436364D01*
X46003Y436354D01*
X46116Y436340D01*
X46228Y436323D01*
X46339Y436301D01*
X46449Y436276D01*
X46559Y436246D01*
X46667Y436213D01*
X46774Y436176D01*
X46880Y436136D01*
X46984Y436091D01*
X47087Y436043D01*
X47188Y435992D01*
X47287Y435937D01*
X47384Y435879D01*
X47479Y435817D01*
X47572Y435752D01*
X47662Y435684D01*
X47750Y435613D01*
X47836Y435538D01*
X47919Y435461D01*
X47999Y435381D01*
X48076Y435298D01*
X48151Y435212D01*
X48222Y435124D01*
X48290Y435034D01*
X48355Y434941D01*
X48417Y434846D01*
X48475Y434749D01*
X48530Y434650D01*
X48581Y434549D01*
X48629Y434446D01*
X48674Y434342D01*
X48714Y434236D01*
X48751Y434129D01*
X48784Y434021D01*
X48814Y433911D01*
X48839Y433801D01*
X48861Y433690D01*
X48878Y433578D01*
X48892Y433465D01*
X48902Y433352D01*
X48908Y433239D01*
X48910Y433126D01*
X48908Y433013D01*
X48902Y432900D01*
X48892Y432787D01*
X48878Y432674D01*
X48861Y432562D01*
X48839Y432451D01*
X48814Y432341D01*
X48784Y432231D01*
X48751Y432123D01*
X48714Y432016D01*
X48674Y431910D01*
X48629Y431806D01*
X48581Y431703D01*
X48530Y431602D01*
X48475Y431503D01*
X48417Y431406D01*
X48355Y431311D01*
X48290Y431218D01*
X48222Y431128D01*
X48151Y431040D01*
X48076Y430954D01*
X47999Y430871D01*
X47919Y430791D01*
X47836Y430714D01*
X47750Y430639D01*
X47662Y430568D01*
X47572Y430500D01*
X47479Y430435D01*
X47384Y430373D01*
X47287Y430315D01*
X47188Y430260D01*
X47087Y430209D01*
X46984Y430161D01*
X46880Y430116D01*
X46774Y430076D01*
X46667Y430039D01*
X46559Y430006D01*
X46449Y429976D01*
X46339Y429951D01*
X46228Y429929D01*
X46116Y429912D01*
X46003Y429898D01*
X45890Y429888D01*
X45777Y429882D01*
X45664Y429880D01*
X45664Y429881D02*
X42418Y429881D01*
X46313Y429881D02*
X48909Y424688D01*
X53774Y433776D02*
X57020Y436372D01*
X57020Y424688D01*
X60265Y424688D02*
X53774Y424688D01*
X65205Y430530D02*
X65208Y430760D01*
X65216Y430990D01*
X65230Y431219D01*
X65249Y431448D01*
X65274Y431677D01*
X65304Y431904D01*
X65339Y432132D01*
X65380Y432358D01*
X65426Y432583D01*
X65478Y432807D01*
X65535Y433029D01*
X65597Y433251D01*
X65665Y433470D01*
X65738Y433688D01*
X65816Y433905D01*
X65899Y434119D01*
X65987Y434331D01*
X66080Y434541D01*
X66179Y434749D01*
X66178Y434749D02*
X66211Y434839D01*
X66247Y434928D01*
X66287Y435016D01*
X66331Y435101D01*
X66378Y435185D01*
X66428Y435267D01*
X66482Y435347D01*
X66538Y435424D01*
X66598Y435500D01*
X66661Y435573D01*
X66726Y435643D01*
X66795Y435711D01*
X66866Y435775D01*
X66939Y435837D01*
X67015Y435896D01*
X67093Y435952D01*
X67174Y436005D01*
X67256Y436054D01*
X67340Y436100D01*
X67427Y436143D01*
X67514Y436182D01*
X67604Y436218D01*
X67694Y436250D01*
X67786Y436278D01*
X67879Y436303D01*
X67973Y436324D01*
X68067Y436341D01*
X68162Y436355D01*
X68258Y436364D01*
X68354Y436370D01*
X68450Y436372D01*
X68546Y436370D01*
X68642Y436364D01*
X68738Y436355D01*
X68833Y436341D01*
X68927Y436324D01*
X69021Y436303D01*
X69114Y436278D01*
X69206Y436250D01*
X69296Y436218D01*
X69386Y436182D01*
X69473Y436143D01*
X69560Y436100D01*
X69644Y436054D01*
X69726Y436005D01*
X69807Y435952D01*
X69885Y435896D01*
X69961Y435837D01*
X70034Y435775D01*
X70105Y435711D01*
X70174Y435643D01*
X70239Y435573D01*
X70302Y435500D01*
X70362Y435424D01*
X70418Y435347D01*
X70472Y435267D01*
X70522Y435185D01*
X70569Y435101D01*
X70613Y435016D01*
X70653Y434928D01*
X70689Y434839D01*
X70722Y434749D01*
X70821Y434542D01*
X70914Y434332D01*
X71002Y434119D01*
X71085Y433905D01*
X71163Y433689D01*
X71236Y433471D01*
X71304Y433251D01*
X71366Y433030D01*
X71423Y432807D01*
X71475Y432583D01*
X71521Y432358D01*
X71562Y432132D01*
X71597Y431905D01*
X71627Y431677D01*
X71652Y431448D01*
X71671Y431219D01*
X71685Y430990D01*
X71693Y430760D01*
X71696Y430530D01*
X65204Y430530D02*
X65207Y430300D01*
X65215Y430070D01*
X65229Y429841D01*
X65248Y429612D01*
X65273Y429383D01*
X65303Y429155D01*
X65338Y428928D01*
X65379Y428702D01*
X65425Y428477D01*
X65477Y428253D01*
X65534Y428030D01*
X65596Y427809D01*
X65664Y427589D01*
X65737Y427371D01*
X65815Y427155D01*
X65898Y426941D01*
X65986Y426729D01*
X66079Y426518D01*
X66178Y426311D01*
X66211Y426221D01*
X66247Y426132D01*
X66288Y426044D01*
X66331Y425959D01*
X66378Y425875D01*
X66428Y425793D01*
X66482Y425713D01*
X66538Y425636D01*
X66598Y425560D01*
X66661Y425487D01*
X66726Y425417D01*
X66795Y425349D01*
X66866Y425285D01*
X66939Y425223D01*
X67015Y425164D01*
X67093Y425108D01*
X67174Y425055D01*
X67256Y425006D01*
X67340Y424960D01*
X67427Y424917D01*
X67514Y424878D01*
X67604Y424842D01*
X67694Y424810D01*
X67786Y424782D01*
X67879Y424757D01*
X67973Y424736D01*
X68067Y424719D01*
X68162Y424705D01*
X68258Y424696D01*
X68354Y424690D01*
X68450Y424688D01*
X70722Y426311D02*
X70821Y426518D01*
X70914Y426729D01*
X71002Y426941D01*
X71085Y427155D01*
X71163Y427371D01*
X71236Y427589D01*
X71304Y427809D01*
X71366Y428030D01*
X71423Y428253D01*
X71475Y428477D01*
X71521Y428702D01*
X71562Y428928D01*
X71597Y429155D01*
X71627Y429383D01*
X71652Y429612D01*
X71671Y429841D01*
X71685Y430070D01*
X71693Y430300D01*
X71696Y430530D01*
X70722Y426311D02*
X70689Y426221D01*
X70653Y426132D01*
X70613Y426044D01*
X70569Y425959D01*
X70522Y425875D01*
X70472Y425793D01*
X70418Y425713D01*
X70362Y425636D01*
X70302Y425560D01*
X70239Y425487D01*
X70174Y425417D01*
X70105Y425349D01*
X70034Y425285D01*
X69961Y425223D01*
X69885Y425164D01*
X69807Y425108D01*
X69726Y425055D01*
X69644Y425006D01*
X69560Y424960D01*
X69473Y424917D01*
X69386Y424878D01*
X69296Y424842D01*
X69206Y424810D01*
X69114Y424782D01*
X69021Y424757D01*
X68927Y424736D01*
X68833Y424719D01*
X68738Y424705D01*
X68642Y424696D01*
X68546Y424690D01*
X68450Y424688D01*
X65853Y427284D02*
X71046Y433776D01*
X76634Y431179D02*
X80529Y431179D01*
X80628Y431177D01*
X80728Y431171D01*
X80827Y431162D01*
X80925Y431149D01*
X81023Y431132D01*
X81121Y431111D01*
X81217Y431086D01*
X81312Y431058D01*
X81406Y431026D01*
X81499Y430991D01*
X81591Y430952D01*
X81681Y430909D01*
X81769Y430864D01*
X81856Y430814D01*
X81940Y430762D01*
X82023Y430706D01*
X82103Y430648D01*
X82181Y430586D01*
X82256Y430521D01*
X82329Y430453D01*
X82399Y430383D01*
X82467Y430310D01*
X82532Y430235D01*
X82594Y430157D01*
X82652Y430077D01*
X82708Y429994D01*
X82760Y429910D01*
X82810Y429823D01*
X82855Y429735D01*
X82898Y429645D01*
X82937Y429553D01*
X82972Y429460D01*
X83004Y429366D01*
X83032Y429271D01*
X83057Y429175D01*
X83078Y429077D01*
X83095Y428979D01*
X83108Y428881D01*
X83117Y428782D01*
X83123Y428682D01*
X83125Y428583D01*
X83125Y427934D01*
X83126Y427934D02*
X83124Y427821D01*
X83118Y427708D01*
X83108Y427595D01*
X83094Y427482D01*
X83077Y427370D01*
X83055Y427259D01*
X83030Y427149D01*
X83000Y427039D01*
X82967Y426931D01*
X82930Y426824D01*
X82890Y426718D01*
X82845Y426614D01*
X82797Y426511D01*
X82746Y426410D01*
X82691Y426311D01*
X82633Y426214D01*
X82571Y426119D01*
X82506Y426026D01*
X82438Y425936D01*
X82367Y425848D01*
X82292Y425762D01*
X82215Y425679D01*
X82135Y425599D01*
X82052Y425522D01*
X81966Y425447D01*
X81878Y425376D01*
X81788Y425308D01*
X81695Y425243D01*
X81600Y425181D01*
X81503Y425123D01*
X81404Y425068D01*
X81303Y425017D01*
X81200Y424969D01*
X81096Y424924D01*
X80990Y424884D01*
X80883Y424847D01*
X80775Y424814D01*
X80665Y424784D01*
X80555Y424759D01*
X80444Y424737D01*
X80332Y424720D01*
X80219Y424706D01*
X80106Y424696D01*
X79993Y424690D01*
X79880Y424688D01*
X79767Y424690D01*
X79654Y424696D01*
X79541Y424706D01*
X79428Y424720D01*
X79316Y424737D01*
X79205Y424759D01*
X79095Y424784D01*
X78985Y424814D01*
X78877Y424847D01*
X78770Y424884D01*
X78664Y424924D01*
X78560Y424969D01*
X78457Y425017D01*
X78356Y425068D01*
X78257Y425123D01*
X78160Y425181D01*
X78065Y425243D01*
X77972Y425308D01*
X77882Y425376D01*
X77794Y425447D01*
X77708Y425522D01*
X77625Y425599D01*
X77545Y425679D01*
X77468Y425762D01*
X77393Y425848D01*
X77322Y425936D01*
X77254Y426026D01*
X77189Y426119D01*
X77127Y426214D01*
X77069Y426311D01*
X77014Y426410D01*
X76963Y426511D01*
X76915Y426614D01*
X76870Y426718D01*
X76830Y426824D01*
X76793Y426931D01*
X76760Y427039D01*
X76730Y427149D01*
X76705Y427259D01*
X76683Y427370D01*
X76666Y427482D01*
X76652Y427595D01*
X76642Y427708D01*
X76636Y427821D01*
X76634Y427934D01*
X76634Y431179D01*
X76636Y431322D01*
X76642Y431465D01*
X76652Y431608D01*
X76666Y431750D01*
X76683Y431892D01*
X76705Y432034D01*
X76730Y432175D01*
X76760Y432315D01*
X76793Y432454D01*
X76830Y432592D01*
X76871Y432729D01*
X76915Y432865D01*
X76964Y433000D01*
X77016Y433133D01*
X77071Y433265D01*
X77131Y433395D01*
X77194Y433524D01*
X77260Y433651D01*
X77330Y433775D01*
X77403Y433898D01*
X77480Y434019D01*
X77560Y434138D01*
X77643Y434254D01*
X77729Y434369D01*
X77818Y434480D01*
X77911Y434590D01*
X78006Y434696D01*
X78105Y434800D01*
X78206Y434901D01*
X78310Y435000D01*
X78416Y435095D01*
X78526Y435188D01*
X78637Y435277D01*
X78752Y435363D01*
X78868Y435446D01*
X78987Y435526D01*
X79108Y435603D01*
X79230Y435676D01*
X79355Y435746D01*
X79482Y435812D01*
X79611Y435875D01*
X79741Y435935D01*
X79873Y435990D01*
X80006Y436042D01*
X80141Y436091D01*
X80277Y436135D01*
X80414Y436176D01*
X80552Y436213D01*
X80691Y436246D01*
X80831Y436276D01*
X80972Y436301D01*
X81114Y436323D01*
X81256Y436340D01*
X81398Y436354D01*
X81541Y436364D01*
X81684Y436370D01*
X81827Y436372D01*
X42418Y223012D02*
X42418Y211328D01*
X42418Y223012D02*
X45664Y223012D01*
X45777Y223010D01*
X45890Y223004D01*
X46003Y222994D01*
X46116Y222980D01*
X46228Y222963D01*
X46339Y222941D01*
X46449Y222916D01*
X46559Y222886D01*
X46667Y222853D01*
X46774Y222816D01*
X46880Y222776D01*
X46984Y222731D01*
X47087Y222683D01*
X47188Y222632D01*
X47287Y222577D01*
X47384Y222519D01*
X47479Y222457D01*
X47572Y222392D01*
X47662Y222324D01*
X47750Y222253D01*
X47836Y222178D01*
X47919Y222101D01*
X47999Y222021D01*
X48076Y221938D01*
X48151Y221852D01*
X48222Y221764D01*
X48290Y221674D01*
X48355Y221581D01*
X48417Y221486D01*
X48475Y221389D01*
X48530Y221290D01*
X48581Y221189D01*
X48629Y221086D01*
X48674Y220982D01*
X48714Y220876D01*
X48751Y220769D01*
X48784Y220661D01*
X48814Y220551D01*
X48839Y220441D01*
X48861Y220330D01*
X48878Y220218D01*
X48892Y220105D01*
X48902Y219992D01*
X48908Y219879D01*
X48910Y219766D01*
X48908Y219653D01*
X48902Y219540D01*
X48892Y219427D01*
X48878Y219314D01*
X48861Y219202D01*
X48839Y219091D01*
X48814Y218981D01*
X48784Y218871D01*
X48751Y218763D01*
X48714Y218656D01*
X48674Y218550D01*
X48629Y218446D01*
X48581Y218343D01*
X48530Y218242D01*
X48475Y218143D01*
X48417Y218046D01*
X48355Y217951D01*
X48290Y217858D01*
X48222Y217768D01*
X48151Y217680D01*
X48076Y217594D01*
X47999Y217511D01*
X47919Y217431D01*
X47836Y217354D01*
X47750Y217279D01*
X47662Y217208D01*
X47572Y217140D01*
X47479Y217075D01*
X47384Y217013D01*
X47287Y216955D01*
X47188Y216900D01*
X47087Y216849D01*
X46984Y216801D01*
X46880Y216756D01*
X46774Y216716D01*
X46667Y216679D01*
X46559Y216646D01*
X46449Y216616D01*
X46339Y216591D01*
X46228Y216569D01*
X46116Y216552D01*
X46003Y216538D01*
X45890Y216528D01*
X45777Y216522D01*
X45664Y216520D01*
X45664Y216521D02*
X42418Y216521D01*
X46313Y216521D02*
X48909Y211328D01*
X53774Y220416D02*
X57020Y223012D01*
X57020Y211328D01*
X60265Y211328D02*
X53774Y211328D01*
X65205Y217170D02*
X65208Y217400D01*
X65216Y217630D01*
X65230Y217859D01*
X65249Y218088D01*
X65274Y218317D01*
X65304Y218544D01*
X65339Y218772D01*
X65380Y218998D01*
X65426Y219223D01*
X65478Y219447D01*
X65535Y219669D01*
X65597Y219891D01*
X65665Y220110D01*
X65738Y220328D01*
X65816Y220545D01*
X65899Y220759D01*
X65987Y220971D01*
X66080Y221181D01*
X66179Y221389D01*
X66178Y221389D02*
X66211Y221479D01*
X66247Y221568D01*
X66287Y221656D01*
X66331Y221741D01*
X66378Y221825D01*
X66428Y221907D01*
X66482Y221987D01*
X66538Y222064D01*
X66598Y222140D01*
X66661Y222213D01*
X66726Y222283D01*
X66795Y222351D01*
X66866Y222415D01*
X66939Y222477D01*
X67015Y222536D01*
X67093Y222592D01*
X67174Y222645D01*
X67256Y222694D01*
X67340Y222740D01*
X67427Y222783D01*
X67514Y222822D01*
X67604Y222858D01*
X67694Y222890D01*
X67786Y222918D01*
X67879Y222943D01*
X67973Y222964D01*
X68067Y222981D01*
X68162Y222995D01*
X68258Y223004D01*
X68354Y223010D01*
X68450Y223012D01*
X68546Y223010D01*
X68642Y223004D01*
X68738Y222995D01*
X68833Y222981D01*
X68927Y222964D01*
X69021Y222943D01*
X69114Y222918D01*
X69206Y222890D01*
X69296Y222858D01*
X69386Y222822D01*
X69473Y222783D01*
X69560Y222740D01*
X69644Y222694D01*
X69726Y222645D01*
X69807Y222592D01*
X69885Y222536D01*
X69961Y222477D01*
X70034Y222415D01*
X70105Y222351D01*
X70174Y222283D01*
X70239Y222213D01*
X70302Y222140D01*
X70362Y222064D01*
X70418Y221987D01*
X70472Y221907D01*
X70522Y221825D01*
X70569Y221741D01*
X70613Y221656D01*
X70653Y221568D01*
X70689Y221479D01*
X70722Y221389D01*
X70821Y221182D01*
X70914Y220972D01*
X71002Y220759D01*
X71085Y220545D01*
X71163Y220329D01*
X71236Y220111D01*
X71304Y219891D01*
X71366Y219670D01*
X71423Y219447D01*
X71475Y219223D01*
X71521Y218998D01*
X71562Y218772D01*
X71597Y218545D01*
X71627Y218317D01*
X71652Y218088D01*
X71671Y217859D01*
X71685Y217630D01*
X71693Y217400D01*
X71696Y217170D01*
X65204Y217170D02*
X65207Y216940D01*
X65215Y216710D01*
X65229Y216481D01*
X65248Y216252D01*
X65273Y216023D01*
X65303Y215795D01*
X65338Y215568D01*
X65379Y215342D01*
X65425Y215117D01*
X65477Y214893D01*
X65534Y214670D01*
X65596Y214449D01*
X65664Y214229D01*
X65737Y214011D01*
X65815Y213795D01*
X65898Y213581D01*
X65986Y213369D01*
X66079Y213158D01*
X66178Y212951D01*
X66211Y212861D01*
X66247Y212772D01*
X66288Y212684D01*
X66331Y212599D01*
X66378Y212515D01*
X66428Y212433D01*
X66482Y212353D01*
X66538Y212276D01*
X66598Y212200D01*
X66661Y212127D01*
X66726Y212057D01*
X66795Y211989D01*
X66866Y211925D01*
X66939Y211863D01*
X67015Y211804D01*
X67093Y211748D01*
X67174Y211695D01*
X67256Y211646D01*
X67340Y211600D01*
X67427Y211557D01*
X67514Y211518D01*
X67604Y211482D01*
X67694Y211450D01*
X67786Y211422D01*
X67879Y211397D01*
X67973Y211376D01*
X68067Y211359D01*
X68162Y211345D01*
X68258Y211336D01*
X68354Y211330D01*
X68450Y211328D01*
X70722Y212951D02*
X70821Y213158D01*
X70914Y213369D01*
X71002Y213581D01*
X71085Y213795D01*
X71163Y214011D01*
X71236Y214229D01*
X71304Y214449D01*
X71366Y214670D01*
X71423Y214893D01*
X71475Y215117D01*
X71521Y215342D01*
X71562Y215568D01*
X71597Y215795D01*
X71627Y216023D01*
X71652Y216252D01*
X71671Y216481D01*
X71685Y216710D01*
X71693Y216940D01*
X71696Y217170D01*
X70722Y212951D02*
X70689Y212861D01*
X70653Y212772D01*
X70613Y212684D01*
X70569Y212599D01*
X70522Y212515D01*
X70472Y212433D01*
X70418Y212353D01*
X70362Y212276D01*
X70302Y212200D01*
X70239Y212127D01*
X70174Y212057D01*
X70105Y211989D01*
X70034Y211925D01*
X69961Y211863D01*
X69885Y211804D01*
X69807Y211748D01*
X69726Y211695D01*
X69644Y211646D01*
X69560Y211600D01*
X69473Y211557D01*
X69386Y211518D01*
X69296Y211482D01*
X69206Y211450D01*
X69114Y211422D01*
X69021Y211397D01*
X68927Y211376D01*
X68833Y211359D01*
X68738Y211345D01*
X68642Y211336D01*
X68546Y211330D01*
X68450Y211328D01*
X65853Y213924D02*
X71046Y220416D01*
X76634Y214574D02*
X76636Y214687D01*
X76642Y214800D01*
X76652Y214913D01*
X76666Y215026D01*
X76683Y215138D01*
X76705Y215249D01*
X76730Y215359D01*
X76760Y215469D01*
X76793Y215577D01*
X76830Y215684D01*
X76870Y215790D01*
X76915Y215894D01*
X76963Y215997D01*
X77014Y216098D01*
X77069Y216197D01*
X77127Y216294D01*
X77189Y216389D01*
X77254Y216482D01*
X77322Y216572D01*
X77393Y216660D01*
X77468Y216746D01*
X77545Y216829D01*
X77625Y216909D01*
X77708Y216986D01*
X77794Y217061D01*
X77882Y217132D01*
X77972Y217200D01*
X78065Y217265D01*
X78160Y217327D01*
X78257Y217385D01*
X78356Y217440D01*
X78457Y217491D01*
X78560Y217539D01*
X78664Y217584D01*
X78770Y217624D01*
X78877Y217661D01*
X78985Y217694D01*
X79095Y217724D01*
X79205Y217749D01*
X79316Y217771D01*
X79428Y217788D01*
X79541Y217802D01*
X79654Y217812D01*
X79767Y217818D01*
X79880Y217820D01*
X79993Y217818D01*
X80106Y217812D01*
X80219Y217802D01*
X80332Y217788D01*
X80444Y217771D01*
X80555Y217749D01*
X80665Y217724D01*
X80775Y217694D01*
X80883Y217661D01*
X80990Y217624D01*
X81096Y217584D01*
X81200Y217539D01*
X81303Y217491D01*
X81404Y217440D01*
X81503Y217385D01*
X81600Y217327D01*
X81695Y217265D01*
X81788Y217200D01*
X81878Y217132D01*
X81966Y217061D01*
X82052Y216986D01*
X82135Y216909D01*
X82215Y216829D01*
X82292Y216746D01*
X82367Y216660D01*
X82438Y216572D01*
X82506Y216482D01*
X82571Y216389D01*
X82633Y216294D01*
X82691Y216197D01*
X82746Y216098D01*
X82797Y215997D01*
X82845Y215894D01*
X82890Y215790D01*
X82930Y215684D01*
X82967Y215577D01*
X83000Y215469D01*
X83030Y215359D01*
X83055Y215249D01*
X83077Y215138D01*
X83094Y215026D01*
X83108Y214913D01*
X83118Y214800D01*
X83124Y214687D01*
X83126Y214574D01*
X83124Y214461D01*
X83118Y214348D01*
X83108Y214235D01*
X83094Y214122D01*
X83077Y214010D01*
X83055Y213899D01*
X83030Y213789D01*
X83000Y213679D01*
X82967Y213571D01*
X82930Y213464D01*
X82890Y213358D01*
X82845Y213254D01*
X82797Y213151D01*
X82746Y213050D01*
X82691Y212951D01*
X82633Y212854D01*
X82571Y212759D01*
X82506Y212666D01*
X82438Y212576D01*
X82367Y212488D01*
X82292Y212402D01*
X82215Y212319D01*
X82135Y212239D01*
X82052Y212162D01*
X81966Y212087D01*
X81878Y212016D01*
X81788Y211948D01*
X81695Y211883D01*
X81600Y211821D01*
X81503Y211763D01*
X81404Y211708D01*
X81303Y211657D01*
X81200Y211609D01*
X81096Y211564D01*
X80990Y211524D01*
X80883Y211487D01*
X80775Y211454D01*
X80665Y211424D01*
X80555Y211399D01*
X80444Y211377D01*
X80332Y211360D01*
X80219Y211346D01*
X80106Y211336D01*
X79993Y211330D01*
X79880Y211328D01*
X79767Y211330D01*
X79654Y211336D01*
X79541Y211346D01*
X79428Y211360D01*
X79316Y211377D01*
X79205Y211399D01*
X79095Y211424D01*
X78985Y211454D01*
X78877Y211487D01*
X78770Y211524D01*
X78664Y211564D01*
X78560Y211609D01*
X78457Y211657D01*
X78356Y211708D01*
X78257Y211763D01*
X78160Y211821D01*
X78065Y211883D01*
X77972Y211948D01*
X77882Y212016D01*
X77794Y212087D01*
X77708Y212162D01*
X77625Y212239D01*
X77545Y212319D01*
X77468Y212402D01*
X77393Y212488D01*
X77322Y212576D01*
X77254Y212666D01*
X77189Y212759D01*
X77127Y212854D01*
X77069Y212951D01*
X77014Y213050D01*
X76963Y213151D01*
X76915Y213254D01*
X76870Y213358D01*
X76830Y213464D01*
X76793Y213571D01*
X76760Y213679D01*
X76730Y213789D01*
X76705Y213899D01*
X76683Y214010D01*
X76666Y214122D01*
X76652Y214235D01*
X76642Y214348D01*
X76636Y214461D01*
X76634Y214574D01*
X77284Y220416D02*
X77286Y220517D01*
X77292Y220617D01*
X77302Y220717D01*
X77315Y220817D01*
X77333Y220916D01*
X77354Y221015D01*
X77379Y221112D01*
X77408Y221209D01*
X77441Y221304D01*
X77477Y221398D01*
X77517Y221490D01*
X77560Y221581D01*
X77607Y221670D01*
X77657Y221757D01*
X77711Y221843D01*
X77768Y221926D01*
X77828Y222006D01*
X77891Y222085D01*
X77958Y222161D01*
X78027Y222234D01*
X78099Y222304D01*
X78173Y222372D01*
X78250Y222437D01*
X78330Y222498D01*
X78412Y222557D01*
X78496Y222612D01*
X78582Y222664D01*
X78670Y222713D01*
X78760Y222758D01*
X78852Y222800D01*
X78945Y222838D01*
X79040Y222872D01*
X79135Y222903D01*
X79232Y222930D01*
X79330Y222953D01*
X79429Y222973D01*
X79529Y222988D01*
X79629Y223000D01*
X79729Y223008D01*
X79830Y223012D01*
X79930Y223012D01*
X80031Y223008D01*
X80131Y223000D01*
X80231Y222988D01*
X80331Y222973D01*
X80430Y222953D01*
X80528Y222930D01*
X80625Y222903D01*
X80720Y222872D01*
X80815Y222838D01*
X80908Y222800D01*
X81000Y222758D01*
X81090Y222713D01*
X81178Y222664D01*
X81264Y222612D01*
X81348Y222557D01*
X81430Y222498D01*
X81510Y222437D01*
X81587Y222372D01*
X81661Y222304D01*
X81733Y222234D01*
X81802Y222161D01*
X81869Y222085D01*
X81932Y222006D01*
X81992Y221926D01*
X82049Y221843D01*
X82103Y221757D01*
X82153Y221670D01*
X82200Y221581D01*
X82243Y221490D01*
X82283Y221398D01*
X82319Y221304D01*
X82352Y221209D01*
X82381Y221112D01*
X82406Y221015D01*
X82427Y220916D01*
X82445Y220817D01*
X82458Y220717D01*
X82468Y220617D01*
X82474Y220517D01*
X82476Y220416D01*
X82474Y220315D01*
X82468Y220215D01*
X82458Y220115D01*
X82445Y220015D01*
X82427Y219916D01*
X82406Y219817D01*
X82381Y219720D01*
X82352Y219623D01*
X82319Y219528D01*
X82283Y219434D01*
X82243Y219342D01*
X82200Y219251D01*
X82153Y219162D01*
X82103Y219075D01*
X82049Y218989D01*
X81992Y218906D01*
X81932Y218826D01*
X81869Y218747D01*
X81802Y218671D01*
X81733Y218598D01*
X81661Y218528D01*
X81587Y218460D01*
X81510Y218395D01*
X81430Y218334D01*
X81348Y218275D01*
X81264Y218220D01*
X81178Y218168D01*
X81090Y218119D01*
X81000Y218074D01*
X80908Y218032D01*
X80815Y217994D01*
X80720Y217960D01*
X80625Y217929D01*
X80528Y217902D01*
X80430Y217879D01*
X80331Y217859D01*
X80231Y217844D01*
X80131Y217832D01*
X80031Y217824D01*
X79930Y217820D01*
X79830Y217820D01*
X79729Y217824D01*
X79629Y217832D01*
X79529Y217844D01*
X79429Y217859D01*
X79330Y217879D01*
X79232Y217902D01*
X79135Y217929D01*
X79040Y217960D01*
X78945Y217994D01*
X78852Y218032D01*
X78760Y218074D01*
X78670Y218119D01*
X78582Y218168D01*
X78496Y218220D01*
X78412Y218275D01*
X78330Y218334D01*
X78250Y218395D01*
X78173Y218460D01*
X78099Y218528D01*
X78027Y218598D01*
X77958Y218671D01*
X77891Y218747D01*
X77828Y218826D01*
X77768Y218906D01*
X77711Y218989D01*
X77657Y219075D01*
X77607Y219162D01*
X77560Y219251D01*
X77517Y219342D01*
X77477Y219434D01*
X77441Y219528D01*
X77408Y219623D01*
X77379Y219720D01*
X77354Y219817D01*
X77333Y219916D01*
X77315Y220015D01*
X77302Y220115D01*
X77292Y220215D01*
X77286Y220315D01*
X77284Y220416D01*
D15*
X208280Y331470D02*
X208280Y344170D01*
X208280Y331470D02*
X201930Y325120D01*
X189230Y325120D02*
X182880Y331470D01*
X201930Y325120D02*
X208280Y318770D01*
X208280Y306070D01*
X201930Y299720D01*
X189230Y299720D02*
X182880Y306070D01*
X182880Y318770D01*
X189230Y325120D01*
X189230Y350520D02*
X201930Y350520D01*
X208280Y344170D01*
X189230Y350520D02*
X182880Y344170D01*
X182880Y331470D01*
X201930Y299720D02*
X208280Y293370D01*
X208280Y280670D01*
X201930Y274320D01*
X189230Y274320D02*
X182880Y280670D01*
X182880Y293370D01*
X189230Y299720D01*
X208280Y267970D02*
X208280Y255270D01*
X201930Y248920D01*
X189230Y248920D02*
X182880Y255270D01*
X201930Y274320D02*
X208280Y267970D01*
X189230Y274320D02*
X182880Y267970D01*
X182880Y255270D01*
X208280Y242570D02*
X208280Y229870D01*
X201930Y223520D01*
X189230Y223520D02*
X182880Y229870D01*
X201930Y223520D02*
X208280Y217170D01*
X208280Y204470D01*
X201930Y198120D01*
X189230Y198120D02*
X182880Y204470D01*
X182880Y217170D01*
X189230Y223520D01*
X208280Y242570D02*
X201930Y248920D01*
X189230Y248920D02*
X182880Y242570D01*
X182880Y229870D01*
X201930Y198120D02*
X208280Y191770D01*
X208280Y179070D01*
X201930Y172720D01*
X189230Y172720D02*
X182880Y179070D01*
X182880Y191770D01*
X189230Y198120D01*
X208280Y166370D02*
X208280Y153670D01*
X201930Y147320D01*
X189230Y147320D01*
X182880Y153670D01*
X201930Y172720D02*
X208280Y166370D01*
X189230Y172720D02*
X182880Y166370D01*
X182880Y153670D01*
D14*
X169545Y335915D02*
X167005Y339090D01*
X178435Y339090D01*
X178435Y335915D02*
X178435Y342265D01*
X220980Y165735D02*
X220869Y165733D01*
X220759Y165727D01*
X220648Y165718D01*
X220538Y165704D01*
X220429Y165687D01*
X220320Y165666D01*
X220212Y165641D01*
X220105Y165612D01*
X219999Y165580D01*
X219894Y165544D01*
X219791Y165504D01*
X219689Y165461D01*
X219588Y165414D01*
X219489Y165363D01*
X219393Y165310D01*
X219298Y165253D01*
X219205Y165192D01*
X219114Y165129D01*
X219025Y165062D01*
X218939Y164992D01*
X218856Y164919D01*
X218774Y164844D01*
X218696Y164766D01*
X218621Y164684D01*
X218548Y164601D01*
X218478Y164515D01*
X218411Y164426D01*
X218348Y164335D01*
X218287Y164242D01*
X218230Y164148D01*
X218177Y164051D01*
X218126Y163952D01*
X218079Y163851D01*
X218036Y163749D01*
X217996Y163646D01*
X217960Y163541D01*
X217928Y163435D01*
X217899Y163328D01*
X217874Y163220D01*
X217853Y163111D01*
X217836Y163002D01*
X217822Y162892D01*
X217813Y162781D01*
X217807Y162671D01*
X217805Y162560D01*
X217807Y162449D01*
X217813Y162339D01*
X217822Y162228D01*
X217836Y162118D01*
X217853Y162009D01*
X217874Y161900D01*
X217899Y161792D01*
X217928Y161685D01*
X217960Y161579D01*
X217996Y161474D01*
X218036Y161371D01*
X218079Y161269D01*
X218126Y161168D01*
X218177Y161069D01*
X218230Y160973D01*
X218287Y160878D01*
X218348Y160785D01*
X218411Y160694D01*
X218478Y160605D01*
X218548Y160519D01*
X218621Y160436D01*
X218696Y160354D01*
X218774Y160276D01*
X218856Y160201D01*
X218939Y160128D01*
X219025Y160058D01*
X219114Y159991D01*
X219205Y159928D01*
X219298Y159867D01*
X219393Y159810D01*
X219489Y159757D01*
X219588Y159706D01*
X219689Y159659D01*
X219791Y159616D01*
X219894Y159576D01*
X219999Y159540D01*
X220105Y159508D01*
X220212Y159479D01*
X220320Y159454D01*
X220429Y159433D01*
X220538Y159416D01*
X220648Y159402D01*
X220759Y159393D01*
X220869Y159387D01*
X220980Y159385D01*
X221091Y159387D01*
X221201Y159393D01*
X221312Y159402D01*
X221422Y159416D01*
X221531Y159433D01*
X221640Y159454D01*
X221748Y159479D01*
X221855Y159508D01*
X221961Y159540D01*
X222066Y159576D01*
X222169Y159616D01*
X222271Y159659D01*
X222372Y159706D01*
X222471Y159757D01*
X222567Y159810D01*
X222662Y159867D01*
X222755Y159928D01*
X222846Y159991D01*
X222935Y160058D01*
X223021Y160128D01*
X223104Y160201D01*
X223186Y160276D01*
X223264Y160354D01*
X223339Y160436D01*
X223412Y160519D01*
X223482Y160605D01*
X223549Y160694D01*
X223612Y160785D01*
X223673Y160878D01*
X223730Y160972D01*
X223783Y161069D01*
X223834Y161168D01*
X223881Y161269D01*
X223924Y161371D01*
X223964Y161474D01*
X224000Y161579D01*
X224032Y161685D01*
X224061Y161792D01*
X224086Y161900D01*
X224107Y162009D01*
X224124Y162118D01*
X224138Y162228D01*
X224147Y162339D01*
X224153Y162449D01*
X224155Y162560D01*
X224153Y162671D01*
X224147Y162781D01*
X224138Y162892D01*
X224124Y163002D01*
X224107Y163111D01*
X224086Y163220D01*
X224061Y163328D01*
X224032Y163435D01*
X224000Y163541D01*
X223964Y163646D01*
X223924Y163749D01*
X223881Y163851D01*
X223834Y163952D01*
X223783Y164051D01*
X223730Y164147D01*
X223673Y164242D01*
X223612Y164335D01*
X223549Y164426D01*
X223482Y164515D01*
X223412Y164601D01*
X223339Y164684D01*
X223264Y164766D01*
X223186Y164844D01*
X223104Y164919D01*
X223021Y164992D01*
X222935Y165062D01*
X222846Y165129D01*
X222755Y165192D01*
X222662Y165253D01*
X222568Y165310D01*
X222471Y165363D01*
X222372Y165414D01*
X222271Y165461D01*
X222169Y165504D01*
X222066Y165544D01*
X221961Y165580D01*
X221855Y165612D01*
X221748Y165641D01*
X221640Y165666D01*
X221531Y165687D01*
X221422Y165704D01*
X221312Y165718D01*
X221201Y165727D01*
X221091Y165733D01*
X220980Y165735D01*
X215265Y165100D02*
X215165Y165098D01*
X215066Y165092D01*
X214966Y165082D01*
X214868Y165069D01*
X214769Y165051D01*
X214672Y165030D01*
X214576Y165005D01*
X214480Y164976D01*
X214386Y164943D01*
X214293Y164907D01*
X214202Y164867D01*
X214112Y164823D01*
X214024Y164776D01*
X213938Y164726D01*
X213854Y164672D01*
X213772Y164615D01*
X213693Y164555D01*
X213615Y164491D01*
X213541Y164425D01*
X213469Y164356D01*
X213400Y164284D01*
X213334Y164210D01*
X213270Y164132D01*
X213210Y164053D01*
X213153Y163971D01*
X213099Y163887D01*
X213049Y163801D01*
X213002Y163713D01*
X212958Y163623D01*
X212918Y163532D01*
X212882Y163439D01*
X212849Y163345D01*
X212820Y163249D01*
X212795Y163153D01*
X212774Y163056D01*
X212756Y162957D01*
X212743Y162859D01*
X212733Y162759D01*
X212727Y162660D01*
X212725Y162560D01*
X212727Y162460D01*
X212733Y162361D01*
X212743Y162261D01*
X212756Y162163D01*
X212774Y162064D01*
X212795Y161967D01*
X212820Y161871D01*
X212849Y161775D01*
X212882Y161681D01*
X212918Y161588D01*
X212958Y161497D01*
X213002Y161407D01*
X213049Y161319D01*
X213099Y161233D01*
X213153Y161149D01*
X213210Y161067D01*
X213270Y160988D01*
X213334Y160910D01*
X213400Y160836D01*
X213469Y160764D01*
X213541Y160695D01*
X213615Y160629D01*
X213693Y160565D01*
X213772Y160505D01*
X213854Y160448D01*
X213938Y160394D01*
X214024Y160344D01*
X214112Y160297D01*
X214202Y160253D01*
X214293Y160213D01*
X214386Y160177D01*
X214480Y160144D01*
X214576Y160115D01*
X214672Y160090D01*
X214769Y160069D01*
X214868Y160051D01*
X214966Y160038D01*
X215066Y160028D01*
X215165Y160022D01*
X215265Y160020D01*
X215365Y160022D01*
X215464Y160028D01*
X215564Y160038D01*
X215662Y160051D01*
X215761Y160069D01*
X215858Y160090D01*
X215954Y160115D01*
X216050Y160144D01*
X216144Y160177D01*
X216237Y160213D01*
X216328Y160253D01*
X216418Y160297D01*
X216506Y160344D01*
X216592Y160394D01*
X216676Y160448D01*
X216758Y160505D01*
X216837Y160565D01*
X216915Y160629D01*
X216989Y160695D01*
X217061Y160764D01*
X217130Y160836D01*
X217196Y160910D01*
X217260Y160988D01*
X217320Y161067D01*
X217377Y161149D01*
X217431Y161233D01*
X217481Y161319D01*
X217528Y161407D01*
X217572Y161497D01*
X217612Y161588D01*
X217648Y161681D01*
X217681Y161775D01*
X217710Y161871D01*
X217735Y161967D01*
X217756Y162064D01*
X217774Y162163D01*
X217787Y162261D01*
X217797Y162361D01*
X217803Y162460D01*
X217805Y162560D01*
X217803Y162660D01*
X217797Y162759D01*
X217787Y162859D01*
X217774Y162957D01*
X217756Y163056D01*
X217735Y163153D01*
X217710Y163249D01*
X217681Y163345D01*
X217648Y163439D01*
X217612Y163532D01*
X217572Y163623D01*
X217528Y163713D01*
X217481Y163801D01*
X217431Y163887D01*
X217377Y163971D01*
X217320Y164053D01*
X217260Y164132D01*
X217196Y164210D01*
X217130Y164284D01*
X217061Y164356D01*
X216989Y164425D01*
X216915Y164491D01*
X216837Y164555D01*
X216758Y164615D01*
X216676Y164672D01*
X216592Y164726D01*
X216506Y164776D01*
X216418Y164823D01*
X216328Y164867D01*
X216237Y164907D01*
X216144Y164943D01*
X216050Y164976D01*
X215954Y165005D01*
X215858Y165030D01*
X215761Y165051D01*
X215662Y165069D01*
X215564Y165082D01*
X215464Y165092D01*
X215365Y165098D01*
X215265Y165100D01*
X179705Y358775D02*
X179805Y358777D01*
X179904Y358783D01*
X180004Y358793D01*
X180102Y358806D01*
X180201Y358824D01*
X180298Y358845D01*
X180394Y358870D01*
X180490Y358899D01*
X180584Y358932D01*
X180677Y358968D01*
X180768Y359008D01*
X180858Y359052D01*
X180946Y359099D01*
X181032Y359149D01*
X181116Y359203D01*
X181198Y359260D01*
X181277Y359320D01*
X181355Y359384D01*
X181429Y359450D01*
X181501Y359519D01*
X181570Y359591D01*
X181636Y359665D01*
X181700Y359743D01*
X181760Y359822D01*
X181817Y359904D01*
X181871Y359988D01*
X181921Y360074D01*
X181968Y360162D01*
X182012Y360252D01*
X182052Y360343D01*
X182088Y360436D01*
X182121Y360530D01*
X182150Y360626D01*
X182175Y360722D01*
X182196Y360819D01*
X182214Y360918D01*
X182227Y361016D01*
X182237Y361116D01*
X182243Y361215D01*
X182245Y361315D01*
X179705Y358775D02*
X179564Y358777D01*
X179423Y358782D01*
X179282Y358792D01*
X179141Y358805D01*
X179001Y358821D01*
X178861Y358842D01*
X178722Y358866D01*
X178583Y358894D01*
X178446Y358925D01*
X178309Y358960D01*
X178173Y358998D01*
X178038Y359040D01*
X177905Y359086D01*
X177772Y359135D01*
X177641Y359188D01*
X177512Y359244D01*
X177383Y359303D01*
X177257Y359366D01*
X177132Y359432D01*
X177009Y359501D01*
X176888Y359574D01*
X176769Y359650D01*
X176651Y359729D01*
X176536Y359810D01*
X176424Y359895D01*
X176313Y359983D01*
X176205Y360074D01*
X176099Y360167D01*
X175996Y360264D01*
X175895Y360363D01*
X176213Y367665D02*
X176215Y367765D01*
X176221Y367864D01*
X176231Y367964D01*
X176244Y368062D01*
X176262Y368161D01*
X176283Y368258D01*
X176308Y368354D01*
X176337Y368450D01*
X176370Y368544D01*
X176406Y368637D01*
X176446Y368728D01*
X176490Y368818D01*
X176537Y368906D01*
X176587Y368992D01*
X176641Y369076D01*
X176698Y369158D01*
X176758Y369237D01*
X176822Y369315D01*
X176888Y369389D01*
X176957Y369461D01*
X177029Y369530D01*
X177103Y369596D01*
X177181Y369660D01*
X177260Y369720D01*
X177342Y369777D01*
X177426Y369831D01*
X177512Y369881D01*
X177600Y369928D01*
X177690Y369972D01*
X177781Y370012D01*
X177874Y370048D01*
X177968Y370081D01*
X178064Y370110D01*
X178160Y370135D01*
X178257Y370156D01*
X178356Y370174D01*
X178454Y370187D01*
X178554Y370197D01*
X178653Y370203D01*
X178753Y370205D01*
X178753Y370206D02*
X178886Y370204D01*
X179019Y370199D01*
X179152Y370189D01*
X179285Y370176D01*
X179417Y370159D01*
X179549Y370139D01*
X179680Y370115D01*
X179810Y370087D01*
X179940Y370056D01*
X180068Y370021D01*
X180196Y369982D01*
X180322Y369940D01*
X180447Y369894D01*
X180571Y369845D01*
X180694Y369793D01*
X180815Y369737D01*
X180934Y369677D01*
X181052Y369615D01*
X181167Y369549D01*
X181281Y369480D01*
X181393Y369407D01*
X181503Y369332D01*
X181611Y369253D01*
X177482Y365442D02*
X177398Y365494D01*
X177315Y365549D01*
X177235Y365608D01*
X177157Y365669D01*
X177082Y365733D01*
X177009Y365801D01*
X176938Y365871D01*
X176871Y365943D01*
X176806Y366018D01*
X176744Y366096D01*
X176685Y366176D01*
X176629Y366258D01*
X176577Y366342D01*
X176528Y366428D01*
X176482Y366516D01*
X176439Y366606D01*
X176400Y366697D01*
X176365Y366790D01*
X176333Y366884D01*
X176305Y366979D01*
X176280Y367075D01*
X176260Y367172D01*
X176242Y367270D01*
X176229Y367368D01*
X176220Y367467D01*
X176214Y367566D01*
X176212Y367665D01*
X180975Y363538D02*
X181059Y363486D01*
X181142Y363431D01*
X181222Y363372D01*
X181300Y363311D01*
X181375Y363247D01*
X181448Y363179D01*
X181519Y363109D01*
X181586Y363037D01*
X181651Y362962D01*
X181713Y362884D01*
X181772Y362804D01*
X181828Y362722D01*
X181880Y362638D01*
X181929Y362552D01*
X181975Y362464D01*
X182018Y362374D01*
X182057Y362283D01*
X182092Y362190D01*
X182124Y362096D01*
X182152Y362001D01*
X182177Y361905D01*
X182197Y361808D01*
X182215Y361710D01*
X182228Y361612D01*
X182237Y361513D01*
X182243Y361414D01*
X182245Y361315D01*
X180975Y363538D02*
X177483Y365443D01*
X186309Y370205D02*
X190119Y358775D01*
X193929Y370205D01*
X198374Y367665D02*
X201549Y370205D01*
X201549Y358775D01*
X198374Y358775D02*
X204724Y358775D01*
X209804Y364490D02*
X209807Y364715D01*
X209815Y364940D01*
X209828Y365164D01*
X209847Y365388D01*
X209871Y365612D01*
X209900Y365835D01*
X209935Y366057D01*
X209975Y366278D01*
X210021Y366498D01*
X210071Y366717D01*
X210127Y366935D01*
X210188Y367152D01*
X210254Y367367D01*
X210325Y367580D01*
X210402Y367791D01*
X210483Y368001D01*
X210569Y368209D01*
X210660Y368414D01*
X210756Y368617D01*
X210756Y368618D02*
X210788Y368706D01*
X210824Y368793D01*
X210863Y368879D01*
X210906Y368963D01*
X210952Y369045D01*
X211001Y369125D01*
X211053Y369203D01*
X211109Y369279D01*
X211167Y369353D01*
X211229Y369424D01*
X211293Y369493D01*
X211360Y369559D01*
X211429Y369622D01*
X211501Y369683D01*
X211575Y369741D01*
X211652Y369795D01*
X211730Y369847D01*
X211811Y369895D01*
X211893Y369940D01*
X211978Y369982D01*
X212064Y370020D01*
X212151Y370055D01*
X212239Y370087D01*
X212329Y370114D01*
X212420Y370139D01*
X212512Y370159D01*
X212604Y370176D01*
X212698Y370189D01*
X212791Y370198D01*
X212885Y370204D01*
X212979Y370206D01*
X213073Y370204D01*
X213167Y370198D01*
X213260Y370189D01*
X213354Y370176D01*
X213446Y370159D01*
X213538Y370139D01*
X213629Y370114D01*
X213719Y370087D01*
X213807Y370055D01*
X213894Y370020D01*
X213980Y369982D01*
X214065Y369940D01*
X214147Y369895D01*
X214228Y369847D01*
X214306Y369795D01*
X214383Y369741D01*
X214457Y369683D01*
X214529Y369622D01*
X214598Y369559D01*
X214665Y369493D01*
X214729Y369424D01*
X214791Y369353D01*
X214849Y369279D01*
X214905Y369203D01*
X214957Y369125D01*
X215006Y369045D01*
X215052Y368963D01*
X215095Y368879D01*
X215134Y368793D01*
X215170Y368706D01*
X215202Y368618D01*
X215202Y368617D02*
X215298Y368414D01*
X215389Y368209D01*
X215475Y368001D01*
X215556Y367791D01*
X215633Y367580D01*
X215704Y367367D01*
X215770Y367152D01*
X215831Y366935D01*
X215887Y366717D01*
X215937Y366498D01*
X215983Y366278D01*
X216023Y366057D01*
X216058Y365835D01*
X216087Y365612D01*
X216111Y365388D01*
X216130Y365164D01*
X216143Y364940D01*
X216151Y364715D01*
X216154Y364490D01*
X209804Y364490D02*
X209807Y364265D01*
X209815Y364040D01*
X209828Y363816D01*
X209847Y363592D01*
X209871Y363368D01*
X209900Y363145D01*
X209935Y362923D01*
X209975Y362702D01*
X210021Y362482D01*
X210071Y362263D01*
X210127Y362045D01*
X210188Y361828D01*
X210254Y361613D01*
X210325Y361400D01*
X210402Y361189D01*
X210483Y360979D01*
X210569Y360771D01*
X210660Y360566D01*
X210756Y360363D01*
X210788Y360275D01*
X210824Y360188D01*
X210863Y360102D01*
X210906Y360018D01*
X210952Y359936D01*
X211001Y359856D01*
X211053Y359778D01*
X211109Y359702D01*
X211167Y359628D01*
X211229Y359557D01*
X211293Y359488D01*
X211360Y359422D01*
X211429Y359359D01*
X211501Y359298D01*
X211575Y359240D01*
X211652Y359186D01*
X211730Y359134D01*
X211811Y359086D01*
X211893Y359041D01*
X211978Y358999D01*
X212064Y358961D01*
X212151Y358926D01*
X212239Y358894D01*
X212329Y358867D01*
X212420Y358842D01*
X212512Y358822D01*
X212604Y358805D01*
X212698Y358792D01*
X212791Y358783D01*
X212885Y358777D01*
X212979Y358775D01*
X215202Y360363D02*
X215298Y360566D01*
X215389Y360771D01*
X215475Y360979D01*
X215556Y361189D01*
X215633Y361400D01*
X215704Y361613D01*
X215770Y361828D01*
X215831Y362045D01*
X215887Y362263D01*
X215937Y362482D01*
X215983Y362702D01*
X216023Y362923D01*
X216058Y363145D01*
X216087Y363368D01*
X216111Y363592D01*
X216130Y363816D01*
X216143Y364040D01*
X216151Y364265D01*
X216154Y364490D01*
X215202Y360363D02*
X215170Y360275D01*
X215134Y360188D01*
X215095Y360102D01*
X215052Y360018D01*
X215006Y359936D01*
X214957Y359856D01*
X214905Y359778D01*
X214849Y359702D01*
X214791Y359628D01*
X214729Y359557D01*
X214665Y359488D01*
X214598Y359422D01*
X214529Y359359D01*
X214457Y359298D01*
X214383Y359240D01*
X214306Y359186D01*
X214228Y359134D01*
X214147Y359086D01*
X214065Y359041D01*
X213980Y358999D01*
X213894Y358961D01*
X213807Y358926D01*
X213719Y358894D01*
X213629Y358867D01*
X213538Y358842D01*
X213446Y358822D01*
X213354Y358805D01*
X213260Y358792D01*
X213167Y358783D01*
X213073Y358777D01*
X212979Y358775D01*
X210439Y361315D02*
X215519Y367665D01*
X221234Y367665D02*
X224409Y370205D01*
X224409Y358775D01*
X221234Y358775D02*
X227584Y358775D01*
M02*
