G04 EAGLE Gerber RS-274X export*
G75*
%MOMM*%
%FSLAX34Y34*%
%LPD*%
%INSilkscreen Bottom*%
%IPPOS*%
%AMOC8*
5,1,8,0,0,1.08239X$1,22.5*%
G01*
%ADD10C,0.152400*%
%ADD11C,0.076200*%
%ADD12C,0.101600*%


D10*
X177038Y233172D02*
X171619Y249428D01*
X166201Y233172D01*
X167555Y237236D02*
X175683Y237236D01*
X159983Y233172D02*
X159983Y249428D01*
X155467Y249428D01*
X155336Y249426D01*
X155204Y249420D01*
X155073Y249411D01*
X154943Y249397D01*
X154812Y249380D01*
X154683Y249359D01*
X154554Y249335D01*
X154426Y249306D01*
X154298Y249274D01*
X154172Y249238D01*
X154047Y249199D01*
X153922Y249156D01*
X153800Y249109D01*
X153678Y249059D01*
X153558Y249005D01*
X153440Y248948D01*
X153324Y248887D01*
X153209Y248823D01*
X153096Y248756D01*
X152985Y248685D01*
X152877Y248611D01*
X152770Y248534D01*
X152666Y248454D01*
X152564Y248371D01*
X152465Y248286D01*
X152368Y248197D01*
X152274Y248105D01*
X152182Y248011D01*
X152093Y247914D01*
X152008Y247815D01*
X151925Y247713D01*
X151845Y247609D01*
X151768Y247502D01*
X151694Y247394D01*
X151623Y247283D01*
X151556Y247170D01*
X151492Y247055D01*
X151431Y246939D01*
X151374Y246821D01*
X151320Y246701D01*
X151270Y246579D01*
X151223Y246457D01*
X151180Y246332D01*
X151141Y246207D01*
X151105Y246081D01*
X151073Y245953D01*
X151044Y245825D01*
X151020Y245696D01*
X150999Y245567D01*
X150982Y245436D01*
X150968Y245306D01*
X150959Y245175D01*
X150953Y245043D01*
X150951Y244912D01*
X150952Y244912D02*
X150952Y237688D01*
X150951Y237688D02*
X150953Y237557D01*
X150959Y237425D01*
X150968Y237294D01*
X150982Y237164D01*
X150999Y237033D01*
X151020Y236904D01*
X151044Y236775D01*
X151073Y236647D01*
X151105Y236519D01*
X151141Y236393D01*
X151180Y236268D01*
X151223Y236143D01*
X151270Y236021D01*
X151320Y235899D01*
X151374Y235779D01*
X151431Y235661D01*
X151492Y235545D01*
X151556Y235430D01*
X151623Y235317D01*
X151694Y235206D01*
X151768Y235098D01*
X151845Y234991D01*
X151925Y234887D01*
X152008Y234785D01*
X152093Y234686D01*
X152182Y234589D01*
X152274Y234495D01*
X152368Y234403D01*
X152465Y234314D01*
X152564Y234229D01*
X152666Y234146D01*
X152770Y234066D01*
X152877Y233989D01*
X152985Y233915D01*
X153096Y233844D01*
X153209Y233777D01*
X153324Y233713D01*
X153440Y233652D01*
X153558Y233595D01*
X153678Y233541D01*
X153800Y233491D01*
X153922Y233444D01*
X154047Y233401D01*
X154172Y233362D01*
X154298Y233326D01*
X154426Y233294D01*
X154554Y233265D01*
X154683Y233241D01*
X154812Y233220D01*
X154943Y233203D01*
X155073Y233189D01*
X155204Y233180D01*
X155336Y233174D01*
X155467Y233172D01*
X159983Y233172D01*
X140257Y233172D02*
X136645Y233172D01*
X140257Y233172D02*
X140375Y233174D01*
X140493Y233180D01*
X140611Y233189D01*
X140728Y233203D01*
X140845Y233220D01*
X140962Y233241D01*
X141077Y233266D01*
X141192Y233295D01*
X141306Y233328D01*
X141418Y233364D01*
X141529Y233404D01*
X141639Y233447D01*
X141748Y233494D01*
X141855Y233544D01*
X141960Y233599D01*
X142063Y233656D01*
X142164Y233717D01*
X142264Y233781D01*
X142361Y233848D01*
X142456Y233918D01*
X142548Y233992D01*
X142639Y234068D01*
X142726Y234148D01*
X142811Y234230D01*
X142893Y234315D01*
X142973Y234402D01*
X143049Y234493D01*
X143123Y234585D01*
X143193Y234680D01*
X143260Y234777D01*
X143324Y234877D01*
X143385Y234978D01*
X143442Y235081D01*
X143497Y235186D01*
X143547Y235293D01*
X143594Y235402D01*
X143637Y235512D01*
X143677Y235623D01*
X143713Y235735D01*
X143746Y235849D01*
X143775Y235964D01*
X143800Y236079D01*
X143821Y236196D01*
X143838Y236313D01*
X143852Y236430D01*
X143861Y236548D01*
X143867Y236666D01*
X143869Y236784D01*
X143870Y236784D02*
X143870Y245816D01*
X143869Y245816D02*
X143867Y245934D01*
X143861Y246052D01*
X143852Y246170D01*
X143838Y246287D01*
X143821Y246404D01*
X143800Y246521D01*
X143775Y246636D01*
X143746Y246751D01*
X143713Y246865D01*
X143677Y246977D01*
X143637Y247088D01*
X143594Y247198D01*
X143547Y247307D01*
X143497Y247414D01*
X143442Y247519D01*
X143385Y247622D01*
X143324Y247723D01*
X143260Y247823D01*
X143193Y247920D01*
X143123Y248015D01*
X143049Y248107D01*
X142973Y248198D01*
X142893Y248285D01*
X142811Y248370D01*
X142726Y248452D01*
X142639Y248532D01*
X142548Y248608D01*
X142456Y248682D01*
X142361Y248752D01*
X142264Y248819D01*
X142164Y248883D01*
X142063Y248944D01*
X141960Y249001D01*
X141855Y249056D01*
X141748Y249106D01*
X141639Y249153D01*
X141529Y249196D01*
X141418Y249236D01*
X141306Y249272D01*
X141192Y249305D01*
X141077Y249334D01*
X140962Y249359D01*
X140845Y249380D01*
X140728Y249397D01*
X140611Y249411D01*
X140493Y249420D01*
X140375Y249426D01*
X140257Y249428D01*
X136645Y249428D01*
X130665Y239494D02*
X119828Y239494D01*
X112357Y242203D02*
X107841Y242203D01*
X107841Y242204D02*
X107708Y242202D01*
X107576Y242196D01*
X107444Y242186D01*
X107312Y242173D01*
X107180Y242155D01*
X107050Y242134D01*
X106919Y242109D01*
X106790Y242080D01*
X106662Y242047D01*
X106534Y242011D01*
X106408Y241971D01*
X106283Y241927D01*
X106159Y241879D01*
X106037Y241828D01*
X105916Y241773D01*
X105797Y241715D01*
X105679Y241653D01*
X105564Y241588D01*
X105450Y241519D01*
X105339Y241448D01*
X105230Y241372D01*
X105123Y241294D01*
X105018Y241213D01*
X104916Y241128D01*
X104816Y241041D01*
X104719Y240951D01*
X104624Y240858D01*
X104533Y240762D01*
X104444Y240664D01*
X104358Y240563D01*
X104275Y240459D01*
X104195Y240353D01*
X104119Y240245D01*
X104045Y240135D01*
X103975Y240022D01*
X103908Y239908D01*
X103845Y239791D01*
X103785Y239673D01*
X103728Y239553D01*
X103675Y239431D01*
X103626Y239308D01*
X103580Y239184D01*
X103538Y239058D01*
X103500Y238931D01*
X103465Y238803D01*
X103434Y238674D01*
X103407Y238545D01*
X103384Y238414D01*
X103364Y238283D01*
X103349Y238151D01*
X103337Y238019D01*
X103329Y237887D01*
X103325Y237754D01*
X103325Y237622D01*
X103329Y237489D01*
X103337Y237357D01*
X103349Y237225D01*
X103364Y237093D01*
X103384Y236962D01*
X103407Y236831D01*
X103434Y236702D01*
X103465Y236573D01*
X103500Y236445D01*
X103538Y236318D01*
X103580Y236192D01*
X103626Y236068D01*
X103675Y235945D01*
X103728Y235823D01*
X103785Y235703D01*
X103845Y235585D01*
X103908Y235468D01*
X103975Y235354D01*
X104045Y235241D01*
X104119Y235131D01*
X104195Y235023D01*
X104275Y234917D01*
X104358Y234813D01*
X104444Y234712D01*
X104533Y234614D01*
X104624Y234518D01*
X104719Y234425D01*
X104816Y234335D01*
X104916Y234248D01*
X105018Y234163D01*
X105123Y234082D01*
X105230Y234004D01*
X105339Y233928D01*
X105450Y233857D01*
X105564Y233788D01*
X105679Y233723D01*
X105797Y233661D01*
X105916Y233603D01*
X106037Y233548D01*
X106159Y233497D01*
X106283Y233449D01*
X106408Y233405D01*
X106534Y233365D01*
X106662Y233329D01*
X106790Y233296D01*
X106919Y233267D01*
X107050Y233242D01*
X107180Y233221D01*
X107312Y233203D01*
X107444Y233190D01*
X107576Y233180D01*
X107708Y233174D01*
X107841Y233172D01*
X112357Y233172D01*
X112357Y249428D01*
X107841Y249428D01*
X107722Y249426D01*
X107602Y249420D01*
X107483Y249410D01*
X107365Y249396D01*
X107246Y249379D01*
X107129Y249357D01*
X107012Y249332D01*
X106897Y249302D01*
X106782Y249269D01*
X106668Y249232D01*
X106556Y249192D01*
X106445Y249147D01*
X106336Y249099D01*
X106228Y249048D01*
X106122Y248993D01*
X106018Y248934D01*
X105916Y248872D01*
X105816Y248807D01*
X105718Y248738D01*
X105622Y248666D01*
X105529Y248591D01*
X105439Y248514D01*
X105351Y248433D01*
X105266Y248349D01*
X105184Y248262D01*
X105104Y248173D01*
X105028Y248081D01*
X104954Y247987D01*
X104884Y247890D01*
X104817Y247792D01*
X104753Y247691D01*
X104693Y247587D01*
X104636Y247482D01*
X104583Y247375D01*
X104533Y247267D01*
X104487Y247157D01*
X104445Y247045D01*
X104406Y246932D01*
X104371Y246818D01*
X104340Y246703D01*
X104312Y246586D01*
X104289Y246469D01*
X104269Y246352D01*
X104253Y246233D01*
X104241Y246114D01*
X104233Y245995D01*
X104229Y245876D01*
X104229Y245756D01*
X104233Y245637D01*
X104241Y245518D01*
X104253Y245399D01*
X104269Y245280D01*
X104289Y245163D01*
X104312Y245046D01*
X104340Y244929D01*
X104371Y244814D01*
X104406Y244700D01*
X104445Y244587D01*
X104487Y244475D01*
X104533Y244365D01*
X104583Y244257D01*
X104636Y244150D01*
X104693Y244045D01*
X104753Y243941D01*
X104817Y243840D01*
X104884Y243742D01*
X104954Y243645D01*
X105028Y243551D01*
X105104Y243459D01*
X105184Y243370D01*
X105266Y243283D01*
X105351Y243199D01*
X105439Y243118D01*
X105529Y243041D01*
X105622Y242966D01*
X105718Y242894D01*
X105816Y242825D01*
X105916Y242760D01*
X106018Y242698D01*
X106122Y242639D01*
X106228Y242584D01*
X106336Y242533D01*
X106445Y242485D01*
X106556Y242440D01*
X106668Y242400D01*
X106782Y242363D01*
X106897Y242330D01*
X107012Y242300D01*
X107129Y242275D01*
X107246Y242253D01*
X107365Y242236D01*
X107483Y242222D01*
X107602Y242212D01*
X107722Y242206D01*
X107841Y242204D01*
X97458Y244912D02*
X97458Y237688D01*
X97458Y244912D02*
X97456Y245045D01*
X97450Y245177D01*
X97440Y245309D01*
X97427Y245441D01*
X97409Y245573D01*
X97388Y245703D01*
X97363Y245834D01*
X97334Y245963D01*
X97301Y246091D01*
X97265Y246219D01*
X97225Y246345D01*
X97181Y246470D01*
X97133Y246594D01*
X97082Y246716D01*
X97027Y246837D01*
X96969Y246956D01*
X96907Y247074D01*
X96842Y247189D01*
X96773Y247303D01*
X96702Y247414D01*
X96626Y247523D01*
X96548Y247630D01*
X96467Y247735D01*
X96382Y247837D01*
X96295Y247937D01*
X96205Y248034D01*
X96112Y248129D01*
X96016Y248220D01*
X95918Y248309D01*
X95817Y248395D01*
X95713Y248478D01*
X95607Y248558D01*
X95499Y248634D01*
X95389Y248708D01*
X95276Y248778D01*
X95162Y248845D01*
X95045Y248908D01*
X94927Y248968D01*
X94807Y249025D01*
X94685Y249078D01*
X94562Y249127D01*
X94438Y249173D01*
X94312Y249215D01*
X94185Y249253D01*
X94057Y249288D01*
X93928Y249319D01*
X93799Y249346D01*
X93668Y249369D01*
X93537Y249389D01*
X93405Y249404D01*
X93273Y249416D01*
X93141Y249424D01*
X93008Y249428D01*
X92876Y249428D01*
X92743Y249424D01*
X92611Y249416D01*
X92479Y249404D01*
X92347Y249389D01*
X92216Y249369D01*
X92085Y249346D01*
X91956Y249319D01*
X91827Y249288D01*
X91699Y249253D01*
X91572Y249215D01*
X91446Y249173D01*
X91322Y249127D01*
X91199Y249078D01*
X91077Y249025D01*
X90957Y248968D01*
X90839Y248908D01*
X90722Y248845D01*
X90608Y248778D01*
X90495Y248708D01*
X90385Y248634D01*
X90277Y248558D01*
X90171Y248478D01*
X90067Y248395D01*
X89966Y248309D01*
X89868Y248220D01*
X89772Y248129D01*
X89679Y248034D01*
X89589Y247937D01*
X89502Y247837D01*
X89417Y247735D01*
X89336Y247630D01*
X89258Y247523D01*
X89182Y247414D01*
X89111Y247303D01*
X89042Y247189D01*
X88977Y247074D01*
X88915Y246956D01*
X88857Y246837D01*
X88802Y246716D01*
X88751Y246594D01*
X88703Y246470D01*
X88659Y246345D01*
X88619Y246219D01*
X88583Y246091D01*
X88550Y245963D01*
X88521Y245834D01*
X88496Y245703D01*
X88475Y245573D01*
X88457Y245441D01*
X88444Y245309D01*
X88434Y245177D01*
X88428Y245045D01*
X88426Y244912D01*
X88427Y244912D02*
X88427Y237688D01*
X88426Y237688D02*
X88428Y237555D01*
X88434Y237423D01*
X88444Y237291D01*
X88457Y237159D01*
X88475Y237027D01*
X88496Y236897D01*
X88521Y236766D01*
X88550Y236637D01*
X88583Y236509D01*
X88619Y236381D01*
X88659Y236255D01*
X88703Y236130D01*
X88751Y236006D01*
X88802Y235884D01*
X88857Y235763D01*
X88915Y235644D01*
X88977Y235526D01*
X89042Y235411D01*
X89111Y235297D01*
X89182Y235186D01*
X89258Y235077D01*
X89336Y234970D01*
X89417Y234865D01*
X89502Y234763D01*
X89589Y234663D01*
X89679Y234566D01*
X89772Y234471D01*
X89868Y234380D01*
X89966Y234291D01*
X90067Y234205D01*
X90171Y234122D01*
X90277Y234042D01*
X90385Y233966D01*
X90495Y233892D01*
X90608Y233822D01*
X90722Y233755D01*
X90839Y233692D01*
X90957Y233632D01*
X91077Y233575D01*
X91199Y233522D01*
X91322Y233473D01*
X91446Y233427D01*
X91572Y233385D01*
X91699Y233347D01*
X91827Y233312D01*
X91956Y233281D01*
X92085Y233254D01*
X92216Y233231D01*
X92347Y233211D01*
X92479Y233196D01*
X92611Y233184D01*
X92743Y233176D01*
X92876Y233172D01*
X93008Y233172D01*
X93141Y233176D01*
X93273Y233184D01*
X93405Y233196D01*
X93537Y233211D01*
X93668Y233231D01*
X93799Y233254D01*
X93928Y233281D01*
X94057Y233312D01*
X94185Y233347D01*
X94312Y233385D01*
X94438Y233427D01*
X94562Y233473D01*
X94685Y233522D01*
X94807Y233575D01*
X94927Y233632D01*
X95045Y233692D01*
X95162Y233755D01*
X95276Y233822D01*
X95389Y233892D01*
X95499Y233966D01*
X95607Y234042D01*
X95713Y234122D01*
X95817Y234205D01*
X95918Y234291D01*
X96016Y234380D01*
X96112Y234471D01*
X96205Y234566D01*
X96295Y234663D01*
X96382Y234763D01*
X96467Y234865D01*
X96548Y234970D01*
X96626Y235077D01*
X96702Y235186D01*
X96773Y235297D01*
X96842Y235411D01*
X96907Y235526D01*
X96969Y235644D01*
X97027Y235763D01*
X97082Y235884D01*
X97133Y236006D01*
X97181Y236130D01*
X97225Y236255D01*
X97265Y236381D01*
X97301Y236509D01*
X97334Y236637D01*
X97363Y236766D01*
X97388Y236897D01*
X97409Y237027D01*
X97427Y237159D01*
X97440Y237291D01*
X97450Y237423D01*
X97456Y237555D01*
X97458Y237688D01*
X82730Y233172D02*
X77311Y249428D01*
X71892Y233172D01*
X73247Y237236D02*
X81375Y237236D01*
X65583Y233172D02*
X65583Y249428D01*
X61067Y249428D01*
X60934Y249426D01*
X60802Y249420D01*
X60670Y249410D01*
X60538Y249397D01*
X60406Y249379D01*
X60276Y249358D01*
X60145Y249333D01*
X60016Y249304D01*
X59888Y249271D01*
X59760Y249235D01*
X59634Y249195D01*
X59509Y249151D01*
X59385Y249103D01*
X59263Y249052D01*
X59142Y248997D01*
X59023Y248939D01*
X58905Y248877D01*
X58790Y248812D01*
X58676Y248743D01*
X58565Y248672D01*
X58456Y248596D01*
X58349Y248518D01*
X58244Y248437D01*
X58142Y248352D01*
X58042Y248265D01*
X57945Y248175D01*
X57850Y248082D01*
X57759Y247986D01*
X57670Y247888D01*
X57584Y247787D01*
X57501Y247683D01*
X57421Y247577D01*
X57345Y247469D01*
X57271Y247359D01*
X57201Y247246D01*
X57134Y247132D01*
X57071Y247015D01*
X57011Y246897D01*
X56954Y246777D01*
X56901Y246655D01*
X56852Y246532D01*
X56806Y246408D01*
X56764Y246282D01*
X56726Y246155D01*
X56691Y246027D01*
X56660Y245898D01*
X56633Y245769D01*
X56610Y245638D01*
X56590Y245507D01*
X56575Y245375D01*
X56563Y245243D01*
X56555Y245111D01*
X56551Y244978D01*
X56551Y244846D01*
X56555Y244713D01*
X56563Y244581D01*
X56575Y244449D01*
X56590Y244317D01*
X56610Y244186D01*
X56633Y244055D01*
X56660Y243926D01*
X56691Y243797D01*
X56726Y243669D01*
X56764Y243542D01*
X56806Y243416D01*
X56852Y243292D01*
X56901Y243169D01*
X56954Y243047D01*
X57011Y242927D01*
X57071Y242809D01*
X57134Y242692D01*
X57201Y242578D01*
X57271Y242465D01*
X57345Y242355D01*
X57421Y242247D01*
X57501Y242141D01*
X57584Y242037D01*
X57670Y241936D01*
X57759Y241838D01*
X57850Y241742D01*
X57945Y241649D01*
X58042Y241559D01*
X58142Y241472D01*
X58244Y241387D01*
X58349Y241306D01*
X58456Y241228D01*
X58565Y241152D01*
X58676Y241081D01*
X58790Y241012D01*
X58905Y240947D01*
X59023Y240885D01*
X59142Y240827D01*
X59263Y240772D01*
X59385Y240721D01*
X59509Y240673D01*
X59634Y240629D01*
X59760Y240589D01*
X59888Y240553D01*
X60016Y240520D01*
X60145Y240491D01*
X60276Y240466D01*
X60406Y240445D01*
X60538Y240427D01*
X60670Y240414D01*
X60802Y240404D01*
X60934Y240398D01*
X61067Y240396D01*
X61067Y240397D02*
X65583Y240397D01*
X60164Y240397D02*
X56552Y233172D01*
X49522Y233172D02*
X49522Y249428D01*
X45006Y249428D01*
X44875Y249426D01*
X44743Y249420D01*
X44612Y249411D01*
X44482Y249397D01*
X44351Y249380D01*
X44222Y249359D01*
X44093Y249335D01*
X43965Y249306D01*
X43837Y249274D01*
X43711Y249238D01*
X43586Y249199D01*
X43461Y249156D01*
X43339Y249109D01*
X43217Y249059D01*
X43097Y249005D01*
X42979Y248948D01*
X42863Y248887D01*
X42748Y248823D01*
X42635Y248756D01*
X42524Y248685D01*
X42416Y248611D01*
X42309Y248534D01*
X42205Y248454D01*
X42103Y248371D01*
X42004Y248286D01*
X41907Y248197D01*
X41813Y248105D01*
X41721Y248011D01*
X41632Y247914D01*
X41547Y247815D01*
X41464Y247713D01*
X41384Y247609D01*
X41307Y247502D01*
X41233Y247394D01*
X41162Y247283D01*
X41095Y247170D01*
X41031Y247055D01*
X40970Y246939D01*
X40913Y246821D01*
X40859Y246701D01*
X40809Y246579D01*
X40762Y246457D01*
X40719Y246332D01*
X40680Y246207D01*
X40644Y246081D01*
X40612Y245953D01*
X40583Y245825D01*
X40559Y245696D01*
X40538Y245567D01*
X40521Y245436D01*
X40507Y245306D01*
X40498Y245175D01*
X40492Y245043D01*
X40490Y244912D01*
X40491Y244912D02*
X40491Y237688D01*
X40490Y237688D02*
X40492Y237557D01*
X40498Y237425D01*
X40507Y237294D01*
X40521Y237164D01*
X40538Y237033D01*
X40559Y236904D01*
X40583Y236775D01*
X40612Y236647D01*
X40644Y236519D01*
X40680Y236393D01*
X40719Y236268D01*
X40762Y236143D01*
X40809Y236021D01*
X40859Y235899D01*
X40913Y235779D01*
X40970Y235661D01*
X41031Y235545D01*
X41095Y235430D01*
X41162Y235317D01*
X41233Y235206D01*
X41307Y235098D01*
X41384Y234991D01*
X41464Y234887D01*
X41547Y234785D01*
X41632Y234686D01*
X41721Y234589D01*
X41813Y234495D01*
X41907Y234403D01*
X42004Y234314D01*
X42103Y234229D01*
X42205Y234146D01*
X42309Y234066D01*
X42416Y233989D01*
X42524Y233915D01*
X42635Y233844D01*
X42748Y233777D01*
X42863Y233713D01*
X42979Y233652D01*
X43097Y233595D01*
X43217Y233541D01*
X43339Y233491D01*
X43461Y233444D01*
X43586Y233401D01*
X43711Y233362D01*
X43837Y233326D01*
X43965Y233294D01*
X44093Y233265D01*
X44222Y233241D01*
X44351Y233220D01*
X44482Y233203D01*
X44612Y233189D01*
X44743Y233180D01*
X44875Y233174D01*
X45006Y233172D01*
X49522Y233172D01*
X168007Y218694D02*
X168009Y218819D01*
X168015Y218944D01*
X168024Y219069D01*
X168038Y219193D01*
X168055Y219317D01*
X168076Y219441D01*
X168101Y219563D01*
X168130Y219685D01*
X168162Y219806D01*
X168198Y219926D01*
X168238Y220045D01*
X168281Y220162D01*
X168328Y220278D01*
X168379Y220393D01*
X168433Y220505D01*
X168491Y220617D01*
X168551Y220726D01*
X168616Y220833D01*
X168683Y220939D01*
X168754Y221042D01*
X168828Y221143D01*
X168905Y221242D01*
X168985Y221338D01*
X169068Y221432D01*
X169153Y221523D01*
X169242Y221612D01*
X169333Y221697D01*
X169427Y221780D01*
X169523Y221860D01*
X169622Y221937D01*
X169723Y222011D01*
X169826Y222082D01*
X169932Y222149D01*
X170039Y222214D01*
X170148Y222274D01*
X170260Y222332D01*
X170372Y222386D01*
X170487Y222437D01*
X170603Y222484D01*
X170720Y222527D01*
X170839Y222567D01*
X170959Y222603D01*
X171080Y222635D01*
X171202Y222664D01*
X171324Y222689D01*
X171448Y222710D01*
X171572Y222727D01*
X171696Y222741D01*
X171821Y222750D01*
X171946Y222756D01*
X172071Y222758D01*
X172214Y222756D01*
X172356Y222750D01*
X172499Y222740D01*
X172641Y222727D01*
X172782Y222709D01*
X172924Y222688D01*
X173064Y222663D01*
X173204Y222634D01*
X173343Y222601D01*
X173481Y222564D01*
X173618Y222524D01*
X173753Y222480D01*
X173888Y222432D01*
X174021Y222380D01*
X174153Y222325D01*
X174283Y222266D01*
X174411Y222204D01*
X174538Y222138D01*
X174663Y222069D01*
X174786Y221997D01*
X174907Y221921D01*
X175025Y221842D01*
X175142Y221759D01*
X175256Y221674D01*
X175368Y221585D01*
X175477Y221494D01*
X175584Y221399D01*
X175689Y221302D01*
X175790Y221201D01*
X175889Y221098D01*
X175985Y220993D01*
X176078Y220884D01*
X176168Y220773D01*
X176255Y220660D01*
X176339Y220545D01*
X176419Y220427D01*
X176497Y220307D01*
X176571Y220185D01*
X176641Y220061D01*
X176709Y219935D01*
X176772Y219807D01*
X176833Y219678D01*
X176890Y219547D01*
X176943Y219415D01*
X176992Y219281D01*
X177038Y219146D01*
X169362Y215533D02*
X169268Y215625D01*
X169178Y215719D01*
X169090Y215816D01*
X169005Y215916D01*
X168923Y216018D01*
X168844Y216123D01*
X168769Y216230D01*
X168697Y216339D01*
X168628Y216450D01*
X168562Y216564D01*
X168500Y216679D01*
X168441Y216796D01*
X168386Y216915D01*
X168335Y217035D01*
X168287Y217157D01*
X168242Y217280D01*
X168202Y217404D01*
X168165Y217530D01*
X168132Y217657D01*
X168103Y217784D01*
X168077Y217913D01*
X168056Y218042D01*
X168038Y218172D01*
X168025Y218302D01*
X168015Y218432D01*
X168009Y218563D01*
X168007Y218694D01*
X169362Y215533D02*
X177038Y206502D01*
X168007Y206502D01*
X161407Y214630D02*
X161403Y214950D01*
X161392Y215269D01*
X161373Y215589D01*
X161346Y215907D01*
X161312Y216225D01*
X161270Y216542D01*
X161220Y216858D01*
X161163Y217173D01*
X161099Y217486D01*
X161027Y217798D01*
X160948Y218108D01*
X160861Y218415D01*
X160767Y218721D01*
X160666Y219024D01*
X160557Y219325D01*
X160442Y219623D01*
X160319Y219919D01*
X160189Y220211D01*
X160052Y220500D01*
X160052Y220501D02*
X160013Y220609D01*
X159970Y220716D01*
X159924Y220821D01*
X159873Y220925D01*
X159820Y221027D01*
X159763Y221127D01*
X159702Y221225D01*
X159638Y221320D01*
X159571Y221414D01*
X159500Y221505D01*
X159427Y221594D01*
X159350Y221680D01*
X159271Y221763D01*
X159189Y221844D01*
X159104Y221922D01*
X159016Y221996D01*
X158926Y222068D01*
X158834Y222136D01*
X158739Y222202D01*
X158642Y222264D01*
X158543Y222322D01*
X158441Y222378D01*
X158339Y222429D01*
X158234Y222477D01*
X158128Y222522D01*
X158020Y222563D01*
X157911Y222600D01*
X157801Y222633D01*
X157689Y222662D01*
X157577Y222688D01*
X157464Y222710D01*
X157350Y222727D01*
X157236Y222741D01*
X157121Y222751D01*
X157006Y222757D01*
X156891Y222759D01*
X156891Y222758D02*
X156776Y222756D01*
X156661Y222750D01*
X156546Y222740D01*
X156432Y222726D01*
X156318Y222709D01*
X156205Y222687D01*
X156093Y222661D01*
X155981Y222632D01*
X155871Y222599D01*
X155762Y222562D01*
X155654Y222521D01*
X155548Y222476D01*
X155444Y222428D01*
X155341Y222377D01*
X155240Y222321D01*
X155140Y222263D01*
X155043Y222201D01*
X154949Y222136D01*
X154856Y222067D01*
X154766Y221995D01*
X154678Y221921D01*
X154593Y221843D01*
X154511Y221762D01*
X154432Y221679D01*
X154355Y221593D01*
X154282Y221504D01*
X154211Y221413D01*
X154144Y221319D01*
X154080Y221224D01*
X154019Y221126D01*
X153962Y221026D01*
X153909Y220924D01*
X153858Y220820D01*
X153812Y220715D01*
X153769Y220608D01*
X153730Y220500D01*
X153731Y220500D02*
X153594Y220211D01*
X153464Y219919D01*
X153341Y219623D01*
X153226Y219325D01*
X153117Y219024D01*
X153016Y218721D01*
X152922Y218415D01*
X152835Y218108D01*
X152756Y217798D01*
X152684Y217486D01*
X152620Y217173D01*
X152563Y216858D01*
X152513Y216542D01*
X152471Y216225D01*
X152437Y215907D01*
X152410Y215589D01*
X152391Y215269D01*
X152380Y214950D01*
X152376Y214630D01*
X161406Y214630D02*
X161402Y214310D01*
X161391Y213991D01*
X161372Y213671D01*
X161345Y213353D01*
X161311Y213035D01*
X161269Y212718D01*
X161219Y212402D01*
X161162Y212087D01*
X161098Y211774D01*
X161026Y211462D01*
X160947Y211152D01*
X160860Y210845D01*
X160766Y210539D01*
X160665Y210236D01*
X160556Y209935D01*
X160441Y209637D01*
X160318Y209341D01*
X160188Y209049D01*
X160051Y208760D01*
X160052Y208760D02*
X160013Y208652D01*
X159970Y208545D01*
X159924Y208440D01*
X159873Y208336D01*
X159820Y208234D01*
X159763Y208134D01*
X159702Y208036D01*
X159638Y207941D01*
X159571Y207847D01*
X159500Y207756D01*
X159427Y207667D01*
X159350Y207581D01*
X159271Y207498D01*
X159189Y207417D01*
X159104Y207339D01*
X159016Y207265D01*
X158926Y207193D01*
X158833Y207124D01*
X158739Y207059D01*
X158642Y206997D01*
X158542Y206939D01*
X158441Y206883D01*
X158339Y206832D01*
X158234Y206784D01*
X158128Y206739D01*
X158020Y206698D01*
X157911Y206661D01*
X157801Y206628D01*
X157689Y206599D01*
X157577Y206573D01*
X157464Y206551D01*
X157350Y206534D01*
X157236Y206520D01*
X157121Y206510D01*
X157006Y206504D01*
X156891Y206502D01*
X153731Y208760D02*
X153594Y209049D01*
X153464Y209341D01*
X153341Y209637D01*
X153226Y209935D01*
X153117Y210236D01*
X153016Y210539D01*
X152922Y210845D01*
X152835Y211152D01*
X152756Y211462D01*
X152684Y211774D01*
X152620Y212087D01*
X152563Y212402D01*
X152513Y212718D01*
X152471Y213035D01*
X152437Y213353D01*
X152410Y213671D01*
X152391Y213991D01*
X152380Y214310D01*
X152376Y214630D01*
X153730Y208760D02*
X153769Y208652D01*
X153812Y208545D01*
X153858Y208440D01*
X153909Y208336D01*
X153962Y208234D01*
X154020Y208134D01*
X154080Y208036D01*
X154144Y207941D01*
X154211Y207847D01*
X154282Y207756D01*
X154355Y207667D01*
X154432Y207581D01*
X154511Y207498D01*
X154593Y207417D01*
X154678Y207339D01*
X154766Y207265D01*
X154856Y207193D01*
X154949Y207124D01*
X155043Y207059D01*
X155140Y206997D01*
X155240Y206939D01*
X155341Y206883D01*
X155444Y206832D01*
X155548Y206784D01*
X155654Y206739D01*
X155762Y206698D01*
X155871Y206661D01*
X155981Y206628D01*
X156093Y206599D01*
X156205Y206573D01*
X156318Y206551D01*
X156432Y206534D01*
X156546Y206520D01*
X156661Y206510D01*
X156776Y206504D01*
X156891Y206502D01*
X160504Y210114D02*
X153279Y219146D01*
X145776Y219146D02*
X141260Y222758D01*
X141260Y206502D01*
X145776Y206502D02*
X136744Y206502D01*
X126532Y213727D02*
X121113Y213727D01*
X126532Y213727D02*
X126650Y213729D01*
X126768Y213735D01*
X126886Y213744D01*
X127003Y213758D01*
X127120Y213775D01*
X127237Y213796D01*
X127352Y213821D01*
X127467Y213850D01*
X127581Y213883D01*
X127693Y213919D01*
X127804Y213959D01*
X127914Y214002D01*
X128023Y214049D01*
X128130Y214099D01*
X128235Y214154D01*
X128338Y214211D01*
X128439Y214272D01*
X128539Y214336D01*
X128636Y214403D01*
X128731Y214473D01*
X128823Y214547D01*
X128914Y214623D01*
X129001Y214703D01*
X129086Y214785D01*
X129168Y214870D01*
X129248Y214957D01*
X129324Y215048D01*
X129398Y215140D01*
X129468Y215235D01*
X129535Y215332D01*
X129599Y215432D01*
X129660Y215533D01*
X129717Y215636D01*
X129772Y215741D01*
X129822Y215848D01*
X129869Y215957D01*
X129912Y216067D01*
X129952Y216178D01*
X129988Y216290D01*
X130021Y216404D01*
X130050Y216519D01*
X130075Y216634D01*
X130096Y216751D01*
X130113Y216868D01*
X130127Y216985D01*
X130136Y217103D01*
X130142Y217221D01*
X130144Y217339D01*
X130144Y218242D01*
X130145Y218242D02*
X130143Y218375D01*
X130137Y218507D01*
X130127Y218639D01*
X130114Y218771D01*
X130096Y218903D01*
X130075Y219033D01*
X130050Y219164D01*
X130021Y219293D01*
X129988Y219421D01*
X129952Y219549D01*
X129912Y219675D01*
X129868Y219800D01*
X129820Y219924D01*
X129769Y220046D01*
X129714Y220167D01*
X129656Y220286D01*
X129594Y220404D01*
X129529Y220519D01*
X129460Y220633D01*
X129389Y220744D01*
X129313Y220853D01*
X129235Y220960D01*
X129154Y221065D01*
X129069Y221167D01*
X128982Y221267D01*
X128892Y221364D01*
X128799Y221459D01*
X128703Y221550D01*
X128605Y221639D01*
X128504Y221725D01*
X128400Y221808D01*
X128294Y221888D01*
X128186Y221964D01*
X128076Y222038D01*
X127963Y222108D01*
X127849Y222175D01*
X127732Y222238D01*
X127614Y222298D01*
X127494Y222355D01*
X127372Y222408D01*
X127249Y222457D01*
X127125Y222503D01*
X126999Y222545D01*
X126872Y222583D01*
X126744Y222618D01*
X126615Y222649D01*
X126486Y222676D01*
X126355Y222699D01*
X126224Y222719D01*
X126092Y222734D01*
X125960Y222746D01*
X125828Y222754D01*
X125695Y222758D01*
X125563Y222758D01*
X125430Y222754D01*
X125298Y222746D01*
X125166Y222734D01*
X125034Y222719D01*
X124903Y222699D01*
X124772Y222676D01*
X124643Y222649D01*
X124514Y222618D01*
X124386Y222583D01*
X124259Y222545D01*
X124133Y222503D01*
X124009Y222457D01*
X123886Y222408D01*
X123764Y222355D01*
X123644Y222298D01*
X123526Y222238D01*
X123409Y222175D01*
X123295Y222108D01*
X123182Y222038D01*
X123072Y221964D01*
X122964Y221888D01*
X122858Y221808D01*
X122754Y221725D01*
X122653Y221639D01*
X122555Y221550D01*
X122459Y221459D01*
X122366Y221364D01*
X122276Y221267D01*
X122189Y221167D01*
X122104Y221065D01*
X122023Y220960D01*
X121945Y220853D01*
X121869Y220744D01*
X121798Y220633D01*
X121729Y220519D01*
X121664Y220404D01*
X121602Y220286D01*
X121544Y220167D01*
X121489Y220046D01*
X121438Y219924D01*
X121390Y219800D01*
X121346Y219675D01*
X121306Y219549D01*
X121270Y219421D01*
X121237Y219293D01*
X121208Y219164D01*
X121183Y219033D01*
X121162Y218903D01*
X121144Y218771D01*
X121131Y218639D01*
X121121Y218507D01*
X121115Y218375D01*
X121113Y218242D01*
X121113Y213727D01*
X121115Y213552D01*
X121121Y213378D01*
X121132Y213204D01*
X121147Y213030D01*
X121166Y212856D01*
X121189Y212683D01*
X121216Y212511D01*
X121248Y212339D01*
X121283Y212168D01*
X121323Y211998D01*
X121367Y211829D01*
X121415Y211661D01*
X121467Y211494D01*
X121523Y211329D01*
X121583Y211165D01*
X121646Y211002D01*
X121714Y210842D01*
X121786Y210682D01*
X121861Y210525D01*
X121941Y210369D01*
X122024Y210216D01*
X122110Y210064D01*
X122201Y209915D01*
X122295Y209768D01*
X122392Y209623D01*
X122493Y209480D01*
X122597Y209340D01*
X122705Y209203D01*
X122816Y209068D01*
X122930Y208936D01*
X123047Y208807D01*
X123168Y208680D01*
X123291Y208557D01*
X123418Y208436D01*
X123547Y208319D01*
X123679Y208205D01*
X123814Y208094D01*
X123951Y207986D01*
X124091Y207882D01*
X124234Y207781D01*
X124379Y207684D01*
X124526Y207590D01*
X124675Y207499D01*
X124827Y207413D01*
X124980Y207330D01*
X125136Y207250D01*
X125293Y207175D01*
X125453Y207103D01*
X125613Y207035D01*
X125776Y206972D01*
X125940Y206912D01*
X126105Y206856D01*
X126272Y206804D01*
X126440Y206756D01*
X126609Y206712D01*
X126779Y206672D01*
X126950Y206637D01*
X127122Y206605D01*
X127294Y206578D01*
X127467Y206555D01*
X127641Y206536D01*
X127815Y206521D01*
X127989Y206510D01*
X128163Y206504D01*
X128338Y206502D01*
X101661Y206502D02*
X107080Y222758D01*
X96242Y222758D02*
X101661Y206502D01*
X85578Y222758D02*
X85453Y222756D01*
X85328Y222750D01*
X85203Y222741D01*
X85079Y222727D01*
X84955Y222710D01*
X84831Y222689D01*
X84709Y222664D01*
X84587Y222635D01*
X84466Y222603D01*
X84346Y222567D01*
X84227Y222527D01*
X84110Y222484D01*
X83994Y222437D01*
X83879Y222386D01*
X83767Y222332D01*
X83655Y222274D01*
X83546Y222214D01*
X83439Y222149D01*
X83333Y222082D01*
X83230Y222011D01*
X83129Y221937D01*
X83030Y221860D01*
X82934Y221780D01*
X82840Y221697D01*
X82749Y221612D01*
X82660Y221523D01*
X82575Y221432D01*
X82492Y221338D01*
X82412Y221242D01*
X82335Y221143D01*
X82261Y221042D01*
X82190Y220939D01*
X82123Y220833D01*
X82058Y220726D01*
X81998Y220617D01*
X81940Y220505D01*
X81886Y220393D01*
X81835Y220278D01*
X81788Y220162D01*
X81745Y220045D01*
X81705Y219926D01*
X81669Y219806D01*
X81637Y219685D01*
X81608Y219563D01*
X81583Y219441D01*
X81562Y219317D01*
X81545Y219193D01*
X81531Y219069D01*
X81522Y218944D01*
X81516Y218819D01*
X81514Y218694D01*
X85578Y222758D02*
X85721Y222756D01*
X85863Y222750D01*
X86006Y222740D01*
X86148Y222727D01*
X86289Y222709D01*
X86431Y222688D01*
X86571Y222663D01*
X86711Y222634D01*
X86850Y222601D01*
X86988Y222564D01*
X87125Y222524D01*
X87260Y222480D01*
X87395Y222432D01*
X87528Y222380D01*
X87660Y222325D01*
X87790Y222266D01*
X87918Y222204D01*
X88045Y222138D01*
X88170Y222069D01*
X88293Y221997D01*
X88414Y221921D01*
X88532Y221842D01*
X88649Y221759D01*
X88763Y221674D01*
X88875Y221585D01*
X88984Y221494D01*
X89091Y221399D01*
X89196Y221302D01*
X89297Y221201D01*
X89396Y221098D01*
X89492Y220993D01*
X89585Y220884D01*
X89675Y220773D01*
X89762Y220660D01*
X89846Y220545D01*
X89926Y220427D01*
X90004Y220307D01*
X90078Y220185D01*
X90148Y220061D01*
X90216Y219935D01*
X90279Y219807D01*
X90340Y219678D01*
X90397Y219547D01*
X90450Y219415D01*
X90499Y219281D01*
X90545Y219146D01*
X82869Y215533D02*
X82775Y215625D01*
X82685Y215719D01*
X82597Y215816D01*
X82512Y215916D01*
X82430Y216018D01*
X82351Y216123D01*
X82276Y216230D01*
X82204Y216339D01*
X82135Y216450D01*
X82069Y216564D01*
X82007Y216679D01*
X81948Y216796D01*
X81893Y216915D01*
X81842Y217035D01*
X81794Y217157D01*
X81749Y217280D01*
X81709Y217404D01*
X81672Y217530D01*
X81639Y217657D01*
X81610Y217784D01*
X81584Y217913D01*
X81563Y218042D01*
X81545Y218172D01*
X81532Y218302D01*
X81522Y218432D01*
X81516Y218563D01*
X81514Y218694D01*
X82869Y215533D02*
X90545Y206502D01*
X81514Y206502D01*
X75539Y206502D02*
X75539Y207405D01*
X74636Y207405D01*
X74636Y206502D01*
X75539Y206502D01*
X68661Y214630D02*
X68657Y214950D01*
X68646Y215269D01*
X68627Y215589D01*
X68600Y215907D01*
X68566Y216225D01*
X68524Y216542D01*
X68474Y216858D01*
X68417Y217173D01*
X68353Y217486D01*
X68281Y217798D01*
X68202Y218108D01*
X68115Y218415D01*
X68021Y218721D01*
X67920Y219024D01*
X67811Y219325D01*
X67696Y219623D01*
X67573Y219919D01*
X67443Y220211D01*
X67306Y220500D01*
X67307Y220501D02*
X67268Y220609D01*
X67225Y220716D01*
X67179Y220821D01*
X67128Y220925D01*
X67075Y221027D01*
X67018Y221127D01*
X66957Y221225D01*
X66893Y221320D01*
X66826Y221414D01*
X66755Y221505D01*
X66682Y221594D01*
X66605Y221680D01*
X66526Y221763D01*
X66444Y221844D01*
X66359Y221922D01*
X66271Y221996D01*
X66181Y222068D01*
X66089Y222136D01*
X65994Y222202D01*
X65897Y222264D01*
X65798Y222322D01*
X65696Y222378D01*
X65594Y222429D01*
X65489Y222477D01*
X65383Y222522D01*
X65275Y222563D01*
X65166Y222600D01*
X65056Y222633D01*
X64944Y222662D01*
X64832Y222688D01*
X64719Y222710D01*
X64605Y222727D01*
X64491Y222741D01*
X64376Y222751D01*
X64261Y222757D01*
X64146Y222759D01*
X64146Y222758D02*
X64031Y222756D01*
X63916Y222750D01*
X63801Y222740D01*
X63687Y222726D01*
X63573Y222709D01*
X63460Y222687D01*
X63348Y222661D01*
X63236Y222632D01*
X63126Y222599D01*
X63017Y222562D01*
X62909Y222521D01*
X62803Y222476D01*
X62699Y222428D01*
X62596Y222377D01*
X62495Y222321D01*
X62395Y222263D01*
X62298Y222201D01*
X62204Y222136D01*
X62111Y222067D01*
X62021Y221995D01*
X61933Y221921D01*
X61848Y221843D01*
X61766Y221762D01*
X61687Y221679D01*
X61610Y221593D01*
X61537Y221504D01*
X61466Y221413D01*
X61399Y221319D01*
X61335Y221224D01*
X61274Y221126D01*
X61217Y221026D01*
X61164Y220924D01*
X61113Y220820D01*
X61067Y220715D01*
X61024Y220608D01*
X60985Y220500D01*
X60986Y220500D02*
X60849Y220211D01*
X60719Y219919D01*
X60596Y219623D01*
X60481Y219325D01*
X60372Y219024D01*
X60271Y218721D01*
X60177Y218415D01*
X60090Y218108D01*
X60011Y217798D01*
X59939Y217486D01*
X59875Y217173D01*
X59818Y216858D01*
X59768Y216542D01*
X59726Y216225D01*
X59692Y215907D01*
X59665Y215589D01*
X59646Y215269D01*
X59635Y214950D01*
X59631Y214630D01*
X68661Y214630D02*
X68657Y214310D01*
X68646Y213991D01*
X68627Y213671D01*
X68600Y213353D01*
X68566Y213035D01*
X68524Y212718D01*
X68474Y212402D01*
X68417Y212087D01*
X68353Y211774D01*
X68281Y211462D01*
X68202Y211152D01*
X68115Y210845D01*
X68021Y210539D01*
X67920Y210236D01*
X67811Y209935D01*
X67696Y209637D01*
X67573Y209341D01*
X67443Y209049D01*
X67306Y208760D01*
X67307Y208760D02*
X67268Y208652D01*
X67225Y208545D01*
X67179Y208440D01*
X67128Y208336D01*
X67075Y208234D01*
X67018Y208134D01*
X66957Y208036D01*
X66893Y207941D01*
X66826Y207847D01*
X66755Y207756D01*
X66682Y207667D01*
X66605Y207581D01*
X66526Y207498D01*
X66444Y207417D01*
X66359Y207339D01*
X66271Y207265D01*
X66181Y207193D01*
X66088Y207124D01*
X65994Y207059D01*
X65897Y206997D01*
X65797Y206939D01*
X65696Y206883D01*
X65594Y206832D01*
X65489Y206784D01*
X65383Y206739D01*
X65275Y206698D01*
X65166Y206661D01*
X65056Y206628D01*
X64944Y206599D01*
X64832Y206573D01*
X64719Y206551D01*
X64605Y206534D01*
X64491Y206520D01*
X64376Y206510D01*
X64261Y206504D01*
X64146Y206502D01*
X60986Y208760D02*
X60849Y209049D01*
X60719Y209341D01*
X60596Y209637D01*
X60481Y209935D01*
X60372Y210236D01*
X60271Y210539D01*
X60177Y210845D01*
X60090Y211152D01*
X60011Y211462D01*
X59939Y211774D01*
X59875Y212087D01*
X59818Y212402D01*
X59768Y212718D01*
X59726Y213035D01*
X59692Y213353D01*
X59665Y213671D01*
X59646Y213991D01*
X59635Y214310D01*
X59631Y214630D01*
X60985Y208760D02*
X61024Y208652D01*
X61067Y208545D01*
X61113Y208440D01*
X61164Y208336D01*
X61217Y208234D01*
X61275Y208134D01*
X61335Y208036D01*
X61399Y207941D01*
X61466Y207847D01*
X61537Y207756D01*
X61610Y207667D01*
X61687Y207581D01*
X61766Y207498D01*
X61848Y207417D01*
X61933Y207339D01*
X62021Y207265D01*
X62111Y207193D01*
X62204Y207124D01*
X62298Y207059D01*
X62395Y206997D01*
X62495Y206939D01*
X62596Y206883D01*
X62699Y206832D01*
X62803Y206784D01*
X62909Y206739D01*
X63017Y206698D01*
X63126Y206661D01*
X63236Y206628D01*
X63348Y206599D01*
X63460Y206573D01*
X63573Y206551D01*
X63687Y206534D01*
X63801Y206520D01*
X63916Y206510D01*
X64031Y206504D01*
X64146Y206502D01*
X67758Y210114D02*
X60534Y219146D01*
X177038Y196088D02*
X177038Y179832D01*
X168007Y179832D02*
X177038Y196088D01*
X168007Y196088D02*
X168007Y179832D01*
X161025Y183444D02*
X161025Y187057D01*
X161024Y187057D02*
X161022Y187176D01*
X161016Y187296D01*
X161006Y187415D01*
X160992Y187533D01*
X160975Y187652D01*
X160953Y187769D01*
X160928Y187886D01*
X160898Y188001D01*
X160865Y188116D01*
X160828Y188230D01*
X160788Y188342D01*
X160743Y188453D01*
X160695Y188562D01*
X160644Y188670D01*
X160589Y188776D01*
X160530Y188880D01*
X160468Y188982D01*
X160403Y189082D01*
X160334Y189180D01*
X160262Y189276D01*
X160187Y189369D01*
X160110Y189459D01*
X160029Y189547D01*
X159945Y189632D01*
X159858Y189714D01*
X159769Y189794D01*
X159677Y189870D01*
X159583Y189944D01*
X159486Y190014D01*
X159388Y190081D01*
X159287Y190145D01*
X159183Y190205D01*
X159078Y190262D01*
X158971Y190315D01*
X158863Y190365D01*
X158753Y190411D01*
X158641Y190453D01*
X158528Y190492D01*
X158414Y190527D01*
X158299Y190558D01*
X158182Y190586D01*
X158065Y190609D01*
X157948Y190629D01*
X157829Y190645D01*
X157710Y190657D01*
X157591Y190665D01*
X157472Y190669D01*
X157352Y190669D01*
X157233Y190665D01*
X157114Y190657D01*
X156995Y190645D01*
X156876Y190629D01*
X156759Y190609D01*
X156642Y190586D01*
X156525Y190558D01*
X156410Y190527D01*
X156296Y190492D01*
X156183Y190453D01*
X156071Y190411D01*
X155961Y190365D01*
X155853Y190315D01*
X155746Y190262D01*
X155641Y190205D01*
X155537Y190145D01*
X155436Y190081D01*
X155338Y190014D01*
X155241Y189944D01*
X155147Y189870D01*
X155055Y189794D01*
X154966Y189714D01*
X154879Y189632D01*
X154795Y189547D01*
X154714Y189459D01*
X154637Y189369D01*
X154562Y189276D01*
X154490Y189180D01*
X154421Y189082D01*
X154356Y188982D01*
X154294Y188880D01*
X154235Y188776D01*
X154180Y188670D01*
X154129Y188562D01*
X154081Y188453D01*
X154036Y188342D01*
X153996Y188230D01*
X153959Y188116D01*
X153926Y188001D01*
X153896Y187886D01*
X153871Y187769D01*
X153849Y187652D01*
X153832Y187533D01*
X153818Y187415D01*
X153808Y187296D01*
X153802Y187176D01*
X153800Y187057D01*
X153800Y183444D01*
X153802Y183325D01*
X153808Y183205D01*
X153818Y183086D01*
X153832Y182968D01*
X153849Y182849D01*
X153871Y182732D01*
X153896Y182615D01*
X153926Y182500D01*
X153959Y182385D01*
X153996Y182271D01*
X154036Y182159D01*
X154081Y182048D01*
X154129Y181939D01*
X154180Y181831D01*
X154235Y181725D01*
X154294Y181621D01*
X154356Y181519D01*
X154421Y181419D01*
X154490Y181321D01*
X154562Y181225D01*
X154637Y181132D01*
X154714Y181042D01*
X154795Y180954D01*
X154879Y180869D01*
X154966Y180787D01*
X155055Y180707D01*
X155147Y180631D01*
X155241Y180557D01*
X155338Y180487D01*
X155436Y180420D01*
X155537Y180356D01*
X155641Y180296D01*
X155746Y180239D01*
X155853Y180186D01*
X155961Y180136D01*
X156071Y180090D01*
X156183Y180048D01*
X156296Y180009D01*
X156410Y179974D01*
X156525Y179943D01*
X156642Y179915D01*
X156759Y179892D01*
X156876Y179872D01*
X156995Y179856D01*
X157114Y179844D01*
X157233Y179836D01*
X157352Y179832D01*
X157472Y179832D01*
X157591Y179836D01*
X157710Y179844D01*
X157829Y179856D01*
X157948Y179872D01*
X158065Y179892D01*
X158182Y179915D01*
X158299Y179943D01*
X158414Y179974D01*
X158528Y180009D01*
X158641Y180048D01*
X158753Y180090D01*
X158863Y180136D01*
X158971Y180186D01*
X159078Y180239D01*
X159183Y180296D01*
X159287Y180356D01*
X159388Y180420D01*
X159486Y180487D01*
X159583Y180557D01*
X159677Y180631D01*
X159769Y180707D01*
X159858Y180787D01*
X159945Y180869D01*
X160029Y180954D01*
X160110Y181042D01*
X160187Y181132D01*
X160262Y181225D01*
X160334Y181321D01*
X160403Y181419D01*
X160468Y181519D01*
X160530Y181621D01*
X160589Y181725D01*
X160644Y181831D01*
X160695Y181939D01*
X160743Y182048D01*
X160788Y182159D01*
X160828Y182271D01*
X160865Y182385D01*
X160898Y182500D01*
X160928Y182615D01*
X160953Y182732D01*
X160975Y182849D01*
X160992Y182968D01*
X161006Y183086D01*
X161016Y183205D01*
X161022Y183325D01*
X161024Y183444D01*
X144768Y179832D02*
X140253Y179832D01*
X144768Y179832D02*
X144869Y179834D01*
X144970Y179840D01*
X145071Y179849D01*
X145172Y179862D01*
X145272Y179879D01*
X145371Y179900D01*
X145469Y179924D01*
X145566Y179952D01*
X145663Y179984D01*
X145758Y180019D01*
X145851Y180058D01*
X145943Y180100D01*
X146034Y180146D01*
X146123Y180195D01*
X146209Y180247D01*
X146294Y180303D01*
X146377Y180361D01*
X146457Y180423D01*
X146535Y180488D01*
X146611Y180555D01*
X146684Y180625D01*
X146754Y180698D01*
X146821Y180774D01*
X146886Y180852D01*
X146948Y180932D01*
X147006Y181015D01*
X147062Y181100D01*
X147114Y181186D01*
X147163Y181275D01*
X147209Y181366D01*
X147251Y181458D01*
X147290Y181551D01*
X147325Y181646D01*
X147357Y181743D01*
X147385Y181840D01*
X147409Y181938D01*
X147430Y182037D01*
X147447Y182137D01*
X147460Y182238D01*
X147469Y182339D01*
X147475Y182440D01*
X147477Y182541D01*
X147478Y182541D02*
X147478Y187057D01*
X147477Y187057D02*
X147475Y187176D01*
X147469Y187296D01*
X147459Y187415D01*
X147445Y187533D01*
X147428Y187652D01*
X147406Y187769D01*
X147381Y187886D01*
X147351Y188001D01*
X147318Y188116D01*
X147281Y188230D01*
X147241Y188342D01*
X147196Y188453D01*
X147148Y188562D01*
X147097Y188670D01*
X147042Y188776D01*
X146983Y188880D01*
X146921Y188982D01*
X146856Y189082D01*
X146787Y189180D01*
X146715Y189276D01*
X146640Y189369D01*
X146563Y189459D01*
X146482Y189547D01*
X146398Y189632D01*
X146311Y189714D01*
X146222Y189794D01*
X146130Y189870D01*
X146036Y189944D01*
X145939Y190014D01*
X145841Y190081D01*
X145740Y190145D01*
X145636Y190205D01*
X145531Y190262D01*
X145424Y190315D01*
X145316Y190365D01*
X145206Y190411D01*
X145094Y190453D01*
X144981Y190492D01*
X144867Y190527D01*
X144752Y190558D01*
X144635Y190586D01*
X144518Y190609D01*
X144401Y190629D01*
X144282Y190645D01*
X144163Y190657D01*
X144044Y190665D01*
X143925Y190669D01*
X143805Y190669D01*
X143686Y190665D01*
X143567Y190657D01*
X143448Y190645D01*
X143329Y190629D01*
X143212Y190609D01*
X143095Y190586D01*
X142978Y190558D01*
X142863Y190527D01*
X142749Y190492D01*
X142636Y190453D01*
X142524Y190411D01*
X142414Y190365D01*
X142306Y190315D01*
X142199Y190262D01*
X142094Y190205D01*
X141990Y190145D01*
X141889Y190081D01*
X141791Y190014D01*
X141694Y189944D01*
X141600Y189870D01*
X141508Y189794D01*
X141419Y189714D01*
X141332Y189632D01*
X141248Y189547D01*
X141167Y189459D01*
X141090Y189369D01*
X141015Y189276D01*
X140943Y189180D01*
X140874Y189082D01*
X140809Y188982D01*
X140747Y188880D01*
X140688Y188776D01*
X140633Y188670D01*
X140582Y188562D01*
X140534Y188453D01*
X140489Y188342D01*
X140449Y188230D01*
X140412Y188116D01*
X140379Y188001D01*
X140349Y187886D01*
X140324Y187769D01*
X140302Y187652D01*
X140285Y187533D01*
X140271Y187415D01*
X140261Y187296D01*
X140255Y187176D01*
X140253Y187057D01*
X140253Y185251D01*
X147478Y185251D01*
X147026Y195185D02*
X147026Y196088D01*
X146123Y196088D01*
X146123Y195185D01*
X147026Y195185D01*
X141607Y195185D02*
X141607Y196088D01*
X140704Y196088D01*
X140704Y195185D01*
X141607Y195185D01*
X133132Y190669D02*
X133132Y179832D01*
X133132Y190669D02*
X125004Y190669D01*
X124903Y190667D01*
X124802Y190661D01*
X124701Y190652D01*
X124600Y190639D01*
X124500Y190622D01*
X124401Y190601D01*
X124303Y190577D01*
X124206Y190549D01*
X124109Y190517D01*
X124014Y190482D01*
X123921Y190443D01*
X123829Y190401D01*
X123738Y190355D01*
X123650Y190306D01*
X123563Y190254D01*
X123478Y190198D01*
X123395Y190140D01*
X123315Y190078D01*
X123237Y190013D01*
X123161Y189946D01*
X123088Y189876D01*
X123018Y189803D01*
X122951Y189727D01*
X122886Y189649D01*
X122824Y189569D01*
X122766Y189486D01*
X122710Y189401D01*
X122658Y189315D01*
X122609Y189226D01*
X122563Y189135D01*
X122521Y189043D01*
X122482Y188950D01*
X122447Y188855D01*
X122415Y188758D01*
X122387Y188661D01*
X122363Y188563D01*
X122342Y188464D01*
X122325Y188364D01*
X122312Y188263D01*
X122303Y188162D01*
X122297Y188061D01*
X122295Y187960D01*
X122294Y187960D02*
X122294Y179832D01*
X127713Y179832D02*
X127713Y190669D01*
X115208Y190669D02*
X115208Y179832D01*
X115659Y195185D02*
X115659Y196088D01*
X114756Y196088D01*
X114756Y195185D01*
X115659Y195185D01*
X99713Y196088D02*
X99713Y179832D01*
X99713Y186154D02*
X90682Y196088D01*
X96101Y189766D02*
X90682Y179832D01*
X84432Y182541D02*
X84432Y190669D01*
X84431Y182541D02*
X84429Y182440D01*
X84423Y182339D01*
X84414Y182238D01*
X84401Y182137D01*
X84384Y182037D01*
X84363Y181938D01*
X84339Y181840D01*
X84311Y181743D01*
X84279Y181646D01*
X84244Y181551D01*
X84205Y181458D01*
X84163Y181366D01*
X84117Y181275D01*
X84068Y181186D01*
X84016Y181100D01*
X83960Y181015D01*
X83902Y180932D01*
X83840Y180852D01*
X83775Y180774D01*
X83708Y180698D01*
X83638Y180625D01*
X83565Y180555D01*
X83489Y180488D01*
X83411Y180423D01*
X83331Y180361D01*
X83248Y180303D01*
X83163Y180247D01*
X83076Y180195D01*
X82988Y180146D01*
X82897Y180100D01*
X82805Y180058D01*
X82712Y180019D01*
X82617Y179984D01*
X82520Y179952D01*
X82423Y179924D01*
X82325Y179900D01*
X82226Y179879D01*
X82126Y179862D01*
X82025Y179849D01*
X81924Y179840D01*
X81823Y179834D01*
X81722Y179832D01*
X77207Y179832D01*
X77207Y190669D01*
X69758Y190669D02*
X69758Y179832D01*
X69758Y190669D02*
X64339Y190669D01*
X64339Y188863D01*
X60719Y190669D02*
X55300Y190669D01*
X58913Y196088D02*
X58913Y182541D01*
X58911Y182440D01*
X58905Y182339D01*
X58896Y182238D01*
X58883Y182137D01*
X58866Y182037D01*
X58845Y181938D01*
X58821Y181840D01*
X58793Y181743D01*
X58761Y181646D01*
X58726Y181551D01*
X58687Y181458D01*
X58645Y181366D01*
X58599Y181275D01*
X58550Y181186D01*
X58498Y181100D01*
X58442Y181015D01*
X58384Y180932D01*
X58322Y180852D01*
X58257Y180774D01*
X58190Y180698D01*
X58120Y180625D01*
X58047Y180555D01*
X57971Y180488D01*
X57893Y180423D01*
X57813Y180361D01*
X57730Y180303D01*
X57645Y180247D01*
X57558Y180195D01*
X57470Y180146D01*
X57379Y180100D01*
X57287Y180058D01*
X57194Y180019D01*
X57099Y179984D01*
X57002Y179952D01*
X56905Y179924D01*
X56807Y179900D01*
X56708Y179879D01*
X56608Y179862D01*
X56507Y179849D01*
X56406Y179840D01*
X56305Y179834D01*
X56204Y179832D01*
X55300Y179832D01*
X177038Y169418D02*
X177038Y153162D01*
X177038Y169418D02*
X172522Y169418D01*
X172389Y169416D01*
X172257Y169410D01*
X172125Y169400D01*
X171993Y169387D01*
X171861Y169369D01*
X171731Y169348D01*
X171600Y169323D01*
X171471Y169294D01*
X171343Y169261D01*
X171215Y169225D01*
X171089Y169185D01*
X170964Y169141D01*
X170840Y169093D01*
X170718Y169042D01*
X170597Y168987D01*
X170478Y168929D01*
X170360Y168867D01*
X170245Y168802D01*
X170131Y168733D01*
X170020Y168662D01*
X169911Y168586D01*
X169804Y168508D01*
X169699Y168427D01*
X169597Y168342D01*
X169497Y168255D01*
X169400Y168165D01*
X169305Y168072D01*
X169214Y167976D01*
X169125Y167878D01*
X169039Y167777D01*
X168956Y167673D01*
X168876Y167567D01*
X168800Y167459D01*
X168726Y167349D01*
X168656Y167236D01*
X168589Y167122D01*
X168526Y167005D01*
X168466Y166887D01*
X168409Y166767D01*
X168356Y166645D01*
X168307Y166522D01*
X168261Y166398D01*
X168219Y166272D01*
X168181Y166145D01*
X168146Y166017D01*
X168115Y165888D01*
X168088Y165759D01*
X168065Y165628D01*
X168045Y165497D01*
X168030Y165365D01*
X168018Y165233D01*
X168010Y165101D01*
X168006Y164968D01*
X168006Y164836D01*
X168010Y164703D01*
X168018Y164571D01*
X168030Y164439D01*
X168045Y164307D01*
X168065Y164176D01*
X168088Y164045D01*
X168115Y163916D01*
X168146Y163787D01*
X168181Y163659D01*
X168219Y163532D01*
X168261Y163406D01*
X168307Y163282D01*
X168356Y163159D01*
X168409Y163037D01*
X168466Y162917D01*
X168526Y162799D01*
X168589Y162682D01*
X168656Y162568D01*
X168726Y162455D01*
X168800Y162345D01*
X168876Y162237D01*
X168956Y162131D01*
X169039Y162027D01*
X169125Y161926D01*
X169214Y161828D01*
X169305Y161732D01*
X169400Y161639D01*
X169497Y161549D01*
X169597Y161462D01*
X169699Y161377D01*
X169804Y161296D01*
X169911Y161218D01*
X170020Y161142D01*
X170131Y161071D01*
X170245Y161002D01*
X170360Y160937D01*
X170478Y160875D01*
X170597Y160817D01*
X170718Y160762D01*
X170840Y160711D01*
X170964Y160663D01*
X171089Y160619D01*
X171215Y160579D01*
X171343Y160543D01*
X171471Y160510D01*
X171600Y160481D01*
X171731Y160456D01*
X171861Y160435D01*
X171993Y160417D01*
X172125Y160404D01*
X172257Y160394D01*
X172389Y160388D01*
X172522Y160386D01*
X172522Y160387D02*
X177038Y160387D01*
X161757Y153162D02*
X161757Y169418D01*
X161757Y163999D02*
X157241Y163999D01*
X157137Y163997D01*
X157034Y163991D01*
X156930Y163981D01*
X156827Y163967D01*
X156725Y163949D01*
X156624Y163928D01*
X156523Y163902D01*
X156424Y163873D01*
X156325Y163840D01*
X156228Y163803D01*
X156133Y163762D01*
X156039Y163718D01*
X155947Y163670D01*
X155857Y163619D01*
X155768Y163564D01*
X155682Y163506D01*
X155599Y163444D01*
X155517Y163380D01*
X155439Y163312D01*
X155363Y163242D01*
X155289Y163169D01*
X155219Y163092D01*
X155151Y163014D01*
X155087Y162932D01*
X155025Y162849D01*
X154967Y162763D01*
X154912Y162674D01*
X154861Y162584D01*
X154813Y162492D01*
X154769Y162398D01*
X154728Y162303D01*
X154691Y162206D01*
X154658Y162107D01*
X154629Y162008D01*
X154603Y161907D01*
X154582Y161806D01*
X154564Y161704D01*
X154550Y161601D01*
X154540Y161497D01*
X154534Y161394D01*
X154532Y161290D01*
X154532Y153162D01*
X147724Y153162D02*
X147724Y163999D01*
X148175Y168515D02*
X148175Y169418D01*
X147272Y169418D01*
X147272Y168515D01*
X148175Y168515D01*
X141199Y169418D02*
X141199Y155871D01*
X141197Y155770D01*
X141191Y155669D01*
X141182Y155568D01*
X141169Y155467D01*
X141152Y155367D01*
X141131Y155268D01*
X141107Y155170D01*
X141079Y155073D01*
X141047Y154976D01*
X141012Y154881D01*
X140973Y154788D01*
X140931Y154696D01*
X140885Y154605D01*
X140836Y154516D01*
X140784Y154430D01*
X140728Y154345D01*
X140670Y154262D01*
X140608Y154182D01*
X140543Y154104D01*
X140476Y154028D01*
X140406Y153955D01*
X140333Y153885D01*
X140257Y153818D01*
X140179Y153753D01*
X140099Y153691D01*
X140016Y153633D01*
X139931Y153577D01*
X139845Y153525D01*
X139756Y153476D01*
X139665Y153430D01*
X139573Y153388D01*
X139480Y153349D01*
X139385Y153314D01*
X139288Y153282D01*
X139191Y153254D01*
X139093Y153230D01*
X138994Y153209D01*
X138894Y153192D01*
X138793Y153179D01*
X138692Y153170D01*
X138591Y153164D01*
X138490Y153162D01*
X133134Y153162D02*
X133134Y163999D01*
X133586Y168515D02*
X133586Y169418D01*
X132683Y169418D01*
X132683Y168515D01*
X133586Y168515D01*
X126253Y163999D02*
X126253Y147743D01*
X126253Y163999D02*
X121737Y163999D01*
X121633Y163997D01*
X121530Y163991D01*
X121426Y163981D01*
X121323Y163967D01*
X121221Y163949D01*
X121120Y163928D01*
X121019Y163902D01*
X120920Y163873D01*
X120821Y163840D01*
X120724Y163803D01*
X120629Y163762D01*
X120535Y163718D01*
X120443Y163670D01*
X120353Y163619D01*
X120264Y163564D01*
X120178Y163506D01*
X120095Y163444D01*
X120013Y163380D01*
X119935Y163312D01*
X119859Y163242D01*
X119785Y163169D01*
X119715Y163092D01*
X119647Y163014D01*
X119583Y162932D01*
X119521Y162849D01*
X119463Y162763D01*
X119408Y162674D01*
X119357Y162584D01*
X119309Y162492D01*
X119265Y162398D01*
X119224Y162303D01*
X119187Y162206D01*
X119154Y162107D01*
X119125Y162008D01*
X119099Y161907D01*
X119078Y161806D01*
X119060Y161704D01*
X119046Y161601D01*
X119036Y161497D01*
X119030Y161394D01*
X119028Y161290D01*
X119028Y155871D01*
X119030Y155770D01*
X119036Y155669D01*
X119045Y155568D01*
X119058Y155467D01*
X119075Y155367D01*
X119096Y155268D01*
X119120Y155170D01*
X119148Y155073D01*
X119180Y154976D01*
X119215Y154881D01*
X119254Y154788D01*
X119296Y154696D01*
X119342Y154605D01*
X119391Y154516D01*
X119443Y154430D01*
X119499Y154345D01*
X119557Y154262D01*
X119619Y154182D01*
X119684Y154104D01*
X119751Y154028D01*
X119821Y153955D01*
X119894Y153885D01*
X119970Y153818D01*
X120048Y153753D01*
X120128Y153691D01*
X120211Y153633D01*
X120296Y153577D01*
X120383Y153525D01*
X120471Y153476D01*
X120562Y153430D01*
X120654Y153388D01*
X120747Y153349D01*
X120842Y153314D01*
X120939Y153282D01*
X121036Y153254D01*
X121134Y153230D01*
X121233Y153209D01*
X121333Y153192D01*
X121434Y153179D01*
X121535Y153170D01*
X121636Y153164D01*
X121737Y153162D01*
X126253Y153162D01*
X112185Y147743D02*
X112185Y163999D01*
X107669Y163999D01*
X107565Y163997D01*
X107462Y163991D01*
X107358Y163981D01*
X107255Y163967D01*
X107153Y163949D01*
X107052Y163928D01*
X106951Y163902D01*
X106852Y163873D01*
X106753Y163840D01*
X106656Y163803D01*
X106561Y163762D01*
X106467Y163718D01*
X106375Y163670D01*
X106285Y163619D01*
X106196Y163564D01*
X106110Y163506D01*
X106027Y163444D01*
X105945Y163380D01*
X105867Y163312D01*
X105791Y163242D01*
X105717Y163169D01*
X105647Y163092D01*
X105579Y163014D01*
X105515Y162932D01*
X105453Y162849D01*
X105395Y162763D01*
X105340Y162674D01*
X105289Y162584D01*
X105241Y162492D01*
X105197Y162398D01*
X105156Y162303D01*
X105119Y162206D01*
X105086Y162107D01*
X105057Y162008D01*
X105031Y161907D01*
X105010Y161806D01*
X104992Y161704D01*
X104978Y161601D01*
X104968Y161497D01*
X104962Y161394D01*
X104960Y161290D01*
X104960Y155871D01*
X104962Y155770D01*
X104968Y155669D01*
X104977Y155568D01*
X104990Y155467D01*
X105007Y155367D01*
X105028Y155268D01*
X105052Y155170D01*
X105080Y155073D01*
X105112Y154976D01*
X105147Y154881D01*
X105186Y154788D01*
X105228Y154696D01*
X105274Y154605D01*
X105323Y154516D01*
X105375Y154430D01*
X105431Y154345D01*
X105489Y154262D01*
X105551Y154182D01*
X105616Y154104D01*
X105683Y154028D01*
X105753Y153955D01*
X105826Y153885D01*
X105902Y153818D01*
X105980Y153753D01*
X106060Y153691D01*
X106143Y153633D01*
X106228Y153577D01*
X106315Y153525D01*
X106403Y153476D01*
X106494Y153430D01*
X106586Y153388D01*
X106679Y153349D01*
X106774Y153314D01*
X106871Y153282D01*
X106968Y153254D01*
X107066Y153230D01*
X107165Y153209D01*
X107265Y153192D01*
X107366Y153179D01*
X107467Y153170D01*
X107568Y153164D01*
X107669Y153162D01*
X112185Y153162D01*
X83392Y162193D02*
X80683Y162193D01*
X80683Y153162D01*
X86102Y153162D01*
X86220Y153164D01*
X86338Y153170D01*
X86456Y153179D01*
X86573Y153193D01*
X86690Y153210D01*
X86807Y153231D01*
X86922Y153256D01*
X87037Y153285D01*
X87151Y153318D01*
X87263Y153354D01*
X87374Y153394D01*
X87484Y153437D01*
X87593Y153484D01*
X87700Y153534D01*
X87805Y153589D01*
X87908Y153646D01*
X88009Y153707D01*
X88109Y153771D01*
X88206Y153838D01*
X88301Y153908D01*
X88393Y153982D01*
X88484Y154058D01*
X88571Y154138D01*
X88656Y154220D01*
X88738Y154305D01*
X88818Y154392D01*
X88894Y154483D01*
X88968Y154575D01*
X89038Y154670D01*
X89105Y154767D01*
X89169Y154867D01*
X89230Y154968D01*
X89287Y155071D01*
X89342Y155176D01*
X89392Y155283D01*
X89439Y155392D01*
X89482Y155502D01*
X89522Y155613D01*
X89558Y155725D01*
X89591Y155839D01*
X89620Y155954D01*
X89645Y156069D01*
X89666Y156186D01*
X89683Y156303D01*
X89697Y156420D01*
X89706Y156538D01*
X89712Y156656D01*
X89714Y156774D01*
X89714Y165806D01*
X89712Y165924D01*
X89706Y166042D01*
X89697Y166160D01*
X89683Y166277D01*
X89666Y166394D01*
X89645Y166511D01*
X89620Y166626D01*
X89591Y166741D01*
X89558Y166855D01*
X89522Y166967D01*
X89482Y167078D01*
X89439Y167188D01*
X89392Y167297D01*
X89342Y167404D01*
X89287Y167509D01*
X89230Y167612D01*
X89169Y167713D01*
X89105Y167813D01*
X89038Y167910D01*
X88968Y168005D01*
X88894Y168097D01*
X88818Y168188D01*
X88738Y168275D01*
X88656Y168360D01*
X88571Y168442D01*
X88484Y168522D01*
X88393Y168598D01*
X88301Y168672D01*
X88206Y168742D01*
X88109Y168809D01*
X88009Y168873D01*
X87908Y168934D01*
X87805Y168991D01*
X87700Y169046D01*
X87593Y169096D01*
X87484Y169143D01*
X87374Y169186D01*
X87263Y169226D01*
X87151Y169262D01*
X87037Y169295D01*
X86922Y169324D01*
X86807Y169349D01*
X86690Y169370D01*
X86573Y169387D01*
X86456Y169401D01*
X86338Y169410D01*
X86220Y169416D01*
X86102Y169418D01*
X80683Y169418D01*
X73180Y163999D02*
X73180Y155871D01*
X73178Y155770D01*
X73172Y155669D01*
X73163Y155568D01*
X73150Y155467D01*
X73133Y155367D01*
X73112Y155268D01*
X73088Y155170D01*
X73060Y155073D01*
X73028Y154976D01*
X72993Y154881D01*
X72954Y154788D01*
X72912Y154696D01*
X72866Y154605D01*
X72817Y154516D01*
X72765Y154430D01*
X72709Y154345D01*
X72651Y154262D01*
X72589Y154182D01*
X72524Y154104D01*
X72457Y154028D01*
X72387Y153955D01*
X72314Y153885D01*
X72238Y153818D01*
X72160Y153753D01*
X72080Y153691D01*
X71997Y153633D01*
X71912Y153577D01*
X71825Y153525D01*
X71737Y153476D01*
X71646Y153430D01*
X71554Y153388D01*
X71461Y153349D01*
X71366Y153314D01*
X71269Y153282D01*
X71172Y153254D01*
X71074Y153230D01*
X70975Y153209D01*
X70875Y153192D01*
X70774Y153179D01*
X70673Y153170D01*
X70572Y153164D01*
X70471Y153162D01*
X65955Y153162D01*
X65955Y163999D01*
X58506Y163999D02*
X58506Y153162D01*
X58506Y163999D02*
X53087Y163999D01*
X53087Y162193D01*
X49467Y163999D02*
X44049Y163999D01*
X47661Y169418D02*
X47661Y155871D01*
X47659Y155770D01*
X47653Y155669D01*
X47644Y155568D01*
X47631Y155467D01*
X47614Y155367D01*
X47593Y155268D01*
X47569Y155170D01*
X47541Y155073D01*
X47509Y154976D01*
X47474Y154881D01*
X47435Y154788D01*
X47393Y154696D01*
X47347Y154605D01*
X47298Y154516D01*
X47246Y154430D01*
X47190Y154345D01*
X47132Y154262D01*
X47070Y154182D01*
X47005Y154104D01*
X46938Y154028D01*
X46868Y153955D01*
X46795Y153885D01*
X46719Y153818D01*
X46641Y153753D01*
X46561Y153691D01*
X46478Y153633D01*
X46393Y153577D01*
X46306Y153525D01*
X46218Y153476D01*
X46127Y153430D01*
X46035Y153388D01*
X45942Y153349D01*
X45847Y153314D01*
X45750Y153282D01*
X45653Y153254D01*
X45555Y153230D01*
X45456Y153209D01*
X45356Y153192D01*
X45255Y153179D01*
X45154Y153170D01*
X45053Y153164D01*
X44952Y153162D01*
X44049Y153162D01*
X37749Y153162D02*
X37749Y163999D01*
X33234Y163999D01*
X33130Y163997D01*
X33027Y163991D01*
X32923Y163981D01*
X32820Y163967D01*
X32718Y163949D01*
X32617Y163928D01*
X32516Y163902D01*
X32417Y163873D01*
X32318Y163840D01*
X32221Y163803D01*
X32126Y163762D01*
X32032Y163718D01*
X31940Y163670D01*
X31850Y163619D01*
X31761Y163564D01*
X31675Y163506D01*
X31592Y163444D01*
X31510Y163380D01*
X31432Y163312D01*
X31356Y163242D01*
X31282Y163169D01*
X31212Y163092D01*
X31144Y163014D01*
X31080Y162932D01*
X31018Y162849D01*
X30960Y162763D01*
X30905Y162674D01*
X30854Y162584D01*
X30806Y162492D01*
X30762Y162398D01*
X30721Y162303D01*
X30684Y162206D01*
X30651Y162107D01*
X30622Y162008D01*
X30596Y161907D01*
X30575Y161806D01*
X30557Y161704D01*
X30543Y161601D01*
X30533Y161497D01*
X30527Y161394D01*
X30525Y161290D01*
X30524Y161290D02*
X30524Y153162D01*
X20972Y153162D02*
X16456Y153162D01*
X20972Y153162D02*
X21073Y153164D01*
X21174Y153170D01*
X21275Y153179D01*
X21376Y153192D01*
X21476Y153209D01*
X21575Y153230D01*
X21673Y153254D01*
X21770Y153282D01*
X21867Y153314D01*
X21962Y153349D01*
X22055Y153388D01*
X22147Y153430D01*
X22238Y153476D01*
X22326Y153525D01*
X22413Y153577D01*
X22498Y153633D01*
X22581Y153691D01*
X22661Y153753D01*
X22739Y153818D01*
X22815Y153885D01*
X22888Y153955D01*
X22958Y154028D01*
X23025Y154104D01*
X23090Y154182D01*
X23152Y154262D01*
X23210Y154345D01*
X23266Y154430D01*
X23318Y154516D01*
X23367Y154605D01*
X23413Y154696D01*
X23455Y154788D01*
X23494Y154881D01*
X23529Y154976D01*
X23561Y155073D01*
X23589Y155170D01*
X23613Y155268D01*
X23634Y155367D01*
X23651Y155467D01*
X23664Y155568D01*
X23673Y155669D01*
X23679Y155770D01*
X23681Y155871D01*
X23681Y160387D01*
X23679Y160506D01*
X23673Y160626D01*
X23663Y160745D01*
X23649Y160863D01*
X23632Y160982D01*
X23610Y161099D01*
X23585Y161216D01*
X23555Y161331D01*
X23522Y161446D01*
X23485Y161560D01*
X23445Y161672D01*
X23400Y161783D01*
X23352Y161892D01*
X23301Y162000D01*
X23246Y162106D01*
X23187Y162210D01*
X23125Y162312D01*
X23060Y162412D01*
X22991Y162510D01*
X22919Y162606D01*
X22844Y162699D01*
X22767Y162789D01*
X22686Y162877D01*
X22602Y162962D01*
X22515Y163044D01*
X22426Y163124D01*
X22334Y163200D01*
X22240Y163274D01*
X22143Y163344D01*
X22045Y163411D01*
X21944Y163475D01*
X21840Y163535D01*
X21735Y163592D01*
X21628Y163645D01*
X21520Y163695D01*
X21410Y163741D01*
X21298Y163783D01*
X21185Y163822D01*
X21071Y163857D01*
X20956Y163888D01*
X20839Y163916D01*
X20722Y163939D01*
X20605Y163959D01*
X20486Y163975D01*
X20367Y163987D01*
X20248Y163995D01*
X20129Y163999D01*
X20009Y163999D01*
X19890Y163995D01*
X19771Y163987D01*
X19652Y163975D01*
X19533Y163959D01*
X19416Y163939D01*
X19299Y163916D01*
X19182Y163888D01*
X19067Y163857D01*
X18953Y163822D01*
X18840Y163783D01*
X18728Y163741D01*
X18618Y163695D01*
X18510Y163645D01*
X18403Y163592D01*
X18298Y163535D01*
X18194Y163475D01*
X18093Y163411D01*
X17995Y163344D01*
X17898Y163274D01*
X17804Y163200D01*
X17712Y163124D01*
X17623Y163044D01*
X17536Y162962D01*
X17452Y162877D01*
X17371Y162789D01*
X17294Y162699D01*
X17219Y162606D01*
X17147Y162510D01*
X17078Y162412D01*
X17013Y162312D01*
X16951Y162210D01*
X16892Y162106D01*
X16837Y162000D01*
X16786Y161892D01*
X16738Y161783D01*
X16693Y161672D01*
X16653Y161560D01*
X16616Y161446D01*
X16583Y161331D01*
X16553Y161216D01*
X16528Y161099D01*
X16506Y160982D01*
X16489Y160863D01*
X16475Y160745D01*
X16465Y160626D01*
X16459Y160506D01*
X16457Y160387D01*
X16456Y160387D02*
X16456Y158581D01*
X23681Y158581D01*
X9528Y153162D02*
X9528Y163999D01*
X4109Y163999D01*
X4109Y162193D01*
D11*
X273572Y850011D02*
X275661Y850011D01*
X275750Y850013D01*
X275838Y850019D01*
X275926Y850028D01*
X276014Y850041D01*
X276101Y850058D01*
X276187Y850078D01*
X276272Y850103D01*
X276357Y850130D01*
X276440Y850162D01*
X276521Y850196D01*
X276601Y850235D01*
X276679Y850276D01*
X276756Y850321D01*
X276830Y850369D01*
X276903Y850420D01*
X276973Y850474D01*
X277040Y850532D01*
X277106Y850592D01*
X277168Y850654D01*
X277228Y850720D01*
X277286Y850787D01*
X277340Y850857D01*
X277391Y850930D01*
X277439Y851004D01*
X277484Y851081D01*
X277525Y851159D01*
X277564Y851239D01*
X277598Y851320D01*
X277630Y851403D01*
X277657Y851488D01*
X277682Y851573D01*
X277702Y851659D01*
X277719Y851746D01*
X277732Y851834D01*
X277741Y851922D01*
X277747Y852010D01*
X277749Y852099D01*
X277749Y857321D01*
X277747Y857410D01*
X277741Y857498D01*
X277732Y857586D01*
X277719Y857674D01*
X277702Y857761D01*
X277682Y857847D01*
X277657Y857932D01*
X277630Y858017D01*
X277598Y858100D01*
X277564Y858181D01*
X277525Y858261D01*
X277484Y858339D01*
X277439Y858416D01*
X277391Y858490D01*
X277340Y858563D01*
X277286Y858633D01*
X277228Y858700D01*
X277168Y858766D01*
X277106Y858828D01*
X277040Y858888D01*
X276973Y858946D01*
X276903Y859000D01*
X276830Y859051D01*
X276756Y859099D01*
X276679Y859144D01*
X276601Y859185D01*
X276521Y859224D01*
X276440Y859258D01*
X276357Y859290D01*
X276272Y859317D01*
X276187Y859342D01*
X276101Y859362D01*
X276014Y859379D01*
X275926Y859392D01*
X275838Y859401D01*
X275750Y859407D01*
X275661Y859409D01*
X273572Y859409D01*
X270103Y857321D02*
X267493Y859409D01*
X267493Y850011D01*
X270103Y850011D02*
X264882Y850011D01*
X260960Y854710D02*
X260958Y854895D01*
X260951Y855080D01*
X260940Y855264D01*
X260925Y855448D01*
X260905Y855632D01*
X260881Y855816D01*
X260852Y855998D01*
X260819Y856180D01*
X260782Y856361D01*
X260740Y856541D01*
X260694Y856721D01*
X260644Y856899D01*
X260590Y857075D01*
X260531Y857251D01*
X260469Y857425D01*
X260402Y857597D01*
X260331Y857768D01*
X260256Y857937D01*
X260177Y858104D01*
X260147Y858184D01*
X260114Y858263D01*
X260077Y858340D01*
X260037Y858416D01*
X259994Y858490D01*
X259948Y858562D01*
X259898Y858631D01*
X259846Y858699D01*
X259790Y858764D01*
X259732Y858827D01*
X259670Y858886D01*
X259607Y858944D01*
X259540Y858998D01*
X259472Y859049D01*
X259401Y859097D01*
X259328Y859142D01*
X259254Y859184D01*
X259177Y859222D01*
X259099Y859257D01*
X259020Y859289D01*
X258939Y859317D01*
X258857Y859341D01*
X258773Y859362D01*
X258690Y859379D01*
X258605Y859392D01*
X258520Y859401D01*
X258435Y859407D01*
X258349Y859409D01*
X258263Y859407D01*
X258178Y859401D01*
X258093Y859392D01*
X258008Y859379D01*
X257925Y859362D01*
X257841Y859341D01*
X257759Y859317D01*
X257679Y859289D01*
X257599Y859257D01*
X257521Y859222D01*
X257444Y859184D01*
X257370Y859142D01*
X257297Y859097D01*
X257226Y859049D01*
X257158Y858998D01*
X257091Y858944D01*
X257028Y858886D01*
X256967Y858827D01*
X256908Y858764D01*
X256853Y858699D01*
X256800Y858631D01*
X256750Y858562D01*
X256704Y858490D01*
X256661Y858416D01*
X256621Y858340D01*
X256584Y858263D01*
X256551Y858184D01*
X256521Y858104D01*
X256442Y857937D01*
X256367Y857768D01*
X256296Y857597D01*
X256229Y857425D01*
X256167Y857251D01*
X256108Y857075D01*
X256054Y856899D01*
X256004Y856721D01*
X255958Y856541D01*
X255916Y856361D01*
X255879Y856180D01*
X255846Y855998D01*
X255817Y855816D01*
X255793Y855632D01*
X255773Y855448D01*
X255758Y855264D01*
X255747Y855080D01*
X255740Y854895D01*
X255738Y854710D01*
X260959Y854710D02*
X260957Y854525D01*
X260950Y854340D01*
X260939Y854156D01*
X260924Y853972D01*
X260904Y853788D01*
X260880Y853604D01*
X260851Y853422D01*
X260818Y853240D01*
X260781Y853059D01*
X260739Y852879D01*
X260693Y852699D01*
X260643Y852521D01*
X260589Y852345D01*
X260530Y852169D01*
X260468Y851995D01*
X260401Y851823D01*
X260330Y851652D01*
X260255Y851483D01*
X260176Y851316D01*
X260177Y851316D02*
X260147Y851236D01*
X260114Y851157D01*
X260077Y851080D01*
X260037Y851004D01*
X259994Y850930D01*
X259948Y850858D01*
X259898Y850789D01*
X259845Y850721D01*
X259790Y850656D01*
X259731Y850593D01*
X259670Y850534D01*
X259607Y850476D01*
X259540Y850422D01*
X259472Y850371D01*
X259401Y850323D01*
X259328Y850278D01*
X259254Y850236D01*
X259177Y850198D01*
X259099Y850163D01*
X259020Y850131D01*
X258939Y850103D01*
X258857Y850079D01*
X258773Y850058D01*
X258690Y850041D01*
X258605Y850028D01*
X258520Y850019D01*
X258435Y850013D01*
X258349Y850011D01*
X256521Y851316D02*
X256442Y851483D01*
X256367Y851652D01*
X256296Y851823D01*
X256229Y851995D01*
X256167Y852169D01*
X256108Y852345D01*
X256054Y852521D01*
X256004Y852699D01*
X255958Y852879D01*
X255916Y853059D01*
X255879Y853240D01*
X255846Y853422D01*
X255817Y853604D01*
X255793Y853788D01*
X255773Y853972D01*
X255758Y854156D01*
X255747Y854340D01*
X255740Y854525D01*
X255738Y854710D01*
X256521Y851316D02*
X256551Y851236D01*
X256584Y851157D01*
X256621Y851080D01*
X256661Y851004D01*
X256704Y850930D01*
X256750Y850858D01*
X256800Y850789D01*
X256853Y850721D01*
X256908Y850656D01*
X256967Y850593D01*
X257028Y850534D01*
X257091Y850476D01*
X257158Y850422D01*
X257226Y850371D01*
X257297Y850323D01*
X257370Y850278D01*
X257444Y850236D01*
X257521Y850198D01*
X257599Y850163D01*
X257679Y850131D01*
X257759Y850103D01*
X257841Y850079D01*
X257925Y850058D01*
X258008Y850041D01*
X258093Y850028D01*
X258178Y850019D01*
X258263Y850013D01*
X258349Y850011D01*
X260437Y852099D02*
X256260Y857321D01*
X251815Y850011D02*
X249205Y850011D01*
X249104Y850013D01*
X249003Y850019D01*
X248902Y850029D01*
X248802Y850042D01*
X248702Y850060D01*
X248603Y850081D01*
X248505Y850107D01*
X248408Y850136D01*
X248312Y850168D01*
X248218Y850205D01*
X248125Y850245D01*
X248033Y850289D01*
X247944Y850336D01*
X247856Y850387D01*
X247770Y850441D01*
X247687Y850498D01*
X247605Y850558D01*
X247527Y850622D01*
X247450Y850688D01*
X247377Y850758D01*
X247306Y850830D01*
X247238Y850905D01*
X247173Y850983D01*
X247111Y851063D01*
X247052Y851145D01*
X246996Y851230D01*
X246944Y851317D01*
X246895Y851405D01*
X246849Y851496D01*
X246808Y851588D01*
X246769Y851682D01*
X246735Y851777D01*
X246704Y851873D01*
X246677Y851971D01*
X246653Y852069D01*
X246634Y852169D01*
X246618Y852269D01*
X246606Y852369D01*
X246598Y852470D01*
X246594Y852571D01*
X246594Y852673D01*
X246598Y852774D01*
X246606Y852875D01*
X246618Y852975D01*
X246634Y853075D01*
X246653Y853175D01*
X246677Y853273D01*
X246704Y853371D01*
X246735Y853467D01*
X246769Y853562D01*
X246808Y853656D01*
X246849Y853748D01*
X246895Y853839D01*
X246944Y853928D01*
X246996Y854014D01*
X247052Y854099D01*
X247111Y854181D01*
X247173Y854261D01*
X247238Y854339D01*
X247306Y854414D01*
X247377Y854486D01*
X247450Y854556D01*
X247527Y854622D01*
X247605Y854686D01*
X247687Y854746D01*
X247770Y854803D01*
X247856Y854857D01*
X247944Y854908D01*
X248033Y854955D01*
X248125Y854999D01*
X248218Y855039D01*
X248312Y855076D01*
X248408Y855108D01*
X248505Y855137D01*
X248603Y855163D01*
X248702Y855184D01*
X248802Y855202D01*
X248902Y855215D01*
X249003Y855225D01*
X249104Y855231D01*
X249205Y855233D01*
X248683Y859409D02*
X251815Y859409D01*
X248683Y859409D02*
X248593Y859407D01*
X248504Y859401D01*
X248414Y859392D01*
X248325Y859378D01*
X248237Y859361D01*
X248150Y859340D01*
X248063Y859315D01*
X247978Y859286D01*
X247894Y859254D01*
X247812Y859219D01*
X247731Y859179D01*
X247652Y859137D01*
X247575Y859091D01*
X247500Y859041D01*
X247427Y858989D01*
X247356Y858933D01*
X247288Y858875D01*
X247223Y858813D01*
X247160Y858749D01*
X247100Y858682D01*
X247043Y858613D01*
X246989Y858541D01*
X246938Y858467D01*
X246890Y858391D01*
X246846Y858313D01*
X246805Y858233D01*
X246767Y858151D01*
X246733Y858068D01*
X246703Y857983D01*
X246676Y857897D01*
X246653Y857811D01*
X246634Y857723D01*
X246619Y857634D01*
X246607Y857545D01*
X246599Y857456D01*
X246595Y857366D01*
X246595Y857276D01*
X246599Y857186D01*
X246607Y857097D01*
X246619Y857008D01*
X246634Y856919D01*
X246653Y856831D01*
X246676Y856745D01*
X246703Y856659D01*
X246733Y856574D01*
X246767Y856491D01*
X246805Y856409D01*
X246846Y856329D01*
X246890Y856251D01*
X246938Y856175D01*
X246989Y856101D01*
X247043Y856029D01*
X247100Y855960D01*
X247160Y855893D01*
X247223Y855829D01*
X247288Y855767D01*
X247356Y855709D01*
X247427Y855653D01*
X247500Y855601D01*
X247575Y855551D01*
X247652Y855505D01*
X247731Y855463D01*
X247812Y855423D01*
X247894Y855388D01*
X247978Y855356D01*
X248063Y855327D01*
X248150Y855302D01*
X248237Y855281D01*
X248325Y855264D01*
X248414Y855250D01*
X248504Y855241D01*
X248593Y855235D01*
X248683Y855233D01*
X248683Y855232D02*
X250771Y855232D01*
X212161Y860171D02*
X210072Y860171D01*
X212161Y860171D02*
X212250Y860173D01*
X212338Y860179D01*
X212426Y860188D01*
X212514Y860201D01*
X212601Y860218D01*
X212687Y860238D01*
X212772Y860263D01*
X212857Y860290D01*
X212940Y860322D01*
X213021Y860356D01*
X213101Y860395D01*
X213179Y860436D01*
X213256Y860481D01*
X213330Y860529D01*
X213403Y860580D01*
X213473Y860634D01*
X213540Y860692D01*
X213606Y860752D01*
X213668Y860814D01*
X213728Y860880D01*
X213786Y860947D01*
X213840Y861017D01*
X213891Y861090D01*
X213939Y861164D01*
X213984Y861241D01*
X214025Y861319D01*
X214064Y861399D01*
X214098Y861480D01*
X214130Y861563D01*
X214157Y861648D01*
X214182Y861733D01*
X214202Y861819D01*
X214219Y861906D01*
X214232Y861994D01*
X214241Y862082D01*
X214247Y862170D01*
X214249Y862259D01*
X214249Y867481D01*
X214247Y867570D01*
X214241Y867658D01*
X214232Y867746D01*
X214219Y867834D01*
X214202Y867921D01*
X214182Y868007D01*
X214157Y868092D01*
X214130Y868177D01*
X214098Y868260D01*
X214064Y868341D01*
X214025Y868421D01*
X213984Y868499D01*
X213939Y868576D01*
X213891Y868650D01*
X213840Y868723D01*
X213786Y868793D01*
X213728Y868860D01*
X213668Y868926D01*
X213606Y868988D01*
X213540Y869048D01*
X213473Y869106D01*
X213403Y869160D01*
X213330Y869211D01*
X213256Y869259D01*
X213179Y869304D01*
X213101Y869345D01*
X213021Y869384D01*
X212940Y869418D01*
X212857Y869450D01*
X212772Y869477D01*
X212687Y869502D01*
X212601Y869522D01*
X212514Y869539D01*
X212426Y869552D01*
X212338Y869561D01*
X212250Y869567D01*
X212161Y869569D01*
X210072Y869569D01*
X206603Y867481D02*
X203993Y869569D01*
X203993Y860171D01*
X206603Y860171D02*
X201382Y860171D01*
X197460Y864870D02*
X197458Y865055D01*
X197451Y865240D01*
X197440Y865424D01*
X197425Y865608D01*
X197405Y865792D01*
X197381Y865976D01*
X197352Y866158D01*
X197319Y866340D01*
X197282Y866521D01*
X197240Y866701D01*
X197194Y866881D01*
X197144Y867059D01*
X197090Y867235D01*
X197031Y867411D01*
X196969Y867585D01*
X196902Y867757D01*
X196831Y867928D01*
X196756Y868097D01*
X196677Y868264D01*
X196647Y868344D01*
X196614Y868423D01*
X196577Y868500D01*
X196537Y868576D01*
X196494Y868650D01*
X196448Y868722D01*
X196398Y868791D01*
X196346Y868859D01*
X196290Y868924D01*
X196232Y868987D01*
X196170Y869046D01*
X196107Y869104D01*
X196040Y869158D01*
X195972Y869209D01*
X195901Y869257D01*
X195828Y869302D01*
X195754Y869344D01*
X195677Y869382D01*
X195599Y869417D01*
X195520Y869449D01*
X195439Y869477D01*
X195357Y869501D01*
X195273Y869522D01*
X195190Y869539D01*
X195105Y869552D01*
X195020Y869561D01*
X194935Y869567D01*
X194849Y869569D01*
X194763Y869567D01*
X194678Y869561D01*
X194593Y869552D01*
X194508Y869539D01*
X194425Y869522D01*
X194341Y869501D01*
X194259Y869477D01*
X194179Y869449D01*
X194099Y869417D01*
X194021Y869382D01*
X193944Y869344D01*
X193870Y869302D01*
X193797Y869257D01*
X193726Y869209D01*
X193658Y869158D01*
X193591Y869104D01*
X193528Y869046D01*
X193467Y868987D01*
X193408Y868924D01*
X193353Y868859D01*
X193300Y868791D01*
X193250Y868722D01*
X193204Y868650D01*
X193161Y868576D01*
X193121Y868500D01*
X193084Y868423D01*
X193051Y868344D01*
X193021Y868264D01*
X192942Y868097D01*
X192867Y867928D01*
X192796Y867757D01*
X192729Y867585D01*
X192667Y867411D01*
X192608Y867235D01*
X192554Y867059D01*
X192504Y866881D01*
X192458Y866701D01*
X192416Y866521D01*
X192379Y866340D01*
X192346Y866158D01*
X192317Y865976D01*
X192293Y865792D01*
X192273Y865608D01*
X192258Y865424D01*
X192247Y865240D01*
X192240Y865055D01*
X192238Y864870D01*
X197459Y864870D02*
X197457Y864685D01*
X197450Y864500D01*
X197439Y864316D01*
X197424Y864132D01*
X197404Y863948D01*
X197380Y863764D01*
X197351Y863582D01*
X197318Y863400D01*
X197281Y863219D01*
X197239Y863039D01*
X197193Y862859D01*
X197143Y862681D01*
X197089Y862505D01*
X197030Y862329D01*
X196968Y862155D01*
X196901Y861983D01*
X196830Y861812D01*
X196755Y861643D01*
X196676Y861476D01*
X196677Y861476D02*
X196647Y861396D01*
X196614Y861317D01*
X196577Y861240D01*
X196537Y861164D01*
X196494Y861090D01*
X196448Y861018D01*
X196398Y860949D01*
X196345Y860881D01*
X196290Y860816D01*
X196231Y860753D01*
X196170Y860694D01*
X196107Y860636D01*
X196040Y860582D01*
X195972Y860531D01*
X195901Y860483D01*
X195828Y860438D01*
X195754Y860396D01*
X195677Y860358D01*
X195599Y860323D01*
X195520Y860291D01*
X195439Y860263D01*
X195357Y860239D01*
X195273Y860218D01*
X195190Y860201D01*
X195105Y860188D01*
X195020Y860179D01*
X194935Y860173D01*
X194849Y860171D01*
X193021Y861476D02*
X192942Y861643D01*
X192867Y861812D01*
X192796Y861983D01*
X192729Y862155D01*
X192667Y862329D01*
X192608Y862505D01*
X192554Y862681D01*
X192504Y862859D01*
X192458Y863039D01*
X192416Y863219D01*
X192379Y863400D01*
X192346Y863582D01*
X192317Y863764D01*
X192293Y863948D01*
X192273Y864132D01*
X192258Y864316D01*
X192247Y864500D01*
X192240Y864685D01*
X192238Y864870D01*
X193021Y861476D02*
X193051Y861396D01*
X193084Y861317D01*
X193121Y861240D01*
X193161Y861164D01*
X193204Y861090D01*
X193250Y861018D01*
X193300Y860949D01*
X193353Y860881D01*
X193408Y860816D01*
X193467Y860753D01*
X193528Y860694D01*
X193591Y860636D01*
X193658Y860582D01*
X193726Y860531D01*
X193797Y860483D01*
X193870Y860438D01*
X193944Y860396D01*
X194021Y860358D01*
X194099Y860323D01*
X194179Y860291D01*
X194259Y860263D01*
X194341Y860239D01*
X194425Y860218D01*
X194508Y860201D01*
X194593Y860188D01*
X194678Y860179D01*
X194763Y860173D01*
X194849Y860171D01*
X196937Y862259D02*
X192760Y867481D01*
X188315Y865392D02*
X185183Y865392D01*
X185094Y865390D01*
X185006Y865384D01*
X184918Y865375D01*
X184830Y865362D01*
X184743Y865345D01*
X184657Y865325D01*
X184572Y865300D01*
X184487Y865273D01*
X184404Y865241D01*
X184323Y865207D01*
X184243Y865168D01*
X184165Y865127D01*
X184088Y865082D01*
X184014Y865034D01*
X183941Y864983D01*
X183871Y864929D01*
X183804Y864871D01*
X183738Y864811D01*
X183676Y864749D01*
X183616Y864683D01*
X183558Y864616D01*
X183504Y864546D01*
X183453Y864473D01*
X183405Y864399D01*
X183360Y864322D01*
X183319Y864244D01*
X183280Y864164D01*
X183246Y864083D01*
X183214Y864000D01*
X183187Y863915D01*
X183162Y863830D01*
X183142Y863744D01*
X183125Y863657D01*
X183112Y863569D01*
X183103Y863481D01*
X183097Y863393D01*
X183095Y863304D01*
X183094Y863304D02*
X183094Y862782D01*
X183096Y862681D01*
X183102Y862580D01*
X183112Y862479D01*
X183125Y862379D01*
X183143Y862279D01*
X183164Y862180D01*
X183190Y862082D01*
X183219Y861985D01*
X183251Y861889D01*
X183288Y861795D01*
X183328Y861702D01*
X183372Y861610D01*
X183419Y861521D01*
X183470Y861433D01*
X183524Y861347D01*
X183581Y861264D01*
X183641Y861182D01*
X183705Y861104D01*
X183771Y861027D01*
X183841Y860954D01*
X183913Y860883D01*
X183988Y860815D01*
X184066Y860750D01*
X184146Y860688D01*
X184228Y860629D01*
X184313Y860573D01*
X184400Y860521D01*
X184488Y860472D01*
X184579Y860426D01*
X184671Y860385D01*
X184765Y860346D01*
X184860Y860312D01*
X184956Y860281D01*
X185054Y860254D01*
X185152Y860230D01*
X185252Y860211D01*
X185352Y860195D01*
X185452Y860183D01*
X185553Y860175D01*
X185654Y860171D01*
X185756Y860171D01*
X185857Y860175D01*
X185958Y860183D01*
X186058Y860195D01*
X186158Y860211D01*
X186258Y860230D01*
X186356Y860254D01*
X186454Y860281D01*
X186550Y860312D01*
X186645Y860346D01*
X186739Y860385D01*
X186831Y860426D01*
X186922Y860472D01*
X187010Y860521D01*
X187097Y860573D01*
X187182Y860629D01*
X187264Y860688D01*
X187344Y860750D01*
X187422Y860815D01*
X187497Y860883D01*
X187569Y860954D01*
X187639Y861027D01*
X187705Y861104D01*
X187769Y861182D01*
X187829Y861264D01*
X187886Y861347D01*
X187940Y861433D01*
X187991Y861521D01*
X188038Y861610D01*
X188082Y861702D01*
X188122Y861795D01*
X188159Y861889D01*
X188191Y861985D01*
X188220Y862082D01*
X188246Y862180D01*
X188267Y862279D01*
X188285Y862379D01*
X188298Y862479D01*
X188308Y862580D01*
X188314Y862681D01*
X188316Y862782D01*
X188315Y862782D02*
X188315Y865392D01*
X188316Y865392D02*
X188314Y865518D01*
X188308Y865644D01*
X188299Y865770D01*
X188286Y865895D01*
X188268Y866020D01*
X188248Y866145D01*
X188223Y866269D01*
X188195Y866392D01*
X188163Y866514D01*
X188127Y866635D01*
X188088Y866755D01*
X188045Y866873D01*
X187998Y866990D01*
X187948Y867106D01*
X187894Y867221D01*
X187838Y867333D01*
X187777Y867444D01*
X187714Y867553D01*
X187647Y867660D01*
X187577Y867765D01*
X187503Y867868D01*
X187427Y867968D01*
X187348Y868066D01*
X187266Y868162D01*
X187180Y868255D01*
X187093Y868346D01*
X187002Y868433D01*
X186909Y868519D01*
X186813Y868601D01*
X186715Y868680D01*
X186615Y868756D01*
X186512Y868830D01*
X186407Y868900D01*
X186300Y868967D01*
X186191Y869030D01*
X186080Y869091D01*
X185968Y869147D01*
X185853Y869201D01*
X185737Y869251D01*
X185620Y869298D01*
X185502Y869341D01*
X185382Y869380D01*
X185261Y869416D01*
X185139Y869448D01*
X185016Y869476D01*
X184892Y869501D01*
X184767Y869521D01*
X184642Y869539D01*
X184517Y869552D01*
X184391Y869561D01*
X184265Y869567D01*
X184139Y869569D01*
X145017Y573151D02*
X142929Y573151D01*
X145017Y573151D02*
X145106Y573153D01*
X145194Y573159D01*
X145282Y573168D01*
X145370Y573181D01*
X145457Y573198D01*
X145543Y573218D01*
X145628Y573243D01*
X145713Y573270D01*
X145796Y573302D01*
X145877Y573336D01*
X145957Y573375D01*
X146035Y573416D01*
X146112Y573461D01*
X146186Y573509D01*
X146259Y573560D01*
X146329Y573614D01*
X146396Y573672D01*
X146462Y573732D01*
X146524Y573794D01*
X146584Y573860D01*
X146642Y573927D01*
X146696Y573997D01*
X146747Y574070D01*
X146795Y574144D01*
X146840Y574221D01*
X146881Y574299D01*
X146920Y574379D01*
X146954Y574460D01*
X146986Y574543D01*
X147013Y574628D01*
X147038Y574713D01*
X147058Y574799D01*
X147075Y574886D01*
X147088Y574974D01*
X147097Y575062D01*
X147103Y575150D01*
X147105Y575239D01*
X147106Y575239D02*
X147106Y580461D01*
X147105Y580461D02*
X147103Y580550D01*
X147097Y580638D01*
X147088Y580726D01*
X147075Y580814D01*
X147058Y580901D01*
X147038Y580987D01*
X147013Y581072D01*
X146986Y581157D01*
X146954Y581240D01*
X146920Y581321D01*
X146881Y581401D01*
X146840Y581479D01*
X146795Y581556D01*
X146747Y581630D01*
X146696Y581703D01*
X146642Y581773D01*
X146584Y581840D01*
X146524Y581906D01*
X146462Y581968D01*
X146396Y582028D01*
X146329Y582086D01*
X146259Y582140D01*
X146186Y582191D01*
X146112Y582239D01*
X146035Y582284D01*
X145957Y582325D01*
X145877Y582364D01*
X145796Y582398D01*
X145713Y582430D01*
X145628Y582457D01*
X145543Y582482D01*
X145457Y582502D01*
X145370Y582519D01*
X145282Y582532D01*
X145194Y582541D01*
X145106Y582547D01*
X145017Y582549D01*
X142929Y582549D01*
X139460Y580461D02*
X136850Y582549D01*
X136850Y573151D01*
X139460Y573151D02*
X134239Y573151D01*
X130316Y577850D02*
X130314Y578035D01*
X130307Y578220D01*
X130296Y578404D01*
X130281Y578588D01*
X130261Y578772D01*
X130237Y578956D01*
X130208Y579138D01*
X130175Y579320D01*
X130138Y579501D01*
X130096Y579681D01*
X130050Y579861D01*
X130000Y580039D01*
X129946Y580215D01*
X129887Y580391D01*
X129825Y580565D01*
X129758Y580737D01*
X129687Y580908D01*
X129612Y581077D01*
X129533Y581244D01*
X129534Y581244D02*
X129504Y581324D01*
X129471Y581403D01*
X129434Y581480D01*
X129394Y581556D01*
X129351Y581630D01*
X129305Y581702D01*
X129255Y581771D01*
X129203Y581839D01*
X129147Y581904D01*
X129089Y581967D01*
X129027Y582026D01*
X128964Y582084D01*
X128897Y582138D01*
X128829Y582189D01*
X128758Y582237D01*
X128685Y582282D01*
X128611Y582324D01*
X128534Y582362D01*
X128456Y582397D01*
X128377Y582429D01*
X128296Y582457D01*
X128214Y582481D01*
X128130Y582502D01*
X128047Y582519D01*
X127962Y582532D01*
X127877Y582541D01*
X127792Y582547D01*
X127706Y582549D01*
X127620Y582547D01*
X127535Y582541D01*
X127450Y582532D01*
X127365Y582519D01*
X127282Y582502D01*
X127198Y582481D01*
X127116Y582457D01*
X127036Y582429D01*
X126956Y582397D01*
X126878Y582362D01*
X126801Y582324D01*
X126727Y582282D01*
X126654Y582237D01*
X126583Y582189D01*
X126515Y582138D01*
X126448Y582084D01*
X126385Y582026D01*
X126324Y581967D01*
X126265Y581904D01*
X126210Y581839D01*
X126157Y581771D01*
X126107Y581702D01*
X126061Y581630D01*
X126018Y581556D01*
X125978Y581480D01*
X125941Y581403D01*
X125908Y581324D01*
X125878Y581244D01*
X125799Y581077D01*
X125724Y580908D01*
X125653Y580737D01*
X125586Y580565D01*
X125524Y580391D01*
X125465Y580215D01*
X125411Y580039D01*
X125361Y579861D01*
X125315Y579681D01*
X125273Y579501D01*
X125236Y579320D01*
X125203Y579138D01*
X125174Y578956D01*
X125150Y578772D01*
X125130Y578588D01*
X125115Y578404D01*
X125104Y578220D01*
X125097Y578035D01*
X125095Y577850D01*
X130316Y577850D02*
X130314Y577665D01*
X130307Y577480D01*
X130296Y577296D01*
X130281Y577112D01*
X130261Y576928D01*
X130237Y576744D01*
X130208Y576562D01*
X130175Y576380D01*
X130138Y576199D01*
X130096Y576019D01*
X130050Y575839D01*
X130000Y575661D01*
X129946Y575485D01*
X129887Y575309D01*
X129825Y575135D01*
X129758Y574963D01*
X129687Y574792D01*
X129612Y574623D01*
X129533Y574456D01*
X129534Y574456D02*
X129504Y574376D01*
X129471Y574297D01*
X129434Y574220D01*
X129394Y574144D01*
X129351Y574070D01*
X129305Y573998D01*
X129255Y573929D01*
X129202Y573861D01*
X129147Y573796D01*
X129088Y573733D01*
X129027Y573674D01*
X128964Y573616D01*
X128897Y573562D01*
X128829Y573511D01*
X128758Y573463D01*
X128685Y573418D01*
X128611Y573376D01*
X128534Y573338D01*
X128456Y573303D01*
X128377Y573271D01*
X128296Y573243D01*
X128214Y573219D01*
X128130Y573198D01*
X128047Y573181D01*
X127962Y573168D01*
X127877Y573159D01*
X127792Y573153D01*
X127706Y573151D01*
X125878Y574456D02*
X125799Y574623D01*
X125724Y574792D01*
X125653Y574963D01*
X125586Y575135D01*
X125524Y575309D01*
X125465Y575485D01*
X125411Y575661D01*
X125361Y575839D01*
X125315Y576019D01*
X125273Y576199D01*
X125236Y576380D01*
X125203Y576562D01*
X125174Y576744D01*
X125150Y576928D01*
X125130Y577112D01*
X125115Y577296D01*
X125104Y577480D01*
X125097Y577665D01*
X125095Y577850D01*
X125878Y574456D02*
X125908Y574376D01*
X125941Y574297D01*
X125978Y574220D01*
X126018Y574144D01*
X126061Y574070D01*
X126107Y573998D01*
X126157Y573929D01*
X126210Y573861D01*
X126265Y573796D01*
X126324Y573733D01*
X126385Y573674D01*
X126448Y573616D01*
X126515Y573562D01*
X126583Y573511D01*
X126654Y573463D01*
X126727Y573418D01*
X126801Y573376D01*
X126878Y573338D01*
X126956Y573303D01*
X127036Y573271D01*
X127116Y573243D01*
X127198Y573219D01*
X127282Y573198D01*
X127365Y573181D01*
X127450Y573168D01*
X127535Y573159D01*
X127620Y573153D01*
X127706Y573151D01*
X129794Y575239D02*
X125617Y580461D01*
X121173Y575762D02*
X121171Y575863D01*
X121165Y575964D01*
X121155Y576065D01*
X121142Y576165D01*
X121124Y576265D01*
X121103Y576364D01*
X121077Y576462D01*
X121048Y576559D01*
X121016Y576655D01*
X120979Y576749D01*
X120939Y576842D01*
X120895Y576934D01*
X120848Y577023D01*
X120797Y577111D01*
X120743Y577197D01*
X120686Y577280D01*
X120626Y577362D01*
X120562Y577440D01*
X120496Y577517D01*
X120426Y577590D01*
X120354Y577661D01*
X120279Y577729D01*
X120201Y577794D01*
X120121Y577856D01*
X120039Y577915D01*
X119954Y577971D01*
X119868Y578023D01*
X119779Y578072D01*
X119688Y578118D01*
X119596Y578159D01*
X119502Y578198D01*
X119407Y578232D01*
X119311Y578263D01*
X119213Y578290D01*
X119115Y578314D01*
X119015Y578333D01*
X118915Y578349D01*
X118815Y578361D01*
X118714Y578369D01*
X118613Y578373D01*
X118511Y578373D01*
X118410Y578369D01*
X118309Y578361D01*
X118209Y578349D01*
X118109Y578333D01*
X118009Y578314D01*
X117911Y578290D01*
X117813Y578263D01*
X117717Y578232D01*
X117622Y578198D01*
X117528Y578159D01*
X117436Y578118D01*
X117345Y578072D01*
X117257Y578023D01*
X117170Y577971D01*
X117085Y577915D01*
X117003Y577856D01*
X116923Y577794D01*
X116845Y577729D01*
X116770Y577661D01*
X116698Y577590D01*
X116628Y577517D01*
X116562Y577440D01*
X116498Y577362D01*
X116438Y577280D01*
X116381Y577197D01*
X116327Y577111D01*
X116276Y577023D01*
X116229Y576934D01*
X116185Y576842D01*
X116145Y576749D01*
X116108Y576655D01*
X116076Y576559D01*
X116047Y576462D01*
X116021Y576364D01*
X116000Y576265D01*
X115982Y576165D01*
X115969Y576065D01*
X115959Y575964D01*
X115953Y575863D01*
X115951Y575762D01*
X115953Y575661D01*
X115959Y575560D01*
X115969Y575459D01*
X115982Y575359D01*
X116000Y575259D01*
X116021Y575160D01*
X116047Y575062D01*
X116076Y574965D01*
X116108Y574869D01*
X116145Y574775D01*
X116185Y574682D01*
X116229Y574590D01*
X116276Y574501D01*
X116327Y574413D01*
X116381Y574327D01*
X116438Y574244D01*
X116498Y574162D01*
X116562Y574084D01*
X116628Y574007D01*
X116698Y573934D01*
X116770Y573863D01*
X116845Y573795D01*
X116923Y573730D01*
X117003Y573668D01*
X117085Y573609D01*
X117170Y573553D01*
X117257Y573501D01*
X117345Y573452D01*
X117436Y573406D01*
X117528Y573365D01*
X117622Y573326D01*
X117717Y573292D01*
X117813Y573261D01*
X117911Y573234D01*
X118009Y573210D01*
X118109Y573191D01*
X118209Y573175D01*
X118309Y573163D01*
X118410Y573155D01*
X118511Y573151D01*
X118613Y573151D01*
X118714Y573155D01*
X118815Y573163D01*
X118915Y573175D01*
X119015Y573191D01*
X119115Y573210D01*
X119213Y573234D01*
X119311Y573261D01*
X119407Y573292D01*
X119502Y573326D01*
X119596Y573365D01*
X119688Y573406D01*
X119779Y573452D01*
X119867Y573501D01*
X119954Y573553D01*
X120039Y573609D01*
X120121Y573668D01*
X120201Y573730D01*
X120279Y573795D01*
X120354Y573863D01*
X120426Y573934D01*
X120496Y574007D01*
X120562Y574084D01*
X120626Y574162D01*
X120686Y574244D01*
X120743Y574327D01*
X120797Y574413D01*
X120848Y574501D01*
X120895Y574590D01*
X120939Y574682D01*
X120979Y574775D01*
X121016Y574869D01*
X121048Y574965D01*
X121077Y575062D01*
X121103Y575160D01*
X121124Y575259D01*
X121142Y575359D01*
X121155Y575459D01*
X121165Y575560D01*
X121171Y575661D01*
X121173Y575762D01*
X120650Y580461D02*
X120648Y580551D01*
X120642Y580640D01*
X120633Y580730D01*
X120619Y580819D01*
X120602Y580907D01*
X120581Y580994D01*
X120556Y581081D01*
X120527Y581166D01*
X120495Y581250D01*
X120460Y581332D01*
X120420Y581413D01*
X120378Y581492D01*
X120332Y581569D01*
X120282Y581644D01*
X120230Y581717D01*
X120174Y581788D01*
X120116Y581856D01*
X120054Y581921D01*
X119990Y581984D01*
X119923Y582044D01*
X119854Y582101D01*
X119782Y582155D01*
X119708Y582206D01*
X119632Y582254D01*
X119554Y582298D01*
X119474Y582339D01*
X119392Y582377D01*
X119309Y582411D01*
X119224Y582441D01*
X119138Y582468D01*
X119052Y582491D01*
X118964Y582510D01*
X118875Y582525D01*
X118786Y582537D01*
X118697Y582545D01*
X118607Y582549D01*
X118517Y582549D01*
X118427Y582545D01*
X118338Y582537D01*
X118249Y582525D01*
X118160Y582510D01*
X118072Y582491D01*
X117986Y582468D01*
X117900Y582441D01*
X117815Y582411D01*
X117732Y582377D01*
X117650Y582339D01*
X117570Y582298D01*
X117492Y582254D01*
X117416Y582206D01*
X117342Y582155D01*
X117270Y582101D01*
X117201Y582044D01*
X117134Y581984D01*
X117070Y581921D01*
X117008Y581856D01*
X116950Y581788D01*
X116894Y581717D01*
X116842Y581644D01*
X116792Y581569D01*
X116746Y581492D01*
X116704Y581413D01*
X116664Y581332D01*
X116629Y581250D01*
X116597Y581166D01*
X116568Y581081D01*
X116543Y580994D01*
X116522Y580907D01*
X116505Y580819D01*
X116491Y580730D01*
X116482Y580640D01*
X116476Y580551D01*
X116474Y580461D01*
X116476Y580371D01*
X116482Y580282D01*
X116491Y580192D01*
X116505Y580103D01*
X116522Y580015D01*
X116543Y579928D01*
X116568Y579841D01*
X116597Y579756D01*
X116629Y579672D01*
X116664Y579590D01*
X116704Y579509D01*
X116746Y579430D01*
X116792Y579353D01*
X116842Y579278D01*
X116894Y579205D01*
X116950Y579134D01*
X117008Y579066D01*
X117070Y579001D01*
X117134Y578938D01*
X117201Y578878D01*
X117270Y578821D01*
X117342Y578767D01*
X117416Y578716D01*
X117492Y578668D01*
X117570Y578624D01*
X117650Y578583D01*
X117732Y578545D01*
X117815Y578511D01*
X117900Y578481D01*
X117986Y578454D01*
X118072Y578431D01*
X118160Y578412D01*
X118249Y578397D01*
X118338Y578385D01*
X118427Y578377D01*
X118517Y578373D01*
X118607Y578373D01*
X118697Y578377D01*
X118786Y578385D01*
X118875Y578397D01*
X118964Y578412D01*
X119052Y578431D01*
X119138Y578454D01*
X119224Y578481D01*
X119309Y578511D01*
X119392Y578545D01*
X119474Y578583D01*
X119554Y578624D01*
X119632Y578668D01*
X119708Y578716D01*
X119782Y578767D01*
X119854Y578821D01*
X119923Y578878D01*
X119990Y578938D01*
X120054Y579001D01*
X120116Y579066D01*
X120174Y579134D01*
X120230Y579205D01*
X120282Y579278D01*
X120332Y579353D01*
X120378Y579430D01*
X120420Y579509D01*
X120460Y579590D01*
X120495Y579672D01*
X120527Y579756D01*
X120556Y579841D01*
X120581Y579928D01*
X120602Y580015D01*
X120619Y580103D01*
X120633Y580192D01*
X120642Y580282D01*
X120648Y580371D01*
X120650Y580461D01*
X169432Y860171D02*
X171521Y860171D01*
X171610Y860173D01*
X171698Y860179D01*
X171786Y860188D01*
X171874Y860201D01*
X171961Y860218D01*
X172047Y860238D01*
X172132Y860263D01*
X172217Y860290D01*
X172300Y860322D01*
X172381Y860356D01*
X172461Y860395D01*
X172539Y860436D01*
X172616Y860481D01*
X172690Y860529D01*
X172763Y860580D01*
X172833Y860634D01*
X172900Y860692D01*
X172966Y860752D01*
X173028Y860814D01*
X173088Y860880D01*
X173146Y860947D01*
X173200Y861017D01*
X173251Y861090D01*
X173299Y861164D01*
X173344Y861241D01*
X173385Y861319D01*
X173424Y861399D01*
X173458Y861480D01*
X173490Y861563D01*
X173517Y861648D01*
X173542Y861733D01*
X173562Y861819D01*
X173579Y861906D01*
X173592Y861994D01*
X173601Y862082D01*
X173607Y862170D01*
X173609Y862259D01*
X173609Y867481D01*
X173607Y867570D01*
X173601Y867658D01*
X173592Y867746D01*
X173579Y867834D01*
X173562Y867921D01*
X173542Y868007D01*
X173517Y868092D01*
X173490Y868177D01*
X173458Y868260D01*
X173424Y868341D01*
X173385Y868421D01*
X173344Y868499D01*
X173299Y868576D01*
X173251Y868650D01*
X173200Y868723D01*
X173146Y868793D01*
X173088Y868860D01*
X173028Y868926D01*
X172966Y868988D01*
X172900Y869048D01*
X172833Y869106D01*
X172763Y869160D01*
X172690Y869211D01*
X172616Y869259D01*
X172539Y869304D01*
X172461Y869345D01*
X172381Y869384D01*
X172300Y869418D01*
X172217Y869450D01*
X172132Y869477D01*
X172047Y869502D01*
X171961Y869522D01*
X171874Y869539D01*
X171786Y869552D01*
X171698Y869561D01*
X171610Y869567D01*
X171521Y869569D01*
X169432Y869569D01*
X165963Y867481D02*
X163353Y869569D01*
X163353Y860171D01*
X165963Y860171D02*
X160742Y860171D01*
X156820Y864870D02*
X156818Y865055D01*
X156811Y865240D01*
X156800Y865424D01*
X156785Y865608D01*
X156765Y865792D01*
X156741Y865976D01*
X156712Y866158D01*
X156679Y866340D01*
X156642Y866521D01*
X156600Y866701D01*
X156554Y866881D01*
X156504Y867059D01*
X156450Y867235D01*
X156391Y867411D01*
X156329Y867585D01*
X156262Y867757D01*
X156191Y867928D01*
X156116Y868097D01*
X156037Y868264D01*
X156007Y868344D01*
X155974Y868423D01*
X155937Y868500D01*
X155897Y868576D01*
X155854Y868650D01*
X155808Y868722D01*
X155758Y868791D01*
X155706Y868859D01*
X155650Y868924D01*
X155592Y868987D01*
X155530Y869046D01*
X155467Y869104D01*
X155400Y869158D01*
X155332Y869209D01*
X155261Y869257D01*
X155188Y869302D01*
X155114Y869344D01*
X155037Y869382D01*
X154959Y869417D01*
X154880Y869449D01*
X154799Y869477D01*
X154717Y869501D01*
X154633Y869522D01*
X154550Y869539D01*
X154465Y869552D01*
X154380Y869561D01*
X154295Y869567D01*
X154209Y869569D01*
X154123Y869567D01*
X154038Y869561D01*
X153953Y869552D01*
X153868Y869539D01*
X153785Y869522D01*
X153701Y869501D01*
X153619Y869477D01*
X153539Y869449D01*
X153459Y869417D01*
X153381Y869382D01*
X153304Y869344D01*
X153230Y869302D01*
X153157Y869257D01*
X153086Y869209D01*
X153018Y869158D01*
X152951Y869104D01*
X152888Y869046D01*
X152827Y868987D01*
X152768Y868924D01*
X152713Y868859D01*
X152660Y868791D01*
X152610Y868722D01*
X152564Y868650D01*
X152521Y868576D01*
X152481Y868500D01*
X152444Y868423D01*
X152411Y868344D01*
X152381Y868264D01*
X152302Y868097D01*
X152227Y867928D01*
X152156Y867757D01*
X152089Y867585D01*
X152027Y867411D01*
X151968Y867235D01*
X151914Y867059D01*
X151864Y866881D01*
X151818Y866701D01*
X151776Y866521D01*
X151739Y866340D01*
X151706Y866158D01*
X151677Y865976D01*
X151653Y865792D01*
X151633Y865608D01*
X151618Y865424D01*
X151607Y865240D01*
X151600Y865055D01*
X151598Y864870D01*
X156819Y864870D02*
X156817Y864685D01*
X156810Y864500D01*
X156799Y864316D01*
X156784Y864132D01*
X156764Y863948D01*
X156740Y863764D01*
X156711Y863582D01*
X156678Y863400D01*
X156641Y863219D01*
X156599Y863039D01*
X156553Y862859D01*
X156503Y862681D01*
X156449Y862505D01*
X156390Y862329D01*
X156328Y862155D01*
X156261Y861983D01*
X156190Y861812D01*
X156115Y861643D01*
X156036Y861476D01*
X156037Y861476D02*
X156007Y861396D01*
X155974Y861317D01*
X155937Y861240D01*
X155897Y861164D01*
X155854Y861090D01*
X155808Y861018D01*
X155758Y860949D01*
X155705Y860881D01*
X155650Y860816D01*
X155591Y860753D01*
X155530Y860694D01*
X155467Y860636D01*
X155400Y860582D01*
X155332Y860531D01*
X155261Y860483D01*
X155188Y860438D01*
X155114Y860396D01*
X155037Y860358D01*
X154959Y860323D01*
X154880Y860291D01*
X154799Y860263D01*
X154717Y860239D01*
X154633Y860218D01*
X154550Y860201D01*
X154465Y860188D01*
X154380Y860179D01*
X154295Y860173D01*
X154209Y860171D01*
X152381Y861476D02*
X152302Y861643D01*
X152227Y861812D01*
X152156Y861983D01*
X152089Y862155D01*
X152027Y862329D01*
X151968Y862505D01*
X151914Y862681D01*
X151864Y862859D01*
X151818Y863039D01*
X151776Y863219D01*
X151739Y863400D01*
X151706Y863582D01*
X151677Y863764D01*
X151653Y863948D01*
X151633Y864132D01*
X151618Y864316D01*
X151607Y864500D01*
X151600Y864685D01*
X151598Y864870D01*
X152381Y861476D02*
X152411Y861396D01*
X152444Y861317D01*
X152481Y861240D01*
X152521Y861164D01*
X152564Y861090D01*
X152610Y861018D01*
X152660Y860949D01*
X152713Y860881D01*
X152768Y860816D01*
X152827Y860753D01*
X152888Y860694D01*
X152951Y860636D01*
X153018Y860582D01*
X153086Y860531D01*
X153157Y860483D01*
X153230Y860438D01*
X153304Y860396D01*
X153381Y860358D01*
X153459Y860323D01*
X153539Y860291D01*
X153619Y860263D01*
X153701Y860239D01*
X153785Y860218D01*
X153868Y860201D01*
X153953Y860188D01*
X154038Y860179D01*
X154123Y860173D01*
X154209Y860171D01*
X156297Y862259D02*
X152120Y867481D01*
X147675Y868525D02*
X147675Y869569D01*
X142454Y869569D01*
X145065Y860171D01*
D10*
X122320Y625240D02*
X172320Y625240D01*
X172320Y675240D01*
X122320Y675240D01*
X122270Y671740D02*
X122320Y625240D01*
X122270Y671740D02*
X122320Y675240D01*
X126296Y667672D02*
X126298Y667791D01*
X126304Y667911D01*
X126314Y668030D01*
X126328Y668148D01*
X126346Y668266D01*
X126367Y668384D01*
X126393Y668500D01*
X126422Y668616D01*
X126456Y668731D01*
X126493Y668844D01*
X126534Y668956D01*
X126578Y669067D01*
X126626Y669177D01*
X126678Y669284D01*
X126733Y669390D01*
X126792Y669494D01*
X126855Y669596D01*
X126920Y669695D01*
X126989Y669793D01*
X127061Y669888D01*
X127136Y669981D01*
X127215Y670071D01*
X127296Y670159D01*
X127380Y670243D01*
X127467Y670325D01*
X127556Y670404D01*
X127648Y670480D01*
X127743Y670553D01*
X127840Y670623D01*
X127939Y670689D01*
X128041Y670752D01*
X128144Y670812D01*
X128249Y670868D01*
X128356Y670921D01*
X128465Y670970D01*
X128576Y671016D01*
X128688Y671057D01*
X128801Y671095D01*
X128915Y671130D01*
X129031Y671160D01*
X129147Y671187D01*
X129264Y671209D01*
X129382Y671228D01*
X129501Y671243D01*
X129620Y671254D01*
X129739Y671261D01*
X129858Y671264D01*
X129978Y671263D01*
X130097Y671258D01*
X130216Y671249D01*
X130335Y671236D01*
X130453Y671219D01*
X130570Y671199D01*
X130687Y671174D01*
X130803Y671145D01*
X130918Y671113D01*
X131032Y671077D01*
X131145Y671037D01*
X131256Y670993D01*
X131365Y670946D01*
X131473Y670895D01*
X131580Y670841D01*
X131684Y670783D01*
X131786Y670721D01*
X131887Y670657D01*
X131985Y670588D01*
X132081Y670517D01*
X132174Y670443D01*
X132265Y670365D01*
X132353Y670285D01*
X132438Y670201D01*
X132521Y670115D01*
X132601Y670026D01*
X132678Y669935D01*
X132751Y669841D01*
X132822Y669744D01*
X132889Y669646D01*
X132953Y669545D01*
X133014Y669442D01*
X133071Y669337D01*
X133124Y669231D01*
X133174Y669122D01*
X133221Y669012D01*
X133263Y668901D01*
X133302Y668788D01*
X133338Y668674D01*
X133369Y668558D01*
X133396Y668442D01*
X133420Y668325D01*
X133440Y668207D01*
X133456Y668089D01*
X133468Y667970D01*
X133476Y667851D01*
X133480Y667732D01*
X133480Y667612D01*
X133476Y667493D01*
X133468Y667374D01*
X133456Y667255D01*
X133440Y667137D01*
X133420Y667019D01*
X133396Y666902D01*
X133369Y666786D01*
X133338Y666670D01*
X133302Y666556D01*
X133263Y666443D01*
X133221Y666332D01*
X133174Y666222D01*
X133124Y666113D01*
X133071Y666007D01*
X133014Y665902D01*
X132953Y665799D01*
X132889Y665698D01*
X132822Y665600D01*
X132751Y665503D01*
X132678Y665409D01*
X132601Y665318D01*
X132521Y665229D01*
X132438Y665143D01*
X132353Y665059D01*
X132265Y664979D01*
X132174Y664901D01*
X132081Y664827D01*
X131985Y664756D01*
X131887Y664687D01*
X131786Y664623D01*
X131684Y664561D01*
X131580Y664503D01*
X131473Y664449D01*
X131365Y664398D01*
X131256Y664351D01*
X131145Y664307D01*
X131032Y664267D01*
X130918Y664231D01*
X130803Y664199D01*
X130687Y664170D01*
X130570Y664145D01*
X130453Y664125D01*
X130335Y664108D01*
X130216Y664095D01*
X130097Y664086D01*
X129978Y664081D01*
X129858Y664080D01*
X129739Y664083D01*
X129620Y664090D01*
X129501Y664101D01*
X129382Y664116D01*
X129264Y664135D01*
X129147Y664157D01*
X129031Y664184D01*
X128915Y664214D01*
X128801Y664249D01*
X128688Y664287D01*
X128576Y664328D01*
X128465Y664374D01*
X128356Y664423D01*
X128249Y664476D01*
X128144Y664532D01*
X128041Y664592D01*
X127939Y664655D01*
X127840Y664721D01*
X127743Y664791D01*
X127648Y664864D01*
X127556Y664940D01*
X127467Y665019D01*
X127380Y665101D01*
X127296Y665185D01*
X127215Y665273D01*
X127136Y665363D01*
X127061Y665456D01*
X126989Y665551D01*
X126920Y665649D01*
X126855Y665748D01*
X126792Y665850D01*
X126733Y665954D01*
X126678Y666060D01*
X126626Y666167D01*
X126578Y666277D01*
X126534Y666388D01*
X126493Y666500D01*
X126456Y666613D01*
X126422Y666728D01*
X126393Y666844D01*
X126367Y666960D01*
X126346Y667078D01*
X126328Y667196D01*
X126314Y667314D01*
X126304Y667433D01*
X126298Y667553D01*
X126296Y667672D01*
D11*
X120321Y676181D02*
X120321Y685579D01*
X121365Y676181D02*
X119277Y676181D01*
X119277Y685579D02*
X121365Y685579D01*
X113553Y676181D02*
X111465Y676181D01*
X113553Y676181D02*
X113642Y676183D01*
X113730Y676189D01*
X113818Y676198D01*
X113906Y676211D01*
X113993Y676228D01*
X114079Y676248D01*
X114164Y676273D01*
X114249Y676300D01*
X114332Y676332D01*
X114413Y676366D01*
X114493Y676405D01*
X114571Y676446D01*
X114648Y676491D01*
X114722Y676539D01*
X114795Y676590D01*
X114865Y676644D01*
X114932Y676702D01*
X114998Y676762D01*
X115060Y676824D01*
X115120Y676890D01*
X115178Y676957D01*
X115232Y677027D01*
X115283Y677100D01*
X115331Y677174D01*
X115376Y677251D01*
X115417Y677329D01*
X115456Y677409D01*
X115490Y677490D01*
X115522Y677573D01*
X115549Y677658D01*
X115574Y677743D01*
X115594Y677829D01*
X115611Y677916D01*
X115624Y678004D01*
X115633Y678092D01*
X115639Y678180D01*
X115641Y678269D01*
X115642Y678269D02*
X115642Y683491D01*
X115641Y683491D02*
X115639Y683580D01*
X115633Y683668D01*
X115624Y683756D01*
X115611Y683844D01*
X115594Y683931D01*
X115574Y684017D01*
X115549Y684102D01*
X115522Y684187D01*
X115490Y684270D01*
X115456Y684351D01*
X115417Y684431D01*
X115376Y684509D01*
X115331Y684586D01*
X115283Y684660D01*
X115232Y684733D01*
X115178Y684803D01*
X115120Y684870D01*
X115060Y684936D01*
X114998Y684998D01*
X114932Y685058D01*
X114865Y685116D01*
X114795Y685170D01*
X114722Y685221D01*
X114648Y685269D01*
X114571Y685314D01*
X114493Y685355D01*
X114413Y685394D01*
X114332Y685428D01*
X114249Y685460D01*
X114164Y685487D01*
X114079Y685512D01*
X113993Y685532D01*
X113906Y685549D01*
X113818Y685562D01*
X113730Y685571D01*
X113642Y685577D01*
X113553Y685579D01*
X111465Y685579D01*
X107996Y683491D02*
X105386Y685579D01*
X105386Y676181D01*
X107996Y676181D02*
X102775Y676181D01*
X98853Y680880D02*
X98851Y681065D01*
X98844Y681250D01*
X98833Y681434D01*
X98818Y681618D01*
X98798Y681802D01*
X98774Y681986D01*
X98745Y682168D01*
X98712Y682350D01*
X98675Y682531D01*
X98633Y682711D01*
X98587Y682891D01*
X98537Y683069D01*
X98483Y683245D01*
X98424Y683421D01*
X98362Y683595D01*
X98295Y683767D01*
X98224Y683938D01*
X98149Y684107D01*
X98070Y684274D01*
X98040Y684354D01*
X98007Y684433D01*
X97970Y684510D01*
X97930Y684586D01*
X97887Y684660D01*
X97841Y684732D01*
X97791Y684801D01*
X97739Y684869D01*
X97683Y684934D01*
X97625Y684997D01*
X97563Y685056D01*
X97500Y685114D01*
X97433Y685168D01*
X97365Y685219D01*
X97294Y685267D01*
X97221Y685312D01*
X97147Y685354D01*
X97070Y685392D01*
X96992Y685427D01*
X96913Y685459D01*
X96832Y685487D01*
X96750Y685511D01*
X96666Y685532D01*
X96583Y685549D01*
X96498Y685562D01*
X96413Y685571D01*
X96328Y685577D01*
X96242Y685579D01*
X96156Y685577D01*
X96071Y685571D01*
X95986Y685562D01*
X95901Y685549D01*
X95818Y685532D01*
X95734Y685511D01*
X95652Y685487D01*
X95572Y685459D01*
X95492Y685427D01*
X95414Y685392D01*
X95337Y685354D01*
X95263Y685312D01*
X95190Y685267D01*
X95119Y685219D01*
X95051Y685168D01*
X94984Y685114D01*
X94921Y685056D01*
X94860Y684997D01*
X94801Y684934D01*
X94746Y684869D01*
X94693Y684801D01*
X94643Y684732D01*
X94597Y684660D01*
X94554Y684586D01*
X94514Y684510D01*
X94477Y684433D01*
X94444Y684354D01*
X94414Y684274D01*
X94335Y684107D01*
X94260Y683938D01*
X94189Y683767D01*
X94122Y683595D01*
X94060Y683421D01*
X94001Y683245D01*
X93947Y683069D01*
X93897Y682891D01*
X93851Y682711D01*
X93809Y682531D01*
X93772Y682350D01*
X93739Y682168D01*
X93710Y681986D01*
X93686Y681802D01*
X93666Y681618D01*
X93651Y681434D01*
X93640Y681250D01*
X93633Y681065D01*
X93631Y680880D01*
X98852Y680880D02*
X98850Y680695D01*
X98843Y680510D01*
X98832Y680326D01*
X98817Y680142D01*
X98797Y679958D01*
X98773Y679774D01*
X98744Y679592D01*
X98711Y679410D01*
X98674Y679229D01*
X98632Y679049D01*
X98586Y678869D01*
X98536Y678691D01*
X98482Y678515D01*
X98423Y678339D01*
X98361Y678165D01*
X98294Y677993D01*
X98223Y677822D01*
X98148Y677653D01*
X98069Y677486D01*
X98070Y677486D02*
X98040Y677406D01*
X98007Y677327D01*
X97970Y677250D01*
X97930Y677174D01*
X97887Y677100D01*
X97841Y677028D01*
X97791Y676959D01*
X97738Y676891D01*
X97683Y676826D01*
X97624Y676763D01*
X97563Y676704D01*
X97500Y676646D01*
X97433Y676592D01*
X97365Y676541D01*
X97294Y676493D01*
X97221Y676448D01*
X97147Y676406D01*
X97070Y676368D01*
X96992Y676333D01*
X96913Y676301D01*
X96832Y676273D01*
X96750Y676249D01*
X96666Y676228D01*
X96583Y676211D01*
X96498Y676198D01*
X96413Y676189D01*
X96328Y676183D01*
X96242Y676181D01*
X94414Y677486D02*
X94335Y677653D01*
X94260Y677822D01*
X94189Y677993D01*
X94122Y678165D01*
X94060Y678339D01*
X94001Y678515D01*
X93947Y678691D01*
X93897Y678869D01*
X93851Y679049D01*
X93809Y679229D01*
X93772Y679410D01*
X93739Y679592D01*
X93710Y679774D01*
X93686Y679958D01*
X93666Y680142D01*
X93651Y680326D01*
X93640Y680510D01*
X93633Y680695D01*
X93631Y680880D01*
X94414Y677486D02*
X94444Y677406D01*
X94477Y677327D01*
X94514Y677250D01*
X94554Y677174D01*
X94597Y677100D01*
X94643Y677028D01*
X94693Y676959D01*
X94746Y676891D01*
X94801Y676826D01*
X94860Y676763D01*
X94921Y676704D01*
X94984Y676646D01*
X95051Y676592D01*
X95119Y676541D01*
X95190Y676493D01*
X95263Y676448D01*
X95337Y676406D01*
X95414Y676368D01*
X95492Y676333D01*
X95572Y676301D01*
X95652Y676273D01*
X95734Y676249D01*
X95818Y676228D01*
X95901Y676211D01*
X95986Y676198D01*
X96071Y676189D01*
X96156Y676183D01*
X96242Y676181D01*
X98330Y678269D02*
X94153Y683491D01*
X89708Y683491D02*
X87098Y685579D01*
X87098Y676181D01*
X89708Y676181D02*
X84487Y676181D01*
X123571Y842391D02*
X132969Y842391D01*
X132969Y845002D01*
X132967Y845103D01*
X132961Y845204D01*
X132951Y845305D01*
X132938Y845405D01*
X132920Y845505D01*
X132899Y845604D01*
X132873Y845702D01*
X132844Y845799D01*
X132812Y845895D01*
X132775Y845989D01*
X132735Y846082D01*
X132691Y846174D01*
X132644Y846263D01*
X132593Y846351D01*
X132539Y846437D01*
X132482Y846520D01*
X132422Y846602D01*
X132358Y846680D01*
X132292Y846757D01*
X132222Y846830D01*
X132150Y846901D01*
X132075Y846969D01*
X131997Y847034D01*
X131917Y847096D01*
X131835Y847155D01*
X131750Y847211D01*
X131664Y847263D01*
X131575Y847312D01*
X131484Y847358D01*
X131392Y847399D01*
X131298Y847438D01*
X131203Y847472D01*
X131107Y847503D01*
X131009Y847530D01*
X130911Y847554D01*
X130811Y847573D01*
X130711Y847589D01*
X130611Y847601D01*
X130510Y847609D01*
X130409Y847613D01*
X130307Y847613D01*
X130206Y847609D01*
X130105Y847601D01*
X130005Y847589D01*
X129905Y847573D01*
X129805Y847554D01*
X129707Y847530D01*
X129609Y847503D01*
X129513Y847472D01*
X129418Y847438D01*
X129324Y847399D01*
X129232Y847358D01*
X129141Y847312D01*
X129053Y847263D01*
X128966Y847211D01*
X128881Y847155D01*
X128799Y847096D01*
X128719Y847034D01*
X128641Y846969D01*
X128566Y846901D01*
X128494Y846830D01*
X128424Y846757D01*
X128358Y846680D01*
X128294Y846602D01*
X128234Y846520D01*
X128177Y846437D01*
X128123Y846351D01*
X128072Y846263D01*
X128025Y846174D01*
X127981Y846082D01*
X127941Y845989D01*
X127904Y845895D01*
X127872Y845799D01*
X127843Y845702D01*
X127817Y845604D01*
X127796Y845505D01*
X127778Y845405D01*
X127765Y845305D01*
X127755Y845204D01*
X127749Y845103D01*
X127747Y845002D01*
X127748Y845002D02*
X127748Y842391D01*
X127748Y845524D02*
X123571Y847612D01*
X130881Y851478D02*
X132969Y854088D01*
X123571Y854088D01*
X123571Y851478D02*
X123571Y856699D01*
X128270Y860622D02*
X128455Y860624D01*
X128640Y860631D01*
X128824Y860642D01*
X129008Y860657D01*
X129192Y860677D01*
X129376Y860701D01*
X129558Y860730D01*
X129740Y860763D01*
X129921Y860800D01*
X130101Y860842D01*
X130281Y860888D01*
X130459Y860938D01*
X130635Y860992D01*
X130811Y861051D01*
X130985Y861113D01*
X131157Y861180D01*
X131328Y861251D01*
X131497Y861326D01*
X131664Y861405D01*
X131664Y861404D02*
X131744Y861434D01*
X131823Y861467D01*
X131900Y861504D01*
X131976Y861544D01*
X132050Y861587D01*
X132122Y861633D01*
X132191Y861683D01*
X132259Y861735D01*
X132324Y861791D01*
X132387Y861849D01*
X132446Y861911D01*
X132504Y861974D01*
X132558Y862041D01*
X132609Y862109D01*
X132657Y862180D01*
X132702Y862253D01*
X132744Y862327D01*
X132782Y862404D01*
X132817Y862482D01*
X132849Y862561D01*
X132877Y862642D01*
X132901Y862724D01*
X132922Y862808D01*
X132939Y862891D01*
X132952Y862976D01*
X132961Y863061D01*
X132967Y863146D01*
X132969Y863232D01*
X132967Y863318D01*
X132961Y863403D01*
X132952Y863488D01*
X132939Y863573D01*
X132922Y863656D01*
X132901Y863740D01*
X132877Y863822D01*
X132849Y863903D01*
X132817Y863982D01*
X132782Y864060D01*
X132744Y864137D01*
X132702Y864211D01*
X132657Y864284D01*
X132609Y864355D01*
X132558Y864423D01*
X132504Y864490D01*
X132446Y864553D01*
X132387Y864615D01*
X132324Y864673D01*
X132259Y864729D01*
X132191Y864781D01*
X132122Y864831D01*
X132050Y864877D01*
X131976Y864920D01*
X131900Y864960D01*
X131823Y864997D01*
X131744Y865030D01*
X131664Y865060D01*
X131497Y865139D01*
X131328Y865214D01*
X131157Y865285D01*
X130985Y865352D01*
X130811Y865414D01*
X130635Y865473D01*
X130459Y865527D01*
X130281Y865577D01*
X130101Y865623D01*
X129921Y865665D01*
X129740Y865702D01*
X129558Y865735D01*
X129376Y865764D01*
X129192Y865788D01*
X129008Y865808D01*
X128824Y865823D01*
X128640Y865834D01*
X128455Y865841D01*
X128270Y865843D01*
X128270Y860622D02*
X128085Y860624D01*
X127900Y860631D01*
X127716Y860642D01*
X127532Y860657D01*
X127348Y860677D01*
X127164Y860701D01*
X126982Y860730D01*
X126800Y860763D01*
X126619Y860800D01*
X126439Y860842D01*
X126259Y860888D01*
X126081Y860938D01*
X125905Y860992D01*
X125729Y861051D01*
X125555Y861113D01*
X125383Y861180D01*
X125212Y861251D01*
X125043Y861326D01*
X124876Y861405D01*
X124876Y861404D02*
X124796Y861434D01*
X124717Y861467D01*
X124640Y861504D01*
X124564Y861544D01*
X124490Y861587D01*
X124418Y861633D01*
X124349Y861683D01*
X124281Y861736D01*
X124216Y861791D01*
X124153Y861850D01*
X124094Y861911D01*
X124036Y861974D01*
X123982Y862041D01*
X123931Y862109D01*
X123883Y862180D01*
X123838Y862253D01*
X123796Y862327D01*
X123758Y862404D01*
X123723Y862482D01*
X123691Y862561D01*
X123663Y862642D01*
X123639Y862724D01*
X123618Y862808D01*
X123601Y862891D01*
X123588Y862976D01*
X123579Y863061D01*
X123573Y863146D01*
X123571Y863232D01*
X124876Y865060D02*
X125043Y865139D01*
X125212Y865214D01*
X125383Y865285D01*
X125555Y865352D01*
X125729Y865414D01*
X125905Y865473D01*
X126081Y865527D01*
X126259Y865577D01*
X126439Y865623D01*
X126619Y865665D01*
X126800Y865702D01*
X126982Y865735D01*
X127164Y865764D01*
X127348Y865788D01*
X127532Y865808D01*
X127716Y865823D01*
X127900Y865834D01*
X128085Y865841D01*
X128270Y865843D01*
X124876Y865060D02*
X124796Y865030D01*
X124717Y864997D01*
X124640Y864960D01*
X124564Y864920D01*
X124490Y864877D01*
X124418Y864831D01*
X124349Y864781D01*
X124281Y864729D01*
X124216Y864673D01*
X124153Y864615D01*
X124094Y864553D01*
X124036Y864490D01*
X123982Y864423D01*
X123931Y864355D01*
X123883Y864284D01*
X123838Y864211D01*
X123796Y864137D01*
X123758Y864060D01*
X123723Y863982D01*
X123691Y863903D01*
X123663Y863822D01*
X123639Y863740D01*
X123618Y863656D01*
X123601Y863573D01*
X123588Y863488D01*
X123579Y863403D01*
X123573Y863318D01*
X123571Y863232D01*
X125659Y861144D02*
X130881Y865321D01*
X132970Y872637D02*
X132968Y872732D01*
X132962Y872826D01*
X132953Y872920D01*
X132940Y873014D01*
X132923Y873107D01*
X132902Y873199D01*
X132877Y873291D01*
X132849Y873381D01*
X132817Y873470D01*
X132782Y873558D01*
X132743Y873644D01*
X132701Y873729D01*
X132655Y873812D01*
X132606Y873893D01*
X132554Y873972D01*
X132499Y874049D01*
X132440Y874123D01*
X132379Y874195D01*
X132315Y874265D01*
X132248Y874332D01*
X132178Y874396D01*
X132106Y874457D01*
X132032Y874516D01*
X131955Y874571D01*
X131876Y874623D01*
X131795Y874672D01*
X131712Y874718D01*
X131627Y874760D01*
X131541Y874799D01*
X131453Y874834D01*
X131364Y874866D01*
X131274Y874894D01*
X131182Y874919D01*
X131090Y874940D01*
X130997Y874957D01*
X130903Y874970D01*
X130809Y874979D01*
X130715Y874985D01*
X130620Y874987D01*
X132969Y872637D02*
X132967Y872529D01*
X132961Y872420D01*
X132951Y872312D01*
X132938Y872205D01*
X132920Y872098D01*
X132899Y871991D01*
X132874Y871886D01*
X132845Y871781D01*
X132813Y871678D01*
X132776Y871576D01*
X132736Y871475D01*
X132693Y871376D01*
X132646Y871278D01*
X132595Y871182D01*
X132541Y871088D01*
X132484Y870996D01*
X132423Y870906D01*
X132359Y870818D01*
X132293Y870733D01*
X132223Y870650D01*
X132150Y870570D01*
X132074Y870492D01*
X131996Y870417D01*
X131915Y870345D01*
X131831Y870276D01*
X131745Y870210D01*
X131657Y870147D01*
X131566Y870088D01*
X131474Y870031D01*
X131379Y869978D01*
X131283Y869929D01*
X131184Y869883D01*
X131085Y869840D01*
X130983Y869801D01*
X130881Y869766D01*
X128792Y874204D02*
X128861Y874273D01*
X128932Y874339D01*
X129005Y874403D01*
X129081Y874464D01*
X129160Y874522D01*
X129240Y874576D01*
X129323Y874628D01*
X129407Y874676D01*
X129493Y874722D01*
X129581Y874763D01*
X129671Y874802D01*
X129762Y874837D01*
X129854Y874868D01*
X129947Y874896D01*
X130041Y874920D01*
X130136Y874940D01*
X130232Y874957D01*
X130329Y874970D01*
X130426Y874979D01*
X130523Y874985D01*
X130620Y874987D01*
X128792Y874204D02*
X123571Y869766D01*
X123571Y874987D01*
X88519Y715391D02*
X79121Y715391D01*
X88519Y715391D02*
X88519Y718002D01*
X88517Y718103D01*
X88511Y718204D01*
X88501Y718305D01*
X88488Y718405D01*
X88470Y718505D01*
X88449Y718604D01*
X88423Y718702D01*
X88394Y718799D01*
X88362Y718895D01*
X88325Y718989D01*
X88285Y719082D01*
X88241Y719174D01*
X88194Y719263D01*
X88143Y719351D01*
X88089Y719437D01*
X88032Y719520D01*
X87972Y719602D01*
X87908Y719680D01*
X87842Y719757D01*
X87772Y719830D01*
X87700Y719901D01*
X87625Y719969D01*
X87547Y720034D01*
X87467Y720096D01*
X87385Y720155D01*
X87300Y720211D01*
X87214Y720263D01*
X87125Y720312D01*
X87034Y720358D01*
X86942Y720399D01*
X86848Y720438D01*
X86753Y720472D01*
X86657Y720503D01*
X86559Y720530D01*
X86461Y720554D01*
X86361Y720573D01*
X86261Y720589D01*
X86161Y720601D01*
X86060Y720609D01*
X85959Y720613D01*
X85857Y720613D01*
X85756Y720609D01*
X85655Y720601D01*
X85555Y720589D01*
X85455Y720573D01*
X85355Y720554D01*
X85257Y720530D01*
X85159Y720503D01*
X85063Y720472D01*
X84968Y720438D01*
X84874Y720399D01*
X84782Y720358D01*
X84691Y720312D01*
X84603Y720263D01*
X84516Y720211D01*
X84431Y720155D01*
X84349Y720096D01*
X84269Y720034D01*
X84191Y719969D01*
X84116Y719901D01*
X84044Y719830D01*
X83974Y719757D01*
X83908Y719680D01*
X83844Y719602D01*
X83784Y719520D01*
X83727Y719437D01*
X83673Y719351D01*
X83622Y719263D01*
X83575Y719174D01*
X83531Y719082D01*
X83491Y718989D01*
X83454Y718895D01*
X83422Y718799D01*
X83393Y718702D01*
X83367Y718604D01*
X83346Y718505D01*
X83328Y718405D01*
X83315Y718305D01*
X83305Y718204D01*
X83299Y718103D01*
X83297Y718002D01*
X83298Y718002D02*
X83298Y715391D01*
X83298Y718524D02*
X79121Y720612D01*
X86431Y724478D02*
X88519Y727088D01*
X79121Y727088D01*
X79121Y724478D02*
X79121Y729699D01*
X83820Y733622D02*
X84005Y733624D01*
X84190Y733631D01*
X84374Y733642D01*
X84558Y733657D01*
X84742Y733677D01*
X84926Y733701D01*
X85108Y733730D01*
X85290Y733763D01*
X85471Y733800D01*
X85651Y733842D01*
X85831Y733888D01*
X86009Y733938D01*
X86185Y733992D01*
X86361Y734051D01*
X86535Y734113D01*
X86707Y734180D01*
X86878Y734251D01*
X87047Y734326D01*
X87214Y734405D01*
X87214Y734404D02*
X87294Y734434D01*
X87373Y734467D01*
X87450Y734504D01*
X87526Y734544D01*
X87600Y734587D01*
X87672Y734633D01*
X87741Y734683D01*
X87809Y734735D01*
X87874Y734791D01*
X87937Y734849D01*
X87996Y734911D01*
X88054Y734974D01*
X88108Y735041D01*
X88159Y735109D01*
X88207Y735180D01*
X88252Y735253D01*
X88294Y735327D01*
X88332Y735404D01*
X88367Y735482D01*
X88399Y735561D01*
X88427Y735642D01*
X88451Y735724D01*
X88472Y735808D01*
X88489Y735891D01*
X88502Y735976D01*
X88511Y736061D01*
X88517Y736146D01*
X88519Y736232D01*
X88517Y736318D01*
X88511Y736403D01*
X88502Y736488D01*
X88489Y736573D01*
X88472Y736656D01*
X88451Y736740D01*
X88427Y736822D01*
X88399Y736903D01*
X88367Y736982D01*
X88332Y737060D01*
X88294Y737137D01*
X88252Y737211D01*
X88207Y737284D01*
X88159Y737355D01*
X88108Y737423D01*
X88054Y737490D01*
X87996Y737553D01*
X87937Y737615D01*
X87874Y737673D01*
X87809Y737729D01*
X87741Y737781D01*
X87672Y737831D01*
X87600Y737877D01*
X87526Y737920D01*
X87450Y737960D01*
X87373Y737997D01*
X87294Y738030D01*
X87214Y738060D01*
X87047Y738139D01*
X86878Y738214D01*
X86707Y738285D01*
X86535Y738352D01*
X86361Y738414D01*
X86185Y738473D01*
X86009Y738527D01*
X85831Y738577D01*
X85651Y738623D01*
X85471Y738665D01*
X85290Y738702D01*
X85108Y738735D01*
X84926Y738764D01*
X84742Y738788D01*
X84558Y738808D01*
X84374Y738823D01*
X84190Y738834D01*
X84005Y738841D01*
X83820Y738843D01*
X83820Y733622D02*
X83635Y733624D01*
X83450Y733631D01*
X83266Y733642D01*
X83082Y733657D01*
X82898Y733677D01*
X82714Y733701D01*
X82532Y733730D01*
X82350Y733763D01*
X82169Y733800D01*
X81989Y733842D01*
X81809Y733888D01*
X81631Y733938D01*
X81455Y733992D01*
X81279Y734051D01*
X81105Y734113D01*
X80933Y734180D01*
X80762Y734251D01*
X80593Y734326D01*
X80426Y734405D01*
X80426Y734404D02*
X80346Y734434D01*
X80267Y734467D01*
X80190Y734504D01*
X80114Y734544D01*
X80040Y734587D01*
X79968Y734633D01*
X79899Y734683D01*
X79831Y734736D01*
X79766Y734791D01*
X79703Y734850D01*
X79644Y734911D01*
X79586Y734974D01*
X79532Y735041D01*
X79481Y735109D01*
X79433Y735180D01*
X79388Y735253D01*
X79346Y735327D01*
X79308Y735404D01*
X79273Y735482D01*
X79241Y735561D01*
X79213Y735642D01*
X79189Y735724D01*
X79168Y735808D01*
X79151Y735891D01*
X79138Y735976D01*
X79129Y736061D01*
X79123Y736146D01*
X79121Y736232D01*
X80426Y738060D02*
X80593Y738139D01*
X80762Y738214D01*
X80933Y738285D01*
X81105Y738352D01*
X81279Y738414D01*
X81455Y738473D01*
X81631Y738527D01*
X81809Y738577D01*
X81989Y738623D01*
X82169Y738665D01*
X82350Y738702D01*
X82532Y738735D01*
X82714Y738764D01*
X82898Y738788D01*
X83082Y738808D01*
X83266Y738823D01*
X83450Y738834D01*
X83635Y738841D01*
X83820Y738843D01*
X80426Y738060D02*
X80346Y738030D01*
X80267Y737997D01*
X80190Y737960D01*
X80114Y737920D01*
X80040Y737877D01*
X79968Y737831D01*
X79899Y737781D01*
X79831Y737729D01*
X79766Y737673D01*
X79703Y737615D01*
X79644Y737553D01*
X79586Y737490D01*
X79532Y737423D01*
X79481Y737355D01*
X79433Y737284D01*
X79388Y737211D01*
X79346Y737137D01*
X79308Y737060D01*
X79273Y736982D01*
X79241Y736903D01*
X79213Y736822D01*
X79189Y736740D01*
X79168Y736656D01*
X79151Y736573D01*
X79138Y736488D01*
X79129Y736403D01*
X79123Y736318D01*
X79121Y736232D01*
X81209Y734144D02*
X86431Y738321D01*
X86431Y742766D02*
X88519Y745376D01*
X79121Y745376D01*
X79121Y742766D02*
X79121Y747987D01*
X262509Y745871D02*
X262509Y755269D01*
X259898Y755269D01*
X259797Y755267D01*
X259696Y755261D01*
X259595Y755251D01*
X259495Y755238D01*
X259395Y755220D01*
X259296Y755199D01*
X259198Y755173D01*
X259101Y755144D01*
X259005Y755112D01*
X258911Y755075D01*
X258818Y755035D01*
X258726Y754991D01*
X258637Y754944D01*
X258549Y754893D01*
X258463Y754839D01*
X258380Y754782D01*
X258298Y754722D01*
X258220Y754658D01*
X258143Y754592D01*
X258070Y754522D01*
X257999Y754450D01*
X257931Y754375D01*
X257866Y754297D01*
X257804Y754217D01*
X257745Y754135D01*
X257689Y754050D01*
X257637Y753964D01*
X257588Y753875D01*
X257542Y753784D01*
X257501Y753692D01*
X257462Y753598D01*
X257428Y753503D01*
X257397Y753407D01*
X257370Y753309D01*
X257346Y753211D01*
X257327Y753111D01*
X257311Y753011D01*
X257299Y752911D01*
X257291Y752810D01*
X257287Y752709D01*
X257287Y752607D01*
X257291Y752506D01*
X257299Y752405D01*
X257311Y752305D01*
X257327Y752205D01*
X257346Y752105D01*
X257370Y752007D01*
X257397Y751909D01*
X257428Y751813D01*
X257462Y751718D01*
X257501Y751624D01*
X257542Y751532D01*
X257588Y751441D01*
X257637Y751353D01*
X257689Y751266D01*
X257745Y751181D01*
X257804Y751099D01*
X257866Y751019D01*
X257931Y750941D01*
X257999Y750866D01*
X258070Y750794D01*
X258143Y750724D01*
X258220Y750658D01*
X258298Y750594D01*
X258380Y750534D01*
X258463Y750477D01*
X258549Y750423D01*
X258637Y750372D01*
X258726Y750325D01*
X258818Y750281D01*
X258911Y750241D01*
X259005Y750204D01*
X259101Y750172D01*
X259198Y750143D01*
X259296Y750117D01*
X259395Y750096D01*
X259495Y750078D01*
X259595Y750065D01*
X259696Y750055D01*
X259797Y750049D01*
X259898Y750047D01*
X259898Y750048D02*
X262509Y750048D01*
X259376Y750048D02*
X257288Y745871D01*
X253422Y753181D02*
X250812Y755269D01*
X250812Y745871D01*
X253422Y745871D02*
X248201Y745871D01*
X244278Y750570D02*
X244276Y750755D01*
X244269Y750940D01*
X244258Y751124D01*
X244243Y751308D01*
X244223Y751492D01*
X244199Y751676D01*
X244170Y751858D01*
X244137Y752040D01*
X244100Y752221D01*
X244058Y752401D01*
X244012Y752581D01*
X243962Y752759D01*
X243908Y752935D01*
X243849Y753111D01*
X243787Y753285D01*
X243720Y753457D01*
X243649Y753628D01*
X243574Y753797D01*
X243495Y753964D01*
X243496Y753964D02*
X243466Y754044D01*
X243433Y754123D01*
X243396Y754200D01*
X243356Y754276D01*
X243313Y754350D01*
X243267Y754422D01*
X243217Y754491D01*
X243165Y754559D01*
X243109Y754624D01*
X243051Y754687D01*
X242989Y754746D01*
X242926Y754804D01*
X242859Y754858D01*
X242791Y754909D01*
X242720Y754957D01*
X242647Y755002D01*
X242573Y755044D01*
X242496Y755082D01*
X242418Y755117D01*
X242339Y755149D01*
X242258Y755177D01*
X242176Y755201D01*
X242092Y755222D01*
X242009Y755239D01*
X241924Y755252D01*
X241839Y755261D01*
X241754Y755267D01*
X241668Y755269D01*
X241582Y755267D01*
X241497Y755261D01*
X241412Y755252D01*
X241327Y755239D01*
X241244Y755222D01*
X241160Y755201D01*
X241078Y755177D01*
X240998Y755149D01*
X240918Y755117D01*
X240840Y755082D01*
X240763Y755044D01*
X240689Y755002D01*
X240616Y754957D01*
X240545Y754909D01*
X240477Y754858D01*
X240410Y754804D01*
X240347Y754746D01*
X240286Y754687D01*
X240227Y754624D01*
X240172Y754559D01*
X240119Y754491D01*
X240069Y754422D01*
X240023Y754350D01*
X239980Y754276D01*
X239940Y754200D01*
X239903Y754123D01*
X239870Y754044D01*
X239840Y753964D01*
X239761Y753797D01*
X239686Y753628D01*
X239615Y753457D01*
X239548Y753285D01*
X239486Y753111D01*
X239427Y752935D01*
X239373Y752759D01*
X239323Y752581D01*
X239277Y752401D01*
X239235Y752221D01*
X239198Y752040D01*
X239165Y751858D01*
X239136Y751676D01*
X239112Y751492D01*
X239092Y751308D01*
X239077Y751124D01*
X239066Y750940D01*
X239059Y750755D01*
X239057Y750570D01*
X244278Y750570D02*
X244276Y750385D01*
X244269Y750200D01*
X244258Y750016D01*
X244243Y749832D01*
X244223Y749648D01*
X244199Y749464D01*
X244170Y749282D01*
X244137Y749100D01*
X244100Y748919D01*
X244058Y748739D01*
X244012Y748559D01*
X243962Y748381D01*
X243908Y748205D01*
X243849Y748029D01*
X243787Y747855D01*
X243720Y747683D01*
X243649Y747512D01*
X243574Y747343D01*
X243495Y747176D01*
X243496Y747176D02*
X243466Y747096D01*
X243433Y747017D01*
X243396Y746940D01*
X243356Y746864D01*
X243313Y746790D01*
X243267Y746718D01*
X243217Y746649D01*
X243164Y746581D01*
X243109Y746516D01*
X243050Y746453D01*
X242989Y746394D01*
X242926Y746336D01*
X242859Y746282D01*
X242791Y746231D01*
X242720Y746183D01*
X242647Y746138D01*
X242573Y746096D01*
X242496Y746058D01*
X242418Y746023D01*
X242339Y745991D01*
X242258Y745963D01*
X242176Y745939D01*
X242092Y745918D01*
X242009Y745901D01*
X241924Y745888D01*
X241839Y745879D01*
X241754Y745873D01*
X241668Y745871D01*
X239840Y747176D02*
X239761Y747343D01*
X239686Y747512D01*
X239615Y747683D01*
X239548Y747855D01*
X239486Y748029D01*
X239427Y748205D01*
X239373Y748381D01*
X239323Y748559D01*
X239277Y748739D01*
X239235Y748919D01*
X239198Y749100D01*
X239165Y749282D01*
X239136Y749464D01*
X239112Y749648D01*
X239092Y749832D01*
X239077Y750016D01*
X239066Y750200D01*
X239059Y750385D01*
X239057Y750570D01*
X239840Y747176D02*
X239870Y747096D01*
X239903Y747017D01*
X239940Y746940D01*
X239980Y746864D01*
X240023Y746790D01*
X240069Y746718D01*
X240119Y746649D01*
X240172Y746581D01*
X240227Y746516D01*
X240286Y746453D01*
X240347Y746394D01*
X240410Y746336D01*
X240477Y746282D01*
X240545Y746231D01*
X240616Y746183D01*
X240689Y746138D01*
X240763Y746096D01*
X240840Y746058D01*
X240918Y746023D01*
X240998Y745991D01*
X241078Y745963D01*
X241160Y745939D01*
X241244Y745918D01*
X241327Y745901D01*
X241412Y745888D01*
X241497Y745879D01*
X241582Y745873D01*
X241668Y745871D01*
X243756Y747959D02*
X239579Y753181D01*
X233046Y750048D02*
X229913Y750048D01*
X233046Y750048D02*
X233135Y750050D01*
X233223Y750056D01*
X233311Y750065D01*
X233399Y750078D01*
X233486Y750095D01*
X233572Y750115D01*
X233657Y750140D01*
X233742Y750167D01*
X233825Y750199D01*
X233906Y750233D01*
X233986Y750272D01*
X234064Y750313D01*
X234141Y750358D01*
X234215Y750406D01*
X234288Y750457D01*
X234358Y750511D01*
X234425Y750569D01*
X234491Y750629D01*
X234553Y750691D01*
X234613Y750757D01*
X234671Y750824D01*
X234725Y750894D01*
X234776Y750967D01*
X234824Y751041D01*
X234869Y751118D01*
X234910Y751196D01*
X234949Y751276D01*
X234983Y751357D01*
X235015Y751440D01*
X235042Y751525D01*
X235067Y751610D01*
X235087Y751696D01*
X235104Y751783D01*
X235117Y751871D01*
X235126Y751959D01*
X235132Y752047D01*
X235134Y752136D01*
X235134Y752658D01*
X235135Y752658D02*
X235133Y752759D01*
X235127Y752860D01*
X235117Y752961D01*
X235104Y753061D01*
X235086Y753161D01*
X235065Y753260D01*
X235039Y753358D01*
X235010Y753455D01*
X234978Y753551D01*
X234941Y753645D01*
X234901Y753738D01*
X234857Y753830D01*
X234810Y753919D01*
X234759Y754007D01*
X234705Y754093D01*
X234648Y754176D01*
X234588Y754258D01*
X234524Y754336D01*
X234458Y754413D01*
X234388Y754486D01*
X234316Y754557D01*
X234241Y754625D01*
X234163Y754690D01*
X234083Y754752D01*
X234001Y754811D01*
X233916Y754867D01*
X233830Y754919D01*
X233741Y754968D01*
X233650Y755014D01*
X233558Y755055D01*
X233464Y755094D01*
X233369Y755128D01*
X233273Y755159D01*
X233175Y755186D01*
X233077Y755210D01*
X232977Y755229D01*
X232877Y755245D01*
X232777Y755257D01*
X232676Y755265D01*
X232575Y755269D01*
X232473Y755269D01*
X232372Y755265D01*
X232271Y755257D01*
X232171Y755245D01*
X232071Y755229D01*
X231971Y755210D01*
X231873Y755186D01*
X231775Y755159D01*
X231679Y755128D01*
X231584Y755094D01*
X231490Y755055D01*
X231398Y755014D01*
X231307Y754968D01*
X231219Y754919D01*
X231132Y754867D01*
X231047Y754811D01*
X230965Y754752D01*
X230885Y754690D01*
X230807Y754625D01*
X230732Y754557D01*
X230660Y754486D01*
X230590Y754413D01*
X230524Y754336D01*
X230460Y754258D01*
X230400Y754176D01*
X230343Y754093D01*
X230289Y754007D01*
X230238Y753919D01*
X230191Y753830D01*
X230147Y753738D01*
X230107Y753645D01*
X230070Y753551D01*
X230038Y753455D01*
X230009Y753358D01*
X229983Y753260D01*
X229962Y753161D01*
X229944Y753061D01*
X229931Y752961D01*
X229921Y752860D01*
X229915Y752759D01*
X229913Y752658D01*
X229913Y750048D01*
X229915Y749922D01*
X229921Y749796D01*
X229930Y749670D01*
X229943Y749545D01*
X229961Y749420D01*
X229981Y749295D01*
X230006Y749171D01*
X230034Y749048D01*
X230066Y748926D01*
X230102Y748805D01*
X230141Y748685D01*
X230184Y748567D01*
X230231Y748450D01*
X230281Y748334D01*
X230335Y748219D01*
X230391Y748107D01*
X230452Y747996D01*
X230515Y747887D01*
X230582Y747780D01*
X230652Y747675D01*
X230726Y747572D01*
X230802Y747472D01*
X230881Y747374D01*
X230963Y747278D01*
X231049Y747185D01*
X231136Y747094D01*
X231227Y747007D01*
X231320Y746921D01*
X231416Y746839D01*
X231514Y746760D01*
X231614Y746684D01*
X231717Y746610D01*
X231822Y746540D01*
X231929Y746473D01*
X232038Y746410D01*
X232149Y746349D01*
X232261Y746293D01*
X232376Y746239D01*
X232492Y746189D01*
X232609Y746142D01*
X232727Y746099D01*
X232847Y746060D01*
X232968Y746024D01*
X233090Y745992D01*
X233213Y745964D01*
X233337Y745939D01*
X233462Y745919D01*
X233587Y745901D01*
X233712Y745888D01*
X233838Y745879D01*
X233964Y745873D01*
X234090Y745871D01*
X150749Y382651D02*
X141351Y382651D01*
X150749Y382651D02*
X150749Y385262D01*
X150747Y385363D01*
X150741Y385464D01*
X150731Y385565D01*
X150718Y385665D01*
X150700Y385765D01*
X150679Y385864D01*
X150653Y385962D01*
X150624Y386059D01*
X150592Y386155D01*
X150555Y386249D01*
X150515Y386342D01*
X150471Y386434D01*
X150424Y386523D01*
X150373Y386611D01*
X150319Y386697D01*
X150262Y386780D01*
X150202Y386862D01*
X150138Y386940D01*
X150072Y387017D01*
X150002Y387090D01*
X149930Y387161D01*
X149855Y387229D01*
X149777Y387294D01*
X149697Y387356D01*
X149615Y387415D01*
X149530Y387471D01*
X149444Y387523D01*
X149355Y387572D01*
X149264Y387618D01*
X149172Y387659D01*
X149078Y387698D01*
X148983Y387732D01*
X148887Y387763D01*
X148789Y387790D01*
X148691Y387814D01*
X148591Y387833D01*
X148491Y387849D01*
X148391Y387861D01*
X148290Y387869D01*
X148189Y387873D01*
X148087Y387873D01*
X147986Y387869D01*
X147885Y387861D01*
X147785Y387849D01*
X147685Y387833D01*
X147585Y387814D01*
X147487Y387790D01*
X147389Y387763D01*
X147293Y387732D01*
X147198Y387698D01*
X147104Y387659D01*
X147012Y387618D01*
X146921Y387572D01*
X146833Y387523D01*
X146746Y387471D01*
X146661Y387415D01*
X146579Y387356D01*
X146499Y387294D01*
X146421Y387229D01*
X146346Y387161D01*
X146274Y387090D01*
X146204Y387017D01*
X146138Y386940D01*
X146074Y386862D01*
X146014Y386780D01*
X145957Y386697D01*
X145903Y386611D01*
X145852Y386523D01*
X145805Y386434D01*
X145761Y386342D01*
X145721Y386249D01*
X145684Y386155D01*
X145652Y386059D01*
X145623Y385962D01*
X145597Y385864D01*
X145576Y385765D01*
X145558Y385665D01*
X145545Y385565D01*
X145535Y385464D01*
X145529Y385363D01*
X145527Y385262D01*
X145528Y385262D02*
X145528Y382651D01*
X145528Y385784D02*
X141351Y387872D01*
X148661Y391738D02*
X150749Y394348D01*
X141351Y394348D01*
X141351Y391738D02*
X141351Y396959D01*
X148661Y400882D02*
X150749Y403492D01*
X141351Y403492D01*
X141351Y400882D02*
X141351Y406103D01*
X146050Y410026D02*
X146235Y410028D01*
X146420Y410035D01*
X146604Y410046D01*
X146788Y410061D01*
X146972Y410081D01*
X147156Y410105D01*
X147338Y410134D01*
X147520Y410167D01*
X147701Y410204D01*
X147881Y410246D01*
X148061Y410292D01*
X148239Y410342D01*
X148415Y410396D01*
X148591Y410455D01*
X148765Y410517D01*
X148937Y410584D01*
X149108Y410655D01*
X149277Y410730D01*
X149444Y410809D01*
X149444Y410808D02*
X149524Y410838D01*
X149603Y410871D01*
X149680Y410908D01*
X149756Y410948D01*
X149830Y410991D01*
X149902Y411037D01*
X149971Y411087D01*
X150039Y411139D01*
X150104Y411195D01*
X150167Y411253D01*
X150226Y411315D01*
X150284Y411378D01*
X150338Y411445D01*
X150389Y411513D01*
X150437Y411584D01*
X150482Y411657D01*
X150524Y411731D01*
X150562Y411808D01*
X150597Y411886D01*
X150629Y411965D01*
X150657Y412046D01*
X150681Y412128D01*
X150702Y412212D01*
X150719Y412295D01*
X150732Y412380D01*
X150741Y412465D01*
X150747Y412550D01*
X150749Y412636D01*
X150747Y412722D01*
X150741Y412807D01*
X150732Y412892D01*
X150719Y412977D01*
X150702Y413060D01*
X150681Y413144D01*
X150657Y413226D01*
X150629Y413307D01*
X150597Y413386D01*
X150562Y413464D01*
X150524Y413541D01*
X150482Y413615D01*
X150437Y413688D01*
X150389Y413759D01*
X150338Y413827D01*
X150284Y413894D01*
X150226Y413957D01*
X150167Y414019D01*
X150104Y414077D01*
X150039Y414133D01*
X149971Y414185D01*
X149902Y414235D01*
X149830Y414281D01*
X149756Y414324D01*
X149680Y414364D01*
X149603Y414401D01*
X149524Y414434D01*
X149444Y414464D01*
X149277Y414543D01*
X149108Y414618D01*
X148937Y414689D01*
X148765Y414756D01*
X148591Y414818D01*
X148415Y414877D01*
X148239Y414931D01*
X148061Y414981D01*
X147881Y415027D01*
X147701Y415069D01*
X147520Y415106D01*
X147338Y415139D01*
X147156Y415168D01*
X146972Y415192D01*
X146788Y415212D01*
X146604Y415227D01*
X146420Y415238D01*
X146235Y415245D01*
X146050Y415247D01*
X146050Y410026D02*
X145865Y410028D01*
X145680Y410035D01*
X145496Y410046D01*
X145312Y410061D01*
X145128Y410081D01*
X144944Y410105D01*
X144762Y410134D01*
X144580Y410167D01*
X144399Y410204D01*
X144219Y410246D01*
X144039Y410292D01*
X143861Y410342D01*
X143685Y410396D01*
X143509Y410455D01*
X143335Y410517D01*
X143163Y410584D01*
X142992Y410655D01*
X142823Y410730D01*
X142656Y410809D01*
X142656Y410808D02*
X142576Y410838D01*
X142497Y410871D01*
X142420Y410908D01*
X142344Y410948D01*
X142270Y410991D01*
X142198Y411037D01*
X142129Y411087D01*
X142061Y411140D01*
X141996Y411195D01*
X141933Y411254D01*
X141874Y411315D01*
X141816Y411378D01*
X141762Y411445D01*
X141711Y411513D01*
X141663Y411584D01*
X141618Y411657D01*
X141576Y411731D01*
X141538Y411808D01*
X141503Y411886D01*
X141471Y411965D01*
X141443Y412046D01*
X141419Y412128D01*
X141398Y412212D01*
X141381Y412295D01*
X141368Y412380D01*
X141359Y412465D01*
X141353Y412550D01*
X141351Y412636D01*
X142656Y414464D02*
X142823Y414543D01*
X142992Y414618D01*
X143163Y414689D01*
X143335Y414756D01*
X143509Y414818D01*
X143685Y414877D01*
X143861Y414931D01*
X144039Y414981D01*
X144219Y415027D01*
X144399Y415069D01*
X144580Y415106D01*
X144762Y415139D01*
X144944Y415168D01*
X145128Y415192D01*
X145312Y415212D01*
X145496Y415227D01*
X145680Y415238D01*
X145865Y415245D01*
X146050Y415247D01*
X142656Y414464D02*
X142576Y414434D01*
X142497Y414401D01*
X142420Y414364D01*
X142344Y414324D01*
X142270Y414281D01*
X142198Y414235D01*
X142129Y414185D01*
X142061Y414133D01*
X141996Y414077D01*
X141933Y414019D01*
X141874Y413957D01*
X141816Y413894D01*
X141762Y413827D01*
X141711Y413759D01*
X141663Y413688D01*
X141618Y413615D01*
X141576Y413541D01*
X141538Y413464D01*
X141503Y413386D01*
X141471Y413307D01*
X141443Y413226D01*
X141419Y413144D01*
X141398Y413060D01*
X141381Y412977D01*
X141368Y412892D01*
X141359Y412807D01*
X141353Y412722D01*
X141351Y412636D01*
X143439Y410548D02*
X148661Y414725D01*
X270467Y682371D02*
X270467Y691769D01*
X267856Y691769D01*
X267755Y691767D01*
X267654Y691761D01*
X267553Y691751D01*
X267453Y691738D01*
X267353Y691720D01*
X267254Y691699D01*
X267156Y691673D01*
X267059Y691644D01*
X266963Y691612D01*
X266869Y691575D01*
X266776Y691535D01*
X266684Y691491D01*
X266595Y691444D01*
X266507Y691393D01*
X266421Y691339D01*
X266338Y691282D01*
X266256Y691222D01*
X266178Y691158D01*
X266101Y691092D01*
X266028Y691022D01*
X265957Y690950D01*
X265889Y690875D01*
X265824Y690797D01*
X265762Y690717D01*
X265703Y690635D01*
X265647Y690550D01*
X265595Y690464D01*
X265546Y690375D01*
X265500Y690284D01*
X265459Y690192D01*
X265420Y690098D01*
X265386Y690003D01*
X265355Y689907D01*
X265328Y689809D01*
X265304Y689711D01*
X265285Y689611D01*
X265269Y689511D01*
X265257Y689411D01*
X265249Y689310D01*
X265245Y689209D01*
X265245Y689107D01*
X265249Y689006D01*
X265257Y688905D01*
X265269Y688805D01*
X265285Y688705D01*
X265304Y688605D01*
X265328Y688507D01*
X265355Y688409D01*
X265386Y688313D01*
X265420Y688218D01*
X265459Y688124D01*
X265500Y688032D01*
X265546Y687941D01*
X265595Y687853D01*
X265647Y687766D01*
X265703Y687681D01*
X265762Y687599D01*
X265824Y687519D01*
X265889Y687441D01*
X265957Y687366D01*
X266028Y687294D01*
X266101Y687224D01*
X266178Y687158D01*
X266256Y687094D01*
X266338Y687034D01*
X266421Y686977D01*
X266507Y686923D01*
X266595Y686872D01*
X266684Y686825D01*
X266776Y686781D01*
X266869Y686741D01*
X266963Y686704D01*
X267059Y686672D01*
X267156Y686643D01*
X267254Y686617D01*
X267353Y686596D01*
X267453Y686578D01*
X267553Y686565D01*
X267654Y686555D01*
X267755Y686549D01*
X267856Y686547D01*
X267856Y686548D02*
X270467Y686548D01*
X267334Y686548D02*
X265246Y682371D01*
X261380Y689681D02*
X258770Y691769D01*
X258770Y682371D01*
X261380Y682371D02*
X256159Y682371D01*
X252236Y689681D02*
X249626Y691769D01*
X249626Y682371D01*
X252236Y682371D02*
X247015Y682371D01*
X243092Y689681D02*
X240482Y691769D01*
X240482Y682371D01*
X243092Y682371D02*
X237871Y682371D01*
X239987Y671449D02*
X239987Y662051D01*
X239987Y671449D02*
X237376Y671449D01*
X237275Y671447D01*
X237174Y671441D01*
X237073Y671431D01*
X236973Y671418D01*
X236873Y671400D01*
X236774Y671379D01*
X236676Y671353D01*
X236579Y671324D01*
X236483Y671292D01*
X236389Y671255D01*
X236296Y671215D01*
X236204Y671171D01*
X236115Y671124D01*
X236027Y671073D01*
X235941Y671019D01*
X235858Y670962D01*
X235776Y670902D01*
X235698Y670838D01*
X235621Y670772D01*
X235548Y670702D01*
X235477Y670630D01*
X235409Y670555D01*
X235344Y670477D01*
X235282Y670397D01*
X235223Y670315D01*
X235167Y670230D01*
X235115Y670144D01*
X235066Y670055D01*
X235020Y669964D01*
X234979Y669872D01*
X234940Y669778D01*
X234906Y669683D01*
X234875Y669587D01*
X234848Y669489D01*
X234824Y669391D01*
X234805Y669291D01*
X234789Y669191D01*
X234777Y669091D01*
X234769Y668990D01*
X234765Y668889D01*
X234765Y668787D01*
X234769Y668686D01*
X234777Y668585D01*
X234789Y668485D01*
X234805Y668385D01*
X234824Y668285D01*
X234848Y668187D01*
X234875Y668089D01*
X234906Y667993D01*
X234940Y667898D01*
X234979Y667804D01*
X235020Y667712D01*
X235066Y667621D01*
X235115Y667533D01*
X235167Y667446D01*
X235223Y667361D01*
X235282Y667279D01*
X235344Y667199D01*
X235409Y667121D01*
X235477Y667046D01*
X235548Y666974D01*
X235621Y666904D01*
X235698Y666838D01*
X235776Y666774D01*
X235858Y666714D01*
X235941Y666657D01*
X236027Y666603D01*
X236115Y666552D01*
X236204Y666505D01*
X236296Y666461D01*
X236389Y666421D01*
X236483Y666384D01*
X236579Y666352D01*
X236676Y666323D01*
X236774Y666297D01*
X236873Y666276D01*
X236973Y666258D01*
X237073Y666245D01*
X237174Y666235D01*
X237275Y666229D01*
X237376Y666227D01*
X237376Y666228D02*
X239987Y666228D01*
X236854Y666228D02*
X234766Y662051D01*
X230900Y669361D02*
X228290Y671449D01*
X228290Y662051D01*
X230900Y662051D02*
X225679Y662051D01*
X221756Y669361D02*
X219146Y671449D01*
X219146Y662051D01*
X221756Y662051D02*
X216535Y662051D01*
X207391Y669100D02*
X207393Y669195D01*
X207399Y669289D01*
X207408Y669383D01*
X207421Y669477D01*
X207438Y669570D01*
X207459Y669662D01*
X207484Y669754D01*
X207512Y669844D01*
X207544Y669933D01*
X207579Y670021D01*
X207618Y670107D01*
X207660Y670192D01*
X207706Y670275D01*
X207755Y670356D01*
X207807Y670435D01*
X207862Y670512D01*
X207921Y670586D01*
X207982Y670658D01*
X208046Y670728D01*
X208113Y670795D01*
X208183Y670859D01*
X208255Y670920D01*
X208329Y670979D01*
X208406Y671034D01*
X208485Y671086D01*
X208566Y671135D01*
X208649Y671181D01*
X208734Y671223D01*
X208820Y671262D01*
X208908Y671297D01*
X208997Y671329D01*
X209087Y671357D01*
X209179Y671382D01*
X209271Y671403D01*
X209364Y671420D01*
X209458Y671433D01*
X209552Y671442D01*
X209646Y671448D01*
X209741Y671450D01*
X209741Y671449D02*
X209849Y671447D01*
X209958Y671441D01*
X210066Y671431D01*
X210173Y671418D01*
X210280Y671400D01*
X210387Y671379D01*
X210492Y671354D01*
X210597Y671325D01*
X210700Y671293D01*
X210802Y671256D01*
X210903Y671216D01*
X211002Y671173D01*
X211100Y671126D01*
X211196Y671075D01*
X211290Y671021D01*
X211382Y670964D01*
X211472Y670903D01*
X211560Y670839D01*
X211645Y670773D01*
X211728Y670703D01*
X211808Y670630D01*
X211886Y670554D01*
X211961Y670476D01*
X212033Y670395D01*
X212102Y670311D01*
X212168Y670225D01*
X212231Y670137D01*
X212290Y670046D01*
X212347Y669954D01*
X212400Y669859D01*
X212449Y669762D01*
X212495Y669664D01*
X212538Y669565D01*
X212577Y669463D01*
X212612Y669361D01*
X208174Y667272D02*
X208105Y667341D01*
X208039Y667412D01*
X207975Y667485D01*
X207914Y667561D01*
X207856Y667640D01*
X207802Y667720D01*
X207750Y667803D01*
X207702Y667887D01*
X207656Y667973D01*
X207615Y668061D01*
X207576Y668151D01*
X207541Y668242D01*
X207510Y668334D01*
X207482Y668427D01*
X207458Y668521D01*
X207438Y668616D01*
X207421Y668712D01*
X207408Y668809D01*
X207399Y668906D01*
X207393Y669003D01*
X207391Y669100D01*
X208174Y667272D02*
X212612Y662051D01*
X207391Y662051D01*
X267927Y613029D02*
X267927Y603631D01*
X267927Y613029D02*
X265316Y613029D01*
X265215Y613027D01*
X265114Y613021D01*
X265013Y613011D01*
X264913Y612998D01*
X264813Y612980D01*
X264714Y612959D01*
X264616Y612933D01*
X264519Y612904D01*
X264423Y612872D01*
X264329Y612835D01*
X264236Y612795D01*
X264144Y612751D01*
X264055Y612704D01*
X263967Y612653D01*
X263881Y612599D01*
X263798Y612542D01*
X263716Y612482D01*
X263638Y612418D01*
X263561Y612352D01*
X263488Y612282D01*
X263417Y612210D01*
X263349Y612135D01*
X263284Y612057D01*
X263222Y611977D01*
X263163Y611895D01*
X263107Y611810D01*
X263055Y611724D01*
X263006Y611635D01*
X262960Y611544D01*
X262919Y611452D01*
X262880Y611358D01*
X262846Y611263D01*
X262815Y611167D01*
X262788Y611069D01*
X262764Y610971D01*
X262745Y610871D01*
X262729Y610771D01*
X262717Y610671D01*
X262709Y610570D01*
X262705Y610469D01*
X262705Y610367D01*
X262709Y610266D01*
X262717Y610165D01*
X262729Y610065D01*
X262745Y609965D01*
X262764Y609865D01*
X262788Y609767D01*
X262815Y609669D01*
X262846Y609573D01*
X262880Y609478D01*
X262919Y609384D01*
X262960Y609292D01*
X263006Y609201D01*
X263055Y609113D01*
X263107Y609026D01*
X263163Y608941D01*
X263222Y608859D01*
X263284Y608779D01*
X263349Y608701D01*
X263417Y608626D01*
X263488Y608554D01*
X263561Y608484D01*
X263638Y608418D01*
X263716Y608354D01*
X263798Y608294D01*
X263881Y608237D01*
X263967Y608183D01*
X264055Y608132D01*
X264144Y608085D01*
X264236Y608041D01*
X264329Y608001D01*
X264423Y607964D01*
X264519Y607932D01*
X264616Y607903D01*
X264714Y607877D01*
X264813Y607856D01*
X264913Y607838D01*
X265013Y607825D01*
X265114Y607815D01*
X265215Y607809D01*
X265316Y607807D01*
X265316Y607808D02*
X267927Y607808D01*
X264794Y607808D02*
X262706Y603631D01*
X258840Y610941D02*
X256230Y613029D01*
X256230Y603631D01*
X258840Y603631D02*
X253619Y603631D01*
X249696Y610941D02*
X247086Y613029D01*
X247086Y603631D01*
X249696Y603631D02*
X244475Y603631D01*
X240552Y603631D02*
X237942Y603631D01*
X237841Y603633D01*
X237740Y603639D01*
X237639Y603649D01*
X237539Y603662D01*
X237439Y603680D01*
X237340Y603701D01*
X237242Y603727D01*
X237145Y603756D01*
X237049Y603788D01*
X236955Y603825D01*
X236862Y603865D01*
X236770Y603909D01*
X236681Y603956D01*
X236593Y604007D01*
X236507Y604061D01*
X236424Y604118D01*
X236342Y604178D01*
X236264Y604242D01*
X236187Y604308D01*
X236114Y604378D01*
X236043Y604450D01*
X235975Y604525D01*
X235910Y604603D01*
X235848Y604683D01*
X235789Y604765D01*
X235733Y604850D01*
X235681Y604937D01*
X235632Y605025D01*
X235586Y605116D01*
X235545Y605208D01*
X235506Y605302D01*
X235472Y605397D01*
X235441Y605493D01*
X235414Y605591D01*
X235390Y605689D01*
X235371Y605789D01*
X235355Y605889D01*
X235343Y605989D01*
X235335Y606090D01*
X235331Y606191D01*
X235331Y606293D01*
X235335Y606394D01*
X235343Y606495D01*
X235355Y606595D01*
X235371Y606695D01*
X235390Y606795D01*
X235414Y606893D01*
X235441Y606991D01*
X235472Y607087D01*
X235506Y607182D01*
X235545Y607276D01*
X235586Y607368D01*
X235632Y607459D01*
X235681Y607548D01*
X235733Y607634D01*
X235789Y607719D01*
X235848Y607801D01*
X235910Y607881D01*
X235975Y607959D01*
X236043Y608034D01*
X236114Y608106D01*
X236187Y608176D01*
X236264Y608242D01*
X236342Y608306D01*
X236424Y608366D01*
X236507Y608423D01*
X236593Y608477D01*
X236681Y608528D01*
X236770Y608575D01*
X236862Y608619D01*
X236955Y608659D01*
X237049Y608696D01*
X237145Y608728D01*
X237242Y608757D01*
X237340Y608783D01*
X237439Y608804D01*
X237539Y608822D01*
X237639Y608835D01*
X237740Y608845D01*
X237841Y608851D01*
X237942Y608853D01*
X237419Y613029D02*
X240552Y613029D01*
X237419Y613029D02*
X237329Y613027D01*
X237240Y613021D01*
X237150Y613012D01*
X237061Y612998D01*
X236973Y612981D01*
X236886Y612960D01*
X236799Y612935D01*
X236714Y612906D01*
X236630Y612874D01*
X236548Y612839D01*
X236467Y612799D01*
X236388Y612757D01*
X236311Y612711D01*
X236236Y612661D01*
X236163Y612609D01*
X236092Y612553D01*
X236024Y612495D01*
X235959Y612433D01*
X235896Y612369D01*
X235836Y612302D01*
X235779Y612233D01*
X235725Y612161D01*
X235674Y612087D01*
X235626Y612011D01*
X235582Y611933D01*
X235541Y611853D01*
X235503Y611771D01*
X235469Y611688D01*
X235439Y611603D01*
X235412Y611517D01*
X235389Y611431D01*
X235370Y611343D01*
X235355Y611254D01*
X235343Y611165D01*
X235335Y611076D01*
X235331Y610986D01*
X235331Y610896D01*
X235335Y610806D01*
X235343Y610717D01*
X235355Y610628D01*
X235370Y610539D01*
X235389Y610451D01*
X235412Y610365D01*
X235439Y610279D01*
X235469Y610194D01*
X235503Y610111D01*
X235541Y610029D01*
X235582Y609949D01*
X235626Y609871D01*
X235674Y609795D01*
X235725Y609721D01*
X235779Y609649D01*
X235836Y609580D01*
X235896Y609513D01*
X235959Y609449D01*
X236024Y609387D01*
X236092Y609329D01*
X236163Y609273D01*
X236236Y609221D01*
X236311Y609171D01*
X236388Y609125D01*
X236467Y609083D01*
X236548Y609043D01*
X236630Y609008D01*
X236714Y608976D01*
X236799Y608947D01*
X236886Y608922D01*
X236973Y608901D01*
X237061Y608884D01*
X237150Y608870D01*
X237240Y608861D01*
X237329Y608855D01*
X237419Y608853D01*
X237419Y608852D02*
X239508Y608852D01*
X270467Y631571D02*
X270467Y640969D01*
X267856Y640969D01*
X267755Y640967D01*
X267654Y640961D01*
X267553Y640951D01*
X267453Y640938D01*
X267353Y640920D01*
X267254Y640899D01*
X267156Y640873D01*
X267059Y640844D01*
X266963Y640812D01*
X266869Y640775D01*
X266776Y640735D01*
X266684Y640691D01*
X266595Y640644D01*
X266507Y640593D01*
X266421Y640539D01*
X266338Y640482D01*
X266256Y640422D01*
X266178Y640358D01*
X266101Y640292D01*
X266028Y640222D01*
X265957Y640150D01*
X265889Y640075D01*
X265824Y639997D01*
X265762Y639917D01*
X265703Y639835D01*
X265647Y639750D01*
X265595Y639664D01*
X265546Y639575D01*
X265500Y639484D01*
X265459Y639392D01*
X265420Y639298D01*
X265386Y639203D01*
X265355Y639107D01*
X265328Y639009D01*
X265304Y638911D01*
X265285Y638811D01*
X265269Y638711D01*
X265257Y638611D01*
X265249Y638510D01*
X265245Y638409D01*
X265245Y638307D01*
X265249Y638206D01*
X265257Y638105D01*
X265269Y638005D01*
X265285Y637905D01*
X265304Y637805D01*
X265328Y637707D01*
X265355Y637609D01*
X265386Y637513D01*
X265420Y637418D01*
X265459Y637324D01*
X265500Y637232D01*
X265546Y637141D01*
X265595Y637053D01*
X265647Y636966D01*
X265703Y636881D01*
X265762Y636799D01*
X265824Y636719D01*
X265889Y636641D01*
X265957Y636566D01*
X266028Y636494D01*
X266101Y636424D01*
X266178Y636358D01*
X266256Y636294D01*
X266338Y636234D01*
X266421Y636177D01*
X266507Y636123D01*
X266595Y636072D01*
X266684Y636025D01*
X266776Y635981D01*
X266869Y635941D01*
X266963Y635904D01*
X267059Y635872D01*
X267156Y635843D01*
X267254Y635817D01*
X267353Y635796D01*
X267453Y635778D01*
X267553Y635765D01*
X267654Y635755D01*
X267755Y635749D01*
X267856Y635747D01*
X267856Y635748D02*
X270467Y635748D01*
X267334Y635748D02*
X265246Y631571D01*
X261380Y638881D02*
X258770Y640969D01*
X258770Y631571D01*
X261380Y631571D02*
X256159Y631571D01*
X252236Y638881D02*
X249626Y640969D01*
X249626Y631571D01*
X252236Y631571D02*
X247015Y631571D01*
X243092Y633659D02*
X241004Y640969D01*
X243092Y633659D02*
X237871Y633659D01*
X239437Y635748D02*
X239437Y631571D01*
X206629Y382313D02*
X197231Y382313D01*
X206629Y382313D02*
X206629Y384924D01*
X206627Y385025D01*
X206621Y385126D01*
X206611Y385227D01*
X206598Y385327D01*
X206580Y385427D01*
X206559Y385526D01*
X206533Y385624D01*
X206504Y385721D01*
X206472Y385817D01*
X206435Y385911D01*
X206395Y386004D01*
X206351Y386096D01*
X206304Y386185D01*
X206253Y386273D01*
X206199Y386359D01*
X206142Y386442D01*
X206082Y386524D01*
X206018Y386602D01*
X205952Y386679D01*
X205882Y386752D01*
X205810Y386823D01*
X205735Y386891D01*
X205657Y386956D01*
X205577Y387018D01*
X205495Y387077D01*
X205410Y387133D01*
X205324Y387185D01*
X205235Y387234D01*
X205144Y387280D01*
X205052Y387321D01*
X204958Y387360D01*
X204863Y387394D01*
X204767Y387425D01*
X204669Y387452D01*
X204571Y387476D01*
X204471Y387495D01*
X204371Y387511D01*
X204271Y387523D01*
X204170Y387531D01*
X204069Y387535D01*
X203967Y387535D01*
X203866Y387531D01*
X203765Y387523D01*
X203665Y387511D01*
X203565Y387495D01*
X203465Y387476D01*
X203367Y387452D01*
X203269Y387425D01*
X203173Y387394D01*
X203078Y387360D01*
X202984Y387321D01*
X202892Y387280D01*
X202801Y387234D01*
X202713Y387185D01*
X202626Y387133D01*
X202541Y387077D01*
X202459Y387018D01*
X202379Y386956D01*
X202301Y386891D01*
X202226Y386823D01*
X202154Y386752D01*
X202084Y386679D01*
X202018Y386602D01*
X201954Y386524D01*
X201894Y386442D01*
X201837Y386359D01*
X201783Y386273D01*
X201732Y386185D01*
X201685Y386096D01*
X201641Y386004D01*
X201601Y385911D01*
X201564Y385817D01*
X201532Y385721D01*
X201503Y385624D01*
X201477Y385526D01*
X201456Y385427D01*
X201438Y385327D01*
X201425Y385227D01*
X201415Y385126D01*
X201409Y385025D01*
X201407Y384924D01*
X201408Y384924D02*
X201408Y382313D01*
X201408Y385446D02*
X197231Y387534D01*
X204541Y391400D02*
X206629Y394011D01*
X197231Y394011D01*
X197231Y396621D02*
X197231Y391400D01*
X204541Y400544D02*
X206629Y403154D01*
X197231Y403154D01*
X197231Y400544D02*
X197231Y405765D01*
X197231Y409688D02*
X197231Y412821D01*
X197233Y412910D01*
X197239Y412998D01*
X197248Y413086D01*
X197261Y413174D01*
X197278Y413261D01*
X197298Y413347D01*
X197323Y413432D01*
X197350Y413517D01*
X197382Y413600D01*
X197416Y413681D01*
X197455Y413761D01*
X197496Y413839D01*
X197541Y413916D01*
X197589Y413990D01*
X197640Y414063D01*
X197694Y414133D01*
X197752Y414200D01*
X197812Y414266D01*
X197874Y414328D01*
X197940Y414388D01*
X198007Y414446D01*
X198077Y414500D01*
X198150Y414551D01*
X198224Y414599D01*
X198301Y414644D01*
X198379Y414685D01*
X198459Y414724D01*
X198540Y414758D01*
X198623Y414790D01*
X198708Y414817D01*
X198793Y414842D01*
X198879Y414862D01*
X198966Y414879D01*
X199054Y414892D01*
X199142Y414901D01*
X199230Y414907D01*
X199319Y414909D01*
X200364Y414909D01*
X200453Y414907D01*
X200541Y414901D01*
X200629Y414892D01*
X200717Y414879D01*
X200804Y414862D01*
X200890Y414842D01*
X200975Y414817D01*
X201060Y414790D01*
X201143Y414758D01*
X201224Y414724D01*
X201304Y414685D01*
X201382Y414644D01*
X201459Y414599D01*
X201533Y414551D01*
X201606Y414500D01*
X201676Y414446D01*
X201743Y414388D01*
X201809Y414328D01*
X201871Y414266D01*
X201931Y414200D01*
X201989Y414133D01*
X202043Y414063D01*
X202094Y413990D01*
X202142Y413916D01*
X202187Y413839D01*
X202228Y413761D01*
X202267Y413681D01*
X202301Y413600D01*
X202333Y413517D01*
X202360Y413432D01*
X202385Y413347D01*
X202405Y413261D01*
X202422Y413174D01*
X202435Y413086D01*
X202444Y412998D01*
X202450Y412910D01*
X202452Y412821D01*
X202452Y409688D01*
X206629Y409688D01*
X206629Y414909D01*
X234907Y557911D02*
X234907Y567309D01*
X232296Y567309D01*
X232195Y567307D01*
X232094Y567301D01*
X231993Y567291D01*
X231893Y567278D01*
X231793Y567260D01*
X231694Y567239D01*
X231596Y567213D01*
X231499Y567184D01*
X231403Y567152D01*
X231309Y567115D01*
X231216Y567075D01*
X231124Y567031D01*
X231035Y566984D01*
X230947Y566933D01*
X230861Y566879D01*
X230778Y566822D01*
X230696Y566762D01*
X230618Y566698D01*
X230541Y566632D01*
X230468Y566562D01*
X230397Y566490D01*
X230329Y566415D01*
X230264Y566337D01*
X230202Y566257D01*
X230143Y566175D01*
X230087Y566090D01*
X230035Y566004D01*
X229986Y565915D01*
X229940Y565824D01*
X229899Y565732D01*
X229860Y565638D01*
X229826Y565543D01*
X229795Y565447D01*
X229768Y565349D01*
X229744Y565251D01*
X229725Y565151D01*
X229709Y565051D01*
X229697Y564951D01*
X229689Y564850D01*
X229685Y564749D01*
X229685Y564647D01*
X229689Y564546D01*
X229697Y564445D01*
X229709Y564345D01*
X229725Y564245D01*
X229744Y564145D01*
X229768Y564047D01*
X229795Y563949D01*
X229826Y563853D01*
X229860Y563758D01*
X229899Y563664D01*
X229940Y563572D01*
X229986Y563481D01*
X230035Y563393D01*
X230087Y563306D01*
X230143Y563221D01*
X230202Y563139D01*
X230264Y563059D01*
X230329Y562981D01*
X230397Y562906D01*
X230468Y562834D01*
X230541Y562764D01*
X230618Y562698D01*
X230696Y562634D01*
X230778Y562574D01*
X230861Y562517D01*
X230947Y562463D01*
X231035Y562412D01*
X231124Y562365D01*
X231216Y562321D01*
X231309Y562281D01*
X231403Y562244D01*
X231499Y562212D01*
X231596Y562183D01*
X231694Y562157D01*
X231793Y562136D01*
X231893Y562118D01*
X231993Y562105D01*
X232094Y562095D01*
X232195Y562089D01*
X232296Y562087D01*
X232296Y562088D02*
X234907Y562088D01*
X231774Y562088D02*
X229686Y557911D01*
X225820Y565221D02*
X223210Y567309D01*
X223210Y557911D01*
X225820Y557911D02*
X220599Y557911D01*
X216676Y565221D02*
X214066Y567309D01*
X214066Y557911D01*
X216676Y557911D02*
X211455Y557911D01*
X207532Y563132D02*
X204399Y563132D01*
X204310Y563130D01*
X204222Y563124D01*
X204134Y563115D01*
X204046Y563102D01*
X203959Y563085D01*
X203873Y563065D01*
X203788Y563040D01*
X203703Y563013D01*
X203620Y562981D01*
X203539Y562947D01*
X203459Y562908D01*
X203381Y562867D01*
X203304Y562822D01*
X203230Y562774D01*
X203157Y562723D01*
X203087Y562669D01*
X203020Y562611D01*
X202954Y562551D01*
X202892Y562489D01*
X202832Y562423D01*
X202774Y562356D01*
X202720Y562286D01*
X202669Y562213D01*
X202621Y562139D01*
X202576Y562062D01*
X202535Y561984D01*
X202496Y561904D01*
X202462Y561823D01*
X202430Y561740D01*
X202403Y561655D01*
X202378Y561570D01*
X202358Y561484D01*
X202341Y561397D01*
X202328Y561309D01*
X202319Y561221D01*
X202313Y561133D01*
X202311Y561044D01*
X202311Y560522D01*
X202313Y560421D01*
X202319Y560320D01*
X202329Y560219D01*
X202342Y560119D01*
X202360Y560019D01*
X202381Y559920D01*
X202407Y559822D01*
X202436Y559725D01*
X202468Y559629D01*
X202505Y559535D01*
X202545Y559442D01*
X202589Y559350D01*
X202636Y559261D01*
X202687Y559173D01*
X202741Y559087D01*
X202798Y559004D01*
X202858Y558922D01*
X202922Y558844D01*
X202988Y558767D01*
X203058Y558694D01*
X203130Y558623D01*
X203205Y558555D01*
X203283Y558490D01*
X203363Y558428D01*
X203445Y558369D01*
X203530Y558313D01*
X203617Y558261D01*
X203705Y558212D01*
X203796Y558166D01*
X203888Y558125D01*
X203982Y558086D01*
X204077Y558052D01*
X204173Y558021D01*
X204271Y557994D01*
X204369Y557970D01*
X204469Y557951D01*
X204569Y557935D01*
X204669Y557923D01*
X204770Y557915D01*
X204871Y557911D01*
X204973Y557911D01*
X205074Y557915D01*
X205175Y557923D01*
X205275Y557935D01*
X205375Y557951D01*
X205475Y557970D01*
X205573Y557994D01*
X205671Y558021D01*
X205767Y558052D01*
X205862Y558086D01*
X205956Y558125D01*
X206048Y558166D01*
X206139Y558212D01*
X206227Y558261D01*
X206314Y558313D01*
X206399Y558369D01*
X206481Y558428D01*
X206561Y558490D01*
X206639Y558555D01*
X206714Y558623D01*
X206786Y558694D01*
X206856Y558767D01*
X206922Y558844D01*
X206986Y558922D01*
X207046Y559004D01*
X207103Y559087D01*
X207157Y559173D01*
X207208Y559261D01*
X207255Y559350D01*
X207299Y559442D01*
X207339Y559535D01*
X207376Y559629D01*
X207408Y559725D01*
X207437Y559822D01*
X207463Y559920D01*
X207484Y560019D01*
X207502Y560119D01*
X207515Y560219D01*
X207525Y560320D01*
X207531Y560421D01*
X207533Y560522D01*
X207532Y560522D02*
X207532Y563132D01*
X207530Y563258D01*
X207524Y563384D01*
X207515Y563510D01*
X207502Y563635D01*
X207484Y563760D01*
X207464Y563885D01*
X207439Y564009D01*
X207411Y564132D01*
X207379Y564254D01*
X207343Y564375D01*
X207304Y564495D01*
X207261Y564613D01*
X207214Y564730D01*
X207164Y564846D01*
X207110Y564961D01*
X207054Y565073D01*
X206993Y565184D01*
X206930Y565293D01*
X206863Y565400D01*
X206793Y565505D01*
X206719Y565608D01*
X206643Y565708D01*
X206564Y565806D01*
X206482Y565902D01*
X206396Y565995D01*
X206309Y566086D01*
X206218Y566173D01*
X206125Y566259D01*
X206029Y566341D01*
X205931Y566420D01*
X205831Y566496D01*
X205728Y566570D01*
X205623Y566640D01*
X205516Y566707D01*
X205407Y566770D01*
X205296Y566831D01*
X205184Y566887D01*
X205069Y566941D01*
X204953Y566991D01*
X204836Y567038D01*
X204718Y567081D01*
X204598Y567120D01*
X204477Y567156D01*
X204355Y567188D01*
X204232Y567216D01*
X204108Y567241D01*
X203983Y567261D01*
X203858Y567279D01*
X203733Y567292D01*
X203607Y567301D01*
X203481Y567307D01*
X203355Y567309D01*
D12*
X52578Y716289D02*
X52578Y718886D01*
X52578Y716289D02*
X52580Y716190D01*
X52586Y716090D01*
X52595Y715991D01*
X52608Y715893D01*
X52625Y715795D01*
X52646Y715697D01*
X52671Y715601D01*
X52699Y715506D01*
X52731Y715412D01*
X52766Y715319D01*
X52805Y715227D01*
X52848Y715137D01*
X52893Y715049D01*
X52943Y714962D01*
X52995Y714878D01*
X53051Y714795D01*
X53109Y714715D01*
X53171Y714637D01*
X53236Y714562D01*
X53304Y714489D01*
X53374Y714419D01*
X53447Y714351D01*
X53522Y714286D01*
X53600Y714224D01*
X53680Y714166D01*
X53763Y714110D01*
X53847Y714058D01*
X53934Y714008D01*
X54022Y713963D01*
X54112Y713920D01*
X54204Y713881D01*
X54297Y713846D01*
X54391Y713814D01*
X54486Y713786D01*
X54582Y713761D01*
X54680Y713740D01*
X54778Y713723D01*
X54876Y713710D01*
X54975Y713701D01*
X55075Y713695D01*
X55174Y713693D01*
X61666Y713693D01*
X61765Y713695D01*
X61865Y713701D01*
X61964Y713710D01*
X62062Y713723D01*
X62160Y713740D01*
X62258Y713761D01*
X62354Y713786D01*
X62449Y713814D01*
X62543Y713846D01*
X62636Y713881D01*
X62728Y713920D01*
X62818Y713963D01*
X62906Y714008D01*
X62993Y714058D01*
X63077Y714110D01*
X63160Y714166D01*
X63240Y714224D01*
X63318Y714286D01*
X63393Y714351D01*
X63466Y714419D01*
X63536Y714489D01*
X63604Y714562D01*
X63669Y714637D01*
X63731Y714715D01*
X63789Y714795D01*
X63845Y714878D01*
X63897Y714962D01*
X63947Y715049D01*
X63992Y715137D01*
X64035Y715227D01*
X64074Y715319D01*
X64109Y715411D01*
X64141Y715506D01*
X64169Y715601D01*
X64194Y715697D01*
X64215Y715795D01*
X64232Y715893D01*
X64245Y715991D01*
X64254Y716090D01*
X64260Y716190D01*
X64262Y716289D01*
X64262Y718886D01*
X61666Y723251D02*
X64262Y726497D01*
X52578Y726497D01*
X52578Y729742D02*
X52578Y723251D01*
X58420Y734681D02*
X58650Y734684D01*
X58880Y734692D01*
X59109Y734706D01*
X59338Y734725D01*
X59567Y734750D01*
X59794Y734780D01*
X60022Y734815D01*
X60248Y734856D01*
X60473Y734902D01*
X60697Y734954D01*
X60919Y735011D01*
X61141Y735073D01*
X61360Y735141D01*
X61578Y735214D01*
X61795Y735292D01*
X62009Y735375D01*
X62221Y735463D01*
X62431Y735556D01*
X62639Y735655D01*
X62639Y735654D02*
X62729Y735687D01*
X62818Y735723D01*
X62906Y735763D01*
X62991Y735807D01*
X63075Y735854D01*
X63157Y735904D01*
X63237Y735958D01*
X63314Y736014D01*
X63390Y736074D01*
X63463Y736137D01*
X63533Y736202D01*
X63601Y736271D01*
X63665Y736342D01*
X63727Y736415D01*
X63786Y736491D01*
X63842Y736569D01*
X63895Y736650D01*
X63944Y736732D01*
X63990Y736816D01*
X64033Y736903D01*
X64072Y736990D01*
X64108Y737080D01*
X64140Y737170D01*
X64168Y737262D01*
X64193Y737355D01*
X64214Y737449D01*
X64231Y737543D01*
X64245Y737638D01*
X64254Y737734D01*
X64260Y737830D01*
X64262Y737926D01*
X64260Y738022D01*
X64254Y738118D01*
X64245Y738214D01*
X64231Y738309D01*
X64214Y738403D01*
X64193Y738497D01*
X64168Y738590D01*
X64140Y738682D01*
X64108Y738772D01*
X64072Y738862D01*
X64033Y738949D01*
X63990Y739036D01*
X63944Y739120D01*
X63895Y739202D01*
X63842Y739283D01*
X63786Y739361D01*
X63727Y739437D01*
X63665Y739510D01*
X63601Y739581D01*
X63533Y739650D01*
X63463Y739715D01*
X63390Y739778D01*
X63314Y739838D01*
X63237Y739894D01*
X63157Y739948D01*
X63075Y739998D01*
X62991Y740045D01*
X62906Y740089D01*
X62818Y740129D01*
X62729Y740165D01*
X62639Y740198D01*
X62639Y740199D02*
X62432Y740298D01*
X62222Y740391D01*
X62009Y740479D01*
X61795Y740562D01*
X61579Y740640D01*
X61361Y740713D01*
X61141Y740781D01*
X60920Y740843D01*
X60697Y740900D01*
X60473Y740952D01*
X60248Y740998D01*
X60022Y741039D01*
X59795Y741074D01*
X59567Y741104D01*
X59338Y741129D01*
X59109Y741148D01*
X58880Y741162D01*
X58650Y741170D01*
X58420Y741173D01*
X58420Y734681D02*
X58190Y734684D01*
X57960Y734692D01*
X57731Y734706D01*
X57502Y734725D01*
X57273Y734750D01*
X57045Y734780D01*
X56818Y734815D01*
X56592Y734856D01*
X56367Y734902D01*
X56143Y734954D01*
X55920Y735011D01*
X55699Y735073D01*
X55479Y735141D01*
X55261Y735214D01*
X55045Y735292D01*
X54831Y735375D01*
X54619Y735463D01*
X54408Y735556D01*
X54201Y735655D01*
X54201Y735654D02*
X54111Y735687D01*
X54022Y735723D01*
X53934Y735764D01*
X53849Y735807D01*
X53765Y735854D01*
X53683Y735904D01*
X53603Y735958D01*
X53526Y736014D01*
X53450Y736074D01*
X53377Y736137D01*
X53307Y736202D01*
X53239Y736271D01*
X53175Y736342D01*
X53113Y736415D01*
X53054Y736491D01*
X52998Y736569D01*
X52945Y736650D01*
X52896Y736732D01*
X52850Y736816D01*
X52807Y736903D01*
X52768Y736990D01*
X52732Y737080D01*
X52700Y737170D01*
X52672Y737262D01*
X52647Y737355D01*
X52626Y737449D01*
X52609Y737543D01*
X52595Y737638D01*
X52586Y737734D01*
X52580Y737830D01*
X52578Y737926D01*
X54201Y740198D02*
X54408Y740297D01*
X54619Y740390D01*
X54831Y740478D01*
X55045Y740561D01*
X55261Y740639D01*
X55479Y740712D01*
X55699Y740780D01*
X55920Y740842D01*
X56143Y740899D01*
X56367Y740951D01*
X56592Y740997D01*
X56818Y741038D01*
X57045Y741073D01*
X57273Y741103D01*
X57502Y741128D01*
X57731Y741147D01*
X57960Y741161D01*
X58190Y741169D01*
X58420Y741172D01*
X54201Y740198D02*
X54111Y740165D01*
X54022Y740129D01*
X53934Y740089D01*
X53849Y740045D01*
X53765Y739998D01*
X53683Y739948D01*
X53603Y739894D01*
X53526Y739838D01*
X53450Y739778D01*
X53377Y739715D01*
X53307Y739650D01*
X53239Y739581D01*
X53175Y739510D01*
X53113Y739437D01*
X53054Y739361D01*
X52998Y739283D01*
X52945Y739202D01*
X52896Y739120D01*
X52850Y739036D01*
X52807Y738949D01*
X52768Y738862D01*
X52732Y738772D01*
X52700Y738682D01*
X52672Y738590D01*
X52647Y738497D01*
X52626Y738403D01*
X52609Y738309D01*
X52595Y738214D01*
X52586Y738118D01*
X52580Y738022D01*
X52578Y737926D01*
X55174Y735330D02*
X61666Y740523D01*
X61666Y746111D02*
X64262Y749356D01*
X52578Y749356D01*
X52578Y746111D02*
X52578Y752602D01*
X32258Y718886D02*
X32258Y716289D01*
X32260Y716190D01*
X32266Y716090D01*
X32275Y715991D01*
X32288Y715893D01*
X32305Y715795D01*
X32326Y715697D01*
X32351Y715601D01*
X32379Y715506D01*
X32411Y715412D01*
X32446Y715319D01*
X32485Y715227D01*
X32528Y715137D01*
X32573Y715049D01*
X32623Y714962D01*
X32675Y714878D01*
X32731Y714795D01*
X32789Y714715D01*
X32851Y714637D01*
X32916Y714562D01*
X32984Y714489D01*
X33054Y714419D01*
X33127Y714351D01*
X33202Y714286D01*
X33280Y714224D01*
X33360Y714166D01*
X33443Y714110D01*
X33527Y714058D01*
X33614Y714008D01*
X33702Y713963D01*
X33792Y713920D01*
X33884Y713881D01*
X33977Y713846D01*
X34071Y713814D01*
X34166Y713786D01*
X34262Y713761D01*
X34360Y713740D01*
X34458Y713723D01*
X34556Y713710D01*
X34655Y713701D01*
X34755Y713695D01*
X34854Y713693D01*
X41346Y713693D01*
X41445Y713695D01*
X41545Y713701D01*
X41644Y713710D01*
X41742Y713723D01*
X41840Y713740D01*
X41938Y713761D01*
X42034Y713786D01*
X42129Y713814D01*
X42223Y713846D01*
X42316Y713881D01*
X42408Y713920D01*
X42498Y713963D01*
X42586Y714008D01*
X42673Y714058D01*
X42757Y714110D01*
X42840Y714166D01*
X42920Y714224D01*
X42998Y714286D01*
X43073Y714351D01*
X43146Y714419D01*
X43216Y714489D01*
X43284Y714562D01*
X43349Y714637D01*
X43411Y714715D01*
X43469Y714795D01*
X43525Y714878D01*
X43577Y714962D01*
X43627Y715049D01*
X43672Y715137D01*
X43715Y715227D01*
X43754Y715319D01*
X43789Y715411D01*
X43821Y715506D01*
X43849Y715601D01*
X43874Y715697D01*
X43895Y715795D01*
X43912Y715893D01*
X43925Y715991D01*
X43934Y716090D01*
X43940Y716190D01*
X43942Y716289D01*
X43942Y718886D01*
X41346Y723251D02*
X43942Y726497D01*
X32258Y726497D01*
X32258Y729742D02*
X32258Y723251D01*
X38100Y734681D02*
X38330Y734684D01*
X38560Y734692D01*
X38789Y734706D01*
X39018Y734725D01*
X39247Y734750D01*
X39474Y734780D01*
X39702Y734815D01*
X39928Y734856D01*
X40153Y734902D01*
X40377Y734954D01*
X40599Y735011D01*
X40821Y735073D01*
X41040Y735141D01*
X41258Y735214D01*
X41475Y735292D01*
X41689Y735375D01*
X41901Y735463D01*
X42111Y735556D01*
X42319Y735655D01*
X42319Y735654D02*
X42409Y735687D01*
X42498Y735723D01*
X42586Y735763D01*
X42671Y735807D01*
X42755Y735854D01*
X42837Y735904D01*
X42917Y735958D01*
X42994Y736014D01*
X43070Y736074D01*
X43143Y736137D01*
X43213Y736202D01*
X43281Y736271D01*
X43345Y736342D01*
X43407Y736415D01*
X43466Y736491D01*
X43522Y736569D01*
X43575Y736650D01*
X43624Y736732D01*
X43670Y736816D01*
X43713Y736903D01*
X43752Y736990D01*
X43788Y737080D01*
X43820Y737170D01*
X43848Y737262D01*
X43873Y737355D01*
X43894Y737449D01*
X43911Y737543D01*
X43925Y737638D01*
X43934Y737734D01*
X43940Y737830D01*
X43942Y737926D01*
X43940Y738022D01*
X43934Y738118D01*
X43925Y738214D01*
X43911Y738309D01*
X43894Y738403D01*
X43873Y738497D01*
X43848Y738590D01*
X43820Y738682D01*
X43788Y738772D01*
X43752Y738862D01*
X43713Y738949D01*
X43670Y739036D01*
X43624Y739120D01*
X43575Y739202D01*
X43522Y739283D01*
X43466Y739361D01*
X43407Y739437D01*
X43345Y739510D01*
X43281Y739581D01*
X43213Y739650D01*
X43143Y739715D01*
X43070Y739778D01*
X42994Y739838D01*
X42917Y739894D01*
X42837Y739948D01*
X42755Y739998D01*
X42671Y740045D01*
X42586Y740089D01*
X42498Y740129D01*
X42409Y740165D01*
X42319Y740198D01*
X42319Y740199D02*
X42112Y740298D01*
X41902Y740391D01*
X41689Y740479D01*
X41475Y740562D01*
X41259Y740640D01*
X41041Y740713D01*
X40821Y740781D01*
X40600Y740843D01*
X40377Y740900D01*
X40153Y740952D01*
X39928Y740998D01*
X39702Y741039D01*
X39475Y741074D01*
X39247Y741104D01*
X39018Y741129D01*
X38789Y741148D01*
X38560Y741162D01*
X38330Y741170D01*
X38100Y741173D01*
X38100Y734681D02*
X37870Y734684D01*
X37640Y734692D01*
X37411Y734706D01*
X37182Y734725D01*
X36953Y734750D01*
X36725Y734780D01*
X36498Y734815D01*
X36272Y734856D01*
X36047Y734902D01*
X35823Y734954D01*
X35600Y735011D01*
X35379Y735073D01*
X35159Y735141D01*
X34941Y735214D01*
X34725Y735292D01*
X34511Y735375D01*
X34299Y735463D01*
X34088Y735556D01*
X33881Y735655D01*
X33881Y735654D02*
X33791Y735687D01*
X33702Y735723D01*
X33614Y735764D01*
X33529Y735807D01*
X33445Y735854D01*
X33363Y735904D01*
X33283Y735958D01*
X33206Y736014D01*
X33130Y736074D01*
X33057Y736137D01*
X32987Y736202D01*
X32919Y736271D01*
X32855Y736342D01*
X32793Y736415D01*
X32734Y736491D01*
X32678Y736569D01*
X32625Y736650D01*
X32576Y736732D01*
X32530Y736816D01*
X32487Y736903D01*
X32448Y736990D01*
X32412Y737080D01*
X32380Y737170D01*
X32352Y737262D01*
X32327Y737355D01*
X32306Y737449D01*
X32289Y737543D01*
X32275Y737638D01*
X32266Y737734D01*
X32260Y737830D01*
X32258Y737926D01*
X33881Y740198D02*
X34088Y740297D01*
X34299Y740390D01*
X34511Y740478D01*
X34725Y740561D01*
X34941Y740639D01*
X35159Y740712D01*
X35379Y740780D01*
X35600Y740842D01*
X35823Y740899D01*
X36047Y740951D01*
X36272Y740997D01*
X36498Y741038D01*
X36725Y741073D01*
X36953Y741103D01*
X37182Y741128D01*
X37411Y741147D01*
X37640Y741161D01*
X37870Y741169D01*
X38100Y741172D01*
X33881Y740198D02*
X33791Y740165D01*
X33702Y740129D01*
X33614Y740089D01*
X33529Y740045D01*
X33445Y739998D01*
X33363Y739948D01*
X33283Y739894D01*
X33206Y739838D01*
X33130Y739778D01*
X33057Y739715D01*
X32987Y739650D01*
X32919Y739581D01*
X32855Y739510D01*
X32793Y739437D01*
X32734Y739361D01*
X32678Y739283D01*
X32625Y739202D01*
X32576Y739120D01*
X32530Y739036D01*
X32487Y738949D01*
X32448Y738862D01*
X32412Y738772D01*
X32380Y738682D01*
X32352Y738590D01*
X32327Y738497D01*
X32306Y738403D01*
X32289Y738309D01*
X32275Y738214D01*
X32266Y738118D01*
X32260Y738022D01*
X32258Y737926D01*
X34854Y735330D02*
X41346Y740523D01*
X43942Y749681D02*
X43940Y749788D01*
X43934Y749894D01*
X43924Y750000D01*
X43911Y750106D01*
X43893Y750212D01*
X43872Y750316D01*
X43847Y750420D01*
X43818Y750523D01*
X43786Y750624D01*
X43749Y750724D01*
X43709Y750823D01*
X43666Y750921D01*
X43619Y751017D01*
X43568Y751111D01*
X43514Y751203D01*
X43457Y751293D01*
X43397Y751381D01*
X43333Y751466D01*
X43266Y751549D01*
X43196Y751630D01*
X43124Y751708D01*
X43048Y751784D01*
X42970Y751856D01*
X42889Y751926D01*
X42806Y751993D01*
X42721Y752057D01*
X42633Y752117D01*
X42543Y752174D01*
X42451Y752228D01*
X42357Y752279D01*
X42261Y752326D01*
X42163Y752369D01*
X42064Y752409D01*
X41964Y752446D01*
X41863Y752478D01*
X41760Y752507D01*
X41656Y752532D01*
X41552Y752553D01*
X41446Y752571D01*
X41340Y752584D01*
X41234Y752594D01*
X41128Y752600D01*
X41021Y752602D01*
X43942Y749681D02*
X43940Y749560D01*
X43934Y749439D01*
X43924Y749319D01*
X43911Y749198D01*
X43893Y749079D01*
X43872Y748959D01*
X43847Y748841D01*
X43818Y748724D01*
X43785Y748607D01*
X43749Y748492D01*
X43708Y748378D01*
X43665Y748265D01*
X43617Y748153D01*
X43566Y748044D01*
X43511Y747936D01*
X43453Y747829D01*
X43392Y747725D01*
X43327Y747623D01*
X43259Y747523D01*
X43188Y747425D01*
X43114Y747329D01*
X43037Y747236D01*
X42956Y747146D01*
X42873Y747058D01*
X42787Y746973D01*
X42698Y746890D01*
X42607Y746811D01*
X42513Y746734D01*
X42417Y746661D01*
X42319Y746591D01*
X42218Y746524D01*
X42115Y746460D01*
X42010Y746400D01*
X41903Y746343D01*
X41795Y746289D01*
X41685Y746239D01*
X41573Y746193D01*
X41460Y746150D01*
X41345Y746111D01*
X38749Y751629D02*
X38826Y751708D01*
X38907Y751784D01*
X38990Y751857D01*
X39075Y751927D01*
X39163Y751994D01*
X39253Y752058D01*
X39345Y752118D01*
X39440Y752175D01*
X39536Y752229D01*
X39634Y752280D01*
X39734Y752327D01*
X39836Y752371D01*
X39939Y752411D01*
X40043Y752447D01*
X40149Y752479D01*
X40255Y752508D01*
X40363Y752533D01*
X40471Y752555D01*
X40581Y752572D01*
X40690Y752586D01*
X40800Y752595D01*
X40911Y752601D01*
X41021Y752603D01*
X38749Y751628D02*
X32258Y746111D01*
X32258Y752602D01*
X104789Y845058D02*
X107386Y845058D01*
X107485Y845060D01*
X107585Y845066D01*
X107684Y845075D01*
X107782Y845088D01*
X107880Y845105D01*
X107978Y845126D01*
X108074Y845151D01*
X108169Y845179D01*
X108263Y845211D01*
X108356Y845246D01*
X108448Y845285D01*
X108538Y845328D01*
X108626Y845373D01*
X108713Y845423D01*
X108797Y845475D01*
X108880Y845531D01*
X108960Y845589D01*
X109038Y845651D01*
X109113Y845716D01*
X109186Y845784D01*
X109256Y845854D01*
X109324Y845927D01*
X109389Y846002D01*
X109451Y846080D01*
X109509Y846160D01*
X109565Y846243D01*
X109617Y846327D01*
X109667Y846414D01*
X109712Y846502D01*
X109755Y846592D01*
X109794Y846684D01*
X109829Y846777D01*
X109861Y846871D01*
X109889Y846966D01*
X109914Y847062D01*
X109935Y847160D01*
X109952Y847258D01*
X109965Y847356D01*
X109974Y847455D01*
X109980Y847555D01*
X109982Y847654D01*
X109982Y854146D01*
X109980Y854245D01*
X109974Y854345D01*
X109965Y854444D01*
X109952Y854542D01*
X109935Y854640D01*
X109914Y854738D01*
X109889Y854834D01*
X109861Y854929D01*
X109829Y855023D01*
X109794Y855116D01*
X109755Y855208D01*
X109712Y855298D01*
X109667Y855386D01*
X109617Y855473D01*
X109565Y855557D01*
X109509Y855640D01*
X109451Y855720D01*
X109389Y855798D01*
X109324Y855873D01*
X109256Y855946D01*
X109186Y856016D01*
X109113Y856084D01*
X109038Y856149D01*
X108960Y856211D01*
X108880Y856269D01*
X108797Y856325D01*
X108713Y856377D01*
X108626Y856427D01*
X108538Y856472D01*
X108448Y856515D01*
X108356Y856554D01*
X108263Y856589D01*
X108169Y856621D01*
X108074Y856649D01*
X107978Y856674D01*
X107880Y856695D01*
X107782Y856712D01*
X107684Y856725D01*
X107585Y856734D01*
X107485Y856740D01*
X107386Y856742D01*
X104789Y856742D01*
X100424Y854146D02*
X97178Y856742D01*
X97178Y845058D01*
X93933Y845058D02*
X100424Y845058D01*
X88994Y850900D02*
X88991Y851130D01*
X88983Y851360D01*
X88969Y851589D01*
X88950Y851818D01*
X88925Y852047D01*
X88895Y852275D01*
X88860Y852502D01*
X88819Y852728D01*
X88773Y852953D01*
X88721Y853177D01*
X88664Y853400D01*
X88602Y853621D01*
X88534Y853841D01*
X88461Y854059D01*
X88383Y854275D01*
X88300Y854489D01*
X88212Y854702D01*
X88119Y854912D01*
X88020Y855119D01*
X87987Y855209D01*
X87951Y855298D01*
X87911Y855386D01*
X87867Y855471D01*
X87820Y855555D01*
X87770Y855637D01*
X87716Y855717D01*
X87660Y855794D01*
X87600Y855870D01*
X87537Y855943D01*
X87472Y856013D01*
X87403Y856081D01*
X87332Y856145D01*
X87259Y856207D01*
X87183Y856266D01*
X87105Y856322D01*
X87024Y856375D01*
X86942Y856424D01*
X86858Y856470D01*
X86771Y856513D01*
X86684Y856552D01*
X86594Y856588D01*
X86504Y856620D01*
X86412Y856648D01*
X86319Y856673D01*
X86225Y856694D01*
X86131Y856711D01*
X86036Y856725D01*
X85940Y856734D01*
X85844Y856740D01*
X85748Y856742D01*
X85652Y856740D01*
X85556Y856734D01*
X85460Y856725D01*
X85365Y856711D01*
X85271Y856694D01*
X85177Y856673D01*
X85084Y856648D01*
X84992Y856620D01*
X84902Y856588D01*
X84812Y856552D01*
X84725Y856513D01*
X84638Y856470D01*
X84554Y856424D01*
X84472Y856375D01*
X84391Y856322D01*
X84313Y856266D01*
X84237Y856207D01*
X84164Y856145D01*
X84093Y856081D01*
X84024Y856013D01*
X83959Y855943D01*
X83896Y855870D01*
X83836Y855795D01*
X83780Y855717D01*
X83726Y855637D01*
X83676Y855555D01*
X83629Y855471D01*
X83586Y855386D01*
X83545Y855298D01*
X83509Y855209D01*
X83476Y855119D01*
X83477Y855119D02*
X83378Y854911D01*
X83285Y854701D01*
X83197Y854489D01*
X83114Y854275D01*
X83036Y854058D01*
X82963Y853840D01*
X82895Y853621D01*
X82833Y853399D01*
X82776Y853177D01*
X82724Y852953D01*
X82678Y852728D01*
X82637Y852502D01*
X82602Y852274D01*
X82572Y852047D01*
X82547Y851818D01*
X82528Y851589D01*
X82514Y851360D01*
X82506Y851130D01*
X82503Y850900D01*
X88994Y850900D02*
X88991Y850670D01*
X88983Y850440D01*
X88969Y850211D01*
X88950Y849982D01*
X88925Y849753D01*
X88895Y849525D01*
X88860Y849298D01*
X88819Y849072D01*
X88773Y848847D01*
X88721Y848623D01*
X88664Y848400D01*
X88602Y848179D01*
X88534Y847959D01*
X88461Y847741D01*
X88383Y847525D01*
X88300Y847311D01*
X88212Y847099D01*
X88119Y846888D01*
X88020Y846681D01*
X87987Y846591D01*
X87951Y846502D01*
X87910Y846414D01*
X87867Y846329D01*
X87820Y846245D01*
X87770Y846163D01*
X87716Y846083D01*
X87660Y846006D01*
X87600Y845930D01*
X87537Y845857D01*
X87472Y845787D01*
X87403Y845719D01*
X87332Y845655D01*
X87259Y845593D01*
X87183Y845534D01*
X87105Y845478D01*
X87024Y845425D01*
X86942Y845376D01*
X86858Y845330D01*
X86771Y845287D01*
X86684Y845248D01*
X86594Y845212D01*
X86504Y845180D01*
X86412Y845152D01*
X86319Y845127D01*
X86225Y845106D01*
X86131Y845089D01*
X86036Y845075D01*
X85940Y845066D01*
X85844Y845060D01*
X85748Y845058D01*
X83476Y846681D02*
X83377Y846888D01*
X83284Y847099D01*
X83196Y847311D01*
X83113Y847525D01*
X83035Y847741D01*
X82962Y847959D01*
X82894Y848179D01*
X82832Y848400D01*
X82775Y848623D01*
X82723Y848847D01*
X82677Y849072D01*
X82636Y849298D01*
X82601Y849525D01*
X82571Y849753D01*
X82546Y849982D01*
X82527Y850211D01*
X82513Y850440D01*
X82505Y850670D01*
X82502Y850900D01*
X83476Y846681D02*
X83509Y846591D01*
X83545Y846502D01*
X83586Y846414D01*
X83629Y846329D01*
X83676Y846245D01*
X83726Y846163D01*
X83780Y846083D01*
X83836Y846005D01*
X83896Y845930D01*
X83959Y845857D01*
X84024Y845787D01*
X84093Y845719D01*
X84164Y845655D01*
X84237Y845593D01*
X84313Y845534D01*
X84391Y845478D01*
X84472Y845425D01*
X84554Y845376D01*
X84638Y845330D01*
X84725Y845287D01*
X84812Y845248D01*
X84902Y845212D01*
X84992Y845180D01*
X85084Y845152D01*
X85177Y845127D01*
X85271Y845106D01*
X85365Y845089D01*
X85460Y845075D01*
X85556Y845066D01*
X85652Y845060D01*
X85748Y845058D01*
X88345Y847654D02*
X83152Y854146D01*
X77564Y845058D02*
X73669Y845058D01*
X73570Y845060D01*
X73470Y845066D01*
X73371Y845075D01*
X73273Y845088D01*
X73175Y845105D01*
X73077Y845126D01*
X72981Y845151D01*
X72886Y845179D01*
X72792Y845211D01*
X72699Y845246D01*
X72607Y845285D01*
X72517Y845328D01*
X72429Y845373D01*
X72342Y845423D01*
X72258Y845475D01*
X72175Y845531D01*
X72095Y845589D01*
X72017Y845651D01*
X71942Y845716D01*
X71869Y845784D01*
X71799Y845854D01*
X71731Y845927D01*
X71666Y846002D01*
X71604Y846080D01*
X71546Y846160D01*
X71490Y846243D01*
X71438Y846327D01*
X71388Y846414D01*
X71343Y846502D01*
X71300Y846592D01*
X71261Y846684D01*
X71226Y846777D01*
X71194Y846871D01*
X71166Y846966D01*
X71141Y847062D01*
X71120Y847160D01*
X71103Y847258D01*
X71090Y847356D01*
X71081Y847455D01*
X71075Y847555D01*
X71073Y847654D01*
X71073Y848953D01*
X71075Y849052D01*
X71081Y849152D01*
X71090Y849251D01*
X71103Y849349D01*
X71120Y849447D01*
X71141Y849545D01*
X71166Y849641D01*
X71194Y849736D01*
X71226Y849830D01*
X71261Y849923D01*
X71300Y850015D01*
X71343Y850105D01*
X71388Y850193D01*
X71438Y850280D01*
X71490Y850364D01*
X71546Y850447D01*
X71604Y850527D01*
X71666Y850605D01*
X71731Y850680D01*
X71799Y850753D01*
X71869Y850823D01*
X71942Y850891D01*
X72017Y850956D01*
X72095Y851018D01*
X72175Y851076D01*
X72258Y851132D01*
X72342Y851184D01*
X72429Y851234D01*
X72517Y851279D01*
X72607Y851322D01*
X72699Y851361D01*
X72792Y851396D01*
X72886Y851428D01*
X72981Y851456D01*
X73077Y851481D01*
X73175Y851502D01*
X73273Y851519D01*
X73371Y851532D01*
X73470Y851541D01*
X73570Y851547D01*
X73669Y851549D01*
X77564Y851549D01*
X77564Y856742D01*
X71073Y856742D01*
X153049Y773938D02*
X155646Y773938D01*
X155745Y773940D01*
X155845Y773946D01*
X155944Y773955D01*
X156042Y773968D01*
X156140Y773985D01*
X156238Y774006D01*
X156334Y774031D01*
X156429Y774059D01*
X156523Y774091D01*
X156616Y774126D01*
X156708Y774165D01*
X156798Y774208D01*
X156886Y774253D01*
X156973Y774303D01*
X157057Y774355D01*
X157140Y774411D01*
X157220Y774469D01*
X157298Y774531D01*
X157373Y774596D01*
X157446Y774664D01*
X157516Y774734D01*
X157584Y774807D01*
X157649Y774882D01*
X157711Y774960D01*
X157769Y775040D01*
X157825Y775123D01*
X157877Y775207D01*
X157927Y775294D01*
X157972Y775382D01*
X158015Y775472D01*
X158054Y775564D01*
X158089Y775657D01*
X158121Y775751D01*
X158149Y775846D01*
X158174Y775942D01*
X158195Y776040D01*
X158212Y776138D01*
X158225Y776236D01*
X158234Y776335D01*
X158240Y776435D01*
X158242Y776534D01*
X158242Y783026D01*
X158240Y783125D01*
X158234Y783225D01*
X158225Y783324D01*
X158212Y783422D01*
X158195Y783520D01*
X158174Y783618D01*
X158149Y783714D01*
X158121Y783809D01*
X158089Y783903D01*
X158054Y783996D01*
X158015Y784088D01*
X157972Y784178D01*
X157927Y784266D01*
X157877Y784353D01*
X157825Y784437D01*
X157769Y784520D01*
X157711Y784600D01*
X157649Y784678D01*
X157584Y784753D01*
X157516Y784826D01*
X157446Y784896D01*
X157373Y784964D01*
X157298Y785029D01*
X157220Y785091D01*
X157140Y785149D01*
X157057Y785205D01*
X156973Y785257D01*
X156886Y785307D01*
X156798Y785352D01*
X156708Y785395D01*
X156616Y785434D01*
X156523Y785469D01*
X156429Y785501D01*
X156334Y785529D01*
X156238Y785554D01*
X156140Y785575D01*
X156042Y785592D01*
X155944Y785605D01*
X155845Y785614D01*
X155745Y785620D01*
X155646Y785622D01*
X153049Y785622D01*
X148684Y783026D02*
X145438Y785622D01*
X145438Y773938D01*
X142193Y773938D02*
X148684Y773938D01*
X137254Y779780D02*
X137251Y780010D01*
X137243Y780240D01*
X137229Y780469D01*
X137210Y780698D01*
X137185Y780927D01*
X137155Y781155D01*
X137120Y781382D01*
X137079Y781608D01*
X137033Y781833D01*
X136981Y782057D01*
X136924Y782280D01*
X136862Y782501D01*
X136794Y782721D01*
X136721Y782939D01*
X136643Y783155D01*
X136560Y783369D01*
X136472Y783582D01*
X136379Y783792D01*
X136280Y783999D01*
X136247Y784089D01*
X136211Y784178D01*
X136171Y784266D01*
X136127Y784351D01*
X136080Y784435D01*
X136030Y784517D01*
X135976Y784597D01*
X135920Y784674D01*
X135860Y784750D01*
X135797Y784823D01*
X135732Y784893D01*
X135663Y784961D01*
X135592Y785025D01*
X135519Y785087D01*
X135443Y785146D01*
X135365Y785202D01*
X135284Y785255D01*
X135202Y785304D01*
X135118Y785350D01*
X135031Y785393D01*
X134944Y785432D01*
X134854Y785468D01*
X134764Y785500D01*
X134672Y785528D01*
X134579Y785553D01*
X134485Y785574D01*
X134391Y785591D01*
X134296Y785605D01*
X134200Y785614D01*
X134104Y785620D01*
X134008Y785622D01*
X133912Y785620D01*
X133816Y785614D01*
X133720Y785605D01*
X133625Y785591D01*
X133531Y785574D01*
X133437Y785553D01*
X133344Y785528D01*
X133252Y785500D01*
X133162Y785468D01*
X133072Y785432D01*
X132985Y785393D01*
X132898Y785350D01*
X132814Y785304D01*
X132732Y785255D01*
X132651Y785202D01*
X132573Y785146D01*
X132497Y785087D01*
X132424Y785025D01*
X132353Y784961D01*
X132284Y784893D01*
X132219Y784823D01*
X132156Y784750D01*
X132096Y784675D01*
X132040Y784597D01*
X131986Y784517D01*
X131936Y784435D01*
X131889Y784351D01*
X131846Y784266D01*
X131805Y784178D01*
X131769Y784089D01*
X131736Y783999D01*
X131737Y783999D02*
X131638Y783791D01*
X131545Y783581D01*
X131457Y783369D01*
X131374Y783155D01*
X131296Y782938D01*
X131223Y782720D01*
X131155Y782501D01*
X131093Y782279D01*
X131036Y782057D01*
X130984Y781833D01*
X130938Y781608D01*
X130897Y781382D01*
X130862Y781154D01*
X130832Y780927D01*
X130807Y780698D01*
X130788Y780469D01*
X130774Y780240D01*
X130766Y780010D01*
X130763Y779780D01*
X137254Y779780D02*
X137251Y779550D01*
X137243Y779320D01*
X137229Y779091D01*
X137210Y778862D01*
X137185Y778633D01*
X137155Y778405D01*
X137120Y778178D01*
X137079Y777952D01*
X137033Y777727D01*
X136981Y777503D01*
X136924Y777280D01*
X136862Y777059D01*
X136794Y776839D01*
X136721Y776621D01*
X136643Y776405D01*
X136560Y776191D01*
X136472Y775979D01*
X136379Y775768D01*
X136280Y775561D01*
X136247Y775471D01*
X136211Y775382D01*
X136170Y775294D01*
X136127Y775209D01*
X136080Y775125D01*
X136030Y775043D01*
X135976Y774963D01*
X135920Y774886D01*
X135860Y774810D01*
X135797Y774737D01*
X135732Y774667D01*
X135663Y774599D01*
X135592Y774535D01*
X135519Y774473D01*
X135443Y774414D01*
X135365Y774358D01*
X135284Y774305D01*
X135202Y774256D01*
X135118Y774210D01*
X135031Y774167D01*
X134944Y774128D01*
X134854Y774092D01*
X134764Y774060D01*
X134672Y774032D01*
X134579Y774007D01*
X134485Y773986D01*
X134391Y773969D01*
X134296Y773955D01*
X134200Y773946D01*
X134104Y773940D01*
X134008Y773938D01*
X131736Y775561D02*
X131637Y775768D01*
X131544Y775979D01*
X131456Y776191D01*
X131373Y776405D01*
X131295Y776621D01*
X131222Y776839D01*
X131154Y777059D01*
X131092Y777280D01*
X131035Y777503D01*
X130983Y777727D01*
X130937Y777952D01*
X130896Y778178D01*
X130861Y778405D01*
X130831Y778633D01*
X130806Y778862D01*
X130787Y779091D01*
X130773Y779320D01*
X130765Y779550D01*
X130762Y779780D01*
X131736Y775561D02*
X131769Y775471D01*
X131805Y775382D01*
X131846Y775294D01*
X131889Y775209D01*
X131936Y775125D01*
X131986Y775043D01*
X132040Y774963D01*
X132096Y774885D01*
X132156Y774810D01*
X132219Y774737D01*
X132284Y774667D01*
X132353Y774599D01*
X132424Y774535D01*
X132497Y774473D01*
X132573Y774414D01*
X132651Y774358D01*
X132732Y774305D01*
X132814Y774256D01*
X132898Y774210D01*
X132985Y774167D01*
X133072Y774128D01*
X133162Y774092D01*
X133252Y774060D01*
X133344Y774032D01*
X133437Y774007D01*
X133531Y773986D01*
X133625Y773969D01*
X133720Y773955D01*
X133816Y773946D01*
X133912Y773940D01*
X134008Y773938D01*
X136605Y776534D02*
X131412Y783026D01*
X125824Y776534D02*
X123227Y785622D01*
X125824Y776534D02*
X119333Y776534D01*
X121280Y779131D02*
X121280Y773938D01*
M02*
