G04 EAGLE Gerber RS-274X export*
G75*
%MOMM*%
%FSLAX34Y34*%
%LPD*%
%INSoldermask Top*%
%IPPOS*%
%AMOC8*
5,1,8,0,0,1.08239X$1,22.5*%
G01*
%ADD10R,1.003200X1.003200*%
%ADD11C,1.511200*%
%ADD12C,3.003200*%
%ADD13C,2.133600*%
%ADD14R,1.053200X3.753200*%
%ADD15R,1.053200X2.853200*%
%ADD16R,1.203200X1.303200*%
%ADD17R,1.303200X1.203200*%
%ADD18R,1.203200X1.703200*%
%ADD19R,1.703200X1.203200*%
%ADD20C,1.727200*%
%ADD21C,0.959600*%


D10*
X160140Y579120D03*
X175140Y579120D03*
D11*
X298260Y849630D02*
X311340Y849630D01*
X311340Y824230D02*
X298260Y824230D01*
X298260Y798830D02*
X311340Y798830D01*
X311340Y773430D02*
X298260Y773430D01*
X298260Y748030D02*
X311340Y748030D01*
X311340Y722630D02*
X298260Y722630D01*
X298260Y697230D02*
X311340Y697230D01*
X311340Y671830D02*
X298260Y671830D01*
X298260Y646430D02*
X311340Y646430D01*
X311340Y621030D02*
X298260Y621030D01*
X298260Y595630D02*
X311340Y595630D01*
X311340Y570230D02*
X298260Y570230D01*
X298260Y544830D02*
X311340Y544830D01*
X311340Y519430D02*
X298260Y519430D01*
X298260Y494030D02*
X311340Y494030D01*
X311340Y468630D02*
X298260Y468630D01*
X298260Y443230D02*
X311340Y443230D01*
X311340Y417830D02*
X298260Y417830D01*
X298260Y392430D02*
X311340Y392430D01*
X311340Y367030D02*
X298260Y367030D01*
X298260Y341630D02*
X311340Y341630D01*
X311340Y316230D02*
X298260Y316230D01*
X298260Y290830D02*
X311340Y290830D01*
X311340Y265430D02*
X298260Y265430D01*
X298260Y240030D02*
X311340Y240030D01*
X311340Y214630D02*
X298260Y214630D01*
X298260Y189230D02*
X311340Y189230D01*
X311340Y163830D02*
X298260Y163830D01*
X298260Y138430D02*
X311340Y138430D01*
X311340Y113030D02*
X298260Y113030D01*
X298260Y87630D02*
X311340Y87630D01*
X311340Y62230D02*
X298260Y62230D01*
X298260Y36830D02*
X311340Y36830D01*
D12*
X55060Y120200D03*
X117660Y120200D03*
X55060Y57600D03*
X117660Y57600D03*
D13*
X86360Y88900D03*
D12*
X55060Y341180D03*
X117660Y341180D03*
X55060Y278580D03*
X117660Y278580D03*
D13*
X86360Y309880D03*
D12*
X55060Y546920D03*
X117660Y546920D03*
X55060Y484320D03*
X117660Y484320D03*
D13*
X86360Y515620D03*
D14*
X60720Y853410D03*
X45720Y853410D03*
X30720Y853410D03*
D15*
X60720Y814410D03*
X45720Y814410D03*
X30720Y814410D03*
D16*
X95640Y411480D03*
X112640Y411480D03*
D17*
X187960Y529980D03*
X187960Y546980D03*
D16*
X93100Y198120D03*
X110100Y198120D03*
D18*
X187960Y489855D03*
X187960Y510905D03*
D19*
X52975Y411480D03*
X74025Y411480D03*
X52975Y198120D03*
X74025Y198120D03*
D20*
X187960Y337820D02*
X203200Y337820D01*
X203200Y312420D02*
X187960Y312420D01*
X187960Y287020D02*
X203200Y287020D01*
X203200Y261620D02*
X187960Y261620D01*
X187960Y236220D02*
X203200Y236220D01*
X203200Y210820D02*
X187960Y210820D01*
X187960Y185420D02*
X203200Y185420D01*
X203200Y160020D02*
X187960Y160020D01*
D21*
X195580Y637740D03*
X195580Y746760D03*
X236220Y596900D03*
X243840Y665480D03*
X147320Y579120D03*
X289560Y835660D03*
X71120Y749300D03*
X86360Y58420D03*
X281940Y48260D03*
X180340Y619760D03*
X114300Y619760D03*
X279400Y657860D03*
X279400Y713740D03*
X17780Y774700D03*
X86360Y482600D03*
X111760Y370840D03*
X195580Y365760D03*
X187960Y579120D03*
X60960Y795020D03*
X30480Y795020D03*
X45720Y795020D03*
M02*
