G04 EAGLE Gerber RS-274X export*
G75*
%MOMM*%
%FSLAX34Y34*%
%LPD*%
%INSilkscreen Bottom*%
%IPPOS*%
%AMOC8*
5,1,8,0,0,1.08239X$1,22.5*%
G01*
%ADD10C,0.152400*%
%ADD11C,0.076200*%


D10*
X194818Y238082D02*
X188659Y256558D01*
X182501Y238082D01*
X184040Y242701D02*
X193278Y242701D01*
X175967Y238082D02*
X175967Y256558D01*
X170834Y256558D01*
X170693Y256556D01*
X170551Y256550D01*
X170410Y256540D01*
X170269Y256527D01*
X170129Y256509D01*
X169989Y256488D01*
X169850Y256463D01*
X169712Y256434D01*
X169574Y256401D01*
X169438Y256364D01*
X169302Y256324D01*
X169168Y256280D01*
X169035Y256232D01*
X168903Y256181D01*
X168772Y256126D01*
X168644Y256067D01*
X168517Y256005D01*
X168391Y255939D01*
X168268Y255870D01*
X168147Y255798D01*
X168027Y255722D01*
X167910Y255643D01*
X167795Y255561D01*
X167682Y255476D01*
X167571Y255387D01*
X167464Y255296D01*
X167358Y255202D01*
X167255Y255105D01*
X167155Y255005D01*
X167058Y254902D01*
X166964Y254796D01*
X166873Y254689D01*
X166784Y254578D01*
X166699Y254465D01*
X166617Y254350D01*
X166538Y254233D01*
X166462Y254113D01*
X166390Y253992D01*
X166321Y253869D01*
X166255Y253743D01*
X166193Y253616D01*
X166134Y253488D01*
X166079Y253357D01*
X166028Y253225D01*
X165980Y253092D01*
X165936Y252958D01*
X165896Y252822D01*
X165859Y252686D01*
X165826Y252548D01*
X165797Y252410D01*
X165772Y252271D01*
X165751Y252131D01*
X165733Y251991D01*
X165720Y251850D01*
X165710Y251709D01*
X165704Y251567D01*
X165702Y251426D01*
X165702Y243214D01*
X165704Y243073D01*
X165710Y242931D01*
X165720Y242790D01*
X165733Y242649D01*
X165751Y242509D01*
X165772Y242369D01*
X165797Y242230D01*
X165826Y242092D01*
X165859Y241954D01*
X165896Y241818D01*
X165936Y241682D01*
X165980Y241548D01*
X166028Y241415D01*
X166079Y241283D01*
X166134Y241152D01*
X166193Y241024D01*
X166255Y240897D01*
X166321Y240771D01*
X166390Y240648D01*
X166462Y240527D01*
X166538Y240407D01*
X166617Y240290D01*
X166699Y240175D01*
X166784Y240062D01*
X166873Y239951D01*
X166964Y239844D01*
X167058Y239738D01*
X167155Y239635D01*
X167255Y239535D01*
X167358Y239438D01*
X167464Y239344D01*
X167571Y239253D01*
X167682Y239164D01*
X167795Y239079D01*
X167910Y238997D01*
X168027Y238918D01*
X168147Y238842D01*
X168268Y238770D01*
X168391Y238701D01*
X168517Y238635D01*
X168644Y238573D01*
X168772Y238514D01*
X168903Y238459D01*
X169035Y238408D01*
X169168Y238360D01*
X169302Y238316D01*
X169438Y238276D01*
X169574Y238239D01*
X169712Y238206D01*
X169850Y238177D01*
X169989Y238152D01*
X170129Y238131D01*
X170269Y238113D01*
X170410Y238100D01*
X170551Y238090D01*
X170693Y238084D01*
X170834Y238082D01*
X175967Y238082D01*
X154070Y238082D02*
X149964Y238082D01*
X154070Y238082D02*
X154196Y238084D01*
X154323Y238090D01*
X154449Y238100D01*
X154575Y238113D01*
X154700Y238131D01*
X154824Y238152D01*
X154948Y238177D01*
X155072Y238206D01*
X155194Y238239D01*
X155315Y238275D01*
X155435Y238315D01*
X155553Y238359D01*
X155670Y238407D01*
X155786Y238458D01*
X155900Y238512D01*
X156013Y238571D01*
X156123Y238632D01*
X156232Y238697D01*
X156338Y238765D01*
X156442Y238837D01*
X156544Y238911D01*
X156644Y238989D01*
X156741Y239070D01*
X156836Y239154D01*
X156928Y239240D01*
X157018Y239330D01*
X157104Y239422D01*
X157188Y239517D01*
X157269Y239614D01*
X157347Y239714D01*
X157421Y239816D01*
X157493Y239920D01*
X157561Y240026D01*
X157626Y240135D01*
X157687Y240245D01*
X157746Y240358D01*
X157800Y240472D01*
X157851Y240588D01*
X157899Y240705D01*
X157943Y240823D01*
X157983Y240943D01*
X158019Y241064D01*
X158052Y241186D01*
X158081Y241310D01*
X158106Y241434D01*
X158127Y241558D01*
X158145Y241683D01*
X158158Y241809D01*
X158168Y241935D01*
X158174Y242062D01*
X158176Y242188D01*
X158176Y252452D01*
X158174Y252578D01*
X158168Y252705D01*
X158158Y252831D01*
X158145Y252957D01*
X158127Y253082D01*
X158106Y253206D01*
X158081Y253330D01*
X158052Y253454D01*
X158019Y253576D01*
X157983Y253697D01*
X157943Y253817D01*
X157899Y253935D01*
X157851Y254052D01*
X157800Y254168D01*
X157746Y254282D01*
X157687Y254395D01*
X157626Y254505D01*
X157561Y254614D01*
X157493Y254720D01*
X157421Y254824D01*
X157347Y254926D01*
X157269Y255026D01*
X157188Y255123D01*
X157104Y255218D01*
X157018Y255310D01*
X156928Y255400D01*
X156836Y255486D01*
X156741Y255570D01*
X156644Y255651D01*
X156544Y255729D01*
X156442Y255803D01*
X156338Y255875D01*
X156232Y255943D01*
X156123Y256008D01*
X156013Y256069D01*
X155900Y256128D01*
X155786Y256182D01*
X155670Y256233D01*
X155553Y256281D01*
X155435Y256325D01*
X155315Y256365D01*
X155194Y256401D01*
X155072Y256434D01*
X154948Y256463D01*
X154824Y256488D01*
X154700Y256509D01*
X154575Y256527D01*
X154449Y256540D01*
X154323Y256550D01*
X154196Y256556D01*
X154070Y256558D01*
X149964Y256558D01*
X143643Y245267D02*
X131326Y245267D01*
X123452Y248346D02*
X118320Y248346D01*
X118179Y248344D01*
X118037Y248338D01*
X117896Y248328D01*
X117755Y248315D01*
X117615Y248297D01*
X117475Y248276D01*
X117336Y248251D01*
X117198Y248222D01*
X117060Y248189D01*
X116924Y248152D01*
X116788Y248112D01*
X116654Y248068D01*
X116521Y248020D01*
X116389Y247969D01*
X116258Y247914D01*
X116130Y247855D01*
X116003Y247793D01*
X115877Y247727D01*
X115754Y247658D01*
X115633Y247586D01*
X115513Y247510D01*
X115396Y247431D01*
X115281Y247349D01*
X115168Y247264D01*
X115057Y247175D01*
X114950Y247084D01*
X114844Y246990D01*
X114741Y246893D01*
X114641Y246793D01*
X114544Y246690D01*
X114450Y246584D01*
X114359Y246477D01*
X114270Y246366D01*
X114185Y246253D01*
X114103Y246138D01*
X114024Y246021D01*
X113948Y245901D01*
X113876Y245780D01*
X113807Y245657D01*
X113741Y245531D01*
X113679Y245404D01*
X113620Y245276D01*
X113565Y245145D01*
X113514Y245013D01*
X113466Y244880D01*
X113422Y244746D01*
X113382Y244610D01*
X113345Y244474D01*
X113312Y244336D01*
X113283Y244198D01*
X113258Y244059D01*
X113237Y243919D01*
X113219Y243779D01*
X113206Y243638D01*
X113196Y243497D01*
X113190Y243355D01*
X113188Y243214D01*
X113190Y243073D01*
X113196Y242931D01*
X113206Y242790D01*
X113219Y242649D01*
X113237Y242509D01*
X113258Y242369D01*
X113283Y242230D01*
X113312Y242092D01*
X113345Y241954D01*
X113382Y241818D01*
X113422Y241682D01*
X113466Y241548D01*
X113514Y241415D01*
X113565Y241283D01*
X113620Y241152D01*
X113679Y241024D01*
X113741Y240897D01*
X113807Y240771D01*
X113876Y240648D01*
X113948Y240527D01*
X114024Y240407D01*
X114103Y240290D01*
X114185Y240175D01*
X114270Y240062D01*
X114359Y239951D01*
X114450Y239844D01*
X114544Y239738D01*
X114641Y239635D01*
X114741Y239535D01*
X114844Y239438D01*
X114950Y239344D01*
X115057Y239253D01*
X115168Y239164D01*
X115281Y239079D01*
X115396Y238997D01*
X115513Y238918D01*
X115633Y238842D01*
X115754Y238770D01*
X115877Y238701D01*
X116003Y238635D01*
X116130Y238573D01*
X116258Y238514D01*
X116389Y238459D01*
X116521Y238408D01*
X116654Y238360D01*
X116788Y238316D01*
X116924Y238276D01*
X117060Y238239D01*
X117198Y238206D01*
X117336Y238177D01*
X117475Y238152D01*
X117615Y238131D01*
X117755Y238113D01*
X117896Y238100D01*
X118037Y238090D01*
X118179Y238084D01*
X118320Y238082D01*
X123452Y238082D01*
X123452Y256558D01*
X118320Y256558D01*
X118194Y256556D01*
X118067Y256550D01*
X117941Y256540D01*
X117815Y256527D01*
X117690Y256509D01*
X117566Y256488D01*
X117442Y256463D01*
X117318Y256434D01*
X117196Y256401D01*
X117075Y256365D01*
X116955Y256325D01*
X116837Y256281D01*
X116720Y256233D01*
X116604Y256182D01*
X116490Y256128D01*
X116377Y256069D01*
X116267Y256008D01*
X116158Y255943D01*
X116052Y255875D01*
X115948Y255803D01*
X115846Y255729D01*
X115746Y255651D01*
X115649Y255570D01*
X115554Y255486D01*
X115462Y255400D01*
X115372Y255310D01*
X115286Y255218D01*
X115202Y255123D01*
X115121Y255026D01*
X115043Y254926D01*
X114969Y254824D01*
X114897Y254720D01*
X114829Y254614D01*
X114764Y254505D01*
X114703Y254395D01*
X114644Y254282D01*
X114590Y254168D01*
X114539Y254052D01*
X114491Y253935D01*
X114447Y253817D01*
X114407Y253697D01*
X114371Y253576D01*
X114338Y253454D01*
X114309Y253330D01*
X114284Y253206D01*
X114263Y253082D01*
X114245Y252957D01*
X114232Y252831D01*
X114222Y252705D01*
X114216Y252578D01*
X114214Y252452D01*
X114216Y252326D01*
X114222Y252199D01*
X114232Y252073D01*
X114245Y251947D01*
X114263Y251822D01*
X114284Y251698D01*
X114309Y251574D01*
X114338Y251450D01*
X114371Y251328D01*
X114407Y251207D01*
X114447Y251087D01*
X114491Y250969D01*
X114539Y250852D01*
X114590Y250736D01*
X114644Y250622D01*
X114703Y250509D01*
X114764Y250399D01*
X114829Y250290D01*
X114897Y250184D01*
X114969Y250080D01*
X115043Y249978D01*
X115121Y249878D01*
X115202Y249781D01*
X115286Y249686D01*
X115372Y249594D01*
X115462Y249504D01*
X115554Y249418D01*
X115649Y249334D01*
X115746Y249253D01*
X115846Y249175D01*
X115948Y249101D01*
X116052Y249029D01*
X116158Y248961D01*
X116267Y248896D01*
X116377Y248835D01*
X116490Y248776D01*
X116604Y248722D01*
X116720Y248671D01*
X116837Y248623D01*
X116955Y248579D01*
X117075Y248539D01*
X117196Y248503D01*
X117318Y248470D01*
X117442Y248441D01*
X117566Y248416D01*
X117690Y248395D01*
X117815Y248377D01*
X117941Y248364D01*
X118067Y248354D01*
X118194Y248348D01*
X118320Y248346D01*
X106967Y251426D02*
X106967Y243214D01*
X106966Y251426D02*
X106964Y251567D01*
X106958Y251709D01*
X106948Y251850D01*
X106935Y251991D01*
X106917Y252131D01*
X106896Y252271D01*
X106871Y252410D01*
X106842Y252548D01*
X106809Y252686D01*
X106772Y252822D01*
X106732Y252958D01*
X106688Y253092D01*
X106640Y253225D01*
X106589Y253357D01*
X106534Y253488D01*
X106475Y253616D01*
X106413Y253743D01*
X106347Y253869D01*
X106278Y253992D01*
X106206Y254113D01*
X106130Y254233D01*
X106051Y254350D01*
X105969Y254465D01*
X105884Y254578D01*
X105795Y254689D01*
X105704Y254796D01*
X105610Y254902D01*
X105513Y255005D01*
X105413Y255105D01*
X105310Y255202D01*
X105204Y255296D01*
X105097Y255387D01*
X104986Y255476D01*
X104873Y255561D01*
X104758Y255643D01*
X104641Y255722D01*
X104521Y255798D01*
X104400Y255870D01*
X104277Y255939D01*
X104151Y256005D01*
X104024Y256067D01*
X103896Y256126D01*
X103765Y256181D01*
X103633Y256232D01*
X103500Y256280D01*
X103366Y256324D01*
X103230Y256364D01*
X103094Y256401D01*
X102956Y256434D01*
X102818Y256463D01*
X102679Y256488D01*
X102539Y256509D01*
X102399Y256527D01*
X102258Y256540D01*
X102117Y256550D01*
X101975Y256556D01*
X101834Y256558D01*
X101693Y256556D01*
X101551Y256550D01*
X101410Y256540D01*
X101269Y256527D01*
X101129Y256509D01*
X100989Y256488D01*
X100850Y256463D01*
X100712Y256434D01*
X100574Y256401D01*
X100438Y256364D01*
X100302Y256324D01*
X100168Y256280D01*
X100035Y256232D01*
X99903Y256181D01*
X99772Y256126D01*
X99644Y256067D01*
X99517Y256005D01*
X99391Y255939D01*
X99268Y255870D01*
X99147Y255798D01*
X99027Y255722D01*
X98910Y255643D01*
X98795Y255561D01*
X98682Y255476D01*
X98571Y255387D01*
X98464Y255296D01*
X98358Y255202D01*
X98255Y255105D01*
X98155Y255005D01*
X98058Y254902D01*
X97964Y254796D01*
X97873Y254689D01*
X97784Y254578D01*
X97699Y254465D01*
X97617Y254350D01*
X97538Y254233D01*
X97462Y254113D01*
X97390Y253992D01*
X97321Y253869D01*
X97255Y253743D01*
X97193Y253616D01*
X97134Y253488D01*
X97079Y253357D01*
X97028Y253225D01*
X96980Y253092D01*
X96936Y252958D01*
X96896Y252822D01*
X96859Y252686D01*
X96826Y252548D01*
X96797Y252410D01*
X96772Y252271D01*
X96751Y252131D01*
X96733Y251991D01*
X96720Y251850D01*
X96710Y251709D01*
X96704Y251567D01*
X96702Y251426D01*
X96702Y243214D01*
X96704Y243073D01*
X96710Y242931D01*
X96720Y242790D01*
X96733Y242649D01*
X96751Y242509D01*
X96772Y242369D01*
X96797Y242230D01*
X96826Y242092D01*
X96859Y241954D01*
X96896Y241818D01*
X96936Y241682D01*
X96980Y241548D01*
X97028Y241415D01*
X97079Y241283D01*
X97134Y241152D01*
X97193Y241024D01*
X97255Y240897D01*
X97321Y240771D01*
X97390Y240648D01*
X97462Y240527D01*
X97538Y240407D01*
X97617Y240290D01*
X97699Y240175D01*
X97784Y240062D01*
X97873Y239951D01*
X97964Y239844D01*
X98058Y239738D01*
X98155Y239635D01*
X98255Y239535D01*
X98358Y239438D01*
X98464Y239344D01*
X98571Y239253D01*
X98682Y239164D01*
X98795Y239079D01*
X98910Y238997D01*
X99027Y238918D01*
X99147Y238842D01*
X99268Y238770D01*
X99391Y238701D01*
X99517Y238635D01*
X99644Y238573D01*
X99772Y238514D01*
X99903Y238459D01*
X100035Y238408D01*
X100168Y238360D01*
X100302Y238316D01*
X100438Y238276D01*
X100574Y238239D01*
X100712Y238206D01*
X100850Y238177D01*
X100989Y238152D01*
X101129Y238131D01*
X101269Y238113D01*
X101410Y238100D01*
X101551Y238090D01*
X101693Y238084D01*
X101834Y238082D01*
X101975Y238084D01*
X102117Y238090D01*
X102258Y238100D01*
X102399Y238113D01*
X102539Y238131D01*
X102679Y238152D01*
X102818Y238177D01*
X102956Y238206D01*
X103094Y238239D01*
X103230Y238276D01*
X103366Y238316D01*
X103500Y238360D01*
X103633Y238408D01*
X103765Y238459D01*
X103896Y238514D01*
X104024Y238573D01*
X104151Y238635D01*
X104277Y238701D01*
X104400Y238770D01*
X104521Y238842D01*
X104641Y238918D01*
X104758Y238997D01*
X104873Y239079D01*
X104986Y239164D01*
X105097Y239253D01*
X105204Y239344D01*
X105310Y239438D01*
X105413Y239535D01*
X105513Y239635D01*
X105610Y239738D01*
X105704Y239844D01*
X105795Y239951D01*
X105884Y240062D01*
X105969Y240175D01*
X106051Y240290D01*
X106130Y240407D01*
X106206Y240527D01*
X106278Y240648D01*
X106347Y240771D01*
X106413Y240897D01*
X106475Y241024D01*
X106534Y241152D01*
X106589Y241283D01*
X106640Y241415D01*
X106688Y241548D01*
X106732Y241682D01*
X106772Y241818D01*
X106809Y241954D01*
X106842Y242092D01*
X106871Y242230D01*
X106896Y242369D01*
X106917Y242509D01*
X106935Y242649D01*
X106948Y242790D01*
X106958Y242931D01*
X106964Y243073D01*
X106966Y243214D01*
X90743Y238082D02*
X84584Y256558D01*
X78426Y238082D01*
X79965Y242701D02*
X89203Y242701D01*
X71810Y238082D02*
X71810Y256558D01*
X66677Y256558D01*
X66536Y256556D01*
X66394Y256550D01*
X66253Y256540D01*
X66112Y256527D01*
X65972Y256509D01*
X65832Y256488D01*
X65693Y256463D01*
X65555Y256434D01*
X65417Y256401D01*
X65281Y256364D01*
X65145Y256324D01*
X65011Y256280D01*
X64878Y256232D01*
X64746Y256181D01*
X64615Y256126D01*
X64487Y256067D01*
X64360Y256005D01*
X64234Y255939D01*
X64111Y255870D01*
X63990Y255798D01*
X63870Y255722D01*
X63753Y255643D01*
X63638Y255561D01*
X63525Y255476D01*
X63414Y255387D01*
X63307Y255296D01*
X63201Y255202D01*
X63098Y255105D01*
X62998Y255005D01*
X62901Y254902D01*
X62807Y254796D01*
X62716Y254689D01*
X62627Y254578D01*
X62542Y254465D01*
X62460Y254350D01*
X62381Y254233D01*
X62305Y254113D01*
X62233Y253992D01*
X62164Y253869D01*
X62098Y253743D01*
X62036Y253616D01*
X61977Y253488D01*
X61922Y253357D01*
X61871Y253225D01*
X61823Y253092D01*
X61779Y252958D01*
X61739Y252822D01*
X61702Y252686D01*
X61669Y252548D01*
X61640Y252410D01*
X61615Y252271D01*
X61594Y252131D01*
X61576Y251991D01*
X61563Y251850D01*
X61553Y251709D01*
X61547Y251567D01*
X61545Y251426D01*
X61547Y251285D01*
X61553Y251143D01*
X61563Y251002D01*
X61576Y250861D01*
X61594Y250721D01*
X61615Y250581D01*
X61640Y250442D01*
X61669Y250304D01*
X61702Y250166D01*
X61739Y250030D01*
X61779Y249894D01*
X61823Y249760D01*
X61871Y249627D01*
X61922Y249495D01*
X61977Y249364D01*
X62036Y249236D01*
X62098Y249109D01*
X62164Y248983D01*
X62233Y248860D01*
X62305Y248739D01*
X62381Y248619D01*
X62460Y248502D01*
X62542Y248387D01*
X62627Y248274D01*
X62716Y248163D01*
X62807Y248056D01*
X62901Y247950D01*
X62998Y247847D01*
X63098Y247747D01*
X63201Y247650D01*
X63307Y247556D01*
X63414Y247465D01*
X63525Y247376D01*
X63638Y247291D01*
X63753Y247209D01*
X63870Y247130D01*
X63990Y247054D01*
X64111Y246982D01*
X64234Y246913D01*
X64360Y246847D01*
X64487Y246785D01*
X64615Y246726D01*
X64746Y246671D01*
X64878Y246620D01*
X65011Y246572D01*
X65145Y246528D01*
X65281Y246488D01*
X65417Y246451D01*
X65555Y246418D01*
X65693Y246389D01*
X65832Y246364D01*
X65972Y246343D01*
X66112Y246325D01*
X66253Y246312D01*
X66394Y246302D01*
X66536Y246296D01*
X66677Y246294D01*
X71810Y246294D01*
X65651Y246294D02*
X61545Y238082D01*
X54067Y238082D02*
X54067Y256558D01*
X48934Y256558D01*
X48793Y256556D01*
X48651Y256550D01*
X48510Y256540D01*
X48369Y256527D01*
X48229Y256509D01*
X48089Y256488D01*
X47950Y256463D01*
X47812Y256434D01*
X47674Y256401D01*
X47538Y256364D01*
X47402Y256324D01*
X47268Y256280D01*
X47135Y256232D01*
X47003Y256181D01*
X46872Y256126D01*
X46744Y256067D01*
X46617Y256005D01*
X46491Y255939D01*
X46368Y255870D01*
X46247Y255798D01*
X46127Y255722D01*
X46010Y255643D01*
X45895Y255561D01*
X45782Y255476D01*
X45671Y255387D01*
X45564Y255296D01*
X45458Y255202D01*
X45355Y255105D01*
X45255Y255005D01*
X45158Y254902D01*
X45064Y254796D01*
X44973Y254689D01*
X44884Y254578D01*
X44799Y254465D01*
X44717Y254350D01*
X44638Y254233D01*
X44562Y254113D01*
X44490Y253992D01*
X44421Y253869D01*
X44355Y253743D01*
X44293Y253616D01*
X44234Y253488D01*
X44179Y253357D01*
X44128Y253225D01*
X44080Y253092D01*
X44036Y252958D01*
X43996Y252822D01*
X43959Y252686D01*
X43926Y252548D01*
X43897Y252410D01*
X43872Y252271D01*
X43851Y252131D01*
X43833Y251991D01*
X43820Y251850D01*
X43810Y251709D01*
X43804Y251567D01*
X43802Y251426D01*
X43802Y243214D01*
X43804Y243073D01*
X43810Y242931D01*
X43820Y242790D01*
X43833Y242649D01*
X43851Y242509D01*
X43872Y242369D01*
X43897Y242230D01*
X43926Y242092D01*
X43959Y241954D01*
X43996Y241818D01*
X44036Y241682D01*
X44080Y241548D01*
X44128Y241415D01*
X44179Y241283D01*
X44234Y241152D01*
X44293Y241024D01*
X44355Y240897D01*
X44421Y240771D01*
X44490Y240648D01*
X44562Y240527D01*
X44638Y240407D01*
X44717Y240290D01*
X44799Y240175D01*
X44884Y240062D01*
X44973Y239951D01*
X45064Y239844D01*
X45158Y239738D01*
X45255Y239635D01*
X45355Y239535D01*
X45458Y239438D01*
X45564Y239344D01*
X45671Y239253D01*
X45782Y239164D01*
X45895Y239079D01*
X46010Y238997D01*
X46127Y238918D01*
X46247Y238842D01*
X46368Y238770D01*
X46491Y238701D01*
X46617Y238635D01*
X46744Y238573D01*
X46872Y238514D01*
X47003Y238459D01*
X47135Y238408D01*
X47268Y238360D01*
X47402Y238316D01*
X47538Y238276D01*
X47674Y238239D01*
X47812Y238206D01*
X47950Y238177D01*
X48089Y238152D01*
X48229Y238131D01*
X48369Y238113D01*
X48510Y238100D01*
X48651Y238090D01*
X48793Y238084D01*
X48934Y238082D01*
X54067Y238082D01*
X184554Y221939D02*
X184556Y222073D01*
X184562Y222208D01*
X184572Y222342D01*
X184585Y222475D01*
X184603Y222608D01*
X184624Y222741D01*
X184649Y222873D01*
X184679Y223004D01*
X184711Y223134D01*
X184748Y223264D01*
X184788Y223392D01*
X184833Y223519D01*
X184880Y223644D01*
X184932Y223768D01*
X184987Y223891D01*
X185045Y224012D01*
X185107Y224131D01*
X185173Y224248D01*
X185242Y224364D01*
X185314Y224477D01*
X185389Y224588D01*
X185468Y224697D01*
X185550Y224804D01*
X185635Y224908D01*
X185722Y225010D01*
X185813Y225109D01*
X185907Y225205D01*
X186003Y225299D01*
X186102Y225389D01*
X186204Y225477D01*
X186308Y225562D01*
X186415Y225644D01*
X186524Y225723D01*
X186635Y225798D01*
X186748Y225870D01*
X186863Y225939D01*
X186981Y226005D01*
X187100Y226067D01*
X187221Y226125D01*
X187343Y226180D01*
X187468Y226232D01*
X187593Y226279D01*
X187720Y226324D01*
X187848Y226364D01*
X187977Y226401D01*
X188108Y226433D01*
X188239Y226463D01*
X188371Y226488D01*
X188504Y226509D01*
X188637Y226527D01*
X188770Y226540D01*
X188904Y226550D01*
X189039Y226556D01*
X189173Y226558D01*
X189325Y226556D01*
X189477Y226550D01*
X189629Y226540D01*
X189781Y226527D01*
X189932Y226509D01*
X190083Y226488D01*
X190233Y226462D01*
X190383Y226433D01*
X190531Y226400D01*
X190679Y226364D01*
X190826Y226323D01*
X190972Y226279D01*
X191116Y226231D01*
X191260Y226179D01*
X191401Y226124D01*
X191542Y226065D01*
X191681Y226002D01*
X191818Y225936D01*
X191953Y225866D01*
X192087Y225793D01*
X192219Y225717D01*
X192348Y225637D01*
X192476Y225554D01*
X192601Y225467D01*
X192725Y225378D01*
X192845Y225285D01*
X192964Y225189D01*
X193080Y225091D01*
X193193Y224989D01*
X193304Y224884D01*
X193412Y224777D01*
X193517Y224667D01*
X193619Y224554D01*
X193719Y224439D01*
X193815Y224321D01*
X193908Y224200D01*
X193998Y224078D01*
X194086Y223953D01*
X194169Y223825D01*
X194250Y223696D01*
X194327Y223565D01*
X194401Y223432D01*
X194471Y223297D01*
X194538Y223160D01*
X194601Y223021D01*
X194661Y222881D01*
X194717Y222740D01*
X194770Y222597D01*
X194818Y222452D01*
X186094Y218347D02*
X185995Y218443D01*
X185898Y218543D01*
X185805Y218645D01*
X185715Y218750D01*
X185627Y218858D01*
X185542Y218967D01*
X185461Y219079D01*
X185383Y219194D01*
X185308Y219310D01*
X185236Y219429D01*
X185168Y219549D01*
X185103Y219671D01*
X185041Y219796D01*
X184983Y219921D01*
X184928Y220049D01*
X184877Y220177D01*
X184830Y220308D01*
X184786Y220439D01*
X184746Y220572D01*
X184710Y220705D01*
X184677Y220840D01*
X184648Y220975D01*
X184623Y221112D01*
X184602Y221249D01*
X184585Y221386D01*
X184571Y221524D01*
X184562Y221662D01*
X184556Y221800D01*
X184554Y221939D01*
X186093Y218346D02*
X194818Y208082D01*
X184554Y208082D01*
X177568Y217320D02*
X177564Y217683D01*
X177551Y218047D01*
X177529Y218410D01*
X177499Y218772D01*
X177460Y219133D01*
X177412Y219494D01*
X177356Y219853D01*
X177291Y220210D01*
X177218Y220566D01*
X177136Y220921D01*
X177046Y221273D01*
X176947Y221623D01*
X176841Y221970D01*
X176725Y222315D01*
X176602Y222657D01*
X176471Y222996D01*
X176331Y223331D01*
X176184Y223663D01*
X176028Y223992D01*
X176029Y223992D02*
X175988Y224105D01*
X175943Y224218D01*
X175895Y224328D01*
X175843Y224438D01*
X175788Y224545D01*
X175730Y224651D01*
X175668Y224755D01*
X175603Y224856D01*
X175535Y224956D01*
X175463Y225054D01*
X175389Y225149D01*
X175311Y225241D01*
X175231Y225332D01*
X175148Y225419D01*
X175062Y225504D01*
X174973Y225586D01*
X174882Y225665D01*
X174788Y225742D01*
X174692Y225815D01*
X174594Y225885D01*
X174494Y225952D01*
X174391Y226016D01*
X174287Y226077D01*
X174180Y226134D01*
X174072Y226188D01*
X173962Y226238D01*
X173851Y226285D01*
X173738Y226328D01*
X173624Y226367D01*
X173508Y226403D01*
X173392Y226436D01*
X173275Y226464D01*
X173156Y226489D01*
X173037Y226510D01*
X172918Y226527D01*
X172798Y226541D01*
X172677Y226550D01*
X172557Y226556D01*
X172436Y226558D01*
X172315Y226556D01*
X172195Y226550D01*
X172074Y226541D01*
X171954Y226527D01*
X171835Y226510D01*
X171716Y226489D01*
X171597Y226464D01*
X171480Y226436D01*
X171364Y226403D01*
X171248Y226367D01*
X171134Y226328D01*
X171021Y226285D01*
X170910Y226238D01*
X170800Y226188D01*
X170692Y226134D01*
X170585Y226077D01*
X170481Y226016D01*
X170378Y225952D01*
X170278Y225885D01*
X170180Y225815D01*
X170084Y225742D01*
X169990Y225665D01*
X169899Y225586D01*
X169810Y225504D01*
X169724Y225419D01*
X169641Y225332D01*
X169561Y225241D01*
X169483Y225149D01*
X169409Y225054D01*
X169337Y224956D01*
X169269Y224856D01*
X169204Y224755D01*
X169142Y224651D01*
X169084Y224545D01*
X169029Y224438D01*
X168977Y224328D01*
X168929Y224218D01*
X168884Y224105D01*
X168843Y223992D01*
X168844Y223992D02*
X168688Y223663D01*
X168541Y223331D01*
X168401Y222995D01*
X168270Y222656D01*
X168147Y222315D01*
X168031Y221970D01*
X167925Y221622D01*
X167826Y221272D01*
X167736Y220920D01*
X167654Y220566D01*
X167581Y220210D01*
X167516Y219853D01*
X167460Y219493D01*
X167412Y219133D01*
X167373Y218772D01*
X167343Y218410D01*
X167321Y218047D01*
X167308Y217683D01*
X167304Y217320D01*
X177568Y217320D02*
X177564Y216957D01*
X177551Y216593D01*
X177529Y216230D01*
X177499Y215868D01*
X177460Y215507D01*
X177412Y215146D01*
X177356Y214787D01*
X177291Y214430D01*
X177218Y214074D01*
X177136Y213719D01*
X177046Y213367D01*
X176947Y213017D01*
X176841Y212670D01*
X176725Y212325D01*
X176602Y211983D01*
X176471Y211644D01*
X176331Y211309D01*
X176184Y210977D01*
X176028Y210648D01*
X176029Y210648D02*
X175988Y210535D01*
X175943Y210422D01*
X175895Y210312D01*
X175843Y210202D01*
X175788Y210095D01*
X175730Y209989D01*
X175668Y209885D01*
X175603Y209784D01*
X175535Y209684D01*
X175463Y209586D01*
X175389Y209491D01*
X175311Y209399D01*
X175231Y209308D01*
X175148Y209221D01*
X175062Y209136D01*
X174973Y209054D01*
X174882Y208975D01*
X174788Y208898D01*
X174692Y208825D01*
X174594Y208755D01*
X174494Y208688D01*
X174391Y208624D01*
X174287Y208563D01*
X174180Y208506D01*
X174072Y208452D01*
X173962Y208402D01*
X173851Y208355D01*
X173738Y208312D01*
X173624Y208273D01*
X173508Y208237D01*
X173392Y208204D01*
X173275Y208176D01*
X173156Y208151D01*
X173037Y208130D01*
X172918Y208113D01*
X172798Y208099D01*
X172677Y208090D01*
X172557Y208084D01*
X172436Y208082D01*
X168843Y210648D02*
X168687Y210977D01*
X168540Y211309D01*
X168400Y211644D01*
X168269Y211983D01*
X168146Y212325D01*
X168030Y212670D01*
X167924Y213017D01*
X167825Y213367D01*
X167735Y213719D01*
X167653Y214074D01*
X167580Y214430D01*
X167515Y214787D01*
X167459Y215146D01*
X167411Y215507D01*
X167372Y215868D01*
X167342Y216230D01*
X167320Y216593D01*
X167307Y216957D01*
X167303Y217320D01*
X168843Y210648D02*
X168884Y210535D01*
X168929Y210422D01*
X168977Y210312D01*
X169029Y210202D01*
X169084Y210095D01*
X169142Y209989D01*
X169204Y209885D01*
X169269Y209784D01*
X169337Y209684D01*
X169409Y209586D01*
X169483Y209491D01*
X169561Y209399D01*
X169641Y209308D01*
X169724Y209221D01*
X169810Y209136D01*
X169899Y209054D01*
X169990Y208975D01*
X170084Y208898D01*
X170180Y208825D01*
X170278Y208755D01*
X170378Y208688D01*
X170481Y208624D01*
X170585Y208563D01*
X170692Y208506D01*
X170800Y208452D01*
X170910Y208402D01*
X171021Y208355D01*
X171134Y208312D01*
X171248Y208273D01*
X171364Y208237D01*
X171480Y208204D01*
X171597Y208176D01*
X171716Y208151D01*
X171835Y208130D01*
X171954Y208113D01*
X172074Y208099D01*
X172195Y208090D01*
X172315Y208084D01*
X172436Y208082D01*
X176542Y212188D02*
X168330Y222452D01*
X160318Y222452D02*
X155186Y226558D01*
X155186Y208082D01*
X160318Y208082D02*
X150054Y208082D01*
X138962Y216294D02*
X132804Y216294D01*
X138962Y216293D02*
X139088Y216295D01*
X139215Y216301D01*
X139341Y216311D01*
X139467Y216324D01*
X139592Y216342D01*
X139716Y216363D01*
X139840Y216388D01*
X139964Y216417D01*
X140086Y216450D01*
X140207Y216486D01*
X140327Y216526D01*
X140445Y216570D01*
X140562Y216618D01*
X140678Y216669D01*
X140792Y216723D01*
X140905Y216782D01*
X141015Y216843D01*
X141124Y216908D01*
X141230Y216976D01*
X141334Y217048D01*
X141436Y217122D01*
X141536Y217200D01*
X141633Y217281D01*
X141728Y217365D01*
X141820Y217451D01*
X141910Y217541D01*
X141996Y217633D01*
X142080Y217728D01*
X142161Y217825D01*
X142239Y217925D01*
X142313Y218027D01*
X142385Y218131D01*
X142453Y218237D01*
X142518Y218346D01*
X142579Y218456D01*
X142638Y218569D01*
X142692Y218683D01*
X142743Y218799D01*
X142791Y218916D01*
X142835Y219034D01*
X142875Y219154D01*
X142911Y219275D01*
X142944Y219398D01*
X142973Y219521D01*
X142998Y219645D01*
X143019Y219769D01*
X143037Y219894D01*
X143050Y220020D01*
X143060Y220146D01*
X143066Y220273D01*
X143068Y220399D01*
X143068Y221426D01*
X143066Y221567D01*
X143060Y221709D01*
X143050Y221850D01*
X143037Y221991D01*
X143019Y222131D01*
X142998Y222271D01*
X142973Y222410D01*
X142944Y222548D01*
X142911Y222686D01*
X142874Y222822D01*
X142834Y222958D01*
X142790Y223092D01*
X142742Y223225D01*
X142691Y223357D01*
X142636Y223488D01*
X142577Y223616D01*
X142515Y223743D01*
X142449Y223869D01*
X142380Y223992D01*
X142308Y224113D01*
X142232Y224233D01*
X142153Y224350D01*
X142071Y224465D01*
X141986Y224578D01*
X141897Y224689D01*
X141806Y224796D01*
X141712Y224902D01*
X141615Y225005D01*
X141515Y225105D01*
X141412Y225202D01*
X141306Y225296D01*
X141199Y225387D01*
X141088Y225476D01*
X140975Y225561D01*
X140860Y225643D01*
X140743Y225722D01*
X140623Y225798D01*
X140502Y225870D01*
X140379Y225939D01*
X140253Y226005D01*
X140126Y226067D01*
X139998Y226126D01*
X139867Y226181D01*
X139735Y226232D01*
X139602Y226280D01*
X139468Y226324D01*
X139332Y226364D01*
X139196Y226401D01*
X139058Y226434D01*
X138920Y226463D01*
X138781Y226488D01*
X138641Y226509D01*
X138501Y226527D01*
X138360Y226540D01*
X138219Y226550D01*
X138077Y226556D01*
X137936Y226558D01*
X137795Y226556D01*
X137653Y226550D01*
X137512Y226540D01*
X137371Y226527D01*
X137231Y226509D01*
X137091Y226488D01*
X136952Y226463D01*
X136814Y226434D01*
X136676Y226401D01*
X136540Y226364D01*
X136404Y226324D01*
X136270Y226280D01*
X136137Y226232D01*
X136005Y226181D01*
X135874Y226126D01*
X135746Y226067D01*
X135619Y226005D01*
X135493Y225939D01*
X135370Y225870D01*
X135249Y225798D01*
X135129Y225722D01*
X135012Y225643D01*
X134897Y225561D01*
X134784Y225476D01*
X134673Y225387D01*
X134566Y225296D01*
X134460Y225202D01*
X134357Y225105D01*
X134257Y225005D01*
X134160Y224902D01*
X134066Y224796D01*
X133975Y224689D01*
X133886Y224578D01*
X133801Y224465D01*
X133719Y224350D01*
X133640Y224233D01*
X133564Y224113D01*
X133492Y223992D01*
X133423Y223869D01*
X133357Y223743D01*
X133295Y223616D01*
X133236Y223488D01*
X133181Y223357D01*
X133130Y223225D01*
X133082Y223092D01*
X133038Y222958D01*
X132998Y222822D01*
X132961Y222686D01*
X132928Y222548D01*
X132899Y222410D01*
X132874Y222271D01*
X132853Y222131D01*
X132835Y221991D01*
X132822Y221850D01*
X132812Y221709D01*
X132806Y221567D01*
X132804Y221426D01*
X132804Y216294D01*
X132803Y216294D02*
X132805Y216096D01*
X132813Y215897D01*
X132825Y215699D01*
X132841Y215501D01*
X132863Y215304D01*
X132889Y215107D01*
X132920Y214911D01*
X132956Y214716D01*
X132996Y214522D01*
X133042Y214329D01*
X133091Y214137D01*
X133146Y213946D01*
X133205Y213756D01*
X133269Y213568D01*
X133337Y213382D01*
X133409Y213197D01*
X133486Y213014D01*
X133568Y212833D01*
X133654Y212655D01*
X133744Y212478D01*
X133838Y212303D01*
X133937Y212131D01*
X134039Y211961D01*
X134146Y211794D01*
X134257Y211629D01*
X134371Y211467D01*
X134490Y211308D01*
X134612Y211152D01*
X134738Y210999D01*
X134868Y210848D01*
X135002Y210701D01*
X135139Y210558D01*
X135279Y210418D01*
X135422Y210281D01*
X135569Y210147D01*
X135720Y210017D01*
X135873Y209891D01*
X136029Y209769D01*
X136188Y209650D01*
X136350Y209536D01*
X136515Y209425D01*
X136682Y209318D01*
X136852Y209216D01*
X137024Y209117D01*
X137199Y209023D01*
X137376Y208933D01*
X137554Y208847D01*
X137735Y208765D01*
X137918Y208688D01*
X138103Y208616D01*
X138289Y208548D01*
X138477Y208484D01*
X138667Y208425D01*
X138858Y208370D01*
X139050Y208321D01*
X139243Y208275D01*
X139437Y208235D01*
X139632Y208199D01*
X139828Y208168D01*
X140025Y208142D01*
X140222Y208120D01*
X140420Y208104D01*
X140618Y208092D01*
X140817Y208084D01*
X141015Y208082D01*
X194818Y196558D02*
X194818Y178082D01*
X184554Y178082D02*
X194818Y196558D01*
X184554Y196558D02*
X184554Y178082D01*
X177117Y182188D02*
X177117Y186294D01*
X177115Y186420D01*
X177109Y186547D01*
X177099Y186673D01*
X177086Y186799D01*
X177068Y186924D01*
X177047Y187048D01*
X177022Y187172D01*
X176993Y187296D01*
X176960Y187418D01*
X176924Y187539D01*
X176884Y187659D01*
X176840Y187777D01*
X176792Y187894D01*
X176741Y188010D01*
X176687Y188124D01*
X176628Y188237D01*
X176567Y188347D01*
X176502Y188456D01*
X176434Y188562D01*
X176362Y188666D01*
X176288Y188768D01*
X176210Y188868D01*
X176129Y188965D01*
X176045Y189060D01*
X175959Y189152D01*
X175869Y189242D01*
X175777Y189328D01*
X175682Y189412D01*
X175585Y189493D01*
X175485Y189571D01*
X175383Y189645D01*
X175279Y189717D01*
X175173Y189785D01*
X175064Y189850D01*
X174954Y189911D01*
X174841Y189970D01*
X174727Y190024D01*
X174611Y190075D01*
X174494Y190123D01*
X174376Y190167D01*
X174256Y190207D01*
X174135Y190243D01*
X174013Y190276D01*
X173889Y190305D01*
X173765Y190330D01*
X173641Y190351D01*
X173516Y190369D01*
X173390Y190382D01*
X173264Y190392D01*
X173137Y190398D01*
X173011Y190400D01*
X172885Y190398D01*
X172758Y190392D01*
X172632Y190382D01*
X172506Y190369D01*
X172381Y190351D01*
X172257Y190330D01*
X172133Y190305D01*
X172009Y190276D01*
X171887Y190243D01*
X171766Y190207D01*
X171646Y190167D01*
X171528Y190123D01*
X171411Y190075D01*
X171295Y190024D01*
X171181Y189970D01*
X171068Y189911D01*
X170958Y189850D01*
X170849Y189785D01*
X170743Y189717D01*
X170639Y189645D01*
X170537Y189571D01*
X170437Y189493D01*
X170340Y189412D01*
X170245Y189328D01*
X170153Y189242D01*
X170063Y189152D01*
X169977Y189060D01*
X169893Y188965D01*
X169812Y188868D01*
X169734Y188768D01*
X169660Y188666D01*
X169588Y188562D01*
X169520Y188456D01*
X169455Y188347D01*
X169394Y188237D01*
X169335Y188124D01*
X169281Y188010D01*
X169230Y187894D01*
X169182Y187777D01*
X169138Y187659D01*
X169098Y187539D01*
X169062Y187418D01*
X169029Y187296D01*
X169000Y187172D01*
X168975Y187048D01*
X168954Y186924D01*
X168936Y186799D01*
X168923Y186673D01*
X168913Y186547D01*
X168907Y186420D01*
X168905Y186294D01*
X168905Y182188D01*
X168907Y182062D01*
X168913Y181935D01*
X168923Y181809D01*
X168936Y181683D01*
X168954Y181558D01*
X168975Y181434D01*
X169000Y181310D01*
X169029Y181186D01*
X169062Y181064D01*
X169098Y180943D01*
X169138Y180823D01*
X169182Y180705D01*
X169230Y180588D01*
X169281Y180472D01*
X169335Y180358D01*
X169394Y180245D01*
X169455Y180135D01*
X169520Y180026D01*
X169588Y179920D01*
X169660Y179816D01*
X169734Y179714D01*
X169812Y179614D01*
X169893Y179517D01*
X169977Y179422D01*
X170063Y179330D01*
X170153Y179240D01*
X170245Y179154D01*
X170340Y179070D01*
X170437Y178989D01*
X170537Y178911D01*
X170639Y178837D01*
X170743Y178765D01*
X170849Y178697D01*
X170958Y178632D01*
X171068Y178571D01*
X171181Y178512D01*
X171295Y178458D01*
X171411Y178407D01*
X171528Y178359D01*
X171646Y178315D01*
X171766Y178275D01*
X171887Y178239D01*
X172009Y178206D01*
X172133Y178177D01*
X172257Y178152D01*
X172381Y178131D01*
X172506Y178113D01*
X172632Y178100D01*
X172758Y178090D01*
X172885Y178084D01*
X173011Y178082D01*
X173137Y178084D01*
X173264Y178090D01*
X173390Y178100D01*
X173516Y178113D01*
X173641Y178131D01*
X173765Y178152D01*
X173889Y178177D01*
X174013Y178206D01*
X174135Y178239D01*
X174256Y178275D01*
X174376Y178315D01*
X174494Y178359D01*
X174611Y178407D01*
X174727Y178458D01*
X174841Y178512D01*
X174954Y178571D01*
X175064Y178632D01*
X175173Y178697D01*
X175279Y178765D01*
X175383Y178837D01*
X175485Y178911D01*
X175585Y178989D01*
X175682Y179070D01*
X175777Y179154D01*
X175869Y179240D01*
X175959Y179330D01*
X176045Y179422D01*
X176129Y179517D01*
X176210Y179614D01*
X176288Y179714D01*
X176362Y179816D01*
X176434Y179920D01*
X176502Y180026D01*
X176567Y180135D01*
X176628Y180245D01*
X176687Y180358D01*
X176741Y180472D01*
X176792Y180588D01*
X176840Y180705D01*
X176884Y180823D01*
X176924Y180943D01*
X176960Y181064D01*
X176993Y181186D01*
X177022Y181310D01*
X177047Y181434D01*
X177068Y181558D01*
X177086Y181683D01*
X177099Y181809D01*
X177109Y181935D01*
X177115Y182062D01*
X177117Y182188D01*
X159087Y178082D02*
X153955Y178082D01*
X159087Y178082D02*
X159197Y178084D01*
X159307Y178090D01*
X159416Y178100D01*
X159525Y178113D01*
X159634Y178131D01*
X159741Y178152D01*
X159848Y178178D01*
X159954Y178207D01*
X160059Y178240D01*
X160163Y178276D01*
X160265Y178316D01*
X160366Y178360D01*
X160465Y178408D01*
X160563Y178459D01*
X160658Y178513D01*
X160752Y178571D01*
X160843Y178632D01*
X160932Y178696D01*
X161019Y178764D01*
X161103Y178834D01*
X161185Y178907D01*
X161264Y178984D01*
X161341Y179063D01*
X161414Y179145D01*
X161484Y179229D01*
X161552Y179316D01*
X161616Y179405D01*
X161677Y179496D01*
X161735Y179590D01*
X161789Y179685D01*
X161840Y179783D01*
X161888Y179882D01*
X161932Y179983D01*
X161972Y180085D01*
X162008Y180189D01*
X162041Y180294D01*
X162070Y180400D01*
X162096Y180507D01*
X162117Y180614D01*
X162135Y180723D01*
X162148Y180832D01*
X162158Y180941D01*
X162164Y181051D01*
X162166Y181161D01*
X162167Y181161D02*
X162167Y186294D01*
X162165Y186420D01*
X162159Y186547D01*
X162149Y186673D01*
X162136Y186799D01*
X162118Y186924D01*
X162097Y187048D01*
X162072Y187172D01*
X162043Y187296D01*
X162010Y187418D01*
X161974Y187539D01*
X161934Y187659D01*
X161890Y187777D01*
X161842Y187894D01*
X161791Y188010D01*
X161737Y188124D01*
X161678Y188237D01*
X161617Y188347D01*
X161552Y188456D01*
X161484Y188562D01*
X161412Y188666D01*
X161338Y188768D01*
X161260Y188868D01*
X161179Y188965D01*
X161095Y189060D01*
X161009Y189152D01*
X160919Y189242D01*
X160827Y189328D01*
X160732Y189412D01*
X160635Y189493D01*
X160535Y189571D01*
X160433Y189645D01*
X160329Y189717D01*
X160223Y189785D01*
X160114Y189850D01*
X160004Y189911D01*
X159891Y189970D01*
X159777Y190024D01*
X159661Y190075D01*
X159544Y190123D01*
X159426Y190167D01*
X159306Y190207D01*
X159185Y190243D01*
X159063Y190276D01*
X158939Y190305D01*
X158815Y190330D01*
X158691Y190351D01*
X158566Y190369D01*
X158440Y190382D01*
X158314Y190392D01*
X158187Y190398D01*
X158061Y190400D01*
X157935Y190398D01*
X157808Y190392D01*
X157682Y190382D01*
X157556Y190369D01*
X157431Y190351D01*
X157307Y190330D01*
X157183Y190305D01*
X157059Y190276D01*
X156937Y190243D01*
X156816Y190207D01*
X156696Y190167D01*
X156578Y190123D01*
X156461Y190075D01*
X156345Y190024D01*
X156231Y189970D01*
X156118Y189911D01*
X156008Y189850D01*
X155899Y189785D01*
X155793Y189717D01*
X155689Y189645D01*
X155587Y189571D01*
X155487Y189493D01*
X155390Y189412D01*
X155295Y189328D01*
X155203Y189242D01*
X155113Y189152D01*
X155027Y189060D01*
X154943Y188965D01*
X154862Y188868D01*
X154784Y188768D01*
X154710Y188666D01*
X154638Y188562D01*
X154570Y188456D01*
X154505Y188347D01*
X154444Y188237D01*
X154385Y188124D01*
X154331Y188010D01*
X154280Y187894D01*
X154232Y187777D01*
X154188Y187659D01*
X154148Y187539D01*
X154112Y187418D01*
X154079Y187296D01*
X154050Y187172D01*
X154025Y187048D01*
X154004Y186924D01*
X153986Y186799D01*
X153973Y186673D01*
X153963Y186547D01*
X153957Y186420D01*
X153955Y186294D01*
X153955Y184241D01*
X162167Y184241D01*
X161653Y195532D02*
X161653Y196558D01*
X160627Y196558D01*
X160627Y195532D01*
X161653Y195532D01*
X155495Y195532D02*
X155495Y196558D01*
X154468Y196558D01*
X154468Y195532D01*
X155495Y195532D01*
X146395Y190399D02*
X146395Y178082D01*
X146395Y190399D02*
X137157Y190399D01*
X137047Y190397D01*
X136937Y190391D01*
X136828Y190381D01*
X136719Y190368D01*
X136610Y190350D01*
X136503Y190329D01*
X136396Y190303D01*
X136290Y190274D01*
X136185Y190241D01*
X136081Y190205D01*
X135979Y190165D01*
X135878Y190121D01*
X135779Y190073D01*
X135681Y190022D01*
X135586Y189968D01*
X135492Y189910D01*
X135401Y189849D01*
X135312Y189785D01*
X135225Y189717D01*
X135141Y189647D01*
X135059Y189574D01*
X134980Y189497D01*
X134903Y189418D01*
X134830Y189336D01*
X134760Y189252D01*
X134692Y189165D01*
X134628Y189076D01*
X134567Y188985D01*
X134509Y188891D01*
X134455Y188796D01*
X134404Y188698D01*
X134356Y188599D01*
X134312Y188498D01*
X134272Y188396D01*
X134236Y188292D01*
X134203Y188187D01*
X134174Y188081D01*
X134148Y187974D01*
X134127Y187867D01*
X134109Y187758D01*
X134096Y187649D01*
X134086Y187540D01*
X134080Y187430D01*
X134078Y187320D01*
X134077Y187320D02*
X134077Y178082D01*
X140236Y178082D02*
X140236Y190399D01*
X126436Y190399D02*
X126436Y178082D01*
X126949Y195532D02*
X126949Y196558D01*
X125923Y196558D01*
X125923Y195532D01*
X126949Y195532D01*
X109529Y196558D02*
X109529Y178082D01*
X109529Y185267D02*
X99264Y196558D01*
X105423Y189373D02*
X99264Y178082D01*
X92592Y181161D02*
X92592Y190399D01*
X92591Y181161D02*
X92589Y181051D01*
X92583Y180941D01*
X92573Y180832D01*
X92560Y180723D01*
X92542Y180614D01*
X92521Y180507D01*
X92495Y180400D01*
X92466Y180294D01*
X92433Y180189D01*
X92397Y180085D01*
X92357Y179983D01*
X92313Y179882D01*
X92265Y179783D01*
X92214Y179685D01*
X92160Y179590D01*
X92102Y179496D01*
X92041Y179405D01*
X91977Y179316D01*
X91909Y179229D01*
X91839Y179145D01*
X91766Y179063D01*
X91689Y178984D01*
X91610Y178907D01*
X91528Y178834D01*
X91444Y178764D01*
X91357Y178696D01*
X91268Y178632D01*
X91177Y178571D01*
X91083Y178513D01*
X90988Y178459D01*
X90890Y178408D01*
X90791Y178360D01*
X90690Y178316D01*
X90588Y178276D01*
X90484Y178240D01*
X90379Y178207D01*
X90273Y178178D01*
X90166Y178152D01*
X90059Y178131D01*
X89950Y178113D01*
X89841Y178100D01*
X89732Y178090D01*
X89622Y178084D01*
X89512Y178082D01*
X84380Y178082D01*
X84380Y190399D01*
X76414Y190399D02*
X76414Y178082D01*
X76414Y190399D02*
X70255Y190399D01*
X70255Y188346D01*
X66371Y190399D02*
X60212Y190399D01*
X64318Y196558D02*
X64318Y181161D01*
X64317Y181161D02*
X64315Y181051D01*
X64309Y180941D01*
X64299Y180832D01*
X64286Y180723D01*
X64268Y180614D01*
X64247Y180507D01*
X64221Y180400D01*
X64192Y180294D01*
X64159Y180189D01*
X64123Y180085D01*
X64083Y179983D01*
X64039Y179882D01*
X63991Y179783D01*
X63940Y179685D01*
X63886Y179590D01*
X63828Y179496D01*
X63767Y179405D01*
X63703Y179316D01*
X63635Y179229D01*
X63565Y179145D01*
X63492Y179063D01*
X63415Y178984D01*
X63336Y178907D01*
X63254Y178834D01*
X63170Y178764D01*
X63083Y178696D01*
X62994Y178632D01*
X62903Y178571D01*
X62809Y178513D01*
X62714Y178459D01*
X62616Y178408D01*
X62517Y178360D01*
X62416Y178316D01*
X62314Y178276D01*
X62210Y178240D01*
X62105Y178207D01*
X61999Y178178D01*
X61892Y178152D01*
X61785Y178131D01*
X61676Y178113D01*
X61567Y178100D01*
X61458Y178090D01*
X61348Y178084D01*
X61238Y178082D01*
X60212Y178082D01*
X194818Y166558D02*
X194818Y148082D01*
X194818Y166558D02*
X189686Y166558D01*
X189545Y166556D01*
X189403Y166550D01*
X189262Y166540D01*
X189121Y166527D01*
X188981Y166509D01*
X188841Y166488D01*
X188702Y166463D01*
X188564Y166434D01*
X188426Y166401D01*
X188290Y166364D01*
X188154Y166324D01*
X188020Y166280D01*
X187887Y166232D01*
X187755Y166181D01*
X187624Y166126D01*
X187496Y166067D01*
X187369Y166005D01*
X187243Y165939D01*
X187120Y165870D01*
X186999Y165798D01*
X186879Y165722D01*
X186762Y165643D01*
X186647Y165561D01*
X186534Y165476D01*
X186423Y165387D01*
X186316Y165296D01*
X186210Y165202D01*
X186107Y165105D01*
X186007Y165005D01*
X185910Y164902D01*
X185816Y164796D01*
X185725Y164689D01*
X185636Y164578D01*
X185551Y164465D01*
X185469Y164350D01*
X185390Y164233D01*
X185314Y164113D01*
X185242Y163992D01*
X185173Y163869D01*
X185107Y163743D01*
X185045Y163616D01*
X184986Y163488D01*
X184931Y163357D01*
X184880Y163225D01*
X184832Y163092D01*
X184788Y162958D01*
X184748Y162822D01*
X184711Y162686D01*
X184678Y162548D01*
X184649Y162410D01*
X184624Y162271D01*
X184603Y162131D01*
X184585Y161991D01*
X184572Y161850D01*
X184562Y161709D01*
X184556Y161567D01*
X184554Y161426D01*
X184556Y161285D01*
X184562Y161143D01*
X184572Y161002D01*
X184585Y160861D01*
X184603Y160721D01*
X184624Y160581D01*
X184649Y160442D01*
X184678Y160304D01*
X184711Y160166D01*
X184748Y160030D01*
X184788Y159894D01*
X184832Y159760D01*
X184880Y159627D01*
X184931Y159495D01*
X184986Y159364D01*
X185045Y159236D01*
X185107Y159109D01*
X185173Y158983D01*
X185242Y158860D01*
X185314Y158739D01*
X185390Y158619D01*
X185469Y158502D01*
X185551Y158387D01*
X185636Y158274D01*
X185725Y158163D01*
X185816Y158056D01*
X185910Y157950D01*
X186007Y157847D01*
X186107Y157747D01*
X186210Y157650D01*
X186316Y157556D01*
X186423Y157465D01*
X186534Y157376D01*
X186647Y157291D01*
X186762Y157209D01*
X186879Y157130D01*
X186999Y157054D01*
X187120Y156982D01*
X187243Y156913D01*
X187369Y156847D01*
X187496Y156785D01*
X187624Y156726D01*
X187755Y156671D01*
X187887Y156620D01*
X188020Y156572D01*
X188154Y156528D01*
X188290Y156488D01*
X188426Y156451D01*
X188564Y156418D01*
X188702Y156389D01*
X188841Y156364D01*
X188981Y156343D01*
X189121Y156325D01*
X189262Y156312D01*
X189403Y156302D01*
X189545Y156296D01*
X189686Y156294D01*
X194818Y156294D01*
X177881Y148082D02*
X177881Y166558D01*
X177881Y160399D02*
X172749Y160399D01*
X172639Y160397D01*
X172529Y160391D01*
X172420Y160381D01*
X172311Y160368D01*
X172202Y160350D01*
X172095Y160329D01*
X171988Y160303D01*
X171882Y160274D01*
X171777Y160241D01*
X171673Y160205D01*
X171571Y160165D01*
X171470Y160121D01*
X171371Y160073D01*
X171273Y160022D01*
X171178Y159968D01*
X171084Y159910D01*
X170993Y159849D01*
X170904Y159785D01*
X170817Y159717D01*
X170733Y159647D01*
X170651Y159574D01*
X170572Y159497D01*
X170495Y159418D01*
X170422Y159336D01*
X170352Y159252D01*
X170284Y159165D01*
X170220Y159076D01*
X170159Y158985D01*
X170101Y158891D01*
X170047Y158796D01*
X169996Y158698D01*
X169948Y158599D01*
X169904Y158498D01*
X169864Y158396D01*
X169828Y158292D01*
X169795Y158187D01*
X169766Y158081D01*
X169740Y157974D01*
X169719Y157867D01*
X169701Y157758D01*
X169688Y157649D01*
X169678Y157540D01*
X169672Y157430D01*
X169670Y157320D01*
X169670Y148082D01*
X162275Y148082D02*
X162275Y160399D01*
X162789Y165532D02*
X162789Y166558D01*
X161762Y166558D01*
X161762Y165532D01*
X162789Y165532D01*
X155133Y166558D02*
X155133Y151161D01*
X155131Y151051D01*
X155125Y150941D01*
X155115Y150832D01*
X155102Y150723D01*
X155084Y150614D01*
X155063Y150507D01*
X155037Y150400D01*
X155008Y150294D01*
X154975Y150189D01*
X154939Y150085D01*
X154899Y149983D01*
X154855Y149882D01*
X154807Y149783D01*
X154756Y149685D01*
X154702Y149590D01*
X154644Y149496D01*
X154583Y149405D01*
X154519Y149316D01*
X154451Y149229D01*
X154381Y149145D01*
X154308Y149063D01*
X154231Y148984D01*
X154152Y148907D01*
X154070Y148834D01*
X153986Y148764D01*
X153899Y148696D01*
X153810Y148632D01*
X153719Y148571D01*
X153625Y148513D01*
X153530Y148459D01*
X153432Y148408D01*
X153333Y148360D01*
X153232Y148316D01*
X153130Y148276D01*
X153026Y148240D01*
X152921Y148207D01*
X152815Y148178D01*
X152708Y148152D01*
X152601Y148131D01*
X152492Y148113D01*
X152383Y148100D01*
X152274Y148090D01*
X152164Y148084D01*
X152054Y148082D01*
X146175Y148082D02*
X146175Y160399D01*
X146689Y165532D02*
X146689Y166558D01*
X145662Y166558D01*
X145662Y165532D01*
X146689Y165532D01*
X138715Y160399D02*
X138715Y141923D01*
X138715Y160399D02*
X133583Y160399D01*
X133473Y160397D01*
X133363Y160391D01*
X133254Y160381D01*
X133145Y160368D01*
X133036Y160350D01*
X132929Y160329D01*
X132822Y160303D01*
X132716Y160274D01*
X132611Y160241D01*
X132507Y160205D01*
X132405Y160165D01*
X132304Y160121D01*
X132205Y160073D01*
X132107Y160022D01*
X132012Y159968D01*
X131918Y159910D01*
X131827Y159849D01*
X131738Y159785D01*
X131651Y159717D01*
X131567Y159647D01*
X131485Y159574D01*
X131406Y159497D01*
X131329Y159418D01*
X131256Y159336D01*
X131186Y159252D01*
X131118Y159165D01*
X131054Y159076D01*
X130993Y158985D01*
X130935Y158891D01*
X130881Y158796D01*
X130830Y158698D01*
X130782Y158599D01*
X130738Y158498D01*
X130698Y158396D01*
X130662Y158292D01*
X130629Y158187D01*
X130600Y158081D01*
X130574Y157974D01*
X130553Y157867D01*
X130535Y157758D01*
X130522Y157649D01*
X130512Y157540D01*
X130506Y157430D01*
X130504Y157320D01*
X130504Y151161D01*
X130506Y151051D01*
X130512Y150941D01*
X130522Y150832D01*
X130535Y150723D01*
X130553Y150614D01*
X130574Y150507D01*
X130600Y150400D01*
X130629Y150294D01*
X130662Y150189D01*
X130698Y150085D01*
X130738Y149983D01*
X130782Y149882D01*
X130830Y149783D01*
X130881Y149685D01*
X130935Y149590D01*
X130993Y149496D01*
X131054Y149405D01*
X131118Y149316D01*
X131186Y149229D01*
X131256Y149145D01*
X131329Y149063D01*
X131406Y148984D01*
X131485Y148907D01*
X131567Y148834D01*
X131651Y148764D01*
X131738Y148696D01*
X131827Y148632D01*
X131918Y148571D01*
X132012Y148513D01*
X132107Y148459D01*
X132205Y148408D01*
X132304Y148360D01*
X132405Y148316D01*
X132507Y148276D01*
X132611Y148240D01*
X132716Y148207D01*
X132822Y148178D01*
X132929Y148152D01*
X133036Y148131D01*
X133145Y148113D01*
X133254Y148100D01*
X133363Y148090D01*
X133473Y148084D01*
X133583Y148082D01*
X138715Y148082D01*
X123190Y141923D02*
X123190Y160399D01*
X118058Y160399D01*
X117948Y160397D01*
X117838Y160391D01*
X117729Y160381D01*
X117620Y160368D01*
X117511Y160350D01*
X117404Y160329D01*
X117297Y160303D01*
X117191Y160274D01*
X117086Y160241D01*
X116982Y160205D01*
X116880Y160165D01*
X116779Y160121D01*
X116680Y160073D01*
X116582Y160022D01*
X116487Y159968D01*
X116393Y159910D01*
X116302Y159849D01*
X116213Y159785D01*
X116126Y159717D01*
X116042Y159647D01*
X115960Y159574D01*
X115881Y159497D01*
X115804Y159418D01*
X115731Y159336D01*
X115661Y159252D01*
X115593Y159165D01*
X115529Y159076D01*
X115468Y158985D01*
X115410Y158891D01*
X115356Y158796D01*
X115305Y158698D01*
X115257Y158599D01*
X115213Y158498D01*
X115173Y158396D01*
X115137Y158292D01*
X115104Y158187D01*
X115075Y158081D01*
X115049Y157974D01*
X115028Y157867D01*
X115010Y157758D01*
X114997Y157649D01*
X114987Y157540D01*
X114981Y157430D01*
X114979Y157320D01*
X114979Y151161D01*
X114981Y151051D01*
X114987Y150941D01*
X114997Y150832D01*
X115010Y150723D01*
X115028Y150614D01*
X115049Y150507D01*
X115075Y150400D01*
X115104Y150294D01*
X115137Y150189D01*
X115173Y150085D01*
X115213Y149983D01*
X115257Y149882D01*
X115305Y149783D01*
X115356Y149685D01*
X115410Y149590D01*
X115468Y149496D01*
X115529Y149405D01*
X115593Y149316D01*
X115661Y149229D01*
X115731Y149145D01*
X115804Y149063D01*
X115881Y148984D01*
X115960Y148907D01*
X116042Y148834D01*
X116126Y148764D01*
X116213Y148696D01*
X116302Y148632D01*
X116393Y148571D01*
X116487Y148513D01*
X116582Y148459D01*
X116680Y148408D01*
X116779Y148360D01*
X116880Y148316D01*
X116982Y148276D01*
X117086Y148240D01*
X117191Y148207D01*
X117297Y148178D01*
X117404Y148152D01*
X117511Y148131D01*
X117620Y148113D01*
X117729Y148100D01*
X117838Y148090D01*
X117948Y148084D01*
X118058Y148082D01*
X123190Y148082D01*
X91223Y158346D02*
X88143Y158346D01*
X88143Y148082D01*
X94302Y148082D01*
X94428Y148084D01*
X94555Y148090D01*
X94681Y148100D01*
X94807Y148113D01*
X94932Y148131D01*
X95056Y148152D01*
X95180Y148177D01*
X95304Y148206D01*
X95426Y148239D01*
X95547Y148275D01*
X95667Y148315D01*
X95785Y148359D01*
X95902Y148407D01*
X96018Y148458D01*
X96132Y148512D01*
X96245Y148571D01*
X96355Y148632D01*
X96464Y148697D01*
X96570Y148765D01*
X96674Y148837D01*
X96776Y148911D01*
X96876Y148989D01*
X96973Y149070D01*
X97068Y149154D01*
X97160Y149240D01*
X97250Y149330D01*
X97336Y149422D01*
X97420Y149517D01*
X97501Y149614D01*
X97579Y149714D01*
X97653Y149816D01*
X97725Y149920D01*
X97793Y150026D01*
X97858Y150135D01*
X97919Y150245D01*
X97978Y150358D01*
X98032Y150472D01*
X98083Y150588D01*
X98131Y150705D01*
X98175Y150823D01*
X98215Y150943D01*
X98251Y151064D01*
X98284Y151186D01*
X98313Y151310D01*
X98338Y151434D01*
X98359Y151558D01*
X98377Y151683D01*
X98390Y151809D01*
X98400Y151935D01*
X98406Y152062D01*
X98408Y152188D01*
X98408Y162452D01*
X98406Y162578D01*
X98400Y162705D01*
X98390Y162831D01*
X98377Y162957D01*
X98359Y163082D01*
X98338Y163206D01*
X98313Y163330D01*
X98284Y163454D01*
X98251Y163576D01*
X98215Y163697D01*
X98175Y163817D01*
X98131Y163935D01*
X98083Y164052D01*
X98032Y164168D01*
X97978Y164282D01*
X97919Y164395D01*
X97858Y164505D01*
X97793Y164614D01*
X97725Y164720D01*
X97653Y164824D01*
X97579Y164926D01*
X97501Y165026D01*
X97420Y165123D01*
X97336Y165218D01*
X97250Y165310D01*
X97160Y165400D01*
X97068Y165486D01*
X96973Y165570D01*
X96876Y165651D01*
X96776Y165729D01*
X96674Y165803D01*
X96570Y165875D01*
X96464Y165943D01*
X96355Y166008D01*
X96245Y166069D01*
X96132Y166128D01*
X96018Y166182D01*
X95902Y166233D01*
X95785Y166281D01*
X95667Y166325D01*
X95547Y166365D01*
X95426Y166401D01*
X95304Y166434D01*
X95180Y166463D01*
X95056Y166488D01*
X94932Y166509D01*
X94807Y166527D01*
X94681Y166540D01*
X94555Y166550D01*
X94428Y166556D01*
X94302Y166558D01*
X88143Y166558D01*
X80131Y160399D02*
X80131Y151161D01*
X80129Y151051D01*
X80123Y150941D01*
X80113Y150832D01*
X80100Y150723D01*
X80082Y150614D01*
X80061Y150507D01*
X80035Y150400D01*
X80006Y150294D01*
X79973Y150189D01*
X79937Y150085D01*
X79897Y149983D01*
X79853Y149882D01*
X79805Y149783D01*
X79754Y149685D01*
X79700Y149590D01*
X79642Y149496D01*
X79581Y149405D01*
X79517Y149316D01*
X79449Y149229D01*
X79379Y149145D01*
X79306Y149063D01*
X79229Y148984D01*
X79150Y148907D01*
X79068Y148834D01*
X78984Y148764D01*
X78897Y148696D01*
X78808Y148632D01*
X78717Y148571D01*
X78623Y148513D01*
X78528Y148459D01*
X78430Y148408D01*
X78331Y148360D01*
X78230Y148316D01*
X78128Y148276D01*
X78024Y148240D01*
X77919Y148207D01*
X77813Y148178D01*
X77706Y148152D01*
X77599Y148131D01*
X77490Y148113D01*
X77381Y148100D01*
X77272Y148090D01*
X77162Y148084D01*
X77052Y148082D01*
X71920Y148082D01*
X71920Y160399D01*
X63953Y160399D02*
X63953Y148082D01*
X63953Y160399D02*
X57795Y160399D01*
X57795Y158346D01*
X53910Y160399D02*
X47751Y160399D01*
X51857Y166558D02*
X51857Y151161D01*
X51855Y151051D01*
X51849Y150941D01*
X51839Y150832D01*
X51826Y150723D01*
X51808Y150614D01*
X51787Y150507D01*
X51761Y150400D01*
X51732Y150294D01*
X51699Y150189D01*
X51663Y150085D01*
X51623Y149983D01*
X51579Y149882D01*
X51531Y149783D01*
X51480Y149685D01*
X51426Y149590D01*
X51368Y149496D01*
X51307Y149405D01*
X51243Y149316D01*
X51175Y149229D01*
X51105Y149145D01*
X51032Y149063D01*
X50955Y148984D01*
X50876Y148907D01*
X50794Y148834D01*
X50710Y148764D01*
X50623Y148696D01*
X50534Y148632D01*
X50443Y148571D01*
X50349Y148513D01*
X50254Y148459D01*
X50156Y148408D01*
X50057Y148360D01*
X49956Y148316D01*
X49854Y148276D01*
X49750Y148240D01*
X49645Y148207D01*
X49539Y148178D01*
X49432Y148152D01*
X49325Y148131D01*
X49216Y148113D01*
X49107Y148100D01*
X48998Y148090D01*
X48888Y148084D01*
X48778Y148082D01*
X47751Y148082D01*
X41031Y148082D02*
X41031Y160399D01*
X35899Y160399D01*
X35789Y160397D01*
X35679Y160391D01*
X35570Y160381D01*
X35461Y160368D01*
X35352Y160350D01*
X35245Y160329D01*
X35138Y160303D01*
X35032Y160274D01*
X34927Y160241D01*
X34823Y160205D01*
X34721Y160165D01*
X34620Y160121D01*
X34521Y160073D01*
X34423Y160022D01*
X34328Y159968D01*
X34234Y159910D01*
X34143Y159849D01*
X34054Y159785D01*
X33967Y159717D01*
X33883Y159647D01*
X33801Y159574D01*
X33722Y159497D01*
X33645Y159418D01*
X33572Y159336D01*
X33502Y159252D01*
X33434Y159165D01*
X33370Y159076D01*
X33309Y158985D01*
X33251Y158891D01*
X33197Y158796D01*
X33146Y158698D01*
X33098Y158599D01*
X33054Y158498D01*
X33014Y158396D01*
X32978Y158292D01*
X32945Y158187D01*
X32916Y158081D01*
X32890Y157974D01*
X32869Y157867D01*
X32851Y157758D01*
X32838Y157649D01*
X32828Y157540D01*
X32822Y157430D01*
X32820Y157320D01*
X32820Y148082D01*
X22427Y148082D02*
X17295Y148082D01*
X22427Y148082D02*
X22537Y148084D01*
X22647Y148090D01*
X22756Y148100D01*
X22865Y148113D01*
X22974Y148131D01*
X23081Y148152D01*
X23188Y148178D01*
X23294Y148207D01*
X23399Y148240D01*
X23503Y148276D01*
X23605Y148316D01*
X23706Y148360D01*
X23805Y148408D01*
X23903Y148459D01*
X23998Y148513D01*
X24092Y148571D01*
X24183Y148632D01*
X24272Y148696D01*
X24359Y148764D01*
X24443Y148834D01*
X24525Y148907D01*
X24604Y148984D01*
X24681Y149063D01*
X24754Y149145D01*
X24824Y149229D01*
X24892Y149316D01*
X24956Y149405D01*
X25017Y149496D01*
X25075Y149590D01*
X25129Y149685D01*
X25180Y149783D01*
X25228Y149882D01*
X25272Y149983D01*
X25312Y150085D01*
X25348Y150189D01*
X25381Y150294D01*
X25410Y150400D01*
X25436Y150507D01*
X25457Y150614D01*
X25475Y150723D01*
X25488Y150832D01*
X25498Y150941D01*
X25504Y151051D01*
X25506Y151161D01*
X25506Y156294D01*
X25507Y156294D02*
X25505Y156420D01*
X25499Y156547D01*
X25489Y156673D01*
X25476Y156799D01*
X25458Y156924D01*
X25437Y157048D01*
X25412Y157172D01*
X25383Y157296D01*
X25350Y157418D01*
X25314Y157539D01*
X25274Y157659D01*
X25230Y157777D01*
X25182Y157894D01*
X25131Y158010D01*
X25077Y158124D01*
X25018Y158237D01*
X24957Y158347D01*
X24892Y158456D01*
X24824Y158562D01*
X24752Y158666D01*
X24678Y158768D01*
X24600Y158868D01*
X24519Y158965D01*
X24435Y159060D01*
X24349Y159152D01*
X24259Y159242D01*
X24167Y159328D01*
X24072Y159412D01*
X23975Y159493D01*
X23875Y159571D01*
X23773Y159645D01*
X23669Y159717D01*
X23563Y159785D01*
X23454Y159850D01*
X23344Y159911D01*
X23231Y159970D01*
X23117Y160024D01*
X23001Y160075D01*
X22884Y160123D01*
X22766Y160167D01*
X22646Y160207D01*
X22525Y160243D01*
X22403Y160276D01*
X22279Y160305D01*
X22155Y160330D01*
X22031Y160351D01*
X21906Y160369D01*
X21780Y160382D01*
X21654Y160392D01*
X21527Y160398D01*
X21401Y160400D01*
X21275Y160398D01*
X21148Y160392D01*
X21022Y160382D01*
X20896Y160369D01*
X20771Y160351D01*
X20647Y160330D01*
X20523Y160305D01*
X20399Y160276D01*
X20277Y160243D01*
X20156Y160207D01*
X20036Y160167D01*
X19918Y160123D01*
X19801Y160075D01*
X19685Y160024D01*
X19571Y159970D01*
X19458Y159911D01*
X19348Y159850D01*
X19239Y159785D01*
X19133Y159717D01*
X19029Y159645D01*
X18927Y159571D01*
X18827Y159493D01*
X18730Y159412D01*
X18635Y159328D01*
X18543Y159242D01*
X18453Y159152D01*
X18367Y159060D01*
X18283Y158965D01*
X18202Y158868D01*
X18124Y158768D01*
X18050Y158666D01*
X17978Y158562D01*
X17910Y158456D01*
X17845Y158347D01*
X17784Y158237D01*
X17725Y158124D01*
X17671Y158010D01*
X17620Y157894D01*
X17572Y157777D01*
X17528Y157659D01*
X17488Y157539D01*
X17452Y157418D01*
X17419Y157296D01*
X17390Y157172D01*
X17365Y157048D01*
X17344Y156924D01*
X17326Y156799D01*
X17313Y156673D01*
X17303Y156547D01*
X17297Y156420D01*
X17295Y156294D01*
X17295Y154241D01*
X25506Y154241D01*
X9904Y148082D02*
X9904Y160399D01*
X3745Y160399D01*
X3745Y158346D01*
D11*
X273572Y850011D02*
X275661Y850011D01*
X275750Y850013D01*
X275838Y850019D01*
X275926Y850028D01*
X276014Y850041D01*
X276101Y850058D01*
X276187Y850078D01*
X276272Y850103D01*
X276357Y850130D01*
X276440Y850162D01*
X276521Y850196D01*
X276601Y850235D01*
X276679Y850276D01*
X276756Y850321D01*
X276830Y850369D01*
X276903Y850420D01*
X276973Y850474D01*
X277040Y850532D01*
X277106Y850592D01*
X277168Y850654D01*
X277228Y850720D01*
X277286Y850787D01*
X277340Y850857D01*
X277391Y850930D01*
X277439Y851004D01*
X277484Y851081D01*
X277525Y851159D01*
X277564Y851239D01*
X277598Y851320D01*
X277630Y851403D01*
X277657Y851488D01*
X277682Y851573D01*
X277702Y851659D01*
X277719Y851746D01*
X277732Y851834D01*
X277741Y851922D01*
X277747Y852010D01*
X277749Y852099D01*
X277749Y857321D01*
X277747Y857410D01*
X277741Y857498D01*
X277732Y857586D01*
X277719Y857674D01*
X277702Y857761D01*
X277682Y857847D01*
X277657Y857932D01*
X277630Y858017D01*
X277598Y858100D01*
X277564Y858181D01*
X277525Y858261D01*
X277484Y858339D01*
X277439Y858416D01*
X277391Y858490D01*
X277340Y858563D01*
X277286Y858633D01*
X277228Y858700D01*
X277168Y858766D01*
X277106Y858828D01*
X277040Y858888D01*
X276973Y858946D01*
X276903Y859000D01*
X276830Y859051D01*
X276756Y859099D01*
X276679Y859144D01*
X276601Y859185D01*
X276521Y859224D01*
X276440Y859258D01*
X276357Y859290D01*
X276272Y859317D01*
X276187Y859342D01*
X276101Y859362D01*
X276014Y859379D01*
X275926Y859392D01*
X275838Y859401D01*
X275750Y859407D01*
X275661Y859409D01*
X273572Y859409D01*
X270103Y857321D02*
X267493Y859409D01*
X267493Y850011D01*
X270103Y850011D02*
X264882Y850011D01*
X202001Y860171D02*
X199912Y860171D01*
X202001Y860171D02*
X202090Y860173D01*
X202178Y860179D01*
X202266Y860188D01*
X202354Y860201D01*
X202441Y860218D01*
X202527Y860238D01*
X202612Y860263D01*
X202697Y860290D01*
X202780Y860322D01*
X202861Y860356D01*
X202941Y860395D01*
X203019Y860436D01*
X203096Y860481D01*
X203170Y860529D01*
X203243Y860580D01*
X203313Y860634D01*
X203380Y860692D01*
X203446Y860752D01*
X203508Y860814D01*
X203568Y860880D01*
X203626Y860947D01*
X203680Y861017D01*
X203731Y861090D01*
X203779Y861164D01*
X203824Y861241D01*
X203865Y861319D01*
X203904Y861399D01*
X203938Y861480D01*
X203970Y861563D01*
X203997Y861648D01*
X204022Y861733D01*
X204042Y861819D01*
X204059Y861906D01*
X204072Y861994D01*
X204081Y862082D01*
X204087Y862170D01*
X204089Y862259D01*
X204089Y867481D01*
X204087Y867570D01*
X204081Y867658D01*
X204072Y867746D01*
X204059Y867834D01*
X204042Y867921D01*
X204022Y868007D01*
X203997Y868092D01*
X203970Y868177D01*
X203938Y868260D01*
X203904Y868341D01*
X203865Y868421D01*
X203824Y868499D01*
X203779Y868576D01*
X203731Y868650D01*
X203680Y868723D01*
X203626Y868793D01*
X203568Y868860D01*
X203508Y868926D01*
X203446Y868988D01*
X203380Y869048D01*
X203313Y869106D01*
X203243Y869160D01*
X203170Y869211D01*
X203096Y869259D01*
X203019Y869304D01*
X202941Y869345D01*
X202861Y869384D01*
X202780Y869418D01*
X202697Y869450D01*
X202612Y869477D01*
X202527Y869502D01*
X202441Y869522D01*
X202354Y869539D01*
X202266Y869552D01*
X202178Y869561D01*
X202090Y869567D01*
X202001Y869569D01*
X199912Y869569D01*
X193572Y869570D02*
X193477Y869568D01*
X193383Y869562D01*
X193289Y869553D01*
X193195Y869540D01*
X193102Y869523D01*
X193010Y869502D01*
X192918Y869477D01*
X192828Y869449D01*
X192739Y869417D01*
X192651Y869382D01*
X192565Y869343D01*
X192480Y869301D01*
X192397Y869255D01*
X192316Y869206D01*
X192237Y869154D01*
X192160Y869099D01*
X192086Y869040D01*
X192014Y868979D01*
X191944Y868915D01*
X191877Y868848D01*
X191813Y868778D01*
X191752Y868706D01*
X191693Y868632D01*
X191638Y868555D01*
X191586Y868476D01*
X191537Y868395D01*
X191491Y868312D01*
X191449Y868227D01*
X191410Y868141D01*
X191375Y868053D01*
X191343Y867964D01*
X191315Y867874D01*
X191290Y867782D01*
X191269Y867690D01*
X191252Y867597D01*
X191239Y867503D01*
X191230Y867409D01*
X191224Y867315D01*
X191222Y867220D01*
X193572Y869569D02*
X193680Y869567D01*
X193789Y869561D01*
X193897Y869551D01*
X194004Y869538D01*
X194111Y869520D01*
X194218Y869499D01*
X194323Y869474D01*
X194428Y869445D01*
X194531Y869413D01*
X194633Y869376D01*
X194734Y869336D01*
X194833Y869293D01*
X194931Y869246D01*
X195027Y869195D01*
X195121Y869141D01*
X195213Y869084D01*
X195303Y869023D01*
X195391Y868959D01*
X195476Y868893D01*
X195559Y868823D01*
X195639Y868750D01*
X195717Y868674D01*
X195792Y868596D01*
X195864Y868515D01*
X195933Y868431D01*
X195999Y868345D01*
X196062Y868257D01*
X196121Y868166D01*
X196178Y868074D01*
X196231Y867979D01*
X196280Y867882D01*
X196326Y867784D01*
X196369Y867685D01*
X196408Y867583D01*
X196443Y867481D01*
X192005Y865392D02*
X191936Y865461D01*
X191870Y865532D01*
X191806Y865605D01*
X191745Y865681D01*
X191687Y865760D01*
X191633Y865840D01*
X191581Y865923D01*
X191533Y866007D01*
X191487Y866093D01*
X191446Y866181D01*
X191407Y866271D01*
X191372Y866362D01*
X191341Y866454D01*
X191313Y866547D01*
X191289Y866641D01*
X191269Y866736D01*
X191252Y866832D01*
X191239Y866929D01*
X191230Y867026D01*
X191224Y867123D01*
X191222Y867220D01*
X192005Y865392D02*
X196443Y860171D01*
X191222Y860171D01*
X131809Y575691D02*
X129721Y575691D01*
X131809Y575691D02*
X131898Y575693D01*
X131986Y575699D01*
X132074Y575708D01*
X132162Y575721D01*
X132249Y575738D01*
X132335Y575758D01*
X132420Y575783D01*
X132505Y575810D01*
X132588Y575842D01*
X132669Y575876D01*
X132749Y575915D01*
X132827Y575956D01*
X132904Y576001D01*
X132978Y576049D01*
X133051Y576100D01*
X133121Y576154D01*
X133188Y576212D01*
X133254Y576272D01*
X133316Y576334D01*
X133376Y576400D01*
X133434Y576467D01*
X133488Y576537D01*
X133539Y576610D01*
X133587Y576684D01*
X133632Y576761D01*
X133673Y576839D01*
X133712Y576919D01*
X133746Y577000D01*
X133778Y577083D01*
X133805Y577168D01*
X133830Y577253D01*
X133850Y577339D01*
X133867Y577426D01*
X133880Y577514D01*
X133889Y577602D01*
X133895Y577690D01*
X133897Y577779D01*
X133898Y577779D02*
X133898Y583001D01*
X133897Y583001D02*
X133895Y583090D01*
X133889Y583178D01*
X133880Y583266D01*
X133867Y583354D01*
X133850Y583441D01*
X133830Y583527D01*
X133805Y583612D01*
X133778Y583697D01*
X133746Y583780D01*
X133712Y583861D01*
X133673Y583941D01*
X133632Y584019D01*
X133587Y584096D01*
X133539Y584170D01*
X133488Y584243D01*
X133434Y584313D01*
X133376Y584380D01*
X133316Y584446D01*
X133254Y584508D01*
X133188Y584568D01*
X133121Y584626D01*
X133051Y584680D01*
X132978Y584731D01*
X132904Y584779D01*
X132827Y584824D01*
X132749Y584865D01*
X132669Y584904D01*
X132588Y584938D01*
X132505Y584970D01*
X132420Y584997D01*
X132335Y585022D01*
X132249Y585042D01*
X132162Y585059D01*
X132074Y585072D01*
X131986Y585081D01*
X131898Y585087D01*
X131809Y585089D01*
X129721Y585089D01*
X126252Y575691D02*
X123642Y575691D01*
X123541Y575693D01*
X123440Y575699D01*
X123339Y575709D01*
X123239Y575722D01*
X123139Y575740D01*
X123040Y575761D01*
X122942Y575787D01*
X122845Y575816D01*
X122749Y575848D01*
X122655Y575885D01*
X122562Y575925D01*
X122470Y575969D01*
X122381Y576016D01*
X122293Y576067D01*
X122207Y576121D01*
X122124Y576178D01*
X122042Y576238D01*
X121964Y576302D01*
X121887Y576368D01*
X121814Y576438D01*
X121743Y576510D01*
X121675Y576585D01*
X121610Y576663D01*
X121548Y576743D01*
X121489Y576825D01*
X121433Y576910D01*
X121381Y576997D01*
X121332Y577085D01*
X121286Y577176D01*
X121245Y577268D01*
X121206Y577362D01*
X121172Y577457D01*
X121141Y577553D01*
X121114Y577651D01*
X121090Y577749D01*
X121071Y577849D01*
X121055Y577949D01*
X121043Y578049D01*
X121035Y578150D01*
X121031Y578251D01*
X121031Y578353D01*
X121035Y578454D01*
X121043Y578555D01*
X121055Y578655D01*
X121071Y578755D01*
X121090Y578855D01*
X121114Y578953D01*
X121141Y579051D01*
X121172Y579147D01*
X121206Y579242D01*
X121245Y579336D01*
X121286Y579428D01*
X121332Y579519D01*
X121381Y579608D01*
X121433Y579694D01*
X121489Y579779D01*
X121548Y579861D01*
X121610Y579941D01*
X121675Y580019D01*
X121743Y580094D01*
X121814Y580166D01*
X121887Y580236D01*
X121964Y580302D01*
X122042Y580366D01*
X122124Y580426D01*
X122207Y580483D01*
X122293Y580537D01*
X122381Y580588D01*
X122470Y580635D01*
X122562Y580679D01*
X122655Y580719D01*
X122749Y580756D01*
X122845Y580788D01*
X122942Y580817D01*
X123040Y580843D01*
X123139Y580864D01*
X123239Y580882D01*
X123339Y580895D01*
X123440Y580905D01*
X123541Y580911D01*
X123642Y580913D01*
X123119Y585089D02*
X126252Y585089D01*
X123119Y585089D02*
X123029Y585087D01*
X122940Y585081D01*
X122850Y585072D01*
X122761Y585058D01*
X122673Y585041D01*
X122586Y585020D01*
X122499Y584995D01*
X122414Y584966D01*
X122330Y584934D01*
X122248Y584899D01*
X122167Y584859D01*
X122088Y584817D01*
X122011Y584771D01*
X121936Y584721D01*
X121863Y584669D01*
X121792Y584613D01*
X121724Y584555D01*
X121659Y584493D01*
X121596Y584429D01*
X121536Y584362D01*
X121479Y584293D01*
X121425Y584221D01*
X121374Y584147D01*
X121326Y584071D01*
X121282Y583993D01*
X121241Y583913D01*
X121203Y583831D01*
X121169Y583748D01*
X121139Y583663D01*
X121112Y583577D01*
X121089Y583491D01*
X121070Y583403D01*
X121055Y583314D01*
X121043Y583225D01*
X121035Y583136D01*
X121031Y583046D01*
X121031Y582956D01*
X121035Y582866D01*
X121043Y582777D01*
X121055Y582688D01*
X121070Y582599D01*
X121089Y582511D01*
X121112Y582425D01*
X121139Y582339D01*
X121169Y582254D01*
X121203Y582171D01*
X121241Y582089D01*
X121282Y582009D01*
X121326Y581931D01*
X121374Y581855D01*
X121425Y581781D01*
X121479Y581709D01*
X121536Y581640D01*
X121596Y581573D01*
X121659Y581509D01*
X121724Y581447D01*
X121792Y581389D01*
X121863Y581333D01*
X121936Y581281D01*
X122011Y581231D01*
X122088Y581185D01*
X122167Y581143D01*
X122248Y581103D01*
X122330Y581068D01*
X122414Y581036D01*
X122499Y581007D01*
X122586Y580982D01*
X122673Y580961D01*
X122761Y580944D01*
X122850Y580930D01*
X122940Y580921D01*
X123029Y580915D01*
X123119Y580913D01*
X123119Y580912D02*
X125208Y580912D01*
X156732Y860171D02*
X158821Y860171D01*
X158910Y860173D01*
X158998Y860179D01*
X159086Y860188D01*
X159174Y860201D01*
X159261Y860218D01*
X159347Y860238D01*
X159432Y860263D01*
X159517Y860290D01*
X159600Y860322D01*
X159681Y860356D01*
X159761Y860395D01*
X159839Y860436D01*
X159916Y860481D01*
X159990Y860529D01*
X160063Y860580D01*
X160133Y860634D01*
X160200Y860692D01*
X160266Y860752D01*
X160328Y860814D01*
X160388Y860880D01*
X160446Y860947D01*
X160500Y861017D01*
X160551Y861090D01*
X160599Y861164D01*
X160644Y861241D01*
X160685Y861319D01*
X160724Y861399D01*
X160758Y861480D01*
X160790Y861563D01*
X160817Y861648D01*
X160842Y861733D01*
X160862Y861819D01*
X160879Y861906D01*
X160892Y861994D01*
X160901Y862082D01*
X160907Y862170D01*
X160909Y862259D01*
X160909Y867481D01*
X160907Y867570D01*
X160901Y867658D01*
X160892Y867746D01*
X160879Y867834D01*
X160862Y867921D01*
X160842Y868007D01*
X160817Y868092D01*
X160790Y868177D01*
X160758Y868260D01*
X160724Y868341D01*
X160685Y868421D01*
X160644Y868499D01*
X160599Y868576D01*
X160551Y868650D01*
X160500Y868723D01*
X160446Y868793D01*
X160388Y868860D01*
X160328Y868926D01*
X160266Y868988D01*
X160200Y869048D01*
X160133Y869106D01*
X160063Y869160D01*
X159990Y869211D01*
X159916Y869259D01*
X159839Y869304D01*
X159761Y869345D01*
X159681Y869384D01*
X159600Y869418D01*
X159517Y869450D01*
X159432Y869477D01*
X159347Y869502D01*
X159261Y869522D01*
X159174Y869539D01*
X159086Y869552D01*
X158998Y869561D01*
X158910Y869567D01*
X158821Y869569D01*
X156732Y869569D01*
X151175Y869569D02*
X153263Y862259D01*
X148042Y862259D01*
X149609Y860171D02*
X149609Y864348D01*
D10*
X172320Y625240D02*
X122320Y625240D01*
X172320Y625240D02*
X172320Y675240D01*
X122320Y675240D01*
X122270Y671740D02*
X122320Y625240D01*
X122270Y671740D02*
X122320Y675240D01*
X126296Y667672D02*
X126298Y667791D01*
X126304Y667911D01*
X126314Y668030D01*
X126328Y668148D01*
X126346Y668266D01*
X126367Y668384D01*
X126393Y668500D01*
X126422Y668616D01*
X126456Y668731D01*
X126493Y668844D01*
X126534Y668956D01*
X126578Y669067D01*
X126626Y669177D01*
X126678Y669284D01*
X126733Y669390D01*
X126792Y669494D01*
X126855Y669596D01*
X126920Y669695D01*
X126989Y669793D01*
X127061Y669888D01*
X127136Y669981D01*
X127215Y670071D01*
X127296Y670159D01*
X127380Y670243D01*
X127467Y670325D01*
X127556Y670404D01*
X127648Y670480D01*
X127743Y670553D01*
X127840Y670623D01*
X127939Y670689D01*
X128041Y670752D01*
X128144Y670812D01*
X128249Y670868D01*
X128356Y670921D01*
X128465Y670970D01*
X128576Y671016D01*
X128688Y671057D01*
X128801Y671095D01*
X128915Y671130D01*
X129031Y671160D01*
X129147Y671187D01*
X129264Y671209D01*
X129382Y671228D01*
X129501Y671243D01*
X129620Y671254D01*
X129739Y671261D01*
X129858Y671264D01*
X129978Y671263D01*
X130097Y671258D01*
X130216Y671249D01*
X130335Y671236D01*
X130453Y671219D01*
X130570Y671199D01*
X130687Y671174D01*
X130803Y671145D01*
X130918Y671113D01*
X131032Y671077D01*
X131145Y671037D01*
X131256Y670993D01*
X131365Y670946D01*
X131473Y670895D01*
X131580Y670841D01*
X131684Y670783D01*
X131786Y670721D01*
X131887Y670657D01*
X131985Y670588D01*
X132081Y670517D01*
X132174Y670443D01*
X132265Y670365D01*
X132353Y670285D01*
X132438Y670201D01*
X132521Y670115D01*
X132601Y670026D01*
X132678Y669935D01*
X132751Y669841D01*
X132822Y669744D01*
X132889Y669646D01*
X132953Y669545D01*
X133014Y669442D01*
X133071Y669337D01*
X133124Y669231D01*
X133174Y669122D01*
X133221Y669012D01*
X133263Y668901D01*
X133302Y668788D01*
X133338Y668674D01*
X133369Y668558D01*
X133396Y668442D01*
X133420Y668325D01*
X133440Y668207D01*
X133456Y668089D01*
X133468Y667970D01*
X133476Y667851D01*
X133480Y667732D01*
X133480Y667612D01*
X133476Y667493D01*
X133468Y667374D01*
X133456Y667255D01*
X133440Y667137D01*
X133420Y667019D01*
X133396Y666902D01*
X133369Y666786D01*
X133338Y666670D01*
X133302Y666556D01*
X133263Y666443D01*
X133221Y666332D01*
X133174Y666222D01*
X133124Y666113D01*
X133071Y666007D01*
X133014Y665902D01*
X132953Y665799D01*
X132889Y665698D01*
X132822Y665600D01*
X132751Y665503D01*
X132678Y665409D01*
X132601Y665318D01*
X132521Y665229D01*
X132438Y665143D01*
X132353Y665059D01*
X132265Y664979D01*
X132174Y664901D01*
X132081Y664827D01*
X131985Y664756D01*
X131887Y664687D01*
X131786Y664623D01*
X131684Y664561D01*
X131580Y664503D01*
X131473Y664449D01*
X131365Y664398D01*
X131256Y664351D01*
X131145Y664307D01*
X131032Y664267D01*
X130918Y664231D01*
X130803Y664199D01*
X130687Y664170D01*
X130570Y664145D01*
X130453Y664125D01*
X130335Y664108D01*
X130216Y664095D01*
X130097Y664086D01*
X129978Y664081D01*
X129858Y664080D01*
X129739Y664083D01*
X129620Y664090D01*
X129501Y664101D01*
X129382Y664116D01*
X129264Y664135D01*
X129147Y664157D01*
X129031Y664184D01*
X128915Y664214D01*
X128801Y664249D01*
X128688Y664287D01*
X128576Y664328D01*
X128465Y664374D01*
X128356Y664423D01*
X128249Y664476D01*
X128144Y664532D01*
X128041Y664592D01*
X127939Y664655D01*
X127840Y664721D01*
X127743Y664791D01*
X127648Y664864D01*
X127556Y664940D01*
X127467Y665019D01*
X127380Y665101D01*
X127296Y665185D01*
X127215Y665273D01*
X127136Y665363D01*
X127061Y665456D01*
X126989Y665551D01*
X126920Y665649D01*
X126855Y665748D01*
X126792Y665850D01*
X126733Y665954D01*
X126678Y666060D01*
X126626Y666167D01*
X126578Y666277D01*
X126534Y666388D01*
X126493Y666500D01*
X126456Y666613D01*
X126422Y666728D01*
X126393Y666844D01*
X126367Y666960D01*
X126346Y667078D01*
X126328Y667196D01*
X126314Y667314D01*
X126304Y667433D01*
X126298Y667553D01*
X126296Y667672D01*
D11*
X120321Y676181D02*
X120321Y685579D01*
X121365Y676181D02*
X119277Y676181D01*
X119277Y685579D02*
X121365Y685579D01*
X113553Y676181D02*
X111465Y676181D01*
X113553Y676181D02*
X113642Y676183D01*
X113730Y676189D01*
X113818Y676198D01*
X113906Y676211D01*
X113993Y676228D01*
X114079Y676248D01*
X114164Y676273D01*
X114249Y676300D01*
X114332Y676332D01*
X114413Y676366D01*
X114493Y676405D01*
X114571Y676446D01*
X114648Y676491D01*
X114722Y676539D01*
X114795Y676590D01*
X114865Y676644D01*
X114932Y676702D01*
X114998Y676762D01*
X115060Y676824D01*
X115120Y676890D01*
X115178Y676957D01*
X115232Y677027D01*
X115283Y677100D01*
X115331Y677174D01*
X115376Y677251D01*
X115417Y677329D01*
X115456Y677409D01*
X115490Y677490D01*
X115522Y677573D01*
X115549Y677658D01*
X115574Y677743D01*
X115594Y677829D01*
X115611Y677916D01*
X115624Y678004D01*
X115633Y678092D01*
X115639Y678180D01*
X115641Y678269D01*
X115642Y678269D02*
X115642Y683491D01*
X115641Y683491D02*
X115639Y683580D01*
X115633Y683668D01*
X115624Y683756D01*
X115611Y683844D01*
X115594Y683931D01*
X115574Y684017D01*
X115549Y684102D01*
X115522Y684187D01*
X115490Y684270D01*
X115456Y684351D01*
X115417Y684431D01*
X115376Y684509D01*
X115331Y684586D01*
X115283Y684660D01*
X115232Y684733D01*
X115178Y684803D01*
X115120Y684870D01*
X115060Y684936D01*
X114998Y684998D01*
X114932Y685058D01*
X114865Y685116D01*
X114795Y685170D01*
X114722Y685221D01*
X114648Y685269D01*
X114571Y685314D01*
X114493Y685355D01*
X114413Y685394D01*
X114332Y685428D01*
X114249Y685460D01*
X114164Y685487D01*
X114079Y685512D01*
X113993Y685532D01*
X113906Y685549D01*
X113818Y685562D01*
X113730Y685571D01*
X113642Y685577D01*
X113553Y685579D01*
X111465Y685579D01*
X107996Y683491D02*
X105386Y685579D01*
X105386Y676181D01*
X107996Y676181D02*
X102775Y676181D01*
X122809Y860171D02*
X122809Y869569D01*
X120198Y869569D01*
X120097Y869567D01*
X119996Y869561D01*
X119895Y869551D01*
X119795Y869538D01*
X119695Y869520D01*
X119596Y869499D01*
X119498Y869473D01*
X119401Y869444D01*
X119305Y869412D01*
X119211Y869375D01*
X119118Y869335D01*
X119026Y869291D01*
X118937Y869244D01*
X118849Y869193D01*
X118763Y869139D01*
X118680Y869082D01*
X118598Y869022D01*
X118520Y868958D01*
X118443Y868892D01*
X118370Y868822D01*
X118299Y868750D01*
X118231Y868675D01*
X118166Y868597D01*
X118104Y868517D01*
X118045Y868435D01*
X117989Y868350D01*
X117937Y868264D01*
X117888Y868175D01*
X117842Y868084D01*
X117801Y867992D01*
X117762Y867898D01*
X117728Y867803D01*
X117697Y867707D01*
X117670Y867609D01*
X117646Y867511D01*
X117627Y867411D01*
X117611Y867311D01*
X117599Y867211D01*
X117591Y867110D01*
X117587Y867009D01*
X117587Y866907D01*
X117591Y866806D01*
X117599Y866705D01*
X117611Y866605D01*
X117627Y866505D01*
X117646Y866405D01*
X117670Y866307D01*
X117697Y866209D01*
X117728Y866113D01*
X117762Y866018D01*
X117801Y865924D01*
X117842Y865832D01*
X117888Y865741D01*
X117937Y865653D01*
X117989Y865566D01*
X118045Y865481D01*
X118104Y865399D01*
X118166Y865319D01*
X118231Y865241D01*
X118299Y865166D01*
X118370Y865094D01*
X118443Y865024D01*
X118520Y864958D01*
X118598Y864894D01*
X118680Y864834D01*
X118763Y864777D01*
X118849Y864723D01*
X118937Y864672D01*
X119026Y864625D01*
X119118Y864581D01*
X119211Y864541D01*
X119305Y864504D01*
X119401Y864472D01*
X119498Y864443D01*
X119596Y864417D01*
X119695Y864396D01*
X119795Y864378D01*
X119895Y864365D01*
X119996Y864355D01*
X120097Y864349D01*
X120198Y864347D01*
X120198Y864348D02*
X122809Y864348D01*
X119676Y864348D02*
X117588Y860171D01*
X113722Y867481D02*
X111112Y869569D01*
X111112Y860171D01*
X113722Y860171D02*
X108501Y860171D01*
X104578Y864870D02*
X104576Y865055D01*
X104569Y865240D01*
X104558Y865424D01*
X104543Y865608D01*
X104523Y865792D01*
X104499Y865976D01*
X104470Y866158D01*
X104437Y866340D01*
X104400Y866521D01*
X104358Y866701D01*
X104312Y866881D01*
X104262Y867059D01*
X104208Y867235D01*
X104149Y867411D01*
X104087Y867585D01*
X104020Y867757D01*
X103949Y867928D01*
X103874Y868097D01*
X103795Y868264D01*
X103796Y868264D02*
X103766Y868344D01*
X103733Y868423D01*
X103696Y868500D01*
X103656Y868576D01*
X103613Y868650D01*
X103567Y868722D01*
X103517Y868791D01*
X103465Y868859D01*
X103409Y868924D01*
X103351Y868987D01*
X103289Y869046D01*
X103226Y869104D01*
X103159Y869158D01*
X103091Y869209D01*
X103020Y869257D01*
X102947Y869302D01*
X102873Y869344D01*
X102796Y869382D01*
X102718Y869417D01*
X102639Y869449D01*
X102558Y869477D01*
X102476Y869501D01*
X102392Y869522D01*
X102309Y869539D01*
X102224Y869552D01*
X102139Y869561D01*
X102054Y869567D01*
X101968Y869569D01*
X101882Y869567D01*
X101797Y869561D01*
X101712Y869552D01*
X101627Y869539D01*
X101544Y869522D01*
X101460Y869501D01*
X101378Y869477D01*
X101298Y869449D01*
X101218Y869417D01*
X101140Y869382D01*
X101063Y869344D01*
X100989Y869302D01*
X100916Y869257D01*
X100845Y869209D01*
X100777Y869158D01*
X100710Y869104D01*
X100647Y869046D01*
X100586Y868987D01*
X100527Y868924D01*
X100472Y868859D01*
X100419Y868791D01*
X100369Y868722D01*
X100323Y868650D01*
X100280Y868576D01*
X100240Y868500D01*
X100203Y868423D01*
X100170Y868344D01*
X100140Y868264D01*
X100061Y868097D01*
X99986Y867928D01*
X99915Y867757D01*
X99848Y867585D01*
X99786Y867411D01*
X99727Y867235D01*
X99673Y867059D01*
X99623Y866881D01*
X99577Y866701D01*
X99535Y866521D01*
X99498Y866340D01*
X99465Y866158D01*
X99436Y865976D01*
X99412Y865792D01*
X99392Y865608D01*
X99377Y865424D01*
X99366Y865240D01*
X99359Y865055D01*
X99357Y864870D01*
X104578Y864870D02*
X104576Y864685D01*
X104569Y864500D01*
X104558Y864316D01*
X104543Y864132D01*
X104523Y863948D01*
X104499Y863764D01*
X104470Y863582D01*
X104437Y863400D01*
X104400Y863219D01*
X104358Y863039D01*
X104312Y862859D01*
X104262Y862681D01*
X104208Y862505D01*
X104149Y862329D01*
X104087Y862155D01*
X104020Y861983D01*
X103949Y861812D01*
X103874Y861643D01*
X103795Y861476D01*
X103796Y861476D02*
X103766Y861396D01*
X103733Y861317D01*
X103696Y861240D01*
X103656Y861164D01*
X103613Y861090D01*
X103567Y861018D01*
X103517Y860949D01*
X103464Y860881D01*
X103409Y860816D01*
X103350Y860753D01*
X103289Y860694D01*
X103226Y860636D01*
X103159Y860582D01*
X103091Y860531D01*
X103020Y860483D01*
X102947Y860438D01*
X102873Y860396D01*
X102796Y860358D01*
X102718Y860323D01*
X102639Y860291D01*
X102558Y860263D01*
X102476Y860239D01*
X102392Y860218D01*
X102309Y860201D01*
X102224Y860188D01*
X102139Y860179D01*
X102054Y860173D01*
X101968Y860171D01*
X100140Y861476D02*
X100061Y861643D01*
X99986Y861812D01*
X99915Y861983D01*
X99848Y862155D01*
X99786Y862329D01*
X99727Y862505D01*
X99673Y862681D01*
X99623Y862859D01*
X99577Y863039D01*
X99535Y863219D01*
X99498Y863400D01*
X99465Y863582D01*
X99436Y863764D01*
X99412Y863948D01*
X99392Y864132D01*
X99377Y864316D01*
X99366Y864500D01*
X99359Y864685D01*
X99357Y864870D01*
X100140Y861476D02*
X100170Y861396D01*
X100203Y861317D01*
X100240Y861240D01*
X100280Y861164D01*
X100323Y861090D01*
X100369Y861018D01*
X100419Y860949D01*
X100472Y860881D01*
X100527Y860816D01*
X100586Y860753D01*
X100647Y860694D01*
X100710Y860636D01*
X100777Y860582D01*
X100845Y860531D01*
X100916Y860483D01*
X100989Y860438D01*
X101063Y860396D01*
X101140Y860358D01*
X101218Y860323D01*
X101298Y860291D01*
X101378Y860263D01*
X101460Y860239D01*
X101544Y860218D01*
X101627Y860201D01*
X101712Y860188D01*
X101797Y860179D01*
X101882Y860173D01*
X101968Y860171D01*
X104056Y862259D02*
X99879Y867481D01*
X56769Y718439D02*
X56769Y709041D01*
X56769Y718439D02*
X54158Y718439D01*
X54057Y718437D01*
X53956Y718431D01*
X53855Y718421D01*
X53755Y718408D01*
X53655Y718390D01*
X53556Y718369D01*
X53458Y718343D01*
X53361Y718314D01*
X53265Y718282D01*
X53171Y718245D01*
X53078Y718205D01*
X52986Y718161D01*
X52897Y718114D01*
X52809Y718063D01*
X52723Y718009D01*
X52640Y717952D01*
X52558Y717892D01*
X52480Y717828D01*
X52403Y717762D01*
X52330Y717692D01*
X52259Y717620D01*
X52191Y717545D01*
X52126Y717467D01*
X52064Y717387D01*
X52005Y717305D01*
X51949Y717220D01*
X51897Y717134D01*
X51848Y717045D01*
X51802Y716954D01*
X51761Y716862D01*
X51722Y716768D01*
X51688Y716673D01*
X51657Y716577D01*
X51630Y716479D01*
X51606Y716381D01*
X51587Y716281D01*
X51571Y716181D01*
X51559Y716081D01*
X51551Y715980D01*
X51547Y715879D01*
X51547Y715777D01*
X51551Y715676D01*
X51559Y715575D01*
X51571Y715475D01*
X51587Y715375D01*
X51606Y715275D01*
X51630Y715177D01*
X51657Y715079D01*
X51688Y714983D01*
X51722Y714888D01*
X51761Y714794D01*
X51802Y714702D01*
X51848Y714611D01*
X51897Y714523D01*
X51949Y714436D01*
X52005Y714351D01*
X52064Y714269D01*
X52126Y714189D01*
X52191Y714111D01*
X52259Y714036D01*
X52330Y713964D01*
X52403Y713894D01*
X52480Y713828D01*
X52558Y713764D01*
X52640Y713704D01*
X52723Y713647D01*
X52809Y713593D01*
X52897Y713542D01*
X52986Y713495D01*
X53078Y713451D01*
X53171Y713411D01*
X53265Y713374D01*
X53361Y713342D01*
X53458Y713313D01*
X53556Y713287D01*
X53655Y713266D01*
X53755Y713248D01*
X53855Y713235D01*
X53956Y713225D01*
X54057Y713219D01*
X54158Y713217D01*
X54158Y713218D02*
X56769Y713218D01*
X53636Y713218D02*
X51548Y709041D01*
X47682Y716351D02*
X45072Y718439D01*
X45072Y709041D01*
X47682Y709041D02*
X42461Y709041D01*
X38538Y716351D02*
X35928Y718439D01*
X35928Y709041D01*
X38538Y709041D02*
X33317Y709041D01*
X254889Y743331D02*
X254889Y752729D01*
X252278Y752729D01*
X252177Y752727D01*
X252076Y752721D01*
X251975Y752711D01*
X251875Y752698D01*
X251775Y752680D01*
X251676Y752659D01*
X251578Y752633D01*
X251481Y752604D01*
X251385Y752572D01*
X251291Y752535D01*
X251198Y752495D01*
X251106Y752451D01*
X251017Y752404D01*
X250929Y752353D01*
X250843Y752299D01*
X250760Y752242D01*
X250678Y752182D01*
X250600Y752118D01*
X250523Y752052D01*
X250450Y751982D01*
X250379Y751910D01*
X250311Y751835D01*
X250246Y751757D01*
X250184Y751677D01*
X250125Y751595D01*
X250069Y751510D01*
X250017Y751424D01*
X249968Y751335D01*
X249922Y751244D01*
X249881Y751152D01*
X249842Y751058D01*
X249808Y750963D01*
X249777Y750867D01*
X249750Y750769D01*
X249726Y750671D01*
X249707Y750571D01*
X249691Y750471D01*
X249679Y750371D01*
X249671Y750270D01*
X249667Y750169D01*
X249667Y750067D01*
X249671Y749966D01*
X249679Y749865D01*
X249691Y749765D01*
X249707Y749665D01*
X249726Y749565D01*
X249750Y749467D01*
X249777Y749369D01*
X249808Y749273D01*
X249842Y749178D01*
X249881Y749084D01*
X249922Y748992D01*
X249968Y748901D01*
X250017Y748813D01*
X250069Y748726D01*
X250125Y748641D01*
X250184Y748559D01*
X250246Y748479D01*
X250311Y748401D01*
X250379Y748326D01*
X250450Y748254D01*
X250523Y748184D01*
X250600Y748118D01*
X250678Y748054D01*
X250760Y747994D01*
X250843Y747937D01*
X250929Y747883D01*
X251017Y747832D01*
X251106Y747785D01*
X251198Y747741D01*
X251291Y747701D01*
X251385Y747664D01*
X251481Y747632D01*
X251578Y747603D01*
X251676Y747577D01*
X251775Y747556D01*
X251875Y747538D01*
X251975Y747525D01*
X252076Y747515D01*
X252177Y747509D01*
X252278Y747507D01*
X252278Y747508D02*
X254889Y747508D01*
X251756Y747508D02*
X249668Y743331D01*
X240581Y750380D02*
X240583Y750475D01*
X240589Y750569D01*
X240598Y750663D01*
X240611Y750757D01*
X240628Y750850D01*
X240649Y750942D01*
X240674Y751034D01*
X240702Y751124D01*
X240734Y751213D01*
X240769Y751301D01*
X240808Y751387D01*
X240850Y751472D01*
X240896Y751555D01*
X240945Y751636D01*
X240997Y751715D01*
X241052Y751792D01*
X241111Y751866D01*
X241172Y751938D01*
X241236Y752008D01*
X241303Y752075D01*
X241373Y752139D01*
X241445Y752200D01*
X241519Y752259D01*
X241596Y752314D01*
X241675Y752366D01*
X241756Y752415D01*
X241839Y752461D01*
X241924Y752503D01*
X242010Y752542D01*
X242098Y752577D01*
X242187Y752609D01*
X242277Y752637D01*
X242369Y752662D01*
X242461Y752683D01*
X242554Y752700D01*
X242648Y752713D01*
X242742Y752722D01*
X242836Y752728D01*
X242931Y752730D01*
X242931Y752729D02*
X243039Y752727D01*
X243148Y752721D01*
X243256Y752711D01*
X243363Y752698D01*
X243470Y752680D01*
X243577Y752659D01*
X243682Y752634D01*
X243787Y752605D01*
X243890Y752573D01*
X243992Y752536D01*
X244093Y752496D01*
X244192Y752453D01*
X244290Y752406D01*
X244386Y752355D01*
X244480Y752301D01*
X244572Y752244D01*
X244662Y752183D01*
X244750Y752119D01*
X244835Y752053D01*
X244918Y751983D01*
X244998Y751910D01*
X245076Y751834D01*
X245151Y751756D01*
X245223Y751675D01*
X245292Y751591D01*
X245358Y751505D01*
X245421Y751417D01*
X245480Y751326D01*
X245537Y751234D01*
X245590Y751139D01*
X245639Y751042D01*
X245685Y750944D01*
X245728Y750845D01*
X245767Y750743D01*
X245802Y750641D01*
X241364Y748552D02*
X241295Y748621D01*
X241229Y748692D01*
X241165Y748765D01*
X241104Y748841D01*
X241046Y748920D01*
X240992Y749000D01*
X240940Y749083D01*
X240892Y749167D01*
X240846Y749253D01*
X240805Y749341D01*
X240766Y749431D01*
X240731Y749522D01*
X240700Y749614D01*
X240672Y749707D01*
X240648Y749801D01*
X240628Y749896D01*
X240611Y749992D01*
X240598Y750089D01*
X240589Y750186D01*
X240583Y750283D01*
X240581Y750380D01*
X241364Y748552D02*
X245802Y743331D01*
X240581Y743331D01*
X252349Y234569D02*
X252349Y225171D01*
X252349Y234569D02*
X249738Y234569D01*
X249637Y234567D01*
X249536Y234561D01*
X249435Y234551D01*
X249335Y234538D01*
X249235Y234520D01*
X249136Y234499D01*
X249038Y234473D01*
X248941Y234444D01*
X248845Y234412D01*
X248751Y234375D01*
X248658Y234335D01*
X248566Y234291D01*
X248477Y234244D01*
X248389Y234193D01*
X248303Y234139D01*
X248220Y234082D01*
X248138Y234022D01*
X248060Y233958D01*
X247983Y233892D01*
X247910Y233822D01*
X247839Y233750D01*
X247771Y233675D01*
X247706Y233597D01*
X247644Y233517D01*
X247585Y233435D01*
X247529Y233350D01*
X247477Y233264D01*
X247428Y233175D01*
X247382Y233084D01*
X247341Y232992D01*
X247302Y232898D01*
X247268Y232803D01*
X247237Y232707D01*
X247210Y232609D01*
X247186Y232511D01*
X247167Y232411D01*
X247151Y232311D01*
X247139Y232211D01*
X247131Y232110D01*
X247127Y232009D01*
X247127Y231907D01*
X247131Y231806D01*
X247139Y231705D01*
X247151Y231605D01*
X247167Y231505D01*
X247186Y231405D01*
X247210Y231307D01*
X247237Y231209D01*
X247268Y231113D01*
X247302Y231018D01*
X247341Y230924D01*
X247382Y230832D01*
X247428Y230741D01*
X247477Y230653D01*
X247529Y230566D01*
X247585Y230481D01*
X247644Y230399D01*
X247706Y230319D01*
X247771Y230241D01*
X247839Y230166D01*
X247910Y230094D01*
X247983Y230024D01*
X248060Y229958D01*
X248138Y229894D01*
X248220Y229834D01*
X248303Y229777D01*
X248389Y229723D01*
X248477Y229672D01*
X248566Y229625D01*
X248658Y229581D01*
X248751Y229541D01*
X248845Y229504D01*
X248941Y229472D01*
X249038Y229443D01*
X249136Y229417D01*
X249235Y229396D01*
X249335Y229378D01*
X249435Y229365D01*
X249536Y229355D01*
X249637Y229349D01*
X249738Y229347D01*
X249738Y229348D02*
X252349Y229348D01*
X249216Y229348D02*
X247128Y225171D01*
X243262Y225171D02*
X240652Y225171D01*
X240551Y225173D01*
X240450Y225179D01*
X240349Y225189D01*
X240249Y225202D01*
X240149Y225220D01*
X240050Y225241D01*
X239952Y225267D01*
X239855Y225296D01*
X239759Y225328D01*
X239665Y225365D01*
X239572Y225405D01*
X239480Y225449D01*
X239391Y225496D01*
X239303Y225547D01*
X239217Y225601D01*
X239134Y225658D01*
X239052Y225718D01*
X238974Y225782D01*
X238897Y225848D01*
X238824Y225918D01*
X238753Y225990D01*
X238685Y226065D01*
X238620Y226143D01*
X238558Y226223D01*
X238499Y226305D01*
X238443Y226390D01*
X238391Y226477D01*
X238342Y226565D01*
X238296Y226656D01*
X238255Y226748D01*
X238216Y226842D01*
X238182Y226937D01*
X238151Y227033D01*
X238124Y227131D01*
X238100Y227229D01*
X238081Y227329D01*
X238065Y227429D01*
X238053Y227529D01*
X238045Y227630D01*
X238041Y227731D01*
X238041Y227833D01*
X238045Y227934D01*
X238053Y228035D01*
X238065Y228135D01*
X238081Y228235D01*
X238100Y228335D01*
X238124Y228433D01*
X238151Y228531D01*
X238182Y228627D01*
X238216Y228722D01*
X238255Y228816D01*
X238296Y228908D01*
X238342Y228999D01*
X238391Y229088D01*
X238443Y229174D01*
X238499Y229259D01*
X238558Y229341D01*
X238620Y229421D01*
X238685Y229499D01*
X238753Y229574D01*
X238824Y229646D01*
X238897Y229716D01*
X238974Y229782D01*
X239052Y229846D01*
X239134Y229906D01*
X239217Y229963D01*
X239303Y230017D01*
X239391Y230068D01*
X239480Y230115D01*
X239572Y230159D01*
X239665Y230199D01*
X239759Y230236D01*
X239855Y230268D01*
X239952Y230297D01*
X240050Y230323D01*
X240149Y230344D01*
X240249Y230362D01*
X240349Y230375D01*
X240450Y230385D01*
X240551Y230391D01*
X240652Y230393D01*
X240129Y234569D02*
X243262Y234569D01*
X240129Y234569D02*
X240039Y234567D01*
X239950Y234561D01*
X239860Y234552D01*
X239771Y234538D01*
X239683Y234521D01*
X239596Y234500D01*
X239509Y234475D01*
X239424Y234446D01*
X239340Y234414D01*
X239258Y234379D01*
X239177Y234339D01*
X239098Y234297D01*
X239021Y234251D01*
X238946Y234201D01*
X238873Y234149D01*
X238802Y234093D01*
X238734Y234035D01*
X238669Y233973D01*
X238606Y233909D01*
X238546Y233842D01*
X238489Y233773D01*
X238435Y233701D01*
X238384Y233627D01*
X238336Y233551D01*
X238292Y233473D01*
X238251Y233393D01*
X238213Y233311D01*
X238179Y233228D01*
X238149Y233143D01*
X238122Y233057D01*
X238099Y232971D01*
X238080Y232883D01*
X238065Y232794D01*
X238053Y232705D01*
X238045Y232616D01*
X238041Y232526D01*
X238041Y232436D01*
X238045Y232346D01*
X238053Y232257D01*
X238065Y232168D01*
X238080Y232079D01*
X238099Y231991D01*
X238122Y231905D01*
X238149Y231819D01*
X238179Y231734D01*
X238213Y231651D01*
X238251Y231569D01*
X238292Y231489D01*
X238336Y231411D01*
X238384Y231335D01*
X238435Y231261D01*
X238489Y231189D01*
X238546Y231120D01*
X238606Y231053D01*
X238669Y230989D01*
X238734Y230927D01*
X238802Y230869D01*
X238873Y230813D01*
X238946Y230761D01*
X239021Y230711D01*
X239098Y230665D01*
X239177Y230623D01*
X239258Y230583D01*
X239340Y230548D01*
X239424Y230516D01*
X239509Y230487D01*
X239596Y230462D01*
X239683Y230441D01*
X239771Y230424D01*
X239860Y230410D01*
X239950Y230401D01*
X240039Y230395D01*
X240129Y230393D01*
X240129Y230392D02*
X242218Y230392D01*
X254719Y682371D02*
X254719Y691769D01*
X252108Y691769D01*
X252007Y691767D01*
X251906Y691761D01*
X251805Y691751D01*
X251705Y691738D01*
X251605Y691720D01*
X251506Y691699D01*
X251408Y691673D01*
X251311Y691644D01*
X251215Y691612D01*
X251121Y691575D01*
X251028Y691535D01*
X250936Y691491D01*
X250847Y691444D01*
X250759Y691393D01*
X250673Y691339D01*
X250590Y691282D01*
X250508Y691222D01*
X250430Y691158D01*
X250353Y691092D01*
X250280Y691022D01*
X250209Y690950D01*
X250141Y690875D01*
X250076Y690797D01*
X250014Y690717D01*
X249955Y690635D01*
X249899Y690550D01*
X249847Y690464D01*
X249798Y690375D01*
X249752Y690284D01*
X249711Y690192D01*
X249672Y690098D01*
X249638Y690003D01*
X249607Y689907D01*
X249580Y689809D01*
X249556Y689711D01*
X249537Y689611D01*
X249521Y689511D01*
X249509Y689411D01*
X249501Y689310D01*
X249497Y689209D01*
X249497Y689107D01*
X249501Y689006D01*
X249509Y688905D01*
X249521Y688805D01*
X249537Y688705D01*
X249556Y688605D01*
X249580Y688507D01*
X249607Y688409D01*
X249638Y688313D01*
X249672Y688218D01*
X249711Y688124D01*
X249752Y688032D01*
X249798Y687941D01*
X249847Y687853D01*
X249899Y687766D01*
X249955Y687681D01*
X250014Y687599D01*
X250076Y687519D01*
X250141Y687441D01*
X250209Y687366D01*
X250280Y687294D01*
X250353Y687224D01*
X250430Y687158D01*
X250508Y687094D01*
X250590Y687034D01*
X250673Y686977D01*
X250759Y686923D01*
X250847Y686872D01*
X250936Y686825D01*
X251028Y686781D01*
X251121Y686741D01*
X251215Y686704D01*
X251311Y686672D01*
X251408Y686643D01*
X251506Y686617D01*
X251605Y686596D01*
X251705Y686578D01*
X251805Y686565D01*
X251906Y686555D01*
X252007Y686549D01*
X252108Y686547D01*
X252108Y686548D02*
X254719Y686548D01*
X251586Y686548D02*
X249498Y682371D01*
X245632Y684459D02*
X243544Y691769D01*
X245632Y684459D02*
X240411Y684459D01*
X241977Y686548D02*
X241977Y682371D01*
X221699Y671449D02*
X221699Y662051D01*
X221699Y671449D02*
X219088Y671449D01*
X218987Y671447D01*
X218886Y671441D01*
X218785Y671431D01*
X218685Y671418D01*
X218585Y671400D01*
X218486Y671379D01*
X218388Y671353D01*
X218291Y671324D01*
X218195Y671292D01*
X218101Y671255D01*
X218008Y671215D01*
X217916Y671171D01*
X217827Y671124D01*
X217739Y671073D01*
X217653Y671019D01*
X217570Y670962D01*
X217488Y670902D01*
X217410Y670838D01*
X217333Y670772D01*
X217260Y670702D01*
X217189Y670630D01*
X217121Y670555D01*
X217056Y670477D01*
X216994Y670397D01*
X216935Y670315D01*
X216879Y670230D01*
X216827Y670144D01*
X216778Y670055D01*
X216732Y669964D01*
X216691Y669872D01*
X216652Y669778D01*
X216618Y669683D01*
X216587Y669587D01*
X216560Y669489D01*
X216536Y669391D01*
X216517Y669291D01*
X216501Y669191D01*
X216489Y669091D01*
X216481Y668990D01*
X216477Y668889D01*
X216477Y668787D01*
X216481Y668686D01*
X216489Y668585D01*
X216501Y668485D01*
X216517Y668385D01*
X216536Y668285D01*
X216560Y668187D01*
X216587Y668089D01*
X216618Y667993D01*
X216652Y667898D01*
X216691Y667804D01*
X216732Y667712D01*
X216778Y667621D01*
X216827Y667533D01*
X216879Y667446D01*
X216935Y667361D01*
X216994Y667279D01*
X217056Y667199D01*
X217121Y667121D01*
X217189Y667046D01*
X217260Y666974D01*
X217333Y666904D01*
X217410Y666838D01*
X217488Y666774D01*
X217570Y666714D01*
X217653Y666657D01*
X217739Y666603D01*
X217827Y666552D01*
X217916Y666505D01*
X218008Y666461D01*
X218101Y666421D01*
X218195Y666384D01*
X218291Y666352D01*
X218388Y666323D01*
X218486Y666297D01*
X218585Y666276D01*
X218685Y666258D01*
X218785Y666245D01*
X218886Y666235D01*
X218987Y666229D01*
X219088Y666227D01*
X219088Y666228D02*
X221699Y666228D01*
X218566Y666228D02*
X216478Y662051D01*
X212612Y662051D02*
X209479Y662051D01*
X209390Y662053D01*
X209302Y662059D01*
X209214Y662068D01*
X209126Y662081D01*
X209039Y662098D01*
X208953Y662118D01*
X208868Y662143D01*
X208783Y662170D01*
X208700Y662202D01*
X208619Y662236D01*
X208539Y662275D01*
X208461Y662316D01*
X208384Y662361D01*
X208310Y662409D01*
X208237Y662460D01*
X208167Y662514D01*
X208100Y662572D01*
X208034Y662632D01*
X207972Y662694D01*
X207912Y662760D01*
X207854Y662827D01*
X207800Y662897D01*
X207749Y662970D01*
X207701Y663044D01*
X207656Y663121D01*
X207615Y663199D01*
X207576Y663279D01*
X207542Y663360D01*
X207510Y663443D01*
X207483Y663528D01*
X207458Y663613D01*
X207438Y663699D01*
X207421Y663786D01*
X207408Y663874D01*
X207399Y663962D01*
X207393Y664050D01*
X207391Y664139D01*
X207391Y665184D01*
X207393Y665273D01*
X207399Y665361D01*
X207408Y665449D01*
X207421Y665537D01*
X207438Y665624D01*
X207458Y665710D01*
X207483Y665795D01*
X207510Y665880D01*
X207542Y665963D01*
X207576Y666044D01*
X207615Y666124D01*
X207656Y666202D01*
X207701Y666279D01*
X207749Y666353D01*
X207800Y666426D01*
X207854Y666496D01*
X207912Y666563D01*
X207972Y666629D01*
X208034Y666691D01*
X208100Y666751D01*
X208167Y666809D01*
X208237Y666863D01*
X208310Y666914D01*
X208384Y666962D01*
X208461Y667007D01*
X208539Y667048D01*
X208619Y667087D01*
X208700Y667121D01*
X208783Y667153D01*
X208868Y667180D01*
X208953Y667205D01*
X209039Y667225D01*
X209126Y667242D01*
X209214Y667255D01*
X209302Y667264D01*
X209390Y667270D01*
X209479Y667272D01*
X212612Y667272D01*
X212612Y671449D01*
X207391Y671449D01*
X231859Y613029D02*
X231859Y603631D01*
X231859Y613029D02*
X229248Y613029D01*
X229147Y613027D01*
X229046Y613021D01*
X228945Y613011D01*
X228845Y612998D01*
X228745Y612980D01*
X228646Y612959D01*
X228548Y612933D01*
X228451Y612904D01*
X228355Y612872D01*
X228261Y612835D01*
X228168Y612795D01*
X228076Y612751D01*
X227987Y612704D01*
X227899Y612653D01*
X227813Y612599D01*
X227730Y612542D01*
X227648Y612482D01*
X227570Y612418D01*
X227493Y612352D01*
X227420Y612282D01*
X227349Y612210D01*
X227281Y612135D01*
X227216Y612057D01*
X227154Y611977D01*
X227095Y611895D01*
X227039Y611810D01*
X226987Y611724D01*
X226938Y611635D01*
X226892Y611544D01*
X226851Y611452D01*
X226812Y611358D01*
X226778Y611263D01*
X226747Y611167D01*
X226720Y611069D01*
X226696Y610971D01*
X226677Y610871D01*
X226661Y610771D01*
X226649Y610671D01*
X226641Y610570D01*
X226637Y610469D01*
X226637Y610367D01*
X226641Y610266D01*
X226649Y610165D01*
X226661Y610065D01*
X226677Y609965D01*
X226696Y609865D01*
X226720Y609767D01*
X226747Y609669D01*
X226778Y609573D01*
X226812Y609478D01*
X226851Y609384D01*
X226892Y609292D01*
X226938Y609201D01*
X226987Y609113D01*
X227039Y609026D01*
X227095Y608941D01*
X227154Y608859D01*
X227216Y608779D01*
X227281Y608701D01*
X227349Y608626D01*
X227420Y608554D01*
X227493Y608484D01*
X227570Y608418D01*
X227648Y608354D01*
X227730Y608294D01*
X227813Y608237D01*
X227899Y608183D01*
X227987Y608132D01*
X228076Y608085D01*
X228168Y608041D01*
X228261Y608001D01*
X228355Y607964D01*
X228451Y607932D01*
X228548Y607903D01*
X228646Y607877D01*
X228745Y607856D01*
X228845Y607838D01*
X228945Y607825D01*
X229046Y607815D01*
X229147Y607809D01*
X229248Y607807D01*
X229248Y607808D02*
X231859Y607808D01*
X228726Y607808D02*
X226638Y603631D01*
X222772Y608852D02*
X219639Y608852D01*
X219550Y608850D01*
X219462Y608844D01*
X219374Y608835D01*
X219286Y608822D01*
X219199Y608805D01*
X219113Y608785D01*
X219028Y608760D01*
X218943Y608733D01*
X218860Y608701D01*
X218779Y608667D01*
X218699Y608628D01*
X218621Y608587D01*
X218544Y608542D01*
X218470Y608494D01*
X218397Y608443D01*
X218327Y608389D01*
X218260Y608331D01*
X218194Y608271D01*
X218132Y608209D01*
X218072Y608143D01*
X218014Y608076D01*
X217960Y608006D01*
X217909Y607933D01*
X217861Y607859D01*
X217816Y607782D01*
X217775Y607704D01*
X217736Y607624D01*
X217702Y607543D01*
X217670Y607460D01*
X217643Y607375D01*
X217618Y607290D01*
X217598Y607204D01*
X217581Y607117D01*
X217568Y607029D01*
X217559Y606941D01*
X217553Y606853D01*
X217551Y606764D01*
X217551Y606242D01*
X217553Y606141D01*
X217559Y606040D01*
X217569Y605939D01*
X217582Y605839D01*
X217600Y605739D01*
X217621Y605640D01*
X217647Y605542D01*
X217676Y605445D01*
X217708Y605349D01*
X217745Y605255D01*
X217785Y605162D01*
X217829Y605070D01*
X217876Y604981D01*
X217927Y604893D01*
X217981Y604807D01*
X218038Y604724D01*
X218098Y604642D01*
X218162Y604564D01*
X218228Y604487D01*
X218298Y604414D01*
X218370Y604343D01*
X218445Y604275D01*
X218523Y604210D01*
X218603Y604148D01*
X218685Y604089D01*
X218770Y604033D01*
X218857Y603981D01*
X218945Y603932D01*
X219036Y603886D01*
X219128Y603845D01*
X219222Y603806D01*
X219317Y603772D01*
X219413Y603741D01*
X219511Y603714D01*
X219609Y603690D01*
X219709Y603671D01*
X219809Y603655D01*
X219909Y603643D01*
X220010Y603635D01*
X220111Y603631D01*
X220213Y603631D01*
X220314Y603635D01*
X220415Y603643D01*
X220515Y603655D01*
X220615Y603671D01*
X220715Y603690D01*
X220813Y603714D01*
X220911Y603741D01*
X221007Y603772D01*
X221102Y603806D01*
X221196Y603845D01*
X221288Y603886D01*
X221379Y603932D01*
X221467Y603981D01*
X221554Y604033D01*
X221639Y604089D01*
X221721Y604148D01*
X221801Y604210D01*
X221879Y604275D01*
X221954Y604343D01*
X222026Y604414D01*
X222096Y604487D01*
X222162Y604564D01*
X222226Y604642D01*
X222286Y604724D01*
X222343Y604807D01*
X222397Y604893D01*
X222448Y604981D01*
X222495Y605070D01*
X222539Y605162D01*
X222579Y605255D01*
X222616Y605349D01*
X222648Y605445D01*
X222677Y605542D01*
X222703Y605640D01*
X222724Y605739D01*
X222742Y605839D01*
X222755Y605939D01*
X222765Y606040D01*
X222771Y606141D01*
X222773Y606242D01*
X222772Y606242D02*
X222772Y608852D01*
X222770Y608978D01*
X222764Y609104D01*
X222755Y609230D01*
X222742Y609355D01*
X222724Y609480D01*
X222704Y609605D01*
X222679Y609729D01*
X222651Y609852D01*
X222619Y609974D01*
X222583Y610095D01*
X222544Y610215D01*
X222501Y610333D01*
X222454Y610450D01*
X222404Y610566D01*
X222350Y610681D01*
X222294Y610793D01*
X222233Y610904D01*
X222170Y611013D01*
X222103Y611120D01*
X222033Y611225D01*
X221959Y611328D01*
X221883Y611428D01*
X221804Y611526D01*
X221722Y611622D01*
X221636Y611715D01*
X221549Y611806D01*
X221458Y611893D01*
X221365Y611979D01*
X221269Y612061D01*
X221171Y612140D01*
X221071Y612216D01*
X220968Y612290D01*
X220863Y612360D01*
X220756Y612427D01*
X220647Y612490D01*
X220536Y612551D01*
X220424Y612607D01*
X220309Y612661D01*
X220193Y612711D01*
X220076Y612758D01*
X219958Y612801D01*
X219838Y612840D01*
X219717Y612876D01*
X219595Y612908D01*
X219472Y612936D01*
X219348Y612961D01*
X219223Y612981D01*
X219098Y612999D01*
X218973Y613012D01*
X218847Y613021D01*
X218721Y613027D01*
X218595Y613029D01*
X252179Y631571D02*
X252179Y640969D01*
X249568Y640969D01*
X249467Y640967D01*
X249366Y640961D01*
X249265Y640951D01*
X249165Y640938D01*
X249065Y640920D01*
X248966Y640899D01*
X248868Y640873D01*
X248771Y640844D01*
X248675Y640812D01*
X248581Y640775D01*
X248488Y640735D01*
X248396Y640691D01*
X248307Y640644D01*
X248219Y640593D01*
X248133Y640539D01*
X248050Y640482D01*
X247968Y640422D01*
X247890Y640358D01*
X247813Y640292D01*
X247740Y640222D01*
X247669Y640150D01*
X247601Y640075D01*
X247536Y639997D01*
X247474Y639917D01*
X247415Y639835D01*
X247359Y639750D01*
X247307Y639664D01*
X247258Y639575D01*
X247212Y639484D01*
X247171Y639392D01*
X247132Y639298D01*
X247098Y639203D01*
X247067Y639107D01*
X247040Y639009D01*
X247016Y638911D01*
X246997Y638811D01*
X246981Y638711D01*
X246969Y638611D01*
X246961Y638510D01*
X246957Y638409D01*
X246957Y638307D01*
X246961Y638206D01*
X246969Y638105D01*
X246981Y638005D01*
X246997Y637905D01*
X247016Y637805D01*
X247040Y637707D01*
X247067Y637609D01*
X247098Y637513D01*
X247132Y637418D01*
X247171Y637324D01*
X247212Y637232D01*
X247258Y637141D01*
X247307Y637053D01*
X247359Y636966D01*
X247415Y636881D01*
X247474Y636799D01*
X247536Y636719D01*
X247601Y636641D01*
X247669Y636566D01*
X247740Y636494D01*
X247813Y636424D01*
X247890Y636358D01*
X247968Y636294D01*
X248050Y636234D01*
X248133Y636177D01*
X248219Y636123D01*
X248307Y636072D01*
X248396Y636025D01*
X248488Y635981D01*
X248581Y635941D01*
X248675Y635904D01*
X248771Y635872D01*
X248868Y635843D01*
X248966Y635817D01*
X249065Y635796D01*
X249165Y635778D01*
X249265Y635765D01*
X249366Y635755D01*
X249467Y635749D01*
X249568Y635747D01*
X249568Y635748D02*
X252179Y635748D01*
X249046Y635748D02*
X246958Y631571D01*
X243092Y639925D02*
X243092Y640969D01*
X237871Y640969D01*
X240482Y631571D01*
X237109Y281221D02*
X227711Y281221D01*
X237109Y281221D02*
X237109Y283832D01*
X237107Y283933D01*
X237101Y284034D01*
X237091Y284135D01*
X237078Y284235D01*
X237060Y284335D01*
X237039Y284434D01*
X237013Y284532D01*
X236984Y284629D01*
X236952Y284725D01*
X236915Y284819D01*
X236875Y284912D01*
X236831Y285004D01*
X236784Y285093D01*
X236733Y285181D01*
X236679Y285267D01*
X236622Y285350D01*
X236562Y285432D01*
X236498Y285510D01*
X236432Y285587D01*
X236362Y285660D01*
X236290Y285731D01*
X236215Y285799D01*
X236137Y285864D01*
X236057Y285926D01*
X235975Y285985D01*
X235890Y286041D01*
X235804Y286093D01*
X235715Y286142D01*
X235624Y286188D01*
X235532Y286229D01*
X235438Y286268D01*
X235343Y286302D01*
X235247Y286333D01*
X235149Y286360D01*
X235051Y286384D01*
X234951Y286403D01*
X234851Y286419D01*
X234751Y286431D01*
X234650Y286439D01*
X234549Y286443D01*
X234447Y286443D01*
X234346Y286439D01*
X234245Y286431D01*
X234145Y286419D01*
X234045Y286403D01*
X233945Y286384D01*
X233847Y286360D01*
X233749Y286333D01*
X233653Y286302D01*
X233558Y286268D01*
X233464Y286229D01*
X233372Y286188D01*
X233281Y286142D01*
X233193Y286093D01*
X233106Y286041D01*
X233021Y285985D01*
X232939Y285926D01*
X232859Y285864D01*
X232781Y285799D01*
X232706Y285731D01*
X232634Y285660D01*
X232564Y285587D01*
X232498Y285510D01*
X232434Y285432D01*
X232374Y285350D01*
X232317Y285267D01*
X232263Y285181D01*
X232212Y285093D01*
X232165Y285004D01*
X232121Y284912D01*
X232081Y284819D01*
X232044Y284725D01*
X232012Y284629D01*
X231983Y284532D01*
X231957Y284434D01*
X231936Y284335D01*
X231918Y284235D01*
X231905Y284135D01*
X231895Y284034D01*
X231889Y283933D01*
X231887Y283832D01*
X231888Y283832D02*
X231888Y281221D01*
X231888Y284354D02*
X227711Y286442D01*
X230322Y290307D02*
X230423Y290309D01*
X230524Y290315D01*
X230625Y290325D01*
X230725Y290338D01*
X230825Y290356D01*
X230924Y290377D01*
X231022Y290403D01*
X231119Y290432D01*
X231215Y290464D01*
X231309Y290501D01*
X231402Y290541D01*
X231494Y290585D01*
X231583Y290632D01*
X231671Y290683D01*
X231757Y290737D01*
X231840Y290794D01*
X231922Y290854D01*
X232000Y290918D01*
X232077Y290984D01*
X232150Y291054D01*
X232221Y291126D01*
X232289Y291201D01*
X232354Y291279D01*
X232416Y291359D01*
X232475Y291441D01*
X232531Y291526D01*
X232583Y291613D01*
X232632Y291701D01*
X232678Y291792D01*
X232719Y291884D01*
X232758Y291978D01*
X232792Y292073D01*
X232823Y292169D01*
X232850Y292267D01*
X232874Y292365D01*
X232893Y292465D01*
X232909Y292565D01*
X232921Y292665D01*
X232929Y292766D01*
X232933Y292867D01*
X232933Y292969D01*
X232929Y293070D01*
X232921Y293171D01*
X232909Y293271D01*
X232893Y293371D01*
X232874Y293471D01*
X232850Y293569D01*
X232823Y293667D01*
X232792Y293763D01*
X232758Y293858D01*
X232719Y293952D01*
X232678Y294044D01*
X232632Y294135D01*
X232583Y294223D01*
X232531Y294310D01*
X232475Y294395D01*
X232416Y294477D01*
X232354Y294557D01*
X232289Y294635D01*
X232221Y294710D01*
X232150Y294782D01*
X232077Y294852D01*
X232000Y294918D01*
X231922Y294982D01*
X231840Y295042D01*
X231757Y295099D01*
X231671Y295153D01*
X231583Y295204D01*
X231494Y295251D01*
X231402Y295295D01*
X231309Y295335D01*
X231215Y295372D01*
X231119Y295404D01*
X231022Y295433D01*
X230924Y295459D01*
X230825Y295480D01*
X230725Y295498D01*
X230625Y295511D01*
X230524Y295521D01*
X230423Y295527D01*
X230322Y295529D01*
X230221Y295527D01*
X230120Y295521D01*
X230019Y295511D01*
X229919Y295498D01*
X229819Y295480D01*
X229720Y295459D01*
X229622Y295433D01*
X229525Y295404D01*
X229429Y295372D01*
X229335Y295335D01*
X229242Y295295D01*
X229150Y295251D01*
X229061Y295204D01*
X228973Y295153D01*
X228887Y295099D01*
X228804Y295042D01*
X228722Y294982D01*
X228644Y294918D01*
X228567Y294852D01*
X228494Y294782D01*
X228423Y294710D01*
X228355Y294635D01*
X228290Y294557D01*
X228228Y294477D01*
X228169Y294395D01*
X228113Y294310D01*
X228061Y294224D01*
X228012Y294135D01*
X227966Y294044D01*
X227925Y293952D01*
X227886Y293858D01*
X227852Y293763D01*
X227821Y293667D01*
X227794Y293569D01*
X227770Y293471D01*
X227751Y293371D01*
X227735Y293271D01*
X227723Y293171D01*
X227715Y293070D01*
X227711Y292969D01*
X227711Y292867D01*
X227715Y292766D01*
X227723Y292665D01*
X227735Y292565D01*
X227751Y292465D01*
X227770Y292365D01*
X227794Y292267D01*
X227821Y292169D01*
X227852Y292073D01*
X227886Y291978D01*
X227925Y291884D01*
X227966Y291792D01*
X228012Y291701D01*
X228061Y291613D01*
X228113Y291526D01*
X228169Y291441D01*
X228228Y291359D01*
X228290Y291279D01*
X228355Y291201D01*
X228423Y291126D01*
X228494Y291054D01*
X228567Y290984D01*
X228644Y290918D01*
X228722Y290854D01*
X228804Y290794D01*
X228887Y290737D01*
X228973Y290683D01*
X229061Y290632D01*
X229150Y290585D01*
X229242Y290541D01*
X229335Y290501D01*
X229429Y290464D01*
X229525Y290432D01*
X229622Y290403D01*
X229720Y290377D01*
X229819Y290356D01*
X229919Y290338D01*
X230019Y290325D01*
X230120Y290315D01*
X230221Y290309D01*
X230322Y290307D01*
X235021Y290830D02*
X235111Y290832D01*
X235200Y290838D01*
X235290Y290847D01*
X235379Y290861D01*
X235467Y290878D01*
X235554Y290899D01*
X235641Y290924D01*
X235726Y290953D01*
X235810Y290985D01*
X235892Y291020D01*
X235973Y291060D01*
X236052Y291102D01*
X236129Y291148D01*
X236204Y291198D01*
X236277Y291250D01*
X236348Y291306D01*
X236416Y291364D01*
X236481Y291426D01*
X236544Y291490D01*
X236604Y291557D01*
X236661Y291626D01*
X236715Y291698D01*
X236766Y291772D01*
X236814Y291848D01*
X236858Y291926D01*
X236899Y292006D01*
X236937Y292088D01*
X236971Y292171D01*
X237001Y292256D01*
X237028Y292342D01*
X237051Y292428D01*
X237070Y292516D01*
X237085Y292605D01*
X237097Y292694D01*
X237105Y292783D01*
X237109Y292873D01*
X237109Y292963D01*
X237105Y293053D01*
X237097Y293142D01*
X237085Y293231D01*
X237070Y293320D01*
X237051Y293408D01*
X237028Y293494D01*
X237001Y293580D01*
X236971Y293665D01*
X236937Y293748D01*
X236899Y293830D01*
X236858Y293910D01*
X236814Y293988D01*
X236766Y294064D01*
X236715Y294138D01*
X236661Y294210D01*
X236604Y294279D01*
X236544Y294346D01*
X236481Y294410D01*
X236416Y294472D01*
X236348Y294530D01*
X236277Y294586D01*
X236204Y294638D01*
X236129Y294688D01*
X236052Y294734D01*
X235973Y294776D01*
X235892Y294816D01*
X235810Y294851D01*
X235726Y294883D01*
X235641Y294912D01*
X235554Y294937D01*
X235467Y294958D01*
X235379Y294975D01*
X235290Y294989D01*
X235200Y294998D01*
X235111Y295004D01*
X235021Y295006D01*
X234931Y295004D01*
X234842Y294998D01*
X234752Y294989D01*
X234663Y294975D01*
X234575Y294958D01*
X234488Y294937D01*
X234401Y294912D01*
X234316Y294883D01*
X234232Y294851D01*
X234150Y294816D01*
X234069Y294776D01*
X233990Y294734D01*
X233913Y294688D01*
X233838Y294638D01*
X233765Y294586D01*
X233694Y294530D01*
X233626Y294472D01*
X233561Y294410D01*
X233498Y294346D01*
X233438Y294279D01*
X233381Y294210D01*
X233327Y294138D01*
X233276Y294064D01*
X233228Y293988D01*
X233184Y293910D01*
X233143Y293830D01*
X233105Y293748D01*
X233071Y293665D01*
X233041Y293580D01*
X233014Y293494D01*
X232991Y293408D01*
X232972Y293320D01*
X232957Y293231D01*
X232945Y293142D01*
X232937Y293053D01*
X232933Y292963D01*
X232933Y292873D01*
X232937Y292783D01*
X232945Y292694D01*
X232957Y292605D01*
X232972Y292516D01*
X232991Y292428D01*
X233014Y292342D01*
X233041Y292256D01*
X233071Y292171D01*
X233105Y292088D01*
X233143Y292006D01*
X233184Y291926D01*
X233228Y291848D01*
X233276Y291772D01*
X233327Y291698D01*
X233381Y291626D01*
X233438Y291557D01*
X233498Y291490D01*
X233561Y291426D01*
X233626Y291364D01*
X233694Y291306D01*
X233765Y291250D01*
X233838Y291198D01*
X233913Y291148D01*
X233990Y291102D01*
X234069Y291060D01*
X234150Y291020D01*
X234232Y290985D01*
X234316Y290953D01*
X234401Y290924D01*
X234488Y290899D01*
X234575Y290878D01*
X234663Y290861D01*
X234752Y290847D01*
X234842Y290838D01*
X234931Y290832D01*
X235021Y290830D01*
X216619Y557911D02*
X216619Y567309D01*
X214008Y567309D01*
X213907Y567307D01*
X213806Y567301D01*
X213705Y567291D01*
X213605Y567278D01*
X213505Y567260D01*
X213406Y567239D01*
X213308Y567213D01*
X213211Y567184D01*
X213115Y567152D01*
X213021Y567115D01*
X212928Y567075D01*
X212836Y567031D01*
X212747Y566984D01*
X212659Y566933D01*
X212573Y566879D01*
X212490Y566822D01*
X212408Y566762D01*
X212330Y566698D01*
X212253Y566632D01*
X212180Y566562D01*
X212109Y566490D01*
X212041Y566415D01*
X211976Y566337D01*
X211914Y566257D01*
X211855Y566175D01*
X211799Y566090D01*
X211747Y566004D01*
X211698Y565915D01*
X211652Y565824D01*
X211611Y565732D01*
X211572Y565638D01*
X211538Y565543D01*
X211507Y565447D01*
X211480Y565349D01*
X211456Y565251D01*
X211437Y565151D01*
X211421Y565051D01*
X211409Y564951D01*
X211401Y564850D01*
X211397Y564749D01*
X211397Y564647D01*
X211401Y564546D01*
X211409Y564445D01*
X211421Y564345D01*
X211437Y564245D01*
X211456Y564145D01*
X211480Y564047D01*
X211507Y563949D01*
X211538Y563853D01*
X211572Y563758D01*
X211611Y563664D01*
X211652Y563572D01*
X211698Y563481D01*
X211747Y563393D01*
X211799Y563306D01*
X211855Y563221D01*
X211914Y563139D01*
X211976Y563059D01*
X212041Y562981D01*
X212109Y562906D01*
X212180Y562834D01*
X212253Y562764D01*
X212330Y562698D01*
X212408Y562634D01*
X212490Y562574D01*
X212573Y562517D01*
X212659Y562463D01*
X212747Y562412D01*
X212836Y562365D01*
X212928Y562321D01*
X213021Y562281D01*
X213115Y562244D01*
X213211Y562212D01*
X213308Y562183D01*
X213406Y562157D01*
X213505Y562136D01*
X213605Y562118D01*
X213705Y562105D01*
X213806Y562095D01*
X213907Y562089D01*
X214008Y562087D01*
X214008Y562088D02*
X216619Y562088D01*
X213486Y562088D02*
X211398Y557911D01*
X205444Y562088D02*
X202311Y562088D01*
X205444Y562088D02*
X205533Y562090D01*
X205621Y562096D01*
X205709Y562105D01*
X205797Y562118D01*
X205884Y562135D01*
X205970Y562155D01*
X206055Y562180D01*
X206140Y562207D01*
X206223Y562239D01*
X206304Y562273D01*
X206384Y562312D01*
X206462Y562353D01*
X206539Y562398D01*
X206613Y562446D01*
X206686Y562497D01*
X206756Y562551D01*
X206823Y562609D01*
X206889Y562669D01*
X206951Y562731D01*
X207011Y562797D01*
X207069Y562864D01*
X207123Y562934D01*
X207174Y563007D01*
X207222Y563081D01*
X207267Y563158D01*
X207308Y563236D01*
X207347Y563316D01*
X207381Y563397D01*
X207413Y563480D01*
X207440Y563565D01*
X207465Y563650D01*
X207485Y563736D01*
X207502Y563823D01*
X207515Y563911D01*
X207524Y563999D01*
X207530Y564087D01*
X207532Y564176D01*
X207532Y564698D01*
X207533Y564698D02*
X207531Y564799D01*
X207525Y564900D01*
X207515Y565001D01*
X207502Y565101D01*
X207484Y565201D01*
X207463Y565300D01*
X207437Y565398D01*
X207408Y565495D01*
X207376Y565591D01*
X207339Y565685D01*
X207299Y565778D01*
X207255Y565870D01*
X207208Y565959D01*
X207157Y566047D01*
X207103Y566133D01*
X207046Y566216D01*
X206986Y566298D01*
X206922Y566376D01*
X206856Y566453D01*
X206786Y566526D01*
X206714Y566597D01*
X206639Y566665D01*
X206561Y566730D01*
X206481Y566792D01*
X206399Y566851D01*
X206314Y566907D01*
X206228Y566959D01*
X206139Y567008D01*
X206048Y567054D01*
X205956Y567095D01*
X205862Y567134D01*
X205767Y567168D01*
X205671Y567199D01*
X205573Y567226D01*
X205475Y567250D01*
X205375Y567269D01*
X205275Y567285D01*
X205175Y567297D01*
X205074Y567305D01*
X204973Y567309D01*
X204871Y567309D01*
X204770Y567305D01*
X204669Y567297D01*
X204569Y567285D01*
X204469Y567269D01*
X204369Y567250D01*
X204271Y567226D01*
X204173Y567199D01*
X204077Y567168D01*
X203982Y567134D01*
X203888Y567095D01*
X203796Y567054D01*
X203705Y567008D01*
X203617Y566959D01*
X203530Y566907D01*
X203445Y566851D01*
X203363Y566792D01*
X203283Y566730D01*
X203205Y566665D01*
X203130Y566597D01*
X203058Y566526D01*
X202988Y566453D01*
X202922Y566376D01*
X202858Y566298D01*
X202798Y566216D01*
X202741Y566133D01*
X202687Y566047D01*
X202636Y565959D01*
X202589Y565870D01*
X202545Y565778D01*
X202505Y565685D01*
X202468Y565591D01*
X202436Y565495D01*
X202407Y565398D01*
X202381Y565300D01*
X202360Y565201D01*
X202342Y565101D01*
X202329Y565001D01*
X202319Y564900D01*
X202313Y564799D01*
X202311Y564698D01*
X202311Y562088D01*
X202313Y561962D01*
X202319Y561836D01*
X202328Y561710D01*
X202341Y561585D01*
X202359Y561460D01*
X202379Y561335D01*
X202404Y561211D01*
X202432Y561088D01*
X202464Y560966D01*
X202500Y560845D01*
X202539Y560725D01*
X202582Y560607D01*
X202629Y560490D01*
X202679Y560374D01*
X202733Y560259D01*
X202789Y560147D01*
X202850Y560036D01*
X202913Y559927D01*
X202980Y559820D01*
X203050Y559715D01*
X203124Y559612D01*
X203200Y559512D01*
X203279Y559414D01*
X203361Y559318D01*
X203447Y559225D01*
X203534Y559134D01*
X203625Y559047D01*
X203718Y558961D01*
X203814Y558879D01*
X203912Y558800D01*
X204012Y558724D01*
X204115Y558650D01*
X204220Y558580D01*
X204327Y558513D01*
X204436Y558450D01*
X204547Y558389D01*
X204659Y558333D01*
X204774Y558279D01*
X204890Y558229D01*
X205007Y558182D01*
X205125Y558139D01*
X205245Y558100D01*
X205366Y558064D01*
X205488Y558032D01*
X205611Y558004D01*
X205735Y557979D01*
X205860Y557959D01*
X205985Y557941D01*
X206110Y557928D01*
X206236Y557919D01*
X206362Y557913D01*
X206488Y557911D01*
X163449Y724197D02*
X154051Y724197D01*
X163449Y724197D02*
X163449Y726808D01*
X163447Y726909D01*
X163441Y727010D01*
X163431Y727111D01*
X163418Y727211D01*
X163400Y727311D01*
X163379Y727410D01*
X163353Y727508D01*
X163324Y727605D01*
X163292Y727701D01*
X163255Y727795D01*
X163215Y727888D01*
X163171Y727980D01*
X163124Y728069D01*
X163073Y728157D01*
X163019Y728243D01*
X162962Y728326D01*
X162902Y728408D01*
X162838Y728486D01*
X162772Y728563D01*
X162702Y728636D01*
X162630Y728707D01*
X162555Y728775D01*
X162477Y728840D01*
X162397Y728902D01*
X162315Y728961D01*
X162230Y729017D01*
X162144Y729069D01*
X162055Y729118D01*
X161964Y729164D01*
X161872Y729205D01*
X161778Y729244D01*
X161683Y729278D01*
X161587Y729309D01*
X161489Y729336D01*
X161391Y729360D01*
X161291Y729379D01*
X161191Y729395D01*
X161091Y729407D01*
X160990Y729415D01*
X160889Y729419D01*
X160787Y729419D01*
X160686Y729415D01*
X160585Y729407D01*
X160485Y729395D01*
X160385Y729379D01*
X160285Y729360D01*
X160187Y729336D01*
X160089Y729309D01*
X159993Y729278D01*
X159898Y729244D01*
X159804Y729205D01*
X159712Y729164D01*
X159621Y729118D01*
X159533Y729069D01*
X159446Y729017D01*
X159361Y728961D01*
X159279Y728902D01*
X159199Y728840D01*
X159121Y728775D01*
X159046Y728707D01*
X158974Y728636D01*
X158904Y728563D01*
X158838Y728486D01*
X158774Y728408D01*
X158714Y728326D01*
X158657Y728243D01*
X158603Y728157D01*
X158552Y728069D01*
X158505Y727980D01*
X158461Y727888D01*
X158421Y727795D01*
X158384Y727701D01*
X158352Y727605D01*
X158323Y727508D01*
X158297Y727410D01*
X158276Y727311D01*
X158258Y727211D01*
X158245Y727111D01*
X158235Y727010D01*
X158229Y726909D01*
X158227Y726808D01*
X158228Y726808D02*
X158228Y724197D01*
X158228Y727330D02*
X154051Y729418D01*
X161361Y733284D02*
X163449Y735894D01*
X154051Y735894D01*
X154051Y733284D02*
X154051Y738505D01*
X161100Y747650D02*
X161195Y747648D01*
X161289Y747642D01*
X161383Y747633D01*
X161477Y747620D01*
X161570Y747603D01*
X161662Y747582D01*
X161754Y747557D01*
X161844Y747529D01*
X161933Y747497D01*
X162021Y747462D01*
X162107Y747423D01*
X162192Y747381D01*
X162275Y747335D01*
X162356Y747286D01*
X162435Y747234D01*
X162512Y747179D01*
X162586Y747120D01*
X162658Y747059D01*
X162728Y746995D01*
X162795Y746928D01*
X162859Y746858D01*
X162920Y746786D01*
X162979Y746712D01*
X163034Y746635D01*
X163086Y746556D01*
X163135Y746475D01*
X163181Y746392D01*
X163223Y746307D01*
X163262Y746221D01*
X163297Y746133D01*
X163329Y746044D01*
X163357Y745954D01*
X163382Y745862D01*
X163403Y745770D01*
X163420Y745677D01*
X163433Y745583D01*
X163442Y745489D01*
X163448Y745395D01*
X163450Y745300D01*
X163449Y745300D02*
X163447Y745192D01*
X163441Y745083D01*
X163431Y744975D01*
X163418Y744868D01*
X163400Y744761D01*
X163379Y744654D01*
X163354Y744549D01*
X163325Y744444D01*
X163293Y744341D01*
X163256Y744239D01*
X163216Y744138D01*
X163173Y744039D01*
X163126Y743941D01*
X163075Y743845D01*
X163021Y743751D01*
X162964Y743659D01*
X162903Y743569D01*
X162839Y743481D01*
X162773Y743396D01*
X162703Y743313D01*
X162630Y743233D01*
X162554Y743155D01*
X162476Y743080D01*
X162395Y743008D01*
X162311Y742939D01*
X162225Y742873D01*
X162137Y742810D01*
X162046Y742751D01*
X161954Y742694D01*
X161859Y742641D01*
X161763Y742592D01*
X161664Y742546D01*
X161565Y742503D01*
X161463Y742464D01*
X161361Y742429D01*
X159272Y746866D02*
X159341Y746935D01*
X159412Y747001D01*
X159485Y747065D01*
X159561Y747126D01*
X159640Y747184D01*
X159720Y747238D01*
X159803Y747290D01*
X159887Y747338D01*
X159973Y747384D01*
X160061Y747425D01*
X160151Y747464D01*
X160242Y747499D01*
X160334Y747530D01*
X160427Y747558D01*
X160521Y747582D01*
X160616Y747602D01*
X160712Y747619D01*
X160809Y747632D01*
X160906Y747641D01*
X161003Y747647D01*
X161100Y747649D01*
X159272Y746866D02*
X154051Y742428D01*
X154051Y747649D01*
X138049Y724197D02*
X128651Y724197D01*
X138049Y724197D02*
X138049Y726808D01*
X138047Y726909D01*
X138041Y727010D01*
X138031Y727111D01*
X138018Y727211D01*
X138000Y727311D01*
X137979Y727410D01*
X137953Y727508D01*
X137924Y727605D01*
X137892Y727701D01*
X137855Y727795D01*
X137815Y727888D01*
X137771Y727980D01*
X137724Y728069D01*
X137673Y728157D01*
X137619Y728243D01*
X137562Y728326D01*
X137502Y728408D01*
X137438Y728486D01*
X137372Y728563D01*
X137302Y728636D01*
X137230Y728707D01*
X137155Y728775D01*
X137077Y728840D01*
X136997Y728902D01*
X136915Y728961D01*
X136830Y729017D01*
X136744Y729069D01*
X136655Y729118D01*
X136564Y729164D01*
X136472Y729205D01*
X136378Y729244D01*
X136283Y729278D01*
X136187Y729309D01*
X136089Y729336D01*
X135991Y729360D01*
X135891Y729379D01*
X135791Y729395D01*
X135691Y729407D01*
X135590Y729415D01*
X135489Y729419D01*
X135387Y729419D01*
X135286Y729415D01*
X135185Y729407D01*
X135085Y729395D01*
X134985Y729379D01*
X134885Y729360D01*
X134787Y729336D01*
X134689Y729309D01*
X134593Y729278D01*
X134498Y729244D01*
X134404Y729205D01*
X134312Y729164D01*
X134221Y729118D01*
X134133Y729069D01*
X134046Y729017D01*
X133961Y728961D01*
X133879Y728902D01*
X133799Y728840D01*
X133721Y728775D01*
X133646Y728707D01*
X133574Y728636D01*
X133504Y728563D01*
X133438Y728486D01*
X133374Y728408D01*
X133314Y728326D01*
X133257Y728243D01*
X133203Y728157D01*
X133152Y728069D01*
X133105Y727980D01*
X133061Y727888D01*
X133021Y727795D01*
X132984Y727701D01*
X132952Y727605D01*
X132923Y727508D01*
X132897Y727410D01*
X132876Y727311D01*
X132858Y727211D01*
X132845Y727111D01*
X132835Y727010D01*
X132829Y726909D01*
X132827Y726808D01*
X132828Y726808D02*
X132828Y724197D01*
X132828Y727330D02*
X128651Y729418D01*
X135961Y733284D02*
X138049Y735894D01*
X128651Y735894D01*
X128651Y733284D02*
X128651Y738505D01*
X128651Y742428D02*
X128651Y745038D01*
X128653Y745139D01*
X128659Y745240D01*
X128669Y745341D01*
X128682Y745441D01*
X128700Y745541D01*
X128721Y745640D01*
X128747Y745738D01*
X128776Y745835D01*
X128808Y745931D01*
X128845Y746025D01*
X128885Y746118D01*
X128929Y746210D01*
X128976Y746299D01*
X129027Y746387D01*
X129081Y746473D01*
X129138Y746556D01*
X129198Y746638D01*
X129262Y746716D01*
X129328Y746793D01*
X129398Y746866D01*
X129470Y746937D01*
X129545Y747005D01*
X129623Y747070D01*
X129703Y747132D01*
X129785Y747191D01*
X129870Y747247D01*
X129957Y747299D01*
X130045Y747348D01*
X130136Y747394D01*
X130228Y747435D01*
X130322Y747474D01*
X130417Y747508D01*
X130513Y747539D01*
X130611Y747566D01*
X130709Y747590D01*
X130809Y747609D01*
X130909Y747625D01*
X131009Y747637D01*
X131110Y747645D01*
X131211Y747649D01*
X131313Y747649D01*
X131414Y747645D01*
X131515Y747637D01*
X131615Y747625D01*
X131715Y747609D01*
X131815Y747590D01*
X131913Y747566D01*
X132011Y747539D01*
X132107Y747508D01*
X132202Y747474D01*
X132296Y747435D01*
X132388Y747394D01*
X132479Y747348D01*
X132568Y747299D01*
X132654Y747247D01*
X132739Y747191D01*
X132821Y747132D01*
X132901Y747070D01*
X132979Y747005D01*
X133054Y746937D01*
X133126Y746866D01*
X133196Y746793D01*
X133262Y746716D01*
X133326Y746638D01*
X133386Y746556D01*
X133443Y746473D01*
X133497Y746387D01*
X133548Y746299D01*
X133595Y746210D01*
X133639Y746118D01*
X133679Y746025D01*
X133716Y745931D01*
X133748Y745835D01*
X133777Y745738D01*
X133803Y745640D01*
X133824Y745541D01*
X133842Y745441D01*
X133855Y745341D01*
X133865Y745240D01*
X133871Y745139D01*
X133873Y745038D01*
X138049Y745561D02*
X138049Y742428D01*
X138049Y745561D02*
X138047Y745651D01*
X138041Y745740D01*
X138032Y745830D01*
X138018Y745919D01*
X138001Y746007D01*
X137980Y746094D01*
X137955Y746181D01*
X137926Y746266D01*
X137894Y746350D01*
X137859Y746432D01*
X137819Y746513D01*
X137777Y746592D01*
X137731Y746669D01*
X137681Y746744D01*
X137629Y746817D01*
X137573Y746888D01*
X137515Y746956D01*
X137453Y747021D01*
X137389Y747084D01*
X137322Y747144D01*
X137253Y747201D01*
X137181Y747255D01*
X137107Y747306D01*
X137031Y747354D01*
X136953Y747398D01*
X136873Y747439D01*
X136791Y747477D01*
X136708Y747511D01*
X136623Y747541D01*
X136537Y747568D01*
X136451Y747591D01*
X136363Y747610D01*
X136274Y747625D01*
X136185Y747637D01*
X136096Y747645D01*
X136006Y747649D01*
X135916Y747649D01*
X135826Y747645D01*
X135737Y747637D01*
X135648Y747625D01*
X135559Y747610D01*
X135471Y747591D01*
X135385Y747568D01*
X135299Y747541D01*
X135214Y747511D01*
X135131Y747477D01*
X135049Y747439D01*
X134969Y747398D01*
X134891Y747354D01*
X134815Y747306D01*
X134741Y747255D01*
X134669Y747201D01*
X134600Y747144D01*
X134533Y747084D01*
X134469Y747021D01*
X134407Y746956D01*
X134349Y746888D01*
X134293Y746817D01*
X134241Y746744D01*
X134191Y746669D01*
X134145Y746592D01*
X134103Y746513D01*
X134063Y746432D01*
X134028Y746350D01*
X133996Y746266D01*
X133967Y746181D01*
X133942Y746094D01*
X133921Y746007D01*
X133904Y745919D01*
X133890Y745830D01*
X133881Y745740D01*
X133875Y745651D01*
X133873Y745561D01*
X133872Y745561D02*
X133872Y743472D01*
X112649Y724197D02*
X103251Y724197D01*
X112649Y724197D02*
X112649Y726808D01*
X112647Y726909D01*
X112641Y727010D01*
X112631Y727111D01*
X112618Y727211D01*
X112600Y727311D01*
X112579Y727410D01*
X112553Y727508D01*
X112524Y727605D01*
X112492Y727701D01*
X112455Y727795D01*
X112415Y727888D01*
X112371Y727980D01*
X112324Y728069D01*
X112273Y728157D01*
X112219Y728243D01*
X112162Y728326D01*
X112102Y728408D01*
X112038Y728486D01*
X111972Y728563D01*
X111902Y728636D01*
X111830Y728707D01*
X111755Y728775D01*
X111677Y728840D01*
X111597Y728902D01*
X111515Y728961D01*
X111430Y729017D01*
X111344Y729069D01*
X111255Y729118D01*
X111164Y729164D01*
X111072Y729205D01*
X110978Y729244D01*
X110883Y729278D01*
X110787Y729309D01*
X110689Y729336D01*
X110591Y729360D01*
X110491Y729379D01*
X110391Y729395D01*
X110291Y729407D01*
X110190Y729415D01*
X110089Y729419D01*
X109987Y729419D01*
X109886Y729415D01*
X109785Y729407D01*
X109685Y729395D01*
X109585Y729379D01*
X109485Y729360D01*
X109387Y729336D01*
X109289Y729309D01*
X109193Y729278D01*
X109098Y729244D01*
X109004Y729205D01*
X108912Y729164D01*
X108821Y729118D01*
X108733Y729069D01*
X108646Y729017D01*
X108561Y728961D01*
X108479Y728902D01*
X108399Y728840D01*
X108321Y728775D01*
X108246Y728707D01*
X108174Y728636D01*
X108104Y728563D01*
X108038Y728486D01*
X107974Y728408D01*
X107914Y728326D01*
X107857Y728243D01*
X107803Y728157D01*
X107752Y728069D01*
X107705Y727980D01*
X107661Y727888D01*
X107621Y727795D01*
X107584Y727701D01*
X107552Y727605D01*
X107523Y727508D01*
X107497Y727410D01*
X107476Y727311D01*
X107458Y727211D01*
X107445Y727111D01*
X107435Y727010D01*
X107429Y726909D01*
X107427Y726808D01*
X107428Y726808D02*
X107428Y724197D01*
X107428Y727330D02*
X103251Y729418D01*
X110561Y733284D02*
X112649Y735894D01*
X103251Y735894D01*
X103251Y733284D02*
X103251Y738505D01*
X105339Y742428D02*
X112649Y744516D01*
X105339Y742428D02*
X105339Y747649D01*
X107428Y746083D02*
X103251Y746083D01*
X49149Y654431D02*
X39751Y654431D01*
X49149Y654431D02*
X49149Y657042D01*
X49147Y657143D01*
X49141Y657244D01*
X49131Y657345D01*
X49118Y657445D01*
X49100Y657545D01*
X49079Y657644D01*
X49053Y657742D01*
X49024Y657839D01*
X48992Y657935D01*
X48955Y658029D01*
X48915Y658122D01*
X48871Y658214D01*
X48824Y658303D01*
X48773Y658391D01*
X48719Y658477D01*
X48662Y658560D01*
X48602Y658642D01*
X48538Y658720D01*
X48472Y658797D01*
X48402Y658870D01*
X48330Y658941D01*
X48255Y659009D01*
X48177Y659074D01*
X48097Y659136D01*
X48015Y659195D01*
X47930Y659251D01*
X47844Y659303D01*
X47755Y659352D01*
X47664Y659398D01*
X47572Y659439D01*
X47478Y659478D01*
X47383Y659512D01*
X47287Y659543D01*
X47189Y659570D01*
X47091Y659594D01*
X46991Y659613D01*
X46891Y659629D01*
X46791Y659641D01*
X46690Y659649D01*
X46589Y659653D01*
X46487Y659653D01*
X46386Y659649D01*
X46285Y659641D01*
X46185Y659629D01*
X46085Y659613D01*
X45985Y659594D01*
X45887Y659570D01*
X45789Y659543D01*
X45693Y659512D01*
X45598Y659478D01*
X45504Y659439D01*
X45412Y659398D01*
X45321Y659352D01*
X45233Y659303D01*
X45146Y659251D01*
X45061Y659195D01*
X44979Y659136D01*
X44899Y659074D01*
X44821Y659009D01*
X44746Y658941D01*
X44674Y658870D01*
X44604Y658797D01*
X44538Y658720D01*
X44474Y658642D01*
X44414Y658560D01*
X44357Y658477D01*
X44303Y658391D01*
X44252Y658303D01*
X44205Y658214D01*
X44161Y658122D01*
X44121Y658029D01*
X44084Y657935D01*
X44052Y657839D01*
X44023Y657742D01*
X43997Y657644D01*
X43976Y657545D01*
X43958Y657445D01*
X43945Y657345D01*
X43935Y657244D01*
X43929Y657143D01*
X43927Y657042D01*
X43928Y657042D02*
X43928Y654431D01*
X43928Y657564D02*
X39751Y659652D01*
X47061Y663518D02*
X49149Y666128D01*
X39751Y666128D01*
X39751Y663518D02*
X39751Y668739D01*
X39751Y672662D02*
X39751Y675795D01*
X39753Y675884D01*
X39759Y675972D01*
X39768Y676060D01*
X39781Y676148D01*
X39798Y676235D01*
X39818Y676321D01*
X39843Y676406D01*
X39870Y676491D01*
X39902Y676574D01*
X39936Y676655D01*
X39975Y676735D01*
X40016Y676813D01*
X40061Y676890D01*
X40109Y676964D01*
X40160Y677037D01*
X40214Y677107D01*
X40272Y677174D01*
X40332Y677240D01*
X40394Y677302D01*
X40460Y677362D01*
X40527Y677420D01*
X40597Y677474D01*
X40670Y677525D01*
X40744Y677573D01*
X40821Y677618D01*
X40899Y677659D01*
X40979Y677698D01*
X41060Y677732D01*
X41143Y677764D01*
X41228Y677791D01*
X41313Y677816D01*
X41399Y677836D01*
X41486Y677853D01*
X41574Y677866D01*
X41662Y677875D01*
X41750Y677881D01*
X41839Y677883D01*
X42884Y677883D01*
X42973Y677881D01*
X43061Y677875D01*
X43149Y677866D01*
X43237Y677853D01*
X43324Y677836D01*
X43410Y677816D01*
X43495Y677791D01*
X43580Y677764D01*
X43663Y677732D01*
X43744Y677698D01*
X43824Y677659D01*
X43902Y677618D01*
X43979Y677573D01*
X44053Y677525D01*
X44126Y677474D01*
X44196Y677420D01*
X44263Y677362D01*
X44329Y677302D01*
X44391Y677240D01*
X44451Y677174D01*
X44509Y677107D01*
X44563Y677037D01*
X44614Y676964D01*
X44662Y676890D01*
X44707Y676813D01*
X44748Y676735D01*
X44787Y676655D01*
X44821Y676574D01*
X44853Y676491D01*
X44880Y676406D01*
X44905Y676321D01*
X44925Y676235D01*
X44942Y676148D01*
X44955Y676060D01*
X44964Y675972D01*
X44970Y675884D01*
X44972Y675795D01*
X44972Y672662D01*
X49149Y672662D01*
X49149Y677883D01*
X62611Y654431D02*
X72009Y654431D01*
X72009Y657042D01*
X72007Y657143D01*
X72001Y657244D01*
X71991Y657345D01*
X71978Y657445D01*
X71960Y657545D01*
X71939Y657644D01*
X71913Y657742D01*
X71884Y657839D01*
X71852Y657935D01*
X71815Y658029D01*
X71775Y658122D01*
X71731Y658214D01*
X71684Y658303D01*
X71633Y658391D01*
X71579Y658477D01*
X71522Y658560D01*
X71462Y658642D01*
X71398Y658720D01*
X71332Y658797D01*
X71262Y658870D01*
X71190Y658941D01*
X71115Y659009D01*
X71037Y659074D01*
X70957Y659136D01*
X70875Y659195D01*
X70790Y659251D01*
X70704Y659303D01*
X70615Y659352D01*
X70524Y659398D01*
X70432Y659439D01*
X70338Y659478D01*
X70243Y659512D01*
X70147Y659543D01*
X70049Y659570D01*
X69951Y659594D01*
X69851Y659613D01*
X69751Y659629D01*
X69651Y659641D01*
X69550Y659649D01*
X69449Y659653D01*
X69347Y659653D01*
X69246Y659649D01*
X69145Y659641D01*
X69045Y659629D01*
X68945Y659613D01*
X68845Y659594D01*
X68747Y659570D01*
X68649Y659543D01*
X68553Y659512D01*
X68458Y659478D01*
X68364Y659439D01*
X68272Y659398D01*
X68181Y659352D01*
X68093Y659303D01*
X68006Y659251D01*
X67921Y659195D01*
X67839Y659136D01*
X67759Y659074D01*
X67681Y659009D01*
X67606Y658941D01*
X67534Y658870D01*
X67464Y658797D01*
X67398Y658720D01*
X67334Y658642D01*
X67274Y658560D01*
X67217Y658477D01*
X67163Y658391D01*
X67112Y658303D01*
X67065Y658214D01*
X67021Y658122D01*
X66981Y658029D01*
X66944Y657935D01*
X66912Y657839D01*
X66883Y657742D01*
X66857Y657644D01*
X66836Y657545D01*
X66818Y657445D01*
X66805Y657345D01*
X66795Y657244D01*
X66789Y657143D01*
X66787Y657042D01*
X66788Y657042D02*
X66788Y654431D01*
X66788Y657564D02*
X62611Y659652D01*
X69921Y663518D02*
X72009Y666128D01*
X62611Y666128D01*
X62611Y663518D02*
X62611Y668739D01*
X67832Y672662D02*
X67832Y675795D01*
X67830Y675884D01*
X67824Y675972D01*
X67815Y676060D01*
X67802Y676148D01*
X67785Y676235D01*
X67765Y676321D01*
X67740Y676406D01*
X67713Y676491D01*
X67681Y676574D01*
X67647Y676655D01*
X67608Y676735D01*
X67567Y676813D01*
X67522Y676890D01*
X67474Y676964D01*
X67423Y677037D01*
X67369Y677107D01*
X67311Y677174D01*
X67251Y677240D01*
X67189Y677302D01*
X67123Y677362D01*
X67056Y677420D01*
X66986Y677474D01*
X66913Y677525D01*
X66839Y677573D01*
X66762Y677618D01*
X66684Y677659D01*
X66604Y677698D01*
X66523Y677732D01*
X66440Y677764D01*
X66355Y677791D01*
X66270Y677816D01*
X66184Y677836D01*
X66097Y677853D01*
X66009Y677866D01*
X65921Y677875D01*
X65833Y677881D01*
X65744Y677883D01*
X65222Y677883D01*
X65121Y677881D01*
X65020Y677875D01*
X64919Y677865D01*
X64819Y677852D01*
X64719Y677834D01*
X64620Y677813D01*
X64522Y677787D01*
X64425Y677758D01*
X64329Y677726D01*
X64235Y677689D01*
X64142Y677649D01*
X64050Y677605D01*
X63961Y677558D01*
X63873Y677507D01*
X63787Y677453D01*
X63704Y677396D01*
X63622Y677336D01*
X63544Y677272D01*
X63467Y677206D01*
X63394Y677136D01*
X63323Y677064D01*
X63255Y676989D01*
X63190Y676911D01*
X63128Y676831D01*
X63069Y676749D01*
X63013Y676664D01*
X62961Y676578D01*
X62912Y676489D01*
X62866Y676398D01*
X62825Y676306D01*
X62786Y676212D01*
X62752Y676117D01*
X62721Y676021D01*
X62694Y675923D01*
X62670Y675825D01*
X62651Y675725D01*
X62635Y675625D01*
X62623Y675525D01*
X62615Y675424D01*
X62611Y675323D01*
X62611Y675221D01*
X62615Y675120D01*
X62623Y675019D01*
X62635Y674919D01*
X62651Y674819D01*
X62670Y674719D01*
X62694Y674621D01*
X62721Y674523D01*
X62752Y674427D01*
X62786Y674332D01*
X62825Y674238D01*
X62866Y674146D01*
X62912Y674055D01*
X62961Y673967D01*
X63013Y673880D01*
X63069Y673795D01*
X63128Y673713D01*
X63190Y673633D01*
X63255Y673555D01*
X63323Y673480D01*
X63394Y673408D01*
X63467Y673338D01*
X63544Y673272D01*
X63622Y673208D01*
X63704Y673148D01*
X63787Y673091D01*
X63873Y673037D01*
X63961Y672986D01*
X64050Y672939D01*
X64142Y672895D01*
X64235Y672855D01*
X64329Y672818D01*
X64425Y672786D01*
X64522Y672757D01*
X64620Y672731D01*
X64719Y672710D01*
X64819Y672692D01*
X64919Y672679D01*
X65020Y672669D01*
X65121Y672663D01*
X65222Y672661D01*
X65222Y672662D02*
X67832Y672662D01*
X67961Y672664D01*
X68089Y672670D01*
X68217Y672680D01*
X68345Y672694D01*
X68473Y672711D01*
X68600Y672733D01*
X68726Y672759D01*
X68851Y672788D01*
X68975Y672821D01*
X69098Y672859D01*
X69220Y672899D01*
X69341Y672944D01*
X69460Y672992D01*
X69578Y673044D01*
X69694Y673100D01*
X69808Y673159D01*
X69920Y673222D01*
X70031Y673288D01*
X70139Y673357D01*
X70245Y673430D01*
X70349Y673506D01*
X70451Y673585D01*
X70550Y673667D01*
X70646Y673752D01*
X70740Y673840D01*
X70831Y673931D01*
X70919Y674025D01*
X71004Y674121D01*
X71086Y674220D01*
X71165Y674322D01*
X71241Y674426D01*
X71314Y674532D01*
X71383Y674640D01*
X71449Y674750D01*
X71512Y674863D01*
X71571Y674977D01*
X71627Y675093D01*
X71679Y675211D01*
X71727Y675330D01*
X71772Y675451D01*
X71812Y675573D01*
X71850Y675696D01*
X71883Y675820D01*
X71912Y675945D01*
X71938Y676071D01*
X71960Y676198D01*
X71977Y676326D01*
X71991Y676454D01*
X72001Y676582D01*
X72007Y676710D01*
X72009Y676839D01*
X85471Y654431D02*
X94869Y654431D01*
X94869Y657042D01*
X94867Y657143D01*
X94861Y657244D01*
X94851Y657345D01*
X94838Y657445D01*
X94820Y657545D01*
X94799Y657644D01*
X94773Y657742D01*
X94744Y657839D01*
X94712Y657935D01*
X94675Y658029D01*
X94635Y658122D01*
X94591Y658214D01*
X94544Y658303D01*
X94493Y658391D01*
X94439Y658477D01*
X94382Y658560D01*
X94322Y658642D01*
X94258Y658720D01*
X94192Y658797D01*
X94122Y658870D01*
X94050Y658941D01*
X93975Y659009D01*
X93897Y659074D01*
X93817Y659136D01*
X93735Y659195D01*
X93650Y659251D01*
X93564Y659303D01*
X93475Y659352D01*
X93384Y659398D01*
X93292Y659439D01*
X93198Y659478D01*
X93103Y659512D01*
X93007Y659543D01*
X92909Y659570D01*
X92811Y659594D01*
X92711Y659613D01*
X92611Y659629D01*
X92511Y659641D01*
X92410Y659649D01*
X92309Y659653D01*
X92207Y659653D01*
X92106Y659649D01*
X92005Y659641D01*
X91905Y659629D01*
X91805Y659613D01*
X91705Y659594D01*
X91607Y659570D01*
X91509Y659543D01*
X91413Y659512D01*
X91318Y659478D01*
X91224Y659439D01*
X91132Y659398D01*
X91041Y659352D01*
X90953Y659303D01*
X90866Y659251D01*
X90781Y659195D01*
X90699Y659136D01*
X90619Y659074D01*
X90541Y659009D01*
X90466Y658941D01*
X90394Y658870D01*
X90324Y658797D01*
X90258Y658720D01*
X90194Y658642D01*
X90134Y658560D01*
X90077Y658477D01*
X90023Y658391D01*
X89972Y658303D01*
X89925Y658214D01*
X89881Y658122D01*
X89841Y658029D01*
X89804Y657935D01*
X89772Y657839D01*
X89743Y657742D01*
X89717Y657644D01*
X89696Y657545D01*
X89678Y657445D01*
X89665Y657345D01*
X89655Y657244D01*
X89649Y657143D01*
X89647Y657042D01*
X89648Y657042D02*
X89648Y654431D01*
X89648Y657564D02*
X85471Y659652D01*
X92781Y663518D02*
X94869Y666128D01*
X85471Y666128D01*
X85471Y663518D02*
X85471Y668739D01*
X93825Y672662D02*
X94869Y672662D01*
X94869Y677883D01*
X85471Y675272D01*
M02*
