M48
;GenerationSoftware,Autodesk,EAGLE,9.5.2*%
;CreationDate,2019-12-10T13:17:41Z*%
FMAT,2
ICI,OFF
METRIC,TZ,000.000
T5C0.350
T4C0.800
T3C1.016
T2C1.100
T1C1.600
%
G90
M71
T1
X11766Y12020
X5506Y12020
X5506Y5760
X11766Y5760
X5506Y34118
X11766Y34118
X5506Y27858
X11766Y27858
X5506Y54692
X11766Y54692
X5506Y48432
X11766Y48432
T2
X8636Y8890
X8636Y30988
X8636Y51562
T3
X19558Y16002
X19558Y33782
X19558Y31242
X19558Y28702
X19558Y26162
X19558Y23622
X19558Y21082
X19558Y18542
T4
X30480Y29083
X30480Y26543
X30480Y24003
X30480Y21463
X30480Y18923
X30480Y69723
X30480Y13843
X30480Y11303
X30480Y8763
X30480Y6223
X30480Y3683
X30480Y84963
X30480Y16383
X30480Y82423
X30480Y79883
X30480Y77343
X30480Y74803
X30480Y72263
X30480Y67183
X30480Y64643
X30480Y62103
X30480Y59563
X30480Y57023
X30480Y54483
X30480Y51943
X30480Y34163
X30480Y49403
X30480Y46863
X30480Y44323
X30480Y41783
X30480Y39243
X30480Y31623
X30480Y36703
T5
X21082Y74930
X21082Y71882
X17018Y72136
X18034Y85090
X13970Y85090
X17526Y81788
X22098Y85090
X27432Y81026
X34036Y87122
X33782Y77470
X10414Y85344
X8890Y83566
X9906Y64262
X22606Y51816
X32766Y35814
X32258Y27686
X28702Y25400
X28956Y27940
X1778Y69342
X32258Y25654
X25400Y63754
X11176Y76708
X11938Y71882
X17272Y78486
X5080Y77216
X7239Y76581
X32004Y60960
X32004Y50800
X32258Y20574
X25400Y12192
X3683Y66294
X18796Y57912
X12827Y40386
X12700Y19812
X6096Y79502
X3048Y79502
X4572Y79502
X19558Y63774
X19558Y74676
X23622Y59690
X24384Y66548
X14732Y57912
X28956Y83566
X7112Y74930
X8636Y5842
X28194Y4826
X18034Y61976
X11430Y61976
X27940Y65786
X27940Y71374
X1778Y77470
X9144Y46990
X11176Y37084
X19558Y36576
X1778Y73152
X1778Y66040
X1778Y62992
X1778Y59944
X1651Y53594
X19050Y46482
X1778Y49022
X1778Y45720
X1778Y42418
X1778Y39878
X6604Y43180
X1778Y36068
X13462Y38100
X1778Y31496
X1778Y27178
X1778Y23114
X1778Y19050
X1778Y14732
X5334Y21336
X10922Y21802
X28956Y30480
X2032Y8890
X2032Y1778
X18542Y2286
X33782Y2794
X34036Y23114
X25654Y22606
X22860Y25146
X22098Y27686
X13589Y31115
X17526Y32512
X28194Y42926
X27940Y39116
X28194Y49784
X28194Y54102
X18510Y55815
X20066Y52070
X11684Y68326
X18288Y74676
M30