G04 EAGLE Gerber RS-274X export*
G75*
%MOMM*%
%FSLAX34Y34*%
%LPD*%
%INTop Copper*%
%IPPOS*%
%AMOC8*
5,1,8,0,0,1.08239X$1,22.5*%
G01*
%ADD10R,0.800000X0.800000*%
%ADD11C,1.308000*%
%ADD12C,2.000000*%
%ADD13C,2.800000*%
%ADD14C,1.930400*%
%ADD15R,0.850000X3.550000*%
%ADD16R,0.850000X2.650000*%
%ADD17C,0.756400*%
%ADD18C,0.609600*%
%ADD19C,0.508000*%


D10*
X175260Y564000D03*
X175260Y579000D03*
D11*
X298260Y849630D02*
X311340Y849630D01*
X311340Y824230D02*
X298260Y824230D01*
X298260Y798830D02*
X311340Y798830D01*
X311340Y773430D02*
X298260Y773430D01*
X298260Y748030D02*
X311340Y748030D01*
X311340Y722630D02*
X298260Y722630D01*
X298260Y697230D02*
X311340Y697230D01*
X311340Y671830D02*
X298260Y671830D01*
X298260Y646430D02*
X311340Y646430D01*
X311340Y621030D02*
X298260Y621030D01*
X298260Y595630D02*
X311340Y595630D01*
X311340Y570230D02*
X298260Y570230D01*
X298260Y544830D02*
X311340Y544830D01*
X311340Y519430D02*
X298260Y519430D01*
X298260Y494030D02*
X311340Y494030D01*
X311340Y468630D02*
X298260Y468630D01*
X298260Y443230D02*
X311340Y443230D01*
X311340Y417830D02*
X298260Y417830D01*
X298260Y392430D02*
X311340Y392430D01*
X311340Y367030D02*
X298260Y367030D01*
X298260Y341630D02*
X311340Y341630D01*
X311340Y316230D02*
X298260Y316230D01*
X298260Y290830D02*
X311340Y290830D01*
X311340Y265430D02*
X298260Y265430D01*
X298260Y240030D02*
X311340Y240030D01*
X311340Y214630D02*
X298260Y214630D01*
X298260Y189230D02*
X311340Y189230D01*
X311340Y163830D02*
X298260Y163830D01*
X298260Y138430D02*
X311340Y138430D01*
X311340Y113030D02*
X298260Y113030D01*
X298260Y87630D02*
X311340Y87630D01*
X311340Y62230D02*
X298260Y62230D01*
X298260Y36830D02*
X311340Y36830D01*
D12*
X48510Y848571D03*
X48510Y797771D03*
X48510Y746971D03*
D13*
X55060Y120200D03*
X117660Y120200D03*
X55060Y57600D03*
X117660Y57600D03*
D14*
X86360Y88900D03*
D13*
X55060Y341180D03*
X117660Y341180D03*
X55060Y278580D03*
X117660Y278580D03*
D14*
X86360Y309880D03*
D13*
X55060Y546920D03*
X117660Y546920D03*
X55060Y484320D03*
X117660Y484320D03*
D14*
X86360Y515620D03*
D15*
X190260Y861030D03*
X175260Y861030D03*
X160260Y861030D03*
D16*
X190260Y822030D03*
X175260Y822030D03*
X160260Y822030D03*
D17*
X134412Y637740D03*
X162560Y637740D03*
X195580Y746760D03*
D18*
X162560Y713740D01*
X162560Y637740D01*
X134412Y637740D01*
D17*
X254000Y629920D03*
D19*
X254000Y660400D01*
X248920Y665480D01*
X243840Y665480D01*
D17*
X243840Y665480D03*
X175260Y513080D03*
D18*
X175260Y564000D01*
X160260Y822030D02*
X160260Y861030D01*
X160260Y822030D02*
X79670Y822030D01*
X53129Y848571D02*
X48510Y848571D01*
X53129Y848571D02*
X79670Y822030D01*
X175260Y822030D02*
X175260Y861030D01*
X175260Y822030D02*
X175260Y805180D01*
X167851Y797771D01*
X48510Y797771D01*
X190260Y822030D02*
X190260Y861030D01*
X190260Y822030D02*
X190260Y799860D01*
X137371Y746971D02*
X48510Y746971D01*
X137371Y746971D02*
X190260Y799860D01*
X175380Y579120D02*
X175260Y579000D01*
D17*
X195580Y594360D03*
D18*
X180340Y594360D01*
X175260Y589280D01*
X175260Y579000D01*
M02*
