G04 EAGLE Gerber RS-274X export*
G75*
%MOMM*%
%FSLAX34Y34*%
%LPD*%
%INBottom Copper*%
%IPPOS*%
%AMOC8*
5,1,8,0,0,1.08239X$1,22.5*%
G01*
%ADD10R,1.000000X1.100000*%
%ADD11R,1.100000X1.000000*%
%ADD12R,0.300000X1.600000*%
%ADD13R,1.600000X0.300000*%
%ADD14R,1.500000X1.000000*%
%ADD15C,1.308000*%
%ADD16C,2.000000*%
%ADD17C,2.800000*%
%ADD18C,1.930400*%
%ADD19C,0.609600*%
%ADD20C,0.756400*%
%ADD21C,0.254000*%
%ADD22C,0.200000*%
%ADD23C,0.508000*%
%ADD24C,0.304800*%

G36*
X344498Y10164D02*
X344498Y10164D01*
X344517Y10162D01*
X344619Y10184D01*
X344721Y10200D01*
X344738Y10210D01*
X344758Y10214D01*
X344847Y10267D01*
X344938Y10316D01*
X344952Y10330D01*
X344969Y10340D01*
X345036Y10419D01*
X345108Y10494D01*
X345116Y10512D01*
X345129Y10527D01*
X345168Y10623D01*
X345211Y10717D01*
X345213Y10737D01*
X345221Y10755D01*
X345239Y10922D01*
X345239Y250609D01*
X345228Y250680D01*
X345226Y250752D01*
X345208Y250801D01*
X345200Y250852D01*
X345166Y250915D01*
X345141Y250983D01*
X345109Y251024D01*
X345084Y251070D01*
X345033Y251119D01*
X344988Y251175D01*
X344944Y251203D01*
X344906Y251239D01*
X344841Y251269D01*
X344781Y251308D01*
X344730Y251321D01*
X344683Y251343D01*
X344612Y251351D01*
X344542Y251368D01*
X344490Y251364D01*
X344439Y251370D01*
X344368Y251354D01*
X344297Y251349D01*
X344249Y251329D01*
X344198Y251317D01*
X344137Y251281D01*
X344071Y251253D01*
X344015Y251208D01*
X343987Y251191D01*
X343972Y251173D01*
X343940Y251148D01*
X330954Y238162D01*
X327773Y234981D01*
X318685Y234981D01*
X318595Y234967D01*
X318504Y234959D01*
X318474Y234947D01*
X318442Y234942D01*
X318362Y234899D01*
X318278Y234863D01*
X318246Y234837D01*
X318225Y234826D01*
X318203Y234803D01*
X318147Y234758D01*
X316909Y233520D01*
X316867Y233462D01*
X316817Y233410D01*
X316796Y233363D01*
X316765Y233321D01*
X316744Y233252D01*
X316714Y233187D01*
X316708Y233135D01*
X316693Y233085D01*
X316695Y233014D01*
X316687Y232943D01*
X316698Y232892D01*
X316699Y232840D01*
X316724Y232772D01*
X316739Y232702D01*
X316766Y232657D01*
X316784Y232609D01*
X316828Y232553D01*
X316865Y232491D01*
X316905Y232457D01*
X316937Y232417D01*
X316998Y232378D01*
X317052Y232331D01*
X317100Y232312D01*
X317144Y232284D01*
X317214Y232266D01*
X317280Y232239D01*
X317352Y232231D01*
X317383Y232223D01*
X317406Y232225D01*
X317447Y232221D01*
X322924Y232221D01*
X337154Y217991D01*
X337154Y199204D01*
X322131Y184181D01*
X318685Y184181D01*
X318595Y184167D01*
X318504Y184159D01*
X318474Y184147D01*
X318442Y184142D01*
X318362Y184099D01*
X318278Y184063D01*
X318246Y184037D01*
X318225Y184026D01*
X318203Y184003D01*
X318147Y183958D01*
X316178Y181990D01*
X313039Y180689D01*
X296561Y180689D01*
X293422Y181990D01*
X291020Y184392D01*
X289719Y187531D01*
X289719Y190929D01*
X291020Y194068D01*
X293422Y196470D01*
X296561Y197771D01*
X313039Y197771D01*
X316178Y196470D01*
X317621Y195027D01*
X317637Y195016D01*
X317650Y195000D01*
X317737Y194944D01*
X317821Y194884D01*
X317840Y194878D01*
X317856Y194867D01*
X317957Y194842D01*
X318056Y194812D01*
X318076Y194812D01*
X318095Y194807D01*
X318198Y194815D01*
X318302Y194818D01*
X318320Y194825D01*
X318340Y194826D01*
X318435Y194867D01*
X318533Y194902D01*
X318548Y194915D01*
X318567Y194923D01*
X318698Y195027D01*
X326833Y203163D01*
X326886Y203237D01*
X326946Y203307D01*
X326958Y203337D01*
X326977Y203363D01*
X327004Y203450D01*
X327038Y203535D01*
X327042Y203576D01*
X327049Y203598D01*
X327048Y203630D01*
X327056Y203702D01*
X327056Y213493D01*
X327042Y213584D01*
X327034Y213674D01*
X327022Y213704D01*
X327017Y213736D01*
X326974Y213817D01*
X326938Y213901D01*
X326912Y213933D01*
X326901Y213954D01*
X326878Y213976D01*
X326833Y214032D01*
X318965Y221900D01*
X318891Y221953D01*
X318821Y222013D01*
X318791Y222025D01*
X318765Y222044D01*
X318678Y222071D01*
X318593Y222105D01*
X318552Y222109D01*
X318530Y222116D01*
X318498Y222115D01*
X318426Y222123D01*
X317763Y222123D01*
X317692Y222112D01*
X317621Y222110D01*
X317572Y222092D01*
X317520Y222084D01*
X317457Y222050D01*
X317390Y222025D01*
X317349Y221993D01*
X317303Y221968D01*
X317254Y221916D01*
X317198Y221872D01*
X317169Y221828D01*
X317133Y221790D01*
X317103Y221725D01*
X317065Y221665D01*
X317052Y221614D01*
X317030Y221567D01*
X317022Y221496D01*
X317004Y221426D01*
X317009Y221374D01*
X317003Y221323D01*
X317018Y221252D01*
X317024Y221181D01*
X317044Y221133D01*
X317055Y221082D01*
X317092Y221021D01*
X317120Y220955D01*
X317165Y220899D01*
X317181Y220871D01*
X317199Y220856D01*
X317225Y220824D01*
X318580Y219468D01*
X319881Y216329D01*
X319881Y212931D01*
X318580Y209792D01*
X316178Y207390D01*
X313039Y206089D01*
X296561Y206089D01*
X293422Y207390D01*
X291453Y209358D01*
X291379Y209411D01*
X291310Y209471D01*
X291280Y209483D01*
X291253Y209502D01*
X291167Y209529D01*
X291082Y209563D01*
X291041Y209567D01*
X291018Y209574D01*
X290986Y209573D01*
X290915Y209581D01*
X260102Y209581D01*
X260082Y209578D01*
X260063Y209580D01*
X259961Y209558D01*
X259859Y209542D01*
X259842Y209532D01*
X259822Y209528D01*
X259733Y209475D01*
X259642Y209426D01*
X259628Y209412D01*
X259611Y209402D01*
X259544Y209323D01*
X259472Y209248D01*
X259464Y209230D01*
X259451Y209215D01*
X259412Y209119D01*
X259369Y209025D01*
X259367Y209005D01*
X259359Y208987D01*
X259341Y208820D01*
X259341Y207031D01*
X258169Y205859D01*
X246511Y205859D01*
X245339Y207031D01*
X245339Y219689D01*
X246511Y220861D01*
X258169Y220861D01*
X259128Y219902D01*
X259202Y219849D01*
X259271Y219789D01*
X259301Y219777D01*
X259328Y219758D01*
X259414Y219731D01*
X259499Y219697D01*
X259540Y219693D01*
X259563Y219686D01*
X259595Y219687D01*
X259666Y219679D01*
X290915Y219679D01*
X291005Y219693D01*
X291096Y219701D01*
X291126Y219713D01*
X291158Y219718D01*
X291238Y219761D01*
X291322Y219797D01*
X291354Y219823D01*
X291375Y219834D01*
X291397Y219857D01*
X291453Y219902D01*
X292375Y220824D01*
X292417Y220882D01*
X292467Y220934D01*
X292488Y220981D01*
X292519Y221023D01*
X292540Y221092D01*
X292570Y221157D01*
X292576Y221209D01*
X292591Y221259D01*
X292589Y221330D01*
X292597Y221401D01*
X292586Y221452D01*
X292585Y221504D01*
X292560Y221572D01*
X292545Y221642D01*
X292518Y221687D01*
X292500Y221735D01*
X292456Y221791D01*
X292419Y221853D01*
X292379Y221887D01*
X292347Y221927D01*
X292286Y221966D01*
X292232Y222013D01*
X292184Y222032D01*
X292140Y222060D01*
X292070Y222078D01*
X292004Y222105D01*
X291932Y222113D01*
X291901Y222121D01*
X291878Y222119D01*
X291837Y222123D01*
X278737Y222123D01*
X275556Y225304D01*
X252132Y248728D01*
X252058Y248781D01*
X251988Y248841D01*
X251958Y248853D01*
X251932Y248872D01*
X251845Y248899D01*
X251760Y248933D01*
X251719Y248937D01*
X251697Y248944D01*
X251665Y248943D01*
X251593Y248951D01*
X226509Y248951D01*
X213391Y262069D01*
X213391Y273298D01*
X213388Y273318D01*
X213390Y273337D01*
X213368Y273439D01*
X213352Y273541D01*
X213342Y273558D01*
X213338Y273578D01*
X213285Y273667D01*
X213236Y273758D01*
X213222Y273772D01*
X213212Y273789D01*
X213133Y273856D01*
X213058Y273928D01*
X213040Y273936D01*
X213025Y273949D01*
X212929Y273988D01*
X212835Y274031D01*
X212815Y274033D01*
X212797Y274041D01*
X212630Y274059D01*
X212111Y274059D01*
X210939Y275231D01*
X210939Y286889D01*
X212111Y288061D01*
X224769Y288061D01*
X225941Y286889D01*
X225941Y275231D01*
X224769Y274059D01*
X224250Y274059D01*
X224230Y274056D01*
X224211Y274058D01*
X224109Y274036D01*
X224007Y274020D01*
X223990Y274010D01*
X223970Y274006D01*
X223881Y273953D01*
X223790Y273904D01*
X223776Y273890D01*
X223759Y273880D01*
X223692Y273801D01*
X223620Y273726D01*
X223612Y273708D01*
X223599Y273693D01*
X223560Y273597D01*
X223517Y273503D01*
X223515Y273483D01*
X223507Y273465D01*
X223489Y273298D01*
X223489Y266567D01*
X223503Y266476D01*
X223511Y266386D01*
X223523Y266356D01*
X223528Y266324D01*
X223571Y266243D01*
X223607Y266159D01*
X223633Y266127D01*
X223644Y266106D01*
X223667Y266084D01*
X223712Y266028D01*
X230468Y259272D01*
X230542Y259219D01*
X230612Y259159D01*
X230642Y259147D01*
X230668Y259128D01*
X230755Y259101D01*
X230840Y259067D01*
X230881Y259063D01*
X230903Y259056D01*
X230935Y259057D01*
X231007Y259049D01*
X256091Y259049D01*
X259272Y255868D01*
X282696Y232444D01*
X282770Y232391D01*
X282840Y232331D01*
X282870Y232319D01*
X282896Y232300D01*
X282983Y232273D01*
X283068Y232239D01*
X283109Y232235D01*
X283131Y232228D01*
X283163Y232229D01*
X283235Y232221D01*
X292153Y232221D01*
X292224Y232232D01*
X292295Y232234D01*
X292344Y232252D01*
X292396Y232260D01*
X292459Y232294D01*
X292526Y232319D01*
X292567Y232351D01*
X292613Y232376D01*
X292662Y232428D01*
X292718Y232472D01*
X292747Y232516D01*
X292783Y232554D01*
X292813Y232619D01*
X292851Y232679D01*
X292864Y232730D01*
X292886Y232777D01*
X292894Y232848D01*
X292912Y232918D01*
X292907Y232970D01*
X292913Y233021D01*
X292898Y233092D01*
X292892Y233163D01*
X292872Y233211D01*
X292861Y233262D01*
X292824Y233323D01*
X292796Y233389D01*
X292751Y233445D01*
X292735Y233473D01*
X292717Y233488D01*
X292691Y233520D01*
X291020Y235192D01*
X289719Y238331D01*
X289719Y241729D01*
X291020Y244868D01*
X293422Y247270D01*
X296561Y248571D01*
X313039Y248571D01*
X316178Y247270D01*
X318147Y245302D01*
X318221Y245249D01*
X318290Y245189D01*
X318320Y245177D01*
X318347Y245158D01*
X318433Y245131D01*
X318518Y245097D01*
X318559Y245093D01*
X318582Y245086D01*
X318614Y245087D01*
X318685Y245079D01*
X323275Y245079D01*
X323366Y245093D01*
X323456Y245101D01*
X323486Y245113D01*
X323518Y245118D01*
X323599Y245161D01*
X323683Y245197D01*
X323715Y245223D01*
X323736Y245234D01*
X323758Y245257D01*
X323814Y245302D01*
X336920Y258408D01*
X336973Y258482D01*
X337033Y258552D01*
X337045Y258582D01*
X337064Y258608D01*
X337091Y258695D01*
X337125Y258780D01*
X337129Y258821D01*
X337136Y258843D01*
X337135Y258875D01*
X337143Y258947D01*
X337143Y725460D01*
X337129Y725550D01*
X337121Y725641D01*
X337109Y725671D01*
X337104Y725703D01*
X337061Y725783D01*
X337025Y725867D01*
X336999Y725899D01*
X336988Y725920D01*
X336965Y725942D01*
X336920Y725998D01*
X333622Y729296D01*
X333548Y729349D01*
X333479Y729409D01*
X333449Y729421D01*
X333422Y729440D01*
X333335Y729467D01*
X333251Y729501D01*
X333210Y729505D01*
X333187Y729512D01*
X333155Y729511D01*
X333084Y729519D01*
X318367Y729519D01*
X318296Y729508D01*
X318225Y729506D01*
X318176Y729488D01*
X318124Y729480D01*
X318061Y729446D01*
X317994Y729421D01*
X317953Y729389D01*
X317907Y729364D01*
X317858Y729312D01*
X317802Y729268D01*
X317773Y729224D01*
X317737Y729186D01*
X317707Y729121D01*
X317669Y729061D01*
X317656Y729010D01*
X317634Y728963D01*
X317626Y728892D01*
X317608Y728822D01*
X317613Y728770D01*
X317607Y728719D01*
X317622Y728648D01*
X317628Y728577D01*
X317648Y728529D01*
X317659Y728478D01*
X317696Y728417D01*
X317724Y728351D01*
X317769Y728295D01*
X317785Y728267D01*
X317803Y728252D01*
X317829Y728220D01*
X318580Y727468D01*
X319881Y724329D01*
X319881Y720931D01*
X318580Y717792D01*
X316178Y715390D01*
X313039Y714089D01*
X296561Y714089D01*
X293422Y715390D01*
X291020Y717792D01*
X289719Y720931D01*
X289719Y724329D01*
X291020Y727468D01*
X291771Y728220D01*
X291813Y728278D01*
X291863Y728330D01*
X291884Y728377D01*
X291915Y728419D01*
X291936Y728488D01*
X291966Y728553D01*
X291972Y728605D01*
X291987Y728655D01*
X291985Y728726D01*
X291993Y728797D01*
X291982Y728848D01*
X291981Y728900D01*
X291956Y728968D01*
X291941Y729038D01*
X291914Y729083D01*
X291896Y729131D01*
X291852Y729187D01*
X291815Y729249D01*
X291775Y729283D01*
X291743Y729323D01*
X291682Y729362D01*
X291628Y729409D01*
X291580Y729428D01*
X291536Y729456D01*
X291466Y729474D01*
X291400Y729501D01*
X291328Y729509D01*
X291297Y729517D01*
X291274Y729515D01*
X291233Y729519D01*
X262642Y729519D01*
X262622Y729516D01*
X262603Y729518D01*
X262501Y729496D01*
X262399Y729480D01*
X262382Y729470D01*
X262362Y729466D01*
X262273Y729413D01*
X262182Y729364D01*
X262168Y729350D01*
X262151Y729340D01*
X262084Y729261D01*
X262012Y729186D01*
X262004Y729168D01*
X261991Y729153D01*
X261952Y729057D01*
X261909Y728963D01*
X261907Y728943D01*
X261899Y728925D01*
X261881Y728758D01*
X261881Y727731D01*
X260709Y726559D01*
X249051Y726559D01*
X247879Y727731D01*
X247879Y740389D01*
X249051Y741561D01*
X260709Y741561D01*
X261881Y740389D01*
X261881Y739362D01*
X261884Y739342D01*
X261882Y739323D01*
X261904Y739221D01*
X261920Y739119D01*
X261930Y739102D01*
X261934Y739082D01*
X261987Y738993D01*
X262036Y738902D01*
X262050Y738888D01*
X262060Y738871D01*
X262139Y738804D01*
X262214Y738732D01*
X262232Y738724D01*
X262247Y738711D01*
X262343Y738672D01*
X262437Y738629D01*
X262457Y738627D01*
X262475Y738619D01*
X262642Y738601D01*
X294879Y738601D01*
X294975Y738616D01*
X295072Y738626D01*
X295096Y738636D01*
X295122Y738640D01*
X295208Y738686D01*
X295297Y738726D01*
X295316Y738743D01*
X295339Y738756D01*
X295406Y738826D01*
X295478Y738892D01*
X295491Y738915D01*
X295509Y738934D01*
X295550Y739022D01*
X295597Y739108D01*
X295601Y739133D01*
X295612Y739157D01*
X295623Y739254D01*
X295640Y739350D01*
X295637Y739376D01*
X295639Y739401D01*
X295619Y739497D01*
X295605Y739593D01*
X295593Y739616D01*
X295587Y739642D01*
X295537Y739725D01*
X295493Y739812D01*
X295474Y739831D01*
X295461Y739853D01*
X295387Y739916D01*
X295317Y739984D01*
X295289Y740000D01*
X295274Y740013D01*
X295243Y740025D01*
X295171Y740065D01*
X293422Y740790D01*
X291020Y743192D01*
X289719Y746331D01*
X289719Y749729D01*
X291020Y752868D01*
X293422Y755270D01*
X296561Y756571D01*
X313039Y756571D01*
X316178Y755270D01*
X318580Y752868D01*
X319881Y749729D01*
X319881Y746331D01*
X318580Y743192D01*
X316178Y740790D01*
X314429Y740065D01*
X314347Y740014D01*
X314261Y739968D01*
X314243Y739949D01*
X314220Y739936D01*
X314158Y739861D01*
X314091Y739790D01*
X314080Y739766D01*
X314064Y739746D01*
X314029Y739655D01*
X313988Y739567D01*
X313985Y739541D01*
X313975Y739517D01*
X313971Y739419D01*
X313961Y739323D01*
X313966Y739297D01*
X313965Y739271D01*
X313992Y739177D01*
X314013Y739082D01*
X314026Y739060D01*
X314034Y739035D01*
X314089Y738955D01*
X314139Y738871D01*
X314159Y738854D01*
X314174Y738833D01*
X314252Y738774D01*
X314326Y738711D01*
X314350Y738701D01*
X314371Y738686D01*
X314464Y738656D01*
X314554Y738619D01*
X314587Y738616D01*
X314605Y738610D01*
X314638Y738610D01*
X314721Y738601D01*
X337161Y738601D01*
X343342Y732420D01*
X343416Y732367D01*
X343485Y732307D01*
X343515Y732295D01*
X343542Y732276D01*
X343629Y732249D01*
X343713Y732215D01*
X343754Y732211D01*
X343777Y732204D01*
X343809Y732205D01*
X343880Y732197D01*
X344478Y732197D01*
X344498Y732200D01*
X344517Y732198D01*
X344619Y732220D01*
X344721Y732236D01*
X344738Y732246D01*
X344758Y732250D01*
X344847Y732303D01*
X344938Y732352D01*
X344952Y732366D01*
X344969Y732376D01*
X345036Y732455D01*
X345108Y732530D01*
X345116Y732548D01*
X345129Y732563D01*
X345168Y732659D01*
X345211Y732753D01*
X345213Y732773D01*
X345221Y732791D01*
X345239Y732958D01*
X345239Y878078D01*
X345236Y878098D01*
X345238Y878117D01*
X345216Y878219D01*
X345200Y878321D01*
X345190Y878338D01*
X345186Y878358D01*
X345133Y878447D01*
X345084Y878538D01*
X345070Y878552D01*
X345060Y878569D01*
X344981Y878636D01*
X344906Y878708D01*
X344888Y878716D01*
X344873Y878729D01*
X344777Y878768D01*
X344683Y878811D01*
X344663Y878813D01*
X344645Y878821D01*
X344478Y878839D01*
X10922Y878839D01*
X10902Y878836D01*
X10883Y878838D01*
X10781Y878816D01*
X10679Y878800D01*
X10662Y878790D01*
X10642Y878786D01*
X10553Y878733D01*
X10462Y878684D01*
X10448Y878670D01*
X10431Y878660D01*
X10364Y878581D01*
X10292Y878506D01*
X10284Y878488D01*
X10271Y878473D01*
X10232Y878377D01*
X10189Y878283D01*
X10187Y878263D01*
X10179Y878245D01*
X10161Y878078D01*
X10161Y10922D01*
X10164Y10902D01*
X10162Y10883D01*
X10184Y10781D01*
X10200Y10679D01*
X10210Y10662D01*
X10214Y10642D01*
X10267Y10553D01*
X10316Y10462D01*
X10330Y10448D01*
X10340Y10431D01*
X10419Y10364D01*
X10494Y10292D01*
X10512Y10284D01*
X10527Y10271D01*
X10623Y10232D01*
X10717Y10189D01*
X10737Y10187D01*
X10755Y10179D01*
X10922Y10161D01*
X344478Y10161D01*
X344498Y10164D01*
G37*
%LPC*%
G36*
X84042Y77247D02*
X84042Y77247D01*
X79759Y79021D01*
X76481Y82299D01*
X74707Y86582D01*
X74707Y91218D01*
X76481Y95501D01*
X79759Y98779D01*
X80841Y99227D01*
X80941Y99288D01*
X81041Y99348D01*
X81045Y99353D01*
X81050Y99357D01*
X81125Y99446D01*
X81201Y99535D01*
X81203Y99541D01*
X81207Y99546D01*
X81249Y99654D01*
X81293Y99764D01*
X81294Y99771D01*
X81295Y99776D01*
X81296Y99794D01*
X81311Y99930D01*
X81311Y284235D01*
X100392Y303316D01*
X100445Y303390D01*
X100505Y303460D01*
X100517Y303490D01*
X100536Y303516D01*
X100563Y303603D01*
X100597Y303688D01*
X100601Y303729D01*
X100608Y303751D01*
X100607Y303783D01*
X100615Y303855D01*
X100615Y315905D01*
X100601Y315995D01*
X100593Y316086D01*
X100581Y316116D01*
X100576Y316148D01*
X100533Y316229D01*
X100497Y316313D01*
X100471Y316345D01*
X100460Y316365D01*
X100437Y316388D01*
X100392Y316444D01*
X91505Y325331D01*
X91505Y413640D01*
X142048Y464183D01*
X142101Y464257D01*
X142161Y464327D01*
X142173Y464357D01*
X142192Y464383D01*
X142219Y464470D01*
X142253Y464555D01*
X142257Y464596D01*
X142264Y464618D01*
X142263Y464650D01*
X142271Y464722D01*
X142271Y551313D01*
X142257Y551404D01*
X142249Y551494D01*
X142237Y551524D01*
X142232Y551556D01*
X142189Y551637D01*
X142153Y551721D01*
X142127Y551753D01*
X142116Y551774D01*
X142093Y551796D01*
X142048Y551852D01*
X123879Y570021D01*
X123805Y570074D01*
X123736Y570133D01*
X123706Y570145D01*
X123680Y570164D01*
X123593Y570191D01*
X123508Y570225D01*
X123467Y570230D01*
X123444Y570237D01*
X123412Y570236D01*
X123341Y570244D01*
X113461Y570244D01*
X110281Y573424D01*
X90588Y593117D01*
X87407Y596298D01*
X87407Y623818D01*
X87404Y623838D01*
X87406Y623857D01*
X87384Y623959D01*
X87368Y624061D01*
X87358Y624078D01*
X87354Y624098D01*
X87301Y624187D01*
X87252Y624278D01*
X87238Y624292D01*
X87228Y624309D01*
X87149Y624376D01*
X87074Y624448D01*
X87056Y624456D01*
X87041Y624469D01*
X86945Y624508D01*
X86851Y624551D01*
X86831Y624553D01*
X86813Y624561D01*
X86646Y624579D01*
X85111Y624579D01*
X83939Y625751D01*
X83939Y637409D01*
X85111Y638581D01*
X97769Y638581D01*
X98941Y637409D01*
X98941Y625751D01*
X97728Y624538D01*
X97675Y624464D01*
X97615Y624395D01*
X97603Y624365D01*
X97584Y624339D01*
X97557Y624252D01*
X97523Y624167D01*
X97519Y624126D01*
X97512Y624103D01*
X97513Y624071D01*
X97505Y624000D01*
X97505Y600795D01*
X97519Y600705D01*
X97527Y600614D01*
X97539Y600585D01*
X97544Y600553D01*
X97587Y600472D01*
X97623Y600388D01*
X97649Y600356D01*
X97660Y600335D01*
X97683Y600313D01*
X97728Y600257D01*
X117421Y580564D01*
X117495Y580511D01*
X117564Y580452D01*
X117594Y580439D01*
X117620Y580421D01*
X117707Y580394D01*
X117792Y580360D01*
X117833Y580355D01*
X117855Y580348D01*
X117888Y580349D01*
X117959Y580341D01*
X127839Y580341D01*
X152369Y555811D01*
X152369Y460224D01*
X101825Y409680D01*
X101772Y409606D01*
X101712Y409537D01*
X101700Y409507D01*
X101681Y409480D01*
X101655Y409394D01*
X101621Y409309D01*
X101616Y409268D01*
X101609Y409245D01*
X101610Y409213D01*
X101602Y409142D01*
X101602Y349289D01*
X101610Y349242D01*
X101608Y349194D01*
X101630Y349121D01*
X101642Y349047D01*
X101664Y349004D01*
X101678Y348958D01*
X101721Y348896D01*
X101757Y348829D01*
X101792Y348796D01*
X101819Y348757D01*
X101880Y348712D01*
X101935Y348660D01*
X101979Y348640D01*
X102017Y348611D01*
X102090Y348588D01*
X102158Y348556D01*
X102206Y348551D01*
X102252Y348536D01*
X102328Y348537D01*
X102403Y348529D01*
X102450Y348539D01*
X102498Y348540D01*
X102569Y348565D01*
X102643Y348581D01*
X102684Y348606D01*
X102730Y348622D01*
X102789Y348669D01*
X102854Y348707D01*
X102885Y348744D01*
X102923Y348774D01*
X103000Y348877D01*
X103014Y348894D01*
X103017Y348901D01*
X103023Y348909D01*
X103877Y350389D01*
X105197Y352109D01*
X106731Y353643D01*
X108451Y354963D01*
X110328Y356047D01*
X112332Y356877D01*
X114426Y357438D01*
X116137Y357663D01*
X116137Y341942D01*
X116140Y341922D01*
X116138Y341903D01*
X116160Y341801D01*
X116177Y341699D01*
X116186Y341682D01*
X116190Y341662D01*
X116243Y341573D01*
X116292Y341482D01*
X116306Y341468D01*
X116316Y341451D01*
X116395Y341384D01*
X116470Y341313D01*
X116488Y341304D01*
X116503Y341291D01*
X116599Y341253D01*
X116693Y341209D01*
X116713Y341207D01*
X116731Y341199D01*
X116898Y341181D01*
X117661Y341181D01*
X117661Y341179D01*
X116898Y341179D01*
X116878Y341176D01*
X116859Y341178D01*
X116757Y341156D01*
X116655Y341139D01*
X116638Y341130D01*
X116618Y341126D01*
X116529Y341073D01*
X116438Y341024D01*
X116424Y341010D01*
X116407Y341000D01*
X116340Y340921D01*
X116269Y340846D01*
X116260Y340828D01*
X116247Y340813D01*
X116208Y340717D01*
X116165Y340623D01*
X116163Y340603D01*
X116155Y340585D01*
X116137Y340418D01*
X116137Y324697D01*
X114426Y324922D01*
X112332Y325483D01*
X110328Y326313D01*
X108451Y327397D01*
X106731Y328717D01*
X105197Y330251D01*
X103877Y331971D01*
X103023Y333451D01*
X102992Y333489D01*
X102970Y333531D01*
X102915Y333583D01*
X102867Y333642D01*
X102826Y333667D01*
X102791Y333700D01*
X102723Y333732D01*
X102658Y333772D01*
X102612Y333784D01*
X102568Y333804D01*
X102493Y333812D01*
X102419Y333830D01*
X102371Y333826D01*
X102324Y333831D01*
X102250Y333815D01*
X102174Y333808D01*
X102130Y333789D01*
X102083Y333779D01*
X102018Y333740D01*
X101949Y333709D01*
X101913Y333677D01*
X101872Y333653D01*
X101823Y333595D01*
X101767Y333544D01*
X101744Y333502D01*
X101712Y333466D01*
X101684Y333395D01*
X101647Y333329D01*
X101638Y333282D01*
X101621Y333237D01*
X101606Y333109D01*
X101602Y333087D01*
X101603Y333081D01*
X101602Y333071D01*
X101602Y329829D01*
X101617Y329739D01*
X101624Y329648D01*
X101637Y329618D01*
X101642Y329586D01*
X101685Y329506D01*
X101720Y329422D01*
X101746Y329390D01*
X101757Y329369D01*
X101780Y329347D01*
X101825Y329291D01*
X110713Y320403D01*
X110713Y299357D01*
X91632Y280276D01*
X91579Y280202D01*
X91519Y280132D01*
X91507Y280102D01*
X91488Y280076D01*
X91461Y279989D01*
X91427Y279904D01*
X91423Y279863D01*
X91416Y279841D01*
X91417Y279809D01*
X91409Y279738D01*
X91409Y99930D01*
X91428Y99815D01*
X91445Y99699D01*
X91447Y99694D01*
X91448Y99687D01*
X91503Y99585D01*
X91556Y99480D01*
X91561Y99476D01*
X91564Y99470D01*
X91648Y99390D01*
X91732Y99308D01*
X91738Y99304D01*
X91742Y99301D01*
X91759Y99293D01*
X91879Y99227D01*
X92961Y98779D01*
X96239Y95501D01*
X98013Y91218D01*
X98013Y86582D01*
X96239Y82299D01*
X92961Y79021D01*
X88678Y77247D01*
X84042Y77247D01*
G37*
%LPD*%
%LPC*%
G36*
X212111Y291059D02*
X212111Y291059D01*
X210939Y292231D01*
X210939Y303889D01*
X212111Y305061D01*
X212630Y305061D01*
X212650Y305064D01*
X212669Y305062D01*
X212771Y305084D01*
X212873Y305100D01*
X212890Y305110D01*
X212910Y305114D01*
X212999Y305167D01*
X213090Y305216D01*
X213104Y305230D01*
X213121Y305240D01*
X213188Y305319D01*
X213260Y305394D01*
X213268Y305412D01*
X213281Y305427D01*
X213320Y305523D01*
X213363Y305617D01*
X213365Y305637D01*
X213373Y305655D01*
X213391Y305822D01*
X213391Y570858D01*
X213388Y570878D01*
X213390Y570897D01*
X213368Y570999D01*
X213352Y571101D01*
X213342Y571118D01*
X213338Y571138D01*
X213285Y571227D01*
X213236Y571318D01*
X213222Y571332D01*
X213212Y571349D01*
X213133Y571416D01*
X213058Y571488D01*
X213040Y571496D01*
X213025Y571509D01*
X212929Y571548D01*
X212835Y571591D01*
X212815Y571593D01*
X212797Y571601D01*
X212630Y571619D01*
X210951Y571619D01*
X209779Y572791D01*
X209779Y585449D01*
X210951Y586621D01*
X212630Y586621D01*
X212650Y586624D01*
X212669Y586622D01*
X212771Y586644D01*
X212873Y586660D01*
X212890Y586670D01*
X212910Y586674D01*
X212999Y586727D01*
X213090Y586776D01*
X213104Y586790D01*
X213121Y586800D01*
X213188Y586879D01*
X213260Y586954D01*
X213268Y586972D01*
X213281Y586987D01*
X213320Y587083D01*
X213363Y587177D01*
X213365Y587197D01*
X213373Y587215D01*
X213391Y587382D01*
X213391Y597033D01*
X213377Y597124D01*
X213369Y597214D01*
X213357Y597244D01*
X213352Y597276D01*
X213309Y597357D01*
X213273Y597441D01*
X213247Y597473D01*
X213236Y597494D01*
X213213Y597516D01*
X213168Y597572D01*
X200691Y610049D01*
X200691Y614231D01*
X201992Y615532D01*
X202045Y615606D01*
X202105Y615676D01*
X202117Y615706D01*
X202136Y615732D01*
X202163Y615819D01*
X202197Y615904D01*
X202201Y615945D01*
X202208Y615967D01*
X202207Y615999D01*
X202215Y616071D01*
X202215Y640845D01*
X202201Y640935D01*
X202193Y641026D01*
X202181Y641055D01*
X202176Y641087D01*
X202133Y641168D01*
X202097Y641252D01*
X202071Y641284D01*
X202060Y641305D01*
X202037Y641327D01*
X201992Y641383D01*
X199129Y644246D01*
X199055Y644299D01*
X198986Y644359D01*
X198955Y644371D01*
X198929Y644390D01*
X198842Y644417D01*
X198757Y644451D01*
X198716Y644455D01*
X198694Y644462D01*
X198662Y644461D01*
X198591Y644469D01*
X189622Y644469D01*
X189602Y644466D01*
X189583Y644468D01*
X189481Y644446D01*
X189379Y644430D01*
X189362Y644420D01*
X189342Y644416D01*
X189253Y644363D01*
X189162Y644314D01*
X189148Y644300D01*
X189131Y644290D01*
X189064Y644211D01*
X188992Y644136D01*
X188984Y644118D01*
X188971Y644103D01*
X188932Y644007D01*
X188889Y643913D01*
X188887Y643893D01*
X188879Y643875D01*
X188861Y643708D01*
X188861Y643501D01*
X178320Y643501D01*
X167779Y643501D01*
X167779Y644574D01*
X167952Y645221D01*
X168217Y645679D01*
X168258Y645786D01*
X168301Y645893D01*
X168302Y645903D01*
X168304Y645910D01*
X168305Y645932D01*
X168319Y646060D01*
X168319Y670069D01*
X169491Y671241D01*
X174288Y671241D01*
X174308Y671244D01*
X174327Y671242D01*
X174429Y671264D01*
X174531Y671280D01*
X174548Y671290D01*
X174568Y671294D01*
X174657Y671347D01*
X174748Y671396D01*
X174762Y671410D01*
X174779Y671420D01*
X174846Y671499D01*
X174918Y671574D01*
X174926Y671592D01*
X174939Y671607D01*
X174978Y671703D01*
X175021Y671797D01*
X175023Y671817D01*
X175031Y671835D01*
X175049Y672002D01*
X175049Y676151D01*
X175035Y676241D01*
X175027Y676332D01*
X175015Y676361D01*
X175010Y676393D01*
X174967Y676474D01*
X174931Y676558D01*
X174905Y676590D01*
X174894Y676611D01*
X174871Y676633D01*
X174826Y676689D01*
X174795Y676720D01*
X174795Y679849D01*
X174781Y679940D01*
X174773Y680030D01*
X174761Y680060D01*
X174756Y680092D01*
X174713Y680173D01*
X174677Y680257D01*
X174651Y680289D01*
X174640Y680310D01*
X174617Y680332D01*
X174572Y680388D01*
X173271Y681689D01*
X173271Y685871D01*
X194759Y707359D01*
X230118Y707359D01*
X230138Y707362D01*
X230157Y707360D01*
X230259Y707382D01*
X230361Y707398D01*
X230378Y707408D01*
X230398Y707412D01*
X230487Y707465D01*
X230578Y707514D01*
X230592Y707528D01*
X230609Y707538D01*
X230676Y707617D01*
X230748Y707692D01*
X230756Y707710D01*
X230769Y707725D01*
X230808Y707821D01*
X230851Y707915D01*
X230853Y707935D01*
X230861Y707953D01*
X230879Y708120D01*
X230879Y709909D01*
X232051Y711081D01*
X243709Y711081D01*
X244881Y709909D01*
X244881Y697251D01*
X243709Y696079D01*
X232051Y696079D01*
X231092Y697038D01*
X231018Y697091D01*
X230949Y697151D01*
X230919Y697163D01*
X230892Y697182D01*
X230806Y697209D01*
X230721Y697243D01*
X230680Y697247D01*
X230657Y697254D01*
X230625Y697253D01*
X230554Y697261D01*
X199257Y697261D01*
X199166Y697247D01*
X199076Y697239D01*
X199046Y697227D01*
X199014Y697222D01*
X198933Y697179D01*
X198849Y697143D01*
X198817Y697117D01*
X198796Y697106D01*
X198774Y697083D01*
X198718Y697038D01*
X182068Y680388D01*
X182015Y680314D01*
X181955Y680244D01*
X181943Y680214D01*
X181924Y680188D01*
X181897Y680101D01*
X181863Y680016D01*
X181859Y679975D01*
X181852Y679953D01*
X181853Y679921D01*
X181845Y679849D01*
X181845Y676720D01*
X181814Y676689D01*
X181761Y676615D01*
X181701Y676546D01*
X181689Y676515D01*
X181670Y676489D01*
X181643Y676402D01*
X181609Y676317D01*
X181605Y676276D01*
X181598Y676254D01*
X181599Y676222D01*
X181591Y676151D01*
X181591Y672002D01*
X181594Y671982D01*
X181592Y671963D01*
X181614Y671861D01*
X181630Y671759D01*
X181640Y671742D01*
X181644Y671722D01*
X181697Y671633D01*
X181746Y671542D01*
X181760Y671528D01*
X181770Y671511D01*
X181849Y671444D01*
X181924Y671372D01*
X181942Y671364D01*
X181957Y671351D01*
X182053Y671312D01*
X182147Y671269D01*
X182167Y671267D01*
X182185Y671259D01*
X182352Y671241D01*
X187149Y671241D01*
X188321Y670069D01*
X188321Y668463D01*
X188332Y668393D01*
X188334Y668321D01*
X188352Y668272D01*
X188360Y668221D01*
X188394Y668157D01*
X188419Y668090D01*
X188451Y668049D01*
X188476Y668003D01*
X188528Y667954D01*
X188572Y667898D01*
X188616Y667870D01*
X188654Y667834D01*
X188719Y667804D01*
X188779Y667765D01*
X188830Y667752D01*
X188877Y667730D01*
X188948Y667722D01*
X189018Y667705D01*
X189070Y667709D01*
X189121Y667703D01*
X189192Y667718D01*
X189263Y667724D01*
X189311Y667744D01*
X189362Y667755D01*
X189423Y667792D01*
X189489Y667820D01*
X189545Y667865D01*
X189573Y667881D01*
X189588Y667899D01*
X189620Y667925D01*
X191832Y670137D01*
X191885Y670211D01*
X191945Y670280D01*
X191957Y670311D01*
X191976Y670337D01*
X192003Y670424D01*
X192037Y670509D01*
X192041Y670550D01*
X192048Y670572D01*
X192047Y670604D01*
X192055Y670675D01*
X192055Y679640D01*
X194343Y681928D01*
X194372Y681957D01*
X196660Y684245D01*
X199638Y684245D01*
X199658Y684248D01*
X199677Y684246D01*
X199779Y684268D01*
X199881Y684284D01*
X199898Y684294D01*
X199918Y684298D01*
X200007Y684351D01*
X200098Y684400D01*
X200112Y684414D01*
X200129Y684424D01*
X200196Y684503D01*
X200268Y684578D01*
X200276Y684596D01*
X200289Y684611D01*
X200328Y684707D01*
X200371Y684801D01*
X200373Y684821D01*
X200381Y684839D01*
X200399Y685006D01*
X200399Y687049D01*
X201571Y688221D01*
X213229Y688221D01*
X214401Y687049D01*
X214401Y674391D01*
X213229Y673219D01*
X201571Y673219D01*
X200404Y674386D01*
X200346Y674428D01*
X200294Y674478D01*
X200247Y674499D01*
X200205Y674530D01*
X200136Y674551D01*
X200071Y674581D01*
X200019Y674587D01*
X199969Y674602D01*
X199898Y674600D01*
X199827Y674608D01*
X199776Y674597D01*
X199724Y674596D01*
X199656Y674571D01*
X199586Y674556D01*
X199541Y674529D01*
X199493Y674511D01*
X199437Y674467D01*
X199375Y674430D01*
X199341Y674390D01*
X199301Y674358D01*
X199262Y674297D01*
X199215Y674243D01*
X199196Y674195D01*
X199168Y674151D01*
X199150Y674081D01*
X199123Y674015D01*
X199115Y673943D01*
X199107Y673912D01*
X199109Y673889D01*
X199105Y673848D01*
X199105Y667440D01*
X196817Y665152D01*
X193975Y662310D01*
X193933Y662252D01*
X193884Y662200D01*
X193862Y662153D01*
X193831Y662111D01*
X193810Y662042D01*
X193780Y661977D01*
X193774Y661925D01*
X193759Y661875D01*
X193761Y661804D01*
X193753Y661733D01*
X193764Y661682D01*
X193765Y661630D01*
X193790Y661562D01*
X193805Y661492D01*
X193832Y661447D01*
X193850Y661399D01*
X193895Y661343D01*
X193931Y661281D01*
X193971Y661247D01*
X194004Y661207D01*
X194064Y661168D01*
X194118Y661121D01*
X194167Y661102D01*
X194211Y661074D01*
X194280Y661056D01*
X194347Y661029D01*
X194418Y661021D01*
X194449Y661013D01*
X194472Y661015D01*
X194513Y661011D01*
X206131Y661011D01*
X206221Y661025D01*
X206312Y661033D01*
X206341Y661045D01*
X206373Y661050D01*
X206454Y661093D01*
X206538Y661129D01*
X206570Y661155D01*
X206591Y661166D01*
X206608Y661183D01*
X206610Y661184D01*
X206617Y661192D01*
X206669Y661234D01*
X206820Y661385D01*
X217360Y661385D01*
X224757Y653988D01*
X224831Y653935D01*
X224900Y653875D01*
X224931Y653863D01*
X224957Y653844D01*
X225044Y653817D01*
X225129Y653783D01*
X225170Y653779D01*
X225192Y653772D01*
X225224Y653773D01*
X225295Y653765D01*
X227578Y653765D01*
X227598Y653768D01*
X227617Y653766D01*
X227719Y653788D01*
X227821Y653804D01*
X227838Y653814D01*
X227858Y653818D01*
X227947Y653871D01*
X228038Y653920D01*
X228052Y653934D01*
X228069Y653944D01*
X228136Y654023D01*
X228208Y654098D01*
X228216Y654116D01*
X228229Y654131D01*
X228268Y654227D01*
X228311Y654321D01*
X228313Y654341D01*
X228321Y654359D01*
X228339Y654526D01*
X228339Y656569D01*
X229511Y657741D01*
X241169Y657741D01*
X242341Y656569D01*
X242341Y643911D01*
X241169Y642739D01*
X229511Y642739D01*
X228339Y643911D01*
X228339Y645954D01*
X228336Y645974D01*
X228338Y645993D01*
X228316Y646095D01*
X228300Y646197D01*
X228290Y646214D01*
X228286Y646234D01*
X228233Y646323D01*
X228184Y646414D01*
X228170Y646428D01*
X228160Y646445D01*
X228081Y646512D01*
X228006Y646584D01*
X227988Y646592D01*
X227973Y646605D01*
X227877Y646644D01*
X227783Y646687D01*
X227763Y646689D01*
X227745Y646697D01*
X227578Y646715D01*
X222060Y646715D01*
X214663Y654112D01*
X214589Y654165D01*
X214520Y654225D01*
X214489Y654237D01*
X214463Y654256D01*
X214376Y654283D01*
X214291Y654317D01*
X214250Y654321D01*
X214228Y654328D01*
X214196Y654327D01*
X214125Y654335D01*
X211007Y654335D01*
X210937Y654324D01*
X210865Y654322D01*
X210816Y654304D01*
X210765Y654296D01*
X210701Y654262D01*
X210634Y654237D01*
X210593Y654205D01*
X210547Y654180D01*
X210498Y654128D01*
X210442Y654084D01*
X210414Y654040D01*
X210378Y654002D01*
X210348Y653937D01*
X210309Y653877D01*
X210296Y653826D01*
X210274Y653779D01*
X210266Y653708D01*
X210249Y653638D01*
X210253Y653586D01*
X210247Y653535D01*
X210262Y653464D01*
X210268Y653393D01*
X210288Y653345D01*
X210299Y653294D01*
X210336Y653233D01*
X210364Y653167D01*
X210409Y653111D01*
X210425Y653083D01*
X210443Y653068D01*
X210469Y653036D01*
X218797Y644708D01*
X221085Y642420D01*
X221085Y633102D01*
X221088Y633082D01*
X221086Y633063D01*
X221108Y632961D01*
X221124Y632859D01*
X221134Y632842D01*
X221138Y632822D01*
X221191Y632733D01*
X221240Y632642D01*
X221254Y632628D01*
X221264Y632611D01*
X221343Y632544D01*
X221418Y632472D01*
X221436Y632464D01*
X221451Y632451D01*
X221547Y632412D01*
X221641Y632369D01*
X221661Y632367D01*
X221679Y632359D01*
X221846Y632341D01*
X223389Y632341D01*
X224561Y631169D01*
X224561Y618511D01*
X223389Y617339D01*
X211731Y617339D01*
X210564Y618506D01*
X210506Y618548D01*
X210454Y618598D01*
X210407Y618619D01*
X210365Y618650D01*
X210296Y618671D01*
X210231Y618701D01*
X210179Y618707D01*
X210129Y618722D01*
X210058Y618720D01*
X209987Y618728D01*
X209936Y618717D01*
X209884Y618716D01*
X209816Y618691D01*
X209746Y618676D01*
X209701Y618649D01*
X209653Y618631D01*
X209597Y618587D01*
X209535Y618550D01*
X209501Y618510D01*
X209461Y618478D01*
X209422Y618417D01*
X209375Y618363D01*
X209356Y618315D01*
X209328Y618271D01*
X209310Y618201D01*
X209283Y618135D01*
X209275Y618063D01*
X209267Y618032D01*
X209269Y618009D01*
X209265Y617968D01*
X209265Y616071D01*
X209279Y615980D01*
X209287Y615890D01*
X209299Y615860D01*
X209304Y615828D01*
X209347Y615747D01*
X209383Y615663D01*
X209409Y615631D01*
X209420Y615610D01*
X209443Y615588D01*
X209488Y615532D01*
X223489Y601531D01*
X223489Y586056D01*
X223503Y585966D01*
X223511Y585875D01*
X223523Y585845D01*
X223528Y585813D01*
X223571Y585733D01*
X223607Y585649D01*
X223633Y585617D01*
X223644Y585596D01*
X223667Y585574D01*
X223712Y585518D01*
X223781Y585449D01*
X223781Y572791D01*
X223712Y572722D01*
X223659Y572648D01*
X223599Y572579D01*
X223587Y572549D01*
X223568Y572522D01*
X223541Y572436D01*
X223507Y572351D01*
X223503Y572310D01*
X223496Y572287D01*
X223497Y572255D01*
X223489Y572184D01*
X223489Y305822D01*
X223492Y305802D01*
X223490Y305783D01*
X223512Y305681D01*
X223528Y305579D01*
X223538Y305562D01*
X223542Y305542D01*
X223595Y305453D01*
X223644Y305362D01*
X223658Y305348D01*
X223668Y305331D01*
X223747Y305264D01*
X223822Y305192D01*
X223840Y305184D01*
X223855Y305171D01*
X223951Y305132D01*
X224045Y305089D01*
X224065Y305087D01*
X224083Y305079D01*
X224250Y305061D01*
X224769Y305061D01*
X225941Y303889D01*
X225941Y292231D01*
X224769Y291059D01*
X212111Y291059D01*
G37*
%LPD*%
%LPC*%
G36*
X296561Y256889D02*
X296561Y256889D01*
X293422Y258190D01*
X291020Y260592D01*
X289719Y263731D01*
X289719Y267129D01*
X291020Y270268D01*
X293422Y272670D01*
X296561Y273971D01*
X313039Y273971D01*
X316178Y272670D01*
X317621Y271227D01*
X317637Y271216D01*
X317650Y271200D01*
X317737Y271144D01*
X317821Y271084D01*
X317840Y271078D01*
X317856Y271067D01*
X317957Y271042D01*
X318056Y271012D01*
X318076Y271012D01*
X318095Y271007D01*
X318198Y271015D01*
X318302Y271018D01*
X318320Y271025D01*
X318340Y271026D01*
X318435Y271067D01*
X318533Y271102D01*
X318548Y271115D01*
X318567Y271123D01*
X318698Y271227D01*
X324928Y277458D01*
X324981Y277532D01*
X325041Y277602D01*
X325053Y277632D01*
X325072Y277658D01*
X325099Y277745D01*
X325133Y277830D01*
X325137Y277871D01*
X325144Y277893D01*
X325143Y277925D01*
X325151Y277997D01*
X325151Y673233D01*
X325150Y673243D01*
X325150Y673249D01*
X325144Y673277D01*
X325137Y673324D01*
X325129Y673414D01*
X325117Y673444D01*
X325112Y673476D01*
X325069Y673557D01*
X325033Y673641D01*
X325007Y673673D01*
X324996Y673694D01*
X324973Y673716D01*
X324928Y673772D01*
X318934Y679766D01*
X318860Y679819D01*
X318790Y679879D01*
X318760Y679891D01*
X318734Y679910D01*
X318647Y679937D01*
X318562Y679971D01*
X318521Y679975D01*
X318499Y679982D01*
X318467Y679981D01*
X318395Y679989D01*
X317097Y679989D01*
X317026Y679978D01*
X316955Y679976D01*
X316906Y679958D01*
X316854Y679950D01*
X316791Y679916D01*
X316724Y679891D01*
X316683Y679859D01*
X316637Y679834D01*
X316588Y679782D01*
X316532Y679738D01*
X316503Y679694D01*
X316467Y679656D01*
X316437Y679591D01*
X316399Y679531D01*
X316386Y679480D01*
X316364Y679433D01*
X316356Y679362D01*
X316338Y679292D01*
X316343Y679240D01*
X316337Y679189D01*
X316352Y679118D01*
X316358Y679047D01*
X316378Y678999D01*
X316389Y678948D01*
X316426Y678887D01*
X316454Y678821D01*
X316499Y678765D01*
X316515Y678737D01*
X316533Y678722D01*
X316559Y678690D01*
X318580Y676668D01*
X319881Y673529D01*
X319881Y670131D01*
X318580Y666992D01*
X316178Y664590D01*
X313039Y663289D01*
X296561Y663289D01*
X293422Y664590D01*
X291020Y666992D01*
X289719Y670131D01*
X289719Y673529D01*
X291020Y676668D01*
X293041Y678690D01*
X293083Y678748D01*
X293133Y678800D01*
X293154Y678847D01*
X293185Y678889D01*
X293206Y678958D01*
X293236Y679023D01*
X293242Y679075D01*
X293257Y679125D01*
X293255Y679196D01*
X293263Y679267D01*
X293252Y679318D01*
X293251Y679370D01*
X293226Y679438D01*
X293211Y679508D01*
X293184Y679553D01*
X293166Y679601D01*
X293122Y679657D01*
X293085Y679719D01*
X293045Y679753D01*
X293013Y679793D01*
X292952Y679832D01*
X292898Y679879D01*
X292850Y679898D01*
X292806Y679926D01*
X292736Y679944D01*
X292670Y679971D01*
X292598Y679979D01*
X292567Y679987D01*
X292544Y679985D01*
X292503Y679989D01*
X283869Y679989D01*
X265042Y698816D01*
X264968Y698869D01*
X264899Y698929D01*
X264869Y698941D01*
X264842Y698960D01*
X264755Y698987D01*
X264671Y699021D01*
X264630Y699025D01*
X264607Y699032D01*
X264575Y699031D01*
X264504Y699039D01*
X262642Y699039D01*
X262622Y699036D01*
X262603Y699038D01*
X262501Y699016D01*
X262399Y699000D01*
X262382Y698990D01*
X262362Y698986D01*
X262273Y698933D01*
X262182Y698884D01*
X262168Y698870D01*
X262151Y698860D01*
X262084Y698781D01*
X262012Y698706D01*
X262004Y698688D01*
X261991Y698673D01*
X261952Y698577D01*
X261909Y698483D01*
X261907Y698463D01*
X261899Y698445D01*
X261881Y698278D01*
X261881Y697251D01*
X260709Y696079D01*
X249051Y696079D01*
X247879Y697251D01*
X247879Y709909D01*
X249051Y711081D01*
X260709Y711081D01*
X261881Y709909D01*
X261881Y708882D01*
X261884Y708862D01*
X261882Y708843D01*
X261904Y708741D01*
X261920Y708639D01*
X261930Y708622D01*
X261934Y708602D01*
X261987Y708513D01*
X262036Y708422D01*
X262050Y708408D01*
X262060Y708391D01*
X262139Y708324D01*
X262214Y708252D01*
X262232Y708244D01*
X262247Y708231D01*
X262343Y708192D01*
X262437Y708149D01*
X262457Y708147D01*
X262475Y708139D01*
X262642Y708121D01*
X268581Y708121D01*
X287408Y689294D01*
X287482Y689241D01*
X287551Y689181D01*
X287581Y689169D01*
X287608Y689150D01*
X287695Y689123D01*
X287779Y689089D01*
X287820Y689085D01*
X287843Y689078D01*
X287875Y689079D01*
X287946Y689071D01*
X292503Y689071D01*
X292574Y689082D01*
X292645Y689084D01*
X292694Y689102D01*
X292746Y689110D01*
X292809Y689144D01*
X292876Y689169D01*
X292917Y689201D01*
X292963Y689226D01*
X293012Y689278D01*
X293068Y689322D01*
X293097Y689366D01*
X293133Y689404D01*
X293163Y689469D01*
X293201Y689529D01*
X293214Y689580D01*
X293236Y689627D01*
X293244Y689698D01*
X293262Y689768D01*
X293257Y689820D01*
X293263Y689871D01*
X293248Y689942D01*
X293242Y690013D01*
X293222Y690061D01*
X293211Y690112D01*
X293174Y690173D01*
X293146Y690239D01*
X293101Y690295D01*
X293085Y690323D01*
X293067Y690338D01*
X293041Y690370D01*
X291020Y692392D01*
X289719Y695531D01*
X289719Y698929D01*
X291020Y702068D01*
X293422Y704470D01*
X296561Y705771D01*
X313039Y705771D01*
X316178Y704470D01*
X318580Y702068D01*
X319881Y698929D01*
X319881Y695531D01*
X318580Y692392D01*
X316559Y690370D01*
X316517Y690312D01*
X316467Y690260D01*
X316446Y690213D01*
X316415Y690171D01*
X316394Y690102D01*
X316364Y690037D01*
X316358Y689985D01*
X316343Y689935D01*
X316345Y689864D01*
X316337Y689793D01*
X316348Y689742D01*
X316349Y689690D01*
X316374Y689622D01*
X316389Y689552D01*
X316416Y689507D01*
X316434Y689459D01*
X316478Y689403D01*
X316515Y689341D01*
X316555Y689307D01*
X316587Y689267D01*
X316648Y689228D01*
X316702Y689181D01*
X316750Y689162D01*
X316794Y689134D01*
X316864Y689116D01*
X316930Y689089D01*
X317002Y689081D01*
X317033Y689073D01*
X317056Y689075D01*
X317097Y689071D01*
X323191Y689071D01*
X323730Y688532D01*
X323804Y688479D01*
X323873Y688419D01*
X323903Y688407D01*
X323930Y688388D01*
X324017Y688361D01*
X324101Y688327D01*
X324142Y688323D01*
X324165Y688316D01*
X324197Y688317D01*
X324268Y688309D01*
X324671Y688309D01*
X332068Y680912D01*
X335249Y677731D01*
X335249Y273499D01*
X322131Y260381D01*
X318685Y260381D01*
X318595Y260367D01*
X318504Y260359D01*
X318474Y260347D01*
X318442Y260342D01*
X318362Y260299D01*
X318278Y260263D01*
X318246Y260237D01*
X318225Y260226D01*
X318203Y260203D01*
X318147Y260158D01*
X316178Y258190D01*
X313039Y256889D01*
X296561Y256889D01*
G37*
%LPD*%
%LPC*%
G36*
X39391Y641579D02*
X39391Y641579D01*
X38219Y642751D01*
X38219Y654409D01*
X39391Y655581D01*
X41434Y655581D01*
X41454Y655584D01*
X41473Y655582D01*
X41575Y655604D01*
X41677Y655620D01*
X41694Y655630D01*
X41714Y655634D01*
X41803Y655687D01*
X41894Y655736D01*
X41908Y655750D01*
X41925Y655760D01*
X41992Y655839D01*
X42064Y655914D01*
X42072Y655932D01*
X42085Y655947D01*
X42124Y656043D01*
X42167Y656137D01*
X42169Y656157D01*
X42177Y656175D01*
X42195Y656342D01*
X42195Y661860D01*
X92520Y712185D01*
X134433Y712185D01*
X134503Y712196D01*
X134575Y712198D01*
X134624Y712216D01*
X134675Y712224D01*
X134739Y712258D01*
X134806Y712283D01*
X134847Y712315D01*
X134893Y712340D01*
X134942Y712392D01*
X134998Y712436D01*
X135026Y712480D01*
X135062Y712518D01*
X135092Y712583D01*
X135131Y712643D01*
X135144Y712694D01*
X135166Y712741D01*
X135174Y712812D01*
X135191Y712882D01*
X135187Y712934D01*
X135193Y712985D01*
X135178Y713056D01*
X135172Y713127D01*
X135152Y713175D01*
X135141Y713226D01*
X135104Y713287D01*
X135076Y713353D01*
X135031Y713409D01*
X135015Y713437D01*
X134997Y713452D01*
X134971Y713484D01*
X133383Y715072D01*
X133309Y715125D01*
X133240Y715185D01*
X133209Y715197D01*
X133183Y715216D01*
X133096Y715243D01*
X133011Y715277D01*
X132970Y715281D01*
X132948Y715288D01*
X132916Y715287D01*
X132845Y715295D01*
X123000Y715295D01*
X115855Y722440D01*
X115855Y725418D01*
X115852Y725438D01*
X115854Y725457D01*
X115832Y725559D01*
X115816Y725661D01*
X115806Y725678D01*
X115802Y725698D01*
X115749Y725787D01*
X115700Y725878D01*
X115686Y725892D01*
X115676Y725909D01*
X115597Y725976D01*
X115522Y726048D01*
X115504Y726056D01*
X115489Y726069D01*
X115393Y726108D01*
X115299Y726151D01*
X115279Y726153D01*
X115261Y726161D01*
X115094Y726179D01*
X113051Y726179D01*
X111879Y727351D01*
X111879Y739009D01*
X113051Y740181D01*
X125709Y740181D01*
X126881Y739009D01*
X126881Y727351D01*
X125709Y726179D01*
X123923Y726179D01*
X123853Y726168D01*
X123781Y726166D01*
X123732Y726148D01*
X123681Y726140D01*
X123617Y726106D01*
X123550Y726081D01*
X123509Y726049D01*
X123463Y726024D01*
X123414Y725972D01*
X123358Y725928D01*
X123330Y725884D01*
X123294Y725846D01*
X123264Y725781D01*
X123225Y725721D01*
X123212Y725670D01*
X123190Y725623D01*
X123182Y725552D01*
X123165Y725482D01*
X123169Y725430D01*
X123163Y725379D01*
X123178Y725308D01*
X123184Y725237D01*
X123204Y725189D01*
X123215Y725138D01*
X123252Y725077D01*
X123280Y725011D01*
X123325Y724955D01*
X123341Y724927D01*
X123359Y724912D01*
X123385Y724880D01*
X125697Y722568D01*
X125771Y722515D01*
X125840Y722455D01*
X125871Y722443D01*
X125897Y722424D01*
X125984Y722397D01*
X126069Y722363D01*
X126110Y722359D01*
X126132Y722352D01*
X126164Y722353D01*
X126235Y722345D01*
X136080Y722345D01*
X138368Y720057D01*
X139956Y718469D01*
X140014Y718427D01*
X140066Y718378D01*
X140113Y718356D01*
X140155Y718325D01*
X140224Y718304D01*
X140289Y718274D01*
X140341Y718268D01*
X140391Y718253D01*
X140462Y718255D01*
X140533Y718247D01*
X140584Y718258D01*
X140636Y718259D01*
X140704Y718284D01*
X140774Y718299D01*
X140819Y718326D01*
X140867Y718344D01*
X140923Y718389D01*
X140985Y718425D01*
X141019Y718465D01*
X141059Y718498D01*
X141098Y718558D01*
X141145Y718612D01*
X141164Y718661D01*
X141192Y718705D01*
X141210Y718774D01*
X141237Y718841D01*
X141245Y718912D01*
X141253Y718943D01*
X141251Y718966D01*
X141255Y719007D01*
X141255Y725418D01*
X141252Y725438D01*
X141254Y725457D01*
X141232Y725559D01*
X141216Y725661D01*
X141206Y725678D01*
X141202Y725698D01*
X141149Y725787D01*
X141100Y725878D01*
X141086Y725892D01*
X141076Y725909D01*
X140997Y725976D01*
X140922Y726048D01*
X140904Y726056D01*
X140889Y726069D01*
X140793Y726108D01*
X140699Y726151D01*
X140679Y726153D01*
X140661Y726161D01*
X140494Y726179D01*
X138451Y726179D01*
X137279Y727351D01*
X137279Y739009D01*
X138451Y740181D01*
X151109Y740181D01*
X152281Y739009D01*
X152281Y727351D01*
X151109Y726179D01*
X149066Y726179D01*
X149046Y726176D01*
X149027Y726178D01*
X148925Y726156D01*
X148823Y726140D01*
X148806Y726130D01*
X148786Y726126D01*
X148697Y726073D01*
X148606Y726024D01*
X148592Y726010D01*
X148575Y726000D01*
X148508Y725921D01*
X148436Y725846D01*
X148428Y725828D01*
X148415Y725813D01*
X148376Y725717D01*
X148333Y725623D01*
X148331Y725603D01*
X148323Y725585D01*
X148305Y725418D01*
X148305Y720595D01*
X148319Y720505D01*
X148327Y720414D01*
X148339Y720385D01*
X148344Y720353D01*
X148387Y720272D01*
X148423Y720188D01*
X148449Y720156D01*
X148460Y720135D01*
X148483Y720113D01*
X148528Y720057D01*
X153385Y715200D01*
X153385Y715156D01*
X153399Y715066D01*
X153407Y714975D01*
X153419Y714945D01*
X153424Y714913D01*
X153467Y714833D01*
X153503Y714749D01*
X153529Y714717D01*
X153540Y714696D01*
X153563Y714674D01*
X153608Y714618D01*
X157382Y710844D01*
X157398Y710832D01*
X157410Y710817D01*
X157498Y710761D01*
X157581Y710700D01*
X157600Y710694D01*
X157617Y710684D01*
X157718Y710658D01*
X157817Y710628D01*
X157836Y710628D01*
X157856Y710624D01*
X157959Y710632D01*
X158062Y710634D01*
X158081Y710641D01*
X158101Y710643D01*
X158196Y710683D01*
X158293Y710719D01*
X158309Y710731D01*
X158327Y710739D01*
X158458Y710844D01*
X159252Y711638D01*
X159305Y711712D01*
X159365Y711781D01*
X159377Y711811D01*
X159396Y711838D01*
X159423Y711925D01*
X159457Y712009D01*
X159461Y712050D01*
X159468Y712073D01*
X159467Y712105D01*
X159475Y712176D01*
X159475Y712220D01*
X166432Y719177D01*
X166485Y719251D01*
X166545Y719320D01*
X166557Y719351D01*
X166576Y719377D01*
X166603Y719464D01*
X166637Y719549D01*
X166641Y719590D01*
X166648Y719612D01*
X166647Y719644D01*
X166655Y719715D01*
X166655Y725418D01*
X166652Y725438D01*
X166654Y725457D01*
X166632Y725559D01*
X166616Y725661D01*
X166606Y725678D01*
X166602Y725698D01*
X166549Y725787D01*
X166500Y725878D01*
X166486Y725892D01*
X166476Y725909D01*
X166397Y725976D01*
X166322Y726048D01*
X166304Y726056D01*
X166289Y726069D01*
X166193Y726108D01*
X166099Y726151D01*
X166079Y726153D01*
X166061Y726161D01*
X165894Y726179D01*
X163851Y726179D01*
X162679Y727351D01*
X162679Y739009D01*
X163851Y740181D01*
X176509Y740181D01*
X177681Y739009D01*
X177681Y727351D01*
X176509Y726179D01*
X174466Y726179D01*
X174446Y726176D01*
X174427Y726178D01*
X174325Y726156D01*
X174223Y726140D01*
X174206Y726130D01*
X174186Y726126D01*
X174097Y726073D01*
X174006Y726024D01*
X173992Y726010D01*
X173975Y726000D01*
X173908Y725921D01*
X173836Y725846D01*
X173828Y725828D01*
X173815Y725813D01*
X173776Y725717D01*
X173733Y725623D01*
X173731Y725603D01*
X173723Y725585D01*
X173705Y725418D01*
X173705Y716480D01*
X164460Y707235D01*
X164416Y707235D01*
X164326Y707221D01*
X164235Y707213D01*
X164205Y707201D01*
X164173Y707196D01*
X164093Y707153D01*
X164009Y707117D01*
X163977Y707091D01*
X163956Y707080D01*
X163934Y707057D01*
X163878Y707012D01*
X163314Y706448D01*
X163267Y706383D01*
X163256Y706371D01*
X163253Y706366D01*
X163201Y706305D01*
X163189Y706275D01*
X163170Y706248D01*
X163143Y706161D01*
X163109Y706077D01*
X163105Y706036D01*
X163098Y706013D01*
X163099Y705981D01*
X163091Y705910D01*
X163091Y703313D01*
X163102Y703243D01*
X163104Y703171D01*
X163122Y703122D01*
X163130Y703071D01*
X163164Y703007D01*
X163189Y702940D01*
X163221Y702899D01*
X163246Y702853D01*
X163298Y702804D01*
X163342Y702748D01*
X163386Y702720D01*
X163424Y702684D01*
X163489Y702654D01*
X163549Y702615D01*
X163600Y702602D01*
X163647Y702580D01*
X163718Y702572D01*
X163788Y702555D01*
X163840Y702559D01*
X163891Y702553D01*
X163962Y702568D01*
X164033Y702574D01*
X164081Y702594D01*
X164132Y702605D01*
X164193Y702642D01*
X164259Y702670D01*
X164315Y702715D01*
X164343Y702731D01*
X164358Y702749D01*
X164390Y702775D01*
X195388Y733773D01*
X195441Y733847D01*
X195501Y733916D01*
X195513Y733947D01*
X195532Y733973D01*
X195559Y734060D01*
X195593Y734145D01*
X195597Y734186D01*
X195604Y734208D01*
X195603Y734240D01*
X195611Y734311D01*
X195611Y736151D01*
X198569Y739109D01*
X230118Y739109D01*
X230138Y739112D01*
X230157Y739110D01*
X230259Y739132D01*
X230361Y739148D01*
X230378Y739158D01*
X230398Y739162D01*
X230487Y739215D01*
X230578Y739264D01*
X230592Y739278D01*
X230609Y739288D01*
X230676Y739367D01*
X230748Y739442D01*
X230756Y739460D01*
X230769Y739475D01*
X230808Y739571D01*
X230851Y739665D01*
X230853Y739685D01*
X230861Y739703D01*
X230879Y739870D01*
X230879Y740389D01*
X232051Y741561D01*
X243709Y741561D01*
X244881Y740389D01*
X244881Y727731D01*
X243709Y726559D01*
X232051Y726559D01*
X230879Y727731D01*
X230879Y728250D01*
X230876Y728270D01*
X230878Y728289D01*
X230856Y728391D01*
X230840Y728493D01*
X230830Y728510D01*
X230826Y728530D01*
X230773Y728619D01*
X230724Y728710D01*
X230710Y728724D01*
X230700Y728741D01*
X230621Y728808D01*
X230546Y728880D01*
X230528Y728888D01*
X230513Y728901D01*
X230417Y728940D01*
X230323Y728983D01*
X230303Y728985D01*
X230285Y728993D01*
X230118Y729011D01*
X200911Y729011D01*
X200821Y728997D01*
X200730Y728989D01*
X200701Y728977D01*
X200669Y728972D01*
X200588Y728929D01*
X200504Y728893D01*
X200472Y728867D01*
X200451Y728856D01*
X200429Y728833D01*
X200373Y728788D01*
X169100Y697515D01*
X169056Y697515D01*
X168966Y697501D01*
X168875Y697493D01*
X168845Y697481D01*
X168813Y697476D01*
X168733Y697433D01*
X168649Y697397D01*
X168617Y697371D01*
X168596Y697360D01*
X168574Y697337D01*
X168518Y697292D01*
X168314Y697088D01*
X168261Y697014D01*
X168201Y696945D01*
X168189Y696915D01*
X168170Y696888D01*
X168143Y696801D01*
X168109Y696717D01*
X168105Y696676D01*
X168098Y696653D01*
X168099Y696621D01*
X168091Y696550D01*
X168091Y690614D01*
X168105Y690524D01*
X168113Y690433D01*
X168125Y690403D01*
X168130Y690371D01*
X168173Y690291D01*
X168209Y690207D01*
X168235Y690175D01*
X168246Y690154D01*
X168269Y690132D01*
X168314Y690076D01*
X168321Y690069D01*
X168321Y672411D01*
X167149Y671239D01*
X127491Y671239D01*
X126319Y672411D01*
X126319Y690069D01*
X127491Y691241D01*
X130788Y691241D01*
X130808Y691244D01*
X130827Y691242D01*
X130929Y691264D01*
X131031Y691280D01*
X131048Y691290D01*
X131068Y691294D01*
X131157Y691347D01*
X131248Y691396D01*
X131262Y691410D01*
X131279Y691420D01*
X131346Y691499D01*
X131418Y691574D01*
X131426Y691592D01*
X131439Y691607D01*
X131478Y691703D01*
X131521Y691797D01*
X131523Y691817D01*
X131531Y691835D01*
X131549Y692002D01*
X131549Y693731D01*
X131535Y693821D01*
X131527Y693912D01*
X131515Y693941D01*
X131510Y693973D01*
X131467Y694054D01*
X131431Y694138D01*
X131405Y694170D01*
X131394Y694191D01*
X131371Y694213D01*
X131326Y694269D01*
X130843Y694752D01*
X130769Y694805D01*
X130700Y694865D01*
X130669Y694877D01*
X130643Y694896D01*
X130556Y694923D01*
X130471Y694957D01*
X130430Y694961D01*
X130408Y694968D01*
X130376Y694967D01*
X130305Y694975D01*
X113535Y694975D01*
X113445Y694961D01*
X113354Y694953D01*
X113325Y694941D01*
X113293Y694936D01*
X113212Y694893D01*
X113128Y694857D01*
X113096Y694831D01*
X113075Y694820D01*
X113053Y694797D01*
X112997Y694752D01*
X95188Y676943D01*
X95135Y676869D01*
X95075Y676800D01*
X95063Y676769D01*
X95044Y676743D01*
X95017Y676656D01*
X94983Y676571D01*
X94979Y676530D01*
X94972Y676508D01*
X94973Y676476D01*
X94965Y676405D01*
X94965Y656342D01*
X94968Y656322D01*
X94966Y656303D01*
X94988Y656201D01*
X95004Y656099D01*
X95014Y656082D01*
X95018Y656062D01*
X95071Y655973D01*
X95120Y655882D01*
X95134Y655868D01*
X95144Y655851D01*
X95223Y655784D01*
X95298Y655712D01*
X95316Y655704D01*
X95331Y655691D01*
X95427Y655652D01*
X95521Y655609D01*
X95541Y655607D01*
X95559Y655599D01*
X95726Y655581D01*
X97769Y655581D01*
X98941Y654409D01*
X98941Y642751D01*
X97769Y641579D01*
X85111Y641579D01*
X83939Y642751D01*
X83939Y654409D01*
X85111Y655581D01*
X87154Y655581D01*
X87174Y655584D01*
X87193Y655582D01*
X87295Y655604D01*
X87397Y655620D01*
X87414Y655630D01*
X87434Y655634D01*
X87523Y655687D01*
X87614Y655736D01*
X87628Y655750D01*
X87645Y655760D01*
X87712Y655839D01*
X87784Y655914D01*
X87792Y655932D01*
X87805Y655947D01*
X87844Y656043D01*
X87887Y656137D01*
X87889Y656157D01*
X87897Y656175D01*
X87915Y656342D01*
X87915Y679640D01*
X107031Y698756D01*
X107073Y698814D01*
X107122Y698866D01*
X107144Y698913D01*
X107175Y698955D01*
X107196Y699024D01*
X107226Y699089D01*
X107232Y699141D01*
X107247Y699191D01*
X107245Y699262D01*
X107253Y699333D01*
X107242Y699384D01*
X107241Y699436D01*
X107216Y699504D01*
X107201Y699574D01*
X107174Y699619D01*
X107156Y699667D01*
X107111Y699723D01*
X107075Y699785D01*
X107035Y699819D01*
X107002Y699859D01*
X106942Y699898D01*
X106888Y699945D01*
X106839Y699964D01*
X106795Y699992D01*
X106726Y700010D01*
X106659Y700037D01*
X106588Y700045D01*
X106557Y700053D01*
X106534Y700051D01*
X106493Y700055D01*
X105915Y700055D01*
X105825Y700041D01*
X105734Y700033D01*
X105705Y700021D01*
X105673Y700016D01*
X105592Y699973D01*
X105508Y699937D01*
X105476Y699911D01*
X105455Y699900D01*
X105433Y699877D01*
X105377Y699832D01*
X72328Y666783D01*
X72275Y666709D01*
X72215Y666640D01*
X72203Y666609D01*
X72184Y666583D01*
X72157Y666496D01*
X72123Y666411D01*
X72119Y666370D01*
X72112Y666348D01*
X72113Y666316D01*
X72105Y666245D01*
X72105Y656342D01*
X72108Y656322D01*
X72106Y656303D01*
X72128Y656201D01*
X72144Y656099D01*
X72154Y656082D01*
X72158Y656062D01*
X72211Y655973D01*
X72260Y655882D01*
X72274Y655868D01*
X72284Y655851D01*
X72363Y655784D01*
X72438Y655712D01*
X72456Y655704D01*
X72471Y655691D01*
X72567Y655652D01*
X72661Y655609D01*
X72681Y655607D01*
X72699Y655599D01*
X72866Y655581D01*
X74909Y655581D01*
X76081Y654409D01*
X76081Y642751D01*
X74909Y641579D01*
X62251Y641579D01*
X61079Y642751D01*
X61079Y654409D01*
X62251Y655581D01*
X64294Y655581D01*
X64314Y655584D01*
X64333Y655582D01*
X64435Y655604D01*
X64537Y655620D01*
X64554Y655630D01*
X64574Y655634D01*
X64663Y655687D01*
X64754Y655736D01*
X64768Y655750D01*
X64785Y655760D01*
X64852Y655839D01*
X64924Y655914D01*
X64932Y655932D01*
X64945Y655947D01*
X64984Y656043D01*
X65027Y656137D01*
X65029Y656157D01*
X65037Y656175D01*
X65055Y656342D01*
X65055Y669480D01*
X67343Y671768D01*
X99411Y703836D01*
X99453Y703894D01*
X99502Y703946D01*
X99524Y703993D01*
X99555Y704035D01*
X99576Y704104D01*
X99606Y704169D01*
X99612Y704221D01*
X99627Y704271D01*
X99625Y704342D01*
X99633Y704413D01*
X99622Y704464D01*
X99621Y704516D01*
X99596Y704584D01*
X99581Y704654D01*
X99554Y704699D01*
X99536Y704747D01*
X99491Y704803D01*
X99455Y704865D01*
X99415Y704899D01*
X99382Y704939D01*
X99322Y704978D01*
X99268Y705025D01*
X99219Y705044D01*
X99175Y705072D01*
X99106Y705090D01*
X99039Y705117D01*
X98968Y705125D01*
X98937Y705133D01*
X98914Y705131D01*
X98873Y705135D01*
X95755Y705135D01*
X95665Y705121D01*
X95574Y705113D01*
X95545Y705101D01*
X95513Y705096D01*
X95432Y705053D01*
X95348Y705017D01*
X95316Y704991D01*
X95295Y704980D01*
X95273Y704957D01*
X95217Y704912D01*
X49468Y659163D01*
X49415Y659089D01*
X49355Y659020D01*
X49343Y658989D01*
X49324Y658963D01*
X49297Y658876D01*
X49263Y658791D01*
X49259Y658750D01*
X49252Y658728D01*
X49253Y658696D01*
X49245Y658625D01*
X49245Y656342D01*
X49248Y656322D01*
X49246Y656303D01*
X49268Y656201D01*
X49284Y656099D01*
X49294Y656082D01*
X49298Y656062D01*
X49351Y655973D01*
X49400Y655882D01*
X49414Y655868D01*
X49424Y655851D01*
X49503Y655784D01*
X49578Y655712D01*
X49596Y655704D01*
X49611Y655691D01*
X49707Y655652D01*
X49801Y655609D01*
X49821Y655607D01*
X49839Y655599D01*
X50006Y655581D01*
X52049Y655581D01*
X53221Y654409D01*
X53221Y642751D01*
X52049Y641579D01*
X39391Y641579D01*
G37*
%LPD*%
%LPC*%
G36*
X229511Y205859D02*
X229511Y205859D01*
X228339Y207031D01*
X228339Y207550D01*
X228336Y207570D01*
X228338Y207589D01*
X228316Y207691D01*
X228300Y207793D01*
X228290Y207810D01*
X228286Y207830D01*
X228233Y207919D01*
X228184Y208010D01*
X228170Y208024D01*
X228160Y208041D01*
X228081Y208108D01*
X228006Y208180D01*
X227988Y208188D01*
X227973Y208201D01*
X227877Y208240D01*
X227783Y208283D01*
X227763Y208285D01*
X227745Y208293D01*
X227578Y208311D01*
X216349Y208311D01*
X186361Y238299D01*
X186361Y557303D01*
X186347Y557394D01*
X186339Y557484D01*
X186327Y557514D01*
X186322Y557546D01*
X186279Y557627D01*
X186243Y557711D01*
X186217Y557743D01*
X186206Y557764D01*
X186183Y557786D01*
X186138Y557842D01*
X157311Y586669D01*
X157311Y596488D01*
X157297Y596578D01*
X157289Y596669D01*
X157277Y596699D01*
X157272Y596731D01*
X157229Y596811D01*
X157193Y596895D01*
X157167Y596927D01*
X157156Y596948D01*
X157133Y596970D01*
X157088Y597026D01*
X156549Y597565D01*
X156549Y608478D01*
X156546Y608498D01*
X156548Y608517D01*
X156526Y608619D01*
X156510Y608721D01*
X156500Y608738D01*
X156496Y608758D01*
X156443Y608847D01*
X156394Y608938D01*
X156380Y608952D01*
X156370Y608969D01*
X156291Y609036D01*
X156216Y609108D01*
X156198Y609116D01*
X156183Y609129D01*
X156087Y609168D01*
X155993Y609211D01*
X155973Y609213D01*
X155955Y609221D01*
X155788Y609239D01*
X138852Y609239D01*
X138832Y609236D01*
X138813Y609238D01*
X138711Y609216D01*
X138609Y609200D01*
X138592Y609190D01*
X138572Y609186D01*
X138483Y609133D01*
X138392Y609084D01*
X138378Y609070D01*
X138361Y609060D01*
X138294Y608981D01*
X138222Y608906D01*
X138214Y608888D01*
X138201Y608873D01*
X138162Y608777D01*
X138119Y608683D01*
X138117Y608663D01*
X138109Y608645D01*
X138091Y608478D01*
X138091Y606549D01*
X138105Y606459D01*
X138113Y606368D01*
X138125Y606339D01*
X138130Y606307D01*
X138173Y606226D01*
X138209Y606142D01*
X138235Y606110D01*
X138246Y606089D01*
X138269Y606067D01*
X138314Y606011D01*
X138345Y605980D01*
X138345Y602122D01*
X138348Y602102D01*
X138346Y602083D01*
X138368Y601981D01*
X138384Y601879D01*
X138394Y601862D01*
X138398Y601842D01*
X138451Y601753D01*
X138500Y601662D01*
X138514Y601648D01*
X138524Y601631D01*
X138603Y601564D01*
X138678Y601492D01*
X138696Y601484D01*
X138711Y601471D01*
X138807Y601432D01*
X138901Y601389D01*
X138921Y601387D01*
X138939Y601379D01*
X139106Y601361D01*
X144369Y601361D01*
X145541Y600189D01*
X145541Y588531D01*
X144369Y587359D01*
X131711Y587359D01*
X130539Y588531D01*
X130539Y588687D01*
X130535Y588710D01*
X130538Y588734D01*
X130516Y588831D01*
X130500Y588929D01*
X130488Y588951D01*
X130483Y588974D01*
X130431Y589059D01*
X130384Y589147D01*
X130367Y589163D01*
X130354Y589184D01*
X130278Y589248D01*
X130206Y589316D01*
X130184Y589326D01*
X130166Y589342D01*
X130073Y589378D01*
X129983Y589420D01*
X129959Y589422D01*
X129937Y589431D01*
X129837Y589436D01*
X129739Y589447D01*
X129715Y589442D01*
X129691Y589443D01*
X129596Y589416D01*
X129498Y589395D01*
X129477Y589382D01*
X129454Y589376D01*
X129373Y589320D01*
X129287Y589268D01*
X129271Y589250D01*
X129252Y589236D01*
X129192Y589157D01*
X129127Y589082D01*
X129118Y589059D01*
X129104Y589040D01*
X129043Y588884D01*
X128908Y588379D01*
X128573Y587800D01*
X128100Y587327D01*
X127521Y586992D01*
X126874Y586819D01*
X122563Y586819D01*
X122563Y593598D01*
X122560Y593618D01*
X122562Y593637D01*
X122540Y593739D01*
X122523Y593841D01*
X122514Y593858D01*
X122510Y593878D01*
X122457Y593967D01*
X122408Y594058D01*
X122394Y594072D01*
X122384Y594089D01*
X122305Y594156D01*
X122230Y594227D01*
X122212Y594236D01*
X122197Y594249D01*
X122101Y594288D01*
X122007Y594331D01*
X121987Y594333D01*
X121969Y594341D01*
X121802Y594359D01*
X121039Y594359D01*
X121039Y594361D01*
X121802Y594361D01*
X121822Y594364D01*
X121841Y594362D01*
X121943Y594384D01*
X122045Y594401D01*
X122062Y594410D01*
X122082Y594414D01*
X122171Y594467D01*
X122262Y594516D01*
X122276Y594530D01*
X122293Y594540D01*
X122360Y594619D01*
X122431Y594694D01*
X122440Y594712D01*
X122453Y594727D01*
X122492Y594823D01*
X122535Y594917D01*
X122537Y594937D01*
X122545Y594955D01*
X122563Y595122D01*
X122563Y601901D01*
X126874Y601901D01*
X127521Y601728D01*
X128100Y601393D01*
X128573Y600920D01*
X128908Y600341D01*
X129043Y599836D01*
X129053Y599814D01*
X129057Y599791D01*
X129103Y599703D01*
X129144Y599612D01*
X129160Y599594D01*
X129172Y599573D01*
X129243Y599505D01*
X129311Y599432D01*
X129332Y599420D01*
X129350Y599404D01*
X129440Y599362D01*
X129527Y599315D01*
X129551Y599310D01*
X129573Y599300D01*
X129672Y599289D01*
X129770Y599272D01*
X129794Y599276D01*
X129817Y599273D01*
X129914Y599294D01*
X130013Y599309D01*
X130034Y599320D01*
X130058Y599325D01*
X130143Y599376D01*
X130232Y599422D01*
X130248Y599439D01*
X130269Y599452D01*
X130334Y599527D01*
X130403Y599598D01*
X130413Y599620D01*
X130429Y599638D01*
X130466Y599731D01*
X130509Y599820D01*
X130512Y599844D01*
X130521Y599867D01*
X130539Y600033D01*
X130539Y600189D01*
X131072Y600722D01*
X131125Y600796D01*
X131185Y600865D01*
X131197Y600895D01*
X131216Y600921D01*
X131243Y601008D01*
X131277Y601093D01*
X131281Y601134D01*
X131288Y601157D01*
X131287Y601189D01*
X131295Y601260D01*
X131295Y605980D01*
X131326Y606011D01*
X131379Y606085D01*
X131439Y606154D01*
X131451Y606185D01*
X131470Y606211D01*
X131497Y606298D01*
X131531Y606383D01*
X131535Y606424D01*
X131542Y606446D01*
X131541Y606478D01*
X131549Y606549D01*
X131549Y607938D01*
X131546Y607958D01*
X131548Y607977D01*
X131526Y608079D01*
X131510Y608181D01*
X131500Y608198D01*
X131496Y608218D01*
X131443Y608307D01*
X131394Y608398D01*
X131380Y608412D01*
X131370Y608429D01*
X131291Y608496D01*
X131216Y608568D01*
X131198Y608576D01*
X131183Y608589D01*
X131087Y608628D01*
X130993Y608671D01*
X130973Y608673D01*
X130955Y608681D01*
X130788Y608699D01*
X130581Y608699D01*
X130581Y619240D01*
X130581Y629781D01*
X131654Y629781D01*
X132301Y629608D01*
X132759Y629343D01*
X132866Y629302D01*
X132973Y629259D01*
X132983Y629258D01*
X132990Y629256D01*
X133012Y629255D01*
X133140Y629241D01*
X161500Y629241D01*
X161613Y629259D01*
X161727Y629275D01*
X161736Y629279D01*
X161743Y629280D01*
X161762Y629291D01*
X161881Y629343D01*
X162339Y629608D01*
X162986Y629781D01*
X164059Y629781D01*
X164059Y619240D01*
X164059Y608699D01*
X163852Y608699D01*
X163832Y608696D01*
X163813Y608698D01*
X163711Y608676D01*
X163609Y608660D01*
X163592Y608650D01*
X163572Y608646D01*
X163483Y608593D01*
X163392Y608544D01*
X163378Y608530D01*
X163361Y608520D01*
X163294Y608441D01*
X163222Y608366D01*
X163214Y608348D01*
X163201Y608333D01*
X163162Y608237D01*
X163119Y608143D01*
X163117Y608123D01*
X163109Y608105D01*
X163091Y607938D01*
X163091Y602190D01*
X163094Y602170D01*
X163092Y602151D01*
X163114Y602049D01*
X163130Y601947D01*
X163140Y601930D01*
X163144Y601910D01*
X163197Y601821D01*
X163246Y601730D01*
X163260Y601716D01*
X163270Y601699D01*
X163349Y601632D01*
X163424Y601560D01*
X163442Y601552D01*
X163457Y601539D01*
X163553Y601500D01*
X163647Y601457D01*
X163667Y601455D01*
X163685Y601447D01*
X163852Y601429D01*
X164451Y601429D01*
X167409Y598471D01*
X167409Y591167D01*
X167423Y591076D01*
X167431Y590986D01*
X167443Y590956D01*
X167448Y590924D01*
X167491Y590843D01*
X167527Y590759D01*
X167553Y590727D01*
X167564Y590706D01*
X167587Y590684D01*
X167632Y590628D01*
X196459Y561801D01*
X196459Y242797D01*
X196473Y242706D01*
X196481Y242616D01*
X196493Y242586D01*
X196498Y242554D01*
X196541Y242473D01*
X196577Y242389D01*
X196603Y242357D01*
X196614Y242336D01*
X196637Y242314D01*
X196682Y242258D01*
X220308Y218632D01*
X220382Y218579D01*
X220452Y218519D01*
X220482Y218507D01*
X220508Y218488D01*
X220595Y218461D01*
X220680Y218427D01*
X220721Y218423D01*
X220743Y218416D01*
X220775Y218417D01*
X220847Y218409D01*
X227578Y218409D01*
X227598Y218412D01*
X227617Y218410D01*
X227719Y218432D01*
X227821Y218448D01*
X227838Y218458D01*
X227858Y218462D01*
X227947Y218515D01*
X228038Y218564D01*
X228052Y218578D01*
X228069Y218588D01*
X228136Y218667D01*
X228208Y218742D01*
X228216Y218760D01*
X228229Y218775D01*
X228268Y218871D01*
X228311Y218965D01*
X228313Y218985D01*
X228321Y219003D01*
X228339Y219170D01*
X228339Y219689D01*
X229511Y220861D01*
X241169Y220861D01*
X242341Y219689D01*
X242341Y207031D01*
X241169Y205859D01*
X229511Y205859D01*
G37*
%LPD*%
%LPC*%
G36*
X138451Y743179D02*
X138451Y743179D01*
X137279Y744351D01*
X137279Y756009D01*
X138451Y757181D01*
X138970Y757181D01*
X138990Y757184D01*
X139009Y757182D01*
X139111Y757204D01*
X139213Y757220D01*
X139230Y757230D01*
X139250Y757234D01*
X139339Y757287D01*
X139430Y757336D01*
X139444Y757350D01*
X139461Y757360D01*
X139528Y757439D01*
X139600Y757514D01*
X139608Y757532D01*
X139621Y757547D01*
X139660Y757643D01*
X139703Y757737D01*
X139705Y757757D01*
X139713Y757775D01*
X139731Y757942D01*
X139731Y759659D01*
X139717Y759749D01*
X139709Y759840D01*
X139697Y759870D01*
X139692Y759902D01*
X139649Y759983D01*
X139613Y760067D01*
X139587Y760099D01*
X139576Y760119D01*
X139553Y760142D01*
X139508Y760198D01*
X107126Y792580D01*
X107052Y792633D01*
X106982Y792693D01*
X106952Y792705D01*
X106926Y792724D01*
X106839Y792751D01*
X106754Y792785D01*
X106713Y792789D01*
X106691Y792796D01*
X106659Y792795D01*
X106587Y792803D01*
X59950Y792803D01*
X59836Y792784D01*
X59720Y792767D01*
X59714Y792765D01*
X59708Y792764D01*
X59605Y792709D01*
X59500Y792656D01*
X59496Y792651D01*
X59490Y792648D01*
X59410Y792564D01*
X59328Y792480D01*
X59324Y792474D01*
X59321Y792470D01*
X59313Y792453D01*
X59247Y792333D01*
X58684Y790973D01*
X55308Y787597D01*
X50897Y785770D01*
X46123Y785770D01*
X41712Y787597D01*
X38336Y790973D01*
X36509Y795384D01*
X36509Y800158D01*
X38336Y804569D01*
X41712Y807945D01*
X46123Y809772D01*
X50897Y809772D01*
X55308Y807945D01*
X58684Y804569D01*
X59180Y803371D01*
X59242Y803271D01*
X59302Y803171D01*
X59306Y803167D01*
X59310Y803162D01*
X59400Y803087D01*
X59488Y803011D01*
X59494Y803009D01*
X59499Y803005D01*
X59608Y802963D01*
X59717Y802919D01*
X59724Y802918D01*
X59729Y802917D01*
X59747Y802916D01*
X59883Y802901D01*
X110352Y802901D01*
X110423Y802912D01*
X110495Y802914D01*
X110544Y802932D01*
X110595Y802940D01*
X110659Y802974D01*
X110726Y802999D01*
X110767Y803031D01*
X110813Y803056D01*
X110862Y803108D01*
X110918Y803152D01*
X110946Y803196D01*
X110982Y803234D01*
X111012Y803299D01*
X111051Y803359D01*
X111064Y803410D01*
X111086Y803457D01*
X111094Y803528D01*
X111111Y803598D01*
X111107Y803650D01*
X111113Y803701D01*
X111097Y803772D01*
X111092Y803843D01*
X111072Y803891D01*
X111060Y803942D01*
X111024Y804003D01*
X110996Y804069D01*
X110951Y804125D01*
X110934Y804153D01*
X110916Y804168D01*
X110891Y804200D01*
X93487Y821604D01*
X90307Y824784D01*
X90307Y842761D01*
X90304Y842781D01*
X90306Y842800D01*
X90284Y842902D01*
X90267Y843004D01*
X90258Y843021D01*
X90253Y843041D01*
X90200Y843130D01*
X90152Y843221D01*
X90138Y843235D01*
X90127Y843252D01*
X90049Y843319D01*
X89974Y843391D01*
X89956Y843399D01*
X89940Y843412D01*
X89844Y843451D01*
X89751Y843494D01*
X89731Y843496D01*
X89712Y843504D01*
X89546Y843522D01*
X59917Y843522D01*
X59802Y843503D01*
X59686Y843486D01*
X59680Y843484D01*
X59674Y843483D01*
X59572Y843428D01*
X59467Y843375D01*
X59462Y843370D01*
X59457Y843367D01*
X59377Y843283D01*
X59294Y843199D01*
X59291Y843193D01*
X59287Y843189D01*
X59280Y843172D01*
X59214Y843052D01*
X58684Y841773D01*
X55308Y838397D01*
X50897Y836570D01*
X46123Y836570D01*
X41712Y838397D01*
X38336Y841773D01*
X36509Y846184D01*
X36509Y850958D01*
X38336Y855369D01*
X41712Y858745D01*
X46123Y860572D01*
X50897Y860572D01*
X55308Y858745D01*
X58684Y855369D01*
X59214Y854090D01*
X59275Y853990D01*
X59335Y853890D01*
X59340Y853886D01*
X59343Y853881D01*
X59433Y853806D01*
X59522Y853730D01*
X59528Y853728D01*
X59533Y853724D01*
X59641Y853682D01*
X59750Y853638D01*
X59758Y853637D01*
X59762Y853636D01*
X59781Y853635D01*
X59917Y853620D01*
X108578Y853620D01*
X108598Y853623D01*
X108617Y853621D01*
X108719Y853643D01*
X108821Y853659D01*
X108838Y853669D01*
X108858Y853673D01*
X108947Y853726D01*
X109038Y853775D01*
X109052Y853789D01*
X109069Y853799D01*
X109136Y853878D01*
X109208Y853953D01*
X109216Y853971D01*
X109229Y853986D01*
X109268Y854082D01*
X109311Y854176D01*
X109313Y854196D01*
X109321Y854214D01*
X109339Y854381D01*
X109339Y855069D01*
X110511Y856241D01*
X123169Y856241D01*
X124341Y855069D01*
X124341Y843411D01*
X123169Y842239D01*
X110511Y842239D01*
X109451Y843299D01*
X109377Y843352D01*
X109308Y843412D01*
X109278Y843424D01*
X109252Y843443D01*
X109165Y843470D01*
X109080Y843504D01*
X109039Y843508D01*
X109016Y843515D01*
X108984Y843514D01*
X108913Y843522D01*
X101165Y843522D01*
X101146Y843519D01*
X101126Y843521D01*
X101025Y843499D01*
X100923Y843483D01*
X100905Y843473D01*
X100886Y843469D01*
X100797Y843416D01*
X100705Y843367D01*
X100692Y843353D01*
X100675Y843343D01*
X100607Y843264D01*
X100536Y843189D01*
X100528Y843171D01*
X100515Y843156D01*
X100476Y843060D01*
X100432Y842966D01*
X100430Y842946D01*
X100423Y842928D01*
X100404Y842761D01*
X100404Y829282D01*
X100419Y829192D01*
X100426Y829101D01*
X100439Y829071D01*
X100444Y829039D01*
X100487Y828959D01*
X100522Y828875D01*
X100548Y828843D01*
X100559Y828822D01*
X100582Y828800D01*
X100593Y828786D01*
X100600Y828775D01*
X100607Y828768D01*
X100627Y828744D01*
X171967Y757404D01*
X172041Y757351D01*
X172111Y757291D01*
X172141Y757279D01*
X172167Y757260D01*
X172254Y757233D01*
X172339Y757199D01*
X172380Y757195D01*
X172402Y757188D01*
X172434Y757189D01*
X172506Y757181D01*
X176509Y757181D01*
X177681Y756009D01*
X177681Y744351D01*
X176509Y743179D01*
X163851Y743179D01*
X162679Y744351D01*
X162679Y752096D01*
X162665Y752187D01*
X162657Y752277D01*
X162645Y752307D01*
X162640Y752339D01*
X162597Y752420D01*
X162561Y752504D01*
X162535Y752536D01*
X162524Y752557D01*
X162501Y752579D01*
X162456Y752635D01*
X151128Y763963D01*
X151070Y764005D01*
X151018Y764054D01*
X150971Y764076D01*
X150929Y764106D01*
X150860Y764127D01*
X150795Y764158D01*
X150743Y764163D01*
X150693Y764179D01*
X150622Y764177D01*
X150551Y764185D01*
X150500Y764174D01*
X150448Y764172D01*
X150380Y764148D01*
X150310Y764132D01*
X150265Y764106D01*
X150217Y764088D01*
X150161Y764043D01*
X150099Y764006D01*
X150065Y763967D01*
X150025Y763934D01*
X149986Y763874D01*
X149939Y763819D01*
X149920Y763771D01*
X149892Y763727D01*
X149874Y763658D01*
X149847Y763591D01*
X149839Y763520D01*
X149831Y763489D01*
X149833Y763465D01*
X149829Y763424D01*
X149829Y757942D01*
X149832Y757922D01*
X149830Y757903D01*
X149852Y757801D01*
X149868Y757699D01*
X149878Y757682D01*
X149882Y757662D01*
X149935Y757573D01*
X149984Y757482D01*
X149998Y757468D01*
X150008Y757451D01*
X150087Y757384D01*
X150162Y757312D01*
X150180Y757304D01*
X150195Y757291D01*
X150291Y757252D01*
X150385Y757209D01*
X150405Y757207D01*
X150423Y757199D01*
X150590Y757181D01*
X151109Y757181D01*
X152281Y756009D01*
X152281Y744351D01*
X151109Y743179D01*
X138451Y743179D01*
G37*
%LPD*%
%LPC*%
G36*
X296561Y282289D02*
X296561Y282289D01*
X293422Y283590D01*
X291020Y285992D01*
X290145Y288103D01*
X290111Y288159D01*
X290085Y288219D01*
X290033Y288284D01*
X290016Y288312D01*
X290001Y288324D01*
X289980Y288350D01*
X229511Y348819D01*
X229511Y616578D01*
X229508Y616598D01*
X229510Y616617D01*
X229488Y616719D01*
X229472Y616821D01*
X229462Y616838D01*
X229458Y616858D01*
X229405Y616947D01*
X229356Y617038D01*
X229342Y617052D01*
X229332Y617069D01*
X229253Y617136D01*
X229178Y617208D01*
X229160Y617216D01*
X229145Y617229D01*
X229049Y617268D01*
X228955Y617311D01*
X228935Y617313D01*
X228917Y617321D01*
X228750Y617339D01*
X228731Y617339D01*
X227559Y618511D01*
X227559Y631169D01*
X228731Y632341D01*
X240389Y632341D01*
X241561Y631169D01*
X241561Y618511D01*
X240389Y617339D01*
X240370Y617339D01*
X240350Y617336D01*
X240331Y617338D01*
X240229Y617316D01*
X240127Y617300D01*
X240110Y617290D01*
X240090Y617286D01*
X240001Y617233D01*
X239910Y617184D01*
X239896Y617170D01*
X239879Y617160D01*
X239812Y617081D01*
X239740Y617006D01*
X239732Y616988D01*
X239719Y616973D01*
X239680Y616877D01*
X239637Y616783D01*
X239635Y616763D01*
X239627Y616745D01*
X239609Y616578D01*
X239609Y353317D01*
X239623Y353226D01*
X239631Y353136D01*
X239643Y353106D01*
X239648Y353074D01*
X239691Y352993D01*
X239727Y352909D01*
X239753Y352877D01*
X239764Y352856D01*
X239787Y352834D01*
X239832Y352778D01*
X293853Y298757D01*
X293947Y298690D01*
X294041Y298620D01*
X294047Y298618D01*
X294052Y298614D01*
X294163Y298580D01*
X294275Y298543D01*
X294281Y298543D01*
X294287Y298542D01*
X294404Y298545D01*
X294521Y298546D01*
X294528Y298548D01*
X294533Y298548D01*
X294551Y298554D01*
X294682Y298592D01*
X296561Y299371D01*
X313039Y299371D01*
X316178Y298070D01*
X318580Y295668D01*
X319881Y292529D01*
X319881Y289131D01*
X318580Y285992D01*
X316178Y283590D01*
X313039Y282289D01*
X296561Y282289D01*
G37*
%LPD*%
%LPC*%
G36*
X194430Y740977D02*
X194430Y740977D01*
X192304Y741858D01*
X190678Y743484D01*
X189797Y745610D01*
X189797Y747910D01*
X190473Y749542D01*
X190488Y749606D01*
X190513Y749667D01*
X190522Y749750D01*
X190529Y749782D01*
X190528Y749801D01*
X190531Y749834D01*
X190531Y756471D01*
X241108Y807048D01*
X241161Y807122D01*
X241221Y807192D01*
X241233Y807222D01*
X241252Y807248D01*
X241279Y807335D01*
X241313Y807420D01*
X241317Y807461D01*
X241324Y807483D01*
X241323Y807515D01*
X241331Y807587D01*
X241331Y826430D01*
X241328Y826450D01*
X241330Y826469D01*
X241308Y826571D01*
X241292Y826673D01*
X241282Y826690D01*
X241278Y826710D01*
X241225Y826799D01*
X241176Y826890D01*
X241162Y826904D01*
X241152Y826921D01*
X241073Y826988D01*
X240998Y827060D01*
X240980Y827068D01*
X240965Y827081D01*
X240869Y827120D01*
X240775Y827163D01*
X240755Y827165D01*
X240737Y827173D01*
X240570Y827191D01*
X205882Y827191D01*
X205862Y827188D01*
X205843Y827190D01*
X205741Y827168D01*
X205639Y827152D01*
X205622Y827142D01*
X205602Y827138D01*
X205513Y827085D01*
X205422Y827036D01*
X205408Y827022D01*
X205391Y827012D01*
X205324Y826933D01*
X205252Y826858D01*
X205244Y826840D01*
X205231Y826825D01*
X205192Y826729D01*
X205149Y826635D01*
X205147Y826615D01*
X205139Y826597D01*
X205121Y826430D01*
X205121Y825911D01*
X203949Y824739D01*
X192291Y824739D01*
X191119Y825911D01*
X191119Y826430D01*
X191116Y826450D01*
X191118Y826469D01*
X191096Y826571D01*
X191080Y826673D01*
X191070Y826690D01*
X191066Y826710D01*
X191013Y826799D01*
X190964Y826890D01*
X190950Y826904D01*
X190940Y826921D01*
X190861Y826988D01*
X190786Y827060D01*
X190768Y827068D01*
X190753Y827081D01*
X190657Y827120D01*
X190563Y827163D01*
X190543Y827165D01*
X190525Y827173D01*
X190358Y827191D01*
X165242Y827191D01*
X165222Y827188D01*
X165203Y827190D01*
X165101Y827168D01*
X164999Y827152D01*
X164982Y827142D01*
X164962Y827138D01*
X164873Y827085D01*
X164782Y827036D01*
X164768Y827022D01*
X164751Y827012D01*
X164684Y826933D01*
X164612Y826858D01*
X164604Y826840D01*
X164591Y826825D01*
X164552Y826729D01*
X164509Y826635D01*
X164507Y826615D01*
X164499Y826597D01*
X164481Y826430D01*
X164481Y825911D01*
X163309Y824739D01*
X151651Y824739D01*
X150479Y825911D01*
X150479Y826430D01*
X150476Y826450D01*
X150478Y826469D01*
X150456Y826571D01*
X150440Y826673D01*
X150430Y826690D01*
X150426Y826710D01*
X150373Y826799D01*
X150324Y826890D01*
X150310Y826904D01*
X150300Y826921D01*
X150221Y826988D01*
X150146Y827060D01*
X150128Y827068D01*
X150113Y827081D01*
X150017Y827120D01*
X149923Y827163D01*
X149903Y827165D01*
X149885Y827173D01*
X149718Y827191D01*
X125102Y827191D01*
X125082Y827188D01*
X125063Y827190D01*
X124961Y827168D01*
X124859Y827152D01*
X124842Y827142D01*
X124822Y827138D01*
X124733Y827085D01*
X124642Y827036D01*
X124628Y827022D01*
X124611Y827012D01*
X124544Y826933D01*
X124472Y826858D01*
X124464Y826840D01*
X124451Y826825D01*
X124412Y826729D01*
X124369Y826635D01*
X124367Y826615D01*
X124359Y826597D01*
X124341Y826430D01*
X124341Y826411D01*
X123169Y825239D01*
X110511Y825239D01*
X109339Y826411D01*
X109339Y838069D01*
X110511Y839241D01*
X123169Y839241D01*
X124341Y838069D01*
X124341Y838050D01*
X124344Y838030D01*
X124342Y838011D01*
X124364Y837909D01*
X124380Y837807D01*
X124390Y837790D01*
X124394Y837770D01*
X124447Y837681D01*
X124496Y837590D01*
X124510Y837576D01*
X124520Y837559D01*
X124599Y837492D01*
X124674Y837420D01*
X124692Y837412D01*
X124707Y837399D01*
X124803Y837360D01*
X124897Y837317D01*
X124917Y837315D01*
X124935Y837307D01*
X125102Y837289D01*
X149718Y837289D01*
X149738Y837292D01*
X149757Y837290D01*
X149859Y837312D01*
X149961Y837328D01*
X149978Y837338D01*
X149998Y837342D01*
X150087Y837395D01*
X150178Y837444D01*
X150192Y837458D01*
X150209Y837468D01*
X150276Y837547D01*
X150348Y837622D01*
X150356Y837640D01*
X150369Y837655D01*
X150408Y837751D01*
X150451Y837845D01*
X150453Y837865D01*
X150461Y837883D01*
X150479Y838050D01*
X150479Y838569D01*
X151651Y839741D01*
X151807Y839741D01*
X151830Y839745D01*
X151854Y839742D01*
X151951Y839764D01*
X152049Y839780D01*
X152071Y839792D01*
X152094Y839797D01*
X152179Y839849D01*
X152267Y839896D01*
X152283Y839913D01*
X152304Y839926D01*
X152368Y840002D01*
X152436Y840074D01*
X152446Y840096D01*
X152462Y840114D01*
X152498Y840207D01*
X152540Y840297D01*
X152542Y840321D01*
X152551Y840343D01*
X152556Y840443D01*
X152567Y840541D01*
X152562Y840565D01*
X152563Y840589D01*
X152536Y840684D01*
X152515Y840782D01*
X152502Y840802D01*
X152496Y840826D01*
X152439Y840908D01*
X152388Y840993D01*
X152370Y841009D01*
X152356Y841028D01*
X152277Y841088D01*
X152201Y841153D01*
X152179Y841162D01*
X152160Y841176D01*
X152004Y841237D01*
X151499Y841372D01*
X150920Y841707D01*
X150447Y842180D01*
X150112Y842759D01*
X149939Y843406D01*
X149939Y847717D01*
X156718Y847717D01*
X156738Y847720D01*
X156757Y847718D01*
X156859Y847740D01*
X156961Y847757D01*
X156978Y847766D01*
X156998Y847770D01*
X157087Y847823D01*
X157178Y847872D01*
X157192Y847886D01*
X157209Y847896D01*
X157276Y847975D01*
X157347Y848050D01*
X157356Y848068D01*
X157369Y848083D01*
X157408Y848179D01*
X157451Y848273D01*
X157453Y848293D01*
X157461Y848311D01*
X157479Y848478D01*
X157479Y849241D01*
X157481Y849241D01*
X157481Y848478D01*
X157484Y848458D01*
X157482Y848439D01*
X157504Y848337D01*
X157521Y848235D01*
X157530Y848218D01*
X157534Y848198D01*
X157587Y848109D01*
X157636Y848018D01*
X157650Y848004D01*
X157660Y847987D01*
X157739Y847920D01*
X157814Y847849D01*
X157832Y847840D01*
X157847Y847827D01*
X157943Y847788D01*
X158037Y847745D01*
X158057Y847743D01*
X158075Y847735D01*
X158242Y847717D01*
X165021Y847717D01*
X165021Y843406D01*
X164848Y842759D01*
X164513Y842180D01*
X164040Y841707D01*
X163461Y841372D01*
X162956Y841237D01*
X162934Y841227D01*
X162911Y841223D01*
X162823Y841177D01*
X162732Y841136D01*
X162715Y841120D01*
X162693Y841108D01*
X162625Y841036D01*
X162552Y840969D01*
X162541Y840948D01*
X162524Y840930D01*
X162482Y840840D01*
X162435Y840753D01*
X162430Y840729D01*
X162420Y840707D01*
X162409Y840608D01*
X162392Y840510D01*
X162396Y840486D01*
X162393Y840463D01*
X162414Y840366D01*
X162429Y840267D01*
X162440Y840246D01*
X162445Y840222D01*
X162497Y840137D01*
X162542Y840048D01*
X162559Y840032D01*
X162572Y840011D01*
X162647Y839946D01*
X162718Y839877D01*
X162740Y839867D01*
X162759Y839851D01*
X162851Y839814D01*
X162940Y839771D01*
X162964Y839768D01*
X162987Y839759D01*
X163153Y839741D01*
X163309Y839741D01*
X164481Y838569D01*
X164481Y838050D01*
X164484Y838030D01*
X164482Y838011D01*
X164504Y837909D01*
X164520Y837807D01*
X164530Y837790D01*
X164534Y837770D01*
X164587Y837681D01*
X164636Y837590D01*
X164650Y837576D01*
X164660Y837559D01*
X164739Y837492D01*
X164814Y837420D01*
X164832Y837412D01*
X164847Y837399D01*
X164943Y837360D01*
X165037Y837317D01*
X165057Y837315D01*
X165075Y837307D01*
X165242Y837289D01*
X190358Y837289D01*
X190378Y837292D01*
X190397Y837290D01*
X190499Y837312D01*
X190601Y837328D01*
X190618Y837338D01*
X190638Y837342D01*
X190727Y837395D01*
X190818Y837444D01*
X190832Y837458D01*
X190849Y837468D01*
X190916Y837547D01*
X190988Y837622D01*
X190996Y837640D01*
X191009Y837655D01*
X191048Y837751D01*
X191091Y837845D01*
X191093Y837865D01*
X191101Y837883D01*
X191119Y838050D01*
X191119Y838569D01*
X192291Y839741D01*
X192447Y839741D01*
X192470Y839745D01*
X192494Y839742D01*
X192591Y839764D01*
X192689Y839780D01*
X192711Y839792D01*
X192734Y839797D01*
X192819Y839849D01*
X192907Y839896D01*
X192923Y839913D01*
X192944Y839926D01*
X193008Y840002D01*
X193076Y840074D01*
X193086Y840096D01*
X193102Y840114D01*
X193138Y840207D01*
X193180Y840297D01*
X193182Y840321D01*
X193191Y840343D01*
X193196Y840443D01*
X193207Y840541D01*
X193202Y840565D01*
X193203Y840589D01*
X193176Y840684D01*
X193155Y840782D01*
X193142Y840803D01*
X193136Y840826D01*
X193080Y840907D01*
X193028Y840993D01*
X193010Y841009D01*
X192996Y841028D01*
X192917Y841088D01*
X192842Y841153D01*
X192819Y841162D01*
X192800Y841176D01*
X192644Y841237D01*
X192139Y841372D01*
X191560Y841707D01*
X191087Y842180D01*
X190752Y842759D01*
X190579Y843406D01*
X190579Y847717D01*
X197358Y847717D01*
X197378Y847720D01*
X197397Y847718D01*
X197499Y847740D01*
X197601Y847757D01*
X197618Y847766D01*
X197638Y847770D01*
X197727Y847823D01*
X197818Y847872D01*
X197832Y847886D01*
X197849Y847896D01*
X197916Y847975D01*
X197987Y848050D01*
X197996Y848068D01*
X198009Y848083D01*
X198048Y848179D01*
X198091Y848273D01*
X198093Y848293D01*
X198101Y848311D01*
X198119Y848478D01*
X198119Y849241D01*
X198121Y849241D01*
X198121Y848478D01*
X198124Y848458D01*
X198122Y848439D01*
X198144Y848337D01*
X198161Y848235D01*
X198170Y848218D01*
X198174Y848198D01*
X198227Y848109D01*
X198276Y848018D01*
X198290Y848004D01*
X198300Y847987D01*
X198379Y847920D01*
X198454Y847849D01*
X198472Y847840D01*
X198487Y847827D01*
X198583Y847788D01*
X198677Y847745D01*
X198697Y847743D01*
X198715Y847735D01*
X198882Y847717D01*
X205661Y847717D01*
X205661Y843406D01*
X205488Y842759D01*
X205153Y842180D01*
X204680Y841707D01*
X204101Y841372D01*
X203596Y841237D01*
X203574Y841227D01*
X203551Y841223D01*
X203463Y841177D01*
X203372Y841136D01*
X203354Y841120D01*
X203333Y841108D01*
X203265Y841037D01*
X203192Y840969D01*
X203180Y840948D01*
X203164Y840930D01*
X203122Y840840D01*
X203075Y840753D01*
X203070Y840729D01*
X203060Y840707D01*
X203049Y840608D01*
X203032Y840510D01*
X203036Y840486D01*
X203033Y840463D01*
X203054Y840366D01*
X203069Y840267D01*
X203080Y840246D01*
X203085Y840222D01*
X203136Y840137D01*
X203182Y840048D01*
X203199Y840032D01*
X203212Y840011D01*
X203287Y839946D01*
X203358Y839877D01*
X203380Y839867D01*
X203398Y839851D01*
X203491Y839814D01*
X203580Y839771D01*
X203604Y839768D01*
X203627Y839759D01*
X203793Y839741D01*
X203949Y839741D01*
X205121Y838569D01*
X205121Y838050D01*
X205124Y838030D01*
X205122Y838011D01*
X205144Y837909D01*
X205160Y837807D01*
X205170Y837790D01*
X205174Y837770D01*
X205227Y837681D01*
X205276Y837590D01*
X205290Y837576D01*
X205300Y837559D01*
X205379Y837492D01*
X205454Y837420D01*
X205472Y837412D01*
X205487Y837399D01*
X205583Y837360D01*
X205677Y837317D01*
X205697Y837315D01*
X205715Y837307D01*
X205882Y837289D01*
X243973Y837289D01*
X244064Y837303D01*
X244154Y837311D01*
X244184Y837323D01*
X244216Y837328D01*
X244297Y837371D01*
X244381Y837407D01*
X244413Y837433D01*
X244434Y837444D01*
X244456Y837467D01*
X244512Y837512D01*
X253669Y846669D01*
X266558Y846669D01*
X266578Y846672D01*
X266597Y846670D01*
X266699Y846692D01*
X266801Y846708D01*
X266818Y846718D01*
X266838Y846722D01*
X266927Y846775D01*
X267018Y846824D01*
X267032Y846838D01*
X267049Y846848D01*
X267116Y846927D01*
X267188Y847002D01*
X267196Y847020D01*
X267209Y847035D01*
X267248Y847131D01*
X267291Y847225D01*
X267293Y847245D01*
X267301Y847263D01*
X267319Y847430D01*
X267319Y847949D01*
X268491Y849121D01*
X274365Y849121D01*
X274456Y849135D01*
X274546Y849143D01*
X274576Y849155D01*
X274608Y849160D01*
X274689Y849203D01*
X274773Y849239D01*
X274805Y849265D01*
X274826Y849276D01*
X274848Y849299D01*
X274904Y849344D01*
X280239Y854679D01*
X290915Y854679D01*
X291005Y854693D01*
X291096Y854701D01*
X291126Y854713D01*
X291158Y854718D01*
X291238Y854761D01*
X291322Y854797D01*
X291354Y854823D01*
X291375Y854834D01*
X291397Y854857D01*
X291453Y854902D01*
X293422Y856870D01*
X296561Y858171D01*
X313039Y858171D01*
X316178Y856870D01*
X318580Y854468D01*
X319881Y851329D01*
X319881Y847931D01*
X318580Y844792D01*
X316178Y842390D01*
X313039Y841089D01*
X296561Y841089D01*
X293422Y842390D01*
X291453Y844358D01*
X291379Y844411D01*
X291310Y844471D01*
X291280Y844483D01*
X291253Y844502D01*
X291167Y844529D01*
X291082Y844563D01*
X291041Y844567D01*
X291018Y844574D01*
X290986Y844573D01*
X290915Y844581D01*
X284737Y844581D01*
X284646Y844567D01*
X284556Y844559D01*
X284526Y844547D01*
X284494Y844542D01*
X284413Y844499D01*
X284329Y844463D01*
X284297Y844437D01*
X284276Y844426D01*
X284254Y844403D01*
X284198Y844358D01*
X281544Y841704D01*
X281491Y841630D01*
X281431Y841560D01*
X281419Y841530D01*
X281400Y841504D01*
X281373Y841417D01*
X281339Y841332D01*
X281335Y841291D01*
X281328Y841269D01*
X281329Y841237D01*
X281321Y841165D01*
X281321Y835291D01*
X280149Y834119D01*
X279993Y834119D01*
X279970Y834115D01*
X279946Y834118D01*
X279849Y834096D01*
X279751Y834080D01*
X279729Y834068D01*
X279706Y834063D01*
X279621Y834011D01*
X279533Y833964D01*
X279517Y833947D01*
X279496Y833934D01*
X279432Y833858D01*
X279364Y833786D01*
X279354Y833764D01*
X279338Y833746D01*
X279302Y833653D01*
X279260Y833563D01*
X279258Y833539D01*
X279249Y833517D01*
X279244Y833417D01*
X279233Y833319D01*
X279238Y833295D01*
X279237Y833271D01*
X279264Y833175D01*
X279285Y833078D01*
X279298Y833057D01*
X279304Y833034D01*
X279361Y832952D01*
X279412Y832867D01*
X279430Y832851D01*
X279443Y832832D01*
X279523Y832772D01*
X279598Y832707D01*
X279621Y832698D01*
X279640Y832684D01*
X279796Y832623D01*
X280301Y832488D01*
X280880Y832153D01*
X281353Y831680D01*
X281688Y831101D01*
X281861Y830454D01*
X281861Y826143D01*
X275082Y826143D01*
X275062Y826140D01*
X275043Y826142D01*
X274941Y826120D01*
X274839Y826103D01*
X274822Y826094D01*
X274802Y826090D01*
X274713Y826037D01*
X274622Y825988D01*
X274608Y825974D01*
X274591Y825964D01*
X274524Y825885D01*
X274453Y825810D01*
X274444Y825792D01*
X274431Y825777D01*
X274392Y825681D01*
X274349Y825587D01*
X274347Y825567D01*
X274339Y825549D01*
X274321Y825382D01*
X274321Y824619D01*
X274319Y824619D01*
X274319Y825382D01*
X274316Y825402D01*
X274318Y825421D01*
X274296Y825523D01*
X274279Y825625D01*
X274270Y825642D01*
X274266Y825662D01*
X274213Y825751D01*
X274164Y825842D01*
X274150Y825856D01*
X274140Y825873D01*
X274061Y825940D01*
X273986Y826011D01*
X273968Y826020D01*
X273953Y826033D01*
X273857Y826072D01*
X273763Y826115D01*
X273743Y826117D01*
X273725Y826125D01*
X273558Y826143D01*
X266779Y826143D01*
X266779Y830454D01*
X266952Y831101D01*
X267287Y831680D01*
X267760Y832153D01*
X268339Y832488D01*
X268844Y832623D01*
X268866Y832633D01*
X268889Y832637D01*
X268977Y832683D01*
X269068Y832724D01*
X269086Y832740D01*
X269107Y832752D01*
X269175Y832823D01*
X269248Y832891D01*
X269260Y832912D01*
X269276Y832930D01*
X269318Y833020D01*
X269365Y833107D01*
X269370Y833131D01*
X269380Y833153D01*
X269391Y833252D01*
X269408Y833350D01*
X269404Y833374D01*
X269407Y833397D01*
X269386Y833494D01*
X269371Y833593D01*
X269360Y833614D01*
X269355Y833638D01*
X269304Y833723D01*
X269258Y833812D01*
X269241Y833828D01*
X269228Y833849D01*
X269153Y833914D01*
X269082Y833983D01*
X269060Y833993D01*
X269042Y834009D01*
X268949Y834046D01*
X268860Y834089D01*
X268836Y834092D01*
X268813Y834101D01*
X268647Y834119D01*
X268491Y834119D01*
X267319Y835291D01*
X267319Y835810D01*
X267316Y835830D01*
X267318Y835849D01*
X267296Y835951D01*
X267280Y836053D01*
X267270Y836070D01*
X267266Y836090D01*
X267213Y836179D01*
X267164Y836270D01*
X267150Y836284D01*
X267140Y836301D01*
X267061Y836368D01*
X266986Y836440D01*
X266968Y836448D01*
X266953Y836461D01*
X266857Y836500D01*
X266763Y836543D01*
X266743Y836545D01*
X266725Y836553D01*
X266558Y836571D01*
X258167Y836571D01*
X258076Y836557D01*
X257986Y836549D01*
X257956Y836537D01*
X257924Y836532D01*
X257843Y836489D01*
X257759Y836453D01*
X257727Y836427D01*
X257706Y836416D01*
X257684Y836393D01*
X257628Y836348D01*
X251652Y830372D01*
X251599Y830298D01*
X251539Y830228D01*
X251527Y830198D01*
X251508Y830172D01*
X251481Y830085D01*
X251447Y830000D01*
X251443Y829959D01*
X251436Y829937D01*
X251437Y829905D01*
X251429Y829833D01*
X251429Y803089D01*
X200852Y752512D01*
X200799Y752438D01*
X200739Y752368D01*
X200727Y752338D01*
X200708Y752312D01*
X200681Y752225D01*
X200647Y752140D01*
X200643Y752099D01*
X200636Y752077D01*
X200637Y752045D01*
X200629Y751973D01*
X200629Y749834D01*
X200639Y749769D01*
X200640Y749704D01*
X200663Y749623D01*
X200668Y749591D01*
X200678Y749574D01*
X200687Y749542D01*
X201363Y747910D01*
X201363Y745610D01*
X200482Y743484D01*
X198856Y741858D01*
X196730Y740977D01*
X194430Y740977D01*
G37*
%LPD*%
%LPC*%
G36*
X84042Y298227D02*
X84042Y298227D01*
X79759Y300001D01*
X76481Y303279D01*
X74707Y307562D01*
X74707Y312198D01*
X76173Y315737D01*
X76188Y315801D01*
X76213Y315862D01*
X76222Y315945D01*
X76229Y315977D01*
X76228Y315996D01*
X76231Y316029D01*
X76231Y484895D01*
X79412Y488076D01*
X101306Y509970D01*
X101359Y510044D01*
X101419Y510114D01*
X101431Y510144D01*
X101450Y510170D01*
X101477Y510257D01*
X101511Y510342D01*
X101515Y510383D01*
X101522Y510405D01*
X101521Y510437D01*
X101529Y510509D01*
X101529Y519920D01*
X101514Y520010D01*
X101507Y520101D01*
X101495Y520130D01*
X101489Y520162D01*
X101447Y520243D01*
X101411Y520327D01*
X101385Y520359D01*
X101374Y520380D01*
X101351Y520402D01*
X101306Y520458D01*
X83851Y537913D01*
X83851Y579049D01*
X83837Y579139D01*
X83829Y579230D01*
X83817Y579260D01*
X83812Y579292D01*
X83769Y579373D01*
X83733Y579457D01*
X83707Y579489D01*
X83696Y579509D01*
X83673Y579532D01*
X83628Y579588D01*
X64547Y598669D01*
X64547Y623818D01*
X64544Y623838D01*
X64546Y623857D01*
X64524Y623959D01*
X64508Y624061D01*
X64498Y624078D01*
X64494Y624098D01*
X64441Y624187D01*
X64392Y624278D01*
X64378Y624292D01*
X64368Y624309D01*
X64289Y624376D01*
X64214Y624448D01*
X64196Y624456D01*
X64181Y624469D01*
X64085Y624508D01*
X63991Y624551D01*
X63971Y624553D01*
X63953Y624561D01*
X63786Y624579D01*
X62251Y624579D01*
X61079Y625751D01*
X61079Y637409D01*
X62251Y638581D01*
X74909Y638581D01*
X76081Y637409D01*
X76081Y625751D01*
X74868Y624538D01*
X74815Y624464D01*
X74755Y624395D01*
X74743Y624365D01*
X74724Y624338D01*
X74697Y624252D01*
X74663Y624167D01*
X74659Y624126D01*
X74652Y624103D01*
X74653Y624071D01*
X74645Y624000D01*
X74645Y603166D01*
X74647Y603150D01*
X74646Y603135D01*
X74660Y603069D01*
X74667Y602985D01*
X74679Y602956D01*
X74684Y602924D01*
X74697Y602900D01*
X74698Y602895D01*
X74714Y602868D01*
X74727Y602843D01*
X74763Y602759D01*
X74789Y602727D01*
X74800Y602706D01*
X74823Y602684D01*
X74868Y602628D01*
X93949Y583547D01*
X93949Y542411D01*
X93963Y542320D01*
X93971Y542230D01*
X93983Y542200D01*
X93988Y542168D01*
X94031Y542087D01*
X94067Y542003D01*
X94093Y541971D01*
X94104Y541950D01*
X94127Y541928D01*
X94172Y541872D01*
X111627Y524417D01*
X111627Y506011D01*
X108446Y502830D01*
X86552Y480936D01*
X86499Y480862D01*
X86439Y480793D01*
X86427Y480762D01*
X86408Y480736D01*
X86381Y480649D01*
X86347Y480564D01*
X86343Y480523D01*
X86336Y480501D01*
X86337Y480469D01*
X86329Y480398D01*
X86329Y322294D01*
X86332Y322274D01*
X86330Y322255D01*
X86352Y322153D01*
X86368Y322051D01*
X86378Y322034D01*
X86382Y322014D01*
X86435Y321925D01*
X86484Y321834D01*
X86498Y321820D01*
X86508Y321803D01*
X86587Y321736D01*
X86662Y321664D01*
X86680Y321656D01*
X86695Y321643D01*
X86791Y321604D01*
X86885Y321561D01*
X86905Y321559D01*
X86923Y321551D01*
X87090Y321533D01*
X88678Y321533D01*
X92961Y319759D01*
X96239Y316481D01*
X98013Y312198D01*
X98013Y307562D01*
X96239Y303279D01*
X92961Y300001D01*
X88678Y298227D01*
X84042Y298227D01*
G37*
%LPD*%
%LPC*%
G36*
X296561Y333089D02*
X296561Y333089D01*
X293422Y334390D01*
X291453Y336358D01*
X291379Y336411D01*
X291310Y336471D01*
X291280Y336483D01*
X291253Y336502D01*
X291167Y336529D01*
X291082Y336563D01*
X291041Y336567D01*
X291018Y336574D01*
X290986Y336573D01*
X290915Y336581D01*
X284929Y336581D01*
X266731Y354779D01*
X266731Y637673D01*
X266717Y637764D01*
X266709Y637854D01*
X266697Y637884D01*
X266692Y637916D01*
X266649Y637997D01*
X266613Y638081D01*
X266587Y638113D01*
X266576Y638134D01*
X266553Y638156D01*
X266508Y638212D01*
X260613Y644107D01*
X260597Y644119D01*
X260584Y644134D01*
X260497Y644190D01*
X260413Y644251D01*
X260394Y644256D01*
X260377Y644267D01*
X260277Y644292D01*
X260178Y644323D01*
X260158Y644322D01*
X260139Y644327D01*
X260036Y644319D01*
X259932Y644317D01*
X259914Y644310D01*
X259894Y644308D01*
X259799Y644268D01*
X259701Y644232D01*
X259686Y644220D01*
X259667Y644212D01*
X259536Y644107D01*
X258169Y642739D01*
X246511Y642739D01*
X245339Y643911D01*
X245339Y656569D01*
X246511Y657741D01*
X258169Y657741D01*
X259341Y656569D01*
X259341Y656050D01*
X259344Y656030D01*
X259342Y656011D01*
X259364Y655909D01*
X259380Y655807D01*
X259390Y655790D01*
X259394Y655770D01*
X259447Y655681D01*
X259496Y655590D01*
X259510Y655576D01*
X259520Y655559D01*
X259599Y655492D01*
X259674Y655420D01*
X259692Y655412D01*
X259707Y655399D01*
X259803Y655360D01*
X259897Y655317D01*
X259917Y655315D01*
X259935Y655307D01*
X260102Y655289D01*
X263711Y655289D01*
X276829Y642171D01*
X276829Y359277D01*
X276843Y359186D01*
X276851Y359096D01*
X276863Y359066D01*
X276868Y359034D01*
X276911Y358953D01*
X276947Y358869D01*
X276973Y358837D01*
X276984Y358816D01*
X277007Y358794D01*
X277052Y358738D01*
X288888Y346902D01*
X288962Y346849D01*
X289032Y346789D01*
X289062Y346777D01*
X289088Y346758D01*
X289175Y346731D01*
X289260Y346697D01*
X289301Y346693D01*
X289323Y346686D01*
X289355Y346687D01*
X289427Y346679D01*
X290915Y346679D01*
X291005Y346693D01*
X291096Y346701D01*
X291126Y346713D01*
X291158Y346718D01*
X291238Y346761D01*
X291322Y346797D01*
X291354Y346823D01*
X291375Y346834D01*
X291397Y346857D01*
X291453Y346902D01*
X293422Y348870D01*
X296561Y350171D01*
X313039Y350171D01*
X316178Y348870D01*
X318580Y346468D01*
X319881Y343329D01*
X319881Y339931D01*
X318580Y336792D01*
X316178Y334390D01*
X313039Y333089D01*
X296561Y333089D01*
G37*
%LPD*%
%LPC*%
G36*
X296561Y307689D02*
X296561Y307689D01*
X293422Y308990D01*
X291020Y311392D01*
X290775Y311981D01*
X290713Y312081D01*
X290654Y312181D01*
X290649Y312185D01*
X290646Y312190D01*
X290555Y312265D01*
X290467Y312341D01*
X290461Y312343D01*
X290456Y312347D01*
X290348Y312389D01*
X290239Y312433D01*
X290231Y312434D01*
X290227Y312435D01*
X290208Y312436D01*
X290072Y312451D01*
X284929Y312451D01*
X248951Y348429D01*
X248951Y626846D01*
X248941Y626911D01*
X248940Y626976D01*
X248917Y627057D01*
X248912Y627089D01*
X248902Y627106D01*
X248893Y627138D01*
X248217Y628770D01*
X248217Y631070D01*
X249098Y633196D01*
X250724Y634822D01*
X252850Y635703D01*
X255150Y635703D01*
X257276Y634822D01*
X258902Y633196D01*
X259783Y631070D01*
X259783Y628770D01*
X259107Y627138D01*
X259092Y627074D01*
X259067Y627013D01*
X259058Y626930D01*
X259051Y626898D01*
X259052Y626879D01*
X259049Y626846D01*
X259049Y352927D01*
X259063Y352836D01*
X259071Y352746D01*
X259083Y352716D01*
X259088Y352684D01*
X259131Y352603D01*
X259167Y352519D01*
X259193Y352487D01*
X259204Y352466D01*
X259227Y352444D01*
X259272Y352388D01*
X288888Y322772D01*
X288962Y322719D01*
X289032Y322659D01*
X289062Y322647D01*
X289088Y322628D01*
X289175Y322601D01*
X289260Y322567D01*
X289301Y322563D01*
X289323Y322556D01*
X289355Y322557D01*
X289427Y322549D01*
X292185Y322549D01*
X292275Y322563D01*
X292366Y322571D01*
X292396Y322583D01*
X292428Y322588D01*
X292508Y322631D01*
X292592Y322667D01*
X292624Y322693D01*
X292645Y322704D01*
X292667Y322727D01*
X292723Y322772D01*
X293422Y323470D01*
X296561Y324771D01*
X313039Y324771D01*
X316178Y323470D01*
X318580Y321068D01*
X319881Y317929D01*
X319881Y314531D01*
X318580Y311392D01*
X316178Y308990D01*
X313039Y307689D01*
X296561Y307689D01*
G37*
%LPD*%
%LPC*%
G36*
X84042Y503967D02*
X84042Y503967D01*
X79759Y505741D01*
X76481Y509019D01*
X74707Y513302D01*
X74707Y517938D01*
X75155Y519020D01*
X75182Y519133D01*
X75211Y519247D01*
X75210Y519253D01*
X75212Y519259D01*
X75201Y519376D01*
X75192Y519492D01*
X75189Y519498D01*
X75189Y519504D01*
X75141Y519612D01*
X75095Y519719D01*
X75091Y519724D01*
X75089Y519729D01*
X75076Y519743D01*
X74990Y519850D01*
X71151Y523689D01*
X71151Y538868D01*
X71144Y538916D01*
X71145Y538964D01*
X71124Y539036D01*
X71112Y539111D01*
X71089Y539154D01*
X71075Y539200D01*
X71032Y539262D01*
X70996Y539329D01*
X70962Y539362D01*
X70934Y539401D01*
X70873Y539446D01*
X70818Y539498D01*
X70775Y539518D01*
X70736Y539547D01*
X70664Y539570D01*
X70595Y539602D01*
X70547Y539607D01*
X70502Y539621D01*
X70426Y539620D01*
X70351Y539629D01*
X70304Y539618D01*
X70256Y539618D01*
X70184Y539592D01*
X70110Y539576D01*
X70069Y539552D01*
X70024Y539536D01*
X69964Y539489D01*
X69899Y539450D01*
X69868Y539414D01*
X69830Y539384D01*
X69754Y539280D01*
X69739Y539263D01*
X69737Y539257D01*
X69731Y539249D01*
X68843Y537711D01*
X67523Y535991D01*
X65989Y534457D01*
X64269Y533137D01*
X62392Y532053D01*
X60388Y531223D01*
X58294Y530662D01*
X56583Y530437D01*
X56583Y546158D01*
X56580Y546178D01*
X56582Y546197D01*
X56560Y546299D01*
X56543Y546401D01*
X56534Y546418D01*
X56530Y546438D01*
X56477Y546527D01*
X56428Y546618D01*
X56414Y546632D01*
X56404Y546649D01*
X56325Y546716D01*
X56250Y546787D01*
X56232Y546796D01*
X56217Y546809D01*
X56121Y546847D01*
X56027Y546891D01*
X56007Y546893D01*
X55989Y546901D01*
X55822Y546919D01*
X55059Y546919D01*
X55059Y546921D01*
X55822Y546921D01*
X55842Y546924D01*
X55861Y546922D01*
X55963Y546944D01*
X56065Y546961D01*
X56082Y546970D01*
X56102Y546974D01*
X56191Y547027D01*
X56282Y547076D01*
X56296Y547090D01*
X56313Y547100D01*
X56380Y547179D01*
X56451Y547254D01*
X56460Y547272D01*
X56473Y547287D01*
X56512Y547383D01*
X56555Y547477D01*
X56557Y547497D01*
X56565Y547515D01*
X56583Y547682D01*
X56583Y563403D01*
X58294Y563178D01*
X60388Y562617D01*
X62392Y561787D01*
X64269Y560703D01*
X65989Y559383D01*
X67523Y557849D01*
X68843Y556129D01*
X69731Y554591D01*
X69761Y554554D01*
X69784Y554511D01*
X69838Y554459D01*
X69887Y554401D01*
X69927Y554375D01*
X69962Y554342D01*
X70031Y554310D01*
X70095Y554270D01*
X70142Y554259D01*
X70185Y554238D01*
X70260Y554230D01*
X70334Y554212D01*
X70382Y554217D01*
X70429Y554211D01*
X70504Y554227D01*
X70579Y554234D01*
X70623Y554253D01*
X70670Y554264D01*
X70735Y554303D01*
X70804Y554333D01*
X70840Y554365D01*
X70881Y554390D01*
X70930Y554447D01*
X70986Y554498D01*
X71010Y554540D01*
X71041Y554577D01*
X71069Y554647D01*
X71106Y554713D01*
X71115Y554760D01*
X71133Y554805D01*
X71147Y554933D01*
X71151Y554955D01*
X71150Y554962D01*
X71151Y554972D01*
X71151Y566553D01*
X71137Y566644D01*
X71129Y566734D01*
X71117Y566764D01*
X71112Y566796D01*
X71069Y566877D01*
X71033Y566961D01*
X71007Y566993D01*
X70996Y567014D01*
X70973Y567036D01*
X70928Y567092D01*
X40671Y597349D01*
X40671Y623818D01*
X40668Y623838D01*
X40670Y623857D01*
X40648Y623959D01*
X40632Y624061D01*
X40622Y624078D01*
X40618Y624098D01*
X40565Y624187D01*
X40516Y624278D01*
X40502Y624292D01*
X40492Y624309D01*
X40413Y624376D01*
X40338Y624448D01*
X40320Y624456D01*
X40305Y624469D01*
X40209Y624508D01*
X40115Y624551D01*
X40095Y624553D01*
X40077Y624561D01*
X39910Y624579D01*
X39391Y624579D01*
X38219Y625751D01*
X38219Y637409D01*
X39391Y638581D01*
X52049Y638581D01*
X53221Y637409D01*
X53221Y625751D01*
X52049Y624579D01*
X51530Y624579D01*
X51510Y624576D01*
X51491Y624578D01*
X51389Y624556D01*
X51287Y624540D01*
X51270Y624530D01*
X51250Y624526D01*
X51161Y624473D01*
X51070Y624424D01*
X51056Y624410D01*
X51039Y624400D01*
X50972Y624321D01*
X50900Y624246D01*
X50892Y624228D01*
X50879Y624213D01*
X50840Y624117D01*
X50797Y624023D01*
X50795Y624003D01*
X50787Y623985D01*
X50769Y623818D01*
X50769Y601847D01*
X50783Y601756D01*
X50791Y601666D01*
X50803Y601636D01*
X50808Y601604D01*
X50851Y601523D01*
X50887Y601439D01*
X50913Y601407D01*
X50924Y601386D01*
X50947Y601364D01*
X50992Y601308D01*
X81249Y571051D01*
X81249Y528187D01*
X81263Y528096D01*
X81271Y528006D01*
X81283Y527976D01*
X81288Y527944D01*
X81331Y527863D01*
X81367Y527779D01*
X81393Y527747D01*
X81404Y527726D01*
X81427Y527704D01*
X81472Y527648D01*
X82130Y526990D01*
X82224Y526922D01*
X82319Y526852D01*
X82325Y526850D01*
X82330Y526846D01*
X82441Y526812D01*
X82553Y526775D01*
X82559Y526775D01*
X82565Y526774D01*
X82682Y526777D01*
X82799Y526778D01*
X82806Y526780D01*
X82811Y526780D01*
X82829Y526786D01*
X82960Y526825D01*
X84042Y527273D01*
X88678Y527273D01*
X92961Y525499D01*
X96239Y522221D01*
X98013Y517938D01*
X98013Y513302D01*
X96239Y509019D01*
X92961Y505741D01*
X88678Y503967D01*
X84042Y503967D01*
G37*
%LPD*%
%LPC*%
G36*
X48411Y690959D02*
X48411Y690959D01*
X47764Y691132D01*
X47185Y691467D01*
X46712Y691940D01*
X46377Y692519D01*
X46192Y693210D01*
X46182Y693232D01*
X46178Y693256D01*
X46170Y693272D01*
X46168Y693282D01*
X46141Y693328D01*
X46132Y693344D01*
X46091Y693434D01*
X46075Y693452D01*
X46063Y693473D01*
X45992Y693542D01*
X45924Y693615D01*
X45903Y693626D01*
X45885Y693643D01*
X45795Y693685D01*
X45708Y693732D01*
X45684Y693736D01*
X45662Y693746D01*
X45563Y693757D01*
X45465Y693774D01*
X45441Y693771D01*
X45418Y693773D01*
X45321Y693752D01*
X45222Y693737D01*
X45201Y693726D01*
X45177Y693721D01*
X45092Y693670D01*
X45003Y693625D01*
X44987Y693607D01*
X44966Y693595D01*
X44901Y693519D01*
X44832Y693448D01*
X44822Y693426D01*
X44806Y693408D01*
X44769Y693316D01*
X44726Y693226D01*
X44723Y693202D01*
X44714Y693180D01*
X44696Y693013D01*
X44696Y692671D01*
X43524Y691499D01*
X26866Y691499D01*
X25694Y692671D01*
X25694Y704329D01*
X26866Y705501D01*
X29385Y705501D01*
X29405Y705504D01*
X29424Y705502D01*
X29526Y705524D01*
X29628Y705540D01*
X29645Y705550D01*
X29665Y705554D01*
X29754Y705607D01*
X29845Y705656D01*
X29859Y705670D01*
X29876Y705680D01*
X29943Y705759D01*
X30015Y705834D01*
X30023Y705852D01*
X30036Y705867D01*
X30075Y705963D01*
X30118Y706057D01*
X30120Y706077D01*
X30128Y706095D01*
X30146Y706262D01*
X30146Y735747D01*
X36874Y742475D01*
X36942Y742569D01*
X37012Y742664D01*
X37014Y742670D01*
X37018Y742675D01*
X37052Y742786D01*
X37088Y742898D01*
X37088Y742904D01*
X37090Y742910D01*
X37087Y743027D01*
X37086Y743144D01*
X37084Y743151D01*
X37084Y743156D01*
X37077Y743173D01*
X37039Y743305D01*
X36509Y744584D01*
X36509Y749358D01*
X38336Y753769D01*
X41712Y757145D01*
X46123Y758972D01*
X50897Y758972D01*
X55308Y757145D01*
X57001Y755452D01*
X57075Y755399D01*
X57144Y755339D01*
X57174Y755327D01*
X57201Y755308D01*
X57288Y755281D01*
X57372Y755247D01*
X57413Y755243D01*
X57436Y755236D01*
X57468Y755237D01*
X57539Y755229D01*
X111118Y755229D01*
X111138Y755232D01*
X111157Y755230D01*
X111259Y755252D01*
X111361Y755268D01*
X111378Y755278D01*
X111398Y755282D01*
X111487Y755335D01*
X111578Y755384D01*
X111592Y755398D01*
X111609Y755408D01*
X111676Y755487D01*
X111748Y755562D01*
X111756Y755580D01*
X111769Y755595D01*
X111808Y755691D01*
X111851Y755785D01*
X111853Y755805D01*
X111861Y755823D01*
X111879Y755990D01*
X111879Y756009D01*
X113051Y757181D01*
X125709Y757181D01*
X126881Y756009D01*
X126881Y744351D01*
X125709Y743179D01*
X113051Y743179D01*
X111879Y744351D01*
X111879Y744370D01*
X111876Y744390D01*
X111878Y744409D01*
X111856Y744511D01*
X111840Y744613D01*
X111830Y744630D01*
X111826Y744650D01*
X111773Y744739D01*
X111724Y744830D01*
X111710Y744844D01*
X111700Y744861D01*
X111621Y744928D01*
X111546Y745000D01*
X111528Y745008D01*
X111513Y745021D01*
X111417Y745060D01*
X111323Y745103D01*
X111303Y745105D01*
X111285Y745113D01*
X111118Y745131D01*
X61246Y745131D01*
X61131Y745112D01*
X61015Y745095D01*
X61010Y745093D01*
X61003Y745092D01*
X60901Y745037D01*
X60796Y744984D01*
X60791Y744979D01*
X60786Y744976D01*
X60706Y744892D01*
X60624Y744808D01*
X60620Y744802D01*
X60617Y744798D01*
X60609Y744781D01*
X60543Y744661D01*
X58684Y740173D01*
X55308Y736797D01*
X50897Y734970D01*
X46123Y734970D01*
X44844Y735500D01*
X44730Y735527D01*
X44617Y735555D01*
X44610Y735555D01*
X44604Y735556D01*
X44488Y735545D01*
X44371Y735536D01*
X44366Y735534D01*
X44359Y735533D01*
X44252Y735485D01*
X44145Y735440D01*
X44139Y735435D01*
X44135Y735433D01*
X44121Y735421D01*
X44014Y735335D01*
X40467Y731788D01*
X40414Y731714D01*
X40354Y731644D01*
X40342Y731614D01*
X40323Y731588D01*
X40296Y731501D01*
X40262Y731416D01*
X40258Y731375D01*
X40251Y731353D01*
X40252Y731321D01*
X40244Y731249D01*
X40244Y706262D01*
X40247Y706242D01*
X40245Y706223D01*
X40267Y706121D01*
X40283Y706019D01*
X40293Y706002D01*
X40297Y705982D01*
X40350Y705893D01*
X40399Y705802D01*
X40413Y705788D01*
X40423Y705771D01*
X40502Y705704D01*
X40577Y705632D01*
X40595Y705624D01*
X40610Y705611D01*
X40706Y705572D01*
X40800Y705529D01*
X40820Y705527D01*
X40838Y705519D01*
X41005Y705501D01*
X43524Y705501D01*
X44696Y704329D01*
X44696Y703987D01*
X44700Y703963D01*
X44697Y703939D01*
X44719Y703842D01*
X44735Y703744D01*
X44747Y703723D01*
X44752Y703699D01*
X44804Y703614D01*
X44851Y703527D01*
X44868Y703510D01*
X44881Y703490D01*
X44957Y703426D01*
X45029Y703357D01*
X45051Y703347D01*
X45069Y703332D01*
X45162Y703296D01*
X45252Y703254D01*
X45276Y703251D01*
X45298Y703242D01*
X45398Y703237D01*
X45496Y703227D01*
X45520Y703232D01*
X45544Y703231D01*
X45640Y703258D01*
X45737Y703279D01*
X45757Y703291D01*
X45781Y703298D01*
X45863Y703354D01*
X45948Y703405D01*
X45964Y703423D01*
X45983Y703437D01*
X46043Y703516D01*
X46108Y703592D01*
X46117Y703614D01*
X46131Y703633D01*
X46192Y703790D01*
X46377Y704481D01*
X46712Y705060D01*
X47185Y705533D01*
X47764Y705868D01*
X48411Y706041D01*
X54722Y706041D01*
X54722Y699262D01*
X54725Y699242D01*
X54723Y699223D01*
X54745Y699121D01*
X54762Y699019D01*
X54771Y699002D01*
X54775Y698982D01*
X54828Y698893D01*
X54877Y698802D01*
X54891Y698788D01*
X54901Y698771D01*
X54980Y698704D01*
X55055Y698633D01*
X55073Y698624D01*
X55088Y698611D01*
X55184Y698572D01*
X55278Y698529D01*
X55298Y698527D01*
X55316Y698519D01*
X55483Y698501D01*
X56246Y698501D01*
X56246Y698499D01*
X55483Y698499D01*
X55463Y698496D01*
X55444Y698498D01*
X55342Y698476D01*
X55240Y698459D01*
X55223Y698450D01*
X55203Y698446D01*
X55114Y698393D01*
X55023Y698344D01*
X55009Y698330D01*
X54992Y698320D01*
X54925Y698241D01*
X54854Y698166D01*
X54845Y698148D01*
X54832Y698133D01*
X54793Y698037D01*
X54750Y697943D01*
X54748Y697923D01*
X54740Y697905D01*
X54722Y697738D01*
X54722Y690959D01*
X48411Y690959D01*
G37*
%LPD*%
%LPC*%
G36*
X242690Y659697D02*
X242690Y659697D01*
X240564Y660578D01*
X238938Y662204D01*
X238057Y664330D01*
X238057Y666630D01*
X238733Y668262D01*
X238748Y668326D01*
X238773Y668387D01*
X238782Y668470D01*
X238789Y668502D01*
X238788Y668521D01*
X238791Y668554D01*
X238791Y670693D01*
X238777Y670784D01*
X238769Y670874D01*
X238757Y670904D01*
X238752Y670936D01*
X238709Y671017D01*
X238673Y671101D01*
X238647Y671133D01*
X238636Y671154D01*
X238613Y671176D01*
X238568Y671232D01*
X234352Y675448D01*
X234278Y675501D01*
X234208Y675561D01*
X234178Y675573D01*
X234152Y675592D01*
X234065Y675619D01*
X233980Y675653D01*
X233939Y675657D01*
X233917Y675664D01*
X233885Y675663D01*
X233813Y675671D01*
X232162Y675671D01*
X232142Y675668D01*
X232123Y675670D01*
X232021Y675648D01*
X231919Y675632D01*
X231902Y675622D01*
X231882Y675618D01*
X231793Y675565D01*
X231702Y675516D01*
X231688Y675502D01*
X231671Y675492D01*
X231604Y675413D01*
X231532Y675338D01*
X231524Y675320D01*
X231511Y675305D01*
X231472Y675209D01*
X231429Y675115D01*
X231427Y675095D01*
X231419Y675077D01*
X231401Y674910D01*
X231401Y674391D01*
X230229Y673219D01*
X218571Y673219D01*
X217399Y674391D01*
X217399Y687049D01*
X218571Y688221D01*
X230229Y688221D01*
X231401Y687049D01*
X231401Y686530D01*
X231404Y686510D01*
X231402Y686491D01*
X231424Y686389D01*
X231440Y686287D01*
X231450Y686270D01*
X231454Y686250D01*
X231507Y686161D01*
X231556Y686070D01*
X231570Y686056D01*
X231580Y686039D01*
X231659Y685972D01*
X231734Y685900D01*
X231752Y685892D01*
X231767Y685879D01*
X231863Y685840D01*
X231957Y685797D01*
X231977Y685795D01*
X231995Y685787D01*
X232162Y685769D01*
X238311Y685769D01*
X248889Y675191D01*
X248889Y668554D01*
X248899Y668489D01*
X248900Y668424D01*
X248923Y668343D01*
X248928Y668311D01*
X248938Y668294D01*
X248947Y668262D01*
X249623Y666630D01*
X249623Y664330D01*
X248742Y662204D01*
X247116Y660578D01*
X244990Y659697D01*
X242690Y659697D01*
G37*
%LPD*%
%LPC*%
G36*
X296561Y460089D02*
X296561Y460089D01*
X293422Y461390D01*
X291020Y463792D01*
X289719Y466931D01*
X289719Y470329D01*
X291020Y473468D01*
X293422Y475870D01*
X296561Y477171D01*
X313039Y477171D01*
X316178Y475870D01*
X318580Y473468D01*
X319881Y470329D01*
X319881Y466931D01*
X318580Y463792D01*
X316178Y461390D01*
X313039Y460089D01*
X296561Y460089D01*
G37*
%LPD*%
%LPC*%
G36*
X296561Y409289D02*
X296561Y409289D01*
X293422Y410590D01*
X291020Y412992D01*
X289719Y416131D01*
X289719Y419529D01*
X291020Y422668D01*
X293422Y425070D01*
X296561Y426371D01*
X313039Y426371D01*
X316178Y425070D01*
X318580Y422668D01*
X319881Y419529D01*
X319881Y416131D01*
X318580Y412992D01*
X316178Y410590D01*
X313039Y409289D01*
X296561Y409289D01*
G37*
%LPD*%
%LPC*%
G36*
X296561Y510889D02*
X296561Y510889D01*
X293422Y512190D01*
X291020Y514592D01*
X289719Y517731D01*
X289719Y521129D01*
X291020Y524268D01*
X293422Y526670D01*
X296561Y527971D01*
X313039Y527971D01*
X316178Y526670D01*
X318580Y524268D01*
X319881Y521129D01*
X319881Y517731D01*
X318580Y514592D01*
X316178Y512190D01*
X313039Y510889D01*
X296561Y510889D01*
G37*
%LPD*%
%LPC*%
G36*
X296561Y79089D02*
X296561Y79089D01*
X293422Y80390D01*
X291020Y82792D01*
X289719Y85931D01*
X289719Y89329D01*
X291020Y92468D01*
X293422Y94870D01*
X296561Y96171D01*
X313039Y96171D01*
X316178Y94870D01*
X318580Y92468D01*
X319881Y89329D01*
X319881Y85931D01*
X318580Y82792D01*
X316178Y80390D01*
X313039Y79089D01*
X296561Y79089D01*
G37*
%LPD*%
%LPC*%
G36*
X296561Y104489D02*
X296561Y104489D01*
X293422Y105790D01*
X291020Y108192D01*
X289719Y111331D01*
X289719Y114729D01*
X291020Y117868D01*
X293422Y120270D01*
X296561Y121571D01*
X313039Y121571D01*
X316178Y120270D01*
X318580Y117868D01*
X319881Y114729D01*
X319881Y111331D01*
X318580Y108192D01*
X316178Y105790D01*
X313039Y104489D01*
X296561Y104489D01*
G37*
%LPD*%
%LPC*%
G36*
X296561Y129889D02*
X296561Y129889D01*
X293422Y131190D01*
X291020Y133592D01*
X289719Y136731D01*
X289719Y140129D01*
X291020Y143268D01*
X293422Y145670D01*
X296561Y146971D01*
X313039Y146971D01*
X316178Y145670D01*
X318580Y143268D01*
X319881Y140129D01*
X319881Y136731D01*
X318580Y133592D01*
X316178Y131190D01*
X313039Y129889D01*
X296561Y129889D01*
G37*
%LPD*%
%LPC*%
G36*
X296561Y790289D02*
X296561Y790289D01*
X293422Y791590D01*
X291020Y793992D01*
X289719Y797131D01*
X289719Y800529D01*
X291020Y803668D01*
X293422Y806070D01*
X296561Y807371D01*
X313039Y807371D01*
X316178Y806070D01*
X318580Y803668D01*
X319881Y800529D01*
X319881Y797131D01*
X318580Y793992D01*
X316178Y791590D01*
X313039Y790289D01*
X296561Y790289D01*
G37*
%LPD*%
%LPC*%
G36*
X296561Y764889D02*
X296561Y764889D01*
X293422Y766190D01*
X291020Y768592D01*
X289719Y771731D01*
X289719Y775129D01*
X291020Y778268D01*
X293422Y780670D01*
X296561Y781971D01*
X313039Y781971D01*
X316178Y780670D01*
X318580Y778268D01*
X319881Y775129D01*
X319881Y771731D01*
X318580Y768592D01*
X316178Y766190D01*
X313039Y764889D01*
X296561Y764889D01*
G37*
%LPD*%
%LPC*%
G36*
X296561Y155289D02*
X296561Y155289D01*
X293422Y156590D01*
X291020Y158992D01*
X289719Y162131D01*
X289719Y165529D01*
X291020Y168668D01*
X293422Y171070D01*
X296561Y172371D01*
X313039Y172371D01*
X316178Y171070D01*
X318580Y168668D01*
X319881Y165529D01*
X319881Y162131D01*
X318580Y158992D01*
X316178Y156590D01*
X313039Y155289D01*
X296561Y155289D01*
G37*
%LPD*%
%LPC*%
G36*
X296561Y28289D02*
X296561Y28289D01*
X293422Y29590D01*
X291020Y31992D01*
X289719Y35131D01*
X289719Y38529D01*
X291020Y41668D01*
X293422Y44070D01*
X296561Y45371D01*
X313039Y45371D01*
X316178Y44070D01*
X318580Y41668D01*
X319881Y38529D01*
X319881Y35131D01*
X318580Y31992D01*
X316178Y29590D01*
X313039Y28289D01*
X296561Y28289D01*
G37*
%LPD*%
%LPC*%
G36*
X296561Y53689D02*
X296561Y53689D01*
X293422Y54990D01*
X291020Y57392D01*
X289719Y60531D01*
X289719Y63929D01*
X291020Y67068D01*
X293422Y69470D01*
X296561Y70771D01*
X313039Y70771D01*
X316178Y69470D01*
X318580Y67068D01*
X319881Y63929D01*
X319881Y60531D01*
X318580Y57392D01*
X316178Y54990D01*
X313039Y53689D01*
X296561Y53689D01*
G37*
%LPD*%
%LPC*%
G36*
X296561Y637889D02*
X296561Y637889D01*
X293422Y639190D01*
X291020Y641592D01*
X289719Y644731D01*
X289719Y648129D01*
X291020Y651268D01*
X293422Y653670D01*
X296561Y654971D01*
X313039Y654971D01*
X316178Y653670D01*
X318580Y651268D01*
X319881Y648129D01*
X319881Y644731D01*
X318580Y641592D01*
X316178Y639190D01*
X313039Y637889D01*
X296561Y637889D01*
G37*
%LPD*%
%LPC*%
G36*
X296561Y612489D02*
X296561Y612489D01*
X293422Y613790D01*
X291020Y616192D01*
X289719Y619331D01*
X289719Y622729D01*
X291020Y625868D01*
X293422Y628270D01*
X296561Y629571D01*
X313039Y629571D01*
X316178Y628270D01*
X318580Y625868D01*
X319881Y622729D01*
X319881Y619331D01*
X318580Y616192D01*
X316178Y613790D01*
X313039Y612489D01*
X296561Y612489D01*
G37*
%LPD*%
%LPC*%
G36*
X296561Y561689D02*
X296561Y561689D01*
X293422Y562990D01*
X291020Y565392D01*
X289719Y568531D01*
X289719Y571929D01*
X291020Y575068D01*
X293422Y577470D01*
X296561Y578771D01*
X313039Y578771D01*
X316178Y577470D01*
X318580Y575068D01*
X319881Y571929D01*
X319881Y568531D01*
X318580Y565392D01*
X316178Y562990D01*
X313039Y561689D01*
X296561Y561689D01*
G37*
%LPD*%
%LPC*%
G36*
X296561Y358489D02*
X296561Y358489D01*
X293422Y359790D01*
X291020Y362192D01*
X289719Y365331D01*
X289719Y368729D01*
X291020Y371868D01*
X293422Y374270D01*
X296561Y375571D01*
X313039Y375571D01*
X316178Y374270D01*
X318580Y371868D01*
X319881Y368729D01*
X319881Y365331D01*
X318580Y362192D01*
X316178Y359790D01*
X313039Y358489D01*
X296561Y358489D01*
G37*
%LPD*%
%LPC*%
G36*
X296561Y587089D02*
X296561Y587089D01*
X293422Y588390D01*
X291020Y590792D01*
X289719Y593931D01*
X289719Y597329D01*
X291020Y600468D01*
X293422Y602870D01*
X296561Y604171D01*
X313039Y604171D01*
X316178Y602870D01*
X318580Y600468D01*
X319881Y597329D01*
X319881Y593931D01*
X318580Y590792D01*
X316178Y588390D01*
X313039Y587089D01*
X296561Y587089D01*
G37*
%LPD*%
%LPC*%
G36*
X296561Y383889D02*
X296561Y383889D01*
X293422Y385190D01*
X291020Y387592D01*
X289719Y390731D01*
X289719Y394129D01*
X291020Y397268D01*
X293422Y399670D01*
X296561Y400971D01*
X313039Y400971D01*
X316178Y399670D01*
X318580Y397268D01*
X319881Y394129D01*
X319881Y390731D01*
X318580Y387592D01*
X316178Y385190D01*
X313039Y383889D01*
X296561Y383889D01*
G37*
%LPD*%
%LPC*%
G36*
X296561Y434689D02*
X296561Y434689D01*
X293422Y435990D01*
X291020Y438392D01*
X289719Y441531D01*
X289719Y444929D01*
X291020Y448068D01*
X293422Y450470D01*
X296561Y451771D01*
X313039Y451771D01*
X316178Y450470D01*
X318580Y448068D01*
X319881Y444929D01*
X319881Y441531D01*
X318580Y438392D01*
X316178Y435990D01*
X313039Y434689D01*
X296561Y434689D01*
G37*
%LPD*%
%LPC*%
G36*
X296561Y485489D02*
X296561Y485489D01*
X293422Y486790D01*
X291020Y489192D01*
X289719Y492331D01*
X289719Y495729D01*
X291020Y498868D01*
X293422Y501270D01*
X296561Y502571D01*
X313039Y502571D01*
X316178Y501270D01*
X318580Y498868D01*
X319881Y495729D01*
X319881Y492331D01*
X318580Y489192D01*
X316178Y486790D01*
X313039Y485489D01*
X296561Y485489D01*
G37*
%LPD*%
%LPC*%
G36*
X296561Y536289D02*
X296561Y536289D01*
X293422Y537590D01*
X291020Y539992D01*
X289719Y543131D01*
X289719Y546529D01*
X291020Y549668D01*
X293422Y552070D01*
X296561Y553371D01*
X313039Y553371D01*
X316178Y552070D01*
X318580Y549668D01*
X319881Y546529D01*
X319881Y543131D01*
X318580Y539992D01*
X316178Y537590D01*
X313039Y536289D01*
X296561Y536289D01*
G37*
%LPD*%
%LPC*%
G36*
X116320Y648501D02*
X116320Y648501D01*
X105779Y648501D01*
X105779Y649574D01*
X105952Y650221D01*
X106217Y650679D01*
X106258Y650787D01*
X106301Y650893D01*
X106302Y650903D01*
X106304Y650910D01*
X106305Y650932D01*
X106319Y651060D01*
X106319Y670069D01*
X107491Y671241D01*
X125149Y671241D01*
X126321Y670069D01*
X126321Y651060D01*
X126339Y650947D01*
X126355Y650833D01*
X126359Y650824D01*
X126360Y650817D01*
X126371Y650798D01*
X126423Y650679D01*
X126688Y650221D01*
X126861Y649574D01*
X126861Y648501D01*
X116320Y648501D01*
X116320Y648501D01*
G37*
%LPD*%
%LPC*%
G36*
X125779Y620001D02*
X125779Y620001D01*
X125779Y627574D01*
X125969Y628281D01*
X125980Y628400D01*
X125993Y628517D01*
X125993Y628522D01*
X125993Y628526D01*
X125967Y628641D01*
X125941Y628758D01*
X125939Y628761D01*
X125938Y628765D01*
X125876Y628866D01*
X125815Y628969D01*
X125812Y628972D01*
X125810Y628975D01*
X125718Y629052D01*
X125628Y629129D01*
X125624Y629130D01*
X125621Y629133D01*
X125511Y629176D01*
X125400Y629221D01*
X125395Y629221D01*
X125392Y629223D01*
X125378Y629223D01*
X125233Y629239D01*
X107491Y629239D01*
X106319Y630411D01*
X106319Y639420D01*
X106301Y639533D01*
X106285Y639647D01*
X106281Y639656D01*
X106280Y639663D01*
X106269Y639682D01*
X106217Y639801D01*
X105952Y640259D01*
X105779Y640906D01*
X105779Y641979D01*
X116320Y641979D01*
X126861Y641979D01*
X126861Y641772D01*
X126864Y641752D01*
X126862Y641733D01*
X126884Y641631D01*
X126900Y641529D01*
X126910Y641512D01*
X126914Y641492D01*
X126967Y641403D01*
X127016Y641312D01*
X127030Y641298D01*
X127040Y641281D01*
X127119Y641214D01*
X127194Y641142D01*
X127212Y641134D01*
X127227Y641121D01*
X127323Y641082D01*
X127417Y641039D01*
X127437Y641037D01*
X127455Y641029D01*
X127622Y641011D01*
X129189Y641011D01*
X129280Y641025D01*
X129370Y641033D01*
X129400Y641045D01*
X129432Y641050D01*
X129513Y641093D01*
X129597Y641129D01*
X129629Y641155D01*
X129650Y641166D01*
X129672Y641189D01*
X129728Y641234D01*
X131136Y642642D01*
X133262Y643523D01*
X135562Y643523D01*
X137688Y642642D01*
X139314Y641016D01*
X140195Y638890D01*
X140195Y636590D01*
X139314Y634464D01*
X137688Y632838D01*
X135562Y631957D01*
X133262Y631957D01*
X131136Y632838D01*
X129728Y634246D01*
X129654Y634299D01*
X129584Y634359D01*
X129554Y634371D01*
X129528Y634390D01*
X129441Y634417D01*
X129356Y634451D01*
X129315Y634455D01*
X129293Y634462D01*
X129261Y634461D01*
X129189Y634469D01*
X127082Y634469D01*
X127062Y634466D01*
X127043Y634468D01*
X126941Y634446D01*
X126839Y634430D01*
X126822Y634420D01*
X126802Y634416D01*
X126713Y634363D01*
X126622Y634314D01*
X126608Y634300D01*
X126591Y634290D01*
X126524Y634211D01*
X126452Y634136D01*
X126444Y634118D01*
X126431Y634103D01*
X126392Y634007D01*
X126349Y633913D01*
X126347Y633893D01*
X126339Y633875D01*
X126321Y633708D01*
X126321Y630327D01*
X126340Y630210D01*
X126358Y630092D01*
X126360Y630088D01*
X126360Y630084D01*
X126416Y629979D01*
X126471Y629873D01*
X126474Y629870D01*
X126476Y629867D01*
X126561Y629785D01*
X126647Y629702D01*
X126651Y629700D01*
X126654Y629697D01*
X126762Y629647D01*
X126869Y629596D01*
X126873Y629595D01*
X126877Y629594D01*
X126995Y629581D01*
X127113Y629566D01*
X127118Y629567D01*
X127121Y629567D01*
X127135Y629569D01*
X127279Y629591D01*
X127986Y629781D01*
X129059Y629781D01*
X129059Y620001D01*
X125779Y620001D01*
G37*
%LPD*%
%LPC*%
G36*
X165581Y620001D02*
X165581Y620001D01*
X165581Y629781D01*
X166654Y629781D01*
X167361Y629591D01*
X167480Y629579D01*
X167597Y629566D01*
X167602Y629567D01*
X167606Y629567D01*
X167721Y629593D01*
X167838Y629619D01*
X167841Y629621D01*
X167845Y629622D01*
X167947Y629684D01*
X168049Y629745D01*
X168052Y629748D01*
X168055Y629750D01*
X168131Y629841D01*
X168209Y629932D01*
X168210Y629936D01*
X168213Y629939D01*
X168256Y630049D01*
X168301Y630160D01*
X168301Y630165D01*
X168303Y630168D01*
X168303Y630182D01*
X168319Y630327D01*
X168319Y633483D01*
X168308Y633554D01*
X168306Y633626D01*
X168288Y633675D01*
X168280Y633726D01*
X168246Y633790D01*
X168221Y633857D01*
X168189Y633898D01*
X168164Y633944D01*
X168112Y633993D01*
X168068Y634049D01*
X168024Y634077D01*
X167986Y634113D01*
X167921Y634143D01*
X167861Y634182D01*
X167810Y634195D01*
X167763Y634217D01*
X167692Y634224D01*
X167622Y634242D01*
X167570Y634238D01*
X167519Y634244D01*
X167448Y634228D01*
X167377Y634223D01*
X167329Y634202D01*
X167278Y634191D01*
X167217Y634155D01*
X167151Y634127D01*
X167095Y634082D01*
X167067Y634065D01*
X167052Y634047D01*
X167020Y634022D01*
X165836Y632838D01*
X163710Y631957D01*
X161410Y631957D01*
X159284Y632838D01*
X157658Y634464D01*
X156777Y636590D01*
X156777Y638890D01*
X157658Y641016D01*
X159284Y642642D01*
X161410Y643523D01*
X163710Y643523D01*
X165836Y642642D01*
X166480Y641998D01*
X166538Y641956D01*
X166590Y641907D01*
X166637Y641885D01*
X166679Y641855D01*
X166748Y641834D01*
X166813Y641803D01*
X166865Y641798D01*
X166915Y641782D01*
X166986Y641784D01*
X167057Y641776D01*
X167108Y641787D01*
X167160Y641789D01*
X167228Y641813D01*
X167298Y641829D01*
X167343Y641855D01*
X167391Y641873D01*
X167447Y641918D01*
X167509Y641955D01*
X167529Y641979D01*
X178320Y641979D01*
X188861Y641979D01*
X188861Y640905D01*
X188688Y640259D01*
X188423Y639801D01*
X188382Y639694D01*
X188339Y639587D01*
X188338Y639577D01*
X188336Y639570D01*
X188335Y639548D01*
X188321Y639420D01*
X188321Y630411D01*
X187149Y629239D01*
X169407Y629239D01*
X169290Y629220D01*
X169172Y629202D01*
X169168Y629200D01*
X169164Y629200D01*
X169060Y629144D01*
X168953Y629089D01*
X168950Y629086D01*
X168947Y629084D01*
X168865Y628998D01*
X168782Y628913D01*
X168780Y628909D01*
X168777Y628906D01*
X168727Y628798D01*
X168676Y628691D01*
X168675Y628687D01*
X168674Y628683D01*
X168660Y628565D01*
X168646Y628447D01*
X168647Y628442D01*
X168646Y628439D01*
X168649Y628425D01*
X168671Y628281D01*
X168861Y627574D01*
X168861Y620001D01*
X165581Y620001D01*
G37*
%LPD*%
%LPC*%
G36*
X193951Y571619D02*
X193951Y571619D01*
X192779Y572791D01*
X192779Y585449D01*
X193951Y586621D01*
X193970Y586621D01*
X193990Y586624D01*
X194009Y586622D01*
X194111Y586644D01*
X194213Y586660D01*
X194230Y586670D01*
X194250Y586674D01*
X194339Y586727D01*
X194430Y586776D01*
X194444Y586790D01*
X194461Y586800D01*
X194528Y586879D01*
X194600Y586954D01*
X194608Y586972D01*
X194621Y586987D01*
X194660Y587083D01*
X194703Y587177D01*
X194705Y587197D01*
X194713Y587215D01*
X194731Y587382D01*
X194731Y587753D01*
X194717Y587843D01*
X194709Y587934D01*
X194697Y587964D01*
X194692Y587996D01*
X194649Y588077D01*
X194613Y588161D01*
X194587Y588193D01*
X194576Y588214D01*
X194553Y588236D01*
X194508Y588292D01*
X194184Y588617D01*
X194130Y588655D01*
X194083Y588701D01*
X194011Y588741D01*
X193984Y588760D01*
X193965Y588766D01*
X193937Y588782D01*
X192304Y589458D01*
X190678Y591084D01*
X189797Y593210D01*
X189797Y595510D01*
X190678Y597636D01*
X192304Y599262D01*
X194430Y600143D01*
X196730Y600143D01*
X198856Y599262D01*
X200482Y597636D01*
X201158Y596003D01*
X201193Y595948D01*
X201219Y595887D01*
X201271Y595823D01*
X201288Y595794D01*
X201303Y595782D01*
X201323Y595757D01*
X204829Y592251D01*
X204829Y587382D01*
X204832Y587362D01*
X204830Y587343D01*
X204852Y587241D01*
X204868Y587139D01*
X204878Y587122D01*
X204882Y587102D01*
X204935Y587013D01*
X204984Y586922D01*
X204998Y586908D01*
X205008Y586891D01*
X205087Y586824D01*
X205162Y586752D01*
X205180Y586744D01*
X205195Y586731D01*
X205291Y586692D01*
X205385Y586649D01*
X205405Y586647D01*
X205423Y586639D01*
X205590Y586621D01*
X205609Y586621D01*
X206781Y585449D01*
X206781Y572791D01*
X205609Y571619D01*
X193951Y571619D01*
G37*
%LPD*%
%LPC*%
G36*
X119183Y485843D02*
X119183Y485843D01*
X119183Y500803D01*
X120894Y500578D01*
X122988Y500017D01*
X124992Y499187D01*
X126869Y498103D01*
X128589Y496783D01*
X130123Y495249D01*
X131443Y493529D01*
X132527Y491652D01*
X133357Y489648D01*
X133918Y487554D01*
X134143Y485843D01*
X119183Y485843D01*
G37*
%LPD*%
%LPC*%
G36*
X56583Y280103D02*
X56583Y280103D01*
X56583Y295063D01*
X58294Y294838D01*
X60388Y294277D01*
X62392Y293447D01*
X64269Y292363D01*
X65989Y291043D01*
X67523Y289509D01*
X68843Y287789D01*
X69927Y285912D01*
X70757Y283908D01*
X71318Y281814D01*
X71543Y280103D01*
X56583Y280103D01*
G37*
%LPD*%
%LPC*%
G36*
X119183Y280103D02*
X119183Y280103D01*
X119183Y295063D01*
X120894Y294838D01*
X122988Y294277D01*
X124992Y293447D01*
X126869Y292363D01*
X128589Y291043D01*
X130123Y289509D01*
X131443Y287789D01*
X132527Y285912D01*
X133357Y283908D01*
X133918Y281814D01*
X134143Y280103D01*
X119183Y280103D01*
G37*
%LPD*%
%LPC*%
G36*
X56583Y342703D02*
X56583Y342703D01*
X56583Y357663D01*
X58294Y357438D01*
X60388Y356877D01*
X62392Y356047D01*
X64269Y354963D01*
X65989Y353643D01*
X67523Y352109D01*
X68843Y350389D01*
X69927Y348512D01*
X70757Y346508D01*
X71318Y344414D01*
X71543Y342703D01*
X56583Y342703D01*
G37*
%LPD*%
%LPC*%
G36*
X56583Y121723D02*
X56583Y121723D01*
X56583Y136683D01*
X58294Y136458D01*
X60388Y135897D01*
X62392Y135067D01*
X64269Y133983D01*
X65989Y132663D01*
X67523Y131129D01*
X68843Y129409D01*
X69927Y127532D01*
X70757Y125528D01*
X71318Y123434D01*
X71543Y121723D01*
X56583Y121723D01*
G37*
%LPD*%
%LPC*%
G36*
X119183Y121723D02*
X119183Y121723D01*
X119183Y136683D01*
X120894Y136458D01*
X122988Y135897D01*
X124992Y135067D01*
X126869Y133983D01*
X128589Y132663D01*
X130123Y131129D01*
X131443Y129409D01*
X132527Y127532D01*
X133357Y125528D01*
X133918Y123434D01*
X134143Y121723D01*
X119183Y121723D01*
G37*
%LPD*%
%LPC*%
G36*
X56583Y485843D02*
X56583Y485843D01*
X56583Y500803D01*
X58294Y500578D01*
X60388Y500017D01*
X62392Y499187D01*
X64269Y498103D01*
X65989Y496783D01*
X67523Y495249D01*
X68843Y493529D01*
X69927Y491652D01*
X70757Y489648D01*
X71318Y487554D01*
X71543Y485843D01*
X56583Y485843D01*
G37*
%LPD*%
%LPC*%
G36*
X119183Y548443D02*
X119183Y548443D01*
X119183Y563403D01*
X120894Y563178D01*
X122988Y562617D01*
X124992Y561787D01*
X126869Y560703D01*
X128589Y559383D01*
X130123Y557849D01*
X131443Y556129D01*
X132527Y554252D01*
X133357Y552248D01*
X133918Y550154D01*
X134143Y548443D01*
X119183Y548443D01*
G37*
%LPD*%
%LPC*%
G36*
X56583Y59123D02*
X56583Y59123D01*
X56583Y74083D01*
X58294Y73858D01*
X60388Y73297D01*
X62392Y72467D01*
X64269Y71383D01*
X65989Y70063D01*
X67523Y68529D01*
X68843Y66809D01*
X69927Y64932D01*
X70757Y62928D01*
X71318Y60834D01*
X71543Y59123D01*
X56583Y59123D01*
G37*
%LPD*%
%LPC*%
G36*
X119183Y59123D02*
X119183Y59123D01*
X119183Y74083D01*
X120894Y73858D01*
X122988Y73297D01*
X124992Y72467D01*
X126869Y71383D01*
X128589Y70063D01*
X130123Y68529D01*
X131443Y66809D01*
X132527Y64932D01*
X133357Y62928D01*
X133918Y60834D01*
X134143Y59123D01*
X119183Y59123D01*
G37*
%LPD*%
%LPC*%
G36*
X119183Y342703D02*
X119183Y342703D01*
X119183Y357663D01*
X120894Y357438D01*
X122988Y356877D01*
X124992Y356047D01*
X126869Y354963D01*
X128589Y353643D01*
X130123Y352109D01*
X131443Y350389D01*
X132527Y348512D01*
X133357Y346508D01*
X133918Y344414D01*
X134143Y342703D01*
X119183Y342703D01*
G37*
%LPD*%
%LPC*%
G36*
X101177Y59123D02*
X101177Y59123D01*
X101402Y60834D01*
X101963Y62928D01*
X102793Y64932D01*
X103877Y66809D01*
X105197Y68529D01*
X106731Y70063D01*
X108451Y71383D01*
X110328Y72467D01*
X112332Y73297D01*
X114426Y73858D01*
X116137Y74083D01*
X116137Y59123D01*
X101177Y59123D01*
G37*
%LPD*%
%LPC*%
G36*
X119183Y56077D02*
X119183Y56077D01*
X134143Y56077D01*
X133918Y54366D01*
X133357Y52272D01*
X132527Y50268D01*
X131443Y48391D01*
X130123Y46671D01*
X128589Y45137D01*
X126869Y43817D01*
X124992Y42733D01*
X122988Y41903D01*
X120894Y41342D01*
X119183Y41117D01*
X119183Y56077D01*
G37*
%LPD*%
%LPC*%
G36*
X56583Y56077D02*
X56583Y56077D01*
X71543Y56077D01*
X71318Y54366D01*
X70757Y52272D01*
X69927Y50268D01*
X68843Y48391D01*
X67523Y46671D01*
X65989Y45137D01*
X64269Y43817D01*
X62392Y42733D01*
X60388Y41903D01*
X58294Y41342D01*
X56583Y41117D01*
X56583Y56077D01*
G37*
%LPD*%
%LPC*%
G36*
X101177Y548443D02*
X101177Y548443D01*
X101402Y550154D01*
X101963Y552248D01*
X102793Y554252D01*
X103877Y556129D01*
X105197Y557849D01*
X106731Y559383D01*
X108451Y560703D01*
X110328Y561787D01*
X112332Y562617D01*
X114426Y563178D01*
X116137Y563403D01*
X116137Y548443D01*
X101177Y548443D01*
G37*
%LPD*%
%LPC*%
G36*
X38577Y548443D02*
X38577Y548443D01*
X38802Y550154D01*
X39363Y552248D01*
X40193Y554252D01*
X41277Y556129D01*
X42597Y557849D01*
X44131Y559383D01*
X45851Y560703D01*
X47728Y561787D01*
X49732Y562617D01*
X51826Y563178D01*
X53537Y563403D01*
X53537Y548443D01*
X38577Y548443D01*
G37*
%LPD*%
%LPC*%
G36*
X119183Y545397D02*
X119183Y545397D01*
X134143Y545397D01*
X133918Y543686D01*
X133357Y541592D01*
X132527Y539588D01*
X131443Y537711D01*
X130123Y535991D01*
X128589Y534457D01*
X126869Y533137D01*
X124992Y532053D01*
X122988Y531223D01*
X120894Y530662D01*
X119183Y530437D01*
X119183Y545397D01*
G37*
%LPD*%
%LPC*%
G36*
X38577Y485843D02*
X38577Y485843D01*
X38802Y487554D01*
X39363Y489648D01*
X40193Y491652D01*
X41277Y493529D01*
X42597Y495249D01*
X44131Y496783D01*
X45851Y498103D01*
X47728Y499187D01*
X49732Y500017D01*
X51826Y500578D01*
X53537Y500803D01*
X53537Y485843D01*
X38577Y485843D01*
G37*
%LPD*%
%LPC*%
G36*
X101177Y485843D02*
X101177Y485843D01*
X101402Y487554D01*
X101963Y489648D01*
X102793Y491652D01*
X103877Y493529D01*
X105197Y495249D01*
X106731Y496783D01*
X108451Y498103D01*
X110328Y499187D01*
X112332Y500017D01*
X114426Y500578D01*
X116137Y500803D01*
X116137Y485843D01*
X101177Y485843D01*
G37*
%LPD*%
%LPC*%
G36*
X119183Y482797D02*
X119183Y482797D01*
X134143Y482797D01*
X133918Y481086D01*
X133357Y478992D01*
X132527Y476988D01*
X131443Y475111D01*
X130123Y473391D01*
X128589Y471857D01*
X126869Y470537D01*
X124992Y469453D01*
X122988Y468623D01*
X120894Y468062D01*
X119183Y467837D01*
X119183Y482797D01*
G37*
%LPD*%
%LPC*%
G36*
X56583Y482797D02*
X56583Y482797D01*
X71543Y482797D01*
X71318Y481086D01*
X70757Y478992D01*
X69927Y476988D01*
X68843Y475111D01*
X67523Y473391D01*
X65989Y471857D01*
X64269Y470537D01*
X62392Y469453D01*
X60388Y468623D01*
X58294Y468062D01*
X56583Y467837D01*
X56583Y482797D01*
G37*
%LPD*%
%LPC*%
G36*
X38577Y342703D02*
X38577Y342703D01*
X38802Y344414D01*
X39363Y346508D01*
X40193Y348512D01*
X41277Y350389D01*
X42597Y352109D01*
X44131Y353643D01*
X45851Y354963D01*
X47728Y356047D01*
X49732Y356877D01*
X51826Y357438D01*
X53537Y357663D01*
X53537Y342703D01*
X38577Y342703D01*
G37*
%LPD*%
%LPC*%
G36*
X56583Y339657D02*
X56583Y339657D01*
X71543Y339657D01*
X71318Y337946D01*
X70757Y335852D01*
X69927Y333848D01*
X68843Y331971D01*
X67523Y330251D01*
X65989Y328717D01*
X64269Y327397D01*
X62392Y326313D01*
X60388Y325483D01*
X58294Y324922D01*
X56583Y324697D01*
X56583Y339657D01*
G37*
%LPD*%
%LPC*%
G36*
X119183Y339657D02*
X119183Y339657D01*
X134143Y339657D01*
X133918Y337946D01*
X133357Y335852D01*
X132527Y333848D01*
X131443Y331971D01*
X130123Y330251D01*
X128589Y328717D01*
X126869Y327397D01*
X124992Y326313D01*
X122988Y325483D01*
X120894Y324922D01*
X119183Y324697D01*
X119183Y339657D01*
G37*
%LPD*%
%LPC*%
G36*
X101177Y280103D02*
X101177Y280103D01*
X101402Y281814D01*
X101963Y283908D01*
X102793Y285912D01*
X103877Y287789D01*
X105197Y289509D01*
X106731Y291043D01*
X108451Y292363D01*
X110328Y293447D01*
X112332Y294277D01*
X114426Y294838D01*
X116137Y295063D01*
X116137Y280103D01*
X101177Y280103D01*
G37*
%LPD*%
%LPC*%
G36*
X38577Y280103D02*
X38577Y280103D01*
X38802Y281814D01*
X39363Y283908D01*
X40193Y285912D01*
X41277Y287789D01*
X42597Y289509D01*
X44131Y291043D01*
X45851Y292363D01*
X47728Y293447D01*
X49732Y294277D01*
X51826Y294838D01*
X53537Y295063D01*
X53537Y280103D01*
X38577Y280103D01*
G37*
%LPD*%
%LPC*%
G36*
X119183Y277057D02*
X119183Y277057D01*
X134143Y277057D01*
X133918Y275346D01*
X133357Y273252D01*
X132527Y271248D01*
X131443Y269371D01*
X130123Y267651D01*
X128589Y266117D01*
X126869Y264797D01*
X124992Y263713D01*
X122988Y262883D01*
X120894Y262322D01*
X119183Y262097D01*
X119183Y277057D01*
G37*
%LPD*%
%LPC*%
G36*
X56583Y277057D02*
X56583Y277057D01*
X71543Y277057D01*
X71318Y275346D01*
X70757Y273252D01*
X69927Y271248D01*
X68843Y269371D01*
X67523Y267651D01*
X65989Y266117D01*
X64269Y264797D01*
X62392Y263713D01*
X60388Y262883D01*
X58294Y262322D01*
X56583Y262097D01*
X56583Y277057D01*
G37*
%LPD*%
%LPC*%
G36*
X38577Y121723D02*
X38577Y121723D01*
X38802Y123434D01*
X39363Y125528D01*
X40193Y127532D01*
X41277Y129409D01*
X42597Y131129D01*
X44131Y132663D01*
X45851Y133983D01*
X47728Y135067D01*
X49732Y135897D01*
X51826Y136458D01*
X53537Y136683D01*
X53537Y121723D01*
X38577Y121723D01*
G37*
%LPD*%
%LPC*%
G36*
X101177Y121723D02*
X101177Y121723D01*
X101402Y123434D01*
X101963Y125528D01*
X102793Y127532D01*
X103877Y129409D01*
X105197Y131129D01*
X106731Y132663D01*
X108451Y133983D01*
X110328Y135067D01*
X112332Y135897D01*
X114426Y136458D01*
X116137Y136683D01*
X116137Y121723D01*
X101177Y121723D01*
G37*
%LPD*%
%LPC*%
G36*
X119183Y118677D02*
X119183Y118677D01*
X134143Y118677D01*
X133918Y116966D01*
X133357Y114872D01*
X132527Y112868D01*
X131443Y110991D01*
X130123Y109271D01*
X128589Y107737D01*
X126869Y106417D01*
X124992Y105333D01*
X122988Y104503D01*
X120894Y103942D01*
X119183Y103717D01*
X119183Y118677D01*
G37*
%LPD*%
%LPC*%
G36*
X56583Y118677D02*
X56583Y118677D01*
X71543Y118677D01*
X71318Y116966D01*
X70757Y114872D01*
X69927Y112868D01*
X68843Y110991D01*
X67523Y109271D01*
X65989Y107737D01*
X64269Y106417D01*
X62392Y105333D01*
X60388Y104503D01*
X58294Y103942D01*
X56583Y103717D01*
X56583Y118677D01*
G37*
%LPD*%
%LPC*%
G36*
X38577Y59123D02*
X38577Y59123D01*
X38802Y60834D01*
X39363Y62928D01*
X40193Y64932D01*
X41277Y66809D01*
X42597Y68529D01*
X44131Y70063D01*
X45851Y71383D01*
X47728Y72467D01*
X49732Y73297D01*
X51826Y73858D01*
X53537Y74083D01*
X53537Y59123D01*
X38577Y59123D01*
G37*
%LPD*%
%LPC*%
G36*
X51826Y262322D02*
X51826Y262322D01*
X49732Y262883D01*
X47728Y263713D01*
X45851Y264797D01*
X44131Y266117D01*
X42597Y267651D01*
X41277Y269371D01*
X40193Y271248D01*
X39363Y273252D01*
X38802Y275346D01*
X38577Y277057D01*
X53537Y277057D01*
X53537Y262097D01*
X51826Y262322D01*
G37*
%LPD*%
%LPC*%
G36*
X51826Y468062D02*
X51826Y468062D01*
X49732Y468623D01*
X47728Y469453D01*
X45851Y470537D01*
X44131Y471857D01*
X42597Y473391D01*
X41277Y475111D01*
X40193Y476988D01*
X39363Y478992D01*
X38802Y481086D01*
X38577Y482797D01*
X53537Y482797D01*
X53537Y467837D01*
X51826Y468062D01*
G37*
%LPD*%
%LPC*%
G36*
X51826Y41342D02*
X51826Y41342D01*
X49732Y41903D01*
X47728Y42733D01*
X45851Y43817D01*
X44131Y45137D01*
X42597Y46671D01*
X41277Y48391D01*
X40193Y50268D01*
X39363Y52272D01*
X38802Y54366D01*
X38577Y56077D01*
X53537Y56077D01*
X53537Y41117D01*
X51826Y41342D01*
G37*
%LPD*%
%LPC*%
G36*
X114426Y530662D02*
X114426Y530662D01*
X112332Y531223D01*
X110328Y532053D01*
X108451Y533137D01*
X106731Y534457D01*
X105197Y535991D01*
X103877Y537711D01*
X102793Y539588D01*
X101963Y541592D01*
X101402Y543686D01*
X101177Y545397D01*
X116137Y545397D01*
X116137Y530437D01*
X114426Y530662D01*
G37*
%LPD*%
%LPC*%
G36*
X114426Y41342D02*
X114426Y41342D01*
X112332Y41903D01*
X110328Y42733D01*
X108451Y43817D01*
X106731Y45137D01*
X105197Y46671D01*
X103877Y48391D01*
X102793Y50268D01*
X101963Y52272D01*
X101402Y54366D01*
X101177Y56077D01*
X116137Y56077D01*
X116137Y41117D01*
X114426Y41342D01*
G37*
%LPD*%
%LPC*%
G36*
X51826Y324922D02*
X51826Y324922D01*
X49732Y325483D01*
X47728Y326313D01*
X45851Y327397D01*
X44131Y328717D01*
X42597Y330251D01*
X41277Y331971D01*
X40193Y333848D01*
X39363Y335852D01*
X38802Y337946D01*
X38577Y339657D01*
X53537Y339657D01*
X53537Y324697D01*
X51826Y324922D01*
G37*
%LPD*%
%LPC*%
G36*
X51826Y530662D02*
X51826Y530662D01*
X49732Y531223D01*
X47728Y532053D01*
X45851Y533137D01*
X44131Y534457D01*
X42597Y535991D01*
X41277Y537711D01*
X40193Y539588D01*
X39363Y541592D01*
X38802Y543686D01*
X38577Y545397D01*
X53537Y545397D01*
X53537Y530437D01*
X51826Y530662D01*
G37*
%LPD*%
%LPC*%
G36*
X114426Y262322D02*
X114426Y262322D01*
X112332Y262883D01*
X110328Y263713D01*
X108451Y264797D01*
X106731Y266117D01*
X105197Y267651D01*
X103877Y269371D01*
X102793Y271248D01*
X101963Y273252D01*
X101402Y275346D01*
X101177Y277057D01*
X116137Y277057D01*
X116137Y262097D01*
X114426Y262322D01*
G37*
%LPD*%
%LPC*%
G36*
X51826Y103942D02*
X51826Y103942D01*
X49732Y104503D01*
X47728Y105333D01*
X45851Y106417D01*
X44131Y107737D01*
X42597Y109271D01*
X41277Y110991D01*
X40193Y112868D01*
X39363Y114872D01*
X38802Y116966D01*
X38577Y118677D01*
X53537Y118677D01*
X53537Y103717D01*
X51826Y103942D01*
G37*
%LPD*%
%LPC*%
G36*
X114426Y468062D02*
X114426Y468062D01*
X112332Y468623D01*
X110328Y469453D01*
X108451Y470537D01*
X106731Y471857D01*
X105197Y473391D01*
X103877Y475111D01*
X102793Y476988D01*
X101963Y478992D01*
X101402Y481086D01*
X101177Y482797D01*
X116137Y482797D01*
X116137Y467837D01*
X114426Y468062D01*
G37*
%LPD*%
%LPC*%
G36*
X114426Y103942D02*
X114426Y103942D01*
X112332Y104503D01*
X110328Y105333D01*
X108451Y106417D01*
X106731Y107737D01*
X105197Y109271D01*
X103877Y110991D01*
X102793Y112868D01*
X101963Y114872D01*
X101402Y116966D01*
X101177Y118677D01*
X116137Y118677D01*
X116137Y103717D01*
X114426Y103942D01*
G37*
%LPD*%
%LPC*%
G36*
X306323Y825753D02*
X306323Y825753D01*
X306323Y833311D01*
X312234Y833311D01*
X313989Y832962D01*
X315641Y832277D01*
X317129Y831283D01*
X318393Y830019D01*
X319387Y828531D01*
X320072Y826879D01*
X320296Y825753D01*
X306323Y825753D01*
G37*
%LPD*%
%LPC*%
G36*
X289304Y825753D02*
X289304Y825753D01*
X289528Y826879D01*
X290213Y828531D01*
X291207Y830019D01*
X292471Y831283D01*
X293959Y832277D01*
X295611Y832962D01*
X297366Y833311D01*
X303277Y833311D01*
X303277Y825753D01*
X289304Y825753D01*
G37*
%LPD*%
%LPC*%
G36*
X306323Y815149D02*
X306323Y815149D01*
X306323Y822707D01*
X320296Y822707D01*
X320072Y821581D01*
X319387Y819929D01*
X318393Y818441D01*
X317129Y817177D01*
X315641Y816183D01*
X313989Y815498D01*
X312234Y815149D01*
X306323Y815149D01*
G37*
%LPD*%
%LPC*%
G36*
X297366Y815149D02*
X297366Y815149D01*
X295611Y815498D01*
X293959Y816183D01*
X292471Y817177D01*
X291207Y818441D01*
X290213Y819929D01*
X289528Y821581D01*
X289304Y822707D01*
X303277Y822707D01*
X303277Y815149D01*
X297366Y815149D01*
G37*
%LPD*%
%LPC*%
G36*
X57768Y700023D02*
X57768Y700023D01*
X57768Y706041D01*
X64079Y706041D01*
X64726Y705868D01*
X65305Y705533D01*
X65778Y705060D01*
X66113Y704481D01*
X66286Y703834D01*
X66286Y700023D01*
X57768Y700023D01*
G37*
%LPD*%
%LPC*%
G36*
X57768Y690959D02*
X57768Y690959D01*
X57768Y696977D01*
X66286Y696977D01*
X66286Y693165D01*
X66113Y692519D01*
X65778Y691940D01*
X65305Y691467D01*
X64726Y691132D01*
X64079Y690959D01*
X57768Y690959D01*
G37*
%LPD*%
%LPC*%
G36*
X159003Y850763D02*
X159003Y850763D01*
X159003Y857281D01*
X162815Y857281D01*
X163461Y857108D01*
X164040Y856773D01*
X164513Y856300D01*
X164848Y855721D01*
X165021Y855074D01*
X165021Y850763D01*
X159003Y850763D01*
G37*
%LPD*%
%LPC*%
G36*
X199643Y850763D02*
X199643Y850763D01*
X199643Y857281D01*
X203455Y857281D01*
X204101Y857108D01*
X204680Y856773D01*
X205153Y856300D01*
X205488Y855721D01*
X205661Y855074D01*
X205661Y850763D01*
X199643Y850763D01*
G37*
%LPD*%
%LPC*%
G36*
X112999Y595883D02*
X112999Y595883D01*
X112999Y599694D01*
X113172Y600341D01*
X113507Y600920D01*
X113980Y601393D01*
X114559Y601728D01*
X115206Y601901D01*
X119517Y601901D01*
X119517Y595883D01*
X112999Y595883D01*
G37*
%LPD*%
%LPC*%
G36*
X275843Y816579D02*
X275843Y816579D01*
X275843Y823097D01*
X281861Y823097D01*
X281861Y818786D01*
X281688Y818139D01*
X281353Y817560D01*
X280880Y817087D01*
X280301Y816752D01*
X279654Y816579D01*
X275843Y816579D01*
G37*
%LPD*%
%LPC*%
G36*
X149939Y850763D02*
X149939Y850763D01*
X149939Y855074D01*
X150112Y855721D01*
X150447Y856300D01*
X150920Y856773D01*
X151499Y857108D01*
X152146Y857281D01*
X155957Y857281D01*
X155957Y850763D01*
X149939Y850763D01*
G37*
%LPD*%
%LPC*%
G36*
X190579Y850763D02*
X190579Y850763D01*
X190579Y855074D01*
X190752Y855721D01*
X191087Y856300D01*
X191560Y856773D01*
X192139Y857108D01*
X192786Y857281D01*
X196597Y857281D01*
X196597Y850763D01*
X190579Y850763D01*
G37*
%LPD*%
%LPC*%
G36*
X268986Y816579D02*
X268986Y816579D01*
X268339Y816752D01*
X267760Y817087D01*
X267287Y817560D01*
X266952Y818139D01*
X266779Y818786D01*
X266779Y823097D01*
X272797Y823097D01*
X272797Y816579D01*
X268986Y816579D01*
G37*
%LPD*%
%LPC*%
G36*
X115206Y586819D02*
X115206Y586819D01*
X114559Y586992D01*
X113980Y587327D01*
X113507Y587800D01*
X113172Y588379D01*
X112999Y589026D01*
X112999Y592837D01*
X119517Y592837D01*
X119517Y586819D01*
X115206Y586819D01*
G37*
%LPD*%
%LPC*%
G36*
X117081Y643501D02*
X117081Y643501D01*
X117081Y646979D01*
X126861Y646979D01*
X126861Y645906D01*
X126735Y645437D01*
X126724Y645322D01*
X126710Y645209D01*
X126711Y645199D01*
X126711Y645192D01*
X126716Y645171D01*
X126735Y645043D01*
X126861Y644574D01*
X126861Y643501D01*
X117081Y643501D01*
G37*
%LPD*%
%LPC*%
G36*
X105779Y643501D02*
X105779Y643501D01*
X105779Y644574D01*
X105905Y645043D01*
X105916Y645157D01*
X105930Y645271D01*
X105929Y645281D01*
X105929Y645288D01*
X105924Y645309D01*
X105905Y645437D01*
X105779Y645905D01*
X105779Y646979D01*
X115559Y646979D01*
X115559Y643501D01*
X105779Y643501D01*
G37*
%LPD*%
%LPC*%
G36*
X165581Y608699D02*
X165581Y608699D01*
X165581Y618479D01*
X168861Y618479D01*
X168861Y610906D01*
X168688Y610259D01*
X168353Y609680D01*
X167880Y609207D01*
X167301Y608872D01*
X166654Y608699D01*
X165581Y608699D01*
G37*
%LPD*%
%LPC*%
G36*
X127986Y608699D02*
X127986Y608699D01*
X127339Y608872D01*
X126760Y609207D01*
X126287Y609680D01*
X125952Y610259D01*
X125779Y610906D01*
X125779Y618479D01*
X129059Y618479D01*
X129059Y608699D01*
X127986Y608699D01*
G37*
%LPD*%
%LPC*%
G36*
X117659Y120199D02*
X117659Y120199D01*
X117659Y120201D01*
X117661Y120201D01*
X117661Y120199D01*
X117659Y120199D01*
G37*
%LPD*%
%LPC*%
G36*
X55059Y120199D02*
X55059Y120199D01*
X55059Y120201D01*
X55061Y120201D01*
X55061Y120199D01*
X55059Y120199D01*
G37*
%LPD*%
%LPC*%
G36*
X117659Y546919D02*
X117659Y546919D01*
X117659Y546921D01*
X117661Y546921D01*
X117661Y546919D01*
X117659Y546919D01*
G37*
%LPD*%
%LPC*%
G36*
X304799Y824229D02*
X304799Y824229D01*
X304799Y824231D01*
X304801Y824231D01*
X304801Y824229D01*
X304799Y824229D01*
G37*
%LPD*%
%LPC*%
G36*
X55059Y278579D02*
X55059Y278579D01*
X55059Y278581D01*
X55061Y278581D01*
X55061Y278579D01*
X55059Y278579D01*
G37*
%LPD*%
%LPC*%
G36*
X117659Y278579D02*
X117659Y278579D01*
X117659Y278581D01*
X117661Y278581D01*
X117661Y278579D01*
X117659Y278579D01*
G37*
%LPD*%
%LPC*%
G36*
X55059Y341179D02*
X55059Y341179D01*
X55059Y341181D01*
X55061Y341181D01*
X55061Y341179D01*
X55059Y341179D01*
G37*
%LPD*%
%LPC*%
G36*
X117659Y57599D02*
X117659Y57599D01*
X117659Y57601D01*
X117661Y57601D01*
X117661Y57599D01*
X117659Y57599D01*
G37*
%LPD*%
%LPC*%
G36*
X55059Y57599D02*
X55059Y57599D01*
X55059Y57601D01*
X55061Y57601D01*
X55061Y57599D01*
X55059Y57599D01*
G37*
%LPD*%
%LPC*%
G36*
X55059Y484319D02*
X55059Y484319D01*
X55059Y484321D01*
X55061Y484321D01*
X55061Y484319D01*
X55059Y484319D01*
G37*
%LPD*%
%LPC*%
G36*
X117659Y484319D02*
X117659Y484319D01*
X117659Y484321D01*
X117661Y484321D01*
X117661Y484319D01*
X117659Y484319D01*
G37*
%LPD*%
D10*
X274320Y841620D03*
X274320Y824620D03*
X198120Y832240D03*
X198120Y849240D03*
D11*
X138040Y594360D03*
X121040Y594360D03*
D10*
X157480Y832240D03*
X157480Y849240D03*
D12*
X129820Y681240D03*
X134820Y681240D03*
X139820Y681240D03*
X144820Y681240D03*
X149820Y681240D03*
X154820Y681240D03*
X159820Y681240D03*
X164820Y681240D03*
D13*
X178320Y667740D03*
X178320Y662740D03*
X178320Y657740D03*
X178320Y652740D03*
X178320Y647740D03*
X178320Y642740D03*
X178320Y637740D03*
X178320Y632740D03*
D12*
X164820Y619240D03*
X159820Y619240D03*
X154820Y619240D03*
X149820Y619240D03*
X144820Y619240D03*
X139820Y619240D03*
X134820Y619240D03*
X129820Y619240D03*
D13*
X116320Y632740D03*
X116320Y637740D03*
X116320Y642740D03*
X116320Y647740D03*
X116320Y652740D03*
X116320Y657740D03*
X116320Y662740D03*
X116320Y667740D03*
D11*
X116840Y849240D03*
X116840Y832240D03*
D14*
X56245Y698500D03*
X35195Y698500D03*
D10*
X237880Y734060D03*
X254880Y734060D03*
X235340Y213360D03*
X252340Y213360D03*
X237880Y703580D03*
X254880Y703580D03*
X207400Y680720D03*
X224400Y680720D03*
X217560Y624840D03*
X234560Y624840D03*
X235340Y650240D03*
X252340Y650240D03*
D11*
X218440Y298060D03*
X218440Y281060D03*
D10*
X216780Y579120D03*
X199780Y579120D03*
D15*
X298260Y849630D02*
X311340Y849630D01*
X311340Y824230D02*
X298260Y824230D01*
X298260Y798830D02*
X311340Y798830D01*
X311340Y773430D02*
X298260Y773430D01*
X298260Y748030D02*
X311340Y748030D01*
X311340Y722630D02*
X298260Y722630D01*
X298260Y697230D02*
X311340Y697230D01*
X311340Y671830D02*
X298260Y671830D01*
X298260Y646430D02*
X311340Y646430D01*
X311340Y621030D02*
X298260Y621030D01*
X298260Y595630D02*
X311340Y595630D01*
X311340Y570230D02*
X298260Y570230D01*
X298260Y544830D02*
X311340Y544830D01*
X311340Y519430D02*
X298260Y519430D01*
X298260Y494030D02*
X311340Y494030D01*
X311340Y468630D02*
X298260Y468630D01*
X298260Y443230D02*
X311340Y443230D01*
X311340Y417830D02*
X298260Y417830D01*
X298260Y392430D02*
X311340Y392430D01*
X311340Y367030D02*
X298260Y367030D01*
X298260Y341630D02*
X311340Y341630D01*
X311340Y316230D02*
X298260Y316230D01*
X298260Y290830D02*
X311340Y290830D01*
X311340Y265430D02*
X298260Y265430D01*
X298260Y240030D02*
X311340Y240030D01*
X311340Y214630D02*
X298260Y214630D01*
X298260Y189230D02*
X311340Y189230D01*
X311340Y163830D02*
X298260Y163830D01*
X298260Y138430D02*
X311340Y138430D01*
X311340Y113030D02*
X298260Y113030D01*
X298260Y87630D02*
X311340Y87630D01*
X311340Y62230D02*
X298260Y62230D01*
X298260Y36830D02*
X311340Y36830D01*
D16*
X48510Y848571D03*
X48510Y797771D03*
X48510Y746971D03*
D17*
X55060Y120200D03*
X117660Y120200D03*
X55060Y57600D03*
X117660Y57600D03*
D18*
X86360Y88900D03*
D17*
X55060Y341180D03*
X117660Y341180D03*
X55060Y278580D03*
X117660Y278580D03*
D18*
X86360Y309880D03*
D17*
X55060Y546920D03*
X117660Y546920D03*
X55060Y484320D03*
X117660Y484320D03*
D18*
X86360Y515620D03*
D11*
X170180Y750180D03*
X170180Y733180D03*
X144780Y750180D03*
X144780Y733180D03*
X119380Y750180D03*
X119380Y733180D03*
X45720Y631580D03*
X45720Y648580D03*
X68580Y631580D03*
X68580Y648580D03*
X91440Y631580D03*
X91440Y648580D03*
D19*
X116840Y832240D02*
X157480Y832240D01*
X198120Y832240D01*
X246380Y832240D01*
X274320Y841620D02*
X282330Y849630D01*
X304800Y849630D01*
X246380Y832240D02*
X246380Y805180D01*
X255760Y841620D02*
X274320Y841620D01*
X255760Y841620D02*
X246380Y832240D01*
D20*
X134412Y637740D03*
D21*
X116320Y637740D01*
D20*
X162560Y637740D03*
D21*
X178320Y637740D01*
D19*
X195580Y754380D02*
X246380Y805180D01*
D20*
X195580Y746760D03*
D19*
X195580Y754380D01*
D22*
X178320Y637740D02*
X178320Y632740D01*
D19*
X287020Y341630D02*
X304800Y341630D01*
X287020Y341630D02*
X271780Y356870D01*
X271780Y640080D01*
X261620Y650240D01*
X252340Y650240D01*
X303530Y317500D02*
X304800Y316230D01*
X303530Y317500D02*
X287020Y317500D01*
X236220Y680720D02*
X224400Y680720D01*
X236220Y680720D02*
X243840Y673100D01*
X243840Y665480D01*
X254000Y350520D02*
X287020Y317500D01*
X254000Y350520D02*
X254000Y629920D01*
D20*
X254000Y629920D03*
X243840Y665480D03*
D19*
X234560Y624840D02*
X234560Y350910D01*
X294640Y290830D02*
X304800Y290830D01*
X294640Y290830D02*
X234560Y350910D01*
X342192Y256540D02*
X342192Y727148D01*
X342192Y256540D02*
X325682Y240030D01*
X304800Y240030D01*
D23*
X335280Y734060D02*
X254880Y734060D01*
X335280Y734060D02*
X342192Y727148D01*
D19*
X322580Y683260D02*
X330200Y675640D01*
X330200Y275590D02*
X320040Y265430D01*
X304800Y265430D01*
X330200Y275590D02*
X330200Y675640D01*
D23*
X322580Y683260D02*
X321310Y684530D01*
X285750Y684530D01*
X266700Y703580D01*
X254880Y703580D01*
D19*
X253610Y214630D02*
X304800Y214630D01*
X253610Y214630D02*
X252340Y213360D01*
X218830Y280670D02*
X218440Y281060D01*
X254000Y254000D02*
X280828Y227172D01*
X304800Y189230D02*
X320040Y189230D01*
X218440Y264160D02*
X218440Y281060D01*
X218440Y264160D02*
X228600Y254000D01*
X254000Y254000D01*
X320040Y189230D02*
X332105Y201295D01*
X332105Y215900D01*
X320833Y227172D01*
X280828Y227172D01*
D20*
X175260Y513080D03*
D19*
X274320Y824620D02*
X304410Y824620D01*
X304800Y824230D01*
X237880Y734060D02*
X200660Y734060D01*
D24*
X167640Y701040D01*
D21*
X164820Y698220D02*
X164820Y681240D01*
X164820Y698220D02*
X167640Y701040D01*
D19*
X162360Y588760D02*
X191410Y559710D01*
X162360Y588760D02*
X162360Y596380D01*
D21*
X159820Y598920D02*
X159820Y619240D01*
X159820Y598920D02*
X162360Y596380D01*
D19*
X218440Y213360D02*
X235340Y213360D01*
X191410Y240390D02*
X191410Y559710D01*
X191410Y240390D02*
X218440Y213360D01*
X236610Y702310D02*
X237880Y703580D01*
X236610Y702310D02*
X196850Y702310D01*
X178320Y683780D01*
D24*
X178320Y678180D01*
D21*
X178320Y667740D01*
D24*
X195580Y678180D02*
X198120Y680720D01*
X207400Y680720D01*
X195580Y668900D02*
X189620Y662940D01*
X195580Y668900D02*
X195580Y678180D01*
D21*
X178520Y662940D02*
X178320Y662740D01*
X178520Y662940D02*
X189620Y662940D01*
D24*
X205740Y652780D02*
X217560Y640960D01*
X217560Y624840D01*
D21*
X205700Y652740D02*
X178320Y652740D01*
X205700Y652740D02*
X205740Y652780D01*
D24*
X215900Y657860D02*
X223520Y650240D01*
X215900Y657860D02*
X208280Y657860D01*
X223520Y650240D02*
X235340Y650240D01*
D21*
X208160Y657740D02*
X178320Y657740D01*
X208160Y657740D02*
X208280Y657860D01*
D24*
X200660Y647700D02*
X205740Y642620D01*
X205740Y612140D01*
D21*
X200620Y647740D02*
X178320Y647740D01*
X200620Y647740D02*
X200660Y647700D01*
D19*
X218440Y599440D02*
X218440Y581660D01*
X218440Y298060D01*
X218440Y599440D02*
X205740Y612140D01*
X218440Y580780D02*
X216780Y579120D01*
X218440Y580780D02*
X218440Y581660D01*
X73660Y848571D02*
X48510Y848571D01*
X73660Y848571D02*
X96520Y848571D01*
X116171Y848571D01*
X116840Y849240D01*
X95356Y826876D02*
X170180Y752051D01*
X170180Y750180D01*
X95356Y826876D02*
X95356Y847407D01*
X96520Y848571D01*
X144780Y762066D02*
X144780Y750180D01*
X144780Y762066D02*
X108994Y797852D01*
X48591Y797852D01*
X48510Y797771D01*
X48510Y746971D02*
X35195Y733656D01*
X35195Y698500D01*
X48510Y746971D02*
X51719Y750180D01*
X119380Y750180D01*
X76200Y525780D02*
X86360Y515620D01*
X76200Y525780D02*
X76200Y568960D01*
X45720Y599440D01*
X45720Y631580D01*
D24*
X134620Y703580D02*
X139700Y698500D01*
X134620Y703580D02*
X104140Y703580D01*
X68580Y668020D01*
X68580Y648580D01*
D21*
X139700Y681360D02*
X139820Y681240D01*
X139700Y681360D02*
X139700Y698500D01*
D24*
X134820Y695760D02*
X132080Y698500D01*
X111760Y698500D01*
X91440Y678180D02*
X91440Y648580D01*
X91440Y678180D02*
X111760Y698500D01*
D21*
X134820Y695760D02*
X134820Y681240D01*
D19*
X199780Y590160D02*
X199780Y579120D01*
X199780Y590160D02*
X195580Y594360D01*
D20*
X195580Y594360D03*
D24*
X134820Y597580D02*
X134820Y604520D01*
X134820Y597580D02*
X138040Y594360D01*
D21*
X134820Y604520D02*
X134820Y619240D01*
D24*
X137160Y708660D02*
X93980Y708660D01*
X45720Y660400D02*
X45720Y648580D01*
X137160Y708660D02*
X144820Y701000D01*
X93980Y708660D02*
X45720Y660400D01*
D21*
X144820Y681240D02*
X144820Y701000D01*
D19*
X69596Y630564D02*
X68580Y631580D01*
X81280Y482804D02*
X81280Y314960D01*
X86360Y309880D01*
X69596Y600760D02*
X69596Y630564D01*
X88900Y581456D02*
X88900Y540004D01*
X88900Y581456D02*
X69596Y600760D01*
X106578Y508102D02*
X81280Y482804D01*
X106578Y508102D02*
X106578Y522326D01*
X88900Y540004D01*
D24*
X92270Y630750D02*
X91440Y631580D01*
D19*
X86360Y282144D02*
X86360Y88900D01*
X86360Y282144D02*
X105664Y301448D01*
X105664Y318312D01*
X115552Y575292D02*
X92456Y598389D01*
X96553Y327423D02*
X105664Y318312D01*
X92456Y598389D02*
X92456Y630564D01*
X96553Y411549D02*
X96553Y327423D01*
X92456Y630564D02*
X92270Y630750D01*
X147320Y553720D02*
X147320Y462315D01*
X96553Y411549D01*
X147320Y553720D02*
X125748Y575292D01*
X115552Y575292D01*
D24*
X148590Y704850D02*
X134620Y718820D01*
X124460Y718820D01*
X119380Y723900D01*
X119380Y733180D01*
D21*
X149820Y703620D02*
X149820Y681240D01*
X149820Y703620D02*
X148590Y704850D01*
D24*
X170180Y717940D02*
X170180Y733180D01*
X170180Y717940D02*
X163000Y710760D01*
D21*
X159820Y707580D02*
X159820Y681240D01*
X159820Y707580D02*
X163000Y710760D01*
D24*
X144780Y718820D02*
X144780Y733180D01*
X144780Y718820D02*
X149860Y713740D01*
D21*
X154820Y708780D01*
X154820Y681240D01*
M02*
