M48
;GenerationSoftware,Autodesk,EAGLE,9.2.1*%
;CreationDate,2019-06-07T15:42:00Z*%
FMAT,2
ICI,OFF
METRIC,TZ,000.000
T5C0.350
T4C0.800
T3C1.100
T2C1.300
T1C1.600
%
G90
M71
T1
X11766Y5760
X5506Y5760
X11766Y12020
X5506Y12020
X5506Y27858
X5506Y34118
X11766Y34118
X11766Y27858
X5506Y54692
X11766Y54692
X5506Y48432
X11766Y48432
T2
X4851Y84857
X4851Y74697
X4851Y79777
T3
X8636Y8890
X8636Y30988
X8636Y51562
T4
X30480Y57023
X30480Y54483
X30480Y51943
X30480Y49403
X30480Y46863
X30480Y44323
X30480Y41783
X30480Y39243
X30480Y36703
X30480Y34163
X30480Y31623
X30480Y67183
X30480Y26543
X30480Y24003
X30480Y21463
X30480Y18923
X30480Y16383
X30480Y13843
X30480Y11303
X30480Y8763
X30480Y6223
X30480Y3683
X30480Y84963
X30480Y82423
X30480Y79883
X30480Y29083
X30480Y77343
X30480Y74803
X30480Y72263
X30480Y69723
X30480Y64643
X30480Y62103
X30480Y59563
T5
X25400Y62992
X19558Y74676
X16256Y63774
X13441Y63774
X19558Y59436
X17526Y51308
X24384Y66548
M30