G04 EAGLE Gerber RS-274X export*
G75*
%MOMM*%
%FSLAX34Y34*%
%LPD*%
%INSilkscreen Top*%
%IPPOS*%
%AMOC8*
5,1,8,0,0,1.08239X$1,22.5*%
G01*
%ADD10C,0.076200*%
%ADD11C,0.101600*%
%ADD12R,0.225000X0.250000*%
%ADD13C,0.200000*%
%ADD14C,0.203200*%
%ADD15C,0.127000*%
%ADD16C,0.152400*%


D10*
X243595Y849856D02*
X249860Y849856D01*
X246727Y846723D02*
X246727Y852988D01*
X253870Y846201D02*
X256481Y846201D01*
X256582Y846203D01*
X256683Y846209D01*
X256784Y846219D01*
X256884Y846232D01*
X256984Y846250D01*
X257083Y846271D01*
X257181Y846297D01*
X257278Y846326D01*
X257374Y846358D01*
X257468Y846395D01*
X257561Y846435D01*
X257653Y846479D01*
X257742Y846526D01*
X257830Y846577D01*
X257916Y846631D01*
X257999Y846688D01*
X258081Y846748D01*
X258159Y846812D01*
X258236Y846878D01*
X258309Y846948D01*
X258380Y847020D01*
X258448Y847095D01*
X258513Y847173D01*
X258575Y847253D01*
X258634Y847335D01*
X258690Y847420D01*
X258742Y847507D01*
X258791Y847595D01*
X258837Y847686D01*
X258878Y847778D01*
X258917Y847872D01*
X258951Y847967D01*
X258982Y848063D01*
X259009Y848161D01*
X259033Y848259D01*
X259052Y848359D01*
X259068Y848459D01*
X259080Y848559D01*
X259088Y848660D01*
X259092Y848761D01*
X259092Y848863D01*
X259088Y848964D01*
X259080Y849065D01*
X259068Y849165D01*
X259052Y849265D01*
X259033Y849365D01*
X259009Y849463D01*
X258982Y849561D01*
X258951Y849657D01*
X258917Y849752D01*
X258878Y849846D01*
X258837Y849938D01*
X258791Y850029D01*
X258742Y850118D01*
X258690Y850204D01*
X258634Y850289D01*
X258575Y850371D01*
X258513Y850451D01*
X258448Y850529D01*
X258380Y850604D01*
X258309Y850676D01*
X258236Y850746D01*
X258159Y850812D01*
X258081Y850876D01*
X257999Y850936D01*
X257916Y850993D01*
X257830Y851047D01*
X257742Y851098D01*
X257653Y851145D01*
X257561Y851189D01*
X257468Y851229D01*
X257374Y851266D01*
X257278Y851298D01*
X257181Y851327D01*
X257083Y851353D01*
X256984Y851374D01*
X256884Y851392D01*
X256784Y851405D01*
X256683Y851415D01*
X256582Y851421D01*
X256481Y851423D01*
X257003Y855599D02*
X253870Y855599D01*
X257003Y855599D02*
X257093Y855597D01*
X257182Y855591D01*
X257272Y855582D01*
X257361Y855568D01*
X257449Y855551D01*
X257536Y855530D01*
X257623Y855505D01*
X257708Y855476D01*
X257792Y855444D01*
X257874Y855409D01*
X257955Y855369D01*
X258034Y855327D01*
X258111Y855281D01*
X258186Y855231D01*
X258259Y855179D01*
X258330Y855123D01*
X258398Y855065D01*
X258463Y855003D01*
X258526Y854939D01*
X258586Y854872D01*
X258643Y854803D01*
X258697Y854731D01*
X258748Y854657D01*
X258796Y854581D01*
X258840Y854503D01*
X258881Y854423D01*
X258919Y854341D01*
X258953Y854258D01*
X258983Y854173D01*
X259010Y854087D01*
X259033Y854001D01*
X259052Y853913D01*
X259067Y853824D01*
X259079Y853735D01*
X259087Y853646D01*
X259091Y853556D01*
X259091Y853466D01*
X259087Y853376D01*
X259079Y853287D01*
X259067Y853198D01*
X259052Y853109D01*
X259033Y853021D01*
X259010Y852935D01*
X258983Y852849D01*
X258953Y852764D01*
X258919Y852681D01*
X258881Y852599D01*
X258840Y852519D01*
X258796Y852441D01*
X258748Y852365D01*
X258697Y852291D01*
X258643Y852219D01*
X258586Y852150D01*
X258526Y852083D01*
X258463Y852019D01*
X258398Y851957D01*
X258330Y851899D01*
X258259Y851843D01*
X258186Y851791D01*
X258111Y851741D01*
X258034Y851695D01*
X257955Y851653D01*
X257874Y851613D01*
X257792Y851578D01*
X257708Y851546D01*
X257623Y851517D01*
X257536Y851492D01*
X257449Y851471D01*
X257361Y851454D01*
X257272Y851440D01*
X257182Y851431D01*
X257093Y851425D01*
X257003Y851423D01*
X257003Y851422D02*
X254915Y851422D01*
X262621Y846723D02*
X262621Y846201D01*
X262621Y846723D02*
X263143Y846723D01*
X263143Y846201D01*
X262621Y846201D01*
X266672Y846201D02*
X269282Y846201D01*
X269383Y846203D01*
X269484Y846209D01*
X269585Y846219D01*
X269685Y846232D01*
X269785Y846250D01*
X269884Y846271D01*
X269982Y846297D01*
X270079Y846326D01*
X270175Y846358D01*
X270269Y846395D01*
X270362Y846435D01*
X270454Y846479D01*
X270543Y846526D01*
X270631Y846577D01*
X270717Y846631D01*
X270800Y846688D01*
X270882Y846748D01*
X270960Y846812D01*
X271037Y846878D01*
X271110Y846948D01*
X271181Y847020D01*
X271249Y847095D01*
X271314Y847173D01*
X271376Y847253D01*
X271435Y847335D01*
X271491Y847420D01*
X271543Y847507D01*
X271592Y847595D01*
X271638Y847686D01*
X271679Y847778D01*
X271718Y847872D01*
X271752Y847967D01*
X271783Y848063D01*
X271810Y848161D01*
X271834Y848259D01*
X271853Y848359D01*
X271869Y848459D01*
X271881Y848559D01*
X271889Y848660D01*
X271893Y848761D01*
X271893Y848863D01*
X271889Y848964D01*
X271881Y849065D01*
X271869Y849165D01*
X271853Y849265D01*
X271834Y849365D01*
X271810Y849463D01*
X271783Y849561D01*
X271752Y849657D01*
X271718Y849752D01*
X271679Y849846D01*
X271638Y849938D01*
X271592Y850029D01*
X271543Y850118D01*
X271491Y850204D01*
X271435Y850289D01*
X271376Y850371D01*
X271314Y850451D01*
X271249Y850529D01*
X271181Y850604D01*
X271110Y850676D01*
X271037Y850746D01*
X270960Y850812D01*
X270882Y850876D01*
X270800Y850936D01*
X270717Y850993D01*
X270631Y851047D01*
X270543Y851098D01*
X270454Y851145D01*
X270362Y851189D01*
X270269Y851229D01*
X270175Y851266D01*
X270079Y851298D01*
X269982Y851327D01*
X269884Y851353D01*
X269785Y851374D01*
X269685Y851392D01*
X269585Y851405D01*
X269484Y851415D01*
X269383Y851421D01*
X269282Y851423D01*
X269805Y855599D02*
X266672Y855599D01*
X269805Y855599D02*
X269895Y855597D01*
X269984Y855591D01*
X270074Y855582D01*
X270163Y855568D01*
X270251Y855551D01*
X270338Y855530D01*
X270425Y855505D01*
X270510Y855476D01*
X270594Y855444D01*
X270676Y855409D01*
X270757Y855369D01*
X270836Y855327D01*
X270913Y855281D01*
X270988Y855231D01*
X271061Y855179D01*
X271132Y855123D01*
X271200Y855065D01*
X271265Y855003D01*
X271328Y854939D01*
X271388Y854872D01*
X271445Y854803D01*
X271499Y854731D01*
X271550Y854657D01*
X271598Y854581D01*
X271642Y854503D01*
X271683Y854423D01*
X271721Y854341D01*
X271755Y854258D01*
X271785Y854173D01*
X271812Y854087D01*
X271835Y854001D01*
X271854Y853913D01*
X271869Y853824D01*
X271881Y853735D01*
X271889Y853646D01*
X271893Y853556D01*
X271893Y853466D01*
X271889Y853376D01*
X271881Y853287D01*
X271869Y853198D01*
X271854Y853109D01*
X271835Y853021D01*
X271812Y852935D01*
X271785Y852849D01*
X271755Y852764D01*
X271721Y852681D01*
X271683Y852599D01*
X271642Y852519D01*
X271598Y852441D01*
X271550Y852365D01*
X271499Y852291D01*
X271445Y852219D01*
X271388Y852150D01*
X271328Y852083D01*
X271265Y852019D01*
X271200Y851957D01*
X271132Y851899D01*
X271061Y851843D01*
X270988Y851791D01*
X270913Y851741D01*
X270836Y851695D01*
X270757Y851653D01*
X270676Y851613D01*
X270594Y851578D01*
X270510Y851546D01*
X270425Y851517D01*
X270338Y851492D01*
X270251Y851471D01*
X270163Y851454D01*
X270074Y851440D01*
X269984Y851431D01*
X269895Y851425D01*
X269805Y851423D01*
X269805Y851422D02*
X267716Y851422D01*
X275294Y855599D02*
X278426Y846201D01*
X281559Y855599D01*
X262052Y826022D02*
X260485Y826022D01*
X262052Y826022D02*
X262052Y820801D01*
X258919Y820801D01*
X258830Y820803D01*
X258742Y820809D01*
X258654Y820818D01*
X258566Y820831D01*
X258479Y820848D01*
X258393Y820868D01*
X258308Y820893D01*
X258223Y820920D01*
X258140Y820952D01*
X258059Y820986D01*
X257979Y821025D01*
X257901Y821066D01*
X257824Y821111D01*
X257750Y821159D01*
X257677Y821210D01*
X257607Y821264D01*
X257540Y821322D01*
X257474Y821382D01*
X257412Y821444D01*
X257352Y821510D01*
X257294Y821577D01*
X257240Y821647D01*
X257189Y821720D01*
X257141Y821794D01*
X257096Y821871D01*
X257055Y821949D01*
X257016Y822029D01*
X256982Y822110D01*
X256950Y822193D01*
X256923Y822278D01*
X256898Y822363D01*
X256878Y822449D01*
X256861Y822536D01*
X256848Y822624D01*
X256839Y822712D01*
X256833Y822800D01*
X256831Y822889D01*
X256831Y828111D01*
X256833Y828202D01*
X256839Y828293D01*
X256849Y828384D01*
X256863Y828474D01*
X256880Y828563D01*
X256902Y828651D01*
X256928Y828739D01*
X256957Y828825D01*
X256990Y828910D01*
X257027Y828993D01*
X257067Y829075D01*
X257111Y829155D01*
X257158Y829233D01*
X257209Y829309D01*
X257262Y829382D01*
X257319Y829453D01*
X257380Y829522D01*
X257443Y829587D01*
X257508Y829650D01*
X257577Y829710D01*
X257648Y829768D01*
X257721Y829821D01*
X257797Y829872D01*
X257875Y829919D01*
X257955Y829963D01*
X258037Y830003D01*
X258120Y830040D01*
X258205Y830073D01*
X258291Y830102D01*
X258379Y830128D01*
X258467Y830150D01*
X258556Y830167D01*
X258646Y830181D01*
X258737Y830191D01*
X258828Y830197D01*
X258919Y830199D01*
X262052Y830199D01*
X266584Y830199D02*
X266584Y820801D01*
X271805Y820801D02*
X266584Y830199D01*
X271805Y830199D02*
X271805Y820801D01*
X276338Y820801D02*
X276338Y830199D01*
X278948Y830199D01*
X279048Y830197D01*
X279148Y830191D01*
X279247Y830182D01*
X279347Y830168D01*
X279445Y830151D01*
X279543Y830130D01*
X279640Y830106D01*
X279736Y830077D01*
X279831Y830045D01*
X279924Y830010D01*
X280016Y829971D01*
X280107Y829928D01*
X280195Y829882D01*
X280282Y829832D01*
X280367Y829780D01*
X280450Y829724D01*
X280531Y829665D01*
X280609Y829602D01*
X280685Y829537D01*
X280759Y829469D01*
X280829Y829399D01*
X280897Y829325D01*
X280962Y829249D01*
X281025Y829171D01*
X281084Y829090D01*
X281140Y829007D01*
X281192Y828922D01*
X281242Y828835D01*
X281288Y828747D01*
X281331Y828656D01*
X281370Y828564D01*
X281405Y828471D01*
X281437Y828376D01*
X281466Y828280D01*
X281490Y828183D01*
X281511Y828085D01*
X281528Y827987D01*
X281542Y827887D01*
X281551Y827788D01*
X281557Y827688D01*
X281559Y827588D01*
X281559Y823412D01*
X281557Y823312D01*
X281551Y823212D01*
X281542Y823113D01*
X281528Y823013D01*
X281511Y822915D01*
X281490Y822817D01*
X281466Y822720D01*
X281437Y822624D01*
X281405Y822529D01*
X281370Y822436D01*
X281331Y822344D01*
X281288Y822253D01*
X281242Y822165D01*
X281192Y822078D01*
X281140Y821993D01*
X281084Y821910D01*
X281025Y821829D01*
X280962Y821751D01*
X280897Y821675D01*
X280829Y821601D01*
X280759Y821531D01*
X280685Y821463D01*
X280609Y821398D01*
X280531Y821335D01*
X280450Y821276D01*
X280367Y821220D01*
X280282Y821168D01*
X280195Y821118D01*
X280107Y821072D01*
X280016Y821029D01*
X279924Y820990D01*
X279831Y820955D01*
X279736Y820923D01*
X279640Y820894D01*
X279543Y820870D01*
X279445Y820849D01*
X279347Y820832D01*
X279247Y820818D01*
X279148Y820809D01*
X279048Y820803D01*
X278948Y820801D01*
X276338Y820801D01*
X247165Y195199D02*
X247165Y185801D01*
X247165Y195199D02*
X249775Y195199D01*
X249875Y195197D01*
X249975Y195191D01*
X250074Y195182D01*
X250174Y195168D01*
X250272Y195151D01*
X250370Y195130D01*
X250467Y195106D01*
X250563Y195077D01*
X250658Y195045D01*
X250751Y195010D01*
X250843Y194971D01*
X250934Y194928D01*
X251022Y194882D01*
X251109Y194832D01*
X251194Y194780D01*
X251277Y194724D01*
X251358Y194665D01*
X251436Y194602D01*
X251512Y194537D01*
X251586Y194469D01*
X251656Y194399D01*
X251724Y194325D01*
X251789Y194249D01*
X251852Y194171D01*
X251911Y194090D01*
X251967Y194007D01*
X252019Y193922D01*
X252069Y193835D01*
X252115Y193747D01*
X252158Y193656D01*
X252197Y193564D01*
X252232Y193471D01*
X252264Y193376D01*
X252293Y193280D01*
X252317Y193183D01*
X252338Y193085D01*
X252355Y192987D01*
X252369Y192887D01*
X252378Y192788D01*
X252384Y192688D01*
X252386Y192588D01*
X252386Y188412D01*
X252384Y188312D01*
X252378Y188212D01*
X252369Y188113D01*
X252355Y188013D01*
X252338Y187915D01*
X252317Y187817D01*
X252293Y187720D01*
X252264Y187624D01*
X252232Y187529D01*
X252197Y187436D01*
X252158Y187344D01*
X252115Y187253D01*
X252069Y187165D01*
X252019Y187078D01*
X251967Y186993D01*
X251911Y186910D01*
X251852Y186829D01*
X251789Y186751D01*
X251724Y186675D01*
X251656Y186601D01*
X251586Y186531D01*
X251512Y186463D01*
X251436Y186398D01*
X251358Y186335D01*
X251277Y186276D01*
X251194Y186220D01*
X251109Y186168D01*
X251022Y186118D01*
X250934Y186072D01*
X250843Y186029D01*
X250751Y185990D01*
X250658Y185955D01*
X250563Y185923D01*
X250467Y185894D01*
X250370Y185870D01*
X250272Y185849D01*
X250174Y185832D01*
X250074Y185818D01*
X249975Y185809D01*
X249875Y185803D01*
X249775Y185801D01*
X247165Y185801D01*
X256975Y185801D02*
X256975Y195199D01*
X259586Y195199D01*
X259687Y195197D01*
X259788Y195191D01*
X259889Y195181D01*
X259989Y195168D01*
X260089Y195150D01*
X260188Y195129D01*
X260286Y195103D01*
X260383Y195074D01*
X260479Y195042D01*
X260573Y195005D01*
X260666Y194965D01*
X260758Y194921D01*
X260847Y194874D01*
X260935Y194823D01*
X261021Y194769D01*
X261104Y194712D01*
X261186Y194652D01*
X261264Y194588D01*
X261341Y194522D01*
X261414Y194452D01*
X261485Y194380D01*
X261553Y194305D01*
X261618Y194227D01*
X261680Y194147D01*
X261739Y194065D01*
X261795Y193980D01*
X261847Y193893D01*
X261896Y193805D01*
X261942Y193714D01*
X261983Y193622D01*
X262022Y193528D01*
X262056Y193433D01*
X262087Y193337D01*
X262114Y193239D01*
X262138Y193141D01*
X262157Y193041D01*
X262173Y192941D01*
X262185Y192841D01*
X262193Y192740D01*
X262197Y192639D01*
X262197Y192537D01*
X262193Y192436D01*
X262185Y192335D01*
X262173Y192235D01*
X262157Y192135D01*
X262138Y192035D01*
X262114Y191937D01*
X262087Y191839D01*
X262056Y191743D01*
X262022Y191648D01*
X261983Y191554D01*
X261942Y191462D01*
X261896Y191371D01*
X261847Y191282D01*
X261795Y191196D01*
X261739Y191111D01*
X261680Y191029D01*
X261618Y190949D01*
X261553Y190871D01*
X261485Y190796D01*
X261414Y190724D01*
X261341Y190654D01*
X261264Y190588D01*
X261186Y190524D01*
X261104Y190464D01*
X261021Y190407D01*
X260935Y190353D01*
X260847Y190302D01*
X260758Y190255D01*
X260666Y190211D01*
X260573Y190171D01*
X260479Y190134D01*
X260383Y190102D01*
X260286Y190073D01*
X260188Y190047D01*
X260089Y190026D01*
X259989Y190008D01*
X259889Y189995D01*
X259788Y189985D01*
X259687Y189979D01*
X259586Y189977D01*
X259586Y189978D02*
X256975Y189978D01*
X260108Y189978D02*
X262196Y185801D01*
X266367Y185801D02*
X266367Y195199D01*
X268978Y195199D01*
X269078Y195197D01*
X269178Y195191D01*
X269277Y195182D01*
X269377Y195168D01*
X269475Y195151D01*
X269573Y195130D01*
X269670Y195106D01*
X269766Y195077D01*
X269861Y195045D01*
X269954Y195010D01*
X270046Y194971D01*
X270137Y194928D01*
X270225Y194882D01*
X270312Y194832D01*
X270397Y194780D01*
X270480Y194724D01*
X270561Y194665D01*
X270639Y194602D01*
X270715Y194537D01*
X270789Y194469D01*
X270859Y194399D01*
X270927Y194325D01*
X270992Y194249D01*
X271055Y194171D01*
X271114Y194090D01*
X271170Y194007D01*
X271222Y193922D01*
X271272Y193835D01*
X271318Y193747D01*
X271361Y193656D01*
X271400Y193564D01*
X271435Y193471D01*
X271467Y193376D01*
X271496Y193280D01*
X271520Y193183D01*
X271541Y193085D01*
X271558Y192987D01*
X271572Y192887D01*
X271581Y192788D01*
X271587Y192688D01*
X271589Y192588D01*
X271588Y192588D02*
X271588Y188412D01*
X271589Y188412D02*
X271587Y188312D01*
X271581Y188212D01*
X271572Y188113D01*
X271558Y188013D01*
X271541Y187915D01*
X271520Y187817D01*
X271496Y187720D01*
X271467Y187624D01*
X271435Y187529D01*
X271400Y187436D01*
X271361Y187344D01*
X271318Y187253D01*
X271272Y187165D01*
X271222Y187078D01*
X271170Y186993D01*
X271114Y186910D01*
X271055Y186829D01*
X270992Y186751D01*
X270927Y186675D01*
X270859Y186601D01*
X270789Y186531D01*
X270715Y186463D01*
X270639Y186398D01*
X270561Y186335D01*
X270480Y186276D01*
X270397Y186220D01*
X270312Y186168D01*
X270225Y186118D01*
X270137Y186072D01*
X270046Y186029D01*
X269954Y185990D01*
X269861Y185955D01*
X269766Y185923D01*
X269670Y185894D01*
X269573Y185870D01*
X269475Y185849D01*
X269377Y185832D01*
X269277Y185818D01*
X269178Y185809D01*
X269078Y185803D01*
X268978Y185801D01*
X266367Y185801D01*
X275294Y195199D02*
X278426Y190761D01*
X281559Y195199D01*
X278426Y190761D02*
X278426Y185801D01*
X243477Y211201D02*
X243477Y220599D01*
X246087Y220599D01*
X246188Y220597D01*
X246289Y220591D01*
X246390Y220581D01*
X246490Y220568D01*
X246590Y220550D01*
X246689Y220529D01*
X246787Y220503D01*
X246884Y220474D01*
X246980Y220442D01*
X247074Y220405D01*
X247167Y220365D01*
X247259Y220321D01*
X247348Y220274D01*
X247436Y220223D01*
X247522Y220169D01*
X247605Y220112D01*
X247687Y220052D01*
X247765Y219988D01*
X247842Y219922D01*
X247915Y219852D01*
X247986Y219780D01*
X248054Y219705D01*
X248119Y219627D01*
X248181Y219547D01*
X248240Y219465D01*
X248296Y219380D01*
X248348Y219293D01*
X248397Y219205D01*
X248443Y219114D01*
X248484Y219022D01*
X248523Y218928D01*
X248557Y218833D01*
X248588Y218737D01*
X248615Y218639D01*
X248639Y218541D01*
X248658Y218441D01*
X248674Y218341D01*
X248686Y218241D01*
X248694Y218140D01*
X248698Y218039D01*
X248698Y217937D01*
X248694Y217836D01*
X248686Y217735D01*
X248674Y217635D01*
X248658Y217535D01*
X248639Y217435D01*
X248615Y217337D01*
X248588Y217239D01*
X248557Y217143D01*
X248523Y217048D01*
X248484Y216954D01*
X248443Y216862D01*
X248397Y216771D01*
X248348Y216682D01*
X248296Y216596D01*
X248240Y216511D01*
X248181Y216429D01*
X248119Y216349D01*
X248054Y216271D01*
X247986Y216196D01*
X247915Y216124D01*
X247842Y216054D01*
X247765Y215988D01*
X247687Y215924D01*
X247605Y215864D01*
X247522Y215807D01*
X247436Y215753D01*
X247348Y215702D01*
X247259Y215655D01*
X247167Y215611D01*
X247074Y215571D01*
X246980Y215534D01*
X246884Y215502D01*
X246787Y215473D01*
X246689Y215447D01*
X246590Y215426D01*
X246490Y215408D01*
X246390Y215395D01*
X246289Y215385D01*
X246188Y215379D01*
X246087Y215377D01*
X246087Y215378D02*
X243477Y215378D01*
X246609Y215378D02*
X248698Y211201D01*
X252886Y211201D02*
X257063Y211201D01*
X252886Y211201D02*
X252886Y220599D01*
X257063Y220599D01*
X256019Y216422D02*
X252886Y216422D01*
X263316Y211201D02*
X263405Y211203D01*
X263493Y211209D01*
X263581Y211218D01*
X263669Y211231D01*
X263756Y211248D01*
X263842Y211268D01*
X263927Y211293D01*
X264012Y211320D01*
X264095Y211352D01*
X264176Y211386D01*
X264256Y211425D01*
X264334Y211466D01*
X264411Y211511D01*
X264485Y211559D01*
X264558Y211610D01*
X264628Y211664D01*
X264695Y211722D01*
X264761Y211782D01*
X264823Y211844D01*
X264883Y211910D01*
X264941Y211977D01*
X264995Y212047D01*
X265046Y212120D01*
X265094Y212194D01*
X265139Y212271D01*
X265180Y212349D01*
X265219Y212429D01*
X265253Y212510D01*
X265285Y212593D01*
X265312Y212678D01*
X265337Y212763D01*
X265357Y212849D01*
X265374Y212936D01*
X265387Y213024D01*
X265396Y213112D01*
X265402Y213200D01*
X265404Y213289D01*
X263316Y211201D02*
X263187Y211203D01*
X263058Y211209D01*
X262929Y211218D01*
X262801Y211231D01*
X262673Y211248D01*
X262546Y211269D01*
X262419Y211293D01*
X262293Y211321D01*
X262168Y211353D01*
X262044Y211388D01*
X261921Y211427D01*
X261799Y211470D01*
X261679Y211516D01*
X261560Y211566D01*
X261442Y211619D01*
X261326Y211675D01*
X261212Y211735D01*
X261099Y211798D01*
X260989Y211865D01*
X260880Y211934D01*
X260774Y212007D01*
X260669Y212083D01*
X260567Y212162D01*
X260468Y212244D01*
X260370Y212328D01*
X260275Y212416D01*
X260183Y212506D01*
X260445Y218511D02*
X260447Y218600D01*
X260453Y218688D01*
X260462Y218776D01*
X260475Y218864D01*
X260492Y218951D01*
X260512Y219037D01*
X260537Y219122D01*
X260564Y219207D01*
X260596Y219290D01*
X260630Y219371D01*
X260669Y219451D01*
X260710Y219529D01*
X260755Y219606D01*
X260803Y219680D01*
X260854Y219753D01*
X260908Y219823D01*
X260966Y219890D01*
X261026Y219956D01*
X261088Y220018D01*
X261154Y220078D01*
X261221Y220136D01*
X261291Y220190D01*
X261364Y220241D01*
X261438Y220289D01*
X261515Y220334D01*
X261593Y220375D01*
X261673Y220414D01*
X261754Y220448D01*
X261837Y220480D01*
X261922Y220507D01*
X262007Y220532D01*
X262093Y220552D01*
X262180Y220569D01*
X262268Y220582D01*
X262356Y220591D01*
X262444Y220597D01*
X262533Y220599D01*
X262653Y220597D01*
X262773Y220592D01*
X262893Y220582D01*
X263012Y220570D01*
X263131Y220553D01*
X263249Y220533D01*
X263367Y220509D01*
X263483Y220482D01*
X263599Y220451D01*
X263714Y220417D01*
X263828Y220379D01*
X263941Y220337D01*
X264052Y220292D01*
X264162Y220244D01*
X264270Y220193D01*
X264377Y220138D01*
X264482Y220080D01*
X264585Y220018D01*
X264686Y219954D01*
X264786Y219886D01*
X264883Y219816D01*
X261489Y216684D02*
X261411Y216732D01*
X261335Y216784D01*
X261262Y216838D01*
X261191Y216896D01*
X261122Y216957D01*
X261056Y217021D01*
X260993Y217088D01*
X260933Y217157D01*
X260876Y217229D01*
X260822Y217303D01*
X260772Y217380D01*
X260724Y217459D01*
X260681Y217539D01*
X260640Y217622D01*
X260604Y217706D01*
X260571Y217791D01*
X260542Y217878D01*
X260516Y217967D01*
X260494Y218056D01*
X260477Y218146D01*
X260463Y218236D01*
X260453Y218328D01*
X260447Y218419D01*
X260445Y218511D01*
X264361Y215116D02*
X264439Y215068D01*
X264515Y215016D01*
X264588Y214962D01*
X264659Y214904D01*
X264728Y214843D01*
X264794Y214779D01*
X264857Y214712D01*
X264917Y214643D01*
X264974Y214571D01*
X265028Y214497D01*
X265078Y214420D01*
X265126Y214341D01*
X265169Y214261D01*
X265210Y214178D01*
X265246Y214094D01*
X265279Y214009D01*
X265308Y213922D01*
X265334Y213833D01*
X265356Y213744D01*
X265373Y213654D01*
X265387Y213564D01*
X265397Y213472D01*
X265403Y213381D01*
X265405Y213289D01*
X264360Y215117D02*
X261489Y216683D01*
X269345Y211201D02*
X273522Y211201D01*
X269345Y211201D02*
X269345Y220599D01*
X273522Y220599D01*
X272478Y216422D02*
X269345Y216422D01*
X278948Y220599D02*
X278948Y211201D01*
X276338Y220599D02*
X281559Y220599D01*
X246812Y238689D02*
X246810Y238600D01*
X246804Y238512D01*
X246795Y238424D01*
X246782Y238336D01*
X246765Y238249D01*
X246745Y238163D01*
X246720Y238078D01*
X246693Y237993D01*
X246661Y237910D01*
X246627Y237829D01*
X246588Y237749D01*
X246547Y237671D01*
X246502Y237594D01*
X246454Y237520D01*
X246403Y237447D01*
X246349Y237377D01*
X246291Y237310D01*
X246231Y237244D01*
X246169Y237182D01*
X246103Y237122D01*
X246036Y237064D01*
X245966Y237010D01*
X245893Y236959D01*
X245819Y236911D01*
X245742Y236866D01*
X245664Y236825D01*
X245584Y236786D01*
X245503Y236752D01*
X245420Y236720D01*
X245335Y236693D01*
X245250Y236668D01*
X245164Y236648D01*
X245077Y236631D01*
X244989Y236618D01*
X244901Y236609D01*
X244813Y236603D01*
X244724Y236601D01*
X244595Y236603D01*
X244466Y236609D01*
X244337Y236618D01*
X244209Y236631D01*
X244081Y236648D01*
X243954Y236669D01*
X243827Y236693D01*
X243701Y236721D01*
X243576Y236753D01*
X243452Y236788D01*
X243329Y236827D01*
X243207Y236870D01*
X243087Y236916D01*
X242968Y236966D01*
X242850Y237019D01*
X242734Y237075D01*
X242620Y237135D01*
X242507Y237198D01*
X242397Y237265D01*
X242288Y237334D01*
X242182Y237407D01*
X242077Y237483D01*
X241975Y237562D01*
X241876Y237644D01*
X241778Y237728D01*
X241683Y237816D01*
X241591Y237906D01*
X241852Y243911D02*
X241854Y244000D01*
X241860Y244088D01*
X241869Y244176D01*
X241882Y244264D01*
X241899Y244351D01*
X241919Y244437D01*
X241944Y244522D01*
X241971Y244607D01*
X242003Y244690D01*
X242037Y244771D01*
X242076Y244851D01*
X242117Y244929D01*
X242162Y245006D01*
X242210Y245080D01*
X242261Y245153D01*
X242315Y245223D01*
X242373Y245290D01*
X242433Y245356D01*
X242495Y245418D01*
X242561Y245478D01*
X242628Y245536D01*
X242698Y245590D01*
X242771Y245641D01*
X242845Y245689D01*
X242922Y245734D01*
X243000Y245775D01*
X243080Y245814D01*
X243161Y245848D01*
X243244Y245880D01*
X243329Y245907D01*
X243414Y245932D01*
X243500Y245952D01*
X243587Y245969D01*
X243675Y245982D01*
X243763Y245991D01*
X243851Y245997D01*
X243940Y245999D01*
X244060Y245997D01*
X244180Y245992D01*
X244300Y245982D01*
X244419Y245970D01*
X244538Y245953D01*
X244656Y245933D01*
X244774Y245909D01*
X244890Y245882D01*
X245006Y245851D01*
X245121Y245817D01*
X245235Y245779D01*
X245348Y245737D01*
X245459Y245692D01*
X245569Y245644D01*
X245677Y245593D01*
X245784Y245538D01*
X245889Y245480D01*
X245992Y245418D01*
X246093Y245354D01*
X246193Y245286D01*
X246290Y245216D01*
X242896Y242084D02*
X242818Y242132D01*
X242742Y242184D01*
X242669Y242238D01*
X242598Y242296D01*
X242529Y242357D01*
X242463Y242421D01*
X242400Y242488D01*
X242340Y242557D01*
X242283Y242629D01*
X242229Y242703D01*
X242179Y242780D01*
X242131Y242859D01*
X242088Y242939D01*
X242047Y243022D01*
X242011Y243106D01*
X241978Y243191D01*
X241949Y243278D01*
X241923Y243367D01*
X241901Y243456D01*
X241884Y243546D01*
X241870Y243636D01*
X241860Y243728D01*
X241854Y243819D01*
X241852Y243911D01*
X245768Y240516D02*
X245846Y240468D01*
X245922Y240416D01*
X245995Y240362D01*
X246066Y240304D01*
X246135Y240243D01*
X246201Y240179D01*
X246264Y240112D01*
X246324Y240043D01*
X246381Y239971D01*
X246435Y239897D01*
X246485Y239820D01*
X246533Y239741D01*
X246576Y239661D01*
X246617Y239578D01*
X246653Y239494D01*
X246686Y239409D01*
X246715Y239322D01*
X246741Y239233D01*
X246763Y239144D01*
X246780Y239054D01*
X246794Y238964D01*
X246804Y238872D01*
X246810Y238781D01*
X246812Y238689D01*
X245768Y240517D02*
X242896Y242083D01*
X252431Y245999D02*
X252431Y236601D01*
X249820Y245999D02*
X255042Y245999D01*
X260965Y245999D02*
X257833Y236601D01*
X264098Y236601D02*
X260965Y245999D01*
X263315Y238951D02*
X258616Y238951D01*
X267861Y236601D02*
X267861Y245999D01*
X270471Y245999D01*
X270572Y245997D01*
X270673Y245991D01*
X270774Y245981D01*
X270874Y245968D01*
X270974Y245950D01*
X271073Y245929D01*
X271171Y245903D01*
X271268Y245874D01*
X271364Y245842D01*
X271458Y245805D01*
X271551Y245765D01*
X271643Y245721D01*
X271732Y245674D01*
X271820Y245623D01*
X271906Y245569D01*
X271989Y245512D01*
X272071Y245452D01*
X272149Y245388D01*
X272226Y245322D01*
X272299Y245252D01*
X272370Y245180D01*
X272438Y245105D01*
X272503Y245027D01*
X272565Y244947D01*
X272624Y244865D01*
X272680Y244780D01*
X272732Y244693D01*
X272781Y244605D01*
X272827Y244514D01*
X272868Y244422D01*
X272907Y244328D01*
X272941Y244233D01*
X272972Y244137D01*
X272999Y244039D01*
X273023Y243941D01*
X273042Y243841D01*
X273058Y243741D01*
X273070Y243641D01*
X273078Y243540D01*
X273082Y243439D01*
X273082Y243337D01*
X273078Y243236D01*
X273070Y243135D01*
X273058Y243035D01*
X273042Y242935D01*
X273023Y242835D01*
X272999Y242737D01*
X272972Y242639D01*
X272941Y242543D01*
X272907Y242448D01*
X272868Y242354D01*
X272827Y242262D01*
X272781Y242171D01*
X272732Y242082D01*
X272680Y241996D01*
X272624Y241911D01*
X272565Y241829D01*
X272503Y241749D01*
X272438Y241671D01*
X272370Y241596D01*
X272299Y241524D01*
X272226Y241454D01*
X272149Y241388D01*
X272071Y241324D01*
X271989Y241264D01*
X271906Y241207D01*
X271820Y241153D01*
X271732Y241102D01*
X271643Y241055D01*
X271551Y241011D01*
X271458Y240971D01*
X271364Y240934D01*
X271268Y240902D01*
X271171Y240873D01*
X271073Y240847D01*
X270974Y240826D01*
X270874Y240808D01*
X270774Y240795D01*
X270673Y240785D01*
X270572Y240779D01*
X270471Y240777D01*
X270471Y240778D02*
X267861Y240778D01*
X270993Y240778D02*
X273082Y236601D01*
X278948Y236601D02*
X278948Y245999D01*
X276338Y245999D02*
X281559Y245999D01*
X273174Y259461D02*
X271085Y259461D01*
X270996Y259463D01*
X270908Y259469D01*
X270820Y259478D01*
X270732Y259491D01*
X270645Y259508D01*
X270559Y259528D01*
X270474Y259553D01*
X270389Y259580D01*
X270306Y259612D01*
X270225Y259646D01*
X270145Y259685D01*
X270067Y259726D01*
X269990Y259771D01*
X269916Y259819D01*
X269843Y259870D01*
X269773Y259924D01*
X269706Y259982D01*
X269640Y260042D01*
X269578Y260104D01*
X269518Y260170D01*
X269460Y260237D01*
X269406Y260307D01*
X269355Y260380D01*
X269307Y260454D01*
X269262Y260531D01*
X269221Y260609D01*
X269182Y260689D01*
X269148Y260770D01*
X269116Y260853D01*
X269089Y260938D01*
X269064Y261023D01*
X269044Y261109D01*
X269027Y261196D01*
X269014Y261284D01*
X269005Y261372D01*
X268999Y261460D01*
X268997Y261549D01*
X268997Y266771D01*
X268998Y266771D02*
X269000Y266862D01*
X269006Y266953D01*
X269016Y267044D01*
X269030Y267134D01*
X269047Y267223D01*
X269069Y267311D01*
X269095Y267399D01*
X269124Y267485D01*
X269157Y267570D01*
X269194Y267653D01*
X269234Y267735D01*
X269278Y267815D01*
X269325Y267893D01*
X269376Y267969D01*
X269429Y268042D01*
X269486Y268113D01*
X269547Y268182D01*
X269610Y268247D01*
X269675Y268310D01*
X269744Y268370D01*
X269815Y268428D01*
X269888Y268481D01*
X269964Y268532D01*
X270042Y268579D01*
X270122Y268623D01*
X270204Y268663D01*
X270287Y268700D01*
X270372Y268733D01*
X270458Y268762D01*
X270546Y268788D01*
X270634Y268810D01*
X270723Y268827D01*
X270813Y268841D01*
X270904Y268851D01*
X270995Y268857D01*
X271086Y268859D01*
X271085Y268859D02*
X273174Y268859D01*
X281559Y261549D02*
X281557Y261460D01*
X281551Y261372D01*
X281542Y261284D01*
X281529Y261196D01*
X281512Y261109D01*
X281492Y261023D01*
X281467Y260938D01*
X281440Y260853D01*
X281408Y260770D01*
X281374Y260689D01*
X281335Y260609D01*
X281294Y260531D01*
X281249Y260454D01*
X281201Y260380D01*
X281150Y260307D01*
X281096Y260237D01*
X281038Y260170D01*
X280978Y260104D01*
X280916Y260042D01*
X280850Y259982D01*
X280783Y259924D01*
X280713Y259870D01*
X280640Y259819D01*
X280566Y259771D01*
X280489Y259726D01*
X280411Y259685D01*
X280331Y259646D01*
X280250Y259612D01*
X280167Y259580D01*
X280082Y259553D01*
X279997Y259528D01*
X279911Y259508D01*
X279824Y259491D01*
X279736Y259478D01*
X279648Y259469D01*
X279560Y259463D01*
X279471Y259461D01*
X279342Y259463D01*
X279213Y259469D01*
X279084Y259478D01*
X278956Y259491D01*
X278828Y259508D01*
X278701Y259529D01*
X278574Y259553D01*
X278448Y259581D01*
X278323Y259613D01*
X278199Y259648D01*
X278076Y259687D01*
X277954Y259730D01*
X277834Y259776D01*
X277715Y259826D01*
X277597Y259879D01*
X277481Y259935D01*
X277367Y259995D01*
X277254Y260058D01*
X277144Y260125D01*
X277035Y260194D01*
X276929Y260267D01*
X276824Y260343D01*
X276722Y260422D01*
X276623Y260504D01*
X276525Y260588D01*
X276430Y260676D01*
X276338Y260766D01*
X276599Y266771D02*
X276601Y266860D01*
X276607Y266948D01*
X276616Y267036D01*
X276629Y267124D01*
X276646Y267211D01*
X276666Y267297D01*
X276691Y267382D01*
X276718Y267467D01*
X276750Y267550D01*
X276784Y267631D01*
X276823Y267711D01*
X276864Y267789D01*
X276909Y267866D01*
X276957Y267940D01*
X277008Y268013D01*
X277062Y268083D01*
X277120Y268150D01*
X277180Y268216D01*
X277242Y268278D01*
X277308Y268338D01*
X277375Y268396D01*
X277445Y268450D01*
X277518Y268501D01*
X277592Y268549D01*
X277669Y268594D01*
X277747Y268635D01*
X277827Y268674D01*
X277908Y268708D01*
X277991Y268740D01*
X278076Y268767D01*
X278161Y268792D01*
X278247Y268812D01*
X278334Y268829D01*
X278422Y268842D01*
X278510Y268851D01*
X278598Y268857D01*
X278687Y268859D01*
X278807Y268857D01*
X278927Y268852D01*
X279047Y268842D01*
X279166Y268830D01*
X279285Y268813D01*
X279403Y268793D01*
X279521Y268769D01*
X279637Y268742D01*
X279753Y268711D01*
X279868Y268677D01*
X279982Y268639D01*
X280095Y268597D01*
X280206Y268552D01*
X280316Y268504D01*
X280424Y268453D01*
X280531Y268398D01*
X280636Y268340D01*
X280739Y268278D01*
X280840Y268214D01*
X280940Y268146D01*
X281037Y268076D01*
X277643Y264944D02*
X277565Y264992D01*
X277489Y265044D01*
X277416Y265098D01*
X277345Y265156D01*
X277276Y265217D01*
X277210Y265281D01*
X277147Y265348D01*
X277087Y265417D01*
X277030Y265489D01*
X276976Y265563D01*
X276926Y265640D01*
X276878Y265719D01*
X276835Y265799D01*
X276794Y265882D01*
X276758Y265966D01*
X276725Y266051D01*
X276696Y266138D01*
X276670Y266227D01*
X276648Y266316D01*
X276631Y266406D01*
X276617Y266496D01*
X276607Y266588D01*
X276601Y266679D01*
X276599Y266771D01*
X280515Y263376D02*
X280593Y263328D01*
X280669Y263276D01*
X280742Y263222D01*
X280813Y263164D01*
X280882Y263103D01*
X280948Y263039D01*
X281011Y262972D01*
X281071Y262903D01*
X281128Y262831D01*
X281182Y262757D01*
X281232Y262680D01*
X281280Y262601D01*
X281323Y262521D01*
X281364Y262438D01*
X281400Y262354D01*
X281433Y262269D01*
X281462Y262182D01*
X281488Y262093D01*
X281510Y262004D01*
X281527Y261914D01*
X281541Y261824D01*
X281551Y261732D01*
X281557Y261641D01*
X281559Y261549D01*
X280515Y263377D02*
X277643Y264943D01*
X251737Y284861D02*
X251737Y294259D01*
X254869Y289038D01*
X258002Y294259D01*
X258002Y284861D01*
X263099Y284861D02*
X263099Y294259D01*
X262055Y284861D02*
X264143Y284861D01*
X264143Y294259D02*
X262055Y294259D01*
X270631Y284861D02*
X270720Y284863D01*
X270808Y284869D01*
X270896Y284878D01*
X270984Y284891D01*
X271071Y284908D01*
X271157Y284928D01*
X271242Y284953D01*
X271327Y284980D01*
X271410Y285012D01*
X271491Y285046D01*
X271571Y285085D01*
X271649Y285126D01*
X271726Y285171D01*
X271800Y285219D01*
X271873Y285270D01*
X271943Y285324D01*
X272010Y285382D01*
X272076Y285442D01*
X272138Y285504D01*
X272198Y285570D01*
X272256Y285637D01*
X272310Y285707D01*
X272361Y285780D01*
X272409Y285854D01*
X272454Y285931D01*
X272495Y286009D01*
X272534Y286089D01*
X272568Y286170D01*
X272600Y286253D01*
X272627Y286338D01*
X272652Y286423D01*
X272672Y286509D01*
X272689Y286596D01*
X272702Y286684D01*
X272711Y286772D01*
X272717Y286860D01*
X272719Y286949D01*
X270631Y284861D02*
X270502Y284863D01*
X270373Y284869D01*
X270244Y284878D01*
X270116Y284891D01*
X269988Y284908D01*
X269861Y284929D01*
X269734Y284953D01*
X269608Y284981D01*
X269483Y285013D01*
X269359Y285048D01*
X269236Y285087D01*
X269114Y285130D01*
X268994Y285176D01*
X268875Y285226D01*
X268757Y285279D01*
X268641Y285335D01*
X268527Y285395D01*
X268414Y285458D01*
X268304Y285525D01*
X268195Y285594D01*
X268089Y285667D01*
X267984Y285743D01*
X267882Y285822D01*
X267783Y285904D01*
X267685Y285988D01*
X267590Y286076D01*
X267498Y286166D01*
X267760Y292171D02*
X267762Y292260D01*
X267768Y292348D01*
X267777Y292436D01*
X267790Y292524D01*
X267807Y292611D01*
X267827Y292697D01*
X267852Y292782D01*
X267879Y292867D01*
X267911Y292950D01*
X267945Y293031D01*
X267984Y293111D01*
X268025Y293189D01*
X268070Y293266D01*
X268118Y293340D01*
X268169Y293413D01*
X268223Y293483D01*
X268281Y293550D01*
X268341Y293616D01*
X268403Y293678D01*
X268469Y293738D01*
X268536Y293796D01*
X268606Y293850D01*
X268679Y293901D01*
X268753Y293949D01*
X268830Y293994D01*
X268908Y294035D01*
X268988Y294074D01*
X269069Y294108D01*
X269152Y294140D01*
X269237Y294167D01*
X269322Y294192D01*
X269408Y294212D01*
X269495Y294229D01*
X269583Y294242D01*
X269671Y294251D01*
X269759Y294257D01*
X269848Y294259D01*
X269968Y294257D01*
X270088Y294252D01*
X270208Y294242D01*
X270327Y294230D01*
X270446Y294213D01*
X270564Y294193D01*
X270682Y294169D01*
X270798Y294142D01*
X270914Y294111D01*
X271029Y294077D01*
X271143Y294039D01*
X271256Y293997D01*
X271367Y293952D01*
X271477Y293904D01*
X271585Y293853D01*
X271692Y293798D01*
X271797Y293740D01*
X271900Y293678D01*
X272001Y293614D01*
X272101Y293546D01*
X272198Y293476D01*
X268804Y290344D02*
X268726Y290392D01*
X268650Y290444D01*
X268577Y290498D01*
X268506Y290556D01*
X268437Y290617D01*
X268371Y290681D01*
X268308Y290748D01*
X268248Y290817D01*
X268191Y290889D01*
X268137Y290963D01*
X268087Y291040D01*
X268039Y291119D01*
X267996Y291199D01*
X267955Y291282D01*
X267919Y291366D01*
X267886Y291451D01*
X267857Y291538D01*
X267831Y291627D01*
X267809Y291716D01*
X267792Y291806D01*
X267778Y291896D01*
X267768Y291988D01*
X267762Y292079D01*
X267760Y292171D01*
X271676Y288776D02*
X271754Y288728D01*
X271830Y288676D01*
X271903Y288622D01*
X271974Y288564D01*
X272043Y288503D01*
X272109Y288439D01*
X272172Y288372D01*
X272232Y288303D01*
X272289Y288231D01*
X272343Y288157D01*
X272393Y288080D01*
X272441Y288001D01*
X272484Y287921D01*
X272525Y287838D01*
X272561Y287754D01*
X272594Y287669D01*
X272623Y287582D01*
X272649Y287493D01*
X272671Y287404D01*
X272688Y287314D01*
X272702Y287224D01*
X272712Y287132D01*
X272718Y287041D01*
X272720Y286949D01*
X271676Y288777D02*
X268804Y290343D01*
X276338Y291648D02*
X276338Y287472D01*
X276337Y291648D02*
X276339Y291749D01*
X276345Y291850D01*
X276355Y291951D01*
X276368Y292051D01*
X276386Y292151D01*
X276407Y292250D01*
X276433Y292348D01*
X276462Y292445D01*
X276494Y292541D01*
X276531Y292635D01*
X276571Y292728D01*
X276615Y292820D01*
X276662Y292909D01*
X276713Y292997D01*
X276767Y293083D01*
X276824Y293166D01*
X276884Y293248D01*
X276948Y293326D01*
X277014Y293403D01*
X277084Y293476D01*
X277156Y293547D01*
X277231Y293615D01*
X277309Y293680D01*
X277389Y293742D01*
X277471Y293801D01*
X277556Y293857D01*
X277643Y293909D01*
X277731Y293958D01*
X277822Y294004D01*
X277914Y294045D01*
X278008Y294084D01*
X278103Y294118D01*
X278199Y294149D01*
X278297Y294176D01*
X278395Y294200D01*
X278495Y294219D01*
X278595Y294235D01*
X278695Y294247D01*
X278796Y294255D01*
X278897Y294259D01*
X278999Y294259D01*
X279100Y294255D01*
X279201Y294247D01*
X279301Y294235D01*
X279401Y294219D01*
X279501Y294200D01*
X279599Y294176D01*
X279697Y294149D01*
X279793Y294118D01*
X279888Y294084D01*
X279982Y294045D01*
X280074Y294004D01*
X280165Y293958D01*
X280254Y293909D01*
X280340Y293857D01*
X280425Y293801D01*
X280507Y293742D01*
X280587Y293680D01*
X280665Y293615D01*
X280740Y293547D01*
X280812Y293476D01*
X280882Y293403D01*
X280948Y293326D01*
X281012Y293248D01*
X281072Y293166D01*
X281129Y293083D01*
X281183Y292997D01*
X281234Y292909D01*
X281281Y292820D01*
X281325Y292728D01*
X281365Y292635D01*
X281402Y292541D01*
X281434Y292445D01*
X281463Y292348D01*
X281489Y292250D01*
X281510Y292151D01*
X281528Y292051D01*
X281541Y291951D01*
X281551Y291850D01*
X281557Y291749D01*
X281559Y291648D01*
X281559Y287472D01*
X281557Y287371D01*
X281551Y287270D01*
X281541Y287169D01*
X281528Y287069D01*
X281510Y286969D01*
X281489Y286870D01*
X281463Y286772D01*
X281434Y286675D01*
X281402Y286579D01*
X281365Y286485D01*
X281325Y286392D01*
X281281Y286300D01*
X281234Y286211D01*
X281183Y286123D01*
X281129Y286037D01*
X281072Y285954D01*
X281012Y285872D01*
X280948Y285794D01*
X280882Y285717D01*
X280812Y285644D01*
X280740Y285573D01*
X280665Y285505D01*
X280587Y285440D01*
X280507Y285378D01*
X280425Y285319D01*
X280340Y285263D01*
X280253Y285211D01*
X280165Y285162D01*
X280074Y285116D01*
X279982Y285075D01*
X279888Y285036D01*
X279793Y285002D01*
X279697Y284971D01*
X279599Y284944D01*
X279501Y284920D01*
X279401Y284901D01*
X279301Y284885D01*
X279201Y284873D01*
X279100Y284865D01*
X278999Y284861D01*
X278897Y284861D01*
X278796Y284865D01*
X278695Y284873D01*
X278595Y284885D01*
X278495Y284901D01*
X278395Y284920D01*
X278297Y284944D01*
X278199Y284971D01*
X278103Y285002D01*
X278008Y285036D01*
X277914Y285075D01*
X277822Y285116D01*
X277731Y285162D01*
X277643Y285211D01*
X277556Y285263D01*
X277471Y285319D01*
X277389Y285378D01*
X277309Y285440D01*
X277231Y285505D01*
X277156Y285573D01*
X277084Y285644D01*
X277014Y285717D01*
X276948Y285794D01*
X276884Y285872D01*
X276824Y285954D01*
X276767Y286037D01*
X276713Y286123D01*
X276662Y286211D01*
X276615Y286300D01*
X276571Y286392D01*
X276531Y286485D01*
X276494Y286579D01*
X276462Y286675D01*
X276433Y286772D01*
X276407Y286870D01*
X276386Y286969D01*
X276368Y287069D01*
X276355Y287169D01*
X276345Y287270D01*
X276339Y287371D01*
X276337Y287472D01*
X254651Y338201D02*
X254740Y338203D01*
X254828Y338209D01*
X254916Y338218D01*
X255004Y338231D01*
X255091Y338248D01*
X255177Y338268D01*
X255262Y338293D01*
X255347Y338320D01*
X255430Y338352D01*
X255511Y338386D01*
X255591Y338425D01*
X255669Y338466D01*
X255746Y338511D01*
X255820Y338559D01*
X255893Y338610D01*
X255963Y338664D01*
X256030Y338722D01*
X256096Y338782D01*
X256158Y338844D01*
X256218Y338910D01*
X256276Y338977D01*
X256330Y339047D01*
X256381Y339120D01*
X256429Y339194D01*
X256474Y339271D01*
X256515Y339349D01*
X256554Y339429D01*
X256588Y339510D01*
X256620Y339593D01*
X256647Y339678D01*
X256672Y339763D01*
X256692Y339849D01*
X256709Y339936D01*
X256722Y340024D01*
X256731Y340112D01*
X256737Y340200D01*
X256739Y340289D01*
X254651Y338201D02*
X254522Y338203D01*
X254393Y338209D01*
X254264Y338218D01*
X254136Y338231D01*
X254008Y338248D01*
X253881Y338269D01*
X253754Y338293D01*
X253628Y338321D01*
X253503Y338353D01*
X253379Y338388D01*
X253256Y338427D01*
X253134Y338470D01*
X253014Y338516D01*
X252895Y338566D01*
X252777Y338619D01*
X252661Y338675D01*
X252547Y338735D01*
X252434Y338798D01*
X252324Y338865D01*
X252215Y338934D01*
X252109Y339007D01*
X252004Y339083D01*
X251902Y339162D01*
X251803Y339244D01*
X251705Y339328D01*
X251610Y339416D01*
X251518Y339506D01*
X251780Y345511D02*
X251782Y345600D01*
X251788Y345688D01*
X251797Y345776D01*
X251810Y345864D01*
X251827Y345951D01*
X251847Y346037D01*
X251872Y346122D01*
X251899Y346207D01*
X251931Y346290D01*
X251965Y346371D01*
X252004Y346451D01*
X252045Y346529D01*
X252090Y346606D01*
X252138Y346680D01*
X252189Y346753D01*
X252243Y346823D01*
X252301Y346890D01*
X252361Y346956D01*
X252423Y347018D01*
X252489Y347078D01*
X252556Y347136D01*
X252626Y347190D01*
X252699Y347241D01*
X252773Y347289D01*
X252850Y347334D01*
X252928Y347375D01*
X253008Y347414D01*
X253089Y347448D01*
X253172Y347480D01*
X253257Y347507D01*
X253342Y347532D01*
X253428Y347552D01*
X253515Y347569D01*
X253603Y347582D01*
X253691Y347591D01*
X253779Y347597D01*
X253868Y347599D01*
X253867Y347599D02*
X253987Y347597D01*
X254107Y347592D01*
X254227Y347582D01*
X254346Y347570D01*
X254465Y347553D01*
X254583Y347533D01*
X254701Y347509D01*
X254817Y347482D01*
X254933Y347451D01*
X255048Y347417D01*
X255162Y347379D01*
X255275Y347337D01*
X255386Y347292D01*
X255496Y347244D01*
X255604Y347193D01*
X255711Y347138D01*
X255816Y347080D01*
X255919Y347018D01*
X256020Y346954D01*
X256120Y346886D01*
X256217Y346816D01*
X252823Y343684D02*
X252745Y343732D01*
X252669Y343784D01*
X252596Y343838D01*
X252525Y343896D01*
X252456Y343957D01*
X252390Y344021D01*
X252327Y344088D01*
X252267Y344157D01*
X252210Y344229D01*
X252156Y344303D01*
X252106Y344380D01*
X252058Y344459D01*
X252015Y344539D01*
X251974Y344622D01*
X251938Y344706D01*
X251905Y344791D01*
X251876Y344878D01*
X251850Y344967D01*
X251828Y345056D01*
X251811Y345146D01*
X251797Y345236D01*
X251787Y345328D01*
X251781Y345419D01*
X251779Y345511D01*
X255695Y342116D02*
X255773Y342068D01*
X255849Y342016D01*
X255922Y341962D01*
X255993Y341904D01*
X256062Y341843D01*
X256128Y341779D01*
X256191Y341712D01*
X256251Y341643D01*
X256308Y341571D01*
X256362Y341497D01*
X256412Y341420D01*
X256460Y341341D01*
X256503Y341261D01*
X256544Y341178D01*
X256580Y341094D01*
X256613Y341009D01*
X256642Y340922D01*
X256668Y340833D01*
X256690Y340744D01*
X256707Y340654D01*
X256721Y340564D01*
X256731Y340472D01*
X256737Y340381D01*
X256739Y340289D01*
X255695Y342117D02*
X252823Y343683D01*
X262420Y338201D02*
X264508Y338201D01*
X262420Y338201D02*
X262331Y338203D01*
X262243Y338209D01*
X262155Y338218D01*
X262067Y338231D01*
X261980Y338248D01*
X261894Y338268D01*
X261809Y338293D01*
X261724Y338320D01*
X261641Y338352D01*
X261560Y338386D01*
X261480Y338425D01*
X261402Y338466D01*
X261325Y338511D01*
X261251Y338559D01*
X261178Y338610D01*
X261108Y338664D01*
X261041Y338722D01*
X260975Y338782D01*
X260913Y338844D01*
X260853Y338910D01*
X260795Y338977D01*
X260741Y339047D01*
X260690Y339120D01*
X260642Y339194D01*
X260597Y339271D01*
X260556Y339349D01*
X260517Y339429D01*
X260483Y339510D01*
X260451Y339593D01*
X260424Y339678D01*
X260399Y339763D01*
X260379Y339849D01*
X260362Y339936D01*
X260349Y340024D01*
X260340Y340112D01*
X260334Y340200D01*
X260332Y340289D01*
X260331Y340289D02*
X260331Y345511D01*
X260332Y345511D02*
X260334Y345600D01*
X260340Y345688D01*
X260349Y345776D01*
X260362Y345864D01*
X260379Y345951D01*
X260399Y346037D01*
X260424Y346122D01*
X260451Y346207D01*
X260483Y346290D01*
X260517Y346371D01*
X260556Y346451D01*
X260597Y346529D01*
X260642Y346606D01*
X260690Y346680D01*
X260741Y346753D01*
X260795Y346823D01*
X260853Y346890D01*
X260913Y346956D01*
X260975Y347018D01*
X261041Y347078D01*
X261108Y347136D01*
X261178Y347190D01*
X261251Y347241D01*
X261325Y347289D01*
X261402Y347334D01*
X261480Y347375D01*
X261560Y347414D01*
X261641Y347448D01*
X261724Y347480D01*
X261809Y347507D01*
X261894Y347532D01*
X261980Y347552D01*
X262067Y347569D01*
X262155Y347582D01*
X262243Y347591D01*
X262331Y347597D01*
X262420Y347599D01*
X264508Y347599D01*
X268299Y347599D02*
X268299Y338201D01*
X272476Y338201D01*
X276338Y338201D02*
X276338Y347599D01*
X281559Y347599D02*
X276338Y341856D01*
X278426Y343944D02*
X281559Y338201D01*
X251474Y322199D02*
X251474Y312801D01*
X254607Y316978D02*
X251474Y322199D01*
X254607Y316978D02*
X257740Y322199D01*
X257740Y312801D01*
X262055Y315412D02*
X262055Y319588D01*
X262054Y319588D02*
X262056Y319689D01*
X262062Y319790D01*
X262072Y319891D01*
X262085Y319991D01*
X262103Y320091D01*
X262124Y320190D01*
X262150Y320288D01*
X262179Y320385D01*
X262211Y320481D01*
X262248Y320575D01*
X262288Y320668D01*
X262332Y320760D01*
X262379Y320849D01*
X262430Y320937D01*
X262484Y321023D01*
X262541Y321106D01*
X262601Y321188D01*
X262665Y321266D01*
X262731Y321343D01*
X262801Y321416D01*
X262873Y321487D01*
X262948Y321555D01*
X263026Y321620D01*
X263106Y321682D01*
X263188Y321741D01*
X263273Y321797D01*
X263360Y321849D01*
X263448Y321898D01*
X263539Y321944D01*
X263631Y321985D01*
X263725Y322024D01*
X263820Y322058D01*
X263916Y322089D01*
X264014Y322116D01*
X264112Y322140D01*
X264212Y322159D01*
X264312Y322175D01*
X264412Y322187D01*
X264513Y322195D01*
X264614Y322199D01*
X264716Y322199D01*
X264817Y322195D01*
X264918Y322187D01*
X265018Y322175D01*
X265118Y322159D01*
X265218Y322140D01*
X265316Y322116D01*
X265414Y322089D01*
X265510Y322058D01*
X265605Y322024D01*
X265699Y321985D01*
X265791Y321944D01*
X265882Y321898D01*
X265971Y321849D01*
X266057Y321797D01*
X266142Y321741D01*
X266224Y321682D01*
X266304Y321620D01*
X266382Y321555D01*
X266457Y321487D01*
X266529Y321416D01*
X266599Y321343D01*
X266665Y321266D01*
X266729Y321188D01*
X266789Y321106D01*
X266846Y321023D01*
X266900Y320937D01*
X266951Y320849D01*
X266998Y320760D01*
X267042Y320668D01*
X267082Y320575D01*
X267119Y320481D01*
X267151Y320385D01*
X267180Y320288D01*
X267206Y320190D01*
X267227Y320091D01*
X267245Y319991D01*
X267258Y319891D01*
X267268Y319790D01*
X267274Y319689D01*
X267276Y319588D01*
X267276Y315412D01*
X267274Y315311D01*
X267268Y315210D01*
X267258Y315109D01*
X267245Y315009D01*
X267227Y314909D01*
X267206Y314810D01*
X267180Y314712D01*
X267151Y314615D01*
X267119Y314519D01*
X267082Y314425D01*
X267042Y314332D01*
X266998Y314240D01*
X266951Y314151D01*
X266900Y314063D01*
X266846Y313977D01*
X266789Y313894D01*
X266729Y313812D01*
X266665Y313734D01*
X266599Y313657D01*
X266529Y313584D01*
X266457Y313513D01*
X266382Y313445D01*
X266304Y313380D01*
X266224Y313318D01*
X266142Y313259D01*
X266057Y313203D01*
X265970Y313151D01*
X265882Y313102D01*
X265791Y313056D01*
X265699Y313015D01*
X265605Y312976D01*
X265510Y312942D01*
X265414Y312911D01*
X265316Y312884D01*
X265218Y312860D01*
X265118Y312841D01*
X265018Y312825D01*
X264918Y312813D01*
X264817Y312805D01*
X264716Y312801D01*
X264614Y312801D01*
X264513Y312805D01*
X264412Y312813D01*
X264312Y312825D01*
X264212Y312841D01*
X264112Y312860D01*
X264014Y312884D01*
X263916Y312911D01*
X263820Y312942D01*
X263725Y312976D01*
X263631Y313015D01*
X263539Y313056D01*
X263448Y313102D01*
X263360Y313151D01*
X263273Y313203D01*
X263188Y313259D01*
X263106Y313318D01*
X263026Y313380D01*
X262948Y313445D01*
X262873Y313513D01*
X262801Y313584D01*
X262731Y313657D01*
X262665Y313734D01*
X262601Y313812D01*
X262541Y313894D01*
X262484Y313977D01*
X262430Y314063D01*
X262379Y314151D01*
X262332Y314240D01*
X262288Y314332D01*
X262248Y314425D01*
X262211Y314519D01*
X262179Y314615D01*
X262150Y314712D01*
X262124Y314810D01*
X262103Y314909D01*
X262085Y315009D01*
X262072Y315109D01*
X262062Y315210D01*
X262056Y315311D01*
X262054Y315412D01*
X274027Y312801D02*
X274116Y312803D01*
X274204Y312809D01*
X274292Y312818D01*
X274380Y312831D01*
X274467Y312848D01*
X274553Y312868D01*
X274638Y312893D01*
X274723Y312920D01*
X274806Y312952D01*
X274887Y312986D01*
X274967Y313025D01*
X275045Y313066D01*
X275122Y313111D01*
X275196Y313159D01*
X275269Y313210D01*
X275339Y313264D01*
X275406Y313322D01*
X275472Y313382D01*
X275534Y313444D01*
X275594Y313510D01*
X275652Y313577D01*
X275706Y313647D01*
X275757Y313720D01*
X275805Y313794D01*
X275850Y313871D01*
X275891Y313949D01*
X275930Y314029D01*
X275964Y314110D01*
X275996Y314193D01*
X276023Y314278D01*
X276048Y314363D01*
X276068Y314449D01*
X276085Y314536D01*
X276098Y314624D01*
X276107Y314712D01*
X276113Y314800D01*
X276115Y314889D01*
X274027Y312801D02*
X273898Y312803D01*
X273769Y312809D01*
X273640Y312818D01*
X273512Y312831D01*
X273384Y312848D01*
X273257Y312869D01*
X273130Y312893D01*
X273004Y312921D01*
X272879Y312953D01*
X272755Y312988D01*
X272632Y313027D01*
X272510Y313070D01*
X272390Y313116D01*
X272271Y313166D01*
X272153Y313219D01*
X272037Y313275D01*
X271923Y313335D01*
X271810Y313398D01*
X271700Y313465D01*
X271591Y313534D01*
X271485Y313607D01*
X271380Y313683D01*
X271278Y313762D01*
X271179Y313844D01*
X271081Y313928D01*
X270986Y314016D01*
X270894Y314106D01*
X271155Y320111D02*
X271157Y320200D01*
X271163Y320288D01*
X271172Y320376D01*
X271185Y320464D01*
X271202Y320551D01*
X271222Y320637D01*
X271247Y320722D01*
X271274Y320807D01*
X271306Y320890D01*
X271340Y320971D01*
X271379Y321051D01*
X271420Y321129D01*
X271465Y321206D01*
X271513Y321280D01*
X271564Y321353D01*
X271618Y321423D01*
X271676Y321490D01*
X271736Y321556D01*
X271798Y321618D01*
X271864Y321678D01*
X271931Y321736D01*
X272001Y321790D01*
X272074Y321841D01*
X272148Y321889D01*
X272225Y321934D01*
X272303Y321975D01*
X272383Y322014D01*
X272464Y322048D01*
X272547Y322080D01*
X272632Y322107D01*
X272717Y322132D01*
X272803Y322152D01*
X272890Y322169D01*
X272978Y322182D01*
X273066Y322191D01*
X273154Y322197D01*
X273243Y322199D01*
X273363Y322197D01*
X273483Y322192D01*
X273603Y322182D01*
X273722Y322170D01*
X273841Y322153D01*
X273959Y322133D01*
X274077Y322109D01*
X274193Y322082D01*
X274309Y322051D01*
X274424Y322017D01*
X274538Y321979D01*
X274651Y321937D01*
X274762Y321892D01*
X274872Y321844D01*
X274980Y321793D01*
X275087Y321738D01*
X275192Y321680D01*
X275295Y321618D01*
X275396Y321554D01*
X275496Y321486D01*
X275593Y321416D01*
X272199Y318284D02*
X272121Y318332D01*
X272045Y318384D01*
X271972Y318438D01*
X271901Y318496D01*
X271832Y318557D01*
X271766Y318621D01*
X271703Y318688D01*
X271643Y318757D01*
X271586Y318829D01*
X271532Y318903D01*
X271482Y318980D01*
X271434Y319059D01*
X271391Y319139D01*
X271350Y319222D01*
X271314Y319306D01*
X271281Y319391D01*
X271252Y319478D01*
X271226Y319567D01*
X271204Y319656D01*
X271187Y319746D01*
X271173Y319836D01*
X271163Y319928D01*
X271157Y320019D01*
X271155Y320111D01*
X275071Y316716D02*
X275149Y316668D01*
X275225Y316616D01*
X275298Y316562D01*
X275369Y316504D01*
X275438Y316443D01*
X275504Y316379D01*
X275567Y316312D01*
X275627Y316243D01*
X275684Y316171D01*
X275738Y316097D01*
X275788Y316020D01*
X275836Y315941D01*
X275879Y315861D01*
X275920Y315778D01*
X275956Y315694D01*
X275989Y315609D01*
X276018Y315522D01*
X276044Y315433D01*
X276066Y315344D01*
X276083Y315254D01*
X276097Y315164D01*
X276107Y315072D01*
X276113Y314981D01*
X276115Y314889D01*
X275071Y316717D02*
X272199Y318283D01*
X280515Y322199D02*
X280515Y312801D01*
X279471Y312801D02*
X281559Y312801D01*
X281559Y322199D02*
X279471Y322199D01*
X70598Y597281D02*
X66421Y597281D01*
X66421Y606679D01*
X70598Y606679D01*
X69554Y602502D02*
X66421Y602502D01*
X73501Y597281D02*
X79767Y606679D01*
X73501Y606679D02*
X79767Y597281D01*
X83255Y600936D02*
X89520Y600936D01*
X94312Y597281D02*
X94312Y606679D01*
X93268Y597281D02*
X95357Y597281D01*
X95357Y606679D02*
X93268Y606679D01*
X99322Y606679D02*
X99322Y597281D01*
X104543Y597281D02*
X99322Y606679D01*
X104543Y606679D02*
X104543Y597281D01*
X108378Y596237D02*
X112555Y596237D01*
X116086Y604591D02*
X118696Y606679D01*
X118696Y597281D01*
X116086Y597281D02*
X121307Y597281D01*
X68058Y389001D02*
X63881Y389001D01*
X63881Y398399D01*
X68058Y398399D01*
X67014Y394222D02*
X63881Y394222D01*
X70961Y389001D02*
X77227Y398399D01*
X70961Y398399D02*
X77227Y389001D01*
X80715Y392656D02*
X86980Y392656D01*
X91772Y389001D02*
X91772Y398399D01*
X90728Y389001D02*
X92817Y389001D01*
X92817Y398399D02*
X90728Y398399D01*
X96782Y398399D02*
X96782Y389001D01*
X102003Y389001D02*
X96782Y398399D01*
X102003Y398399D02*
X102003Y389001D01*
X105838Y387957D02*
X110015Y387957D01*
X118767Y396050D02*
X118765Y396145D01*
X118759Y396239D01*
X118750Y396333D01*
X118737Y396427D01*
X118720Y396520D01*
X118699Y396612D01*
X118674Y396704D01*
X118646Y396794D01*
X118614Y396883D01*
X118579Y396971D01*
X118540Y397057D01*
X118498Y397142D01*
X118452Y397225D01*
X118403Y397306D01*
X118351Y397385D01*
X118296Y397462D01*
X118237Y397536D01*
X118176Y397608D01*
X118112Y397678D01*
X118045Y397745D01*
X117975Y397809D01*
X117903Y397870D01*
X117829Y397929D01*
X117752Y397984D01*
X117673Y398036D01*
X117592Y398085D01*
X117509Y398131D01*
X117424Y398173D01*
X117338Y398212D01*
X117250Y398247D01*
X117161Y398279D01*
X117071Y398307D01*
X116979Y398332D01*
X116887Y398353D01*
X116794Y398370D01*
X116700Y398383D01*
X116606Y398392D01*
X116512Y398398D01*
X116417Y398400D01*
X116417Y398399D02*
X116309Y398397D01*
X116200Y398391D01*
X116092Y398381D01*
X115985Y398368D01*
X115878Y398350D01*
X115771Y398329D01*
X115666Y398304D01*
X115561Y398275D01*
X115458Y398243D01*
X115356Y398206D01*
X115255Y398166D01*
X115156Y398123D01*
X115058Y398076D01*
X114962Y398025D01*
X114868Y397971D01*
X114776Y397914D01*
X114686Y397853D01*
X114598Y397789D01*
X114513Y397723D01*
X114430Y397653D01*
X114350Y397580D01*
X114272Y397504D01*
X114197Y397426D01*
X114125Y397345D01*
X114056Y397261D01*
X113990Y397175D01*
X113927Y397087D01*
X113868Y396996D01*
X113811Y396904D01*
X113758Y396809D01*
X113709Y396713D01*
X113663Y396614D01*
X113620Y396515D01*
X113581Y396413D01*
X113546Y396311D01*
X117984Y394222D02*
X118053Y394291D01*
X118119Y394362D01*
X118183Y394435D01*
X118244Y394511D01*
X118302Y394590D01*
X118356Y394670D01*
X118408Y394753D01*
X118456Y394837D01*
X118502Y394923D01*
X118543Y395011D01*
X118582Y395101D01*
X118617Y395192D01*
X118648Y395284D01*
X118676Y395377D01*
X118700Y395471D01*
X118720Y395566D01*
X118737Y395662D01*
X118750Y395759D01*
X118759Y395856D01*
X118765Y395953D01*
X118767Y396050D01*
X117984Y394222D02*
X113546Y389001D01*
X118767Y389001D01*
X68058Y170561D02*
X63881Y170561D01*
X63881Y179959D01*
X68058Y179959D01*
X67014Y175782D02*
X63881Y175782D01*
X70961Y170561D02*
X77227Y179959D01*
X70961Y179959D02*
X77227Y170561D01*
X80715Y174216D02*
X86980Y174216D01*
X91772Y170561D02*
X91772Y179959D01*
X90728Y170561D02*
X92817Y170561D01*
X92817Y179959D02*
X90728Y179959D01*
X96782Y179959D02*
X96782Y170561D01*
X102003Y170561D02*
X96782Y179959D01*
X102003Y179959D02*
X102003Y170561D01*
X105838Y169517D02*
X110015Y169517D01*
X113546Y170561D02*
X116156Y170561D01*
X116257Y170563D01*
X116358Y170569D01*
X116459Y170579D01*
X116559Y170592D01*
X116659Y170610D01*
X116758Y170631D01*
X116856Y170657D01*
X116953Y170686D01*
X117049Y170718D01*
X117143Y170755D01*
X117236Y170795D01*
X117328Y170839D01*
X117417Y170886D01*
X117505Y170937D01*
X117591Y170991D01*
X117674Y171048D01*
X117756Y171108D01*
X117834Y171172D01*
X117911Y171238D01*
X117984Y171308D01*
X118055Y171380D01*
X118123Y171455D01*
X118188Y171533D01*
X118250Y171613D01*
X118309Y171695D01*
X118365Y171780D01*
X118417Y171866D01*
X118466Y171955D01*
X118512Y172046D01*
X118553Y172138D01*
X118592Y172232D01*
X118626Y172327D01*
X118657Y172423D01*
X118684Y172521D01*
X118708Y172619D01*
X118727Y172719D01*
X118743Y172819D01*
X118755Y172919D01*
X118763Y173020D01*
X118767Y173121D01*
X118767Y173223D01*
X118763Y173324D01*
X118755Y173425D01*
X118743Y173525D01*
X118727Y173625D01*
X118708Y173725D01*
X118684Y173823D01*
X118657Y173921D01*
X118626Y174017D01*
X118592Y174112D01*
X118553Y174206D01*
X118512Y174298D01*
X118466Y174389D01*
X118417Y174477D01*
X118365Y174564D01*
X118309Y174649D01*
X118250Y174731D01*
X118188Y174811D01*
X118123Y174889D01*
X118055Y174964D01*
X117984Y175036D01*
X117911Y175106D01*
X117834Y175172D01*
X117756Y175236D01*
X117674Y175296D01*
X117591Y175353D01*
X117505Y175407D01*
X117417Y175458D01*
X117328Y175505D01*
X117236Y175549D01*
X117143Y175589D01*
X117049Y175626D01*
X116953Y175658D01*
X116856Y175687D01*
X116758Y175713D01*
X116659Y175734D01*
X116559Y175752D01*
X116459Y175765D01*
X116358Y175775D01*
X116257Y175781D01*
X116156Y175783D01*
X116678Y179959D02*
X113546Y179959D01*
X116678Y179959D02*
X116768Y179957D01*
X116857Y179951D01*
X116947Y179942D01*
X117036Y179928D01*
X117124Y179911D01*
X117211Y179890D01*
X117298Y179865D01*
X117383Y179836D01*
X117467Y179804D01*
X117549Y179769D01*
X117630Y179729D01*
X117709Y179687D01*
X117786Y179641D01*
X117861Y179591D01*
X117934Y179539D01*
X118005Y179483D01*
X118073Y179425D01*
X118138Y179363D01*
X118201Y179299D01*
X118261Y179232D01*
X118318Y179163D01*
X118372Y179091D01*
X118423Y179017D01*
X118471Y178941D01*
X118515Y178863D01*
X118556Y178783D01*
X118594Y178701D01*
X118628Y178618D01*
X118658Y178533D01*
X118685Y178447D01*
X118708Y178361D01*
X118727Y178273D01*
X118742Y178184D01*
X118754Y178095D01*
X118762Y178006D01*
X118766Y177916D01*
X118766Y177826D01*
X118762Y177736D01*
X118754Y177647D01*
X118742Y177558D01*
X118727Y177469D01*
X118708Y177381D01*
X118685Y177295D01*
X118658Y177209D01*
X118628Y177124D01*
X118594Y177041D01*
X118556Y176959D01*
X118515Y176879D01*
X118471Y176801D01*
X118423Y176725D01*
X118372Y176651D01*
X118318Y176579D01*
X118261Y176510D01*
X118201Y176443D01*
X118138Y176379D01*
X118073Y176317D01*
X118005Y176259D01*
X117934Y176203D01*
X117861Y176151D01*
X117786Y176101D01*
X117709Y176055D01*
X117630Y176013D01*
X117549Y175973D01*
X117467Y175938D01*
X117383Y175906D01*
X117298Y175877D01*
X117211Y175852D01*
X117124Y175831D01*
X117036Y175814D01*
X116947Y175800D01*
X116857Y175791D01*
X116768Y175785D01*
X116678Y175783D01*
X116678Y175782D02*
X114590Y175782D01*
X108839Y775081D02*
X99441Y775081D01*
X99441Y777692D01*
X99443Y777793D01*
X99449Y777894D01*
X99459Y777995D01*
X99472Y778095D01*
X99490Y778195D01*
X99511Y778294D01*
X99537Y778392D01*
X99566Y778489D01*
X99598Y778585D01*
X99635Y778679D01*
X99675Y778772D01*
X99719Y778864D01*
X99766Y778953D01*
X99817Y779041D01*
X99871Y779127D01*
X99928Y779210D01*
X99988Y779292D01*
X100052Y779370D01*
X100118Y779447D01*
X100188Y779520D01*
X100260Y779591D01*
X100335Y779659D01*
X100413Y779724D01*
X100493Y779786D01*
X100575Y779845D01*
X100660Y779901D01*
X100747Y779953D01*
X100835Y780002D01*
X100926Y780048D01*
X101018Y780089D01*
X101112Y780128D01*
X101207Y780162D01*
X101303Y780193D01*
X101401Y780220D01*
X101499Y780244D01*
X101599Y780263D01*
X101699Y780279D01*
X101799Y780291D01*
X101900Y780299D01*
X102001Y780303D01*
X102103Y780303D01*
X102204Y780299D01*
X102305Y780291D01*
X102405Y780279D01*
X102505Y780263D01*
X102605Y780244D01*
X102703Y780220D01*
X102801Y780193D01*
X102897Y780162D01*
X102992Y780128D01*
X103086Y780089D01*
X103178Y780048D01*
X103269Y780002D01*
X103358Y779953D01*
X103444Y779901D01*
X103529Y779845D01*
X103611Y779786D01*
X103691Y779724D01*
X103769Y779659D01*
X103844Y779591D01*
X103916Y779520D01*
X103986Y779447D01*
X104052Y779370D01*
X104116Y779292D01*
X104176Y779210D01*
X104233Y779127D01*
X104287Y779041D01*
X104338Y778953D01*
X104385Y778864D01*
X104429Y778772D01*
X104469Y778679D01*
X104506Y778585D01*
X104538Y778489D01*
X104567Y778392D01*
X104593Y778294D01*
X104614Y778195D01*
X104632Y778095D01*
X104645Y777995D01*
X104655Y777894D01*
X104661Y777793D01*
X104663Y777692D01*
X104662Y777692D02*
X104662Y775081D01*
X108839Y785790D02*
X99441Y785790D01*
X99441Y788400D02*
X99441Y783179D01*
X101529Y791714D02*
X99441Y794324D01*
X108839Y794324D01*
X108839Y791714D02*
X108839Y796935D01*
X104140Y800857D02*
X103955Y800859D01*
X103770Y800866D01*
X103586Y800877D01*
X103402Y800892D01*
X103218Y800912D01*
X103034Y800936D01*
X102852Y800965D01*
X102670Y800998D01*
X102489Y801035D01*
X102309Y801077D01*
X102129Y801123D01*
X101951Y801173D01*
X101775Y801227D01*
X101599Y801286D01*
X101425Y801348D01*
X101253Y801415D01*
X101082Y801486D01*
X100913Y801561D01*
X100746Y801640D01*
X100666Y801670D01*
X100587Y801703D01*
X100510Y801740D01*
X100434Y801780D01*
X100360Y801823D01*
X100288Y801869D01*
X100219Y801919D01*
X100151Y801971D01*
X100086Y802027D01*
X100023Y802085D01*
X99964Y802147D01*
X99906Y802210D01*
X99852Y802277D01*
X99801Y802345D01*
X99753Y802416D01*
X99708Y802489D01*
X99666Y802563D01*
X99628Y802640D01*
X99593Y802718D01*
X99561Y802797D01*
X99533Y802878D01*
X99509Y802960D01*
X99488Y803044D01*
X99471Y803127D01*
X99458Y803212D01*
X99449Y803297D01*
X99443Y803382D01*
X99441Y803468D01*
X99443Y803554D01*
X99449Y803639D01*
X99458Y803724D01*
X99471Y803809D01*
X99488Y803892D01*
X99509Y803976D01*
X99533Y804058D01*
X99561Y804139D01*
X99593Y804218D01*
X99628Y804296D01*
X99666Y804373D01*
X99708Y804447D01*
X99753Y804520D01*
X99801Y804591D01*
X99852Y804659D01*
X99906Y804726D01*
X99964Y804789D01*
X100023Y804851D01*
X100086Y804909D01*
X100151Y804965D01*
X100219Y805017D01*
X100288Y805067D01*
X100360Y805113D01*
X100434Y805156D01*
X100510Y805196D01*
X100587Y805233D01*
X100666Y805266D01*
X100746Y805296D01*
X100913Y805375D01*
X101082Y805450D01*
X101253Y805521D01*
X101425Y805588D01*
X101599Y805650D01*
X101775Y805709D01*
X101951Y805763D01*
X102129Y805813D01*
X102309Y805859D01*
X102489Y805901D01*
X102670Y805938D01*
X102852Y805971D01*
X103034Y806000D01*
X103218Y806024D01*
X103402Y806044D01*
X103586Y806059D01*
X103770Y806070D01*
X103955Y806077D01*
X104140Y806079D01*
X104140Y800858D02*
X104325Y800860D01*
X104510Y800867D01*
X104694Y800878D01*
X104878Y800893D01*
X105062Y800913D01*
X105246Y800937D01*
X105428Y800966D01*
X105610Y800999D01*
X105791Y801036D01*
X105971Y801078D01*
X106151Y801124D01*
X106329Y801174D01*
X106505Y801228D01*
X106681Y801287D01*
X106855Y801349D01*
X107027Y801416D01*
X107198Y801487D01*
X107367Y801562D01*
X107534Y801641D01*
X107534Y801640D02*
X107614Y801670D01*
X107693Y801703D01*
X107770Y801740D01*
X107846Y801780D01*
X107920Y801823D01*
X107992Y801869D01*
X108061Y801919D01*
X108129Y801972D01*
X108194Y802027D01*
X108257Y802086D01*
X108316Y802147D01*
X108374Y802210D01*
X108428Y802277D01*
X108479Y802345D01*
X108527Y802416D01*
X108572Y802489D01*
X108614Y802563D01*
X108652Y802640D01*
X108687Y802718D01*
X108719Y802797D01*
X108747Y802878D01*
X108771Y802960D01*
X108792Y803044D01*
X108809Y803127D01*
X108822Y803212D01*
X108831Y803297D01*
X108837Y803382D01*
X108839Y803468D01*
X107534Y805296D02*
X107367Y805375D01*
X107198Y805450D01*
X107027Y805521D01*
X106855Y805588D01*
X106681Y805650D01*
X106505Y805709D01*
X106329Y805763D01*
X106151Y805813D01*
X105971Y805859D01*
X105791Y805901D01*
X105610Y805938D01*
X105428Y805971D01*
X105246Y806000D01*
X105062Y806024D01*
X104878Y806044D01*
X104694Y806059D01*
X104510Y806070D01*
X104325Y806077D01*
X104140Y806079D01*
X107534Y805296D02*
X107614Y805266D01*
X107693Y805233D01*
X107770Y805196D01*
X107846Y805156D01*
X107920Y805113D01*
X107992Y805067D01*
X108061Y805017D01*
X108129Y804965D01*
X108194Y804909D01*
X108257Y804851D01*
X108316Y804789D01*
X108374Y804726D01*
X108428Y804659D01*
X108479Y804591D01*
X108527Y804520D01*
X108572Y804447D01*
X108614Y804373D01*
X108652Y804296D01*
X108687Y804218D01*
X108719Y804139D01*
X108747Y804058D01*
X108771Y803976D01*
X108792Y803892D01*
X108809Y803809D01*
X108822Y803724D01*
X108831Y803639D01*
X108837Y803554D01*
X108839Y803468D01*
X106751Y801380D02*
X101529Y805557D01*
X104140Y810001D02*
X103955Y810003D01*
X103770Y810010D01*
X103586Y810021D01*
X103402Y810036D01*
X103218Y810056D01*
X103034Y810080D01*
X102852Y810109D01*
X102670Y810142D01*
X102489Y810179D01*
X102309Y810221D01*
X102129Y810267D01*
X101951Y810317D01*
X101775Y810371D01*
X101599Y810430D01*
X101425Y810492D01*
X101253Y810559D01*
X101082Y810630D01*
X100913Y810705D01*
X100746Y810784D01*
X100666Y810814D01*
X100587Y810847D01*
X100510Y810884D01*
X100434Y810924D01*
X100360Y810967D01*
X100288Y811013D01*
X100219Y811063D01*
X100151Y811115D01*
X100086Y811171D01*
X100023Y811229D01*
X99964Y811291D01*
X99906Y811354D01*
X99852Y811421D01*
X99801Y811489D01*
X99753Y811560D01*
X99708Y811633D01*
X99666Y811707D01*
X99628Y811784D01*
X99593Y811862D01*
X99561Y811941D01*
X99533Y812022D01*
X99509Y812104D01*
X99488Y812188D01*
X99471Y812271D01*
X99458Y812356D01*
X99449Y812441D01*
X99443Y812526D01*
X99441Y812612D01*
X99443Y812698D01*
X99449Y812783D01*
X99458Y812868D01*
X99471Y812953D01*
X99488Y813036D01*
X99509Y813120D01*
X99533Y813202D01*
X99561Y813283D01*
X99593Y813362D01*
X99628Y813440D01*
X99666Y813517D01*
X99708Y813591D01*
X99753Y813664D01*
X99801Y813735D01*
X99852Y813803D01*
X99906Y813870D01*
X99964Y813933D01*
X100023Y813995D01*
X100086Y814053D01*
X100151Y814109D01*
X100219Y814161D01*
X100288Y814211D01*
X100360Y814257D01*
X100434Y814300D01*
X100510Y814340D01*
X100587Y814377D01*
X100666Y814410D01*
X100746Y814440D01*
X100913Y814519D01*
X101082Y814594D01*
X101253Y814665D01*
X101425Y814732D01*
X101599Y814794D01*
X101775Y814853D01*
X101951Y814907D01*
X102129Y814957D01*
X102309Y815003D01*
X102489Y815045D01*
X102670Y815082D01*
X102852Y815115D01*
X103034Y815144D01*
X103218Y815168D01*
X103402Y815188D01*
X103586Y815203D01*
X103770Y815214D01*
X103955Y815221D01*
X104140Y815223D01*
X104140Y810002D02*
X104325Y810004D01*
X104510Y810011D01*
X104694Y810022D01*
X104878Y810037D01*
X105062Y810057D01*
X105246Y810081D01*
X105428Y810110D01*
X105610Y810143D01*
X105791Y810180D01*
X105971Y810222D01*
X106151Y810268D01*
X106329Y810318D01*
X106505Y810372D01*
X106681Y810431D01*
X106855Y810493D01*
X107027Y810560D01*
X107198Y810631D01*
X107367Y810706D01*
X107534Y810785D01*
X107534Y810784D02*
X107614Y810814D01*
X107693Y810847D01*
X107770Y810884D01*
X107846Y810924D01*
X107920Y810967D01*
X107992Y811013D01*
X108061Y811063D01*
X108129Y811116D01*
X108194Y811171D01*
X108257Y811230D01*
X108316Y811291D01*
X108374Y811354D01*
X108428Y811421D01*
X108479Y811489D01*
X108527Y811560D01*
X108572Y811633D01*
X108614Y811707D01*
X108652Y811784D01*
X108687Y811862D01*
X108719Y811941D01*
X108747Y812022D01*
X108771Y812104D01*
X108792Y812188D01*
X108809Y812271D01*
X108822Y812356D01*
X108831Y812441D01*
X108837Y812526D01*
X108839Y812612D01*
X107534Y814440D02*
X107367Y814519D01*
X107198Y814594D01*
X107027Y814665D01*
X106855Y814732D01*
X106681Y814794D01*
X106505Y814853D01*
X106329Y814907D01*
X106151Y814957D01*
X105971Y815003D01*
X105791Y815045D01*
X105610Y815082D01*
X105428Y815115D01*
X105246Y815144D01*
X105062Y815168D01*
X104878Y815188D01*
X104694Y815203D01*
X104510Y815214D01*
X104325Y815221D01*
X104140Y815223D01*
X107534Y814440D02*
X107614Y814410D01*
X107693Y814377D01*
X107770Y814340D01*
X107846Y814300D01*
X107920Y814257D01*
X107992Y814211D01*
X108061Y814161D01*
X108129Y814109D01*
X108194Y814053D01*
X108257Y813995D01*
X108316Y813933D01*
X108374Y813870D01*
X108428Y813803D01*
X108479Y813735D01*
X108527Y813664D01*
X108572Y813591D01*
X108614Y813517D01*
X108652Y813440D01*
X108687Y813362D01*
X108719Y813283D01*
X108747Y813202D01*
X108771Y813120D01*
X108792Y813036D01*
X108809Y812953D01*
X108822Y812868D01*
X108831Y812783D01*
X108837Y812698D01*
X108839Y812612D01*
X106751Y810524D02*
X101529Y814701D01*
X155321Y797179D02*
X155321Y787781D01*
X155321Y797179D02*
X157932Y797179D01*
X158033Y797177D01*
X158134Y797171D01*
X158235Y797161D01*
X158335Y797148D01*
X158435Y797130D01*
X158534Y797109D01*
X158632Y797083D01*
X158729Y797054D01*
X158825Y797022D01*
X158919Y796985D01*
X159012Y796945D01*
X159104Y796901D01*
X159193Y796854D01*
X159281Y796803D01*
X159367Y796749D01*
X159450Y796692D01*
X159532Y796632D01*
X159610Y796568D01*
X159687Y796502D01*
X159760Y796432D01*
X159831Y796360D01*
X159899Y796285D01*
X159964Y796207D01*
X160026Y796127D01*
X160085Y796045D01*
X160141Y795960D01*
X160193Y795874D01*
X160242Y795785D01*
X160288Y795694D01*
X160329Y795602D01*
X160368Y795508D01*
X160402Y795413D01*
X160433Y795317D01*
X160460Y795219D01*
X160484Y795121D01*
X160503Y795021D01*
X160519Y794921D01*
X160531Y794821D01*
X160539Y794720D01*
X160543Y794619D01*
X160543Y794517D01*
X160539Y794416D01*
X160531Y794315D01*
X160519Y794215D01*
X160503Y794115D01*
X160484Y794015D01*
X160460Y793917D01*
X160433Y793819D01*
X160402Y793723D01*
X160368Y793628D01*
X160329Y793534D01*
X160288Y793442D01*
X160242Y793351D01*
X160193Y793263D01*
X160141Y793176D01*
X160085Y793091D01*
X160026Y793009D01*
X159964Y792929D01*
X159899Y792851D01*
X159831Y792776D01*
X159760Y792704D01*
X159687Y792634D01*
X159610Y792568D01*
X159532Y792504D01*
X159450Y792444D01*
X159367Y792387D01*
X159281Y792333D01*
X159193Y792282D01*
X159104Y792235D01*
X159012Y792191D01*
X158919Y792151D01*
X158825Y792114D01*
X158729Y792082D01*
X158632Y792053D01*
X158534Y792027D01*
X158435Y792006D01*
X158335Y791988D01*
X158235Y791975D01*
X158134Y791965D01*
X158033Y791959D01*
X157932Y791957D01*
X157932Y791958D02*
X155321Y791958D01*
X166030Y787781D02*
X166030Y797179D01*
X168640Y797179D02*
X163419Y797179D01*
X171954Y795091D02*
X174564Y797179D01*
X174564Y787781D01*
X171954Y787781D02*
X177175Y787781D01*
X181097Y792480D02*
X181099Y792665D01*
X181106Y792850D01*
X181117Y793034D01*
X181132Y793218D01*
X181152Y793402D01*
X181176Y793586D01*
X181205Y793768D01*
X181238Y793950D01*
X181275Y794131D01*
X181317Y794311D01*
X181363Y794491D01*
X181413Y794669D01*
X181467Y794845D01*
X181526Y795021D01*
X181588Y795195D01*
X181655Y795367D01*
X181726Y795538D01*
X181801Y795707D01*
X181880Y795874D01*
X181910Y795954D01*
X181943Y796033D01*
X181980Y796110D01*
X182020Y796186D01*
X182063Y796260D01*
X182109Y796332D01*
X182159Y796401D01*
X182211Y796469D01*
X182267Y796534D01*
X182325Y796597D01*
X182387Y796656D01*
X182450Y796714D01*
X182517Y796768D01*
X182585Y796819D01*
X182656Y796867D01*
X182729Y796912D01*
X182803Y796954D01*
X182880Y796992D01*
X182958Y797027D01*
X183037Y797059D01*
X183118Y797087D01*
X183200Y797111D01*
X183284Y797132D01*
X183367Y797149D01*
X183452Y797162D01*
X183537Y797171D01*
X183622Y797177D01*
X183708Y797179D01*
X183794Y797177D01*
X183879Y797171D01*
X183964Y797162D01*
X184049Y797149D01*
X184132Y797132D01*
X184216Y797111D01*
X184298Y797087D01*
X184379Y797059D01*
X184458Y797027D01*
X184536Y796992D01*
X184613Y796954D01*
X184687Y796912D01*
X184760Y796867D01*
X184831Y796819D01*
X184899Y796768D01*
X184966Y796714D01*
X185029Y796656D01*
X185091Y796597D01*
X185149Y796534D01*
X185205Y796469D01*
X185257Y796401D01*
X185307Y796332D01*
X185353Y796260D01*
X185396Y796186D01*
X185436Y796110D01*
X185473Y796033D01*
X185506Y795954D01*
X185536Y795874D01*
X185615Y795707D01*
X185690Y795538D01*
X185761Y795367D01*
X185828Y795195D01*
X185890Y795021D01*
X185949Y794845D01*
X186003Y794669D01*
X186053Y794491D01*
X186099Y794311D01*
X186141Y794131D01*
X186178Y793950D01*
X186211Y793768D01*
X186240Y793586D01*
X186264Y793402D01*
X186284Y793218D01*
X186299Y793034D01*
X186310Y792850D01*
X186317Y792665D01*
X186319Y792480D01*
X181098Y792480D02*
X181100Y792295D01*
X181107Y792110D01*
X181118Y791926D01*
X181133Y791742D01*
X181153Y791558D01*
X181177Y791374D01*
X181206Y791192D01*
X181239Y791010D01*
X181276Y790829D01*
X181318Y790649D01*
X181364Y790469D01*
X181414Y790291D01*
X181468Y790115D01*
X181527Y789939D01*
X181589Y789765D01*
X181656Y789593D01*
X181727Y789422D01*
X181802Y789253D01*
X181881Y789086D01*
X181880Y789086D02*
X181910Y789006D01*
X181943Y788927D01*
X181980Y788850D01*
X182020Y788774D01*
X182063Y788700D01*
X182109Y788628D01*
X182159Y788559D01*
X182212Y788491D01*
X182267Y788426D01*
X182326Y788363D01*
X182387Y788304D01*
X182450Y788246D01*
X182517Y788192D01*
X182585Y788141D01*
X182656Y788093D01*
X182729Y788048D01*
X182803Y788006D01*
X182880Y787968D01*
X182958Y787933D01*
X183037Y787901D01*
X183118Y787873D01*
X183200Y787849D01*
X183284Y787828D01*
X183367Y787811D01*
X183452Y787798D01*
X183537Y787789D01*
X183622Y787783D01*
X183708Y787781D01*
X185536Y789086D02*
X185615Y789253D01*
X185690Y789422D01*
X185761Y789593D01*
X185828Y789765D01*
X185890Y789939D01*
X185949Y790115D01*
X186003Y790291D01*
X186053Y790469D01*
X186099Y790649D01*
X186141Y790829D01*
X186178Y791010D01*
X186211Y791192D01*
X186240Y791374D01*
X186264Y791558D01*
X186284Y791742D01*
X186299Y791926D01*
X186310Y792110D01*
X186317Y792295D01*
X186319Y792480D01*
X185536Y789086D02*
X185506Y789006D01*
X185473Y788927D01*
X185436Y788850D01*
X185396Y788774D01*
X185353Y788700D01*
X185307Y788628D01*
X185257Y788559D01*
X185205Y788491D01*
X185149Y788426D01*
X185091Y788363D01*
X185029Y788304D01*
X184966Y788246D01*
X184899Y788192D01*
X184831Y788141D01*
X184760Y788093D01*
X184687Y788048D01*
X184613Y788006D01*
X184536Y787968D01*
X184458Y787933D01*
X184379Y787901D01*
X184298Y787873D01*
X184216Y787849D01*
X184132Y787828D01*
X184049Y787811D01*
X183964Y787798D01*
X183879Y787789D01*
X183794Y787783D01*
X183708Y787781D01*
X181620Y789869D02*
X185797Y795091D01*
X190241Y792480D02*
X190243Y792665D01*
X190250Y792850D01*
X190261Y793034D01*
X190276Y793218D01*
X190296Y793402D01*
X190320Y793586D01*
X190349Y793768D01*
X190382Y793950D01*
X190419Y794131D01*
X190461Y794311D01*
X190507Y794491D01*
X190557Y794669D01*
X190611Y794845D01*
X190670Y795021D01*
X190732Y795195D01*
X190799Y795367D01*
X190870Y795538D01*
X190945Y795707D01*
X191024Y795874D01*
X191054Y795954D01*
X191087Y796033D01*
X191124Y796110D01*
X191164Y796186D01*
X191207Y796260D01*
X191253Y796332D01*
X191303Y796401D01*
X191355Y796469D01*
X191411Y796534D01*
X191469Y796597D01*
X191531Y796656D01*
X191594Y796714D01*
X191661Y796768D01*
X191729Y796819D01*
X191800Y796867D01*
X191873Y796912D01*
X191947Y796954D01*
X192024Y796992D01*
X192102Y797027D01*
X192181Y797059D01*
X192262Y797087D01*
X192344Y797111D01*
X192428Y797132D01*
X192511Y797149D01*
X192596Y797162D01*
X192681Y797171D01*
X192766Y797177D01*
X192852Y797179D01*
X192938Y797177D01*
X193023Y797171D01*
X193108Y797162D01*
X193193Y797149D01*
X193276Y797132D01*
X193360Y797111D01*
X193442Y797087D01*
X193523Y797059D01*
X193602Y797027D01*
X193680Y796992D01*
X193757Y796954D01*
X193831Y796912D01*
X193904Y796867D01*
X193975Y796819D01*
X194043Y796768D01*
X194110Y796714D01*
X194173Y796656D01*
X194235Y796597D01*
X194293Y796534D01*
X194349Y796469D01*
X194401Y796401D01*
X194451Y796332D01*
X194497Y796260D01*
X194540Y796186D01*
X194580Y796110D01*
X194617Y796033D01*
X194650Y795954D01*
X194680Y795874D01*
X194759Y795707D01*
X194834Y795538D01*
X194905Y795367D01*
X194972Y795195D01*
X195034Y795021D01*
X195093Y794845D01*
X195147Y794669D01*
X195197Y794491D01*
X195243Y794311D01*
X195285Y794131D01*
X195322Y793950D01*
X195355Y793768D01*
X195384Y793586D01*
X195408Y793402D01*
X195428Y793218D01*
X195443Y793034D01*
X195454Y792850D01*
X195461Y792665D01*
X195463Y792480D01*
X190242Y792480D02*
X190244Y792295D01*
X190251Y792110D01*
X190262Y791926D01*
X190277Y791742D01*
X190297Y791558D01*
X190321Y791374D01*
X190350Y791192D01*
X190383Y791010D01*
X190420Y790829D01*
X190462Y790649D01*
X190508Y790469D01*
X190558Y790291D01*
X190612Y790115D01*
X190671Y789939D01*
X190733Y789765D01*
X190800Y789593D01*
X190871Y789422D01*
X190946Y789253D01*
X191025Y789086D01*
X191024Y789086D02*
X191054Y789006D01*
X191087Y788927D01*
X191124Y788850D01*
X191164Y788774D01*
X191207Y788700D01*
X191253Y788628D01*
X191303Y788559D01*
X191356Y788491D01*
X191411Y788426D01*
X191470Y788363D01*
X191531Y788304D01*
X191594Y788246D01*
X191661Y788192D01*
X191729Y788141D01*
X191800Y788093D01*
X191873Y788048D01*
X191947Y788006D01*
X192024Y787968D01*
X192102Y787933D01*
X192181Y787901D01*
X192262Y787873D01*
X192344Y787849D01*
X192428Y787828D01*
X192511Y787811D01*
X192596Y787798D01*
X192681Y787789D01*
X192766Y787783D01*
X192852Y787781D01*
X194680Y789086D02*
X194759Y789253D01*
X194834Y789422D01*
X194905Y789593D01*
X194972Y789765D01*
X195034Y789939D01*
X195093Y790115D01*
X195147Y790291D01*
X195197Y790469D01*
X195243Y790649D01*
X195285Y790829D01*
X195322Y791010D01*
X195355Y791192D01*
X195384Y791374D01*
X195408Y791558D01*
X195428Y791742D01*
X195443Y791926D01*
X195454Y792110D01*
X195461Y792295D01*
X195463Y792480D01*
X194680Y789086D02*
X194650Y789006D01*
X194617Y788927D01*
X194580Y788850D01*
X194540Y788774D01*
X194497Y788700D01*
X194451Y788628D01*
X194401Y788559D01*
X194349Y788491D01*
X194293Y788426D01*
X194235Y788363D01*
X194173Y788304D01*
X194110Y788246D01*
X194043Y788192D01*
X193975Y788141D01*
X193904Y788093D01*
X193831Y788048D01*
X193757Y788006D01*
X193680Y787968D01*
X193602Y787933D01*
X193523Y787901D01*
X193442Y787873D01*
X193360Y787849D01*
X193276Y787828D01*
X193193Y787811D01*
X193108Y787798D01*
X193023Y787789D01*
X192938Y787783D01*
X192852Y787781D01*
X190764Y789869D02*
X194941Y795091D01*
X330581Y856051D02*
X333192Y858139D01*
X333192Y848741D01*
X335802Y848741D02*
X330581Y848741D01*
D11*
X171760Y573500D02*
X171760Y569500D01*
X178760Y569500D02*
X178760Y573500D01*
D12*
X172385Y570250D03*
D10*
X169959Y556801D02*
X160561Y556801D01*
X169959Y556801D02*
X169959Y560978D01*
X169959Y564726D02*
X169959Y568903D01*
X169959Y564726D02*
X160561Y564726D01*
X160561Y568903D01*
X164738Y567858D02*
X164738Y564726D01*
X160561Y572633D02*
X169959Y572633D01*
X160561Y572633D02*
X160561Y575244D01*
X160563Y575344D01*
X160569Y575444D01*
X160578Y575543D01*
X160592Y575643D01*
X160609Y575741D01*
X160630Y575839D01*
X160654Y575936D01*
X160683Y576032D01*
X160715Y576127D01*
X160750Y576220D01*
X160789Y576312D01*
X160832Y576403D01*
X160878Y576491D01*
X160928Y576578D01*
X160980Y576663D01*
X161036Y576746D01*
X161095Y576827D01*
X161158Y576905D01*
X161223Y576981D01*
X161291Y577055D01*
X161361Y577125D01*
X161435Y577193D01*
X161511Y577258D01*
X161589Y577321D01*
X161670Y577380D01*
X161753Y577436D01*
X161838Y577488D01*
X161925Y577538D01*
X162013Y577584D01*
X162104Y577627D01*
X162196Y577666D01*
X162289Y577701D01*
X162384Y577733D01*
X162480Y577762D01*
X162577Y577786D01*
X162675Y577807D01*
X162773Y577824D01*
X162873Y577838D01*
X162972Y577847D01*
X163072Y577853D01*
X163172Y577855D01*
X163172Y577854D02*
X167348Y577854D01*
X167348Y577855D02*
X167448Y577853D01*
X167548Y577847D01*
X167647Y577838D01*
X167747Y577824D01*
X167845Y577807D01*
X167943Y577786D01*
X168040Y577762D01*
X168136Y577733D01*
X168231Y577701D01*
X168324Y577666D01*
X168416Y577627D01*
X168507Y577584D01*
X168595Y577538D01*
X168682Y577488D01*
X168767Y577436D01*
X168850Y577380D01*
X168931Y577321D01*
X169009Y577258D01*
X169085Y577193D01*
X169159Y577125D01*
X169229Y577055D01*
X169297Y576981D01*
X169362Y576905D01*
X169425Y576827D01*
X169484Y576746D01*
X169540Y576663D01*
X169592Y576578D01*
X169642Y576491D01*
X169688Y576403D01*
X169731Y576312D01*
X169770Y576220D01*
X169805Y576127D01*
X169837Y576032D01*
X169866Y575936D01*
X169890Y575839D01*
X169911Y575741D01*
X169928Y575643D01*
X169942Y575543D01*
X169951Y575444D01*
X169957Y575344D01*
X169959Y575244D01*
X169959Y572633D01*
X162649Y582082D02*
X160561Y584692D01*
X169959Y584692D01*
X169959Y582082D02*
X169959Y587303D01*
D13*
X323850Y23368D02*
X342900Y23368D01*
X323850Y23368D02*
X285750Y23368D01*
X285750Y861568D01*
X323850Y861568D01*
X342900Y861568D01*
X342900Y23368D01*
X323850Y23368D02*
X323850Y861568D01*
D10*
X306366Y875157D02*
X300101Y865759D01*
X306366Y865759D02*
X300101Y875157D01*
X309767Y873069D02*
X312378Y875157D01*
X312378Y865759D01*
X314988Y865759D02*
X309767Y865759D01*
D14*
X7760Y873971D02*
X7760Y721571D01*
X73503Y721571D02*
X73503Y873971D01*
X28705Y873971D02*
X23781Y873971D01*
X14990Y873971D02*
X14990Y875258D01*
X19130Y875258D02*
X19130Y873971D01*
X16981Y873971D01*
X14990Y873971D01*
X20630Y877041D02*
X20630Y879671D01*
X13490Y879671D02*
X13490Y877041D01*
X19130Y873971D02*
X23781Y873971D01*
X14990Y875258D02*
X13490Y877041D01*
X13490Y879671D02*
X20630Y879671D01*
X68673Y873971D02*
X73503Y873971D01*
X68673Y873971D02*
X28705Y873971D01*
X20630Y877041D02*
X19130Y875258D01*
X23781Y873971D02*
X23781Y721571D01*
X28705Y721571D01*
X16981Y721571D02*
X16981Y873971D01*
X16981Y721571D02*
X23781Y721571D01*
X28705Y721571D02*
X68673Y721571D01*
X73503Y721571D01*
X88760Y721571D01*
X14990Y873971D02*
X10760Y873971D01*
X10760Y721571D02*
X16981Y721571D01*
X88760Y721571D02*
X88760Y873971D01*
X73503Y873971D01*
X10760Y873971D02*
X10760Y721571D01*
X10760Y873971D02*
X7760Y873971D01*
X7760Y721571D02*
X10760Y721571D01*
X29360Y848571D02*
X29366Y849041D01*
X29383Y849511D01*
X29412Y849980D01*
X29452Y850448D01*
X29504Y850915D01*
X29567Y851381D01*
X29642Y851845D01*
X29728Y852307D01*
X29825Y852767D01*
X29934Y853224D01*
X30054Y853679D01*
X30185Y854130D01*
X30327Y854578D01*
X30479Y855022D01*
X30643Y855463D01*
X30818Y855899D01*
X31003Y856331D01*
X31199Y856759D01*
X31405Y857181D01*
X31621Y857598D01*
X31848Y858010D01*
X32084Y858416D01*
X32331Y858816D01*
X32587Y859210D01*
X32853Y859598D01*
X33129Y859979D01*
X33413Y860353D01*
X33707Y860720D01*
X34009Y861079D01*
X34321Y861431D01*
X34641Y861776D01*
X34969Y862112D01*
X35305Y862440D01*
X35650Y862760D01*
X36002Y863072D01*
X36361Y863374D01*
X36728Y863668D01*
X37102Y863952D01*
X37483Y864228D01*
X37871Y864494D01*
X38265Y864750D01*
X38665Y864997D01*
X39071Y865233D01*
X39483Y865460D01*
X39900Y865676D01*
X40322Y865882D01*
X40750Y866078D01*
X41182Y866263D01*
X41618Y866438D01*
X42059Y866602D01*
X42503Y866754D01*
X42951Y866896D01*
X43402Y867027D01*
X43857Y867147D01*
X44314Y867256D01*
X44774Y867353D01*
X45236Y867439D01*
X45700Y867514D01*
X46166Y867577D01*
X46633Y867629D01*
X47101Y867669D01*
X47570Y867698D01*
X48040Y867715D01*
X48510Y867721D01*
X48980Y867715D01*
X49450Y867698D01*
X49919Y867669D01*
X50387Y867629D01*
X50854Y867577D01*
X51320Y867514D01*
X51784Y867439D01*
X52246Y867353D01*
X52706Y867256D01*
X53163Y867147D01*
X53618Y867027D01*
X54069Y866896D01*
X54517Y866754D01*
X54961Y866602D01*
X55402Y866438D01*
X55838Y866263D01*
X56270Y866078D01*
X56698Y865882D01*
X57120Y865676D01*
X57537Y865460D01*
X57949Y865233D01*
X58355Y864997D01*
X58755Y864750D01*
X59149Y864494D01*
X59537Y864228D01*
X59918Y863952D01*
X60292Y863668D01*
X60659Y863374D01*
X61018Y863072D01*
X61370Y862760D01*
X61715Y862440D01*
X62051Y862112D01*
X62379Y861776D01*
X62699Y861431D01*
X63011Y861079D01*
X63313Y860720D01*
X63607Y860353D01*
X63891Y859979D01*
X64167Y859598D01*
X64433Y859210D01*
X64689Y858816D01*
X64936Y858416D01*
X65172Y858010D01*
X65399Y857598D01*
X65615Y857181D01*
X65821Y856759D01*
X66017Y856331D01*
X66202Y855899D01*
X66377Y855463D01*
X66541Y855022D01*
X66693Y854578D01*
X66835Y854130D01*
X66966Y853679D01*
X67086Y853224D01*
X67195Y852767D01*
X67292Y852307D01*
X67378Y851845D01*
X67453Y851381D01*
X67516Y850915D01*
X67568Y850448D01*
X67608Y849980D01*
X67637Y849511D01*
X67654Y849041D01*
X67660Y848571D01*
X67654Y848101D01*
X67637Y847631D01*
X67608Y847162D01*
X67568Y846694D01*
X67516Y846227D01*
X67453Y845761D01*
X67378Y845297D01*
X67292Y844835D01*
X67195Y844375D01*
X67086Y843918D01*
X66966Y843463D01*
X66835Y843012D01*
X66693Y842564D01*
X66541Y842120D01*
X66377Y841679D01*
X66202Y841243D01*
X66017Y840811D01*
X65821Y840383D01*
X65615Y839961D01*
X65399Y839544D01*
X65172Y839132D01*
X64936Y838726D01*
X64689Y838326D01*
X64433Y837932D01*
X64167Y837544D01*
X63891Y837163D01*
X63607Y836789D01*
X63313Y836422D01*
X63011Y836063D01*
X62699Y835711D01*
X62379Y835366D01*
X62051Y835030D01*
X61715Y834702D01*
X61370Y834382D01*
X61018Y834070D01*
X60659Y833768D01*
X60292Y833474D01*
X59918Y833190D01*
X59537Y832914D01*
X59149Y832648D01*
X58755Y832392D01*
X58355Y832145D01*
X57949Y831909D01*
X57537Y831682D01*
X57120Y831466D01*
X56698Y831260D01*
X56270Y831064D01*
X55838Y830879D01*
X55402Y830704D01*
X54961Y830540D01*
X54517Y830388D01*
X54069Y830246D01*
X53618Y830115D01*
X53163Y829995D01*
X52706Y829886D01*
X52246Y829789D01*
X51784Y829703D01*
X51320Y829628D01*
X50854Y829565D01*
X50387Y829513D01*
X49919Y829473D01*
X49450Y829444D01*
X48980Y829427D01*
X48510Y829421D01*
X48040Y829427D01*
X47570Y829444D01*
X47101Y829473D01*
X46633Y829513D01*
X46166Y829565D01*
X45700Y829628D01*
X45236Y829703D01*
X44774Y829789D01*
X44314Y829886D01*
X43857Y829995D01*
X43402Y830115D01*
X42951Y830246D01*
X42503Y830388D01*
X42059Y830540D01*
X41618Y830704D01*
X41182Y830879D01*
X40750Y831064D01*
X40322Y831260D01*
X39900Y831466D01*
X39483Y831682D01*
X39071Y831909D01*
X38665Y832145D01*
X38265Y832392D01*
X37871Y832648D01*
X37483Y832914D01*
X37102Y833190D01*
X36728Y833474D01*
X36361Y833768D01*
X36002Y834070D01*
X35650Y834382D01*
X35305Y834702D01*
X34969Y835030D01*
X34641Y835366D01*
X34321Y835711D01*
X34009Y836063D01*
X33707Y836422D01*
X33413Y836789D01*
X33129Y837163D01*
X32853Y837544D01*
X32587Y837932D01*
X32331Y838326D01*
X32084Y838726D01*
X31848Y839132D01*
X31621Y839544D01*
X31405Y839961D01*
X31199Y840383D01*
X31003Y840811D01*
X30818Y841243D01*
X30643Y841679D01*
X30479Y842120D01*
X30327Y842564D01*
X30185Y843012D01*
X30054Y843463D01*
X29934Y843918D01*
X29825Y844375D01*
X29728Y844835D01*
X29642Y845297D01*
X29567Y845761D01*
X29504Y846227D01*
X29452Y846694D01*
X29412Y847162D01*
X29383Y847631D01*
X29366Y848101D01*
X29360Y848571D01*
X29360Y797771D02*
X29366Y798241D01*
X29383Y798711D01*
X29412Y799180D01*
X29452Y799648D01*
X29504Y800115D01*
X29567Y800581D01*
X29642Y801045D01*
X29728Y801507D01*
X29825Y801967D01*
X29934Y802424D01*
X30054Y802879D01*
X30185Y803330D01*
X30327Y803778D01*
X30479Y804222D01*
X30643Y804663D01*
X30818Y805099D01*
X31003Y805531D01*
X31199Y805959D01*
X31405Y806381D01*
X31621Y806798D01*
X31848Y807210D01*
X32084Y807616D01*
X32331Y808016D01*
X32587Y808410D01*
X32853Y808798D01*
X33129Y809179D01*
X33413Y809553D01*
X33707Y809920D01*
X34009Y810279D01*
X34321Y810631D01*
X34641Y810976D01*
X34969Y811312D01*
X35305Y811640D01*
X35650Y811960D01*
X36002Y812272D01*
X36361Y812574D01*
X36728Y812868D01*
X37102Y813152D01*
X37483Y813428D01*
X37871Y813694D01*
X38265Y813950D01*
X38665Y814197D01*
X39071Y814433D01*
X39483Y814660D01*
X39900Y814876D01*
X40322Y815082D01*
X40750Y815278D01*
X41182Y815463D01*
X41618Y815638D01*
X42059Y815802D01*
X42503Y815954D01*
X42951Y816096D01*
X43402Y816227D01*
X43857Y816347D01*
X44314Y816456D01*
X44774Y816553D01*
X45236Y816639D01*
X45700Y816714D01*
X46166Y816777D01*
X46633Y816829D01*
X47101Y816869D01*
X47570Y816898D01*
X48040Y816915D01*
X48510Y816921D01*
X48980Y816915D01*
X49450Y816898D01*
X49919Y816869D01*
X50387Y816829D01*
X50854Y816777D01*
X51320Y816714D01*
X51784Y816639D01*
X52246Y816553D01*
X52706Y816456D01*
X53163Y816347D01*
X53618Y816227D01*
X54069Y816096D01*
X54517Y815954D01*
X54961Y815802D01*
X55402Y815638D01*
X55838Y815463D01*
X56270Y815278D01*
X56698Y815082D01*
X57120Y814876D01*
X57537Y814660D01*
X57949Y814433D01*
X58355Y814197D01*
X58755Y813950D01*
X59149Y813694D01*
X59537Y813428D01*
X59918Y813152D01*
X60292Y812868D01*
X60659Y812574D01*
X61018Y812272D01*
X61370Y811960D01*
X61715Y811640D01*
X62051Y811312D01*
X62379Y810976D01*
X62699Y810631D01*
X63011Y810279D01*
X63313Y809920D01*
X63607Y809553D01*
X63891Y809179D01*
X64167Y808798D01*
X64433Y808410D01*
X64689Y808016D01*
X64936Y807616D01*
X65172Y807210D01*
X65399Y806798D01*
X65615Y806381D01*
X65821Y805959D01*
X66017Y805531D01*
X66202Y805099D01*
X66377Y804663D01*
X66541Y804222D01*
X66693Y803778D01*
X66835Y803330D01*
X66966Y802879D01*
X67086Y802424D01*
X67195Y801967D01*
X67292Y801507D01*
X67378Y801045D01*
X67453Y800581D01*
X67516Y800115D01*
X67568Y799648D01*
X67608Y799180D01*
X67637Y798711D01*
X67654Y798241D01*
X67660Y797771D01*
X67654Y797301D01*
X67637Y796831D01*
X67608Y796362D01*
X67568Y795894D01*
X67516Y795427D01*
X67453Y794961D01*
X67378Y794497D01*
X67292Y794035D01*
X67195Y793575D01*
X67086Y793118D01*
X66966Y792663D01*
X66835Y792212D01*
X66693Y791764D01*
X66541Y791320D01*
X66377Y790879D01*
X66202Y790443D01*
X66017Y790011D01*
X65821Y789583D01*
X65615Y789161D01*
X65399Y788744D01*
X65172Y788332D01*
X64936Y787926D01*
X64689Y787526D01*
X64433Y787132D01*
X64167Y786744D01*
X63891Y786363D01*
X63607Y785989D01*
X63313Y785622D01*
X63011Y785263D01*
X62699Y784911D01*
X62379Y784566D01*
X62051Y784230D01*
X61715Y783902D01*
X61370Y783582D01*
X61018Y783270D01*
X60659Y782968D01*
X60292Y782674D01*
X59918Y782390D01*
X59537Y782114D01*
X59149Y781848D01*
X58755Y781592D01*
X58355Y781345D01*
X57949Y781109D01*
X57537Y780882D01*
X57120Y780666D01*
X56698Y780460D01*
X56270Y780264D01*
X55838Y780079D01*
X55402Y779904D01*
X54961Y779740D01*
X54517Y779588D01*
X54069Y779446D01*
X53618Y779315D01*
X53163Y779195D01*
X52706Y779086D01*
X52246Y778989D01*
X51784Y778903D01*
X51320Y778828D01*
X50854Y778765D01*
X50387Y778713D01*
X49919Y778673D01*
X49450Y778644D01*
X48980Y778627D01*
X48510Y778621D01*
X48040Y778627D01*
X47570Y778644D01*
X47101Y778673D01*
X46633Y778713D01*
X46166Y778765D01*
X45700Y778828D01*
X45236Y778903D01*
X44774Y778989D01*
X44314Y779086D01*
X43857Y779195D01*
X43402Y779315D01*
X42951Y779446D01*
X42503Y779588D01*
X42059Y779740D01*
X41618Y779904D01*
X41182Y780079D01*
X40750Y780264D01*
X40322Y780460D01*
X39900Y780666D01*
X39483Y780882D01*
X39071Y781109D01*
X38665Y781345D01*
X38265Y781592D01*
X37871Y781848D01*
X37483Y782114D01*
X37102Y782390D01*
X36728Y782674D01*
X36361Y782968D01*
X36002Y783270D01*
X35650Y783582D01*
X35305Y783902D01*
X34969Y784230D01*
X34641Y784566D01*
X34321Y784911D01*
X34009Y785263D01*
X33707Y785622D01*
X33413Y785989D01*
X33129Y786363D01*
X32853Y786744D01*
X32587Y787132D01*
X32331Y787526D01*
X32084Y787926D01*
X31848Y788332D01*
X31621Y788744D01*
X31405Y789161D01*
X31199Y789583D01*
X31003Y790011D01*
X30818Y790443D01*
X30643Y790879D01*
X30479Y791320D01*
X30327Y791764D01*
X30185Y792212D01*
X30054Y792663D01*
X29934Y793118D01*
X29825Y793575D01*
X29728Y794035D01*
X29642Y794497D01*
X29567Y794961D01*
X29504Y795427D01*
X29452Y795894D01*
X29412Y796362D01*
X29383Y796831D01*
X29366Y797301D01*
X29360Y797771D01*
X29360Y746971D02*
X29366Y747441D01*
X29383Y747911D01*
X29412Y748380D01*
X29452Y748848D01*
X29504Y749315D01*
X29567Y749781D01*
X29642Y750245D01*
X29728Y750707D01*
X29825Y751167D01*
X29934Y751624D01*
X30054Y752079D01*
X30185Y752530D01*
X30327Y752978D01*
X30479Y753422D01*
X30643Y753863D01*
X30818Y754299D01*
X31003Y754731D01*
X31199Y755159D01*
X31405Y755581D01*
X31621Y755998D01*
X31848Y756410D01*
X32084Y756816D01*
X32331Y757216D01*
X32587Y757610D01*
X32853Y757998D01*
X33129Y758379D01*
X33413Y758753D01*
X33707Y759120D01*
X34009Y759479D01*
X34321Y759831D01*
X34641Y760176D01*
X34969Y760512D01*
X35305Y760840D01*
X35650Y761160D01*
X36002Y761472D01*
X36361Y761774D01*
X36728Y762068D01*
X37102Y762352D01*
X37483Y762628D01*
X37871Y762894D01*
X38265Y763150D01*
X38665Y763397D01*
X39071Y763633D01*
X39483Y763860D01*
X39900Y764076D01*
X40322Y764282D01*
X40750Y764478D01*
X41182Y764663D01*
X41618Y764838D01*
X42059Y765002D01*
X42503Y765154D01*
X42951Y765296D01*
X43402Y765427D01*
X43857Y765547D01*
X44314Y765656D01*
X44774Y765753D01*
X45236Y765839D01*
X45700Y765914D01*
X46166Y765977D01*
X46633Y766029D01*
X47101Y766069D01*
X47570Y766098D01*
X48040Y766115D01*
X48510Y766121D01*
X48980Y766115D01*
X49450Y766098D01*
X49919Y766069D01*
X50387Y766029D01*
X50854Y765977D01*
X51320Y765914D01*
X51784Y765839D01*
X52246Y765753D01*
X52706Y765656D01*
X53163Y765547D01*
X53618Y765427D01*
X54069Y765296D01*
X54517Y765154D01*
X54961Y765002D01*
X55402Y764838D01*
X55838Y764663D01*
X56270Y764478D01*
X56698Y764282D01*
X57120Y764076D01*
X57537Y763860D01*
X57949Y763633D01*
X58355Y763397D01*
X58755Y763150D01*
X59149Y762894D01*
X59537Y762628D01*
X59918Y762352D01*
X60292Y762068D01*
X60659Y761774D01*
X61018Y761472D01*
X61370Y761160D01*
X61715Y760840D01*
X62051Y760512D01*
X62379Y760176D01*
X62699Y759831D01*
X63011Y759479D01*
X63313Y759120D01*
X63607Y758753D01*
X63891Y758379D01*
X64167Y757998D01*
X64433Y757610D01*
X64689Y757216D01*
X64936Y756816D01*
X65172Y756410D01*
X65399Y755998D01*
X65615Y755581D01*
X65821Y755159D01*
X66017Y754731D01*
X66202Y754299D01*
X66377Y753863D01*
X66541Y753422D01*
X66693Y752978D01*
X66835Y752530D01*
X66966Y752079D01*
X67086Y751624D01*
X67195Y751167D01*
X67292Y750707D01*
X67378Y750245D01*
X67453Y749781D01*
X67516Y749315D01*
X67568Y748848D01*
X67608Y748380D01*
X67637Y747911D01*
X67654Y747441D01*
X67660Y746971D01*
X67654Y746501D01*
X67637Y746031D01*
X67608Y745562D01*
X67568Y745094D01*
X67516Y744627D01*
X67453Y744161D01*
X67378Y743697D01*
X67292Y743235D01*
X67195Y742775D01*
X67086Y742318D01*
X66966Y741863D01*
X66835Y741412D01*
X66693Y740964D01*
X66541Y740520D01*
X66377Y740079D01*
X66202Y739643D01*
X66017Y739211D01*
X65821Y738783D01*
X65615Y738361D01*
X65399Y737944D01*
X65172Y737532D01*
X64936Y737126D01*
X64689Y736726D01*
X64433Y736332D01*
X64167Y735944D01*
X63891Y735563D01*
X63607Y735189D01*
X63313Y734822D01*
X63011Y734463D01*
X62699Y734111D01*
X62379Y733766D01*
X62051Y733430D01*
X61715Y733102D01*
X61370Y732782D01*
X61018Y732470D01*
X60659Y732168D01*
X60292Y731874D01*
X59918Y731590D01*
X59537Y731314D01*
X59149Y731048D01*
X58755Y730792D01*
X58355Y730545D01*
X57949Y730309D01*
X57537Y730082D01*
X57120Y729866D01*
X56698Y729660D01*
X56270Y729464D01*
X55838Y729279D01*
X55402Y729104D01*
X54961Y728940D01*
X54517Y728788D01*
X54069Y728646D01*
X53618Y728515D01*
X53163Y728395D01*
X52706Y728286D01*
X52246Y728189D01*
X51784Y728103D01*
X51320Y728028D01*
X50854Y727965D01*
X50387Y727913D01*
X49919Y727873D01*
X49450Y727844D01*
X48980Y727827D01*
X48510Y727821D01*
X48040Y727827D01*
X47570Y727844D01*
X47101Y727873D01*
X46633Y727913D01*
X46166Y727965D01*
X45700Y728028D01*
X45236Y728103D01*
X44774Y728189D01*
X44314Y728286D01*
X43857Y728395D01*
X43402Y728515D01*
X42951Y728646D01*
X42503Y728788D01*
X42059Y728940D01*
X41618Y729104D01*
X41182Y729279D01*
X40750Y729464D01*
X40322Y729660D01*
X39900Y729866D01*
X39483Y730082D01*
X39071Y730309D01*
X38665Y730545D01*
X38265Y730792D01*
X37871Y731048D01*
X37483Y731314D01*
X37102Y731590D01*
X36728Y731874D01*
X36361Y732168D01*
X36002Y732470D01*
X35650Y732782D01*
X35305Y733102D01*
X34969Y733430D01*
X34641Y733766D01*
X34321Y734111D01*
X34009Y734463D01*
X33707Y734822D01*
X33413Y735189D01*
X33129Y735563D01*
X32853Y735944D01*
X32587Y736332D01*
X32331Y736726D01*
X32084Y737126D01*
X31848Y737532D01*
X31621Y737944D01*
X31405Y738361D01*
X31199Y738783D01*
X31003Y739211D01*
X30818Y739643D01*
X30643Y740079D01*
X30479Y740520D01*
X30327Y740964D01*
X30185Y741412D01*
X30054Y741863D01*
X29934Y742318D01*
X29825Y742775D01*
X29728Y743235D01*
X29642Y743697D01*
X29567Y744161D01*
X29504Y744627D01*
X29452Y745094D01*
X29412Y745562D01*
X29383Y746031D01*
X29366Y746501D01*
X29360Y746971D01*
D10*
X34150Y877951D02*
X40415Y887349D01*
X34150Y887349D02*
X40415Y877951D01*
X49038Y885000D02*
X49036Y885095D01*
X49030Y885189D01*
X49021Y885283D01*
X49008Y885377D01*
X48991Y885470D01*
X48970Y885562D01*
X48945Y885654D01*
X48917Y885744D01*
X48885Y885833D01*
X48850Y885921D01*
X48811Y886007D01*
X48769Y886092D01*
X48723Y886175D01*
X48674Y886256D01*
X48622Y886335D01*
X48567Y886412D01*
X48508Y886486D01*
X48447Y886558D01*
X48383Y886628D01*
X48316Y886695D01*
X48246Y886759D01*
X48174Y886820D01*
X48100Y886879D01*
X48023Y886934D01*
X47944Y886986D01*
X47863Y887035D01*
X47780Y887081D01*
X47695Y887123D01*
X47609Y887162D01*
X47521Y887197D01*
X47432Y887229D01*
X47342Y887257D01*
X47250Y887282D01*
X47158Y887303D01*
X47065Y887320D01*
X46971Y887333D01*
X46877Y887342D01*
X46783Y887348D01*
X46688Y887350D01*
X46688Y887349D02*
X46580Y887347D01*
X46471Y887341D01*
X46363Y887331D01*
X46256Y887318D01*
X46149Y887300D01*
X46042Y887279D01*
X45937Y887254D01*
X45832Y887225D01*
X45729Y887193D01*
X45627Y887156D01*
X45526Y887116D01*
X45427Y887073D01*
X45329Y887026D01*
X45233Y886975D01*
X45139Y886921D01*
X45047Y886864D01*
X44957Y886803D01*
X44869Y886739D01*
X44784Y886673D01*
X44701Y886603D01*
X44621Y886530D01*
X44543Y886454D01*
X44468Y886376D01*
X44396Y886295D01*
X44327Y886211D01*
X44261Y886125D01*
X44198Y886037D01*
X44139Y885946D01*
X44082Y885854D01*
X44029Y885759D01*
X43980Y885663D01*
X43934Y885564D01*
X43891Y885465D01*
X43852Y885363D01*
X43817Y885261D01*
X48255Y883172D02*
X48324Y883241D01*
X48390Y883312D01*
X48454Y883385D01*
X48515Y883461D01*
X48573Y883540D01*
X48627Y883620D01*
X48679Y883703D01*
X48727Y883787D01*
X48773Y883873D01*
X48814Y883961D01*
X48853Y884051D01*
X48888Y884142D01*
X48919Y884234D01*
X48947Y884327D01*
X48971Y884421D01*
X48991Y884516D01*
X49008Y884612D01*
X49021Y884709D01*
X49030Y884806D01*
X49036Y884903D01*
X49038Y885000D01*
X48254Y883172D02*
X43816Y877951D01*
X49037Y877951D01*
D15*
X31360Y88900D02*
X31377Y90250D01*
X31426Y91599D01*
X31509Y92946D01*
X31625Y94291D01*
X31774Y95633D01*
X31955Y96970D01*
X32170Y98303D01*
X32417Y99630D01*
X32696Y100951D01*
X33008Y102264D01*
X33352Y103569D01*
X33728Y104866D01*
X34136Y106152D01*
X34575Y107429D01*
X35045Y108694D01*
X35547Y109948D01*
X36078Y111188D01*
X36641Y112416D01*
X37233Y113629D01*
X37854Y114827D01*
X38505Y116009D01*
X39185Y117176D01*
X39893Y118325D01*
X40629Y119456D01*
X41393Y120569D01*
X42184Y121663D01*
X43001Y122738D01*
X43844Y123792D01*
X44714Y124825D01*
X45608Y125836D01*
X46526Y126825D01*
X47469Y127791D01*
X48435Y128734D01*
X49424Y129652D01*
X50435Y130546D01*
X51468Y131416D01*
X52522Y132259D01*
X53597Y133076D01*
X54691Y133867D01*
X55804Y134631D01*
X56935Y135367D01*
X58084Y136075D01*
X59251Y136755D01*
X60433Y137406D01*
X61631Y138027D01*
X62844Y138619D01*
X64072Y139182D01*
X65312Y139713D01*
X66566Y140215D01*
X67831Y140685D01*
X69108Y141124D01*
X70394Y141532D01*
X71691Y141908D01*
X72996Y142252D01*
X74309Y142564D01*
X75630Y142843D01*
X76957Y143090D01*
X78290Y143305D01*
X79627Y143486D01*
X80969Y143635D01*
X82314Y143751D01*
X83661Y143834D01*
X85010Y143883D01*
X86360Y143900D01*
X87710Y143883D01*
X89059Y143834D01*
X90406Y143751D01*
X91751Y143635D01*
X93093Y143486D01*
X94430Y143305D01*
X95763Y143090D01*
X97090Y142843D01*
X98411Y142564D01*
X99724Y142252D01*
X101029Y141908D01*
X102326Y141532D01*
X103612Y141124D01*
X104889Y140685D01*
X106154Y140215D01*
X107408Y139713D01*
X108648Y139182D01*
X109876Y138619D01*
X111089Y138027D01*
X112287Y137406D01*
X113469Y136755D01*
X114636Y136075D01*
X115785Y135367D01*
X116916Y134631D01*
X118029Y133867D01*
X119123Y133076D01*
X120198Y132259D01*
X121252Y131416D01*
X122285Y130546D01*
X123296Y129652D01*
X124285Y128734D01*
X125251Y127791D01*
X126194Y126825D01*
X127112Y125836D01*
X128006Y124825D01*
X128876Y123792D01*
X129719Y122738D01*
X130536Y121663D01*
X131327Y120569D01*
X132091Y119456D01*
X132827Y118325D01*
X133535Y117176D01*
X134215Y116009D01*
X134866Y114827D01*
X135487Y113629D01*
X136079Y112416D01*
X136642Y111188D01*
X137173Y109948D01*
X137675Y108694D01*
X138145Y107429D01*
X138584Y106152D01*
X138992Y104866D01*
X139368Y103569D01*
X139712Y102264D01*
X140024Y100951D01*
X140303Y99630D01*
X140550Y98303D01*
X140765Y96970D01*
X140946Y95633D01*
X141095Y94291D01*
X141211Y92946D01*
X141294Y91599D01*
X141343Y90250D01*
X141360Y88900D01*
X141343Y87550D01*
X141294Y86201D01*
X141211Y84854D01*
X141095Y83509D01*
X140946Y82167D01*
X140765Y80830D01*
X140550Y79497D01*
X140303Y78170D01*
X140024Y76849D01*
X139712Y75536D01*
X139368Y74231D01*
X138992Y72934D01*
X138584Y71648D01*
X138145Y70371D01*
X137675Y69106D01*
X137173Y67852D01*
X136642Y66612D01*
X136079Y65384D01*
X135487Y64171D01*
X134866Y62973D01*
X134215Y61791D01*
X133535Y60624D01*
X132827Y59475D01*
X132091Y58344D01*
X131327Y57231D01*
X130536Y56137D01*
X129719Y55062D01*
X128876Y54008D01*
X128006Y52975D01*
X127112Y51964D01*
X126194Y50975D01*
X125251Y50009D01*
X124285Y49066D01*
X123296Y48148D01*
X122285Y47254D01*
X121252Y46384D01*
X120198Y45541D01*
X119123Y44724D01*
X118029Y43933D01*
X116916Y43169D01*
X115785Y42433D01*
X114636Y41725D01*
X113469Y41045D01*
X112287Y40394D01*
X111089Y39773D01*
X109876Y39181D01*
X108648Y38618D01*
X107408Y38087D01*
X106154Y37585D01*
X104889Y37115D01*
X103612Y36676D01*
X102326Y36268D01*
X101029Y35892D01*
X99724Y35548D01*
X98411Y35236D01*
X97090Y34957D01*
X95763Y34710D01*
X94430Y34495D01*
X93093Y34314D01*
X91751Y34165D01*
X90406Y34049D01*
X89059Y33966D01*
X87710Y33917D01*
X86360Y33900D01*
X85010Y33917D01*
X83661Y33966D01*
X82314Y34049D01*
X80969Y34165D01*
X79627Y34314D01*
X78290Y34495D01*
X76957Y34710D01*
X75630Y34957D01*
X74309Y35236D01*
X72996Y35548D01*
X71691Y35892D01*
X70394Y36268D01*
X69108Y36676D01*
X67831Y37115D01*
X66566Y37585D01*
X65312Y38087D01*
X64072Y38618D01*
X62844Y39181D01*
X61631Y39773D01*
X60433Y40394D01*
X59251Y41045D01*
X58084Y41725D01*
X56935Y42433D01*
X55804Y43169D01*
X54691Y43933D01*
X53597Y44724D01*
X52522Y45541D01*
X51468Y46384D01*
X50435Y47254D01*
X49424Y48148D01*
X48435Y49066D01*
X47469Y50009D01*
X46526Y50975D01*
X45608Y51964D01*
X44714Y52975D01*
X43844Y54008D01*
X43001Y55062D01*
X42184Y56137D01*
X41393Y57231D01*
X40629Y58344D01*
X39893Y59475D01*
X39185Y60624D01*
X38505Y61791D01*
X37854Y62973D01*
X37233Y64171D01*
X36641Y65384D01*
X36078Y66612D01*
X35547Y67852D01*
X35045Y69106D01*
X34575Y70371D01*
X34136Y71648D01*
X33728Y72934D01*
X33352Y74231D01*
X33008Y75536D01*
X32696Y76849D01*
X32417Y78170D01*
X32170Y79497D01*
X31955Y80830D01*
X31774Y82167D01*
X31625Y83509D01*
X31509Y84854D01*
X31426Y86201D01*
X31377Y87550D01*
X31360Y88900D01*
D16*
X11360Y88900D02*
X11383Y90741D01*
X11450Y92580D01*
X11563Y94417D01*
X11721Y96251D01*
X11924Y98081D01*
X12172Y99905D01*
X12464Y101722D01*
X12801Y103532D01*
X13182Y105333D01*
X13608Y107124D01*
X14077Y108903D01*
X14589Y110671D01*
X15145Y112426D01*
X15744Y114167D01*
X16386Y115892D01*
X17069Y117601D01*
X17794Y119293D01*
X18561Y120967D01*
X19368Y122621D01*
X20216Y124255D01*
X21103Y125867D01*
X22030Y127458D01*
X22996Y129025D01*
X24000Y130568D01*
X25041Y132086D01*
X26119Y133577D01*
X27234Y135042D01*
X28384Y136479D01*
X29569Y137888D01*
X30789Y139267D01*
X32041Y140616D01*
X33327Y141933D01*
X34644Y143219D01*
X35993Y144471D01*
X37372Y145691D01*
X38781Y146876D01*
X40218Y148026D01*
X41683Y149141D01*
X43174Y150219D01*
X44692Y151260D01*
X46235Y152264D01*
X47802Y153230D01*
X49393Y154157D01*
X51005Y155044D01*
X52639Y155892D01*
X54293Y156699D01*
X55967Y157466D01*
X57659Y158191D01*
X59368Y158874D01*
X61093Y159516D01*
X62834Y160115D01*
X64589Y160671D01*
X66357Y161183D01*
X68136Y161652D01*
X69927Y162078D01*
X71728Y162459D01*
X73538Y162796D01*
X75355Y163088D01*
X77179Y163336D01*
X79009Y163539D01*
X80843Y163697D01*
X82680Y163810D01*
X84519Y163877D01*
X86360Y163900D01*
X88201Y163877D01*
X90040Y163810D01*
X91877Y163697D01*
X93711Y163539D01*
X95541Y163336D01*
X97365Y163088D01*
X99182Y162796D01*
X100992Y162459D01*
X102793Y162078D01*
X104584Y161652D01*
X106363Y161183D01*
X108131Y160671D01*
X109886Y160115D01*
X111627Y159516D01*
X113352Y158874D01*
X115061Y158191D01*
X116753Y157466D01*
X118427Y156699D01*
X120081Y155892D01*
X121715Y155044D01*
X123327Y154157D01*
X124918Y153230D01*
X126485Y152264D01*
X128028Y151260D01*
X129546Y150219D01*
X131037Y149141D01*
X132502Y148026D01*
X133939Y146876D01*
X135348Y145691D01*
X136727Y144471D01*
X138076Y143219D01*
X139393Y141933D01*
X140679Y140616D01*
X141931Y139267D01*
X143151Y137888D01*
X144336Y136479D01*
X145486Y135042D01*
X146601Y133577D01*
X147679Y132086D01*
X148720Y130568D01*
X149724Y129025D01*
X150690Y127458D01*
X151617Y125867D01*
X152504Y124255D01*
X153352Y122621D01*
X154159Y120967D01*
X154926Y119293D01*
X155651Y117601D01*
X156334Y115892D01*
X156976Y114167D01*
X157575Y112426D01*
X158131Y110671D01*
X158643Y108903D01*
X159112Y107124D01*
X159538Y105333D01*
X159919Y103532D01*
X160256Y101722D01*
X160548Y99905D01*
X160796Y98081D01*
X160999Y96251D01*
X161157Y94417D01*
X161270Y92580D01*
X161337Y90741D01*
X161360Y88900D01*
X161337Y87059D01*
X161270Y85220D01*
X161157Y83383D01*
X160999Y81549D01*
X160796Y79719D01*
X160548Y77895D01*
X160256Y76078D01*
X159919Y74268D01*
X159538Y72467D01*
X159112Y70676D01*
X158643Y68897D01*
X158131Y67129D01*
X157575Y65374D01*
X156976Y63633D01*
X156334Y61908D01*
X155651Y60199D01*
X154926Y58507D01*
X154159Y56833D01*
X153352Y55179D01*
X152504Y53545D01*
X151617Y51933D01*
X150690Y50342D01*
X149724Y48775D01*
X148720Y47232D01*
X147679Y45714D01*
X146601Y44223D01*
X145486Y42758D01*
X144336Y41321D01*
X143151Y39912D01*
X141931Y38533D01*
X140679Y37184D01*
X139393Y35867D01*
X138076Y34581D01*
X136727Y33329D01*
X135348Y32109D01*
X133939Y30924D01*
X132502Y29774D01*
X131037Y28659D01*
X129546Y27581D01*
X128028Y26540D01*
X126485Y25536D01*
X124918Y24570D01*
X123327Y23643D01*
X121715Y22756D01*
X120081Y21908D01*
X118427Y21101D01*
X116753Y20334D01*
X115061Y19609D01*
X113352Y18926D01*
X111627Y18284D01*
X109886Y17685D01*
X108131Y17129D01*
X106363Y16617D01*
X104584Y16148D01*
X102793Y15722D01*
X100992Y15341D01*
X99182Y15004D01*
X97365Y14712D01*
X95541Y14464D01*
X93711Y14261D01*
X91877Y14103D01*
X90040Y13990D01*
X88201Y13923D01*
X86360Y13900D01*
X84519Y13923D01*
X82680Y13990D01*
X80843Y14103D01*
X79009Y14261D01*
X77179Y14464D01*
X75355Y14712D01*
X73538Y15004D01*
X71728Y15341D01*
X69927Y15722D01*
X68136Y16148D01*
X66357Y16617D01*
X64589Y17129D01*
X62834Y17685D01*
X61093Y18284D01*
X59368Y18926D01*
X57659Y19609D01*
X55967Y20334D01*
X54293Y21101D01*
X52639Y21908D01*
X51005Y22756D01*
X49393Y23643D01*
X47802Y24570D01*
X46235Y25536D01*
X44692Y26540D01*
X43174Y27581D01*
X41683Y28659D01*
X40218Y29774D01*
X38781Y30924D01*
X37372Y32109D01*
X35993Y33329D01*
X34644Y34581D01*
X33327Y35867D01*
X32041Y37184D01*
X30789Y38533D01*
X29569Y39912D01*
X28384Y41321D01*
X27234Y42758D01*
X26119Y44223D01*
X25041Y45714D01*
X24000Y47232D01*
X22996Y48775D01*
X22030Y50342D01*
X21103Y51933D01*
X20216Y53545D01*
X19368Y55179D01*
X18561Y56833D01*
X17794Y58507D01*
X17069Y60199D01*
X16386Y61908D01*
X15744Y63633D01*
X15145Y65374D01*
X14589Y67129D01*
X14077Y68897D01*
X13608Y70676D01*
X13182Y72467D01*
X12801Y74268D01*
X12464Y76078D01*
X12172Y77895D01*
X11924Y79719D01*
X11721Y81549D01*
X11563Y83383D01*
X11450Y85220D01*
X11383Y87059D01*
X11360Y88900D01*
D10*
X28321Y147701D02*
X34586Y157099D01*
X28321Y157099D02*
X34586Y147701D01*
X37987Y147701D02*
X40598Y147701D01*
X40699Y147703D01*
X40800Y147709D01*
X40901Y147719D01*
X41001Y147732D01*
X41101Y147750D01*
X41200Y147771D01*
X41298Y147797D01*
X41395Y147826D01*
X41491Y147858D01*
X41585Y147895D01*
X41678Y147935D01*
X41770Y147979D01*
X41859Y148026D01*
X41947Y148077D01*
X42033Y148131D01*
X42116Y148188D01*
X42198Y148248D01*
X42276Y148312D01*
X42353Y148378D01*
X42426Y148448D01*
X42497Y148520D01*
X42565Y148595D01*
X42630Y148673D01*
X42692Y148753D01*
X42751Y148835D01*
X42807Y148920D01*
X42859Y149006D01*
X42908Y149095D01*
X42954Y149186D01*
X42995Y149278D01*
X43034Y149372D01*
X43068Y149467D01*
X43099Y149563D01*
X43126Y149661D01*
X43150Y149759D01*
X43169Y149859D01*
X43185Y149959D01*
X43197Y150059D01*
X43205Y150160D01*
X43209Y150261D01*
X43209Y150363D01*
X43205Y150464D01*
X43197Y150565D01*
X43185Y150665D01*
X43169Y150765D01*
X43150Y150865D01*
X43126Y150963D01*
X43099Y151061D01*
X43068Y151157D01*
X43034Y151252D01*
X42995Y151346D01*
X42954Y151438D01*
X42908Y151529D01*
X42859Y151617D01*
X42807Y151704D01*
X42751Y151789D01*
X42692Y151871D01*
X42630Y151951D01*
X42565Y152029D01*
X42497Y152104D01*
X42426Y152176D01*
X42353Y152246D01*
X42276Y152312D01*
X42198Y152376D01*
X42116Y152436D01*
X42033Y152493D01*
X41947Y152547D01*
X41859Y152598D01*
X41770Y152645D01*
X41678Y152689D01*
X41585Y152729D01*
X41491Y152766D01*
X41395Y152798D01*
X41298Y152827D01*
X41200Y152853D01*
X41101Y152874D01*
X41001Y152892D01*
X40901Y152905D01*
X40800Y152915D01*
X40699Y152921D01*
X40598Y152923D01*
X41120Y157099D02*
X37987Y157099D01*
X41120Y157099D02*
X41210Y157097D01*
X41299Y157091D01*
X41389Y157082D01*
X41478Y157068D01*
X41566Y157051D01*
X41653Y157030D01*
X41740Y157005D01*
X41825Y156976D01*
X41909Y156944D01*
X41991Y156909D01*
X42072Y156869D01*
X42151Y156827D01*
X42228Y156781D01*
X42303Y156731D01*
X42376Y156679D01*
X42447Y156623D01*
X42515Y156565D01*
X42580Y156503D01*
X42643Y156439D01*
X42703Y156372D01*
X42760Y156303D01*
X42814Y156231D01*
X42865Y156157D01*
X42913Y156081D01*
X42957Y156003D01*
X42998Y155923D01*
X43036Y155841D01*
X43070Y155758D01*
X43100Y155673D01*
X43127Y155587D01*
X43150Y155501D01*
X43169Y155413D01*
X43184Y155324D01*
X43196Y155235D01*
X43204Y155146D01*
X43208Y155056D01*
X43208Y154966D01*
X43204Y154876D01*
X43196Y154787D01*
X43184Y154698D01*
X43169Y154609D01*
X43150Y154521D01*
X43127Y154435D01*
X43100Y154349D01*
X43070Y154264D01*
X43036Y154181D01*
X42998Y154099D01*
X42957Y154019D01*
X42913Y153941D01*
X42865Y153865D01*
X42814Y153791D01*
X42760Y153719D01*
X42703Y153650D01*
X42643Y153583D01*
X42580Y153519D01*
X42515Y153457D01*
X42447Y153399D01*
X42376Y153343D01*
X42303Y153291D01*
X42228Y153241D01*
X42151Y153195D01*
X42072Y153153D01*
X41991Y153113D01*
X41909Y153078D01*
X41825Y153046D01*
X41740Y153017D01*
X41653Y152992D01*
X41566Y152971D01*
X41478Y152954D01*
X41389Y152940D01*
X41299Y152931D01*
X41210Y152925D01*
X41120Y152923D01*
X41120Y152922D02*
X39031Y152922D01*
D15*
X31360Y309880D02*
X31377Y311230D01*
X31426Y312579D01*
X31509Y313926D01*
X31625Y315271D01*
X31774Y316613D01*
X31955Y317950D01*
X32170Y319283D01*
X32417Y320610D01*
X32696Y321931D01*
X33008Y323244D01*
X33352Y324549D01*
X33728Y325846D01*
X34136Y327132D01*
X34575Y328409D01*
X35045Y329674D01*
X35547Y330928D01*
X36078Y332168D01*
X36641Y333396D01*
X37233Y334609D01*
X37854Y335807D01*
X38505Y336989D01*
X39185Y338156D01*
X39893Y339305D01*
X40629Y340436D01*
X41393Y341549D01*
X42184Y342643D01*
X43001Y343718D01*
X43844Y344772D01*
X44714Y345805D01*
X45608Y346816D01*
X46526Y347805D01*
X47469Y348771D01*
X48435Y349714D01*
X49424Y350632D01*
X50435Y351526D01*
X51468Y352396D01*
X52522Y353239D01*
X53597Y354056D01*
X54691Y354847D01*
X55804Y355611D01*
X56935Y356347D01*
X58084Y357055D01*
X59251Y357735D01*
X60433Y358386D01*
X61631Y359007D01*
X62844Y359599D01*
X64072Y360162D01*
X65312Y360693D01*
X66566Y361195D01*
X67831Y361665D01*
X69108Y362104D01*
X70394Y362512D01*
X71691Y362888D01*
X72996Y363232D01*
X74309Y363544D01*
X75630Y363823D01*
X76957Y364070D01*
X78290Y364285D01*
X79627Y364466D01*
X80969Y364615D01*
X82314Y364731D01*
X83661Y364814D01*
X85010Y364863D01*
X86360Y364880D01*
X87710Y364863D01*
X89059Y364814D01*
X90406Y364731D01*
X91751Y364615D01*
X93093Y364466D01*
X94430Y364285D01*
X95763Y364070D01*
X97090Y363823D01*
X98411Y363544D01*
X99724Y363232D01*
X101029Y362888D01*
X102326Y362512D01*
X103612Y362104D01*
X104889Y361665D01*
X106154Y361195D01*
X107408Y360693D01*
X108648Y360162D01*
X109876Y359599D01*
X111089Y359007D01*
X112287Y358386D01*
X113469Y357735D01*
X114636Y357055D01*
X115785Y356347D01*
X116916Y355611D01*
X118029Y354847D01*
X119123Y354056D01*
X120198Y353239D01*
X121252Y352396D01*
X122285Y351526D01*
X123296Y350632D01*
X124285Y349714D01*
X125251Y348771D01*
X126194Y347805D01*
X127112Y346816D01*
X128006Y345805D01*
X128876Y344772D01*
X129719Y343718D01*
X130536Y342643D01*
X131327Y341549D01*
X132091Y340436D01*
X132827Y339305D01*
X133535Y338156D01*
X134215Y336989D01*
X134866Y335807D01*
X135487Y334609D01*
X136079Y333396D01*
X136642Y332168D01*
X137173Y330928D01*
X137675Y329674D01*
X138145Y328409D01*
X138584Y327132D01*
X138992Y325846D01*
X139368Y324549D01*
X139712Y323244D01*
X140024Y321931D01*
X140303Y320610D01*
X140550Y319283D01*
X140765Y317950D01*
X140946Y316613D01*
X141095Y315271D01*
X141211Y313926D01*
X141294Y312579D01*
X141343Y311230D01*
X141360Y309880D01*
X141343Y308530D01*
X141294Y307181D01*
X141211Y305834D01*
X141095Y304489D01*
X140946Y303147D01*
X140765Y301810D01*
X140550Y300477D01*
X140303Y299150D01*
X140024Y297829D01*
X139712Y296516D01*
X139368Y295211D01*
X138992Y293914D01*
X138584Y292628D01*
X138145Y291351D01*
X137675Y290086D01*
X137173Y288832D01*
X136642Y287592D01*
X136079Y286364D01*
X135487Y285151D01*
X134866Y283953D01*
X134215Y282771D01*
X133535Y281604D01*
X132827Y280455D01*
X132091Y279324D01*
X131327Y278211D01*
X130536Y277117D01*
X129719Y276042D01*
X128876Y274988D01*
X128006Y273955D01*
X127112Y272944D01*
X126194Y271955D01*
X125251Y270989D01*
X124285Y270046D01*
X123296Y269128D01*
X122285Y268234D01*
X121252Y267364D01*
X120198Y266521D01*
X119123Y265704D01*
X118029Y264913D01*
X116916Y264149D01*
X115785Y263413D01*
X114636Y262705D01*
X113469Y262025D01*
X112287Y261374D01*
X111089Y260753D01*
X109876Y260161D01*
X108648Y259598D01*
X107408Y259067D01*
X106154Y258565D01*
X104889Y258095D01*
X103612Y257656D01*
X102326Y257248D01*
X101029Y256872D01*
X99724Y256528D01*
X98411Y256216D01*
X97090Y255937D01*
X95763Y255690D01*
X94430Y255475D01*
X93093Y255294D01*
X91751Y255145D01*
X90406Y255029D01*
X89059Y254946D01*
X87710Y254897D01*
X86360Y254880D01*
X85010Y254897D01*
X83661Y254946D01*
X82314Y255029D01*
X80969Y255145D01*
X79627Y255294D01*
X78290Y255475D01*
X76957Y255690D01*
X75630Y255937D01*
X74309Y256216D01*
X72996Y256528D01*
X71691Y256872D01*
X70394Y257248D01*
X69108Y257656D01*
X67831Y258095D01*
X66566Y258565D01*
X65312Y259067D01*
X64072Y259598D01*
X62844Y260161D01*
X61631Y260753D01*
X60433Y261374D01*
X59251Y262025D01*
X58084Y262705D01*
X56935Y263413D01*
X55804Y264149D01*
X54691Y264913D01*
X53597Y265704D01*
X52522Y266521D01*
X51468Y267364D01*
X50435Y268234D01*
X49424Y269128D01*
X48435Y270046D01*
X47469Y270989D01*
X46526Y271955D01*
X45608Y272944D01*
X44714Y273955D01*
X43844Y274988D01*
X43001Y276042D01*
X42184Y277117D01*
X41393Y278211D01*
X40629Y279324D01*
X39893Y280455D01*
X39185Y281604D01*
X38505Y282771D01*
X37854Y283953D01*
X37233Y285151D01*
X36641Y286364D01*
X36078Y287592D01*
X35547Y288832D01*
X35045Y290086D01*
X34575Y291351D01*
X34136Y292628D01*
X33728Y293914D01*
X33352Y295211D01*
X33008Y296516D01*
X32696Y297829D01*
X32417Y299150D01*
X32170Y300477D01*
X31955Y301810D01*
X31774Y303147D01*
X31625Y304489D01*
X31509Y305834D01*
X31426Y307181D01*
X31377Y308530D01*
X31360Y309880D01*
D16*
X11360Y309880D02*
X11383Y311721D01*
X11450Y313560D01*
X11563Y315397D01*
X11721Y317231D01*
X11924Y319061D01*
X12172Y320885D01*
X12464Y322702D01*
X12801Y324512D01*
X13182Y326313D01*
X13608Y328104D01*
X14077Y329883D01*
X14589Y331651D01*
X15145Y333406D01*
X15744Y335147D01*
X16386Y336872D01*
X17069Y338581D01*
X17794Y340273D01*
X18561Y341947D01*
X19368Y343601D01*
X20216Y345235D01*
X21103Y346847D01*
X22030Y348438D01*
X22996Y350005D01*
X24000Y351548D01*
X25041Y353066D01*
X26119Y354557D01*
X27234Y356022D01*
X28384Y357459D01*
X29569Y358868D01*
X30789Y360247D01*
X32041Y361596D01*
X33327Y362913D01*
X34644Y364199D01*
X35993Y365451D01*
X37372Y366671D01*
X38781Y367856D01*
X40218Y369006D01*
X41683Y370121D01*
X43174Y371199D01*
X44692Y372240D01*
X46235Y373244D01*
X47802Y374210D01*
X49393Y375137D01*
X51005Y376024D01*
X52639Y376872D01*
X54293Y377679D01*
X55967Y378446D01*
X57659Y379171D01*
X59368Y379854D01*
X61093Y380496D01*
X62834Y381095D01*
X64589Y381651D01*
X66357Y382163D01*
X68136Y382632D01*
X69927Y383058D01*
X71728Y383439D01*
X73538Y383776D01*
X75355Y384068D01*
X77179Y384316D01*
X79009Y384519D01*
X80843Y384677D01*
X82680Y384790D01*
X84519Y384857D01*
X86360Y384880D01*
X88201Y384857D01*
X90040Y384790D01*
X91877Y384677D01*
X93711Y384519D01*
X95541Y384316D01*
X97365Y384068D01*
X99182Y383776D01*
X100992Y383439D01*
X102793Y383058D01*
X104584Y382632D01*
X106363Y382163D01*
X108131Y381651D01*
X109886Y381095D01*
X111627Y380496D01*
X113352Y379854D01*
X115061Y379171D01*
X116753Y378446D01*
X118427Y377679D01*
X120081Y376872D01*
X121715Y376024D01*
X123327Y375137D01*
X124918Y374210D01*
X126485Y373244D01*
X128028Y372240D01*
X129546Y371199D01*
X131037Y370121D01*
X132502Y369006D01*
X133939Y367856D01*
X135348Y366671D01*
X136727Y365451D01*
X138076Y364199D01*
X139393Y362913D01*
X140679Y361596D01*
X141931Y360247D01*
X143151Y358868D01*
X144336Y357459D01*
X145486Y356022D01*
X146601Y354557D01*
X147679Y353066D01*
X148720Y351548D01*
X149724Y350005D01*
X150690Y348438D01*
X151617Y346847D01*
X152504Y345235D01*
X153352Y343601D01*
X154159Y341947D01*
X154926Y340273D01*
X155651Y338581D01*
X156334Y336872D01*
X156976Y335147D01*
X157575Y333406D01*
X158131Y331651D01*
X158643Y329883D01*
X159112Y328104D01*
X159538Y326313D01*
X159919Y324512D01*
X160256Y322702D01*
X160548Y320885D01*
X160796Y319061D01*
X160999Y317231D01*
X161157Y315397D01*
X161270Y313560D01*
X161337Y311721D01*
X161360Y309880D01*
X161337Y308039D01*
X161270Y306200D01*
X161157Y304363D01*
X160999Y302529D01*
X160796Y300699D01*
X160548Y298875D01*
X160256Y297058D01*
X159919Y295248D01*
X159538Y293447D01*
X159112Y291656D01*
X158643Y289877D01*
X158131Y288109D01*
X157575Y286354D01*
X156976Y284613D01*
X156334Y282888D01*
X155651Y281179D01*
X154926Y279487D01*
X154159Y277813D01*
X153352Y276159D01*
X152504Y274525D01*
X151617Y272913D01*
X150690Y271322D01*
X149724Y269755D01*
X148720Y268212D01*
X147679Y266694D01*
X146601Y265203D01*
X145486Y263738D01*
X144336Y262301D01*
X143151Y260892D01*
X141931Y259513D01*
X140679Y258164D01*
X139393Y256847D01*
X138076Y255561D01*
X136727Y254309D01*
X135348Y253089D01*
X133939Y251904D01*
X132502Y250754D01*
X131037Y249639D01*
X129546Y248561D01*
X128028Y247520D01*
X126485Y246516D01*
X124918Y245550D01*
X123327Y244623D01*
X121715Y243736D01*
X120081Y242888D01*
X118427Y242081D01*
X116753Y241314D01*
X115061Y240589D01*
X113352Y239906D01*
X111627Y239264D01*
X109886Y238665D01*
X108131Y238109D01*
X106363Y237597D01*
X104584Y237128D01*
X102793Y236702D01*
X100992Y236321D01*
X99182Y235984D01*
X97365Y235692D01*
X95541Y235444D01*
X93711Y235241D01*
X91877Y235083D01*
X90040Y234970D01*
X88201Y234903D01*
X86360Y234880D01*
X84519Y234903D01*
X82680Y234970D01*
X80843Y235083D01*
X79009Y235241D01*
X77179Y235444D01*
X75355Y235692D01*
X73538Y235984D01*
X71728Y236321D01*
X69927Y236702D01*
X68136Y237128D01*
X66357Y237597D01*
X64589Y238109D01*
X62834Y238665D01*
X61093Y239264D01*
X59368Y239906D01*
X57659Y240589D01*
X55967Y241314D01*
X54293Y242081D01*
X52639Y242888D01*
X51005Y243736D01*
X49393Y244623D01*
X47802Y245550D01*
X46235Y246516D01*
X44692Y247520D01*
X43174Y248561D01*
X41683Y249639D01*
X40218Y250754D01*
X38781Y251904D01*
X37372Y253089D01*
X35993Y254309D01*
X34644Y255561D01*
X33327Y256847D01*
X32041Y258164D01*
X30789Y259513D01*
X29569Y260892D01*
X28384Y262301D01*
X27234Y263738D01*
X26119Y265203D01*
X25041Y266694D01*
X24000Y268212D01*
X22996Y269755D01*
X22030Y271322D01*
X21103Y272913D01*
X20216Y274525D01*
X19368Y276159D01*
X18561Y277813D01*
X17794Y279487D01*
X17069Y281179D01*
X16386Y282888D01*
X15744Y284613D01*
X15145Y286354D01*
X14589Y288109D01*
X14077Y289877D01*
X13608Y291656D01*
X13182Y293447D01*
X12801Y295248D01*
X12464Y297058D01*
X12172Y298875D01*
X11924Y300699D01*
X11721Y302529D01*
X11563Y304363D01*
X11450Y306200D01*
X11383Y308039D01*
X11360Y309880D01*
D10*
X28321Y371221D02*
X34586Y380619D01*
X28321Y380619D02*
X34586Y371221D01*
X37987Y373309D02*
X40076Y380619D01*
X37987Y373309D02*
X43208Y373309D01*
X41642Y375398D02*
X41642Y371221D01*
D15*
X31360Y515620D02*
X31377Y516970D01*
X31426Y518319D01*
X31509Y519666D01*
X31625Y521011D01*
X31774Y522353D01*
X31955Y523690D01*
X32170Y525023D01*
X32417Y526350D01*
X32696Y527671D01*
X33008Y528984D01*
X33352Y530289D01*
X33728Y531586D01*
X34136Y532872D01*
X34575Y534149D01*
X35045Y535414D01*
X35547Y536668D01*
X36078Y537908D01*
X36641Y539136D01*
X37233Y540349D01*
X37854Y541547D01*
X38505Y542729D01*
X39185Y543896D01*
X39893Y545045D01*
X40629Y546176D01*
X41393Y547289D01*
X42184Y548383D01*
X43001Y549458D01*
X43844Y550512D01*
X44714Y551545D01*
X45608Y552556D01*
X46526Y553545D01*
X47469Y554511D01*
X48435Y555454D01*
X49424Y556372D01*
X50435Y557266D01*
X51468Y558136D01*
X52522Y558979D01*
X53597Y559796D01*
X54691Y560587D01*
X55804Y561351D01*
X56935Y562087D01*
X58084Y562795D01*
X59251Y563475D01*
X60433Y564126D01*
X61631Y564747D01*
X62844Y565339D01*
X64072Y565902D01*
X65312Y566433D01*
X66566Y566935D01*
X67831Y567405D01*
X69108Y567844D01*
X70394Y568252D01*
X71691Y568628D01*
X72996Y568972D01*
X74309Y569284D01*
X75630Y569563D01*
X76957Y569810D01*
X78290Y570025D01*
X79627Y570206D01*
X80969Y570355D01*
X82314Y570471D01*
X83661Y570554D01*
X85010Y570603D01*
X86360Y570620D01*
X87710Y570603D01*
X89059Y570554D01*
X90406Y570471D01*
X91751Y570355D01*
X93093Y570206D01*
X94430Y570025D01*
X95763Y569810D01*
X97090Y569563D01*
X98411Y569284D01*
X99724Y568972D01*
X101029Y568628D01*
X102326Y568252D01*
X103612Y567844D01*
X104889Y567405D01*
X106154Y566935D01*
X107408Y566433D01*
X108648Y565902D01*
X109876Y565339D01*
X111089Y564747D01*
X112287Y564126D01*
X113469Y563475D01*
X114636Y562795D01*
X115785Y562087D01*
X116916Y561351D01*
X118029Y560587D01*
X119123Y559796D01*
X120198Y558979D01*
X121252Y558136D01*
X122285Y557266D01*
X123296Y556372D01*
X124285Y555454D01*
X125251Y554511D01*
X126194Y553545D01*
X127112Y552556D01*
X128006Y551545D01*
X128876Y550512D01*
X129719Y549458D01*
X130536Y548383D01*
X131327Y547289D01*
X132091Y546176D01*
X132827Y545045D01*
X133535Y543896D01*
X134215Y542729D01*
X134866Y541547D01*
X135487Y540349D01*
X136079Y539136D01*
X136642Y537908D01*
X137173Y536668D01*
X137675Y535414D01*
X138145Y534149D01*
X138584Y532872D01*
X138992Y531586D01*
X139368Y530289D01*
X139712Y528984D01*
X140024Y527671D01*
X140303Y526350D01*
X140550Y525023D01*
X140765Y523690D01*
X140946Y522353D01*
X141095Y521011D01*
X141211Y519666D01*
X141294Y518319D01*
X141343Y516970D01*
X141360Y515620D01*
X141343Y514270D01*
X141294Y512921D01*
X141211Y511574D01*
X141095Y510229D01*
X140946Y508887D01*
X140765Y507550D01*
X140550Y506217D01*
X140303Y504890D01*
X140024Y503569D01*
X139712Y502256D01*
X139368Y500951D01*
X138992Y499654D01*
X138584Y498368D01*
X138145Y497091D01*
X137675Y495826D01*
X137173Y494572D01*
X136642Y493332D01*
X136079Y492104D01*
X135487Y490891D01*
X134866Y489693D01*
X134215Y488511D01*
X133535Y487344D01*
X132827Y486195D01*
X132091Y485064D01*
X131327Y483951D01*
X130536Y482857D01*
X129719Y481782D01*
X128876Y480728D01*
X128006Y479695D01*
X127112Y478684D01*
X126194Y477695D01*
X125251Y476729D01*
X124285Y475786D01*
X123296Y474868D01*
X122285Y473974D01*
X121252Y473104D01*
X120198Y472261D01*
X119123Y471444D01*
X118029Y470653D01*
X116916Y469889D01*
X115785Y469153D01*
X114636Y468445D01*
X113469Y467765D01*
X112287Y467114D01*
X111089Y466493D01*
X109876Y465901D01*
X108648Y465338D01*
X107408Y464807D01*
X106154Y464305D01*
X104889Y463835D01*
X103612Y463396D01*
X102326Y462988D01*
X101029Y462612D01*
X99724Y462268D01*
X98411Y461956D01*
X97090Y461677D01*
X95763Y461430D01*
X94430Y461215D01*
X93093Y461034D01*
X91751Y460885D01*
X90406Y460769D01*
X89059Y460686D01*
X87710Y460637D01*
X86360Y460620D01*
X85010Y460637D01*
X83661Y460686D01*
X82314Y460769D01*
X80969Y460885D01*
X79627Y461034D01*
X78290Y461215D01*
X76957Y461430D01*
X75630Y461677D01*
X74309Y461956D01*
X72996Y462268D01*
X71691Y462612D01*
X70394Y462988D01*
X69108Y463396D01*
X67831Y463835D01*
X66566Y464305D01*
X65312Y464807D01*
X64072Y465338D01*
X62844Y465901D01*
X61631Y466493D01*
X60433Y467114D01*
X59251Y467765D01*
X58084Y468445D01*
X56935Y469153D01*
X55804Y469889D01*
X54691Y470653D01*
X53597Y471444D01*
X52522Y472261D01*
X51468Y473104D01*
X50435Y473974D01*
X49424Y474868D01*
X48435Y475786D01*
X47469Y476729D01*
X46526Y477695D01*
X45608Y478684D01*
X44714Y479695D01*
X43844Y480728D01*
X43001Y481782D01*
X42184Y482857D01*
X41393Y483951D01*
X40629Y485064D01*
X39893Y486195D01*
X39185Y487344D01*
X38505Y488511D01*
X37854Y489693D01*
X37233Y490891D01*
X36641Y492104D01*
X36078Y493332D01*
X35547Y494572D01*
X35045Y495826D01*
X34575Y497091D01*
X34136Y498368D01*
X33728Y499654D01*
X33352Y500951D01*
X33008Y502256D01*
X32696Y503569D01*
X32417Y504890D01*
X32170Y506217D01*
X31955Y507550D01*
X31774Y508887D01*
X31625Y510229D01*
X31509Y511574D01*
X31426Y512921D01*
X31377Y514270D01*
X31360Y515620D01*
D16*
X11360Y515620D02*
X11383Y517461D01*
X11450Y519300D01*
X11563Y521137D01*
X11721Y522971D01*
X11924Y524801D01*
X12172Y526625D01*
X12464Y528442D01*
X12801Y530252D01*
X13182Y532053D01*
X13608Y533844D01*
X14077Y535623D01*
X14589Y537391D01*
X15145Y539146D01*
X15744Y540887D01*
X16386Y542612D01*
X17069Y544321D01*
X17794Y546013D01*
X18561Y547687D01*
X19368Y549341D01*
X20216Y550975D01*
X21103Y552587D01*
X22030Y554178D01*
X22996Y555745D01*
X24000Y557288D01*
X25041Y558806D01*
X26119Y560297D01*
X27234Y561762D01*
X28384Y563199D01*
X29569Y564608D01*
X30789Y565987D01*
X32041Y567336D01*
X33327Y568653D01*
X34644Y569939D01*
X35993Y571191D01*
X37372Y572411D01*
X38781Y573596D01*
X40218Y574746D01*
X41683Y575861D01*
X43174Y576939D01*
X44692Y577980D01*
X46235Y578984D01*
X47802Y579950D01*
X49393Y580877D01*
X51005Y581764D01*
X52639Y582612D01*
X54293Y583419D01*
X55967Y584186D01*
X57659Y584911D01*
X59368Y585594D01*
X61093Y586236D01*
X62834Y586835D01*
X64589Y587391D01*
X66357Y587903D01*
X68136Y588372D01*
X69927Y588798D01*
X71728Y589179D01*
X73538Y589516D01*
X75355Y589808D01*
X77179Y590056D01*
X79009Y590259D01*
X80843Y590417D01*
X82680Y590530D01*
X84519Y590597D01*
X86360Y590620D01*
X88201Y590597D01*
X90040Y590530D01*
X91877Y590417D01*
X93711Y590259D01*
X95541Y590056D01*
X97365Y589808D01*
X99182Y589516D01*
X100992Y589179D01*
X102793Y588798D01*
X104584Y588372D01*
X106363Y587903D01*
X108131Y587391D01*
X109886Y586835D01*
X111627Y586236D01*
X113352Y585594D01*
X115061Y584911D01*
X116753Y584186D01*
X118427Y583419D01*
X120081Y582612D01*
X121715Y581764D01*
X123327Y580877D01*
X124918Y579950D01*
X126485Y578984D01*
X128028Y577980D01*
X129546Y576939D01*
X131037Y575861D01*
X132502Y574746D01*
X133939Y573596D01*
X135348Y572411D01*
X136727Y571191D01*
X138076Y569939D01*
X139393Y568653D01*
X140679Y567336D01*
X141931Y565987D01*
X143151Y564608D01*
X144336Y563199D01*
X145486Y561762D01*
X146601Y560297D01*
X147679Y558806D01*
X148720Y557288D01*
X149724Y555745D01*
X150690Y554178D01*
X151617Y552587D01*
X152504Y550975D01*
X153352Y549341D01*
X154159Y547687D01*
X154926Y546013D01*
X155651Y544321D01*
X156334Y542612D01*
X156976Y540887D01*
X157575Y539146D01*
X158131Y537391D01*
X158643Y535623D01*
X159112Y533844D01*
X159538Y532053D01*
X159919Y530252D01*
X160256Y528442D01*
X160548Y526625D01*
X160796Y524801D01*
X160999Y522971D01*
X161157Y521137D01*
X161270Y519300D01*
X161337Y517461D01*
X161360Y515620D01*
X161337Y513779D01*
X161270Y511940D01*
X161157Y510103D01*
X160999Y508269D01*
X160796Y506439D01*
X160548Y504615D01*
X160256Y502798D01*
X159919Y500988D01*
X159538Y499187D01*
X159112Y497396D01*
X158643Y495617D01*
X158131Y493849D01*
X157575Y492094D01*
X156976Y490353D01*
X156334Y488628D01*
X155651Y486919D01*
X154926Y485227D01*
X154159Y483553D01*
X153352Y481899D01*
X152504Y480265D01*
X151617Y478653D01*
X150690Y477062D01*
X149724Y475495D01*
X148720Y473952D01*
X147679Y472434D01*
X146601Y470943D01*
X145486Y469478D01*
X144336Y468041D01*
X143151Y466632D01*
X141931Y465253D01*
X140679Y463904D01*
X139393Y462587D01*
X138076Y461301D01*
X136727Y460049D01*
X135348Y458829D01*
X133939Y457644D01*
X132502Y456494D01*
X131037Y455379D01*
X129546Y454301D01*
X128028Y453260D01*
X126485Y452256D01*
X124918Y451290D01*
X123327Y450363D01*
X121715Y449476D01*
X120081Y448628D01*
X118427Y447821D01*
X116753Y447054D01*
X115061Y446329D01*
X113352Y445646D01*
X111627Y445004D01*
X109886Y444405D01*
X108131Y443849D01*
X106363Y443337D01*
X104584Y442868D01*
X102793Y442442D01*
X100992Y442061D01*
X99182Y441724D01*
X97365Y441432D01*
X95541Y441184D01*
X93711Y440981D01*
X91877Y440823D01*
X90040Y440710D01*
X88201Y440643D01*
X86360Y440620D01*
X84519Y440643D01*
X82680Y440710D01*
X80843Y440823D01*
X79009Y440981D01*
X77179Y441184D01*
X75355Y441432D01*
X73538Y441724D01*
X71728Y442061D01*
X69927Y442442D01*
X68136Y442868D01*
X66357Y443337D01*
X64589Y443849D01*
X62834Y444405D01*
X61093Y445004D01*
X59368Y445646D01*
X57659Y446329D01*
X55967Y447054D01*
X54293Y447821D01*
X52639Y448628D01*
X51005Y449476D01*
X49393Y450363D01*
X47802Y451290D01*
X46235Y452256D01*
X44692Y453260D01*
X43174Y454301D01*
X41683Y455379D01*
X40218Y456494D01*
X38781Y457644D01*
X37372Y458829D01*
X35993Y460049D01*
X34644Y461301D01*
X33327Y462587D01*
X32041Y463904D01*
X30789Y465253D01*
X29569Y466632D01*
X28384Y468041D01*
X27234Y469478D01*
X26119Y470943D01*
X25041Y472434D01*
X24000Y473952D01*
X22996Y475495D01*
X22030Y477062D01*
X21103Y478653D01*
X20216Y480265D01*
X19368Y481899D01*
X18561Y483553D01*
X17794Y485227D01*
X17069Y486919D01*
X16386Y488628D01*
X15744Y490353D01*
X15145Y492094D01*
X14589Y493849D01*
X14077Y495617D01*
X13608Y497396D01*
X13182Y499187D01*
X12801Y500988D01*
X12464Y502798D01*
X12172Y504615D01*
X11924Y506439D01*
X11721Y508269D01*
X11563Y510103D01*
X11450Y511940D01*
X11383Y513779D01*
X11360Y515620D01*
D10*
X28321Y574421D02*
X34586Y583819D01*
X28321Y583819D02*
X34586Y574421D01*
X37987Y574421D02*
X41120Y574421D01*
X41209Y574423D01*
X41297Y574429D01*
X41385Y574438D01*
X41473Y574451D01*
X41560Y574468D01*
X41646Y574488D01*
X41731Y574513D01*
X41816Y574540D01*
X41899Y574572D01*
X41980Y574606D01*
X42060Y574645D01*
X42138Y574686D01*
X42215Y574731D01*
X42289Y574779D01*
X42362Y574830D01*
X42432Y574884D01*
X42499Y574942D01*
X42565Y575002D01*
X42627Y575064D01*
X42687Y575130D01*
X42745Y575197D01*
X42799Y575267D01*
X42850Y575340D01*
X42898Y575414D01*
X42943Y575491D01*
X42984Y575569D01*
X43023Y575649D01*
X43057Y575730D01*
X43089Y575813D01*
X43116Y575898D01*
X43141Y575983D01*
X43161Y576069D01*
X43178Y576156D01*
X43191Y576244D01*
X43200Y576332D01*
X43206Y576420D01*
X43208Y576509D01*
X43208Y577554D01*
X43206Y577643D01*
X43200Y577731D01*
X43191Y577819D01*
X43178Y577907D01*
X43161Y577994D01*
X43141Y578080D01*
X43116Y578165D01*
X43089Y578250D01*
X43057Y578333D01*
X43023Y578414D01*
X42984Y578494D01*
X42943Y578572D01*
X42898Y578649D01*
X42850Y578723D01*
X42799Y578796D01*
X42745Y578866D01*
X42687Y578933D01*
X42627Y578999D01*
X42565Y579061D01*
X42499Y579121D01*
X42432Y579179D01*
X42362Y579233D01*
X42289Y579284D01*
X42215Y579332D01*
X42138Y579377D01*
X42060Y579418D01*
X41980Y579457D01*
X41899Y579491D01*
X41816Y579523D01*
X41731Y579550D01*
X41646Y579575D01*
X41560Y579595D01*
X41473Y579612D01*
X41385Y579625D01*
X41297Y579634D01*
X41209Y579640D01*
X41120Y579642D01*
X37987Y579642D01*
X37987Y583819D01*
X43208Y583819D01*
X208661Y876681D02*
X214926Y886079D01*
X208661Y886079D02*
X214926Y876681D01*
X218327Y881902D02*
X221460Y881902D01*
X221549Y881900D01*
X221637Y881894D01*
X221725Y881885D01*
X221813Y881872D01*
X221900Y881855D01*
X221986Y881835D01*
X222071Y881810D01*
X222156Y881783D01*
X222239Y881751D01*
X222320Y881717D01*
X222400Y881678D01*
X222478Y881637D01*
X222555Y881592D01*
X222629Y881544D01*
X222702Y881493D01*
X222772Y881439D01*
X222839Y881381D01*
X222905Y881321D01*
X222967Y881259D01*
X223027Y881193D01*
X223085Y881126D01*
X223139Y881056D01*
X223190Y880983D01*
X223238Y880909D01*
X223283Y880832D01*
X223324Y880754D01*
X223363Y880674D01*
X223397Y880593D01*
X223429Y880510D01*
X223456Y880425D01*
X223481Y880340D01*
X223501Y880254D01*
X223518Y880167D01*
X223531Y880079D01*
X223540Y879991D01*
X223546Y879903D01*
X223548Y879814D01*
X223548Y879292D01*
X223549Y879292D02*
X223547Y879191D01*
X223541Y879090D01*
X223531Y878989D01*
X223518Y878889D01*
X223500Y878789D01*
X223479Y878690D01*
X223453Y878592D01*
X223424Y878495D01*
X223392Y878399D01*
X223355Y878305D01*
X223315Y878212D01*
X223271Y878120D01*
X223224Y878031D01*
X223173Y877943D01*
X223119Y877857D01*
X223062Y877774D01*
X223002Y877692D01*
X222938Y877614D01*
X222872Y877537D01*
X222802Y877464D01*
X222730Y877393D01*
X222655Y877325D01*
X222577Y877260D01*
X222497Y877198D01*
X222415Y877139D01*
X222330Y877083D01*
X222243Y877031D01*
X222155Y876982D01*
X222064Y876936D01*
X221972Y876895D01*
X221878Y876856D01*
X221783Y876822D01*
X221687Y876791D01*
X221589Y876764D01*
X221491Y876740D01*
X221391Y876721D01*
X221291Y876705D01*
X221191Y876693D01*
X221090Y876685D01*
X220989Y876681D01*
X220887Y876681D01*
X220786Y876685D01*
X220685Y876693D01*
X220585Y876705D01*
X220485Y876721D01*
X220385Y876740D01*
X220287Y876764D01*
X220189Y876791D01*
X220093Y876822D01*
X219998Y876856D01*
X219904Y876895D01*
X219812Y876936D01*
X219721Y876982D01*
X219633Y877031D01*
X219546Y877083D01*
X219461Y877139D01*
X219379Y877198D01*
X219299Y877260D01*
X219221Y877325D01*
X219146Y877393D01*
X219074Y877464D01*
X219004Y877537D01*
X218938Y877614D01*
X218874Y877692D01*
X218814Y877774D01*
X218757Y877857D01*
X218703Y877943D01*
X218652Y878031D01*
X218605Y878120D01*
X218561Y878212D01*
X218521Y878305D01*
X218484Y878399D01*
X218452Y878495D01*
X218423Y878592D01*
X218397Y878690D01*
X218376Y878789D01*
X218358Y878889D01*
X218345Y878989D01*
X218335Y879090D01*
X218329Y879191D01*
X218327Y879292D01*
X218327Y881902D01*
X218329Y882031D01*
X218335Y882159D01*
X218345Y882287D01*
X218359Y882415D01*
X218376Y882543D01*
X218398Y882670D01*
X218424Y882796D01*
X218453Y882921D01*
X218486Y883045D01*
X218524Y883168D01*
X218564Y883290D01*
X218609Y883411D01*
X218657Y883530D01*
X218709Y883648D01*
X218765Y883764D01*
X218824Y883878D01*
X218887Y883990D01*
X218953Y884101D01*
X219022Y884209D01*
X219095Y884315D01*
X219171Y884419D01*
X219250Y884521D01*
X219332Y884620D01*
X219417Y884716D01*
X219505Y884810D01*
X219596Y884901D01*
X219690Y884989D01*
X219786Y885074D01*
X219885Y885156D01*
X219987Y885235D01*
X220091Y885311D01*
X220197Y885384D01*
X220305Y885453D01*
X220415Y885519D01*
X220528Y885582D01*
X220642Y885641D01*
X220758Y885697D01*
X220876Y885749D01*
X220995Y885797D01*
X221116Y885842D01*
X221238Y885882D01*
X221361Y885920D01*
X221485Y885953D01*
X221610Y885982D01*
X221736Y886008D01*
X221863Y886030D01*
X221991Y886047D01*
X222119Y886061D01*
X222247Y886071D01*
X222375Y886077D01*
X222504Y886079D01*
M02*
