G04 EAGLE Gerber RS-274X export*
G75*
%MOMM*%
%FSLAX34Y34*%
%LPD*%
%INSilkscreen Bottom*%
%IPPOS*%
%AMOC8*
5,1,8,0,0,1.08239X$1,22.5*%
G01*
%ADD10C,0.076200*%
%ADD11C,0.152400*%


D10*
X273572Y850011D02*
X275661Y850011D01*
X275750Y850013D01*
X275838Y850019D01*
X275926Y850028D01*
X276014Y850041D01*
X276101Y850058D01*
X276187Y850078D01*
X276272Y850103D01*
X276357Y850130D01*
X276440Y850162D01*
X276521Y850196D01*
X276601Y850235D01*
X276679Y850276D01*
X276756Y850321D01*
X276830Y850369D01*
X276903Y850420D01*
X276973Y850474D01*
X277040Y850532D01*
X277106Y850592D01*
X277168Y850654D01*
X277228Y850720D01*
X277286Y850787D01*
X277340Y850857D01*
X277391Y850930D01*
X277439Y851004D01*
X277484Y851081D01*
X277525Y851159D01*
X277564Y851239D01*
X277598Y851320D01*
X277630Y851403D01*
X277657Y851488D01*
X277682Y851573D01*
X277702Y851659D01*
X277719Y851746D01*
X277732Y851834D01*
X277741Y851922D01*
X277747Y852010D01*
X277749Y852099D01*
X277749Y857321D01*
X277747Y857410D01*
X277741Y857498D01*
X277732Y857586D01*
X277719Y857674D01*
X277702Y857761D01*
X277682Y857847D01*
X277657Y857932D01*
X277630Y858017D01*
X277598Y858100D01*
X277564Y858181D01*
X277525Y858261D01*
X277484Y858339D01*
X277439Y858416D01*
X277391Y858490D01*
X277340Y858563D01*
X277286Y858633D01*
X277228Y858700D01*
X277168Y858766D01*
X277106Y858828D01*
X277040Y858888D01*
X276973Y858946D01*
X276903Y859000D01*
X276830Y859051D01*
X276756Y859099D01*
X276679Y859144D01*
X276601Y859185D01*
X276521Y859224D01*
X276440Y859258D01*
X276357Y859290D01*
X276272Y859317D01*
X276187Y859342D01*
X276101Y859362D01*
X276014Y859379D01*
X275926Y859392D01*
X275838Y859401D01*
X275750Y859407D01*
X275661Y859409D01*
X273572Y859409D01*
X270103Y857321D02*
X267493Y859409D01*
X267493Y850011D01*
X270103Y850011D02*
X264882Y850011D01*
X202001Y860171D02*
X199912Y860171D01*
X202001Y860171D02*
X202090Y860173D01*
X202178Y860179D01*
X202266Y860188D01*
X202354Y860201D01*
X202441Y860218D01*
X202527Y860238D01*
X202612Y860263D01*
X202697Y860290D01*
X202780Y860322D01*
X202861Y860356D01*
X202941Y860395D01*
X203019Y860436D01*
X203096Y860481D01*
X203170Y860529D01*
X203243Y860580D01*
X203313Y860634D01*
X203380Y860692D01*
X203446Y860752D01*
X203508Y860814D01*
X203568Y860880D01*
X203626Y860947D01*
X203680Y861017D01*
X203731Y861090D01*
X203779Y861164D01*
X203824Y861241D01*
X203865Y861319D01*
X203904Y861399D01*
X203938Y861480D01*
X203970Y861563D01*
X203997Y861648D01*
X204022Y861733D01*
X204042Y861819D01*
X204059Y861906D01*
X204072Y861994D01*
X204081Y862082D01*
X204087Y862170D01*
X204089Y862259D01*
X204089Y867481D01*
X204087Y867570D01*
X204081Y867658D01*
X204072Y867746D01*
X204059Y867834D01*
X204042Y867921D01*
X204022Y868007D01*
X203997Y868092D01*
X203970Y868177D01*
X203938Y868260D01*
X203904Y868341D01*
X203865Y868421D01*
X203824Y868499D01*
X203779Y868576D01*
X203731Y868650D01*
X203680Y868723D01*
X203626Y868793D01*
X203568Y868860D01*
X203508Y868926D01*
X203446Y868988D01*
X203380Y869048D01*
X203313Y869106D01*
X203243Y869160D01*
X203170Y869211D01*
X203096Y869259D01*
X203019Y869304D01*
X202941Y869345D01*
X202861Y869384D01*
X202780Y869418D01*
X202697Y869450D01*
X202612Y869477D01*
X202527Y869502D01*
X202441Y869522D01*
X202354Y869539D01*
X202266Y869552D01*
X202178Y869561D01*
X202090Y869567D01*
X202001Y869569D01*
X199912Y869569D01*
X193572Y869570D02*
X193477Y869568D01*
X193383Y869562D01*
X193289Y869553D01*
X193195Y869540D01*
X193102Y869523D01*
X193010Y869502D01*
X192918Y869477D01*
X192828Y869449D01*
X192739Y869417D01*
X192651Y869382D01*
X192565Y869343D01*
X192480Y869301D01*
X192397Y869255D01*
X192316Y869206D01*
X192237Y869154D01*
X192160Y869099D01*
X192086Y869040D01*
X192014Y868979D01*
X191944Y868915D01*
X191877Y868848D01*
X191813Y868778D01*
X191752Y868706D01*
X191693Y868632D01*
X191638Y868555D01*
X191586Y868476D01*
X191537Y868395D01*
X191491Y868312D01*
X191449Y868227D01*
X191410Y868141D01*
X191375Y868053D01*
X191343Y867964D01*
X191315Y867874D01*
X191290Y867782D01*
X191269Y867690D01*
X191252Y867597D01*
X191239Y867503D01*
X191230Y867409D01*
X191224Y867315D01*
X191222Y867220D01*
X193572Y869569D02*
X193680Y869567D01*
X193789Y869561D01*
X193897Y869551D01*
X194004Y869538D01*
X194111Y869520D01*
X194218Y869499D01*
X194323Y869474D01*
X194428Y869445D01*
X194531Y869413D01*
X194633Y869376D01*
X194734Y869336D01*
X194833Y869293D01*
X194931Y869246D01*
X195027Y869195D01*
X195121Y869141D01*
X195213Y869084D01*
X195303Y869023D01*
X195391Y868959D01*
X195476Y868893D01*
X195559Y868823D01*
X195639Y868750D01*
X195717Y868674D01*
X195792Y868596D01*
X195864Y868515D01*
X195933Y868431D01*
X195999Y868345D01*
X196062Y868257D01*
X196121Y868166D01*
X196178Y868074D01*
X196231Y867979D01*
X196280Y867882D01*
X196326Y867784D01*
X196369Y867685D01*
X196408Y867583D01*
X196443Y867481D01*
X192005Y865392D02*
X191936Y865461D01*
X191870Y865532D01*
X191806Y865605D01*
X191745Y865681D01*
X191687Y865760D01*
X191633Y865840D01*
X191581Y865923D01*
X191533Y866007D01*
X191487Y866093D01*
X191446Y866181D01*
X191407Y866271D01*
X191372Y866362D01*
X191341Y866454D01*
X191313Y866547D01*
X191289Y866641D01*
X191269Y866736D01*
X191252Y866832D01*
X191239Y866929D01*
X191230Y867026D01*
X191224Y867123D01*
X191222Y867220D01*
X192005Y865392D02*
X196443Y860171D01*
X191222Y860171D01*
X131809Y575691D02*
X129721Y575691D01*
X131809Y575691D02*
X131898Y575693D01*
X131986Y575699D01*
X132074Y575708D01*
X132162Y575721D01*
X132249Y575738D01*
X132335Y575758D01*
X132420Y575783D01*
X132505Y575810D01*
X132588Y575842D01*
X132669Y575876D01*
X132749Y575915D01*
X132827Y575956D01*
X132904Y576001D01*
X132978Y576049D01*
X133051Y576100D01*
X133121Y576154D01*
X133188Y576212D01*
X133254Y576272D01*
X133316Y576334D01*
X133376Y576400D01*
X133434Y576467D01*
X133488Y576537D01*
X133539Y576610D01*
X133587Y576684D01*
X133632Y576761D01*
X133673Y576839D01*
X133712Y576919D01*
X133746Y577000D01*
X133778Y577083D01*
X133805Y577168D01*
X133830Y577253D01*
X133850Y577339D01*
X133867Y577426D01*
X133880Y577514D01*
X133889Y577602D01*
X133895Y577690D01*
X133897Y577779D01*
X133898Y577779D02*
X133898Y583001D01*
X133897Y583001D02*
X133895Y583090D01*
X133889Y583178D01*
X133880Y583266D01*
X133867Y583354D01*
X133850Y583441D01*
X133830Y583527D01*
X133805Y583612D01*
X133778Y583697D01*
X133746Y583780D01*
X133712Y583861D01*
X133673Y583941D01*
X133632Y584019D01*
X133587Y584096D01*
X133539Y584170D01*
X133488Y584243D01*
X133434Y584313D01*
X133376Y584380D01*
X133316Y584446D01*
X133254Y584508D01*
X133188Y584568D01*
X133121Y584626D01*
X133051Y584680D01*
X132978Y584731D01*
X132904Y584779D01*
X132827Y584824D01*
X132749Y584865D01*
X132669Y584904D01*
X132588Y584938D01*
X132505Y584970D01*
X132420Y584997D01*
X132335Y585022D01*
X132249Y585042D01*
X132162Y585059D01*
X132074Y585072D01*
X131986Y585081D01*
X131898Y585087D01*
X131809Y585089D01*
X129721Y585089D01*
X126252Y575691D02*
X123642Y575691D01*
X123541Y575693D01*
X123440Y575699D01*
X123339Y575709D01*
X123239Y575722D01*
X123139Y575740D01*
X123040Y575761D01*
X122942Y575787D01*
X122845Y575816D01*
X122749Y575848D01*
X122655Y575885D01*
X122562Y575925D01*
X122470Y575969D01*
X122381Y576016D01*
X122293Y576067D01*
X122207Y576121D01*
X122124Y576178D01*
X122042Y576238D01*
X121964Y576302D01*
X121887Y576368D01*
X121814Y576438D01*
X121743Y576510D01*
X121675Y576585D01*
X121610Y576663D01*
X121548Y576743D01*
X121489Y576825D01*
X121433Y576910D01*
X121381Y576997D01*
X121332Y577085D01*
X121286Y577176D01*
X121245Y577268D01*
X121206Y577362D01*
X121172Y577457D01*
X121141Y577553D01*
X121114Y577651D01*
X121090Y577749D01*
X121071Y577849D01*
X121055Y577949D01*
X121043Y578049D01*
X121035Y578150D01*
X121031Y578251D01*
X121031Y578353D01*
X121035Y578454D01*
X121043Y578555D01*
X121055Y578655D01*
X121071Y578755D01*
X121090Y578855D01*
X121114Y578953D01*
X121141Y579051D01*
X121172Y579147D01*
X121206Y579242D01*
X121245Y579336D01*
X121286Y579428D01*
X121332Y579519D01*
X121381Y579608D01*
X121433Y579694D01*
X121489Y579779D01*
X121548Y579861D01*
X121610Y579941D01*
X121675Y580019D01*
X121743Y580094D01*
X121814Y580166D01*
X121887Y580236D01*
X121964Y580302D01*
X122042Y580366D01*
X122124Y580426D01*
X122207Y580483D01*
X122293Y580537D01*
X122381Y580588D01*
X122470Y580635D01*
X122562Y580679D01*
X122655Y580719D01*
X122749Y580756D01*
X122845Y580788D01*
X122942Y580817D01*
X123040Y580843D01*
X123139Y580864D01*
X123239Y580882D01*
X123339Y580895D01*
X123440Y580905D01*
X123541Y580911D01*
X123642Y580913D01*
X123119Y585089D02*
X126252Y585089D01*
X123119Y585089D02*
X123029Y585087D01*
X122940Y585081D01*
X122850Y585072D01*
X122761Y585058D01*
X122673Y585041D01*
X122586Y585020D01*
X122499Y584995D01*
X122414Y584966D01*
X122330Y584934D01*
X122248Y584899D01*
X122167Y584859D01*
X122088Y584817D01*
X122011Y584771D01*
X121936Y584721D01*
X121863Y584669D01*
X121792Y584613D01*
X121724Y584555D01*
X121659Y584493D01*
X121596Y584429D01*
X121536Y584362D01*
X121479Y584293D01*
X121425Y584221D01*
X121374Y584147D01*
X121326Y584071D01*
X121282Y583993D01*
X121241Y583913D01*
X121203Y583831D01*
X121169Y583748D01*
X121139Y583663D01*
X121112Y583577D01*
X121089Y583491D01*
X121070Y583403D01*
X121055Y583314D01*
X121043Y583225D01*
X121035Y583136D01*
X121031Y583046D01*
X121031Y582956D01*
X121035Y582866D01*
X121043Y582777D01*
X121055Y582688D01*
X121070Y582599D01*
X121089Y582511D01*
X121112Y582425D01*
X121139Y582339D01*
X121169Y582254D01*
X121203Y582171D01*
X121241Y582089D01*
X121282Y582009D01*
X121326Y581931D01*
X121374Y581855D01*
X121425Y581781D01*
X121479Y581709D01*
X121536Y581640D01*
X121596Y581573D01*
X121659Y581509D01*
X121724Y581447D01*
X121792Y581389D01*
X121863Y581333D01*
X121936Y581281D01*
X122011Y581231D01*
X122088Y581185D01*
X122167Y581143D01*
X122248Y581103D01*
X122330Y581068D01*
X122414Y581036D01*
X122499Y581007D01*
X122586Y580982D01*
X122673Y580961D01*
X122761Y580944D01*
X122850Y580930D01*
X122940Y580921D01*
X123029Y580915D01*
X123119Y580913D01*
X123119Y580912D02*
X125208Y580912D01*
X156732Y860171D02*
X158821Y860171D01*
X158910Y860173D01*
X158998Y860179D01*
X159086Y860188D01*
X159174Y860201D01*
X159261Y860218D01*
X159347Y860238D01*
X159432Y860263D01*
X159517Y860290D01*
X159600Y860322D01*
X159681Y860356D01*
X159761Y860395D01*
X159839Y860436D01*
X159916Y860481D01*
X159990Y860529D01*
X160063Y860580D01*
X160133Y860634D01*
X160200Y860692D01*
X160266Y860752D01*
X160328Y860814D01*
X160388Y860880D01*
X160446Y860947D01*
X160500Y861017D01*
X160551Y861090D01*
X160599Y861164D01*
X160644Y861241D01*
X160685Y861319D01*
X160724Y861399D01*
X160758Y861480D01*
X160790Y861563D01*
X160817Y861648D01*
X160842Y861733D01*
X160862Y861819D01*
X160879Y861906D01*
X160892Y861994D01*
X160901Y862082D01*
X160907Y862170D01*
X160909Y862259D01*
X160909Y867481D01*
X160907Y867570D01*
X160901Y867658D01*
X160892Y867746D01*
X160879Y867834D01*
X160862Y867921D01*
X160842Y868007D01*
X160817Y868092D01*
X160790Y868177D01*
X160758Y868260D01*
X160724Y868341D01*
X160685Y868421D01*
X160644Y868499D01*
X160599Y868576D01*
X160551Y868650D01*
X160500Y868723D01*
X160446Y868793D01*
X160388Y868860D01*
X160328Y868926D01*
X160266Y868988D01*
X160200Y869048D01*
X160133Y869106D01*
X160063Y869160D01*
X159990Y869211D01*
X159916Y869259D01*
X159839Y869304D01*
X159761Y869345D01*
X159681Y869384D01*
X159600Y869418D01*
X159517Y869450D01*
X159432Y869477D01*
X159347Y869502D01*
X159261Y869522D01*
X159174Y869539D01*
X159086Y869552D01*
X158998Y869561D01*
X158910Y869567D01*
X158821Y869569D01*
X156732Y869569D01*
X151175Y869569D02*
X153263Y862259D01*
X148042Y862259D01*
X149609Y860171D02*
X149609Y864348D01*
D11*
X172320Y625240D02*
X122320Y625240D01*
X172320Y625240D02*
X172320Y675240D01*
X122320Y675240D01*
X122270Y671740D02*
X122320Y625240D01*
X122270Y671740D02*
X122320Y675240D01*
X126296Y667672D02*
X126298Y667791D01*
X126304Y667911D01*
X126314Y668030D01*
X126328Y668148D01*
X126346Y668266D01*
X126367Y668384D01*
X126393Y668500D01*
X126422Y668616D01*
X126456Y668731D01*
X126493Y668844D01*
X126534Y668956D01*
X126578Y669067D01*
X126626Y669177D01*
X126678Y669284D01*
X126733Y669390D01*
X126792Y669494D01*
X126855Y669596D01*
X126920Y669695D01*
X126989Y669793D01*
X127061Y669888D01*
X127136Y669981D01*
X127215Y670071D01*
X127296Y670159D01*
X127380Y670243D01*
X127467Y670325D01*
X127556Y670404D01*
X127648Y670480D01*
X127743Y670553D01*
X127840Y670623D01*
X127939Y670689D01*
X128041Y670752D01*
X128144Y670812D01*
X128249Y670868D01*
X128356Y670921D01*
X128465Y670970D01*
X128576Y671016D01*
X128688Y671057D01*
X128801Y671095D01*
X128915Y671130D01*
X129031Y671160D01*
X129147Y671187D01*
X129264Y671209D01*
X129382Y671228D01*
X129501Y671243D01*
X129620Y671254D01*
X129739Y671261D01*
X129858Y671264D01*
X129978Y671263D01*
X130097Y671258D01*
X130216Y671249D01*
X130335Y671236D01*
X130453Y671219D01*
X130570Y671199D01*
X130687Y671174D01*
X130803Y671145D01*
X130918Y671113D01*
X131032Y671077D01*
X131145Y671037D01*
X131256Y670993D01*
X131365Y670946D01*
X131473Y670895D01*
X131580Y670841D01*
X131684Y670783D01*
X131786Y670721D01*
X131887Y670657D01*
X131985Y670588D01*
X132081Y670517D01*
X132174Y670443D01*
X132265Y670365D01*
X132353Y670285D01*
X132438Y670201D01*
X132521Y670115D01*
X132601Y670026D01*
X132678Y669935D01*
X132751Y669841D01*
X132822Y669744D01*
X132889Y669646D01*
X132953Y669545D01*
X133014Y669442D01*
X133071Y669337D01*
X133124Y669231D01*
X133174Y669122D01*
X133221Y669012D01*
X133263Y668901D01*
X133302Y668788D01*
X133338Y668674D01*
X133369Y668558D01*
X133396Y668442D01*
X133420Y668325D01*
X133440Y668207D01*
X133456Y668089D01*
X133468Y667970D01*
X133476Y667851D01*
X133480Y667732D01*
X133480Y667612D01*
X133476Y667493D01*
X133468Y667374D01*
X133456Y667255D01*
X133440Y667137D01*
X133420Y667019D01*
X133396Y666902D01*
X133369Y666786D01*
X133338Y666670D01*
X133302Y666556D01*
X133263Y666443D01*
X133221Y666332D01*
X133174Y666222D01*
X133124Y666113D01*
X133071Y666007D01*
X133014Y665902D01*
X132953Y665799D01*
X132889Y665698D01*
X132822Y665600D01*
X132751Y665503D01*
X132678Y665409D01*
X132601Y665318D01*
X132521Y665229D01*
X132438Y665143D01*
X132353Y665059D01*
X132265Y664979D01*
X132174Y664901D01*
X132081Y664827D01*
X131985Y664756D01*
X131887Y664687D01*
X131786Y664623D01*
X131684Y664561D01*
X131580Y664503D01*
X131473Y664449D01*
X131365Y664398D01*
X131256Y664351D01*
X131145Y664307D01*
X131032Y664267D01*
X130918Y664231D01*
X130803Y664199D01*
X130687Y664170D01*
X130570Y664145D01*
X130453Y664125D01*
X130335Y664108D01*
X130216Y664095D01*
X130097Y664086D01*
X129978Y664081D01*
X129858Y664080D01*
X129739Y664083D01*
X129620Y664090D01*
X129501Y664101D01*
X129382Y664116D01*
X129264Y664135D01*
X129147Y664157D01*
X129031Y664184D01*
X128915Y664214D01*
X128801Y664249D01*
X128688Y664287D01*
X128576Y664328D01*
X128465Y664374D01*
X128356Y664423D01*
X128249Y664476D01*
X128144Y664532D01*
X128041Y664592D01*
X127939Y664655D01*
X127840Y664721D01*
X127743Y664791D01*
X127648Y664864D01*
X127556Y664940D01*
X127467Y665019D01*
X127380Y665101D01*
X127296Y665185D01*
X127215Y665273D01*
X127136Y665363D01*
X127061Y665456D01*
X126989Y665551D01*
X126920Y665649D01*
X126855Y665748D01*
X126792Y665850D01*
X126733Y665954D01*
X126678Y666060D01*
X126626Y666167D01*
X126578Y666277D01*
X126534Y666388D01*
X126493Y666500D01*
X126456Y666613D01*
X126422Y666728D01*
X126393Y666844D01*
X126367Y666960D01*
X126346Y667078D01*
X126328Y667196D01*
X126314Y667314D01*
X126304Y667433D01*
X126298Y667553D01*
X126296Y667672D01*
D10*
X120321Y676181D02*
X120321Y685579D01*
X121365Y676181D02*
X119277Y676181D01*
X119277Y685579D02*
X121365Y685579D01*
X113553Y676181D02*
X111465Y676181D01*
X113553Y676181D02*
X113642Y676183D01*
X113730Y676189D01*
X113818Y676198D01*
X113906Y676211D01*
X113993Y676228D01*
X114079Y676248D01*
X114164Y676273D01*
X114249Y676300D01*
X114332Y676332D01*
X114413Y676366D01*
X114493Y676405D01*
X114571Y676446D01*
X114648Y676491D01*
X114722Y676539D01*
X114795Y676590D01*
X114865Y676644D01*
X114932Y676702D01*
X114998Y676762D01*
X115060Y676824D01*
X115120Y676890D01*
X115178Y676957D01*
X115232Y677027D01*
X115283Y677100D01*
X115331Y677174D01*
X115376Y677251D01*
X115417Y677329D01*
X115456Y677409D01*
X115490Y677490D01*
X115522Y677573D01*
X115549Y677658D01*
X115574Y677743D01*
X115594Y677829D01*
X115611Y677916D01*
X115624Y678004D01*
X115633Y678092D01*
X115639Y678180D01*
X115641Y678269D01*
X115642Y678269D02*
X115642Y683491D01*
X115641Y683491D02*
X115639Y683580D01*
X115633Y683668D01*
X115624Y683756D01*
X115611Y683844D01*
X115594Y683931D01*
X115574Y684017D01*
X115549Y684102D01*
X115522Y684187D01*
X115490Y684270D01*
X115456Y684351D01*
X115417Y684431D01*
X115376Y684509D01*
X115331Y684586D01*
X115283Y684660D01*
X115232Y684733D01*
X115178Y684803D01*
X115120Y684870D01*
X115060Y684936D01*
X114998Y684998D01*
X114932Y685058D01*
X114865Y685116D01*
X114795Y685170D01*
X114722Y685221D01*
X114648Y685269D01*
X114571Y685314D01*
X114493Y685355D01*
X114413Y685394D01*
X114332Y685428D01*
X114249Y685460D01*
X114164Y685487D01*
X114079Y685512D01*
X113993Y685532D01*
X113906Y685549D01*
X113818Y685562D01*
X113730Y685571D01*
X113642Y685577D01*
X113553Y685579D01*
X111465Y685579D01*
X107996Y683491D02*
X105386Y685579D01*
X105386Y676181D01*
X107996Y676181D02*
X102775Y676181D01*
X122809Y860171D02*
X122809Y869569D01*
X120198Y869569D01*
X120097Y869567D01*
X119996Y869561D01*
X119895Y869551D01*
X119795Y869538D01*
X119695Y869520D01*
X119596Y869499D01*
X119498Y869473D01*
X119401Y869444D01*
X119305Y869412D01*
X119211Y869375D01*
X119118Y869335D01*
X119026Y869291D01*
X118937Y869244D01*
X118849Y869193D01*
X118763Y869139D01*
X118680Y869082D01*
X118598Y869022D01*
X118520Y868958D01*
X118443Y868892D01*
X118370Y868822D01*
X118299Y868750D01*
X118231Y868675D01*
X118166Y868597D01*
X118104Y868517D01*
X118045Y868435D01*
X117989Y868350D01*
X117937Y868264D01*
X117888Y868175D01*
X117842Y868084D01*
X117801Y867992D01*
X117762Y867898D01*
X117728Y867803D01*
X117697Y867707D01*
X117670Y867609D01*
X117646Y867511D01*
X117627Y867411D01*
X117611Y867311D01*
X117599Y867211D01*
X117591Y867110D01*
X117587Y867009D01*
X117587Y866907D01*
X117591Y866806D01*
X117599Y866705D01*
X117611Y866605D01*
X117627Y866505D01*
X117646Y866405D01*
X117670Y866307D01*
X117697Y866209D01*
X117728Y866113D01*
X117762Y866018D01*
X117801Y865924D01*
X117842Y865832D01*
X117888Y865741D01*
X117937Y865653D01*
X117989Y865566D01*
X118045Y865481D01*
X118104Y865399D01*
X118166Y865319D01*
X118231Y865241D01*
X118299Y865166D01*
X118370Y865094D01*
X118443Y865024D01*
X118520Y864958D01*
X118598Y864894D01*
X118680Y864834D01*
X118763Y864777D01*
X118849Y864723D01*
X118937Y864672D01*
X119026Y864625D01*
X119118Y864581D01*
X119211Y864541D01*
X119305Y864504D01*
X119401Y864472D01*
X119498Y864443D01*
X119596Y864417D01*
X119695Y864396D01*
X119795Y864378D01*
X119895Y864365D01*
X119996Y864355D01*
X120097Y864349D01*
X120198Y864347D01*
X120198Y864348D02*
X122809Y864348D01*
X119676Y864348D02*
X117588Y860171D01*
X113722Y867481D02*
X111112Y869569D01*
X111112Y860171D01*
X113722Y860171D02*
X108501Y860171D01*
X104578Y864870D02*
X104576Y865055D01*
X104569Y865240D01*
X104558Y865424D01*
X104543Y865608D01*
X104523Y865792D01*
X104499Y865976D01*
X104470Y866158D01*
X104437Y866340D01*
X104400Y866521D01*
X104358Y866701D01*
X104312Y866881D01*
X104262Y867059D01*
X104208Y867235D01*
X104149Y867411D01*
X104087Y867585D01*
X104020Y867757D01*
X103949Y867928D01*
X103874Y868097D01*
X103795Y868264D01*
X103796Y868264D02*
X103766Y868344D01*
X103733Y868423D01*
X103696Y868500D01*
X103656Y868576D01*
X103613Y868650D01*
X103567Y868722D01*
X103517Y868791D01*
X103465Y868859D01*
X103409Y868924D01*
X103351Y868987D01*
X103289Y869046D01*
X103226Y869104D01*
X103159Y869158D01*
X103091Y869209D01*
X103020Y869257D01*
X102947Y869302D01*
X102873Y869344D01*
X102796Y869382D01*
X102718Y869417D01*
X102639Y869449D01*
X102558Y869477D01*
X102476Y869501D01*
X102392Y869522D01*
X102309Y869539D01*
X102224Y869552D01*
X102139Y869561D01*
X102054Y869567D01*
X101968Y869569D01*
X101882Y869567D01*
X101797Y869561D01*
X101712Y869552D01*
X101627Y869539D01*
X101544Y869522D01*
X101460Y869501D01*
X101378Y869477D01*
X101298Y869449D01*
X101218Y869417D01*
X101140Y869382D01*
X101063Y869344D01*
X100989Y869302D01*
X100916Y869257D01*
X100845Y869209D01*
X100777Y869158D01*
X100710Y869104D01*
X100647Y869046D01*
X100586Y868987D01*
X100527Y868924D01*
X100472Y868859D01*
X100419Y868791D01*
X100369Y868722D01*
X100323Y868650D01*
X100280Y868576D01*
X100240Y868500D01*
X100203Y868423D01*
X100170Y868344D01*
X100140Y868264D01*
X100061Y868097D01*
X99986Y867928D01*
X99915Y867757D01*
X99848Y867585D01*
X99786Y867411D01*
X99727Y867235D01*
X99673Y867059D01*
X99623Y866881D01*
X99577Y866701D01*
X99535Y866521D01*
X99498Y866340D01*
X99465Y866158D01*
X99436Y865976D01*
X99412Y865792D01*
X99392Y865608D01*
X99377Y865424D01*
X99366Y865240D01*
X99359Y865055D01*
X99357Y864870D01*
X104578Y864870D02*
X104576Y864685D01*
X104569Y864500D01*
X104558Y864316D01*
X104543Y864132D01*
X104523Y863948D01*
X104499Y863764D01*
X104470Y863582D01*
X104437Y863400D01*
X104400Y863219D01*
X104358Y863039D01*
X104312Y862859D01*
X104262Y862681D01*
X104208Y862505D01*
X104149Y862329D01*
X104087Y862155D01*
X104020Y861983D01*
X103949Y861812D01*
X103874Y861643D01*
X103795Y861476D01*
X103796Y861476D02*
X103766Y861396D01*
X103733Y861317D01*
X103696Y861240D01*
X103656Y861164D01*
X103613Y861090D01*
X103567Y861018D01*
X103517Y860949D01*
X103464Y860881D01*
X103409Y860816D01*
X103350Y860753D01*
X103289Y860694D01*
X103226Y860636D01*
X103159Y860582D01*
X103091Y860531D01*
X103020Y860483D01*
X102947Y860438D01*
X102873Y860396D01*
X102796Y860358D01*
X102718Y860323D01*
X102639Y860291D01*
X102558Y860263D01*
X102476Y860239D01*
X102392Y860218D01*
X102309Y860201D01*
X102224Y860188D01*
X102139Y860179D01*
X102054Y860173D01*
X101968Y860171D01*
X100140Y861476D02*
X100061Y861643D01*
X99986Y861812D01*
X99915Y861983D01*
X99848Y862155D01*
X99786Y862329D01*
X99727Y862505D01*
X99673Y862681D01*
X99623Y862859D01*
X99577Y863039D01*
X99535Y863219D01*
X99498Y863400D01*
X99465Y863582D01*
X99436Y863764D01*
X99412Y863948D01*
X99392Y864132D01*
X99377Y864316D01*
X99366Y864500D01*
X99359Y864685D01*
X99357Y864870D01*
X100140Y861476D02*
X100170Y861396D01*
X100203Y861317D01*
X100240Y861240D01*
X100280Y861164D01*
X100323Y861090D01*
X100369Y861018D01*
X100419Y860949D01*
X100472Y860881D01*
X100527Y860816D01*
X100586Y860753D01*
X100647Y860694D01*
X100710Y860636D01*
X100777Y860582D01*
X100845Y860531D01*
X100916Y860483D01*
X100989Y860438D01*
X101063Y860396D01*
X101140Y860358D01*
X101218Y860323D01*
X101298Y860291D01*
X101378Y860263D01*
X101460Y860239D01*
X101544Y860218D01*
X101627Y860201D01*
X101712Y860188D01*
X101797Y860179D01*
X101882Y860173D01*
X101968Y860171D01*
X104056Y862259D02*
X99879Y867481D01*
X56769Y718439D02*
X56769Y709041D01*
X56769Y718439D02*
X54158Y718439D01*
X54057Y718437D01*
X53956Y718431D01*
X53855Y718421D01*
X53755Y718408D01*
X53655Y718390D01*
X53556Y718369D01*
X53458Y718343D01*
X53361Y718314D01*
X53265Y718282D01*
X53171Y718245D01*
X53078Y718205D01*
X52986Y718161D01*
X52897Y718114D01*
X52809Y718063D01*
X52723Y718009D01*
X52640Y717952D01*
X52558Y717892D01*
X52480Y717828D01*
X52403Y717762D01*
X52330Y717692D01*
X52259Y717620D01*
X52191Y717545D01*
X52126Y717467D01*
X52064Y717387D01*
X52005Y717305D01*
X51949Y717220D01*
X51897Y717134D01*
X51848Y717045D01*
X51802Y716954D01*
X51761Y716862D01*
X51722Y716768D01*
X51688Y716673D01*
X51657Y716577D01*
X51630Y716479D01*
X51606Y716381D01*
X51587Y716281D01*
X51571Y716181D01*
X51559Y716081D01*
X51551Y715980D01*
X51547Y715879D01*
X51547Y715777D01*
X51551Y715676D01*
X51559Y715575D01*
X51571Y715475D01*
X51587Y715375D01*
X51606Y715275D01*
X51630Y715177D01*
X51657Y715079D01*
X51688Y714983D01*
X51722Y714888D01*
X51761Y714794D01*
X51802Y714702D01*
X51848Y714611D01*
X51897Y714523D01*
X51949Y714436D01*
X52005Y714351D01*
X52064Y714269D01*
X52126Y714189D01*
X52191Y714111D01*
X52259Y714036D01*
X52330Y713964D01*
X52403Y713894D01*
X52480Y713828D01*
X52558Y713764D01*
X52640Y713704D01*
X52723Y713647D01*
X52809Y713593D01*
X52897Y713542D01*
X52986Y713495D01*
X53078Y713451D01*
X53171Y713411D01*
X53265Y713374D01*
X53361Y713342D01*
X53458Y713313D01*
X53556Y713287D01*
X53655Y713266D01*
X53755Y713248D01*
X53855Y713235D01*
X53956Y713225D01*
X54057Y713219D01*
X54158Y713217D01*
X54158Y713218D02*
X56769Y713218D01*
X53636Y713218D02*
X51548Y709041D01*
X47682Y716351D02*
X45072Y718439D01*
X45072Y709041D01*
X47682Y709041D02*
X42461Y709041D01*
X38538Y716351D02*
X35928Y718439D01*
X35928Y709041D01*
X38538Y709041D02*
X33317Y709041D01*
X254889Y743331D02*
X254889Y752729D01*
X252278Y752729D01*
X252177Y752727D01*
X252076Y752721D01*
X251975Y752711D01*
X251875Y752698D01*
X251775Y752680D01*
X251676Y752659D01*
X251578Y752633D01*
X251481Y752604D01*
X251385Y752572D01*
X251291Y752535D01*
X251198Y752495D01*
X251106Y752451D01*
X251017Y752404D01*
X250929Y752353D01*
X250843Y752299D01*
X250760Y752242D01*
X250678Y752182D01*
X250600Y752118D01*
X250523Y752052D01*
X250450Y751982D01*
X250379Y751910D01*
X250311Y751835D01*
X250246Y751757D01*
X250184Y751677D01*
X250125Y751595D01*
X250069Y751510D01*
X250017Y751424D01*
X249968Y751335D01*
X249922Y751244D01*
X249881Y751152D01*
X249842Y751058D01*
X249808Y750963D01*
X249777Y750867D01*
X249750Y750769D01*
X249726Y750671D01*
X249707Y750571D01*
X249691Y750471D01*
X249679Y750371D01*
X249671Y750270D01*
X249667Y750169D01*
X249667Y750067D01*
X249671Y749966D01*
X249679Y749865D01*
X249691Y749765D01*
X249707Y749665D01*
X249726Y749565D01*
X249750Y749467D01*
X249777Y749369D01*
X249808Y749273D01*
X249842Y749178D01*
X249881Y749084D01*
X249922Y748992D01*
X249968Y748901D01*
X250017Y748813D01*
X250069Y748726D01*
X250125Y748641D01*
X250184Y748559D01*
X250246Y748479D01*
X250311Y748401D01*
X250379Y748326D01*
X250450Y748254D01*
X250523Y748184D01*
X250600Y748118D01*
X250678Y748054D01*
X250760Y747994D01*
X250843Y747937D01*
X250929Y747883D01*
X251017Y747832D01*
X251106Y747785D01*
X251198Y747741D01*
X251291Y747701D01*
X251385Y747664D01*
X251481Y747632D01*
X251578Y747603D01*
X251676Y747577D01*
X251775Y747556D01*
X251875Y747538D01*
X251975Y747525D01*
X252076Y747515D01*
X252177Y747509D01*
X252278Y747507D01*
X252278Y747508D02*
X254889Y747508D01*
X251756Y747508D02*
X249668Y743331D01*
X240581Y750380D02*
X240583Y750475D01*
X240589Y750569D01*
X240598Y750663D01*
X240611Y750757D01*
X240628Y750850D01*
X240649Y750942D01*
X240674Y751034D01*
X240702Y751124D01*
X240734Y751213D01*
X240769Y751301D01*
X240808Y751387D01*
X240850Y751472D01*
X240896Y751555D01*
X240945Y751636D01*
X240997Y751715D01*
X241052Y751792D01*
X241111Y751866D01*
X241172Y751938D01*
X241236Y752008D01*
X241303Y752075D01*
X241373Y752139D01*
X241445Y752200D01*
X241519Y752259D01*
X241596Y752314D01*
X241675Y752366D01*
X241756Y752415D01*
X241839Y752461D01*
X241924Y752503D01*
X242010Y752542D01*
X242098Y752577D01*
X242187Y752609D01*
X242277Y752637D01*
X242369Y752662D01*
X242461Y752683D01*
X242554Y752700D01*
X242648Y752713D01*
X242742Y752722D01*
X242836Y752728D01*
X242931Y752730D01*
X242931Y752729D02*
X243039Y752727D01*
X243148Y752721D01*
X243256Y752711D01*
X243363Y752698D01*
X243470Y752680D01*
X243577Y752659D01*
X243682Y752634D01*
X243787Y752605D01*
X243890Y752573D01*
X243992Y752536D01*
X244093Y752496D01*
X244192Y752453D01*
X244290Y752406D01*
X244386Y752355D01*
X244480Y752301D01*
X244572Y752244D01*
X244662Y752183D01*
X244750Y752119D01*
X244835Y752053D01*
X244918Y751983D01*
X244998Y751910D01*
X245076Y751834D01*
X245151Y751756D01*
X245223Y751675D01*
X245292Y751591D01*
X245358Y751505D01*
X245421Y751417D01*
X245480Y751326D01*
X245537Y751234D01*
X245590Y751139D01*
X245639Y751042D01*
X245685Y750944D01*
X245728Y750845D01*
X245767Y750743D01*
X245802Y750641D01*
X241364Y748552D02*
X241295Y748621D01*
X241229Y748692D01*
X241165Y748765D01*
X241104Y748841D01*
X241046Y748920D01*
X240992Y749000D01*
X240940Y749083D01*
X240892Y749167D01*
X240846Y749253D01*
X240805Y749341D01*
X240766Y749431D01*
X240731Y749522D01*
X240700Y749614D01*
X240672Y749707D01*
X240648Y749801D01*
X240628Y749896D01*
X240611Y749992D01*
X240598Y750089D01*
X240589Y750186D01*
X240583Y750283D01*
X240581Y750380D01*
X241364Y748552D02*
X245802Y743331D01*
X240581Y743331D01*
X252349Y234569D02*
X252349Y225171D01*
X252349Y234569D02*
X249738Y234569D01*
X249637Y234567D01*
X249536Y234561D01*
X249435Y234551D01*
X249335Y234538D01*
X249235Y234520D01*
X249136Y234499D01*
X249038Y234473D01*
X248941Y234444D01*
X248845Y234412D01*
X248751Y234375D01*
X248658Y234335D01*
X248566Y234291D01*
X248477Y234244D01*
X248389Y234193D01*
X248303Y234139D01*
X248220Y234082D01*
X248138Y234022D01*
X248060Y233958D01*
X247983Y233892D01*
X247910Y233822D01*
X247839Y233750D01*
X247771Y233675D01*
X247706Y233597D01*
X247644Y233517D01*
X247585Y233435D01*
X247529Y233350D01*
X247477Y233264D01*
X247428Y233175D01*
X247382Y233084D01*
X247341Y232992D01*
X247302Y232898D01*
X247268Y232803D01*
X247237Y232707D01*
X247210Y232609D01*
X247186Y232511D01*
X247167Y232411D01*
X247151Y232311D01*
X247139Y232211D01*
X247131Y232110D01*
X247127Y232009D01*
X247127Y231907D01*
X247131Y231806D01*
X247139Y231705D01*
X247151Y231605D01*
X247167Y231505D01*
X247186Y231405D01*
X247210Y231307D01*
X247237Y231209D01*
X247268Y231113D01*
X247302Y231018D01*
X247341Y230924D01*
X247382Y230832D01*
X247428Y230741D01*
X247477Y230653D01*
X247529Y230566D01*
X247585Y230481D01*
X247644Y230399D01*
X247706Y230319D01*
X247771Y230241D01*
X247839Y230166D01*
X247910Y230094D01*
X247983Y230024D01*
X248060Y229958D01*
X248138Y229894D01*
X248220Y229834D01*
X248303Y229777D01*
X248389Y229723D01*
X248477Y229672D01*
X248566Y229625D01*
X248658Y229581D01*
X248751Y229541D01*
X248845Y229504D01*
X248941Y229472D01*
X249038Y229443D01*
X249136Y229417D01*
X249235Y229396D01*
X249335Y229378D01*
X249435Y229365D01*
X249536Y229355D01*
X249637Y229349D01*
X249738Y229347D01*
X249738Y229348D02*
X252349Y229348D01*
X249216Y229348D02*
X247128Y225171D01*
X243262Y225171D02*
X240652Y225171D01*
X240551Y225173D01*
X240450Y225179D01*
X240349Y225189D01*
X240249Y225202D01*
X240149Y225220D01*
X240050Y225241D01*
X239952Y225267D01*
X239855Y225296D01*
X239759Y225328D01*
X239665Y225365D01*
X239572Y225405D01*
X239480Y225449D01*
X239391Y225496D01*
X239303Y225547D01*
X239217Y225601D01*
X239134Y225658D01*
X239052Y225718D01*
X238974Y225782D01*
X238897Y225848D01*
X238824Y225918D01*
X238753Y225990D01*
X238685Y226065D01*
X238620Y226143D01*
X238558Y226223D01*
X238499Y226305D01*
X238443Y226390D01*
X238391Y226477D01*
X238342Y226565D01*
X238296Y226656D01*
X238255Y226748D01*
X238216Y226842D01*
X238182Y226937D01*
X238151Y227033D01*
X238124Y227131D01*
X238100Y227229D01*
X238081Y227329D01*
X238065Y227429D01*
X238053Y227529D01*
X238045Y227630D01*
X238041Y227731D01*
X238041Y227833D01*
X238045Y227934D01*
X238053Y228035D01*
X238065Y228135D01*
X238081Y228235D01*
X238100Y228335D01*
X238124Y228433D01*
X238151Y228531D01*
X238182Y228627D01*
X238216Y228722D01*
X238255Y228816D01*
X238296Y228908D01*
X238342Y228999D01*
X238391Y229088D01*
X238443Y229174D01*
X238499Y229259D01*
X238558Y229341D01*
X238620Y229421D01*
X238685Y229499D01*
X238753Y229574D01*
X238824Y229646D01*
X238897Y229716D01*
X238974Y229782D01*
X239052Y229846D01*
X239134Y229906D01*
X239217Y229963D01*
X239303Y230017D01*
X239391Y230068D01*
X239480Y230115D01*
X239572Y230159D01*
X239665Y230199D01*
X239759Y230236D01*
X239855Y230268D01*
X239952Y230297D01*
X240050Y230323D01*
X240149Y230344D01*
X240249Y230362D01*
X240349Y230375D01*
X240450Y230385D01*
X240551Y230391D01*
X240652Y230393D01*
X240129Y234569D02*
X243262Y234569D01*
X240129Y234569D02*
X240039Y234567D01*
X239950Y234561D01*
X239860Y234552D01*
X239771Y234538D01*
X239683Y234521D01*
X239596Y234500D01*
X239509Y234475D01*
X239424Y234446D01*
X239340Y234414D01*
X239258Y234379D01*
X239177Y234339D01*
X239098Y234297D01*
X239021Y234251D01*
X238946Y234201D01*
X238873Y234149D01*
X238802Y234093D01*
X238734Y234035D01*
X238669Y233973D01*
X238606Y233909D01*
X238546Y233842D01*
X238489Y233773D01*
X238435Y233701D01*
X238384Y233627D01*
X238336Y233551D01*
X238292Y233473D01*
X238251Y233393D01*
X238213Y233311D01*
X238179Y233228D01*
X238149Y233143D01*
X238122Y233057D01*
X238099Y232971D01*
X238080Y232883D01*
X238065Y232794D01*
X238053Y232705D01*
X238045Y232616D01*
X238041Y232526D01*
X238041Y232436D01*
X238045Y232346D01*
X238053Y232257D01*
X238065Y232168D01*
X238080Y232079D01*
X238099Y231991D01*
X238122Y231905D01*
X238149Y231819D01*
X238179Y231734D01*
X238213Y231651D01*
X238251Y231569D01*
X238292Y231489D01*
X238336Y231411D01*
X238384Y231335D01*
X238435Y231261D01*
X238489Y231189D01*
X238546Y231120D01*
X238606Y231053D01*
X238669Y230989D01*
X238734Y230927D01*
X238802Y230869D01*
X238873Y230813D01*
X238946Y230761D01*
X239021Y230711D01*
X239098Y230665D01*
X239177Y230623D01*
X239258Y230583D01*
X239340Y230548D01*
X239424Y230516D01*
X239509Y230487D01*
X239596Y230462D01*
X239683Y230441D01*
X239771Y230424D01*
X239860Y230410D01*
X239950Y230401D01*
X240039Y230395D01*
X240129Y230393D01*
X240129Y230392D02*
X242218Y230392D01*
X254719Y682371D02*
X254719Y691769D01*
X252108Y691769D01*
X252007Y691767D01*
X251906Y691761D01*
X251805Y691751D01*
X251705Y691738D01*
X251605Y691720D01*
X251506Y691699D01*
X251408Y691673D01*
X251311Y691644D01*
X251215Y691612D01*
X251121Y691575D01*
X251028Y691535D01*
X250936Y691491D01*
X250847Y691444D01*
X250759Y691393D01*
X250673Y691339D01*
X250590Y691282D01*
X250508Y691222D01*
X250430Y691158D01*
X250353Y691092D01*
X250280Y691022D01*
X250209Y690950D01*
X250141Y690875D01*
X250076Y690797D01*
X250014Y690717D01*
X249955Y690635D01*
X249899Y690550D01*
X249847Y690464D01*
X249798Y690375D01*
X249752Y690284D01*
X249711Y690192D01*
X249672Y690098D01*
X249638Y690003D01*
X249607Y689907D01*
X249580Y689809D01*
X249556Y689711D01*
X249537Y689611D01*
X249521Y689511D01*
X249509Y689411D01*
X249501Y689310D01*
X249497Y689209D01*
X249497Y689107D01*
X249501Y689006D01*
X249509Y688905D01*
X249521Y688805D01*
X249537Y688705D01*
X249556Y688605D01*
X249580Y688507D01*
X249607Y688409D01*
X249638Y688313D01*
X249672Y688218D01*
X249711Y688124D01*
X249752Y688032D01*
X249798Y687941D01*
X249847Y687853D01*
X249899Y687766D01*
X249955Y687681D01*
X250014Y687599D01*
X250076Y687519D01*
X250141Y687441D01*
X250209Y687366D01*
X250280Y687294D01*
X250353Y687224D01*
X250430Y687158D01*
X250508Y687094D01*
X250590Y687034D01*
X250673Y686977D01*
X250759Y686923D01*
X250847Y686872D01*
X250936Y686825D01*
X251028Y686781D01*
X251121Y686741D01*
X251215Y686704D01*
X251311Y686672D01*
X251408Y686643D01*
X251506Y686617D01*
X251605Y686596D01*
X251705Y686578D01*
X251805Y686565D01*
X251906Y686555D01*
X252007Y686549D01*
X252108Y686547D01*
X252108Y686548D02*
X254719Y686548D01*
X251586Y686548D02*
X249498Y682371D01*
X245632Y684459D02*
X243544Y691769D01*
X245632Y684459D02*
X240411Y684459D01*
X241977Y686548D02*
X241977Y682371D01*
X221699Y671449D02*
X221699Y662051D01*
X221699Y671449D02*
X219088Y671449D01*
X218987Y671447D01*
X218886Y671441D01*
X218785Y671431D01*
X218685Y671418D01*
X218585Y671400D01*
X218486Y671379D01*
X218388Y671353D01*
X218291Y671324D01*
X218195Y671292D01*
X218101Y671255D01*
X218008Y671215D01*
X217916Y671171D01*
X217827Y671124D01*
X217739Y671073D01*
X217653Y671019D01*
X217570Y670962D01*
X217488Y670902D01*
X217410Y670838D01*
X217333Y670772D01*
X217260Y670702D01*
X217189Y670630D01*
X217121Y670555D01*
X217056Y670477D01*
X216994Y670397D01*
X216935Y670315D01*
X216879Y670230D01*
X216827Y670144D01*
X216778Y670055D01*
X216732Y669964D01*
X216691Y669872D01*
X216652Y669778D01*
X216618Y669683D01*
X216587Y669587D01*
X216560Y669489D01*
X216536Y669391D01*
X216517Y669291D01*
X216501Y669191D01*
X216489Y669091D01*
X216481Y668990D01*
X216477Y668889D01*
X216477Y668787D01*
X216481Y668686D01*
X216489Y668585D01*
X216501Y668485D01*
X216517Y668385D01*
X216536Y668285D01*
X216560Y668187D01*
X216587Y668089D01*
X216618Y667993D01*
X216652Y667898D01*
X216691Y667804D01*
X216732Y667712D01*
X216778Y667621D01*
X216827Y667533D01*
X216879Y667446D01*
X216935Y667361D01*
X216994Y667279D01*
X217056Y667199D01*
X217121Y667121D01*
X217189Y667046D01*
X217260Y666974D01*
X217333Y666904D01*
X217410Y666838D01*
X217488Y666774D01*
X217570Y666714D01*
X217653Y666657D01*
X217739Y666603D01*
X217827Y666552D01*
X217916Y666505D01*
X218008Y666461D01*
X218101Y666421D01*
X218195Y666384D01*
X218291Y666352D01*
X218388Y666323D01*
X218486Y666297D01*
X218585Y666276D01*
X218685Y666258D01*
X218785Y666245D01*
X218886Y666235D01*
X218987Y666229D01*
X219088Y666227D01*
X219088Y666228D02*
X221699Y666228D01*
X218566Y666228D02*
X216478Y662051D01*
X212612Y662051D02*
X209479Y662051D01*
X209390Y662053D01*
X209302Y662059D01*
X209214Y662068D01*
X209126Y662081D01*
X209039Y662098D01*
X208953Y662118D01*
X208868Y662143D01*
X208783Y662170D01*
X208700Y662202D01*
X208619Y662236D01*
X208539Y662275D01*
X208461Y662316D01*
X208384Y662361D01*
X208310Y662409D01*
X208237Y662460D01*
X208167Y662514D01*
X208100Y662572D01*
X208034Y662632D01*
X207972Y662694D01*
X207912Y662760D01*
X207854Y662827D01*
X207800Y662897D01*
X207749Y662970D01*
X207701Y663044D01*
X207656Y663121D01*
X207615Y663199D01*
X207576Y663279D01*
X207542Y663360D01*
X207510Y663443D01*
X207483Y663528D01*
X207458Y663613D01*
X207438Y663699D01*
X207421Y663786D01*
X207408Y663874D01*
X207399Y663962D01*
X207393Y664050D01*
X207391Y664139D01*
X207391Y665184D01*
X207393Y665273D01*
X207399Y665361D01*
X207408Y665449D01*
X207421Y665537D01*
X207438Y665624D01*
X207458Y665710D01*
X207483Y665795D01*
X207510Y665880D01*
X207542Y665963D01*
X207576Y666044D01*
X207615Y666124D01*
X207656Y666202D01*
X207701Y666279D01*
X207749Y666353D01*
X207800Y666426D01*
X207854Y666496D01*
X207912Y666563D01*
X207972Y666629D01*
X208034Y666691D01*
X208100Y666751D01*
X208167Y666809D01*
X208237Y666863D01*
X208310Y666914D01*
X208384Y666962D01*
X208461Y667007D01*
X208539Y667048D01*
X208619Y667087D01*
X208700Y667121D01*
X208783Y667153D01*
X208868Y667180D01*
X208953Y667205D01*
X209039Y667225D01*
X209126Y667242D01*
X209214Y667255D01*
X209302Y667264D01*
X209390Y667270D01*
X209479Y667272D01*
X212612Y667272D01*
X212612Y671449D01*
X207391Y671449D01*
X231859Y613029D02*
X231859Y603631D01*
X231859Y613029D02*
X229248Y613029D01*
X229147Y613027D01*
X229046Y613021D01*
X228945Y613011D01*
X228845Y612998D01*
X228745Y612980D01*
X228646Y612959D01*
X228548Y612933D01*
X228451Y612904D01*
X228355Y612872D01*
X228261Y612835D01*
X228168Y612795D01*
X228076Y612751D01*
X227987Y612704D01*
X227899Y612653D01*
X227813Y612599D01*
X227730Y612542D01*
X227648Y612482D01*
X227570Y612418D01*
X227493Y612352D01*
X227420Y612282D01*
X227349Y612210D01*
X227281Y612135D01*
X227216Y612057D01*
X227154Y611977D01*
X227095Y611895D01*
X227039Y611810D01*
X226987Y611724D01*
X226938Y611635D01*
X226892Y611544D01*
X226851Y611452D01*
X226812Y611358D01*
X226778Y611263D01*
X226747Y611167D01*
X226720Y611069D01*
X226696Y610971D01*
X226677Y610871D01*
X226661Y610771D01*
X226649Y610671D01*
X226641Y610570D01*
X226637Y610469D01*
X226637Y610367D01*
X226641Y610266D01*
X226649Y610165D01*
X226661Y610065D01*
X226677Y609965D01*
X226696Y609865D01*
X226720Y609767D01*
X226747Y609669D01*
X226778Y609573D01*
X226812Y609478D01*
X226851Y609384D01*
X226892Y609292D01*
X226938Y609201D01*
X226987Y609113D01*
X227039Y609026D01*
X227095Y608941D01*
X227154Y608859D01*
X227216Y608779D01*
X227281Y608701D01*
X227349Y608626D01*
X227420Y608554D01*
X227493Y608484D01*
X227570Y608418D01*
X227648Y608354D01*
X227730Y608294D01*
X227813Y608237D01*
X227899Y608183D01*
X227987Y608132D01*
X228076Y608085D01*
X228168Y608041D01*
X228261Y608001D01*
X228355Y607964D01*
X228451Y607932D01*
X228548Y607903D01*
X228646Y607877D01*
X228745Y607856D01*
X228845Y607838D01*
X228945Y607825D01*
X229046Y607815D01*
X229147Y607809D01*
X229248Y607807D01*
X229248Y607808D02*
X231859Y607808D01*
X228726Y607808D02*
X226638Y603631D01*
X222772Y608852D02*
X219639Y608852D01*
X219550Y608850D01*
X219462Y608844D01*
X219374Y608835D01*
X219286Y608822D01*
X219199Y608805D01*
X219113Y608785D01*
X219028Y608760D01*
X218943Y608733D01*
X218860Y608701D01*
X218779Y608667D01*
X218699Y608628D01*
X218621Y608587D01*
X218544Y608542D01*
X218470Y608494D01*
X218397Y608443D01*
X218327Y608389D01*
X218260Y608331D01*
X218194Y608271D01*
X218132Y608209D01*
X218072Y608143D01*
X218014Y608076D01*
X217960Y608006D01*
X217909Y607933D01*
X217861Y607859D01*
X217816Y607782D01*
X217775Y607704D01*
X217736Y607624D01*
X217702Y607543D01*
X217670Y607460D01*
X217643Y607375D01*
X217618Y607290D01*
X217598Y607204D01*
X217581Y607117D01*
X217568Y607029D01*
X217559Y606941D01*
X217553Y606853D01*
X217551Y606764D01*
X217551Y606242D01*
X217553Y606141D01*
X217559Y606040D01*
X217569Y605939D01*
X217582Y605839D01*
X217600Y605739D01*
X217621Y605640D01*
X217647Y605542D01*
X217676Y605445D01*
X217708Y605349D01*
X217745Y605255D01*
X217785Y605162D01*
X217829Y605070D01*
X217876Y604981D01*
X217927Y604893D01*
X217981Y604807D01*
X218038Y604724D01*
X218098Y604642D01*
X218162Y604564D01*
X218228Y604487D01*
X218298Y604414D01*
X218370Y604343D01*
X218445Y604275D01*
X218523Y604210D01*
X218603Y604148D01*
X218685Y604089D01*
X218770Y604033D01*
X218857Y603981D01*
X218945Y603932D01*
X219036Y603886D01*
X219128Y603845D01*
X219222Y603806D01*
X219317Y603772D01*
X219413Y603741D01*
X219511Y603714D01*
X219609Y603690D01*
X219709Y603671D01*
X219809Y603655D01*
X219909Y603643D01*
X220010Y603635D01*
X220111Y603631D01*
X220213Y603631D01*
X220314Y603635D01*
X220415Y603643D01*
X220515Y603655D01*
X220615Y603671D01*
X220715Y603690D01*
X220813Y603714D01*
X220911Y603741D01*
X221007Y603772D01*
X221102Y603806D01*
X221196Y603845D01*
X221288Y603886D01*
X221379Y603932D01*
X221467Y603981D01*
X221554Y604033D01*
X221639Y604089D01*
X221721Y604148D01*
X221801Y604210D01*
X221879Y604275D01*
X221954Y604343D01*
X222026Y604414D01*
X222096Y604487D01*
X222162Y604564D01*
X222226Y604642D01*
X222286Y604724D01*
X222343Y604807D01*
X222397Y604893D01*
X222448Y604981D01*
X222495Y605070D01*
X222539Y605162D01*
X222579Y605255D01*
X222616Y605349D01*
X222648Y605445D01*
X222677Y605542D01*
X222703Y605640D01*
X222724Y605739D01*
X222742Y605839D01*
X222755Y605939D01*
X222765Y606040D01*
X222771Y606141D01*
X222773Y606242D01*
X222772Y606242D02*
X222772Y608852D01*
X222770Y608978D01*
X222764Y609104D01*
X222755Y609230D01*
X222742Y609355D01*
X222724Y609480D01*
X222704Y609605D01*
X222679Y609729D01*
X222651Y609852D01*
X222619Y609974D01*
X222583Y610095D01*
X222544Y610215D01*
X222501Y610333D01*
X222454Y610450D01*
X222404Y610566D01*
X222350Y610681D01*
X222294Y610793D01*
X222233Y610904D01*
X222170Y611013D01*
X222103Y611120D01*
X222033Y611225D01*
X221959Y611328D01*
X221883Y611428D01*
X221804Y611526D01*
X221722Y611622D01*
X221636Y611715D01*
X221549Y611806D01*
X221458Y611893D01*
X221365Y611979D01*
X221269Y612061D01*
X221171Y612140D01*
X221071Y612216D01*
X220968Y612290D01*
X220863Y612360D01*
X220756Y612427D01*
X220647Y612490D01*
X220536Y612551D01*
X220424Y612607D01*
X220309Y612661D01*
X220193Y612711D01*
X220076Y612758D01*
X219958Y612801D01*
X219838Y612840D01*
X219717Y612876D01*
X219595Y612908D01*
X219472Y612936D01*
X219348Y612961D01*
X219223Y612981D01*
X219098Y612999D01*
X218973Y613012D01*
X218847Y613021D01*
X218721Y613027D01*
X218595Y613029D01*
X252179Y631571D02*
X252179Y640969D01*
X249568Y640969D01*
X249467Y640967D01*
X249366Y640961D01*
X249265Y640951D01*
X249165Y640938D01*
X249065Y640920D01*
X248966Y640899D01*
X248868Y640873D01*
X248771Y640844D01*
X248675Y640812D01*
X248581Y640775D01*
X248488Y640735D01*
X248396Y640691D01*
X248307Y640644D01*
X248219Y640593D01*
X248133Y640539D01*
X248050Y640482D01*
X247968Y640422D01*
X247890Y640358D01*
X247813Y640292D01*
X247740Y640222D01*
X247669Y640150D01*
X247601Y640075D01*
X247536Y639997D01*
X247474Y639917D01*
X247415Y639835D01*
X247359Y639750D01*
X247307Y639664D01*
X247258Y639575D01*
X247212Y639484D01*
X247171Y639392D01*
X247132Y639298D01*
X247098Y639203D01*
X247067Y639107D01*
X247040Y639009D01*
X247016Y638911D01*
X246997Y638811D01*
X246981Y638711D01*
X246969Y638611D01*
X246961Y638510D01*
X246957Y638409D01*
X246957Y638307D01*
X246961Y638206D01*
X246969Y638105D01*
X246981Y638005D01*
X246997Y637905D01*
X247016Y637805D01*
X247040Y637707D01*
X247067Y637609D01*
X247098Y637513D01*
X247132Y637418D01*
X247171Y637324D01*
X247212Y637232D01*
X247258Y637141D01*
X247307Y637053D01*
X247359Y636966D01*
X247415Y636881D01*
X247474Y636799D01*
X247536Y636719D01*
X247601Y636641D01*
X247669Y636566D01*
X247740Y636494D01*
X247813Y636424D01*
X247890Y636358D01*
X247968Y636294D01*
X248050Y636234D01*
X248133Y636177D01*
X248219Y636123D01*
X248307Y636072D01*
X248396Y636025D01*
X248488Y635981D01*
X248581Y635941D01*
X248675Y635904D01*
X248771Y635872D01*
X248868Y635843D01*
X248966Y635817D01*
X249065Y635796D01*
X249165Y635778D01*
X249265Y635765D01*
X249366Y635755D01*
X249467Y635749D01*
X249568Y635747D01*
X249568Y635748D02*
X252179Y635748D01*
X249046Y635748D02*
X246958Y631571D01*
X243092Y639925D02*
X243092Y640969D01*
X237871Y640969D01*
X240482Y631571D01*
X237109Y281221D02*
X227711Y281221D01*
X237109Y281221D02*
X237109Y283832D01*
X237107Y283933D01*
X237101Y284034D01*
X237091Y284135D01*
X237078Y284235D01*
X237060Y284335D01*
X237039Y284434D01*
X237013Y284532D01*
X236984Y284629D01*
X236952Y284725D01*
X236915Y284819D01*
X236875Y284912D01*
X236831Y285004D01*
X236784Y285093D01*
X236733Y285181D01*
X236679Y285267D01*
X236622Y285350D01*
X236562Y285432D01*
X236498Y285510D01*
X236432Y285587D01*
X236362Y285660D01*
X236290Y285731D01*
X236215Y285799D01*
X236137Y285864D01*
X236057Y285926D01*
X235975Y285985D01*
X235890Y286041D01*
X235804Y286093D01*
X235715Y286142D01*
X235624Y286188D01*
X235532Y286229D01*
X235438Y286268D01*
X235343Y286302D01*
X235247Y286333D01*
X235149Y286360D01*
X235051Y286384D01*
X234951Y286403D01*
X234851Y286419D01*
X234751Y286431D01*
X234650Y286439D01*
X234549Y286443D01*
X234447Y286443D01*
X234346Y286439D01*
X234245Y286431D01*
X234145Y286419D01*
X234045Y286403D01*
X233945Y286384D01*
X233847Y286360D01*
X233749Y286333D01*
X233653Y286302D01*
X233558Y286268D01*
X233464Y286229D01*
X233372Y286188D01*
X233281Y286142D01*
X233193Y286093D01*
X233106Y286041D01*
X233021Y285985D01*
X232939Y285926D01*
X232859Y285864D01*
X232781Y285799D01*
X232706Y285731D01*
X232634Y285660D01*
X232564Y285587D01*
X232498Y285510D01*
X232434Y285432D01*
X232374Y285350D01*
X232317Y285267D01*
X232263Y285181D01*
X232212Y285093D01*
X232165Y285004D01*
X232121Y284912D01*
X232081Y284819D01*
X232044Y284725D01*
X232012Y284629D01*
X231983Y284532D01*
X231957Y284434D01*
X231936Y284335D01*
X231918Y284235D01*
X231905Y284135D01*
X231895Y284034D01*
X231889Y283933D01*
X231887Y283832D01*
X231888Y283832D02*
X231888Y281221D01*
X231888Y284354D02*
X227711Y286442D01*
X230322Y290307D02*
X230423Y290309D01*
X230524Y290315D01*
X230625Y290325D01*
X230725Y290338D01*
X230825Y290356D01*
X230924Y290377D01*
X231022Y290403D01*
X231119Y290432D01*
X231215Y290464D01*
X231309Y290501D01*
X231402Y290541D01*
X231494Y290585D01*
X231583Y290632D01*
X231671Y290683D01*
X231757Y290737D01*
X231840Y290794D01*
X231922Y290854D01*
X232000Y290918D01*
X232077Y290984D01*
X232150Y291054D01*
X232221Y291126D01*
X232289Y291201D01*
X232354Y291279D01*
X232416Y291359D01*
X232475Y291441D01*
X232531Y291526D01*
X232583Y291613D01*
X232632Y291701D01*
X232678Y291792D01*
X232719Y291884D01*
X232758Y291978D01*
X232792Y292073D01*
X232823Y292169D01*
X232850Y292267D01*
X232874Y292365D01*
X232893Y292465D01*
X232909Y292565D01*
X232921Y292665D01*
X232929Y292766D01*
X232933Y292867D01*
X232933Y292969D01*
X232929Y293070D01*
X232921Y293171D01*
X232909Y293271D01*
X232893Y293371D01*
X232874Y293471D01*
X232850Y293569D01*
X232823Y293667D01*
X232792Y293763D01*
X232758Y293858D01*
X232719Y293952D01*
X232678Y294044D01*
X232632Y294135D01*
X232583Y294223D01*
X232531Y294310D01*
X232475Y294395D01*
X232416Y294477D01*
X232354Y294557D01*
X232289Y294635D01*
X232221Y294710D01*
X232150Y294782D01*
X232077Y294852D01*
X232000Y294918D01*
X231922Y294982D01*
X231840Y295042D01*
X231757Y295099D01*
X231671Y295153D01*
X231583Y295204D01*
X231494Y295251D01*
X231402Y295295D01*
X231309Y295335D01*
X231215Y295372D01*
X231119Y295404D01*
X231022Y295433D01*
X230924Y295459D01*
X230825Y295480D01*
X230725Y295498D01*
X230625Y295511D01*
X230524Y295521D01*
X230423Y295527D01*
X230322Y295529D01*
X230221Y295527D01*
X230120Y295521D01*
X230019Y295511D01*
X229919Y295498D01*
X229819Y295480D01*
X229720Y295459D01*
X229622Y295433D01*
X229525Y295404D01*
X229429Y295372D01*
X229335Y295335D01*
X229242Y295295D01*
X229150Y295251D01*
X229061Y295204D01*
X228973Y295153D01*
X228887Y295099D01*
X228804Y295042D01*
X228722Y294982D01*
X228644Y294918D01*
X228567Y294852D01*
X228494Y294782D01*
X228423Y294710D01*
X228355Y294635D01*
X228290Y294557D01*
X228228Y294477D01*
X228169Y294395D01*
X228113Y294310D01*
X228061Y294224D01*
X228012Y294135D01*
X227966Y294044D01*
X227925Y293952D01*
X227886Y293858D01*
X227852Y293763D01*
X227821Y293667D01*
X227794Y293569D01*
X227770Y293471D01*
X227751Y293371D01*
X227735Y293271D01*
X227723Y293171D01*
X227715Y293070D01*
X227711Y292969D01*
X227711Y292867D01*
X227715Y292766D01*
X227723Y292665D01*
X227735Y292565D01*
X227751Y292465D01*
X227770Y292365D01*
X227794Y292267D01*
X227821Y292169D01*
X227852Y292073D01*
X227886Y291978D01*
X227925Y291884D01*
X227966Y291792D01*
X228012Y291701D01*
X228061Y291613D01*
X228113Y291526D01*
X228169Y291441D01*
X228228Y291359D01*
X228290Y291279D01*
X228355Y291201D01*
X228423Y291126D01*
X228494Y291054D01*
X228567Y290984D01*
X228644Y290918D01*
X228722Y290854D01*
X228804Y290794D01*
X228887Y290737D01*
X228973Y290683D01*
X229061Y290632D01*
X229150Y290585D01*
X229242Y290541D01*
X229335Y290501D01*
X229429Y290464D01*
X229525Y290432D01*
X229622Y290403D01*
X229720Y290377D01*
X229819Y290356D01*
X229919Y290338D01*
X230019Y290325D01*
X230120Y290315D01*
X230221Y290309D01*
X230322Y290307D01*
X235021Y290830D02*
X235111Y290832D01*
X235200Y290838D01*
X235290Y290847D01*
X235379Y290861D01*
X235467Y290878D01*
X235554Y290899D01*
X235641Y290924D01*
X235726Y290953D01*
X235810Y290985D01*
X235892Y291020D01*
X235973Y291060D01*
X236052Y291102D01*
X236129Y291148D01*
X236204Y291198D01*
X236277Y291250D01*
X236348Y291306D01*
X236416Y291364D01*
X236481Y291426D01*
X236544Y291490D01*
X236604Y291557D01*
X236661Y291626D01*
X236715Y291698D01*
X236766Y291772D01*
X236814Y291848D01*
X236858Y291926D01*
X236899Y292006D01*
X236937Y292088D01*
X236971Y292171D01*
X237001Y292256D01*
X237028Y292342D01*
X237051Y292428D01*
X237070Y292516D01*
X237085Y292605D01*
X237097Y292694D01*
X237105Y292783D01*
X237109Y292873D01*
X237109Y292963D01*
X237105Y293053D01*
X237097Y293142D01*
X237085Y293231D01*
X237070Y293320D01*
X237051Y293408D01*
X237028Y293494D01*
X237001Y293580D01*
X236971Y293665D01*
X236937Y293748D01*
X236899Y293830D01*
X236858Y293910D01*
X236814Y293988D01*
X236766Y294064D01*
X236715Y294138D01*
X236661Y294210D01*
X236604Y294279D01*
X236544Y294346D01*
X236481Y294410D01*
X236416Y294472D01*
X236348Y294530D01*
X236277Y294586D01*
X236204Y294638D01*
X236129Y294688D01*
X236052Y294734D01*
X235973Y294776D01*
X235892Y294816D01*
X235810Y294851D01*
X235726Y294883D01*
X235641Y294912D01*
X235554Y294937D01*
X235467Y294958D01*
X235379Y294975D01*
X235290Y294989D01*
X235200Y294998D01*
X235111Y295004D01*
X235021Y295006D01*
X234931Y295004D01*
X234842Y294998D01*
X234752Y294989D01*
X234663Y294975D01*
X234575Y294958D01*
X234488Y294937D01*
X234401Y294912D01*
X234316Y294883D01*
X234232Y294851D01*
X234150Y294816D01*
X234069Y294776D01*
X233990Y294734D01*
X233913Y294688D01*
X233838Y294638D01*
X233765Y294586D01*
X233694Y294530D01*
X233626Y294472D01*
X233561Y294410D01*
X233498Y294346D01*
X233438Y294279D01*
X233381Y294210D01*
X233327Y294138D01*
X233276Y294064D01*
X233228Y293988D01*
X233184Y293910D01*
X233143Y293830D01*
X233105Y293748D01*
X233071Y293665D01*
X233041Y293580D01*
X233014Y293494D01*
X232991Y293408D01*
X232972Y293320D01*
X232957Y293231D01*
X232945Y293142D01*
X232937Y293053D01*
X232933Y292963D01*
X232933Y292873D01*
X232937Y292783D01*
X232945Y292694D01*
X232957Y292605D01*
X232972Y292516D01*
X232991Y292428D01*
X233014Y292342D01*
X233041Y292256D01*
X233071Y292171D01*
X233105Y292088D01*
X233143Y292006D01*
X233184Y291926D01*
X233228Y291848D01*
X233276Y291772D01*
X233327Y291698D01*
X233381Y291626D01*
X233438Y291557D01*
X233498Y291490D01*
X233561Y291426D01*
X233626Y291364D01*
X233694Y291306D01*
X233765Y291250D01*
X233838Y291198D01*
X233913Y291148D01*
X233990Y291102D01*
X234069Y291060D01*
X234150Y291020D01*
X234232Y290985D01*
X234316Y290953D01*
X234401Y290924D01*
X234488Y290899D01*
X234575Y290878D01*
X234663Y290861D01*
X234752Y290847D01*
X234842Y290838D01*
X234931Y290832D01*
X235021Y290830D01*
X216619Y557911D02*
X216619Y567309D01*
X214008Y567309D01*
X213907Y567307D01*
X213806Y567301D01*
X213705Y567291D01*
X213605Y567278D01*
X213505Y567260D01*
X213406Y567239D01*
X213308Y567213D01*
X213211Y567184D01*
X213115Y567152D01*
X213021Y567115D01*
X212928Y567075D01*
X212836Y567031D01*
X212747Y566984D01*
X212659Y566933D01*
X212573Y566879D01*
X212490Y566822D01*
X212408Y566762D01*
X212330Y566698D01*
X212253Y566632D01*
X212180Y566562D01*
X212109Y566490D01*
X212041Y566415D01*
X211976Y566337D01*
X211914Y566257D01*
X211855Y566175D01*
X211799Y566090D01*
X211747Y566004D01*
X211698Y565915D01*
X211652Y565824D01*
X211611Y565732D01*
X211572Y565638D01*
X211538Y565543D01*
X211507Y565447D01*
X211480Y565349D01*
X211456Y565251D01*
X211437Y565151D01*
X211421Y565051D01*
X211409Y564951D01*
X211401Y564850D01*
X211397Y564749D01*
X211397Y564647D01*
X211401Y564546D01*
X211409Y564445D01*
X211421Y564345D01*
X211437Y564245D01*
X211456Y564145D01*
X211480Y564047D01*
X211507Y563949D01*
X211538Y563853D01*
X211572Y563758D01*
X211611Y563664D01*
X211652Y563572D01*
X211698Y563481D01*
X211747Y563393D01*
X211799Y563306D01*
X211855Y563221D01*
X211914Y563139D01*
X211976Y563059D01*
X212041Y562981D01*
X212109Y562906D01*
X212180Y562834D01*
X212253Y562764D01*
X212330Y562698D01*
X212408Y562634D01*
X212490Y562574D01*
X212573Y562517D01*
X212659Y562463D01*
X212747Y562412D01*
X212836Y562365D01*
X212928Y562321D01*
X213021Y562281D01*
X213115Y562244D01*
X213211Y562212D01*
X213308Y562183D01*
X213406Y562157D01*
X213505Y562136D01*
X213605Y562118D01*
X213705Y562105D01*
X213806Y562095D01*
X213907Y562089D01*
X214008Y562087D01*
X214008Y562088D02*
X216619Y562088D01*
X213486Y562088D02*
X211398Y557911D01*
X205444Y562088D02*
X202311Y562088D01*
X205444Y562088D02*
X205533Y562090D01*
X205621Y562096D01*
X205709Y562105D01*
X205797Y562118D01*
X205884Y562135D01*
X205970Y562155D01*
X206055Y562180D01*
X206140Y562207D01*
X206223Y562239D01*
X206304Y562273D01*
X206384Y562312D01*
X206462Y562353D01*
X206539Y562398D01*
X206613Y562446D01*
X206686Y562497D01*
X206756Y562551D01*
X206823Y562609D01*
X206889Y562669D01*
X206951Y562731D01*
X207011Y562797D01*
X207069Y562864D01*
X207123Y562934D01*
X207174Y563007D01*
X207222Y563081D01*
X207267Y563158D01*
X207308Y563236D01*
X207347Y563316D01*
X207381Y563397D01*
X207413Y563480D01*
X207440Y563565D01*
X207465Y563650D01*
X207485Y563736D01*
X207502Y563823D01*
X207515Y563911D01*
X207524Y563999D01*
X207530Y564087D01*
X207532Y564176D01*
X207532Y564698D01*
X207533Y564698D02*
X207531Y564799D01*
X207525Y564900D01*
X207515Y565001D01*
X207502Y565101D01*
X207484Y565201D01*
X207463Y565300D01*
X207437Y565398D01*
X207408Y565495D01*
X207376Y565591D01*
X207339Y565685D01*
X207299Y565778D01*
X207255Y565870D01*
X207208Y565959D01*
X207157Y566047D01*
X207103Y566133D01*
X207046Y566216D01*
X206986Y566298D01*
X206922Y566376D01*
X206856Y566453D01*
X206786Y566526D01*
X206714Y566597D01*
X206639Y566665D01*
X206561Y566730D01*
X206481Y566792D01*
X206399Y566851D01*
X206314Y566907D01*
X206228Y566959D01*
X206139Y567008D01*
X206048Y567054D01*
X205956Y567095D01*
X205862Y567134D01*
X205767Y567168D01*
X205671Y567199D01*
X205573Y567226D01*
X205475Y567250D01*
X205375Y567269D01*
X205275Y567285D01*
X205175Y567297D01*
X205074Y567305D01*
X204973Y567309D01*
X204871Y567309D01*
X204770Y567305D01*
X204669Y567297D01*
X204569Y567285D01*
X204469Y567269D01*
X204369Y567250D01*
X204271Y567226D01*
X204173Y567199D01*
X204077Y567168D01*
X203982Y567134D01*
X203888Y567095D01*
X203796Y567054D01*
X203705Y567008D01*
X203617Y566959D01*
X203530Y566907D01*
X203445Y566851D01*
X203363Y566792D01*
X203283Y566730D01*
X203205Y566665D01*
X203130Y566597D01*
X203058Y566526D01*
X202988Y566453D01*
X202922Y566376D01*
X202858Y566298D01*
X202798Y566216D01*
X202741Y566133D01*
X202687Y566047D01*
X202636Y565959D01*
X202589Y565870D01*
X202545Y565778D01*
X202505Y565685D01*
X202468Y565591D01*
X202436Y565495D01*
X202407Y565398D01*
X202381Y565300D01*
X202360Y565201D01*
X202342Y565101D01*
X202329Y565001D01*
X202319Y564900D01*
X202313Y564799D01*
X202311Y564698D01*
X202311Y562088D01*
X202313Y561962D01*
X202319Y561836D01*
X202328Y561710D01*
X202341Y561585D01*
X202359Y561460D01*
X202379Y561335D01*
X202404Y561211D01*
X202432Y561088D01*
X202464Y560966D01*
X202500Y560845D01*
X202539Y560725D01*
X202582Y560607D01*
X202629Y560490D01*
X202679Y560374D01*
X202733Y560259D01*
X202789Y560147D01*
X202850Y560036D01*
X202913Y559927D01*
X202980Y559820D01*
X203050Y559715D01*
X203124Y559612D01*
X203200Y559512D01*
X203279Y559414D01*
X203361Y559318D01*
X203447Y559225D01*
X203534Y559134D01*
X203625Y559047D01*
X203718Y558961D01*
X203814Y558879D01*
X203912Y558800D01*
X204012Y558724D01*
X204115Y558650D01*
X204220Y558580D01*
X204327Y558513D01*
X204436Y558450D01*
X204547Y558389D01*
X204659Y558333D01*
X204774Y558279D01*
X204890Y558229D01*
X205007Y558182D01*
X205125Y558139D01*
X205245Y558100D01*
X205366Y558064D01*
X205488Y558032D01*
X205611Y558004D01*
X205735Y557979D01*
X205860Y557959D01*
X205985Y557941D01*
X206110Y557928D01*
X206236Y557919D01*
X206362Y557913D01*
X206488Y557911D01*
X163449Y724197D02*
X154051Y724197D01*
X163449Y724197D02*
X163449Y726808D01*
X163447Y726909D01*
X163441Y727010D01*
X163431Y727111D01*
X163418Y727211D01*
X163400Y727311D01*
X163379Y727410D01*
X163353Y727508D01*
X163324Y727605D01*
X163292Y727701D01*
X163255Y727795D01*
X163215Y727888D01*
X163171Y727980D01*
X163124Y728069D01*
X163073Y728157D01*
X163019Y728243D01*
X162962Y728326D01*
X162902Y728408D01*
X162838Y728486D01*
X162772Y728563D01*
X162702Y728636D01*
X162630Y728707D01*
X162555Y728775D01*
X162477Y728840D01*
X162397Y728902D01*
X162315Y728961D01*
X162230Y729017D01*
X162144Y729069D01*
X162055Y729118D01*
X161964Y729164D01*
X161872Y729205D01*
X161778Y729244D01*
X161683Y729278D01*
X161587Y729309D01*
X161489Y729336D01*
X161391Y729360D01*
X161291Y729379D01*
X161191Y729395D01*
X161091Y729407D01*
X160990Y729415D01*
X160889Y729419D01*
X160787Y729419D01*
X160686Y729415D01*
X160585Y729407D01*
X160485Y729395D01*
X160385Y729379D01*
X160285Y729360D01*
X160187Y729336D01*
X160089Y729309D01*
X159993Y729278D01*
X159898Y729244D01*
X159804Y729205D01*
X159712Y729164D01*
X159621Y729118D01*
X159533Y729069D01*
X159446Y729017D01*
X159361Y728961D01*
X159279Y728902D01*
X159199Y728840D01*
X159121Y728775D01*
X159046Y728707D01*
X158974Y728636D01*
X158904Y728563D01*
X158838Y728486D01*
X158774Y728408D01*
X158714Y728326D01*
X158657Y728243D01*
X158603Y728157D01*
X158552Y728069D01*
X158505Y727980D01*
X158461Y727888D01*
X158421Y727795D01*
X158384Y727701D01*
X158352Y727605D01*
X158323Y727508D01*
X158297Y727410D01*
X158276Y727311D01*
X158258Y727211D01*
X158245Y727111D01*
X158235Y727010D01*
X158229Y726909D01*
X158227Y726808D01*
X158228Y726808D02*
X158228Y724197D01*
X158228Y727330D02*
X154051Y729418D01*
X161361Y733284D02*
X163449Y735894D01*
X154051Y735894D01*
X154051Y733284D02*
X154051Y738505D01*
X161100Y747650D02*
X161195Y747648D01*
X161289Y747642D01*
X161383Y747633D01*
X161477Y747620D01*
X161570Y747603D01*
X161662Y747582D01*
X161754Y747557D01*
X161844Y747529D01*
X161933Y747497D01*
X162021Y747462D01*
X162107Y747423D01*
X162192Y747381D01*
X162275Y747335D01*
X162356Y747286D01*
X162435Y747234D01*
X162512Y747179D01*
X162586Y747120D01*
X162658Y747059D01*
X162728Y746995D01*
X162795Y746928D01*
X162859Y746858D01*
X162920Y746786D01*
X162979Y746712D01*
X163034Y746635D01*
X163086Y746556D01*
X163135Y746475D01*
X163181Y746392D01*
X163223Y746307D01*
X163262Y746221D01*
X163297Y746133D01*
X163329Y746044D01*
X163357Y745954D01*
X163382Y745862D01*
X163403Y745770D01*
X163420Y745677D01*
X163433Y745583D01*
X163442Y745489D01*
X163448Y745395D01*
X163450Y745300D01*
X163449Y745300D02*
X163447Y745192D01*
X163441Y745083D01*
X163431Y744975D01*
X163418Y744868D01*
X163400Y744761D01*
X163379Y744654D01*
X163354Y744549D01*
X163325Y744444D01*
X163293Y744341D01*
X163256Y744239D01*
X163216Y744138D01*
X163173Y744039D01*
X163126Y743941D01*
X163075Y743845D01*
X163021Y743751D01*
X162964Y743659D01*
X162903Y743569D01*
X162839Y743481D01*
X162773Y743396D01*
X162703Y743313D01*
X162630Y743233D01*
X162554Y743155D01*
X162476Y743080D01*
X162395Y743008D01*
X162311Y742939D01*
X162225Y742873D01*
X162137Y742810D01*
X162046Y742751D01*
X161954Y742694D01*
X161859Y742641D01*
X161763Y742592D01*
X161664Y742546D01*
X161565Y742503D01*
X161463Y742464D01*
X161361Y742429D01*
X159272Y746866D02*
X159341Y746935D01*
X159412Y747001D01*
X159485Y747065D01*
X159561Y747126D01*
X159640Y747184D01*
X159720Y747238D01*
X159803Y747290D01*
X159887Y747338D01*
X159973Y747384D01*
X160061Y747425D01*
X160151Y747464D01*
X160242Y747499D01*
X160334Y747530D01*
X160427Y747558D01*
X160521Y747582D01*
X160616Y747602D01*
X160712Y747619D01*
X160809Y747632D01*
X160906Y747641D01*
X161003Y747647D01*
X161100Y747649D01*
X159272Y746866D02*
X154051Y742428D01*
X154051Y747649D01*
X138049Y724197D02*
X128651Y724197D01*
X138049Y724197D02*
X138049Y726808D01*
X138047Y726909D01*
X138041Y727010D01*
X138031Y727111D01*
X138018Y727211D01*
X138000Y727311D01*
X137979Y727410D01*
X137953Y727508D01*
X137924Y727605D01*
X137892Y727701D01*
X137855Y727795D01*
X137815Y727888D01*
X137771Y727980D01*
X137724Y728069D01*
X137673Y728157D01*
X137619Y728243D01*
X137562Y728326D01*
X137502Y728408D01*
X137438Y728486D01*
X137372Y728563D01*
X137302Y728636D01*
X137230Y728707D01*
X137155Y728775D01*
X137077Y728840D01*
X136997Y728902D01*
X136915Y728961D01*
X136830Y729017D01*
X136744Y729069D01*
X136655Y729118D01*
X136564Y729164D01*
X136472Y729205D01*
X136378Y729244D01*
X136283Y729278D01*
X136187Y729309D01*
X136089Y729336D01*
X135991Y729360D01*
X135891Y729379D01*
X135791Y729395D01*
X135691Y729407D01*
X135590Y729415D01*
X135489Y729419D01*
X135387Y729419D01*
X135286Y729415D01*
X135185Y729407D01*
X135085Y729395D01*
X134985Y729379D01*
X134885Y729360D01*
X134787Y729336D01*
X134689Y729309D01*
X134593Y729278D01*
X134498Y729244D01*
X134404Y729205D01*
X134312Y729164D01*
X134221Y729118D01*
X134133Y729069D01*
X134046Y729017D01*
X133961Y728961D01*
X133879Y728902D01*
X133799Y728840D01*
X133721Y728775D01*
X133646Y728707D01*
X133574Y728636D01*
X133504Y728563D01*
X133438Y728486D01*
X133374Y728408D01*
X133314Y728326D01*
X133257Y728243D01*
X133203Y728157D01*
X133152Y728069D01*
X133105Y727980D01*
X133061Y727888D01*
X133021Y727795D01*
X132984Y727701D01*
X132952Y727605D01*
X132923Y727508D01*
X132897Y727410D01*
X132876Y727311D01*
X132858Y727211D01*
X132845Y727111D01*
X132835Y727010D01*
X132829Y726909D01*
X132827Y726808D01*
X132828Y726808D02*
X132828Y724197D01*
X132828Y727330D02*
X128651Y729418D01*
X135961Y733284D02*
X138049Y735894D01*
X128651Y735894D01*
X128651Y733284D02*
X128651Y738505D01*
X128651Y742428D02*
X128651Y745038D01*
X128653Y745139D01*
X128659Y745240D01*
X128669Y745341D01*
X128682Y745441D01*
X128700Y745541D01*
X128721Y745640D01*
X128747Y745738D01*
X128776Y745835D01*
X128808Y745931D01*
X128845Y746025D01*
X128885Y746118D01*
X128929Y746210D01*
X128976Y746299D01*
X129027Y746387D01*
X129081Y746473D01*
X129138Y746556D01*
X129198Y746638D01*
X129262Y746716D01*
X129328Y746793D01*
X129398Y746866D01*
X129470Y746937D01*
X129545Y747005D01*
X129623Y747070D01*
X129703Y747132D01*
X129785Y747191D01*
X129870Y747247D01*
X129957Y747299D01*
X130045Y747348D01*
X130136Y747394D01*
X130228Y747435D01*
X130322Y747474D01*
X130417Y747508D01*
X130513Y747539D01*
X130611Y747566D01*
X130709Y747590D01*
X130809Y747609D01*
X130909Y747625D01*
X131009Y747637D01*
X131110Y747645D01*
X131211Y747649D01*
X131313Y747649D01*
X131414Y747645D01*
X131515Y747637D01*
X131615Y747625D01*
X131715Y747609D01*
X131815Y747590D01*
X131913Y747566D01*
X132011Y747539D01*
X132107Y747508D01*
X132202Y747474D01*
X132296Y747435D01*
X132388Y747394D01*
X132479Y747348D01*
X132568Y747299D01*
X132654Y747247D01*
X132739Y747191D01*
X132821Y747132D01*
X132901Y747070D01*
X132979Y747005D01*
X133054Y746937D01*
X133126Y746866D01*
X133196Y746793D01*
X133262Y746716D01*
X133326Y746638D01*
X133386Y746556D01*
X133443Y746473D01*
X133497Y746387D01*
X133548Y746299D01*
X133595Y746210D01*
X133639Y746118D01*
X133679Y746025D01*
X133716Y745931D01*
X133748Y745835D01*
X133777Y745738D01*
X133803Y745640D01*
X133824Y745541D01*
X133842Y745441D01*
X133855Y745341D01*
X133865Y745240D01*
X133871Y745139D01*
X133873Y745038D01*
X138049Y745561D02*
X138049Y742428D01*
X138049Y745561D02*
X138047Y745651D01*
X138041Y745740D01*
X138032Y745830D01*
X138018Y745919D01*
X138001Y746007D01*
X137980Y746094D01*
X137955Y746181D01*
X137926Y746266D01*
X137894Y746350D01*
X137859Y746432D01*
X137819Y746513D01*
X137777Y746592D01*
X137731Y746669D01*
X137681Y746744D01*
X137629Y746817D01*
X137573Y746888D01*
X137515Y746956D01*
X137453Y747021D01*
X137389Y747084D01*
X137322Y747144D01*
X137253Y747201D01*
X137181Y747255D01*
X137107Y747306D01*
X137031Y747354D01*
X136953Y747398D01*
X136873Y747439D01*
X136791Y747477D01*
X136708Y747511D01*
X136623Y747541D01*
X136537Y747568D01*
X136451Y747591D01*
X136363Y747610D01*
X136274Y747625D01*
X136185Y747637D01*
X136096Y747645D01*
X136006Y747649D01*
X135916Y747649D01*
X135826Y747645D01*
X135737Y747637D01*
X135648Y747625D01*
X135559Y747610D01*
X135471Y747591D01*
X135385Y747568D01*
X135299Y747541D01*
X135214Y747511D01*
X135131Y747477D01*
X135049Y747439D01*
X134969Y747398D01*
X134891Y747354D01*
X134815Y747306D01*
X134741Y747255D01*
X134669Y747201D01*
X134600Y747144D01*
X134533Y747084D01*
X134469Y747021D01*
X134407Y746956D01*
X134349Y746888D01*
X134293Y746817D01*
X134241Y746744D01*
X134191Y746669D01*
X134145Y746592D01*
X134103Y746513D01*
X134063Y746432D01*
X134028Y746350D01*
X133996Y746266D01*
X133967Y746181D01*
X133942Y746094D01*
X133921Y746007D01*
X133904Y745919D01*
X133890Y745830D01*
X133881Y745740D01*
X133875Y745651D01*
X133873Y745561D01*
X133872Y745561D02*
X133872Y743472D01*
X112649Y724197D02*
X103251Y724197D01*
X112649Y724197D02*
X112649Y726808D01*
X112647Y726909D01*
X112641Y727010D01*
X112631Y727111D01*
X112618Y727211D01*
X112600Y727311D01*
X112579Y727410D01*
X112553Y727508D01*
X112524Y727605D01*
X112492Y727701D01*
X112455Y727795D01*
X112415Y727888D01*
X112371Y727980D01*
X112324Y728069D01*
X112273Y728157D01*
X112219Y728243D01*
X112162Y728326D01*
X112102Y728408D01*
X112038Y728486D01*
X111972Y728563D01*
X111902Y728636D01*
X111830Y728707D01*
X111755Y728775D01*
X111677Y728840D01*
X111597Y728902D01*
X111515Y728961D01*
X111430Y729017D01*
X111344Y729069D01*
X111255Y729118D01*
X111164Y729164D01*
X111072Y729205D01*
X110978Y729244D01*
X110883Y729278D01*
X110787Y729309D01*
X110689Y729336D01*
X110591Y729360D01*
X110491Y729379D01*
X110391Y729395D01*
X110291Y729407D01*
X110190Y729415D01*
X110089Y729419D01*
X109987Y729419D01*
X109886Y729415D01*
X109785Y729407D01*
X109685Y729395D01*
X109585Y729379D01*
X109485Y729360D01*
X109387Y729336D01*
X109289Y729309D01*
X109193Y729278D01*
X109098Y729244D01*
X109004Y729205D01*
X108912Y729164D01*
X108821Y729118D01*
X108733Y729069D01*
X108646Y729017D01*
X108561Y728961D01*
X108479Y728902D01*
X108399Y728840D01*
X108321Y728775D01*
X108246Y728707D01*
X108174Y728636D01*
X108104Y728563D01*
X108038Y728486D01*
X107974Y728408D01*
X107914Y728326D01*
X107857Y728243D01*
X107803Y728157D01*
X107752Y728069D01*
X107705Y727980D01*
X107661Y727888D01*
X107621Y727795D01*
X107584Y727701D01*
X107552Y727605D01*
X107523Y727508D01*
X107497Y727410D01*
X107476Y727311D01*
X107458Y727211D01*
X107445Y727111D01*
X107435Y727010D01*
X107429Y726909D01*
X107427Y726808D01*
X107428Y726808D02*
X107428Y724197D01*
X107428Y727330D02*
X103251Y729418D01*
X110561Y733284D02*
X112649Y735894D01*
X103251Y735894D01*
X103251Y733284D02*
X103251Y738505D01*
X105339Y742428D02*
X112649Y744516D01*
X105339Y742428D02*
X105339Y747649D01*
X107428Y746083D02*
X103251Y746083D01*
X49149Y654431D02*
X39751Y654431D01*
X49149Y654431D02*
X49149Y657042D01*
X49147Y657143D01*
X49141Y657244D01*
X49131Y657345D01*
X49118Y657445D01*
X49100Y657545D01*
X49079Y657644D01*
X49053Y657742D01*
X49024Y657839D01*
X48992Y657935D01*
X48955Y658029D01*
X48915Y658122D01*
X48871Y658214D01*
X48824Y658303D01*
X48773Y658391D01*
X48719Y658477D01*
X48662Y658560D01*
X48602Y658642D01*
X48538Y658720D01*
X48472Y658797D01*
X48402Y658870D01*
X48330Y658941D01*
X48255Y659009D01*
X48177Y659074D01*
X48097Y659136D01*
X48015Y659195D01*
X47930Y659251D01*
X47844Y659303D01*
X47755Y659352D01*
X47664Y659398D01*
X47572Y659439D01*
X47478Y659478D01*
X47383Y659512D01*
X47287Y659543D01*
X47189Y659570D01*
X47091Y659594D01*
X46991Y659613D01*
X46891Y659629D01*
X46791Y659641D01*
X46690Y659649D01*
X46589Y659653D01*
X46487Y659653D01*
X46386Y659649D01*
X46285Y659641D01*
X46185Y659629D01*
X46085Y659613D01*
X45985Y659594D01*
X45887Y659570D01*
X45789Y659543D01*
X45693Y659512D01*
X45598Y659478D01*
X45504Y659439D01*
X45412Y659398D01*
X45321Y659352D01*
X45233Y659303D01*
X45146Y659251D01*
X45061Y659195D01*
X44979Y659136D01*
X44899Y659074D01*
X44821Y659009D01*
X44746Y658941D01*
X44674Y658870D01*
X44604Y658797D01*
X44538Y658720D01*
X44474Y658642D01*
X44414Y658560D01*
X44357Y658477D01*
X44303Y658391D01*
X44252Y658303D01*
X44205Y658214D01*
X44161Y658122D01*
X44121Y658029D01*
X44084Y657935D01*
X44052Y657839D01*
X44023Y657742D01*
X43997Y657644D01*
X43976Y657545D01*
X43958Y657445D01*
X43945Y657345D01*
X43935Y657244D01*
X43929Y657143D01*
X43927Y657042D01*
X43928Y657042D02*
X43928Y654431D01*
X43928Y657564D02*
X39751Y659652D01*
X47061Y663518D02*
X49149Y666128D01*
X39751Y666128D01*
X39751Y663518D02*
X39751Y668739D01*
X39751Y672662D02*
X39751Y675795D01*
X39753Y675884D01*
X39759Y675972D01*
X39768Y676060D01*
X39781Y676148D01*
X39798Y676235D01*
X39818Y676321D01*
X39843Y676406D01*
X39870Y676491D01*
X39902Y676574D01*
X39936Y676655D01*
X39975Y676735D01*
X40016Y676813D01*
X40061Y676890D01*
X40109Y676964D01*
X40160Y677037D01*
X40214Y677107D01*
X40272Y677174D01*
X40332Y677240D01*
X40394Y677302D01*
X40460Y677362D01*
X40527Y677420D01*
X40597Y677474D01*
X40670Y677525D01*
X40744Y677573D01*
X40821Y677618D01*
X40899Y677659D01*
X40979Y677698D01*
X41060Y677732D01*
X41143Y677764D01*
X41228Y677791D01*
X41313Y677816D01*
X41399Y677836D01*
X41486Y677853D01*
X41574Y677866D01*
X41662Y677875D01*
X41750Y677881D01*
X41839Y677883D01*
X42884Y677883D01*
X42973Y677881D01*
X43061Y677875D01*
X43149Y677866D01*
X43237Y677853D01*
X43324Y677836D01*
X43410Y677816D01*
X43495Y677791D01*
X43580Y677764D01*
X43663Y677732D01*
X43744Y677698D01*
X43824Y677659D01*
X43902Y677618D01*
X43979Y677573D01*
X44053Y677525D01*
X44126Y677474D01*
X44196Y677420D01*
X44263Y677362D01*
X44329Y677302D01*
X44391Y677240D01*
X44451Y677174D01*
X44509Y677107D01*
X44563Y677037D01*
X44614Y676964D01*
X44662Y676890D01*
X44707Y676813D01*
X44748Y676735D01*
X44787Y676655D01*
X44821Y676574D01*
X44853Y676491D01*
X44880Y676406D01*
X44905Y676321D01*
X44925Y676235D01*
X44942Y676148D01*
X44955Y676060D01*
X44964Y675972D01*
X44970Y675884D01*
X44972Y675795D01*
X44972Y672662D01*
X49149Y672662D01*
X49149Y677883D01*
X62611Y654431D02*
X72009Y654431D01*
X72009Y657042D01*
X72007Y657143D01*
X72001Y657244D01*
X71991Y657345D01*
X71978Y657445D01*
X71960Y657545D01*
X71939Y657644D01*
X71913Y657742D01*
X71884Y657839D01*
X71852Y657935D01*
X71815Y658029D01*
X71775Y658122D01*
X71731Y658214D01*
X71684Y658303D01*
X71633Y658391D01*
X71579Y658477D01*
X71522Y658560D01*
X71462Y658642D01*
X71398Y658720D01*
X71332Y658797D01*
X71262Y658870D01*
X71190Y658941D01*
X71115Y659009D01*
X71037Y659074D01*
X70957Y659136D01*
X70875Y659195D01*
X70790Y659251D01*
X70704Y659303D01*
X70615Y659352D01*
X70524Y659398D01*
X70432Y659439D01*
X70338Y659478D01*
X70243Y659512D01*
X70147Y659543D01*
X70049Y659570D01*
X69951Y659594D01*
X69851Y659613D01*
X69751Y659629D01*
X69651Y659641D01*
X69550Y659649D01*
X69449Y659653D01*
X69347Y659653D01*
X69246Y659649D01*
X69145Y659641D01*
X69045Y659629D01*
X68945Y659613D01*
X68845Y659594D01*
X68747Y659570D01*
X68649Y659543D01*
X68553Y659512D01*
X68458Y659478D01*
X68364Y659439D01*
X68272Y659398D01*
X68181Y659352D01*
X68093Y659303D01*
X68006Y659251D01*
X67921Y659195D01*
X67839Y659136D01*
X67759Y659074D01*
X67681Y659009D01*
X67606Y658941D01*
X67534Y658870D01*
X67464Y658797D01*
X67398Y658720D01*
X67334Y658642D01*
X67274Y658560D01*
X67217Y658477D01*
X67163Y658391D01*
X67112Y658303D01*
X67065Y658214D01*
X67021Y658122D01*
X66981Y658029D01*
X66944Y657935D01*
X66912Y657839D01*
X66883Y657742D01*
X66857Y657644D01*
X66836Y657545D01*
X66818Y657445D01*
X66805Y657345D01*
X66795Y657244D01*
X66789Y657143D01*
X66787Y657042D01*
X66788Y657042D02*
X66788Y654431D01*
X66788Y657564D02*
X62611Y659652D01*
X69921Y663518D02*
X72009Y666128D01*
X62611Y666128D01*
X62611Y663518D02*
X62611Y668739D01*
X67832Y672662D02*
X67832Y675795D01*
X67830Y675884D01*
X67824Y675972D01*
X67815Y676060D01*
X67802Y676148D01*
X67785Y676235D01*
X67765Y676321D01*
X67740Y676406D01*
X67713Y676491D01*
X67681Y676574D01*
X67647Y676655D01*
X67608Y676735D01*
X67567Y676813D01*
X67522Y676890D01*
X67474Y676964D01*
X67423Y677037D01*
X67369Y677107D01*
X67311Y677174D01*
X67251Y677240D01*
X67189Y677302D01*
X67123Y677362D01*
X67056Y677420D01*
X66986Y677474D01*
X66913Y677525D01*
X66839Y677573D01*
X66762Y677618D01*
X66684Y677659D01*
X66604Y677698D01*
X66523Y677732D01*
X66440Y677764D01*
X66355Y677791D01*
X66270Y677816D01*
X66184Y677836D01*
X66097Y677853D01*
X66009Y677866D01*
X65921Y677875D01*
X65833Y677881D01*
X65744Y677883D01*
X65222Y677883D01*
X65121Y677881D01*
X65020Y677875D01*
X64919Y677865D01*
X64819Y677852D01*
X64719Y677834D01*
X64620Y677813D01*
X64522Y677787D01*
X64425Y677758D01*
X64329Y677726D01*
X64235Y677689D01*
X64142Y677649D01*
X64050Y677605D01*
X63961Y677558D01*
X63873Y677507D01*
X63787Y677453D01*
X63704Y677396D01*
X63622Y677336D01*
X63544Y677272D01*
X63467Y677206D01*
X63394Y677136D01*
X63323Y677064D01*
X63255Y676989D01*
X63190Y676911D01*
X63128Y676831D01*
X63069Y676749D01*
X63013Y676664D01*
X62961Y676578D01*
X62912Y676489D01*
X62866Y676398D01*
X62825Y676306D01*
X62786Y676212D01*
X62752Y676117D01*
X62721Y676021D01*
X62694Y675923D01*
X62670Y675825D01*
X62651Y675725D01*
X62635Y675625D01*
X62623Y675525D01*
X62615Y675424D01*
X62611Y675323D01*
X62611Y675221D01*
X62615Y675120D01*
X62623Y675019D01*
X62635Y674919D01*
X62651Y674819D01*
X62670Y674719D01*
X62694Y674621D01*
X62721Y674523D01*
X62752Y674427D01*
X62786Y674332D01*
X62825Y674238D01*
X62866Y674146D01*
X62912Y674055D01*
X62961Y673967D01*
X63013Y673880D01*
X63069Y673795D01*
X63128Y673713D01*
X63190Y673633D01*
X63255Y673555D01*
X63323Y673480D01*
X63394Y673408D01*
X63467Y673338D01*
X63544Y673272D01*
X63622Y673208D01*
X63704Y673148D01*
X63787Y673091D01*
X63873Y673037D01*
X63961Y672986D01*
X64050Y672939D01*
X64142Y672895D01*
X64235Y672855D01*
X64329Y672818D01*
X64425Y672786D01*
X64522Y672757D01*
X64620Y672731D01*
X64719Y672710D01*
X64819Y672692D01*
X64919Y672679D01*
X65020Y672669D01*
X65121Y672663D01*
X65222Y672661D01*
X65222Y672662D02*
X67832Y672662D01*
X67961Y672664D01*
X68089Y672670D01*
X68217Y672680D01*
X68345Y672694D01*
X68473Y672711D01*
X68600Y672733D01*
X68726Y672759D01*
X68851Y672788D01*
X68975Y672821D01*
X69098Y672859D01*
X69220Y672899D01*
X69341Y672944D01*
X69460Y672992D01*
X69578Y673044D01*
X69694Y673100D01*
X69808Y673159D01*
X69920Y673222D01*
X70031Y673288D01*
X70139Y673357D01*
X70245Y673430D01*
X70349Y673506D01*
X70451Y673585D01*
X70550Y673667D01*
X70646Y673752D01*
X70740Y673840D01*
X70831Y673931D01*
X70919Y674025D01*
X71004Y674121D01*
X71086Y674220D01*
X71165Y674322D01*
X71241Y674426D01*
X71314Y674532D01*
X71383Y674640D01*
X71449Y674750D01*
X71512Y674863D01*
X71571Y674977D01*
X71627Y675093D01*
X71679Y675211D01*
X71727Y675330D01*
X71772Y675451D01*
X71812Y675573D01*
X71850Y675696D01*
X71883Y675820D01*
X71912Y675945D01*
X71938Y676071D01*
X71960Y676198D01*
X71977Y676326D01*
X71991Y676454D01*
X72001Y676582D01*
X72007Y676710D01*
X72009Y676839D01*
X85471Y654431D02*
X94869Y654431D01*
X94869Y657042D01*
X94867Y657143D01*
X94861Y657244D01*
X94851Y657345D01*
X94838Y657445D01*
X94820Y657545D01*
X94799Y657644D01*
X94773Y657742D01*
X94744Y657839D01*
X94712Y657935D01*
X94675Y658029D01*
X94635Y658122D01*
X94591Y658214D01*
X94544Y658303D01*
X94493Y658391D01*
X94439Y658477D01*
X94382Y658560D01*
X94322Y658642D01*
X94258Y658720D01*
X94192Y658797D01*
X94122Y658870D01*
X94050Y658941D01*
X93975Y659009D01*
X93897Y659074D01*
X93817Y659136D01*
X93735Y659195D01*
X93650Y659251D01*
X93564Y659303D01*
X93475Y659352D01*
X93384Y659398D01*
X93292Y659439D01*
X93198Y659478D01*
X93103Y659512D01*
X93007Y659543D01*
X92909Y659570D01*
X92811Y659594D01*
X92711Y659613D01*
X92611Y659629D01*
X92511Y659641D01*
X92410Y659649D01*
X92309Y659653D01*
X92207Y659653D01*
X92106Y659649D01*
X92005Y659641D01*
X91905Y659629D01*
X91805Y659613D01*
X91705Y659594D01*
X91607Y659570D01*
X91509Y659543D01*
X91413Y659512D01*
X91318Y659478D01*
X91224Y659439D01*
X91132Y659398D01*
X91041Y659352D01*
X90953Y659303D01*
X90866Y659251D01*
X90781Y659195D01*
X90699Y659136D01*
X90619Y659074D01*
X90541Y659009D01*
X90466Y658941D01*
X90394Y658870D01*
X90324Y658797D01*
X90258Y658720D01*
X90194Y658642D01*
X90134Y658560D01*
X90077Y658477D01*
X90023Y658391D01*
X89972Y658303D01*
X89925Y658214D01*
X89881Y658122D01*
X89841Y658029D01*
X89804Y657935D01*
X89772Y657839D01*
X89743Y657742D01*
X89717Y657644D01*
X89696Y657545D01*
X89678Y657445D01*
X89665Y657345D01*
X89655Y657244D01*
X89649Y657143D01*
X89647Y657042D01*
X89648Y657042D02*
X89648Y654431D01*
X89648Y657564D02*
X85471Y659652D01*
X92781Y663518D02*
X94869Y666128D01*
X85471Y666128D01*
X85471Y663518D02*
X85471Y668739D01*
X93825Y672662D02*
X94869Y672662D01*
X94869Y677883D01*
X85471Y675272D01*
M02*
