G04 EAGLE Gerber RS-274X export*
G75*
%MOMM*%
%FSLAX34Y34*%
%LPD*%
%INSolderpaste Bottom*%
%IPPOS*%
%AMOC8*
5,1,8,0,0,1.08239X$1,22.5*%
G01*
%ADD10R,1.000000X1.100000*%
%ADD11R,1.100000X1.000000*%
%ADD12R,0.300000X1.600000*%
%ADD13R,1.600000X0.300000*%
%ADD14R,1.500000X1.000000*%


D10*
X274320Y841620D03*
X274320Y824620D03*
X198120Y832240D03*
X198120Y849240D03*
D11*
X138040Y594360D03*
X121040Y594360D03*
D10*
X157480Y832240D03*
X157480Y849240D03*
D12*
X129820Y681240D03*
X134820Y681240D03*
X139820Y681240D03*
X144820Y681240D03*
X149820Y681240D03*
X154820Y681240D03*
X159820Y681240D03*
X164820Y681240D03*
D13*
X178320Y667740D03*
X178320Y662740D03*
X178320Y657740D03*
X178320Y652740D03*
X178320Y647740D03*
X178320Y642740D03*
X178320Y637740D03*
X178320Y632740D03*
D12*
X164820Y619240D03*
X159820Y619240D03*
X154820Y619240D03*
X149820Y619240D03*
X144820Y619240D03*
X139820Y619240D03*
X134820Y619240D03*
X129820Y619240D03*
D13*
X116320Y632740D03*
X116320Y637740D03*
X116320Y642740D03*
X116320Y647740D03*
X116320Y652740D03*
X116320Y657740D03*
X116320Y662740D03*
X116320Y667740D03*
D11*
X116840Y849240D03*
X116840Y832240D03*
D14*
X56245Y698500D03*
X35195Y698500D03*
D10*
X237880Y734060D03*
X254880Y734060D03*
X235340Y213360D03*
X252340Y213360D03*
X237880Y703580D03*
X254880Y703580D03*
X207400Y680720D03*
X224400Y680720D03*
X217560Y624840D03*
X234560Y624840D03*
X235340Y650240D03*
X252340Y650240D03*
D11*
X218440Y298060D03*
X218440Y281060D03*
D10*
X216780Y579120D03*
X199780Y579120D03*
D11*
X170180Y750180D03*
X170180Y733180D03*
X144780Y750180D03*
X144780Y733180D03*
X119380Y750180D03*
X119380Y733180D03*
X45720Y631580D03*
X45720Y648580D03*
X68580Y631580D03*
X68580Y648580D03*
X91440Y631580D03*
X91440Y648580D03*
M02*
